<svg width="52" height="52" viewBox="0 0 52 52" xmlns="http://www.w3.org/2000/svg">
    <g fill="none" fill-rule="evenodd">
        <g fill="#07509D" fill-rule="nonzero">
            <path d="M27.22 45.633c-.112-.143-.225-.25-.375-.285-.15-.071-.376-.142-.751-.213-.526-.107-.826-.25-.826-.392 0-.106.075-.178.112-.249.113-.07.263-.106.489-.106.15 0 .3.035.413.106.075.071.15.178.15.285l.789-.107a1.089 1.089 0 0 0-.489-.64 1.718 1.718 0 0 0-.863-.214c-.414 0-.79.107-1.015.32-.225.178-.338.463-.338.819 0 .142.038.284.15.391.113.142.226.249.376.32.113.071.451.142.94.25.337.07.525.177.525.355 0 .107-.075.213-.188.284a.988.988 0 0 1-.375.072c-.226 0-.413-.036-.564-.107a.457.457 0 0 1-.263-.32l-.788.142c0 .071.037.178.075.285.112.177.263.32.413.39.263.143.638.214 1.052.214.45 0 .788-.106 1.051-.284.263-.178.413-.463.413-.818.038-.214-.037-.356-.112-.498zM19.634 44.316a.194.194 0 0 1-.113-.177l-.6.39c.037.108.15.25.3.321.15.107.3.178.488.178h.789v-.605h-.564a.258.258 0 0 1-.3-.107zM29.211 46.806v-.604h-.563a.629.629 0 0 1-.338-.107c-.075-.071-.113-.142-.113-.178l-.6.391c.074.143.15.25.3.356a.86.86 0 0 0 .488.142h.826zM18.62 46.06v-2.206h-.864v2.099c0 .213-.038.355-.113.462-.075.142-.263.178-.488.178-.263 0-.413-.071-.526-.178a.444.444 0 0 1-.15-.356v-.035c0-.036 0-.071.037-.071.038-.178.113-.285.263-.32.075-.072.188-.072.376-.072v-.426c-.188 0-.338-.036-.488-.107-.188-.071-.263-.178-.263-.32v-.071c0-.107.037-.178.112-.25.076-.07.15-.07.263-.07.113 0 .263.035.376.106l.15-.498a1.161 1.161 0 0 0-.375-.142c-.15-.036-.3-.036-.489-.036a.992.992 0 0 0-.6.178.82.82 0 0 0-.264.57c0 .213.038.355.113.497.075.178.188.285.376.32-.113.072-.15.107-.226.178-.15.143-.187.32-.187.498 0 .392.15.676.413.854.263.178.638.285 1.164.285.488 0 .864-.107 1.09-.32.15-.107.3-.356.3-.748zM10.207 46.664c-.188 0-.338-.107-.489-.249-.112-.142-.187-.32-.187-.462l-.79.106c.113.356.264.64.527.854.263.214.6.32 1.014.32.526 0 .976-.142 1.277-.498.3-.32.413-.711.413-1.174 0-.498-.113-.889-.413-1.209-.3-.356-.751-.534-1.352-.534a1.71 1.71 0 0 0-1.015.32c-.3.25-.488.534-.525.854l.788.071c.038-.177.113-.355.263-.462.113-.107.3-.178.526-.178.3 0 .526.107.639.356.112.178.187.427.187.711 0 .32-.037.57-.15.783-.15.249-.375.391-.713.391zM19.671 46.095c-.075-.071-.112-.142-.112-.178l-.601.391c.037.143.15.25.3.356.15.107.3.142.488.142h.79v-.604h-.564c-.15 0-.226-.036-.3-.107zM15.127 45.633c-.113-.143-.226-.25-.376-.285-.15-.071-.375-.142-.751-.213-.526-.107-.826-.25-.826-.392 0-.106.075-.178.112-.249.113-.07.263-.106.489-.106.15 0 .3.035.413.106.075.071.15.178.15.285l.789-.107a1.089 1.089 0 0 0-.489-.64 1.718 1.718 0 0 0-.863-.214c-.413 0-.79.107-1.014.32-.226.178-.338.463-.338.819 0 .142.037.284.112.391.113.142.263.249.413.32.113.071.414.142.94.25.337.07.525.177.525.355 0 .107-.075.213-.188.284a.988.988 0 0 1-.375.072c-.226 0-.413-.036-.564-.107a.457.457 0 0 1-.263-.32l-.788.142c0 .071.037.178.075.285.113.177.225.32.413.39.263.143.6.214 1.052.214.413 0 .788-.106 1.051-.284.263-.178.413-.463.413-.818.038-.214-.037-.356-.112-.498zM27.934 44.886c.15.106.338.177.489.177h.788v-.604h-.563c-.113 0-.263-.036-.338-.143a.194.194 0 0 1-.113-.177l-.6.39c.074.143.15.25.337.357zM38.376 44.388c.225 0 .375.07.488.177.075.107.15.214.15.392v2.17h.826v-2.313c0-.355-.15-.569-.375-.747-.263-.177-.564-.249-1.014-.249-.3 0-.601.072-.977.178-.3.107-.526.214-.676.32v.356c.075 0 .15.036.263.036.038.035.075.035.113.07a.977.977 0 0 0-.263.285c-.075.107-.113.285-.113.463v1.21h-.188v.462h1.052v-2.17c0-.178.075-.32.188-.391.15-.214.338-.25.526-.25zM31.352 43.356c.15.107.338.142.563.142h1.653V43h-1.24c-.15 0-.3-.035-.45-.106a.856.856 0 0 1-.263-.25l-.563.392c0 .107.112.213.3.32zM38.45 43.356c.15.107.339.142.527.142h1.69V43H39.39a.79.79 0 0 1-.413-.106c-.15-.072-.226-.143-.263-.25l-.601.392c.037.107.15.213.338.32zM22.338 47.198h.113c.263 0 .45-.036.6-.071.264-.072.414-.143.564-.285.188-.178.3-.498.3-.854v-3.521h-.826v3.557c0 .035 0 .071-.037.107-.038.142-.075.249-.188.32a.836.836 0 0 1-.45.106H22.3c-.15-.035-.3-.07-.413-.106-.112-.107-.15-.214-.15-.392v-2.205h-.826v2.17c0 .391.112.676.3.854.263.213.601.32 1.127.32zM42.432 43.854v2.099c0 .213-.038.355-.113.462-.075.142-.263.178-.488.178-.263 0-.413-.071-.526-.178a.444.444 0 0 1-.15-.356v-.035c0-.036 0-.071.037-.071.038-.178.113-.285.263-.32.076-.072.188-.072.376-.072v-.426c-.188 0-.338-.036-.488-.107-.188-.071-.263-.178-.263-.32v-.071c0-.107.037-.178.112-.25.076-.07.15-.07.263-.07.113 0 .263.035.376.106l.15-.498a1.161 1.161 0 0 0-.375-.142c-.15-.036-.3-.036-.489-.036a.992.992 0 0 0-.6.178.691.691 0 0 0-.263.57c0 .213.037.355.112.497.075.178.188.285.376.32-.113.072-.15.107-.226.178a.685.685 0 0 0-.225.498c0 .392.15.676.45.854.264.178.677.285 1.128.285.525 0 .901-.107 1.126-.32a1.12 1.12 0 0 0 .338-.819v-2.205h-.901v.071zM15.202 43H12.46l-.263.498h2.967V43zM11.86 43H9.116l-.263.498h2.968V43zM34.732 47.162a.614.614 0 0 0 .263-.142c.15-.107.3-.285.413-.534l.038.605h.751v-3.237h-.826v1.814c0 .25-.075.427-.188.605a.787.787 0 0 1-.413.284h-.113a.546.546 0 0 1-.45-.213c-.076-.107-.113-.249-.113-.462v-2.028h-.826v2.241c0 .32.112.57.338.783.225.177.488.284.826.284.075.036.188 0 .3 0zM32.742 47.127v-2.313c0-.355-.113-.569-.376-.747-.225-.177-.563-.249-.976-.249-.3 0-.639.072-.977.178-.3.107-.526.214-.638.32v.356c.075 0 .15.036.3.071.038 0 .038 0 .075.036a.977.977 0 0 0-.263.284c-.075.107-.112.285-.112.463v1.672h.826v-2.17c0-.178.075-.32.188-.391.112-.107.3-.143.488-.143.225 0 .376.071.526.178a.614.614 0 0 1 .112.391v2.17h.827v-.106z"/>
        </g>
        <path d="M15.146 5.633h21.708c3.618 0 6.48 2.945 6.48 6.48V33.82c0 3.534-2.946 6.479-6.48 6.479H15.146c-3.618 0-6.48-2.945-6.48-6.479V12.112c0-3.534 2.862-6.479 6.48-6.479" fill="#1F4792"/>
        <path d="M23.644 29.53h4.712v-5.806l3.282-5.049-2.356-3.618-.926 1.43-.505-.757.926-1.43-2.861-4.375-2.861 4.375.926 1.43-.505.758-.926-1.43-2.356 3.617 3.282 5.049m9.34-3.282-2.777 4.376 1.683 2.524-2.861 4.375h-5.638l-2.86-4.375 1.682-2.524-2.776-4.376-4.46 6.9 5.638 8.75h11.359l5.637-8.75-4.627-6.9z" fill="#F8BB19"/>
    </g>
</svg>
