<?xml version="1.0" encoding="UTF-8"?>
<svg width="147px" height="40px" viewBox="0 0 147 40" version="1.1" xmlns="http://www.w3.org/2000/svg" xmlns:xlink="http://www.w3.org/1999/xlink">
    <title>A98DACE2-CBB9-4138-AD61-688A66B52838</title>
    <g id="Member✍️-/-Login-/-Submenu" stroke="none" stroke-width="1" fill="none" fill-rule="evenodd">
        <g id="header_all" transform="translate(-646.000000, -1185.000000)">
            <g id="comp/header/desktop/quote" transform="translate(0.000000, 1171.000000)">
                <g id="logo/horizontal/heygoody-on-white" transform="translate(646.000000, 14.000000)">
                    <g id="Group-4" transform="translate(1.113636, 8.888889)">
                        <g id="Group">
                            <g id="Group-94" transform="translate(0.000000, 8.421053)" fill="#1DA578">
                                <path d="M4.93068711,0 C4.93068711,3.10054596 7.44417624,5.61403509 10.5447222,5.61403509 L10.586794,5.61403509 C13.68734,5.61403509 16.2008291,3.10054596 16.2008291,0 L19.0183646,0 C19.0183646,5.23217131 14.7768517,9.47368421 9.54468036,9.47368421 L9.47368421,9.47368421 C4.2415129,9.47368421 6.40756185e-16,5.23217131 0,0 Z" id="Combined-Shape"></path>
                            </g>
                            <path d="M17.6003936,0 L17.6188,0 C18.9752889,1.94906249e-16 20.0749404,1.09965149 20.0749404,2.45614035 C20.0749404,3.81262921 18.9752889,4.9122807 17.6188,4.9122807 L17.6003936,4.9122807 C16.2439048,4.9122807 15.1442533,3.81262921 15.1442533,2.45614035 C15.1442533,1.09965149 16.2439048,2.49182961e-16 17.6003936,0 Z M6.15415568,0 L6.17256209,0 C7.52905095,1.94906249e-16 8.62870244,1.09965149 8.62870244,2.45614035 C8.62870244,3.81262921 7.52905095,4.9122807 6.17256209,4.9122807 L6.15415568,4.9122807 C4.79766683,4.9122807 3.69801533,3.81262921 3.69801533,2.45614035 C3.69801533,1.09965149 4.79766683,2.49182961e-16 6.15415568,0 Z" id="Combined-Shape" fill="#2A2D2D"></path>
                        </g>
                        <path d="M26.0622033,17.8947368 L26.0622033,0 L29.5841227,0 L29.5833399,5.18089575 C30.5075972,4.462723 31.6688318,4.03508772 32.9299461,4.03508772 C35.9448547,4.03508772 38.3889211,6.47915408 38.3889211,9.49406274 L38.3889211,17.8947368 L34.8670017,17.8947368 L34.8670017,10.0098606 C34.8670017,8.55103381 33.684389,7.36842105 32.2255622,7.36842105 C30.7667354,7.36842105 29.5841227,8.55103381 29.5841227,10.0098606 L29.5841227,17.8947368 L26.0622033,17.8947368 Z M47.1056715,15 C48.1804676,15 49.1530382,14.5639548 49.8548742,13.8597444 L53.6964873,13.8599181 C52.6249104,16.4346246 50.077573,18.245614 47.1056715,18.245614 C43.1668392,18.245614 39.9737848,15.0644794 39.9737848,11.1403509 C39.9737848,7.21622239 43.1668392,4.03508772 47.1056715,4.03508772 C51.0445038,4.03508772 54.2375582,7.21622239 54.2375582,11.1403509 C54.2375582,11.6520397 54.1832667,12.1510953 54.0801097,12.6321122 L50.6799407,12.6318076 L43.5314024,12.6318076 C44.1169188,14.0228885 45.4967593,15 47.1056715,15 Z M47.1056715,7.28070175 C45.4964032,7.28070175 44.1163081,8.25824577 43.5310138,9.64981767 L50.6803292,9.64981767 C50.0950349,8.25824577 48.7149398,7.28070175 47.1056715,7.28070175 Z M91.1296636,4.03508772 C95.0684958,4.03508772 98.2615503,7.21622239 98.2615503,11.1403509 C98.2615503,15.0644794 95.0684958,18.245614 91.1296636,18.245614 C87.1908313,18.245614 83.9977769,15.0644794 83.9977769,11.1403509 C83.9977769,7.21622239 87.1908313,4.03508772 91.1296636,4.03508772 Z M91.1296636,7.28070175 C88.990051,7.28070175 87.2555523,9.00872553 87.2555523,11.1403509 C87.2555523,13.2719762 88.990051,15 91.1296636,15 C93.2692762,15 95.0037749,13.2719762 95.0037749,11.1403509 C95.0037749,9.00872553 93.2692762,7.28070175 91.1296636,7.28070175 Z M106.450013,4.03508772 C110.388845,4.03508772 113.5819,7.21622239 113.5819,11.1403509 C113.5819,15.0644794 110.388845,18.245614 106.450013,18.245614 C102.511181,18.245614 99.3181261,15.0644794 99.3181261,11.1403509 C99.3181261,7.21622239 102.511181,4.03508772 106.450013,4.03508772 Z M106.450013,7.28070175 C104.3104,7.28070175 102.575902,9.00872553 102.575902,11.1403509 C102.575902,13.2719762 104.3104,15 106.450013,15 C108.589625,15 110.324124,13.2719762 110.324124,11.1403509 C110.324124,9.00872553 108.589625,7.28070175 106.450013,7.28070175 Z M128.726153,0 L128.726153,17.8947368 L125.204233,17.8947368 L125.204582,16.9341646 C124.111222,17.7599895 122.774083,18.245614 121.330122,18.245614 C117.634428,18.245614 114.638475,15.0644794 114.638475,11.1403509 C114.638475,7.21622239 117.634428,4.03508772 121.330122,4.03508772 C122.774083,4.03508772 124.111222,4.52071227 125.204582,5.34653719 L125.204233,0 L128.726153,0 Z M121.85841,7.28070175 C119.767425,7.28070175 118.072347,9.00872553 118.072347,11.1403509 C118.072347,13.2719762 119.767425,15 121.85841,15 C123.949395,15 125.644473,13.2719762 125.644473,11.1403509 C125.644473,9.00872553 123.949395,7.28070175 121.85841,7.28070175 Z M75.0168825,4.03508772 C76.5392973,4.03508772 77.9429681,4.56825184 79.0673773,5.46624502 L79.0670898,4.38596491 L82.5890091,4.38596491 L82.5890091,15.0877193 L82.5890091,15.1837126 C82.5890091,18.7552615 80.8309857,23.1695521 75.7509048,23.3288911 L75.4652504,23.3333333 C71.9319035,23.3333333 69.6105973,21.8649332 68.5013317,18.9281329 L72.1762228,18.9281329 C73.1079529,19.8029953 74.1675465,20.2404264 75.3550037,20.2404264 C77.4323807,20.2450045 78.6991305,19.0239983 79.155253,16.5774081 L79.1572357,16.5660877 L78.9411743,16.7373823 C77.838725,17.5758117 76.482855,18.0701754 75.0168825,18.0701754 C71.321188,18.0701754 68.3252357,14.928314 68.3252357,11.0526316 C68.3252357,7.17694912 71.321188,4.03508772 75.0168825,4.03508772 Z M75.3690744,7.19298246 C73.2294618,7.19298246 71.4949631,8.92100623 71.4949631,11.0526316 C71.4949631,13.1842569 73.2294618,14.9122807 75.3690744,14.9122807 C77.508687,14.9122807 79.2431857,13.1842569 79.2431857,11.0526316 C79.2431857,8.92100623 77.508687,7.19298246 75.3690744,7.19298246 Z M58.1116695,4.38596491 L61.1096542,12.1259649 L64.4159052,4.38596491 L68.1139205,4.38596491 L60.4713555,22.2807018 L56.7733402,22.2807018 L59.1710861,16.6666667 L54.4136542,4.38596491 L58.1116695,4.38596491 Z M133.65684,4.38596491 L136.654825,12.1259649 L139.961076,4.38596491 L143.659091,4.38596491 L136.016526,22.2807018 L132.318511,22.2807018 L134.716256,16.6666667 L129.958825,4.38596491 L133.65684,4.38596491 Z" id="Combined-Shape" fill="#2A2D2D"></path>
                    </g>
                </g>
            </g>
        </g>
    </g>
</svg>