<svg width="131" height="40" viewBox="0 0 131 40" xmlns="http://www.w3.org/2000/svg">
    <g fill="none" fill-rule="evenodd">
        <path d="M6.682 13.04a4.953 4.953 0 1 0 9.906 0v-.015h2.477v.026a8.358 8.358 0 0 1-16.717 0v-.026h4.334z" fill="#1DA578"/>
        <path d="M17.827 5.573c1.197 0 2.167.97 2.167 2.167v.013a2.167 2.167 0 0 1-4.334 0V7.74c0-1.197.97-2.167 2.167-2.167zm-10.061 0c1.197 0 2.167.97 2.167 2.167v.013a2.167 2.167 0 1 1-4.334 0V7.74c0-1.197.97-2.167 2.167-2.167zM25.256 21.41V5.573h3.096v4.578a4.798 4.798 0 0 1 7.74 3.791v7.468h-3.096v-6.995a2.322 2.322 0 1 0-4.644 0v6.995h-3.096zM43.753 9.144c3.462 0 6.269 2.815 6.269 6.288 0 .452-.048.894-.138 1.319H40.61a3.406 3.406 0 0 0 3.142 2.097c.945 0 1.8-.386 2.417-1.01h3.376a6.27 6.27 0 0 1-5.793 3.882c-3.462 0-6.269-2.815-6.269-6.288 0-3.473 2.807-6.288 6.269-6.288zm0 2.872a3.406 3.406 0 0 0-3.142 2.096h6.284a3.406 3.406 0 0 0-3.142-2.096zm38.696-2.872c3.462 0 6.268 2.815 6.268 6.288 0 3.473-2.806 6.288-6.268 6.288-3.462 0-6.269-2.815-6.269-6.288 0-3.473 2.807-6.288 6.269-6.288zm0 2.872a3.41 3.41 0 0 0-3.405 3.416 3.41 3.41 0 0 0 3.405 3.416 3.41 3.41 0 0 0 3.405-3.416 3.41 3.41 0 0 0-3.405-3.416zm13.466-2.872c3.462 0 6.269 2.815 6.269 6.288 0 3.473-2.807 6.288-6.27 6.288-3.461 0-6.268-2.815-6.268-6.288 0-3.473 2.807-6.288 6.269-6.288zm0 2.872a3.41 3.41 0 0 0-3.405 3.416 3.41 3.41 0 0 0 3.405 3.416 3.41 3.41 0 0 0 3.405-3.416 3.41 3.41 0 0 0-3.405-3.416zm19.58-6.443V21.41h-3.096v-.85a5.601 5.601 0 0 1-3.405 1.16c-3.248 0-5.882-2.815-5.882-6.288 0-3.473 2.634-6.288 5.882-6.288 1.269 0 2.444.43 3.405 1.16V5.573h3.096zm-6.037 6.443c-1.837 0-3.327 1.53-3.327 3.416s1.49 3.416 3.327 3.416c1.838 0 3.328-1.53 3.328-3.416 0-1.887-1.49-3.416-3.328-3.416zM68.286 9.144c1.338 0 2.572.471 3.56 1.266v-.956h3.096V19.01c0 3.156-1.541 7.056-5.991 7.208l-.27.005c-3.107 0-5.147-1.3-6.122-3.899h3.23c.82.774 1.75 1.161 2.794 1.161 1.822.005 2.934-1.07 3.338-3.225l.004-.027-.202.162a5.649 5.649 0 0 1-3.437 1.17c-3.248 0-5.882-2.78-5.882-6.21s2.634-6.211 5.882-6.211zm.31 2.794a3.41 3.41 0 0 0-3.406 3.416 3.41 3.41 0 0 0 3.406 3.416A3.41 3.41 0 0 0 72 15.354a3.41 3.41 0 0 0-3.405-3.416zm-15.17-2.484 2.636 6.85 2.906-6.85h3.25l-6.717 15.837h-3.25l2.107-4.968-4.182-10.869h3.25zm66.403 0 2.635 6.85 2.906-6.85h3.25l-6.717 15.837h-3.25l2.107-4.968-4.182-10.869h3.25z" fill="#2A2D2D"/>
        <g fill="#2A2D2D" fill-rule="nonzero">
            <path d="M28.604 31.874c0 .405-.14.742-.42 1.01-.28.267-.708.401-1.282.401h-.947v2.032h-.643V30.45h1.59c.555 0 .978.132 1.268.398.29.265.434.607.434 1.026zm-1.702.887c.358 0 .621-.077.79-.23.17-.154.255-.373.255-.657 0-.6-.348-.9-1.045-.9h-.947v1.787h.947zM30.85 35.38a2 2 0 0 1-.985-.244 1.75 1.75 0 0 1-.693-.695 2.11 2.11 0 0 1-.25-1.044c0-.391.086-.737.257-1.037.172-.3.407-.531.703-.692.297-.16.63-.24.997-.24s.7.08.996.24c.297.16.531.39.703.688.172.298.258.645.258 1.04 0 .397-.089.745-.265 1.045-.177.3-.416.532-.717.695a2.075 2.075 0 0 1-1.004.244zm0-.558c.231 0 .448-.054.65-.161a1.23 1.23 0 0 0 .491-.482 1.53 1.53 0 0 0 .188-.782c0-.307-.062-.568-.184-.782a1.196 1.196 0 0 0-.48-.479 1.353 1.353 0 0 0-.643-.157c-.236 0-.451.052-.647.157a1.158 1.158 0 0 0-.47.479 1.603 1.603 0 0 0-.176.782c0 .312.057.575.173.789.115.214.27.374.463.478.193.105.405.158.635.158zM38.761 31.49l-1.208 3.827h-.664l-.933-3.038-.933 3.038h-.664l-1.215-3.827h.657l.89 3.213.961-3.213h.657l.94 3.22.876-3.22zM42.85 33.257c0 .121-.008.25-.022.384h-3.094c.023.377.154.672.392.884.237.212.526.318.865.318.278 0 .51-.064.696-.193.186-.128.317-.299.392-.513h.693c-.104.368-.311.667-.622.898-.311.23-.697.345-1.159.345-.367 0-.696-.081-.985-.244a1.74 1.74 0 0 1-.682-.695 2.135 2.135 0 0 1-.248-1.044c0-.396.08-.743.24-1.04.16-.299.386-.528.675-.689.29-.16.623-.24 1-.24.368 0 .693.078.975.237.283.158.5.376.654.653.153.277.23.59.23.94zm-.665-.133c0-.242-.054-.45-.162-.625a1.052 1.052 0 0 0-.442-.398 1.39 1.39 0 0 0-.618-.136 1.2 1.2 0 0 0-.83.307c-.229.205-.36.49-.392.852h2.444zM44.26 32.112c.113-.22.274-.389.484-.51a1.51 1.51 0 0 1 .766-.182v.657h-.17c-.72 0-1.08.386-1.08 1.16v2.08h-.643V31.49h.643v.622zM49.544 33.257c0 .121-.007.25-.021.384h-3.095c.024.377.154.672.392.884.238.212.527.318.866.318.278 0 .51-.064.696-.193.186-.128.317-.299.392-.513h.692c-.103.368-.31.667-.621.898-.311.23-.698.345-1.16.345-.367 0-.695-.081-.985-.244a1.74 1.74 0 0 1-.682-.695 2.135 2.135 0 0 1-.247-1.044c0-.396.08-.743.24-1.04.16-.299.385-.528.675-.689.29-.16.623-.24 1-.24.367 0 .692.078.975.237.282.158.5.376.653.653.154.277.23.59.23.94zm-.664-.133c0-.242-.054-.45-.163-.625a1.052 1.052 0 0 0-.441-.398 1.39 1.39 0 0 0-.618-.136 1.2 1.2 0 0 0-.83.307c-.229.205-.36.49-.393.852h2.445zM50.071 33.39c0-.391.08-.735.24-1.03.16-.296.381-.525.661-.688.28-.163.595-.245.943-.245.302 0 .582.069.841.206.26.138.457.318.594.542v-2.026H54v5.168h-.65v-.719a1.496 1.496 0 0 1-.566.562c-.25.147-.541.22-.876.22a1.763 1.763 0 0 1-1.597-.957 2.176 2.176 0 0 1-.24-1.033zm3.279.007c0-.289-.06-.54-.177-.754a1.24 1.24 0 0 0-.477-.493c-.2-.114-.42-.171-.66-.171-.24 0-.46.056-.658.168a1.222 1.222 0 0 0-.473.489 1.541 1.541 0 0 0-.177.754c0 .293.06.548.177.765a1.241 1.241 0 0 0 1.13.667c.24 0 .461-.057.661-.172.2-.114.36-.279.477-.495.118-.217.177-.47.177-.758zM57.457 32.203c.131-.229.325-.415.579-.56a1.73 1.73 0 0 1 .869-.216c.349 0 .662.082.94.245.278.163.497.392.657.688.16.295.24.639.24 1.03 0 .386-.08.73-.24 1.033a1.763 1.763 0 0 1-1.597.957c-.334 0-.628-.072-.88-.216a1.482 1.482 0 0 1-.568-.552v.705h-.643V30.15h.643v2.054zm2.628 1.187c0-.289-.059-.54-.177-.754a1.215 1.215 0 0 0-.477-.49c-.2-.111-.42-.167-.66-.167-.236 0-.454.057-.654.171-.2.114-.36.28-.48.496-.12.217-.18.467-.18.75 0 .29.06.542.18.759.12.216.28.381.48.495.2.115.418.172.654.172.24 0 .46-.057.66-.172.2-.114.36-.279.477-.495.118-.217.177-.472.177-.765zM64.788 31.49l-2.332 5.63h-.664l.763-1.844-1.561-3.786h.713l1.216 3.101 1.2-3.1zM73.312 32.985l1.917 1.927c-3.589 3.952-6.637 1.636-6.637 1.636h.05c1.146-.049 2.113-.583 2.85-1.23 1.18-1.021 1.82-2.333 1.82-2.333zm-4.343.162c.885 1.312 1.737 1.927 2.212 2.138-.9.826-1.638.971-2.736 1.166-.246-.21-.59-.518-.803-.794zm-.885-1.393c3.589-3.951 6.637-1.635 6.637-1.635h-.049c-1.147.048-2.114.583-2.851 1.23-1.18 1.02-1.82 2.316-1.82 2.316zm6.867-1.457a8.1 8.1 0 0 1 .737.745l-1.327 2.51c-.902-1.344-1.77-1.911-2.245-2.121.278-.292 1.147-1.134 2.835-1.134zm30.53 1.069c.754 0 1.279.162 1.574.47.196.21.311.501.295.874 0 .178-.033.389-.099.615-.36 1.344-1.327 2.008-2.868 1.976-.77-.016-1.294-.178-1.59-.47-.212-.21-.31-.534-.294-.955.016-.21.065-.437.13-.664.034-.13.083-.227.116-.308v.016h1.655l-.164.6h-.36l-.05.145c-.033.13-.082.292-.082.373 0 .194.05.34.164.453.131.146.36.21.672.21.344 0 .623-.08.82-.242.262-.194.458-.567.606-1.085.065-.21.098-.405.098-.567 0-.26-.065-.453-.196-.583-.148-.146-.377-.227-.689-.227-.262 0-.508.081-.72.21a.857.857 0 0 0-.329.309h-1.245c.147-.308.426-.551.803-.762.459-.243 1.065-.388 1.753-.388zm-21.697.048v.033h1.13l-.573 2.056a3.94 3.94 0 0 0-.098.535.47.47 0 0 0 .114.356c.099.113.263.162.443.162.41 0 .82-.324 1.114-.858v-.033c.017-.032.05-.097.115-.275l.573-1.96h1.115l-.672 2.413c-.197.648-.344 1.231-.41 1.426h-1.098l.23-.81-.18.178a2.082 2.082 0 0 1-1.557.664c-.361 0-.623-.097-.787-.26-.148-.161-.213-.404-.197-.744 0-.227.05-.454.131-.713l.607-2.17zm16.732-.048c.82 0 1.344.13 1.606.388.147.13.213.308.197.551 0 .032-.017.081-.017.113 0 .033 0 .065-.016.114l-.738 2.737h-1.163l.442-1.636H99.5a.904.904 0 0 0-.475.13c-.132.097-.213.194-.246.323-.05.21.016.421.213.519a.43.43 0 0 0 .246.064c.016 0 .262.017.262 0l-.18.6h-.18c-.902 0-1.197-.065-1.41-.243-.23-.21-.295-.502-.197-.907.033-.162.115-.308.213-.454.099-.145.23-.275.394-.388.147-.114.344-.195.557-.26.213-.064.442-.097.688-.097h1.639v-.053a.157.157 0 0 1 .016-.06c.017-.065.033-.081.033-.097l.033-.13c.016-.032.016-.08.016-.13a.388.388 0 0 0-.114-.29c-.115-.13-.345-.195-.672-.195-.246 0-.46.032-.64.13-.196.113-.327.242-.393.42h-1.262c.131-.34.377-.599.77-.81.443-.226 1-.34 1.705-.34zm-2.884.048-1.05 3.838h-1.18l.82-2.996h-1.245c-.066 0-.148.033-.148.033-.557.178-.786.745-.868 1.052a7.665 7.665 0 0 1-.05.26 1.256 1.256 0 0 0-.032.226.587.587 0 0 0 .18.486c.18.194.475.292.869.292l-.197.647h-.672c-.492.017-.869-.064-1.082-.291-.196-.194-.295-.486-.278-.858.016-.081.016-.227.033-.357.016-.113.032-.226.082-.356.196-.696.426-1.117.786-1.425.59-.518 1.36-.55 2.049-.55h1.983zm-19.076 0-1.065 3.838h-1.098l1.049-3.838h1.114zm11.275 0h.023c.033.001.092.004.14.017.132.016.23.097.23.097l.377.275a.107.107 0 0 0 .082.032h.016a.52.52 0 0 0 .214-.097l.508-.324h1.278l-1.033 3.838h-1.114l.869-3.174-.787.47c-.05.016-.148.08-.213.08-.033 0-.131-.064-.197-.129l-.328-.275s-.049-.032-.098-.032a.15.15 0 0 0-.082.016c-.295.178-.524.567-.672 1.166a7.665 7.665 0 0 1-.049.259 1.256 1.256 0 0 0-.033.227c0 .226.05.388.18.518.148.162.41.243.754.243l-.163.631h-.787c-.442 0-.77-.064-.983-.275-.197-.194-.295-.502-.279-.89 0-.098.016-.211.033-.325.016-.097.049-.226.082-.356.164-.615.442-1.117.803-1.473.36-.34.754-.519 1.213-.519h.016zm-6.867-.016-1.048 3.838h-1.77c-.345 0-.426-.291-.443-.324l-1-2.64h1.098c.115.34.705 1.863.82 2.106.016.032.033.048.049.08v.017a.245.245 0 0 0 .148.065c.065 0 .13-.049.163-.114l.689-2.445h-.557l.163-.583h1.688zm18.437-1.895-.197.713h2.213l-.115.47h-3.229l.213-.745h-.393l.098-.324c.066-.016.394-.081 1.082-.114h.328zm-9.39.421 1.098.065-.197.697H89.11l.147-.583c.23-.033 1.459-.13 2.754-.179zm-9.735 0 1.098.065-.197.697h-3.802l.148-.583c.23-.033 1.458-.13 2.753-.179z"/>
        </g>
    </g>
</svg>
