<svg width="88" height="88" viewBox="0 0 88 88" xmlns="http://www.w3.org/2000/svg">
    <defs>
        <linearGradient x1="0%" y1=".656%" x2="0%" y2="97.588%" id="g1c36qe8da">
            <stop stop-color="#4392F0" offset="0%"/>
            <stop stop-color="#D4F8FF" offset="44.489%"/>
            <stop stop-color="#F69BE1" offset="100%"/>
        </linearGradient>
    </defs>
    <g fill="none" fill-rule="evenodd">
        <g transform="rotate(-4 132.234 -67.658)">
            <rect stroke="#C9C9C9" stroke-width=".5" fill="#FFF" x=".25" y=".25" width="63.667" height="74.667" rx="1.833"/>
            <path fill="url(#g1c36qe8da)" d="M2.75 2.75H5.5v69.667H2.75z"/>
            <g fill="#3F49A5" fill-rule="nonzero">
                <path d="m13.791 23.584-1.874-10.502h2.88l.533 3.7c.04.306.089.724.148 1.254.06.53.115 1.147.168 1.85h.059c.118-.473.224-.904.316-1.294s.18-.741.266-1.054c.086-.313.161-.584.227-.814l1.065-3.642h1.796l1.065 3.642a72.238 72.238 0 0 1 .504 1.868c.098.39.2.82.305 1.294h.06c.065-.703.121-1.32.167-1.85.046-.53.096-.948.148-1.255l.553-3.699h2.86l-1.854 10.502h-2.9l-1.244-4.273a16.523 16.523 0 0 1-.305-1.37c-.073-.416-.142-.84-.208-1.275h-.078c-.053.294-.102.575-.148.843a15.483 15.483 0 0 1-.425 1.802l-1.262 4.273H13.79zM26.931 20.796h.131a1.394 1.394 0 1 1 0 2.788h-.13a1.394 1.394 0 0 1 0-2.788zM34.249 23.833c-.776 0-1.556-.083-2.338-.249a8.492 8.492 0 0 1-2.082-.709l.829-2.28c.263.14.578.287.947.44.368.154.77.281 1.203.384.434.102.875.153 1.322.153.526 0 .924-.073 1.194-.22a.725.725 0 0 0 .404-.68.7.7 0 0 0-.266-.566c-.178-.147-.437-.287-.78-.422-.341-.134-.75-.277-1.223-.43a11.187 11.187 0 0 1-1.795-.787c-.5-.28-.885-.626-1.154-1.034-.27-.41-.405-.92-.405-1.533 0-.703.184-1.278.553-1.725.368-.447.887-.783 1.558-1.006.671-.224 1.454-.336 2.348-.336.737 0 1.401.058 1.993.173.592.115 1.052.262 1.381.44v2.262a6.27 6.27 0 0 0-.878-.307c-.361-.102-.75-.188-1.164-.258a7.142 7.142 0 0 0-1.194-.106c-.539 0-.947.07-1.223.211-.276.14-.414.339-.414.594 0 .204.095.377.286.517.19.141.47.272.838.393.369.122.81.272 1.322.45.684.23 1.263.486 1.737.767.473.281.832.626 1.075 1.035.243.409.365.914.365 1.514 0 .575-.135 1.115-.404 1.62-.27.504-.727.913-1.372 1.226-.644.313-1.532.47-2.663.47zM41.112 20.796h.13a1.394 1.394 0 0 1 0 2.788h-.13a1.394 1.394 0 0 1 0-2.788zM48.696 23.833c-1.71 0-2.95-.386-3.72-1.16-.769-.772-1.154-1.893-1.154-3.362v-6.229h2.96v6.382c0 .677.155 1.191.464 1.543.309.351.792.527 1.45.527.658 0 1.141-.176 1.45-.527.31-.352.464-.866.464-1.543v-6.382h2.96v6.229c0 1.469-.385 2.59-1.155 3.363-.77.773-2.01 1.16-3.72 1.16zM56.225 20.796h.13a1.394 1.394 0 0 1 0 2.788h-.13a1.394 1.394 0 0 1 0-2.788z"/>
            </g>
            <path fill="#EBEBEB" d="m11.917 36.723 45.833.011v.793l-45.833-.011z"/>
            <path fill="#EBEBEB" d="M33.973 31.167h.795l.009 36.666h-.795z"/>
            <path stroke="#EBEBEB" stroke-width=".917" d="M12.375 31.625h44.917v35.75H12.375z"/>
        </g>
        <g transform="rotate(7 -404.228 491.712)">
            <rect stroke="#3597FD" stroke-width="2.292" fill="#F79AE0" x="1.146" y="1.146" width="23.375" height="23.375" rx="1.833"/>
            <path fill="#FFF" d="M5.042 9.167h18.333v8.25H5.042z"/>
            <g fill="#544956" fill-rule="nonzero">
                <path d="M9.763 16.28H6.24v-.82l1.618-2.057c.205-.285.356-.535.453-.75.098-.215.146-.42.146-.618 0-.265-.046-.473-.137-.624a.438.438 0 0 0-.397-.225.51.51 0 0 0-.45.262c-.11.176-.165.422-.165.74H6.142c0-.367.076-.703.228-1.006a1.702 1.702 0 0 1 1.574-.961c.534 0 .948.147 1.242.441.294.294.441.712.441 1.254 0 .337-.081.678-.244 1.025-.163.346-.458.772-.885 1.279l-.768 1.096h2.033v.965zM10.17 13.341l.296-3.038h2.894v.993h-1.942l-.107 1.281a1.23 1.23 0 0 1 .694-.225c.493 0 .873.175 1.14.525.266.35.4.846.4 1.486 0 .6-.159 1.083-.477 1.45-.317.366-.741.55-1.272.55a1.77 1.77 0 0 1-.875-.224 1.649 1.649 0 0 1-.634-.622 1.791 1.791 0 0 1-.236-.903h1.15c.019.249.08.442.184.579a.483.483 0 0 0 .403.205c.191 0 .339-.093.443-.277.104-.185.156-.46.156-.828 0-.344-.062-.604-.187-.78a.606.606 0 0 0-.523-.262c-.22 0-.389.075-.51.225l-.073.103-.924-.238zM15.824 12.356l.805-2.053h1.383l-1.404 2.964 1.437 3.014h-1.4l-.82-2.09-.818 2.09h-1.4l1.437-3.014-1.408-2.964h1.383z"/>
                <path d="m20.087 12.356.804-2.053h1.384l-1.404 2.964 1.437 3.014h-1.4l-.821-2.09-.817 2.09h-1.4l1.436-3.014-1.408-2.964h1.384z"/>
            </g>
            <path fill="#FFF" d="M0 8.708h2.292v14.667H0z"/>
            <g fill="#222">
                <path d="M0 9.146h1.833v1H0zM0 10.46h1.833v1H0zM0 12.211h1.833v1H0z"/>
                <path d="M0 9.584h1.833v1H0zM0 10.897h1.833v1H0z"/>
                <path d="M0 11.554h1.833v1H0zM0 12.867h1.833v1H0zM0 18.56h1.833v1H0zM0 19.872h1.833v1H0zM0 21.624h1.833v1H0z"/>
                <path d="M0 18.997h1.833v1H0zM0 20.31h1.833v1H0z"/>
                <path d="M0 20.967h1.833v1H0zM0 22.28h1.833v1H0zM0 13.743h1.833v1H0zM0 15.056h1.833v1H0zM0 16.808h1.833v1H0z"/>
                <path d="M0 14.181h1.833v1H0zM0 15.494h1.833v1H0z"/>
                <path d="M0 16.151h1.833v1H0zM0 17.464h1.833v1H0z"/>
            </g>
            <circle fill="#A06491" cx="20.625" cy="5.042" r="2.292"/>
        </g>
        <g fill="#FCE455">
            <path d="m77.75 22.07.062-.016.002-.001h.001l.003-.002.004-.005c.142-.183.131-.402.146-.615.082-1.17.155-2.34.252-3.508.122-1.488.822-2.587 2.268-3.208.446-.191.906-.37 1.315-.639l.24-.172.004-.002.01-.007c.073-.057.05-.19.049-.195a.233.233 0 0 0-.036-.09l-.032-.034-.007-.005-.017-.008-.019-.009a3.433 3.433 0 0 0-.364-.14c-.233-.075-.4-.099-.745-.152a83.383 83.383 0 0 1-.764-.121s-.81-.082-1.524-.562c-.62-.418-1.066-1.034-1.37-1.806-.443-1.123-.832-2.268-1.253-3.4-.066-.178-.098-.399-.294-.492l-.095-.031-.005-.005a.29.29 0 0 0-.01-.002l-.003.001-.01.005c-.257.134-.218.385-.234.607a338.82 338.82 0 0 0-.23 3.296c-.101 1.585-.752 2.81-2.322 3.472-.23.097-.452.208-.672.325l-.66.354c-.15.08-.288.187-.24.383.04.167.191.208.34.234.563.1 1.125.208 1.692.292a3.474 3.474 0 0 1 1.474.556c.558.382.842.84 1.123 1.328.641 1.111 1.366 3.13 1.465 3.894.01.083.042.367.232.459a.359.359 0 0 0 .224.02zM62.637 16.003l.049-.01h.002l.002-.002.002-.002c.083-.092.08-.2.09-.306.06-.58.115-1.16.182-1.74.087-.738.5-1.29 1.333-1.613.31-.12.629-.231.899-.419l.002-.001.005-.004c.043-.029.031-.094.03-.097a.105.105 0 0 0-.014-.038l-.023-.022-.004-.003-.02-.008a2.082 2.082 0 0 0-.207-.065c-.132-.035-.227-.045-.424-.067a50.34 50.34 0 0 1-.436-.052s-.462-.031-.865-.261c-.35-.2-.598-.5-.764-.88-.241-.55-.451-1.113-.68-1.67-.034-.082-.05-.185-.147-.233l-.069-.021-.003-.002h-.007a.717.717 0 0 0-.006.002c-.149.07-.129.193-.14.303-.059.545-.116 1.09-.168 1.635-.076.786-.461 1.4-1.367 1.745-.264.1-.514.23-.769.35-.087.041-.167.096-.142.193.021.082.107.1.192.112.321.043.642.09.965.126.324.035.602.123.837.26.315.182.472.406.628.644.354.543.746 1.535.794 1.912.006.041.02.181.128.225a.223.223 0 0 0 .115.01zM68.708 21.431l-.004.002-.001.001c-.183.127-.4.202-.608.283-.565.218-.844.591-.902 1.091-.045.393-.082.785-.122 1.178-.007.072-.005.145-.06.208h-.002v.001h-.002v.001a.178.178 0 0 1-.111 0c-.074-.029-.084-.124-.087-.152-.033-.255-.3-.927-.54-1.295-.107-.162-.213-.314-.427-.438a1.43 1.43 0 0 0-.568-.176c-.219-.024-.436-.057-.654-.086-.057-.008-.115-.021-.13-.077-.017-.065.038-.102.096-.13.173-.08.342-.169.521-.236.613-.233.874-.649.924-1.18.035-.37.073-.739.113-1.108.007-.074-.006-.158.094-.204l.004-.002h.005l.002.001c.11.019.12.106.147.173.156.377.298.758.462 1.132.113.256.282.46.519.596.273.156.587.177.587.177.13.017.23.029.295.036.133.015.198.022.288.046.055.014.105.031.14.044l.01.005h.003l.002.001.001.001c.02.013.024.035.026.042 0 .001.008.046-.02.065"/>
        </g>
    </g>
</svg>
