<svg width="320" height="23" viewBox="0 0 320 23" xmlns="http://www.w3.org/2000/svg">
    <g fill="none" fill-rule="evenodd">
        <path d="M320 0v1c-5.523 0-10 4.701-10 10.5S314.477 22 320 22v1H0v-1c5.523 0 10-4.701 10-10.5S5.523 1 0 1V0h320z" fill="#FFF"/>
        <path d="M19.5 11v1h4v-1h-4zm6 0v1h4v-1h-4zm6 0v1h4v-1h-4zm6 0v1h4v-1h-4zm6 0v1h4v-1h-4zm6 0v1h4v-1h-4zm6 0v1h4v-1h-4zm6 0v1h4v-1h-4zm6 0v1h4v-1h-4zm6 0v1h4v-1h-4zm6 0v1h4v-1h-4zm6 0v1h4v-1h-4zm6 0v1h4v-1h-4zm6 0v1h4v-1h-4zm6 0v1h4v-1h-4zm6 0v1h4v-1h-4zm6 0v1h4v-1h-4zm6 0v1h4v-1h-4zm6 0v1h4v-1h-4zm6 0v1h4v-1h-4zm6 0v1h4v-1h-4zm6 0v1h4v-1h-4zm6 0v1h4v-1h-4zm6 0v1h4v-1h-4zm6 0v1h4v-1h-4zm6 0v1h4v-1h-4zm6 0v1h4v-1h-4zm6 0v1h4v-1h-4zm6 0v1h4v-1h-4zm6 0v1h4v-1h-4zm6 0v1h4v-1h-4zm6 0v1h4v-1h-4zm6 0v1h4v-1h-4zm6 0v1h4v-1h-4zm6 0v1h4v-1h-4zm6 0v1h4v-1h-4zm6 0v1h4v-1h-4zm6 0v1h4v-1h-4zm6 0v1h4v-1h-4zm6 0v1h4v-1h-4zm6 0v1h4v-1h-4zm6 0v1h4v-1h-4zm6 0v1h4v-1h-4zm6 0v1h4v-1h-4zm6 0v1h4v-1h-4zm6 0v1h4v-1h-4zm6 0v1h4v-1h-4z" fill="#C9C9C9" fill-rule="nonzero"/>
    </g>
</svg>
