<svg width="24" height="24" viewBox="0 0 24 24" xmlns="http://www.w3.org/2000/svg">
    <path d="M11.965 5.01C8.125 5.01 5 8.144 5 11.995c0 3.852 3.124 6.986 6.965 6.986 1.416 0 2.78-.424 3.942-1.226a1.04 1.04 0 0 0 .266-1.443 1.035 1.035 0 0 0-1.441-.268 4.85 4.85 0 0 1-2.767.86c-2.697 0-4.892-2.202-4.892-4.909 0-2.706 2.195-4.908 4.892-4.908l.192.004a4.905 4.905 0 0 1 4.533 3.636l.017.07-.837-.84a1.035 1.035 0 0 0-1.466 0 1.04 1.04 0 0 0 0 1.469l2.6 2.607a1.036 1.036 0 0 0 1.466 0l2.6-2.607a1.04 1.04 0 0 0 0-1.469l-.085-.076a1.035 1.035 0 0 0-1.382.076l-.786.788-.007-.037c-.606-3.258-3.463-5.698-6.845-5.698z" fill="#FFF" fill-rule="nonzero"/>
</svg>
