<svg width="16" height="16" viewBox="0 0 16 16" xmlns="http://www.w3.org/2000/svg">
    <defs>
        <linearGradient x1="33.354%" y1="92.604%" x2="78.513%" y2="-3.043%" id="49jkt911ya">
            <stop stop-color="#F3BE49" offset="0%"/>
            <stop stop-color="#FFE775" offset="100%"/>
        </linearGradient>
    </defs>
    <path d="M14.182 6.549a.987.987 0 0 0 .266-1.04 1.043 1.043 0 0 0-.851-.689l-3.136-.438a.153.153 0 0 1-.115-.08l-1.4-2.737A1.057 1.057 0 0 0 8 1c-.4 0-.767.22-.944.565L5.652 4.303a.151.151 0 0 1-.114.08L2.4 4.82a1.043 1.043 0 0 0-.848.69.987.987 0 0 0 .265 1.038l2.27 2.13a.143.143 0 0 1 .045.13l-.536 3.006a.996.996 0 0 0 .42.992c.323.226.753.256 1.108.076l2.806-1.42a.155.155 0 0 1 .142 0l2.806 1.42c.355.18.785.15 1.109-.077a.996.996 0 0 0 .419-.991l-.536-3.007a.144.144 0 0 1 .045-.13l2.267-2.13z" fill="url(#49jkt911ya)" fill-rule="nonzero"/>
</svg>
