<svg width="56" height="56" viewBox="0 0 56 56" xmlns="http://www.w3.org/2000/svg" xmlns:xlink="http://www.w3.org/1999/xlink">
    <defs>
        <circle id="najkd6fs5a" cx="28" cy="28" r="28"/>
    </defs>
    <g fill="none" fill-rule="evenodd">
        <mask id="q853f2dlbb" fill="#fff">
            <use xlink:href="#najkd6fs5a"/>
        </mask>
        <use fill="#1DA578" xlink:href="#najkd6fs5a"/>
        <path d="M28-4 5.844-2.547 28 28.352V-4z" fill="#DCDCDC" mask="url(#q853f2dlbb)"/>
        <path d="M28 52c13.255 0 24-10.745 24-24S41.255 4 28 4 4 14.745 4 28s10.745 24 24 24z" fill="#FFF" mask="url(#q853f2dlbb)"/>
        <g mask="url(#q853f2dlbb)" fill="#3E3E3E" fill-rule="nonzero">
            <path d="M16.308 30.576c.16.843.65 1.264 1.472 1.264.565 0 .965-.25 1.2-.752.235-.501.352-1.317.352-2.448-.235.33-.555.587-.96.768a3.294 3.294 0 0 1-1.36.272c-.683 0-1.29-.141-1.824-.424a3.022 3.022 0 0 1-1.256-1.264c-.304-.56-.456-1.24-.456-2.04 0-.79.163-1.477.488-2.064.325-.587.79-1.04 1.392-1.36.603-.32 1.315-.48 2.136-.48 1.579 0 2.683.49 3.312 1.472.63.981.944 2.427.944 4.336 0 1.387-.125 2.53-.376 3.432-.25.901-.672 1.587-1.264 2.056-.592.47-1.4.704-2.424.704-.81 0-1.501-.16-2.072-.48a3.403 3.403 0 0 1-1.312-1.264 3.915 3.915 0 0 1-.52-1.728h2.528zm1.328-3.056c.448 0 .805-.136 1.072-.408.267-.272.4-.643.4-1.112 0-.512-.139-.907-.416-1.184-.277-.277-.65-.416-1.12-.416-.47 0-.84.141-1.112.424-.272.283-.408.67-.408 1.16 0 .459.136.83.408 1.112.272.283.664.424 1.176.424zM23.204 28c0-1.835.355-3.28 1.064-4.336.71-1.056 1.853-1.584 3.432-1.584s2.723.528 3.432 1.584c.71 1.056 1.064 2.501 1.064 4.336 0 1.856-.355 3.312-1.064 4.368-.71 1.056-1.853 1.584-3.432 1.584s-2.723-.528-3.432-1.584c-.71-1.056-1.064-2.512-1.064-4.368zm6.304 0c0-1.077-.117-1.907-.352-2.488s-.72-.872-1.456-.872-1.221.29-1.456.872c-.235.581-.352 1.41-.352 2.488 0 .725.043 1.325.128 1.8.085.475.259.859.52 1.152.261.293.648.44 1.16.44.512 0 .899-.147 1.16-.44.261-.293.435-.677.52-1.152.085-.475.128-1.075.128-1.8zM33.288 27.448c0-.648.186-1.148.558-1.5.372-.352.854-.528 1.446-.528s1.072.176 1.44.528c.368.352.552.852.552 1.5s-.184 1.148-.552 1.5c-.368.352-.848.528-1.44.528s-1.074-.176-1.446-.528c-.372-.352-.558-.852-.558-1.5zm8.148-1.896L36.816 34h-1.98l4.62-8.448h1.98zM35.28 26.62c-.384 0-.576.276-.576.828 0 .544.192.816.576.816a.513.513 0 0 0 .432-.204c.104-.136.156-.34.156-.612 0-.552-.196-.828-.588-.828zM39 32.104c0-.648.184-1.148.552-1.5.368-.352.848-.528 1.44-.528s1.072.176 1.44.528c.368.352.552.852.552 1.5s-.184 1.148-.552 1.5c-.368.352-.848.528-1.44.528s-1.072-.176-1.44-.528c-.368-.352-.552-.852-.552-1.5zm1.98-.828a.497.497 0 0 0-.426.204c-.1.136-.15.344-.15.624 0 .544.192.816.576.816a.513.513 0 0 0 .432-.204c.104-.136.156-.34.156-.612 0-.272-.052-.478-.156-.618a.508.508 0 0 0-.432-.21z"/>
        </g>
    </g>
</svg>
