<svg width="56" height="56" viewBox="0 0 56 56" xmlns="http://www.w3.org/2000/svg">
    <g fill-rule="nonzero" fill="none">
        <circle fill="#FAE0BA" cx="28" cy="28" r="28"/>
        <path d="m14 24.5 13.482 8.58a.87.87 0 0 0 1.036 0L42 24.5 28.525 14.175a.877.877 0 0 0-1.05 0L14 24.5z" fill="#EE9132"/>
        <path d="M36.75 14h-17.5c-.964 0-1.75.786-1.75 1.75V35c0 .483.392.875.875.875h19.25A.875.875 0 0 0 38.5 35V15.75c0-.964-.784-1.75-1.75-1.75z" fill="#FFF"/>
        <g fill="#B8B8B8">
            <path d="M21.875 19h12.25c.483 0 .875-.336.875-.75s-.392-.75-.875-.75h-12.25c-.483 0-.875.336-.875.75s.392.75.875.75zM34.125 21h-12.25c-.483 0-.875.336-.875.75s.392.75.875.75h12.25c.483 0 .875-.336.875-.75s-.392-.75-.875-.75zM28.875 24.5h-7c-.483 0-.875.336-.875.75s.392.75.875.75h7c.483 0 .875-.336.875-.75s-.392-.75-.875-.75z"/>
        </g>
        <path d="M28.518 33.08a.87.87 0 0 1-1.036 0L14 24.5v15.75c0 .966.784 1.75 1.75 1.75h24.5A1.75 1.75 0 0 0 42 40.25V24.5l-13.482 8.58z" fill="#E07429"/>
        <path d="M40.25 42h-24.5A1.73 1.73 0 0 1 14 40.25c0-.278.133-.54.357-.705l13.125-8.75a.87.87 0 0 1 1.036 0l13.125 8.75a.876.876 0 0 1 .357.705A1.73 1.73 0 0 1 40.25 42z" fill="#EE9132"/>
    </g>
</svg>
