<svg width="24" height="24" viewBox="0 0 24 24" xmlns="http://www.w3.org/2000/svg">
    <g fill="none" fill-rule="evenodd">
        <g fill="#096B65">
            <path d="M9.692 2H3.538C2.688 2 2 2.689 2 3.539v7.692h6.154V9.692H3.538V3.54h6.154v4.615h1.539V2H9.692M17.385 12.77h-4.616v4.615h1.539v-3.077h3.077v-1.539M20.462 17.385h-1.539v1.538h1.539v1.539h-3.077V22h3.077c.85 0 1.538-.689 1.538-1.538v-3.077h-1.538"/>
            <path d="M15.846 15.846v3.077H12.77V22h1.539v-1.538h3.077v-4.616h-1.539M20.462 14.308H22v-1.539h-1.538zM18.923 15.846h1.539v-1.538h-1.539zM9.692 11.23h1.539V9.693H9.692zM14.308 2h6.154C21.312 2 22 2.689 22 3.539v7.692h-3.077V9.692h1.539V3.54h-6.154v7.692h-1.539V2h1.539"/>
            <path d="M15.846 11.23h1.539V9.693h-1.539zM9.692 12.77H2v7.692C2 21.312 2.689 22 3.538 22h7.693v-1.538H3.538v-6.154h6.154v4.615h1.539V12.77H9.692"/>
        </g>
        <path d="M5.577 8.154h2.077a.5.5 0 0 0 .5-.5V5.577a.5.5 0 0 0-.5-.5H5.577a.5.5 0 0 0-.5.5v2.077a.5.5 0 0 0 .5.5zM16.346 8.154h2.077a.5.5 0 0 0 .5-.5V5.577a.5.5 0 0 0-.5-.5h-2.077a.5.5 0 0 0-.5.5v2.077a.5.5 0 0 0 .5.5zM5.577 18.923h2.077a.5.5 0 0 0 .5-.5v-2.077a.5.5 0 0 0-.5-.5H5.577a.5.5 0 0 0-.5.5v2.077a.5.5 0 0 0 .5.5z" fill="#29A8A5"/>
    </g>
</svg>
