<svg width="288" height="130" viewBox="0 0 288 130" xmlns="http://www.w3.org/2000/svg" xmlns:xlink="http://www.w3.org/1999/xlink">
    <defs>
        <rect id="33s0q880ka" x="0" y="0" width="32" height="32" rx="4"/>
    </defs>
    <g fill="none" fill-rule="evenodd">
        <path d="M0 0h288v130H0z"/>
        <path stroke="#F8CD8E" stroke-linecap="square" stroke-dasharray="3,3" d="M50 14.5h192"/>
        <g transform="translate(26 2)">
            <circle fill="#E07429" cx="12" cy="12" r="12"/>
            <path d="M10.16 16.456c0-.117.016-.23.048-.336l1.824-7.072c-.31.235-.659.461-1.048.68-.39.219-.643.328-.76.328-.15 0-.317-.048-.504-.144a2.023 2.023 0 0 1-.48-.336c-.133-.128-.2-.235-.2-.32 0-.032.005-.053.016-.064.107-.139.387-.37.84-.696a58.664 58.664 0 0 1 1.768-1.208c.704-.47 1.12-.752 1.248-.848a.564.564 0 0 1 .32-.096c.245 0 .477.101.696.304.219.203.328.437.328.704 0 .01.008.04.024.088.016.048.024.11.024.184 0 .021-.01.096-.032.224-.16.885-.445 2.147-.856 3.784a255.54 255.54 0 0 0-.696 2.808 47.896 47.896 0 0 0-.4 1.584c-.085.373-.216.661-.392.864-.176.203-.461.304-.856.304-.32 0-.552-.053-.696-.16-.144-.107-.216-.299-.216-.576z" fill="#FFF" fill-rule="nonzero"/>
        </g>
        <g transform="translate(132 2)">
            <circle fill="#E07429" cx="12" cy="12" r="12"/>
            <path d="M13.672 8.808a.76.76 0 0 0-.328-.632c-.219-.165-.499-.248-.84-.248-.352 0-.664.043-.936.128s-.53.23-.776.432a.977.977 0 0 0-.288.32c-.053.107-.101.24-.144.4-.053.17-.12.293-.2.368-.08.075-.237.112-.472.112-.363 0-.653-.08-.872-.24a.785.785 0 0 1-.328-.672c0-.352.192-.715.576-1.088.384-.373.896-.683 1.536-.928a5.672 5.672 0 0 1 2.048-.368c.619 0 1.17.099 1.656.296.485.197.864.467 1.136.808a1.8 1.8 0 0 1 .408 1.152c0 .49-.19 1.005-.568 1.544a9.988 9.988 0 0 1-1.376 1.56 43.31 43.31 0 0 1-2.04 1.76l-.72.608c-.341.288-.63.541-.864.76a6.426 6.426 0 0 0-.576.6c.49-.117 1.195-.261 2.112-.432.917-.17 1.653-.283 2.208-.336a2.26 2.26 0 0 1 .304-.016c.203 0 .373.05.512.152.139.101.208.2.208.296 0 .288-.101.59-.304.904-.203.315-.55.488-1.04.52-.704.043-1.621.144-2.752.304a32.18 32.18 0 0 1-1.312.184c-.33.037-.672.056-1.024.056-.427 0-.757-.08-.992-.24-.235-.16-.352-.4-.352-.72 0-.352.107-.685.32-1 .213-.315.517-.659.912-1.032a84.153 84.153 0 0 1 2.624-2.304c.95-.8 1.61-1.403 1.984-1.808.373-.405.56-.805.56-1.2z" fill="#FFF" fill-rule="nonzero"/>
        </g>
        <g transform="translate(239 2)">
            <circle fill="#E07429" cx="12" cy="12" r="12"/>
            <path d="M15.484 13.224c0 .821-.237 1.536-.712 2.144a4.533 4.533 0 0 1-1.848 1.392c-.757.32-1.547.48-2.368.48-.48 0-.95-.08-1.408-.24-.459-.16-.832-.381-1.12-.664-.288-.283-.432-.595-.432-.936 0-.245.075-.432.224-.56.15-.128.357-.192.624-.192.15 0 .29.037.424.112a5 5 0 0 1 .52.352c.256.192.483.339.68.44.197.101.419.152.664.152.544 0 1.032-.117 1.464-.352a2.727 2.727 0 0 0 1.008-.904c.24-.368.36-.733.36-1.096 0-.363-.139-.675-.416-.936-.277-.261-.661-.43-1.152-.504-.16.117-.301.192-.424.224s-.27.048-.44.048c-.267 0-.512-.07-.736-.208-.224-.139-.336-.315-.336-.528 0-.245.128-.435.384-.568.256-.133.672-.29 1.248-.472.725-.213 1.29-.44 1.696-.68.405-.24.624-.59.656-1.048 0-.235-.117-.424-.352-.568-.235-.144-.523-.216-.864-.216-.704 0-1.312.197-1.824.592-.15.107-.256.219-.32.336a1.504 1.504 0 0 0-.144.384c-.053.17-.12.293-.2.368-.08.075-.237.112-.472.112-.341 0-.592-.075-.752-.224-.16-.15-.24-.379-.24-.688 0-.352.2-.715.6-1.088.4-.373.923-.683 1.568-.928a5.692 5.692 0 0 1 2.04-.368c.896 0 1.595.203 2.096.608.501.405.752.955.752 1.648 0 .49-.21.968-.632 1.432-.421.464-.963.813-1.624 1.048.587.107 1.035.357 1.344.752.31.395.464.843.464 1.344z" fill="#FFF" fill-rule="nonzero"/>
        </g>
        <g transform="translate(24 35)">
            <rect fill="#094F48" width="28" height="46" rx="5"/>
            <rect fill="#F5B964" x="2" y="2" width="24" height="42" rx="3"/>
            <path d="M8 2h12v1a1 1 0 0 1-1 1H9a1 1 0 0 1-1-1V2z" fill="#094F48"/>
            <g transform="translate(4 13)">
                <circle fill="#FFF" cx="10" cy="10" r="10"/>
                <path d="M9.468 3.643c.35-.193.725-.187 1.056-.004l5.343 3.173a.272.272 0 0 1 .133.234v1.091c0 .15-.122.272-.273.272h-.818v4.91c.602 0 1.091.489 1.091 1.09v.818c0 .151-.122.273-.273.273H4.273A.273.273 0 0 1 4 15.227v-.818c0-.601.49-1.09 1.09-1.09v-4.91h-.817A.272.272 0 0 1 4 8.137v-1.09c0-.097.05-.186.133-.235zM8.91 8.41H7.273v4.91h1.636v-4.91zm3.818 0h-1.636v4.91h1.636v-4.91z" fill="#D65C21" fill-rule="nonzero"/>
            </g>
        </g>
        <g fill="#1D1D1D" fill-rule="nonzero">
            <path d="M14.396 104.16c-.352 0-.67-.056-.952-.168a1.422 1.422 0 0 1-.68-.56c-.17-.261-.256-.616-.256-1.064v-7.136h1.712v6.928c0 .235.05.403.152.504.101.101.264.152.488.152.085 0 .181-.01.288-.032a2.53 2.53 0 0 0 .304-.08l.192 1.2a2.444 2.444 0 0 1-.616.2 3.57 3.57 0 0 1-.632.056zM20.7 104.176c-1.301 0-2.235-.299-2.8-.896s-.848-1.45-.848-2.56v-5.488h1.712v5.536c0 .672.157 1.173.472 1.504.315.33.803.496 1.464.496.661 0 1.152-.165 1.472-.496.32-.33.48-.832.48-1.504V92.08h1.712v8.64c0 1.11-.285 1.963-.856 2.56-.57.597-1.507.896-2.808.896z"/>
            <path d="M16.14 93.888v-.736l1.2-.56h4.448v1.296zM29.916 104.16c-.864 0-1.541-.197-2.032-.592-.49-.395-.84-.93-1.048-1.608-.208-.677-.312-1.432-.312-2.264 0-.917.099-1.675.296-2.272.197-.597.475-1.07.832-1.416a3.014 3.014 0 0 1 1.28-.736 5.868 5.868 0 0 1 1.64-.216c.885 0 1.603.128 2.152.384.55.256.955.619 1.216 1.088.261.47.392 1.024.392 1.664V104H32.62v-5.648c0-.619-.152-1.088-.456-1.408-.304-.32-.824-.48-1.56-.48-.448 0-.85.085-1.208.256-.357.17-.637.488-.84.952-.203.464-.304 1.139-.304 2.024 0 .587.059 1.112.176 1.576.117.464.317.827.6 1.088.283.261.675.392 1.176.392.139 0 .275-.008.408-.024.133-.016.259-.045.376-.088l.16 1.312a2.28 2.28 0 0 1-.592.16 4.531 4.531 0 0 1-.64.048zM38.94 104.16c-.352 0-.67-.056-.952-.168a1.422 1.422 0 0 1-.68-.56c-.17-.261-.256-.616-.256-1.064v-7.136h1.712v6.928c0 .235.05.403.152.504.101.101.264.152.488.152.085 0 .181-.01.288-.032a2.53 2.53 0 0 0 .304-.08l.192 1.2a2.444 2.444 0 0 1-.616.2 3.57 3.57 0 0 1-.632.056zm4.496 0c-.352 0-.67-.056-.952-.168a1.422 1.422 0 0 1-.68-.56c-.17-.261-.256-.616-.256-1.064v-7.136h1.712v6.928c0 .235.05.403.152.504.101.101.264.152.488.152.085 0 .181-.01.288-.032a2.53 2.53 0 0 0 .304-.08l.192 1.2a2.444 2.444 0 0 1-.616.2 3.57 3.57 0 0 1-.632.056zM49.34 104.176c-1.195 0-2.088-.307-2.68-.92-.592-.613-.888-1.56-.888-2.84a12.135 12.135 0 0 1 .096-1.472h3.504v1.232h-1.888v.288c0 .597.067 1.072.2 1.424.133.352.336.597.608.736.272.139.61.208 1.016.208.448 0 .832-.085 1.152-.256.32-.17.568-.483.744-.936.176-.453.264-1.096.264-1.928 0-.747-.08-1.357-.24-1.832-.16-.475-.43-.83-.808-1.064-.379-.235-.883-.352-1.512-.352-.341 0-.675.03-1 .088a5.378 5.378 0 0 0-.936.256 5.805 5.805 0 0 0-.864.408V95.68c.224-.117.496-.221.816-.312.32-.09.672-.165 1.056-.224a7.83 7.83 0 0 1 1.184-.088c.96 0 1.739.19 2.336.568a3.3 3.3 0 0 1 1.312 1.6c.277.688.416 1.507.416 2.456 0 .95-.128 1.76-.384 2.432-.256.672-.67 1.184-1.24 1.536-.57.352-1.325.528-2.264.528zM59.052 104.176c-1.301 0-2.235-.299-2.8-.896s-.848-1.45-.848-2.56v-5.488h1.712v5.536c0 .672.157 1.173.472 1.504.315.33.803.496 1.464.496.661 0 1.152-.165 1.472-.496.32-.33.48-.832.48-1.504V92.08h1.712v8.64c0 1.11-.285 1.963-.856 2.56-.57.597-1.507.896-2.808.896zM16.964 124.176a8.094 8.094 0 0 1-1.808-.184 10.825 10.825 0 0 1-1.392-.408V120H15.3v2.592c.15.064.376.125.68.184.304.059.621.088.952.088.352 0 .677-.037.976-.112.299-.075.541-.221.728-.44.187-.219.28-.525.28-.92 0-.299-.056-.536-.168-.712a1.23 1.23 0 0 0-.504-.432 5.672 5.672 0 0 0-.816-.32c-.32-.101-.693-.21-1.12-.328a14.181 14.181 0 0 1-1.576-.568c-.421-.187-.736-.413-.944-.68-.208-.267-.312-.624-.312-1.072 0-.49.128-.901.384-1.232.256-.33.643-.579 1.16-.744.517-.165 1.165-.248 1.944-.248.725 0 1.344.059 1.856.176.512.117.896.235 1.152.352v1.424a5.47 5.47 0 0 0-.768-.272 9.019 9.019 0 0 0-1.104-.24 8.204 8.204 0 0 0-1.28-.096c-.33 0-.619.024-.864.072-.245.048-.435.128-.568.24a.564.564 0 0 0-.2.456c0 .203.09.368.272.496.181.128.443.243.784.344.341.101.741.216 1.2.344.437.128.845.264 1.224.408.379.144.712.325 1 .544.288.219.512.493.672.824.16.33.24.741.24 1.232 0 .555-.117 1.043-.352 1.464-.235.421-.619.752-1.152.992-.533.24-1.237.36-2.112.36zM25.556 124.16c-.63 0-1.17-.115-1.624-.344a2.293 2.293 0 0 1-1.032-1.04c-.235-.464-.352-1.053-.352-1.768v-5.776h1.712v5.6c0 .619.15 1.085.448 1.4.299.315.73.472 1.296.472.693 0 1.23-.235 1.608-.704.379-.47.568-1.12.568-1.952v-4.816h1.712V124h-1.36l-.128-1.312h-.096c-.192.427-.52.779-.984 1.056-.464.277-1.053.416-1.768.416zM34.948 124v-6.096c0-.501-.115-.87-.344-1.104-.23-.235-.616-.352-1.16-.352-.373 0-.723.05-1.048.152a4.315 4.315 0 0 0-.92.408v-1.472c.224-.107.536-.213.936-.32.4-.107.877-.16 1.432-.16.565 0 1.059.083 1.48.248.421.165.75.435.984.808.235.373.352.88.352 1.52V124h-1.712zM39.156 124v-5.488c0-1.12.299-1.976.896-2.568.597-.592 1.547-.888 2.848-.888 1.312 0 2.264.296 2.856.888.592.592.888 1.448.888 2.568V124h-1.712v-5.488c0-.672-.17-1.181-.512-1.528-.341-.347-.853-.52-1.536-.52s-1.192.173-1.528.52c-.336.347-.504.856-.504 1.528v1.664l.048.016c.224-.416.499-.69.824-.824.325-.133.776-.2 1.352-.2h.496v1.344h-.496c-.608 0-1.072.09-1.392.272-.32.181-.539.419-.656.712a2.629 2.629 0 0 0-.176.984V124h-1.696zM51.556 124v-6.096c0-.501-.115-.87-.344-1.104-.23-.235-.616-.352-1.16-.352-.373 0-.723.05-1.048.152a4.315 4.315 0 0 0-.92.408v-1.472c.224-.107.536-.213.936-.32.4-.107.877-.16 1.432-.16.565 0 1.059.083 1.48.248.421.165.75.435.984.808.235.373.352.88.352 1.52V124h-1.712zM58.388 124.176c-.63 0-1.23-.064-1.8-.192a7.034 7.034 0 0 1-1.464-.48l.496-1.376c.224.096.48.195.768.296.288.101.603.187.944.256.341.07.688.104 1.04.104.533 0 .963-.093 1.288-.28.325-.187.488-.461.488-.824a.88.88 0 0 0-.208-.584c-.139-.165-.347-.315-.624-.448a9.046 9.046 0 0 0-1.04-.408c-.64-.213-1.184-.44-1.632-.68-.448-.24-.79-.528-1.024-.864-.235-.336-.352-.755-.352-1.256 0-.49.13-.912.392-1.264.261-.352.65-.627 1.168-.824.517-.197 1.16-.296 1.928-.296a7.8 7.8 0 0 1 1.496.136c.464.09.824.216 1.08.376v1.408a5.326 5.326 0 0 0-.688-.256 6.839 6.839 0 0 0-.904-.208 6.072 6.072 0 0 0-.984-.08c-.64 0-1.096.093-1.368.28-.272.187-.408.408-.408.664 0 .213.07.395.208.544.139.15.368.29.688.424.32.133.736.29 1.248.472.523.181.992.384 1.408.608.416.224.741.507.976.848.235.341.352.768.352 1.28 0 .459-.11.888-.328 1.288-.219.4-.581.723-1.088.968-.507.245-1.192.368-2.056.368z"/>
        </g>
        <g fill="#1D1D1D" fill-rule="nonzero">
            <path d="M130.84 104.16c-.352 0-.67-.056-.952-.168a1.422 1.422 0 0 1-.68-.56c-.17-.261-.256-.616-.256-1.064v-7.136h1.712v6.928c0 .235.05.403.152.504.101.101.264.152.488.152.085 0 .181-.01.288-.032a2.53 2.53 0 0 0 .304-.08l.192 1.2a2.444 2.444 0 0 1-.616.2 3.57 3.57 0 0 1-.632.056zM138.616 104v-5.792c0-.64-.152-1.096-.456-1.368-.304-.272-.797-.408-1.48-.408-.544 0-1.064.075-1.56.224-.496.15-.957.347-1.384.592v-1.52c.31-.16.733-.312 1.272-.456.539-.144 1.155-.216 1.848-.216a5.34 5.34 0 0 1 1.472.184c.427.123.787.307 1.08.552.293.245.517.565.672.96.155.395.232.87.232 1.424V104h-1.696zm-2.72.16c-.928 0-1.64-.216-2.136-.648-.496-.432-.744-1.053-.744-1.864 0-.875.317-1.557.952-2.048.635-.49 1.661-.779 3.08-.864l1.888-.128v1.344l-1.68.128c-.95.075-1.608.235-1.976.48a1.179 1.179 0 0 0-.552 1.04c0 .437.139.757.416.96.277.203.656.304 1.136.304.17 0 .328-.013.472-.04a6.76 6.76 0 0 0 .408-.088l.208 1.2c-.203.075-.43.13-.68.168-.25.037-.515.056-.792.056zM133.144 93.888v-.736l1.296-.56h5.648v1.296h-6.944zm3.312-.72V91.36h1.28v1.808h-1.28zm2.368 0V91.36h1.264v1.808h-1.264zM146.008 104.176c-1.195 0-2.088-.307-2.68-.92-.592-.613-.888-1.56-.888-2.84a12.135 12.135 0 0 1 .096-1.472h3.504v1.232h-1.888v.288c0 .597.067 1.072.2 1.424.133.352.336.597.608.736.272.139.61.208 1.016.208.448 0 .832-.085 1.152-.256.32-.17.568-.483.744-.936.176-.453.264-1.096.264-1.928 0-.747-.08-1.357-.24-1.832-.16-.475-.43-.83-.808-1.064-.379-.235-.883-.352-1.512-.352-.341 0-.675.03-1 .088a5.378 5.378 0 0 0-.936.256 5.805 5.805 0 0 0-.864.408V95.68c.224-.117.496-.221.816-.312.32-.09.672-.165 1.056-.224a7.83 7.83 0 0 1 1.184-.088c.96 0 1.739.19 2.336.568a3.3 3.3 0 0 1 1.312 1.6c.277.688.416 1.507.416 2.456 0 .95-.128 1.76-.384 2.432-.256.672-.67 1.184-1.24 1.536-.57.352-1.325.528-2.264.528zM151.992 104v-2.928c0-.672.144-1.168.432-1.488.288-.32.667-.544 1.136-.672l.016-.064-1.744-.656v-.496c0-.459.147-.89.44-1.296.293-.405.717-.73 1.272-.976.555-.245 1.227-.368 2.016-.368.693 0 1.323.11 1.888.328a2.903 2.903 0 0 1 1.344 1.016c.33.459.496 1.056.496 1.792V104h-1.712v-5.664c0-.661-.192-1.139-.576-1.432-.384-.293-.875-.44-1.472-.44-.608 0-1.083.125-1.424.376-.341.25-.517.568-.528.952l1.648.8-.144.848c-.395.01-.723.144-.984.4s-.392.65-.392 1.184V104h-1.712zM118.672 124v-5.792c0-.64-.152-1.096-.456-1.368-.304-.272-.797-.408-1.48-.408-.544 0-1.064.075-1.56.224-.496.15-.957.347-1.384.592v-1.52c.31-.16.733-.312 1.272-.456a7.107 7.107 0 0 1 1.832-.216c.565 0 1.056.067 1.472.2.416.133.72.376.912.728.405.17.688.443.848.816.16.373.24.832.24 1.376V124h-1.696zm-2.72.16c-.928 0-1.64-.216-2.136-.648-.496-.432-.744-1.053-.744-1.864 0-.875.317-1.557.952-2.048.635-.49 1.661-.779 3.08-.864l1.888-.128v1.344l-1.68.128c-.95.075-1.608.235-1.976.48a1.179 1.179 0 0 0-.552 1.04c0 .437.139.757.416.96.277.203.656.304 1.136.304.17 0 .328-.013.472-.04a6.76 6.76 0 0 0 .408-.088l.208 1.2c-.203.075-.43.13-.68.168-.25.037-.515.056-.792.056zm3.28-7.552-.944-.848c.31-.064.581-.187.816-.368a.881.881 0 0 0 .352-.736h1.6a1.802 1.802 0 0 1-.856 1.56 2.996 2.996 0 0 1-.968.392zM125.008 124.16c-.352 0-.67-.056-.952-.168a1.422 1.422 0 0 1-.68-.56c-.17-.261-.256-.616-.256-1.064v-7.136h1.712v6.928c0 .235.05.403.152.504.101.101.264.152.488.152.085 0 .181-.01.288-.032a2.53 2.53 0 0 0 .304-.08l.192 1.2a2.444 2.444 0 0 1-.616.2 3.57 3.57 0 0 1-.632.056zm4.496 0c-.352 0-.67-.056-.952-.168a1.422 1.422 0 0 1-.68-.56c-.17-.261-.256-.616-.256-1.064v-7.136h1.712v6.928c0 .235.05.403.152.504.101.101.264.152.488.152.085 0 .181-.01.288-.032a2.53 2.53 0 0 0 .304-.08l.192 1.2a2.444 2.444 0 0 1-.616.2 3.57 3.57 0 0 1-.632.056zM132.24 124v-2.928c0-.672.144-1.168.432-1.488.288-.32.667-.544 1.136-.672l.016-.064-1.744-.656v-.496c0-.459.147-.89.44-1.296.293-.405.717-.73 1.272-.976.555-.245 1.227-.368 2.016-.368.693 0 1.323.11 1.888.328a2.903 2.903 0 0 1 1.344 1.016c.33.459.496 1.056.496 1.792V124h-1.712v-5.664c0-.661-.192-1.139-.576-1.432-.384-.293-.875-.44-1.472-.44-.608 0-1.083.125-1.424.376-.341.25-.517.568-.528.952l1.648.8-.144.848c-.395.01-.723.144-.984.4s-.392.65-.392 1.184V124h-1.712zM145.04 124.16c-.63 0-1.17-.115-1.624-.344a2.293 2.293 0 0 1-1.032-1.04c-.235-.464-.352-1.053-.352-1.768v-5.776h1.712v5.6c0 .619.15 1.085.448 1.4.299.315.73.472 1.296.472.693 0 1.23-.235 1.608-.704.379-.47.568-1.12.568-1.952v-4.816h1.712V124h-1.36l-.128-1.312h-.096c-.192.427-.52.779-.984 1.056-.464.277-1.053.416-1.768.416zM152.96 124v-3.84h-1.136v-1.216h2.72v3.712h.192c.437 0 .805-.104 1.104-.312.299-.208.523-.539.672-.992.15-.453.224-1.043.224-1.768 0-.747-.088-1.352-.264-1.816-.176-.464-.456-.8-.84-1.008-.384-.208-.885-.312-1.504-.312-.523 0-1.013.072-1.472.216-.459.144-.89.344-1.296.6v-1.536c.33-.181.76-.339 1.288-.472a7.084 7.084 0 0 1 1.736-.2c.992 0 1.787.176 2.384.528a3.058 3.058 0 0 1 1.304 1.536c.272.672.408 1.493.408 2.464 0 .939-.128 1.736-.384 2.392a2.93 2.93 0 0 1-1.264 1.504c-.587.347-1.365.52-2.336.52h-1.536zM156.464 113.888v-3.44h1.632v3.44zM163.072 124v-6.096c0-.501-.115-.87-.344-1.104-.23-.235-.616-.352-1.16-.352-.373 0-.723.05-1.048.152a4.315 4.315 0 0 0-.92.408v-1.472c.224-.107.536-.213.936-.32.4-.107.877-.16 1.432-.16.565 0 1.059.083 1.48.248.421.165.75.435.984.808.235.373.352.88.352 1.52V124h-1.712zM170.752 124.16c-.896 0-1.61-.112-2.144-.336-.533-.224-.92-.541-1.16-.952-.24-.41-.36-.888-.36-1.432 0-.49.072-.883.216-1.176.144-.293.328-.51.552-.648.224-.139.453-.235.688-.288v-.064a2.977 2.977 0 0 1-.68-.336 1.833 1.833 0 0 1-.576-.616c-.155-.261-.232-.595-.232-1 0-.373.088-.728.264-1.064.176-.336.461-.61.856-.824.395-.213.912-.32 1.552-.32.277 0 .56.021.848.064.288.043.512.107.672.192l-.288 1.248a4.062 4.062 0 0 0-.424-.096 3.082 3.082 0 0 0-.552-.048c-.405 0-.707.096-.904.288-.197.192-.296.443-.296.752 0 .341.085.6.256.776.17.176.392.296.664.36s.552.096.84.096h.32v1.168h-.32c-.587 0-1.019.104-1.296.312-.277.208-.416.557-.416 1.048 0 .267.056.52.168.76.112.24.307.43.584.568.277.139.672.208 1.184.208.501 0 .89-.07 1.168-.208.277-.139.477-.336.6-.592.123-.256.184-.56.184-.912v-5.856h1.712v5.76c0 1.11-.299 1.915-.896 2.416-.597.501-1.525.752-2.784.752z"/>
        </g>
        <g fill="#1D1D1D" fill-rule="nonzero">
            <path d="M228.788 104.16c-.352 0-.67-.056-.952-.168a1.422 1.422 0 0 1-.68-.56c-.17-.261-.256-.616-.256-1.064v-7.136h1.712v6.928c0 .235.05.403.152.504.101.101.264.152.488.152.085 0 .181-.01.288-.032a2.53 2.53 0 0 0 .304-.08l.192 1.2a2.444 2.444 0 0 1-.616.2 3.57 3.57 0 0 1-.632.056zM236.564 104v-5.792c0-.64-.152-1.096-.456-1.368-.304-.272-.797-.408-1.48-.408-.544 0-1.064.075-1.56.224-.496.15-.957.347-1.384.592v-1.52c.31-.16.733-.312 1.272-.456.539-.144 1.155-.216 1.848-.216a5.34 5.34 0 0 1 1.472.184c.427.123.787.307 1.08.552.293.245.517.565.672.96.155.395.232.87.232 1.424V104h-1.696zm-2.72.16c-.928 0-1.64-.216-2.136-.648-.496-.432-.744-1.053-.744-1.864 0-.875.317-1.557.952-2.048.635-.49 1.661-.779 3.08-.864l1.888-.128v1.344l-1.68.128c-.95.075-1.608.235-1.976.48a1.179 1.179 0 0 0-.552 1.04c0 .437.139.757.416.96.277.203.656.304 1.136.304.17 0 .328-.013.472-.04a6.76 6.76 0 0 0 .408-.088l.208 1.2c-.203.075-.43.13-.68.168-.25.037-.515.056-.792.056zM231.092 93.888v-.736l1.296-.56h5.648v1.296h-6.944zm3.312-.72V91.36h1.28v1.808h-1.28zm2.368 0V91.36h1.264v1.808h-1.264zM243.956 104.176c-1.195 0-2.088-.307-2.68-.92-.592-.613-.888-1.56-.888-2.84a12.135 12.135 0 0 1 .096-1.472h3.504v1.232H242.1v.288c0 .597.067 1.072.2 1.424.133.352.336.597.608.736.272.139.61.208 1.016.208.448 0 .832-.085 1.152-.256.32-.17.568-.483.744-.936.176-.453.264-1.096.264-1.928 0-.747-.08-1.357-.24-1.832-.16-.475-.43-.83-.808-1.064-.379-.235-.883-.352-1.512-.352-.341 0-.675.03-1 .088a5.378 5.378 0 0 0-.936.256 5.805 5.805 0 0 0-.864.408V95.68c.224-.117.496-.221.816-.312.32-.09.672-.165 1.056-.224a7.83 7.83 0 0 1 1.184-.088c.96 0 1.739.19 2.336.568a3.3 3.3 0 0 1 1.312 1.6c.277.688.416 1.507.416 2.456 0 .95-.128 1.76-.384 2.432-.256.672-.67 1.184-1.24 1.536-.57.352-1.325.528-2.264.528zM249.94 104v-2.928c0-.672.144-1.168.432-1.488.288-.32.667-.544 1.136-.672l.016-.064-1.744-.656v-.496c0-.459.147-.89.44-1.296.293-.405.717-.73 1.272-.976.555-.245 1.227-.368 2.016-.368.693 0 1.323.11 1.888.328a2.903 2.903 0 0 1 1.344 1.016c.33.459.496 1.056.496 1.792V104h-1.712v-5.664c0-.661-.192-1.139-.576-1.432-.384-.293-.875-.44-1.472-.44-.608 0-1.083.125-1.424.376-.341.25-.517.568-.528.952l1.648.8-.144.848c-.395.01-.723.144-.984.4s-.392.65-.392 1.184V104h-1.712zM262.356 104.176c-.63 0-1.23-.064-1.8-.192a7.034 7.034 0 0 1-1.464-.48l.496-1.376c.224.096.48.195.768.296.288.101.603.187.944.256.341.07.688.104 1.04.104.533 0 .963-.093 1.288-.28.325-.187.488-.461.488-.824a.88.88 0 0 0-.208-.584c-.139-.165-.347-.315-.624-.448a9.046 9.046 0 0 0-1.04-.408c-.64-.213-1.184-.44-1.632-.68-.448-.24-.79-.528-1.024-.864-.235-.336-.352-.755-.352-1.256 0-.49.13-.912.392-1.264.261-.352.65-.627 1.168-.824.517-.197 1.16-.296 1.928-.296a7.8 7.8 0 0 1 1.496.136c.464.09.824.216 1.08.376v1.408a5.326 5.326 0 0 0-.688-.256 6.839 6.839 0 0 0-.904-.208 6.072 6.072 0 0 0-.984-.08c-.64 0-1.096.093-1.368.28-.272.187-.408.408-.408.664 0 .213.07.395.208.544.139.15.368.29.688.424.32.133.736.29 1.248.472.523.181.992.384 1.408.608.416.224.741.507.976.848.235.341.352.768.352 1.28 0 .459-.11.888-.328 1.288-.219.4-.581.723-1.088.968-.507.245-1.192.368-2.056.368zM262.82 108.24c-.736 0-1.288-.133-1.656-.4-.368-.267-.552-.64-.552-1.12v-.272c0-.181-.045-.29-.136-.328-.09-.037-.216-.035-.376.008l-.112-.992c.15-.043.312-.072.488-.088s.312-.024.408-.024c.405 0 .696.085.872.256.176.17.264.41.264.72v.496c0 .192.059.352.176.48.117.128.315.192.592.192.288 0 .488-.064.6-.192a.703.703 0 0 0 .168-.48v-1.424h1.456v1.552c0 .523-.181.923-.544 1.2-.363.277-.912.416-1.648.416zM271.332 104.176c-1.301 0-2.235-.299-2.8-.896s-.848-1.45-.848-2.56v-5.488h1.712v5.536c0 .672.157 1.173.472 1.504.315.33.803.496 1.464.496.661 0 1.152-.165 1.472-.496.32-.33.48-.832.48-1.504V92.08h1.712v8.64c0 1.11-.285 1.963-.856 2.56-.57.597-1.507.896-2.808.896z"/>
        </g>
        <g>
            <g transform="translate(235 42)">
                <mask id="mlmd2tkz3b" fill="#fff">
                    <use xlink:href="#33s0q880ka"/>
                </mask>
                <use fill="#F8CD8E" xlink:href="#33s0q880ka"/>
                <path d="m25.635 11.975-.005-.006a2.499 2.499 0 0 0-1.81-.92 2.501 2.501 0 0 0-1.893.73l-8.625 8.639-3.224-2.678a2.49 2.49 0 0 0-3.211.02l-.006.004L0 23.701v4.21A4.094 4.094 0 0 0 4.09 32h23.82A4.094 4.094 0 0 0 32 27.91v-7.963l-6.365-7.972z" fill="#094F48" mask="url(#mlmd2tkz3b)"/>
            </g>
            <path d="M245.073 55.026a4.55 4.55 0 0 1-4.544-4.544 4.55 4.55 0 0 1 4.544-4.545 4.55 4.55 0 0 1 4.545 4.545 4.55 4.55 0 0 1-4.545 4.544z" fill="#D65C21" fill-rule="nonzero"/>
        </g>
        <g transform="translate(127 41)">
            <rect fill="#D65C21" fill-rule="nonzero" width="7" height="2" rx="1"/>
            <rect fill="#D65C21" fill-rule="nonzero" y="32" width="7" height="2" rx="1"/>
            <rect fill="#D65C21" fill-rule="nonzero" x="27" width="7" height="2" rx="1"/>
            <rect fill="#D65C21" fill-rule="nonzero" x="27" y="32" width="7" height="2" rx="1"/>
            <rect fill="#D65C21" fill-rule="nonzero" transform="rotate(90 1 3.5)" x="-2.5" y="2.5" width="7" height="2" rx="1"/>
            <rect fill="#D65C21" fill-rule="nonzero" transform="rotate(90 1 30.5)" x="-2.5" y="29.5" width="7" height="2" rx="1"/>
            <rect fill="#D65C21" fill-rule="nonzero" transform="rotate(90 33 30.5)" x="29.5" y="29.5" width="7" height="2" rx="1"/>
            <rect fill="#D65C21" fill-rule="nonzero" transform="rotate(90 33 3.5)" x="29.5" y="2.5" width="7" height="2" rx="1"/>
            <path d="M6 6h4a1 1 0 0 1 1 1v9H5V7a1 1 0 0 1 1-1z" fill="#094F48"/>
            <rect fill="#094F48" x="5" y="20" width="6" height="8" rx="1"/>
            <path d="M18 6h6a1 1 0 0 1 1 1v9h-8V7a1 1 0 0 1 1-1z" fill="#094F48"/>
            <rect fill="#094F48" x="17" y="20" width="8" height="8" rx="1"/>
            <path d="M14 6a1 1 0 0 1 1 1v9h-2V7a1 1 0 0 1 1-1z" fill="#094F48"/>
            <rect fill="#094F48" x="13" y="20" width="2" height="8" rx="1"/>
            <path d="M28 6a1 1 0 0 1 1 1v9h-2V7a1 1 0 0 1 1-1z" fill="#094F48"/>
            <rect fill="#094F48" x="27" y="20" width="2" height="8" rx="1"/>
            <rect fill="#F5B964" y="16" width="34" height="2" rx="1"/>
        </g>
        <g fill="#1D1D1D" fill-rule="nonzero">
            <path d="M229.6 118.272c0 1.365-.264 2.533-.792 3.504-.528.97-1.32 1.648-2.376 2.032l2.736 2.912H226.8l-2.176-2.576c-.053 0-.11.003-.168.008a1.858 1.858 0 0 1-.168.008c-1.205 0-2.203-.245-2.992-.736-.79-.49-1.376-1.179-1.76-2.064-.384-.885-.576-1.92-.576-3.104 0-1.173.195-2.197.584-3.072a4.51 4.51 0 0 1 1.768-2.048c.79-.49 1.787-.736 2.992-.736 1.173 0 2.152.243 2.936.728.784.485 1.373 1.168 1.768 2.048.395.88.592 1.912.592 3.096zm-8.816 0c0 1.365.283 2.443.848 3.232.565.79 1.45 1.184 2.656 1.184 1.216 0 2.101-.395 2.656-1.184.555-.79.832-1.867.832-3.232 0-1.365-.275-2.437-.824-3.216-.55-.779-1.432-1.168-2.648-1.168-1.216 0-2.107.39-2.672 1.168-.565.779-.848 1.85-.848 3.216zM235.28 112.576c1.461 0 2.541.272 3.24.816.699.544 1.048 1.37 1.048 2.48 0 .587-.11 1.08-.328 1.48-.219.4-.499.725-.84.976-.341.25-.699.45-1.072.6l3.2 5.072h-1.984l-2.752-4.624h-1.984V124h-1.728v-11.424h3.2zm-.112 1.472h-1.36v3.888h1.44c.885 0 1.53-.168 1.936-.504.405-.336.608-.835.608-1.496 0-.683-.213-1.168-.64-1.456-.427-.288-1.088-.432-1.984-.432zM251.248 113.904c-1.141 0-2.032.392-2.672 1.176-.64.784-.96 1.859-.96 3.224 0 1.355.299 2.421.896 3.2.597.779 1.504 1.168 2.72 1.168.49 0 .963-.045 1.416-.136.453-.09.915-.21 1.384-.36v1.488c-.448.17-.904.296-1.368.376-.464.08-1.01.12-1.64.12-1.173 0-2.144-.243-2.912-.728-.768-.485-1.344-1.168-1.728-2.048-.384-.88-.576-1.912-.576-3.096 0-1.152.21-2.17.632-3.056a4.777 4.777 0 0 1 1.848-2.072c.81-.496 1.803-.744 2.976-.744.576 0 1.139.061 1.688.184a6.82 6.82 0 0 1 1.512.52l-.64 1.44a9.991 9.991 0 0 0-1.208-.456 4.613 4.613 0 0 0-1.368-.2zM263.904 119.68c0 1.43-.368 2.533-1.104 3.312-.736.779-1.728 1.168-2.976 1.168-.779 0-1.47-.176-2.072-.528-.603-.352-1.077-.861-1.424-1.528s-.52-1.475-.52-2.424c0-1.43.363-2.53 1.088-3.304.725-.773 1.717-1.16 2.976-1.16.79 0 1.485.173 2.088.52.603.347 1.077.85 1.424 1.512.347.661.52 1.472.52 2.432zm-6.352 0c0 .97.184 1.728.552 2.272.368.544.952.816 1.752.816s1.384-.272 1.752-.816c.368-.544.552-1.301.552-2.272 0-.981-.187-1.736-.56-2.264-.373-.528-.96-.792-1.76-.792s-1.381.264-1.744.792-.544 1.283-.544 2.264zM269.008 124.16c-1.035 0-1.87-.373-2.504-1.12-.635-.747-.952-1.856-.952-3.328 0-1.483.32-2.603.96-3.36.64-.757 1.483-1.136 2.528-1.136.65 0 1.184.123 1.6.368.416.245.752.544 1.008.896h.096a16.942 16.942 0 0 1-.08-.64 7.04 7.04 0 0 1-.048-.768v-3.232h1.696V124h-1.328l-.288-1.152h-.08a3.042 3.042 0 0 1-.992.936c-.416.25-.955.376-1.616.376zm.4-1.392c.832 0 1.419-.232 1.76-.696.341-.464.512-1.16.512-2.088v-.256c0-1.003-.163-1.773-.488-2.312-.325-.539-.925-.808-1.8-.808-.693 0-1.216.28-1.568.84-.352.56-.528 1.325-.528 2.296 0 .97.176 1.717.528 2.24.352.523.88.784 1.584.784zM279.36 115.216c1.13 0 2.021.35 2.672 1.048.65.699.976 1.65.976 2.856v.928h-5.792c.021.885.253 1.563.696 2.032.443.47 1.064.704 1.864.704a6.51 6.51 0 0 0 1.48-.152 7.62 7.62 0 0 0 1.336-.456v1.408a6.99 6.99 0 0 1-1.312.432 7.41 7.41 0 0 1-1.568.144c-.843 0-1.581-.165-2.216-.496a3.524 3.524 0 0 1-1.488-1.48c-.357-.656-.536-1.464-.536-2.424 0-.97.163-1.792.488-2.464.325-.672.779-1.187 1.36-1.544.581-.357 1.261-.536 2.04-.536zm0 1.312c-.608 0-1.096.197-1.464.592-.368.395-.584.955-.648 1.68h4.064c-.01-.672-.173-1.219-.488-1.64-.315-.421-.803-.632-1.464-.632z"/>
        </g>
    </g>
</svg>
