<svg width="320" height="116" viewBox="0 0 320 116" xmlns="http://www.w3.org/2000/svg" xmlns:xlink="http://www.w3.org/1999/xlink">
    <defs>
        <path id="sw4efa82ya" d="M0 0h320v116H0z"/>
        <path id="qradtdybqc" d="M0 0h71v57.55H0z"/>
    </defs>
    <g fill="none" fill-rule="evenodd">
        <g>
            <mask id="p88b32rttb" fill="#fff">
                <use xlink:href="#sw4efa82ya"/>
            </mask>
            <use fill="#FFF" xlink:href="#sw4efa82ya"/>
            <g mask="url(#p88b32rttb)">
                <path d="M64.984 90.147s7.938 53.985 6.247 90.017l-2.477.245a27.03 27.03 0 0 1-4.008.098l-2.349-.117s-9.466-54.734-14.192-63.823c0 0-12.854 48.674-13.35 61.86 0 0-5.714.57-7.99-.242-1.224-12.727-1.577-25.9-1.638-34.169-.175-23.669 2.106-34.42 3.357-39.52a120.555 120.555 0 0 1 3.28-11.063l3.006-8.5 30.114 5.214z" fill="#222477"/>
                <g transform="translate(16 44.043)">
                    <mask id="8334xiwhtd" fill="#fff">
                        <use xlink:href="#qradtdybqc"/>
                    </mask>
                    <path d="M48.344 1.172c-5.25-.587-16.457-1.64-24.166-.94-2.327.21-5.686 1.62-7.456 3.133C11.51 7.825 1.675 17.647.032 29.433c-.24 1.72.898 3.333 2.608 3.71l9.086 1.996S8.103 49.292 8.395 51.737c.292 2.444 7.798 6.603 17.185 3.191 7.32-2.66 17.681-4.776 24.26-2.48.061.021.691 5.032.756 5.042 2.112.304 4.24-.51 4.19-3.454l-1.001-15.283 12.041-1.577 1.076-.355c3.255-1.075 4.936-4.634 3.682-7.799-2.83-7.139-7.097-18.696-15.003-25.079-1.691-1.365-5.07-2.53-7.237-2.771" fill="#1DA578" mask="url(#8334xiwhtd)"/>
                </g>
                <path d="M79.688 84.252c.817 0 1.53-.553 1.726-1.34l5.51-21.025c.279-1.112-.57-2.187-1.725-2.187H75.38c-.817 0-1.529.552-1.726 1.338l-5.51 21.026c-.279 1.112.57 2.188 1.726 2.188h9.817z" fill="#3E3E3E"/>
                <path d="m83.196 75.148-2.071-.688a16.158 16.158 0 0 1-3.265-1.506l-1.188-.718a1.632 1.632 0 0 0-2.384.858c-.733 2.074-.588 5.548 6.872 7.73 4.117 1.204 5.296-4.056 4.763-6.978-.136-.747-.505-1.225-.882-1.526a.797.797 0 0 0-1.27.423l-.575 2.405z" fill="#FFD6AF"/>
                <path d="M65.381 63.183c-.595 0-1.11.4-1.253.972l-6.51 26.026c-.097.384-.011.784.236 1.096.246.313.617.492 1.017.492h18.817c.595 0 1.11-.4 1.253-.972l6.51-26.026c.097-.385.011-.784-.236-1.097a1.287 1.287 0 0 0-1.016-.491H65.38zm12.307 29.552H58.871a2.259 2.259 0 0 1-1.785-.862 2.218 2.218 0 0 1-.414-1.925l6.51-26.026a2.258 2.258 0 0 1 2.2-1.705h18.817c.701 0 1.352.314 1.784.862.433.548.584 1.25.415 1.924l-6.51 26.026a2.258 2.258 0 0 1-2.2 1.706z"/>
                <path d="M39.346 60.936a14.407 14.407 0 0 1-3.183 2.436c-3.95 2.23-13.388 7.63-15.735 9.618-2.991 2.533-4.422 3.478-2.019 9.996C22.328 93.61 40.6 66.337 40.6 66.337s5.366.962 6.57-3.7c0 0 2.798.52 3.963.02.895-.384.856-1.888-.337-2.054l-7.72-1.426a3.277 3.277 0 0 0-2.906.923l-.823.836z" fill="#FFD6AF"/>
                <path d="M50.489 37.007c-1.651.41-3.266-.96-5.77-3.084-3.043-2.583-5.164-4.382-5.277-7.28-.099-2.544 1.389-4.908 3.103-6.17.985-.725 2.477-1.059 5.461-1.727 3.416-.765 3.855-.463 5.834-1.234 2.304-.898 2.664-1.68 3.724-1.48 1.714.32 3.261 2.835 3.227 5.181-.046 3.105-2.825 3.57-5.958 8.638-2.619 4.235-2.385 6.67-4.344 7.156" fill="#000"/>
                <path d="m49.483 37.846-.162-3.98a13.472 13.472 0 0 1-.144-.133s-2.841.189-3.255-1.25c-.414-1.439 1.595-1.714 1.595-1.714s-1.897-3.97 3.012-3.924c1.318.012 1.79-2.16 3.952-2.646 0 0 1.07-.091 2.154 2.697l2.375 3.494-1.187.647c.292 1.329.419 2.794.239 4.347a1.15 1.15 0 0 1-.793.962 7.393 7.393 0 0 1-1.404.303l.383 1.646a6.954 6.954 0 0 0 2.964 5.138 35.098 35.098 0 0 0 3.17 1.962s-8.752 1.19-18.816-1.093c0 0 1.944-1.057 3.7-2.213a4.942 4.942 0 0 0 2.217-4.243z" fill="#FFD6AF"/>
                <path d="M55.865 36.649s-3.114.108-4.351-1.576l4.351 1.576z" fill="#F0C195"/>
            </g>
            <path d="M-221.544-228.42c0 183.194 148.508 331.702 331.702 331.702 183.193 0 331.7-148.508 331.7-331.701V-229H608c0 309.28-250.72 560-560 560S-512 80.28-512-229h290.456z" fill="#FDF3E3" mask="url(#p88b32rttb)"/>
            <g mask="url(#p88b32rttb)">
                <path d="M178.134 72.803c-35.365 2.805-57.867 7.41-69.09 4.794C97.824 74.98 90.824 65.044 89.59 56.735c-1.234-8.308-.329-25.584 37.096-26.035 37.425-.45 50.085-3.732 99.463-7.778 49.377-4.046 76.129-3.097 78.53 22.206 1.6 16.869-12.68 24.841-42.84 23.918-32.226.635-60.127 1.888-83.704 3.757z" fill="#FFFCE7"/>
                <g fill-rule="nonzero">
                    <path d="M113.333 67.504a1.85 1.85 0 0 1-.215.075c-.066.018-.138.03-.218.036a1.194 1.194 0 0 1-1.011-.41 2.509 2.509 0 0 1-.574-1.043 2.102 2.102 0 0 1 .017-1.184c.12-.396.387-.676.804-.838.963-.362 1.867-.913 2.71-1.654a14.756 14.756 0 0 0 2.253-2.483 15.54 15.54 0 0 0 1.643-2.881c.438-1.007.718-1.962.842-2.866.124-.904.067-1.716-.17-2.434-.237-.719-.688-1.242-1.353-1.57-.341-.297-.751-.428-1.23-.395-.373.026-.759.147-1.158.362-.4.215-.789.476-1.168.783-.38.308-.732.62-1.057.936-.326.317-.613.605-.862.863a1.377 1.377 0 0 1-.856.38c-.346.024-.693-.072-1.043-.288-.349-.216-.629-.49-.839-.823a2.326 2.326 0 0 1-.357-1.098c-.028-.399.106-.77.403-1.11a17.176 17.176 0 0 1 2.788-2.562 6.522 6.522 0 0 1 3.479-1.285c1.037-.073 2.11.16 3.216.697.997.492 1.784 1.132 2.36 1.92a7.488 7.488 0 0 1 1.226 2.62c.24.96.319 1.977.233 3.052a13.632 13.632 0 0 1-.657 3.214 16.75 16.75 0 0 1-1.443 3.168 18.307 18.307 0 0 1-2.101 2.914 14.833 14.833 0 0 1-2.623 2.348 12.25 12.25 0 0 1-3.039 1.556zM109.662 43.1c-.204.149-.372.227-.505.237-.266.018-.514-.085-.743-.31-.23-.224-.403-.499-.52-.825a2.392 2.392 0 0 1-.13-1.013c.029-.35.169-.64.42-.872 1.589-1.367 3.434-2.124 5.535-2.271a10.817 10.817 0 0 1 4.352.597c1.439.501 2.73 1.273 3.871 2.316.37.322.654.75.852 1.284.198.534.074 1.057-.371 1.57-.248.284-.571.44-.97.468-.532.037-1.055-.18-1.57-.652-.83-.797-1.723-1.336-2.679-1.617a8.208 8.208 0 0 0-2.909-.318c-.798.056-1.583.205-2.355.446a13.12 13.12 0 0 0-2.278.96zM127.513 55.245c.069-.54.356-.827.861-.862.24-.017.484.026.731.13.248.102.465.24.65.415.187.174.335.378.445.61.11.233.134.486.073.757a16.5 16.5 0 0 1-.383 1.41c-.196.642-.37 1.316-.52 2.022a13.316 13.316 0 0 0-.283 1.984c-.037.618.073 1.038.33 1.26.056.05.151.07.284.06.293-.02.715-.196 1.266-.529.552-.333 1.11-.76 1.675-1.28a9.678 9.678 0 0 0 1.483-1.728c.424-.63.64-1.254.651-1.87.037-.617-.092-1.123-.387-1.516a3.434 3.434 0 0 0-1.13-.964 6.495 6.495 0 0 0-1.483-.578 43.056 43.056 0 0 0-1.489-.357 15.576 15.576 0 0 1-2.648-.877c-.813-.358-1.48-1-1.999-1.925-.371-.723-.436-1.46-.195-2.212a3.834 3.834 0 0 1 1.313-1.876 6.097 6.097 0 0 1 3.245-1.19 8.044 8.044 0 0 1 2.581.22c.517.125.976.193 1.378.205.402.012.855 0 1.36-.035a1.13 1.13 0 0 0 .601-.302c.163-.159.304-.342.423-.551.119-.21.237-.425.356-.647.118-.222.224-.416.32-.583.266-.393.626-.606 1.078-.637.32-.022.657.034 1.014.17.357.135.665.327.923.577.258.249.45.516.577.801.127.285.12.58-.018.884-.529 1.24-1.16 2.16-1.893 2.758-.733.6-1.778.947-3.135 1.042a5.42 5.42 0 0 1-1.212-.136 41.55 41.55 0 0 1-1.224-.296c-.408-.105-.809-.197-1.202-.276a4.417 4.417 0 0 0-1.188-.078 3.21 3.21 0 0 0-1.18.324c-.1.113-.03.255.21.426.239.17.58.354 1.02.55.442.196.951.408 1.529.635.577.227 1.148.468 1.714.722.566.255 1.092.512 1.578.772s.858.515 1.116.764c.833.824 1.381 1.688 1.645 2.592.263.903.32 1.802.168 2.694-.151.893-.478 1.771-.978 2.635-.501.864-1.101 1.654-1.8 2.371-.323.344-.713.692-1.17 1.044a11.448 11.448 0 0 1-3.108 1.701c-.561.2-1.12.32-1.68.358a3.92 3.92 0 0 1-2.156-.45c-.667-.355-1.206-.998-1.619-1.932a3.85 3.85 0 0 1-.612-2.163 9.362 9.362 0 0 1 .355-2.37c.225-.804.502-1.612.833-2.424.331-.812.633-1.561.906-2.249zM138.777 42.589a32.033 32.033 0 0 0-3.28-.453 21.289 21.289 0 0 0-3.248-.013c-1.65.115-3.338.434-5.066.956-.156.064-.3.1-.433.11a1.026 1.026 0 0 1-.823-.303 1.792 1.792 0 0 1-.478-.809 1.734 1.734 0 0 1-.006-.942c.085-.313.296-.548.633-.706a18.431 18.431 0 0 1 6.537-1.7c1.41-.098 2.94-.018 4.588.24.015-.16.025-.302.03-.422.005-.121.004-.235-.003-.34.06-.273.156-.627.286-1.064.13-.436.294-.862.492-1.277.198-.415.427-.772.687-1.07.26-.3.55-.46.869-.482.266-.019.53.036.793.165.263.128.496.3.698.512.202.214.345.45.43.712.085.261.097.528.036.8a81.596 81.596 0 0 1-.702 2.575c-.086.3-.181.654-.286 1.062-.106.409-.206.884-.302 1.425.019.266-.098.501-.351.706a1.442 1.442 0 0 1-.819.338c-.16.011-.253.004-.282-.02zM142.944 64.912c-.219.684-.648 1.048-1.286 1.093-.346.024-.668-.087-.966-.334-.298-.246-.466-.635-.503-1.167-.052-.745.03-1.767.247-3.065s.54-2.704.968-4.218c.429-1.514.95-3.047 1.563-4.6a32.075 32.075 0 0 1 2.028-4.252c.74-1.281 1.528-2.339 2.365-3.173.837-.833 1.695-1.281 2.573-1.342 1.037-.073 1.89.282 2.56 1.064.67.781 1.202 1.8 1.597 3.056.395 1.255.667 2.653.815 4.193.147 1.54.213 3.053.197 4.537a39.493 39.493 0 0 1-.237 4.067c-.142 1.226-.312 2.14-.51 2.742-.113.302-.285.514-.517.638a1.85 1.85 0 0 1-.747.212c-.665.047-1.179-.131-1.541-.534-.362-.402-.566-.922-.61-1.56a132.3 132.3 0 0 0 .015-6.377 135.81 135.81 0 0 0-.301-6.315c-.102-.688-.206-1.122-.312-1.301-.106-.18-.226-.265-.359-.256a.491.491 0 0 0-.176.053.491.491 0 0 1-.177.052c-.347.399-.744 1.028-1.191 1.888-.448.86-.901 1.834-1.36 2.922a88.153 88.153 0 0 0-1.363 3.443c-.45 1.208-.864 2.366-1.24 3.475a90.473 90.473 0 0 0-.973 3.015 30.444 30.444 0 0 0-.559 2.044zM159.332 50.975c-.22.283-.49.436-.81.458a1.193 1.193 0 0 1-.756-.208 1.924 1.924 0 0 1-.584-.6 2.138 2.138 0 0 1-.295-.782 1.169 1.169 0 0 1 .145-.792c.41-.643.852-1.296 1.327-1.957a12.8 12.8 0 0 1 1.577-1.815 8.631 8.631 0 0 1 1.909-1.376 5.647 5.647 0 0 1 2.28-.64 4.79 4.79 0 0 1 2.542.503c.79.4 1.392 1.079 1.807 2.039.252.544.386 1.316.402 2.318a23.773 23.773 0 0 1-.207 3.342 45.201 45.201 0 0 1-.655 3.815 67.407 67.407 0 0 1-.92 3.773c-.33 1.2-.663 2.272-.997 3.218-.335.946-.647 1.642-.937 2.09a.912.912 0 0 1-.804.538 1.364 1.364 0 0 1-.713-.15 2.524 2.524 0 0 1-.654-.476 2.692 2.692 0 0 1-.487-.648 1.607 1.607 0 0 1-.204-.627c.13-1.212.311-2.428.547-3.647.235-1.22.478-2.44.726-3.66.25-1.22.498-2.44.747-3.661a50.32 50.32 0 0 0 .607-3.651c.018-.51-.003-.896-.061-1.159-.059-.263-.221-.385-.487-.367-.266.019-.744.253-1.435.702-.745.426-1.39.96-1.933 1.599a30.61 30.61 0 0 1-1.677 1.821zM172.011 64.283c-.345.024-.675-.1-.988-.372a2.453 2.453 0 0 1-.69-.974 1.827 1.827 0 0 1-.096-1.096c.082-.353.345-.599.79-.737a11.7 11.7 0 0 0 2.043-.885 8.066 8.066 0 0 0 1.814-1.31c.175-.172.38-.4.613-.684.234-.283.448-.579.64-.887.192-.307.324-.624.395-.95.07-.325.017-.615-.161-.87a1.23 1.23 0 0 0-.43-.411 3.977 3.977 0 0 0-.644-.316c-.233-.09-.46-.175-.68-.253-.218-.079-.41-.152-.576-.22a5.457 5.457 0 0 1-1.591-.972 4.984 4.984 0 0 1-1.141-1.404c-.43-.798-.567-1.61-.411-2.437.156-.826.5-1.632 1.034-2.418a11.488 11.488 0 0 1 2.01-2.226 18.005 18.005 0 0 1 5.134-3.126c.846-.326 1.575-.51 2.186-.553.24-.017.387-.014.442.009l.08-.006a.786.786 0 0 1 .746.349c.178.255.28.555.304.901.024.346-.026.677-.151.993a1.02 1.02 0 0 1-.658.627c-.34.104-.793.317-1.36.637-.565.32-1.146.702-1.744 1.144-.597.443-1.178.918-1.744 1.425-.566.508-1.012 1.02-1.336 1.537-.325.518-.485 1.003-.48 1.457.005.454.272.837.802 1.147.668.381 1.319.797 1.952 1.247.633.45 1.162.955 1.59 1.513.426.558.71 1.18.851 1.865.142.685.054 1.44-.262 2.264a7.545 7.545 0 0 1-1.33 2.198 11.345 11.345 0 0 1-2.035 1.866c-.764.548-1.575.993-2.433 1.333-.858.341-1.687.54-2.485.595z" fill="#214C47"/>
                    <path d="M187.027 45.63a2.362 2.362 0 0 0-.666.508c-.161.185-.298.429-.41.73-.198.228-.43.351-.696.37-.266.018-.539-.056-.818-.224a2.463 2.463 0 0 1-.706-.632 2.28 2.28 0 0 1-.399-.834 1.089 1.089 0 0 1 .102-.83c.43-.724 1.01-1.433 1.736-2.126.727-.692 1.537-1.15 2.43-1.372.719-.05 1.314.148 1.787.596.472.449.795.96.969 1.537.2.574.302 1.168.305 1.783.003.614-.048 1.226-.152 1.835a19.135 19.135 0 0 1-.396 1.792c-.16.586-.302 1.137-.426 1.653-.103.435-.245.893-.425 1.373s-.373.969-.58 1.464a18.478 18.478 0 0 0-.555 1.523 9.102 9.102 0 0 0-.35 1.588c-.109.73.027 1.241.408 1.535.382.295.865.421 1.45.38.586-.04 1.071-.168 1.457-.382.727-.318 1.346-.83 1.858-1.534.512-.704.97-1.43 1.371-2.18.4-.777.704-1.687.912-2.73.208-1.045.16-2.01-.143-2.898a2.424 2.424 0 0 0-.582-.882 5.676 5.676 0 0 0-.829-.663c-.294-.194-.594-.38-.9-.559a5.268 5.268 0 0 1-.802-.565c-.287-.274-.474-.662-.563-1.164-.117-.526.754-1.643 2.613-3.35a16.71 16.71 0 0 0 1.655-1.84 43.126 43.126 0 0 1 1.57-1.915 65.472 65.472 0 0 0 2.715-3.337 20.845 20.845 0 0 1 2.967-3.155c.253-.204.526-.317.818-.338.32-.022.638.05.957.214.32.165.582.387.789.667.207.28.341.584.405.914.063.33-.002.648-.194.956a22.291 22.291 0 0 1-2.756 3.6 130.76 130.76 0 0 0-3.163 3.51l-3.525 4.056c.535.39 1.031.796 1.488 1.219.458.422.82 1.025 1.09 1.808.362.99.527 2.095.492 3.314-.036 1.219-.244 2.35-.625 3.392a13.36 13.36 0 0 1-1.141 2.606 11.164 11.164 0 0 1-1.725 2.286 9.977 9.977 0 0 1-2.284 1.743 8.126 8.126 0 0 1-2.782.937c-2.394.167-4.29-.583-5.69-2.249-.764-.99-1.172-2.037-1.222-3.142-.051-1.106.108-2.273.476-3.502a39.99 39.99 0 0 1 1.202-3.172 63.093 63.093 0 0 0 1.245-3.134c.091-.22.156-.432.196-.635.039-.204.078-.414.116-.63l-.074.085z" fill="#D65C21"/>
                    <path d="M206.396 44.516c-.745.427-1.39.96-1.933 1.6a30.61 30.61 0 0 1-1.677 1.82c-.22.283-.49.436-.81.458a1.193 1.193 0 0 1-.756-.207 1.924 1.924 0 0 1-.584-.601 2.138 2.138 0 0 1-.295-.782 1.169 1.169 0 0 1 .145-.792c.41-.643.852-1.296 1.327-1.957a12.8 12.8 0 0 1 1.577-1.814 8.631 8.631 0 0 1 1.909-1.377 5.647 5.647 0 0 1 2.28-.64 4.79 4.79 0 0 1 2.542.503c.79.4 1.392 1.08 1.807 2.04.252.543.386 1.316.402 2.317a23.773 23.773 0 0 1-.207 3.343 45.201 45.201 0 0 1-.655 3.815 67.407 67.407 0 0 1-.92 3.773c-.33 1.2-.663 2.272-.997 3.217-.335.946-.647 1.643-.937 2.09a.912.912 0 0 1-.804.538 1.364 1.364 0 0 1-.713-.15 2.524 2.524 0 0 1-.654-.476 2.692 2.692 0 0 1-.487-.648 1.607 1.607 0 0 1-.204-.627c.13-1.212.311-2.428.547-3.647.235-1.22.478-2.44.726-3.66l.747-3.66a50.32 50.32 0 0 0 .607-3.652c.017-.509-.003-.895-.061-1.158-.059-.264-.221-.386-.487-.367-.266.018-.744.252-1.435.701zm-9.648-10.64c-.03.725-.207 1.352-.53 1.882-.324.53-.74.988-1.248 1.37a5.773 5.773 0 0 1-1.703.882 7.89 7.89 0 0 1-1.898.373c-.772.054-1.404-.102-1.897-.469a2.922 2.922 0 0 1-1.041-1.41 3.889 3.889 0 0 1-.169-1.833c.089-.648.328-1.24.718-1.775.415-.563.99-1.045 1.724-1.444.734-.398 1.46-.623 2.178-.673.293-.02.48-.02.562 0 .452-.03.883.02 1.293.15.41.133.765.328 1.064.588.299.26.536.59.71.993.176.402.255.858.237 1.367zm-5.763 1.887c.029.025.07.036.123.032a6.648 6.648 0 0 0 1.69-.76c.526-.33.886-.824 1.08-1.479a7.042 7.042 0 0 0-.962.288c-.3.114-.552.232-.757.354a2.773 2.773 0 0 0-.59.442c-.138.143-.268.286-.392.428l-.206.496.014.2zm6.14-1.705c-.08.005-.119.035-.115.088l.011.16-.005-.08.037-.043.037-.043c.025-.028.036-.056.034-.082zM215.505 61.242c-.346.024-.675-.1-.988-.372a2.453 2.453 0 0 1-.69-.974 1.827 1.827 0 0 1-.096-1.096c.082-.354.345-.6.79-.737a11.7 11.7 0 0 0 2.043-.885 8.066 8.066 0 0 0 1.813-1.31c.175-.172.38-.4.614-.684.234-.284.447-.58.64-.887.192-.307.324-.624.395-.95.07-.325.017-.616-.162-.87a1.23 1.23 0 0 0-.43-.412 3.977 3.977 0 0 0-.643-.316c-.234-.09-.46-.175-.68-.253-.219-.078-.41-.151-.576-.22a5.457 5.457 0 0 1-1.592-.971 4.984 4.984 0 0 1-1.14-1.404c-.43-.799-.567-1.611-.411-2.438.156-.826.5-1.632 1.033-2.418a11.488 11.488 0 0 1 2.01-2.225 18.005 18.005 0 0 1 5.135-3.126c.846-.326 1.574-.511 2.186-.554.24-.017.387-.013.442.01l.08-.006a.786.786 0 0 1 .746.349c.178.255.28.555.303.9.025.346-.026.677-.15.994a1.02 1.02 0 0 1-.658.627c-.34.104-.794.316-1.36.636-.565.32-1.147.702-1.744 1.145-.597.443-1.179.918-1.745 1.425-.566.507-1.01 1.02-1.336 1.537-.324.517-.484 1.003-.48 1.457.006.454.273.836.803 1.147.668.38 1.319.796 1.952 1.247.632.45 1.162.954 1.589 1.513.427.558.71 1.18.852 1.865.142.685.054 1.44-.263 2.263a7.545 7.545 0 0 1-1.33 2.199 11.345 11.345 0 0 1-2.034 1.866c-.764.548-1.575.992-2.433 1.333-.859.34-1.687.539-2.485.595zM235.641 41.269a.279.279 0 0 0 .118-.029.178.178 0 0 1 .079-.025c.319-.023.607.084.864.32s.444.51.559.823c.115.313.158.63.127.954-.031.323-.175.56-.432.712-.54.305-1.083.657-1.63 1.056-.547.399-1.108.779-1.684 1.14a12.03 12.03 0 0 1-1.8.928 6.283 6.283 0 0 1-1.973.459c-.559.039-1.105-.124-1.638-.487-.533-.364-.89-.887-1.072-1.57a3.09 3.09 0 0 1 .094-.948 8.445 8.445 0 0 1 .801-2.02c.178-.32.366-.595.564-.822.143-.25.347-.386.613-.404.187-.013.377.034.572.14.194.107.365.249.51.426.147.177.254.37.322.579.068.209.08.395.039.558l-.095.368a1.85 1.85 0 0 0-.106.77c.148-.172.459-.414.931-.728.473-.313.986-.623 1.54-.93a39.005 39.005 0 0 1 1.585-.832c.504-.249.874-.395 1.112-.438zm-.488 9.657a.443.443 0 0 0 .139-.03.443.443 0 0 1 .138-.03c.399-.027.734.076 1.004.311s.463.51.579.822c.115.313.137.625.065.938-.071.312-.262.546-.572.701-.54.305-1.084.658-1.63 1.057-.547.399-1.095.778-1.645 1.137-.55.36-1.116.673-1.699.94a5.22 5.22 0 0 1-1.831.47c-.719.05-1.338-.114-1.86-.492-.52-.378-.805-.912-.853-1.604-.04-.559.09-1.21.385-1.952.295-.742.654-1.342 1.077-1.8.143-.25.347-.384.613-.403a.718.718 0 0 1 .472.148c.154.109.291.253.41.432.12.179.207.366.26.563.055.197.06.377.018.54.012.16.007.28-.014.362-.02.108-.038.23-.055.365a1.257 1.257 0 0 1-.132.41 9.943 9.943 0 0 0 1.214-.706c.421-.284.85-.561 1.285-.832.435-.271.879-.53 1.33-.775.45-.245.884-.436 1.302-.572zM245.21 38.194c.227-.578.593-.884 1.098-.92.532-.036 1.013.15 1.443.561.43.411.584.902.464 1.472-.85 3.133-1.631 6.209-2.342 9.226a203.658 203.658 0 0 0-1.944 9.197c-.08.38-.261.654-.544.82a2.032 2.032 0 0 1-.902.284c-.745.052-1.276-.178-1.592-.69-.317-.513-.498-1.102-.545-1.767a108.01 108.01 0 0 1 2.127-9.15 219.516 219.516 0 0 1 2.737-9.033zM260.979 43.507l.057-.325c.018-.135.027-.29.028-.463.001-.174.021-.37.06-.586.098-.889.097-1.664-.003-2.325-.1-.662-.362-.978-.788-.948-.292.02-.64.219-1.041.594a1.608 1.608 0 0 1-1.864.01 2.158 2.158 0 0 1-.74-.85 2.065 2.065 0 0 1-.2-1.129c.038-.404.234-.765.586-1.083.852-.808 1.77-1.247 2.755-1.316 1.303-.09 2.47.536 3.5 1.88a7.799 7.799 0 0 1 1.462 3.146 12 12 0 0 1 .206 3.515 17.222 17.222 0 0 1-.727 3.66 27.62 27.62 0 0 1-1.393 3.585 33.581 33.581 0 0 1-1.774 3.292 38.11 38.11 0 0 1-1.834 2.734c-.295.369-.629.566-1.001.592-.453.031-.883-.106-1.292-.411a4.1 4.1 0 0 1-.972-.995 57.937 57.937 0 0 1-4.139-7.008 28.258 28.258 0 0 1-2.542-7.682c-.096-.608.026-1.064.365-1.368.34-.305.736-.473 1.188-.504.452-.032.88.058 1.282.27.403.213.675.568.817 1.066a69.168 69.168 0 0 0 1.933 5.58 37.136 37.136 0 0 0 2.548 5.174c.965-1.11 1.8-2.746 2.503-4.907.176-.546.324-1.018.443-1.414.12-.396.223-.73.31-1.004.113-.302.202-.562.267-.78zM251.316 33.195c-.204.148-.372.227-.505.236-.266.019-.514-.084-.743-.309-.23-.224-.403-.5-.519-.825a2.392 2.392 0 0 1-.131-1.014c.029-.35.17-.64.42-.871 1.589-1.368 3.434-2.125 5.535-2.272a10.817 10.817 0 0 1 4.353.598c1.438.5 2.728 1.273 3.87 2.316.37.321.654.75.852 1.283.198.534.074 1.058-.371 1.57-.248.285-.57.44-.97.469-.532.037-1.055-.18-1.57-.652-.83-.798-1.723-1.337-2.679-1.617a8.208 8.208 0 0 0-2.909-.318c-.798.056-1.583.204-2.354.445a13.12 13.12 0 0 0-2.279.961zM280.008 35.239c.08-.38.222-.65.425-.812.202-.16.45-.252.743-.272.292-.02.597.032.913.157.316.124.603.305.86.54.257.237.47.51.638.818.169.31.238.625.207.948.01.133-.008.362-.052.686l-.16 1.154c-.063.445-.15.926-.26 1.441a65.878 65.878 0 0 1-.353 1.549c-.144.624-.286 1.27-.426 1.934-.141.665-.294 1.35-.458 2.057.475.288.882.767 1.223 1.438.341.671.534 1.326.579 1.965.262 1.451.163 2.808-.297 4.07a7.368 7.368 0 0 1-2.282 3.207 1.411 1.411 0 0 1-.781.295 1.947 1.947 0 0 1-1.101-.263 3.177 3.177 0 0 1-.938-.797 4.337 4.337 0 0 1-.91-2.122c-.108-.78-.13-1.668-.066-2.662-.024-.345.003-.808.083-1.389.08-.58.108-1.043.083-1.389a62.24 62.24 0 0 0-2.026 1.706 16.576 16.576 0 0 0-1.665 1.7 16.811 16.811 0 0 0-1.498 2.09c-.48.781-.987 1.753-1.52 2.913-.231.524-.56.8-.985.83-.292.02-.586-.072-.881-.279a3.054 3.054 0 0 1-.779-.808 4.185 4.185 0 0 1-.514-1.046 1.83 1.83 0 0 1-.053-1.04 44.716 44.716 0 0 0 1.002-4.6c.263-1.596.53-3.125.802-4.587.057-.325.14-.779.246-1.36.106-.583.193-1.157.26-1.723a7.95 7.95 0 0 0 .058-1.468c-.029-.412-.15-.61-.363-.596-.133.01-.312.122-.537.338-.226.217-.509.564-.85 1.042-.365.507-.748.774-1.147.802-.452.032-.84-.182-1.167-.64-.326-.458-.404-1-.234-1.628.261-.847.74-1.642 1.437-2.386.696-.743 1.577-1.152 2.64-1.227.613-.043 1.133.048 1.563.272.43.224.78.527 1.046.91.268.381.472.822.614 1.32.142.497.244.998.306 1.502.187 1.537.188 2.887.002 4.05a161.354 161.354 0 0 1-.598 3.49c.504-.436.952-.815 1.344-1.137.392-.321.786-.61 1.183-.864a9.935 9.935 0 0 1 1.275-.691 15.037 15.037 0 0 1 1.66-.617 39.872 39.872 0 0 0 .855-4.41 39.872 39.872 0 0 1 .854-4.41z" fill="#D65C21"/>
                </g>
            </g>
        </g>
        <g fill-rule="nonzero">
            <g transform="rotate(12 -30.615 347.246)">
                <circle fill="#FFD15C" cx="11" cy="11" r="11"/>
                <circle fill="#F3AA49" cx="11" cy="11" r="8.367"/>
            </g>
            <g fill="#FFD15C">
                <path d="m78.753 23.418-.496 2.336 2.602.553c.465.1.861.092 1.188-.021.328-.114.539-.393.633-.839.105-.493-.017-.86-.367-1.1-.307-.18-.717-.325-1.23-.434l-2.33-.495zm-.87 4.09-.6 2.826 2.603.553c.465.099.84.113 1.125.044.519-.13.847-.522.986-1.173.117-.552-.03-.979-.442-1.281-.23-.17-.573-.305-1.033-.408l-2.638-.56zm4.295-5.286c1.295.296 2.136.867 2.521 1.716.23.52.279 1.093.145 1.721-.137.647-.41 1.133-.82 1.456-.23.182-.54.326-.934.433.5.312.843.71 1.027 1.195.185.485.213 1.032.084 1.64a3.155 3.155 0 0 1-.834 1.59 2.994 2.994 0 0 1-2.25.949 7.59 7.59 0 0 1-1.536-.176l-4.802-1.021 2.252-10.597 5.147 1.094z"/>
                <path d="m80.818 20.848 1.184.252-2.715 12.777-1.185-.251z"/>
            </g>
        </g>
        <g fill-rule="nonzero">
            <g transform="rotate(-20 92.227 -31.877)">
                <circle fill="#FFD15C" cx="9" cy="9" r="9"/>
                <circle fill="#F3AA49" cx="9" cy="9" r="6.846"/>
            </g>
            <g fill="#FFD15C">
                <path d="m25.582 33.055.668 1.836 2.046-.744c.365-.133.637-.31.815-.53.178-.22.203-.506.075-.857-.14-.388-.385-.589-.731-.603-.292.007-.64.085-1.042.232l-1.831.666zm1.17 3.215.808 2.22 2.046-.744c.366-.133.632-.285.8-.457.303-.315.362-.73.175-1.241-.157-.434-.445-.666-.862-.698-.232-.018-.53.038-.893.165l-2.074.755zm.688-5.53c1.026-.356 1.857-.324 2.493.098.385.26.667.638.847 1.131.185.509.206.964.062 1.366-.08.226-.233.46-.46.705.482 0 .892.128 1.23.384.34.257.596.624.77 1.103.18.493.216.981.11 1.463a2.45 2.45 0 0 1-1.149 1.634 6.21 6.21 0 0 1-1.143.544l-3.774 1.374-3.032-8.329 4.046-1.473z"/>
                <path d="m25.9 30.377.94-.342 3.655 10.043-.94.342z"/>
            </g>
        </g>
    </g>
</svg>
