<svg width="320" height="108" viewBox="0 0 320 108" xmlns="http://www.w3.org/2000/svg" xmlns:xlink="http://www.w3.org/1999/xlink">
    <defs>
        <path id="01f33m15ec" d="M0 0h75v61.291H0z"/>
        <path d="m20.107.028-.316.086-18.888 5.2-.317.089a.815.815 0 0 0-.54 1.056l1.409 4.06 1.22-.336 3.745 10.29a.787.787 0 0 0 .945.5l14.449-3.978a.813.813 0 0 0 .575-.919L20.626 5.243l1.22-.337-.757-4.24A.797.797 0 0 0 20.313 0a.782.782 0 0 0-.206.028" id="1yf00frute"/>
        <path d="M.028.82 0 5.202l1.233.115.09 11.168c.005.425.31.779.708.816l14.584 1.361c.396.038.755-.253.827-.671L19.35 7.01l1.232.115.687-4.322c.076-.475-.245-.918-.695-.96l-.32-.03L1.188.033l-.32-.03A.65.65 0 0 0 .8 0C.379 0 .03.362.028.82" id="ew7r4im65g"/>
        <path d="M3.418.018C1.228.23.303 5.953.007 8.405a.867.867 0 0 0 .258.736.69.69 0 0 0 .54.19.66.66 0 0 0 .16-.036c2.13-.748 7.062-2.75 6.87-5.175C7.649 1.774 5.865 0 3.777 0c-.118 0-.238.006-.359.018M2.99 3.696c.836-.08 1.574.605 1.652 1.456-.126.378-1.266 1.089-2.632 1.689.293-1.593.717-2.954.98-3.145" id="ptvv0uckoi"/>
        <path d="M3.954.006C1.576.21-.192 2.274.017 4.606.22 6.886 5.715 7.85 8.067 8.16a.79.79 0 0 0 .707-.27h.001a.755.755 0 0 0 .147-.729C8.218 4.985 6.355 0 4.087 0c-.044 0-.088.002-.133.006m-.407 5.046c-.077-.87.582-1.638 1.4-1.72.361.132 1.044 1.319 1.619 2.741-1.53-.306-2.836-.746-3.019-1.02" id="swrv8th1uk"/>
        <path d="M0 1.618 2.87 16.32c.073.379.44.644.844.61L18.6 15.692c.405-.034.717-.353.721-.74L19.46 0 0 1.618z" id="48v09ke6cm"/>
        <path d="M20.412.003.706 1.811c-.45.042-.77.476-.695.943L.698 7 21.28 5.112 21.253.805C21.25.356 20.9 0 20.48 0c-.023 0-.046 0-.07.003" id="1fuanbx90o"/>
        <path id="ss3rpah2bq" d="m0 1.508.483 2.316 18.861-1.468L19.367 0z"/>
        <path id="1uft3zvejr" d="m0 .417 1.43 16.5 4.73-.418L4.73 0z"/>
        <rect id="exlmlkp9la" x="0" y="0" width="320" height="108" rx="8"/>
    </defs>
    <g fill="none" fill-rule="evenodd">
        <g>
            <mask id="akm9su8pib" fill="#fff">
                <use xlink:href="#exlmlkp9la"/>
            </mask>
            <use fill="#FFF8D5" xlink:href="#exlmlkp9la"/>
            <g mask="url(#akm9su8pib)">
                <path d="M157.323 89.265s8.385 57.494 6.598 95.869l-2.616.261c-1.407.14-2.822.176-4.234.105l-2.48-.125s-10-58.293-14.993-67.973c0 0-13.578 51.84-14.101 65.883 0 0-6.036.607-8.441-.259-1.293-13.553-1.666-27.583-1.73-36.39-.185-25.207 2.225-36.658 3.546-42.09a129.189 129.189 0 0 1 3.465-11.782l3.175-9.052 31.81 5.553z" fill="#094F48"/>
                <g transform="translate(105.579 40.163)">
                    <mask id="e5tu2gur5d" fill="#fff">
                        <use xlink:href="#01f33m15ec"/>
                    </mask>
                    <path d="M51.068 1.248C45.52.623 33.683-.498 25.54.247c-2.458.224-6.006 1.725-7.875 3.337C12.158 8.334 1.769 18.794.034 31.346a3.554 3.554 0 0 0 2.754 3.951l9.599 2.126S8.56 52.497 8.867 55.1c.31 2.604 8.238 7.033 18.154 3.4 7.733-2.834 18.678-5.087 25.626-2.643.066.024.73 5.36.8 5.37 2.23.325 4.479-.543 4.426-3.677l-1.058-16.278 12.72-1.679 1.136-.378a6.319 6.319 0 0 0 3.89-8.306c-2.99-7.603-7.498-19.911-15.849-26.71-1.786-1.453-5.355-2.693-7.644-2.951" fill="#19976C" mask="url(#e5tu2gur5d)"/>
                </g>
                <path d="M150.865 91.506h19.877c.864 0 1.616-.588 1.824-1.426l6.877-27.718a1.878 1.878 0 0 0-1.823-2.33h-19.878c-.863 0-1.615.589-1.823 1.426l-6.878 27.718a1.878 1.878 0 0 0 1.824 2.33" fill="#3E3E3E"/>
                <path d="M157.742 60.547a1.36 1.36 0 0 0-1.323 1.035L149.54 89.3c-.102.41-.011.836.25 1.168.26.333.651.524 1.074.524h19.877c.629 0 1.173-.426 1.324-1.036l6.878-27.717c.102-.41.01-.836-.25-1.169a1.355 1.355 0 0 0-1.074-.523h-19.878zm13 31.474h-19.877a2.379 2.379 0 0 1-1.885-.918 2.377 2.377 0 0 1-.438-2.05l6.877-27.718a2.389 2.389 0 0 1 2.323-1.817h19.878c.741 0 1.428.335 1.885.919.457.583.616 1.33.438 2.05l-6.878 27.717a2.389 2.389 0 0 1-2.323 1.817z"/>
                <path d="m176.21 74.2-.668 2.797-2.402-.8a18.729 18.729 0 0 1-3.79-1.752l-1.378-.835a1.893 1.893 0 0 0-2.766.998c-.85 2.412-.682 6.452 7.974 8.99 4.777 1.4 6.145-4.717 5.527-8.116-.159-.869-.586-1.424-1.024-1.775a.924.924 0 0 0-1.473.493M130.24 58.154a15.233 15.233 0 0 1-3.362 2.594c-4.173 2.376-14.142 8.126-16.622 10.244-3.16 2.698-4.671 3.704-2.132 10.646 4.14 11.314 23.44-17.732 23.44-17.732s5.668 1.025 6.94-3.94c0 0 2.955.554 4.187.02.944-.408.903-2.01-.357-2.186l-8.154-1.52a3.444 3.444 0 0 0-3.07.984l-.87.89z" fill="#FFD6AF"/>
                <path d="M144.36 33.789c-1.145.934-3.343 2.03-4.962 1.097-1.205-.695-1.806-2.352-1.657-4.203-.577.014-1.328-.07-1.839-.575-.785-.778-.554-2.114-.471-2.996.382-4.07-1.954-4.83-1.216-7.566.58-2.15 2.363-3.349 2.697-3.573 1.684-1.132 2.754-.675 5.508-1.23 4.635-.936 4.892-2.895 7.902-2.734.174.01 4.265.288 5.494 3.194.999 2.364-.48 5.084-1.929 6.475-1.876 1.8-3.09.789-4.955 2.283-3.274 2.622-1.167 7.052-4.571 9.828" fill="#094F48"/>
                <path d="m153.888 27.03-.17-.166c-.86-.83-1.75-1.787-1.923-2.969-.737-5.023-5.184-7.085-5.654-2.537-.118 1.147-4.318.848-3.888 2.084 1.12 3.223 1.198 2.377-.704 3.433a1.59 1.59 0 0 0-.617.11c-.966.385-1.372 1.643-.907 2.81.283.71.823 1.217 1.418 1.424l-.283 4.974a4.599 4.599 0 0 1-3.097 4.087l-1.72.591s7.545 5.558 15.818.398l-1.035-.536a5.361 5.361 0 0 1-2.892-4.896l.047-.973a4.17 4.17 0 0 0 1.538-.04c2.261-.52 3.146-3.04 2.95-6.247l.932-.435a.685.685 0 0 0 .187-1.113" fill="#FFD6AF"/>
            </g>
        </g>
        <path d="M229.203 79.377c-.897 1.628-2.077 2.98-3.51 4.018-1.63 1.181-3.649 2.005-6.002 2.449a1.71 1.71 0 0 1-.548.011l-.02-.003a1.686 1.686 0 0 1-.536-.183c-2.104-1.148-3.773-2.555-4.96-4.183-1.041-1.43-1.746-3.08-2.095-4.905-.635-3.319-.023-6.767.47-9.538l.007-.043c.046-.228.091-.468.137-.733.226-1.304 1.414-2.225 2.705-2.095 2.691.27 4.895-.292 6.936-1.768l.018-.013a1.486 1.486 0 0 1 1.092-.24c.354.06.685.251.925.56l.013.017c1.485 2.035 3.408 3.25 6.05 3.825 1.268.276 2.114 1.518 1.926 2.828-.039.269-.07.51-.096.74l-.002.018c-.39 2.793-.875 6.269-2.51 9.238z" fill="#36B38A" fill-rule="nonzero"/>
        <g transform="rotate(9 -330.005 1405.764)" fill="#FFF">
            <path d="m4.51 8.724 7.003-7.009-1.487-1.44-6.982 6.981z"/>
            <circle cx="10.727" cy="1.038" r="1.038"/>
            <path d="m.3 5.92 2.807 2.807 1.454-1.476-2.83-2.831z"/>
            <circle cx="1.038" cy="5.192" r="1.038"/>
            <circle cx="3.806" cy="7.962" r="1.038"/>
        </g>
        <path d="m83.586 62.678 2.29 9.92c.238 1.03-.374 2.046-1.369 2.276l-16.865 3.893c-.995.23-1.99-.415-2.228-1.445l-2.29-9.92a1.964 1.964 0 0 1 .215-1.422l.012-.002 10.59 3.354c.14.06.284.078.416.048a.677.677 0 0 0 .352-.225l8.049-7.658.012-.003c.389.263.698.675.816 1.184z" fill="#FCE455"/>
        <path d="m83.586 62.678 2.29 9.92c.238 1.03-.374 2.046-1.369 2.276l-8.432 1.947-1.718-7.441a.677.677 0 0 0 .352-.225l8.049-7.658.012-.003c.389.263.698.675.816 1.184z" fill="#FCE455"/>
        <path d="m85.624 73.915-.003-.013-11.163-5.834a.677.677 0 0 0-.415-.048.677.677 0 0 0-.352.225l-7.476 10.138.003.012c.4.26.905.366 1.396.252l16.865-3.893c.492-.114.899-.43 1.145-.84z" fill="#FACE34"/>
        <path d="m85.624 73.915-.003-.013-11.163-5.834a.677.677 0 0 0-.415-.048l2.004 8.68 8.432-1.946c.492-.114.899-.43 1.145-.84z" fill="#FACE34"/>
        <path d="m82.755 61.485.003.012-7.476 10.138a.677.677 0 0 1-.353.225.677.677 0 0 1-.415-.048l-11.163-5.834-.003-.013c.246-.41.653-.725 1.145-.839l16.865-3.893a1.822 1.822 0 0 1 1.397.252z" fill="#F49F28"/>
        <path d="m82.755 61.485.003.012-7.476 10.138a.677.677 0 0 1-.353.225l-2.004-8.68 8.433-1.947a1.822 1.822 0 0 1 1.397.252z" fill="#F49F28"/>
        <g>
            <g transform="rotate(-9 169.856 -511.307)">
                <mask id="zataaqvojf" fill="#fff">
                    <use xlink:href="#1yf00frute"/>
                </mask>
                <path d="m20.107.028-.316.086-18.888 5.2-.317.089a.815.815 0 0 0-.54 1.056l1.409 4.06 1.22-.336 3.745 10.29a.787.787 0 0 0 .945.5l14.449-3.978a.813.813 0 0 0 .575-.919L20.626 5.243l1.22-.337-.757-4.24A.797.797 0 0 0 20.313 0a.782.782 0 0 0-.206.028" mask="url(#zataaqvojf)"/>
            </g>
            <g transform="rotate(-9 177.614 -554.875)">
                <mask id="7kiev9g2vh" fill="#fff">
                    <use xlink:href="#ew7r4im65g"/>
                </mask>
                <path d="M.028.82 0 5.202l1.233.115.09 11.168c.005.425.31.779.708.816l14.584 1.361c.396.038.755-.253.827-.671L19.35 7.01l1.232.115.687-4.322c.076-.475-.245-.918-.695-.96l-.32-.03L1.188.033l-.32-.03A.65.65 0 0 0 .8 0C.379 0 .03.362.028.82" mask="url(#7kiev9g2vh)"/>
            </g>
            <g transform="rotate(-9 118.664 -593.193)">
                <mask id="xiu65jieaj" fill="#fff">
                    <use xlink:href="#ptvv0uckoi"/>
                </mask>
                <path d="M3.418.018C1.228.23.303 5.953.007 8.405a.867.867 0 0 0 .258.736.69.69 0 0 0 .54.19.66.66 0 0 0 .16-.036c2.13-.748 7.062-2.75 6.87-5.175C7.649 1.774 5.865 0 3.777 0c-.118 0-.238.006-.359.018M2.99 3.696c.836-.08 1.574.605 1.652 1.456-.126.378-1.266 1.089-2.632 1.689.293-1.593.717-2.954.98-3.145" fill="#36B38A" mask="url(#xiu65jieaj)"/>
            </g>
            <g transform="rotate(-9 129.436 -551.084)">
                <mask id="sufkoya3vl" fill="#fff">
                    <use xlink:href="#swrv8th1uk"/>
                </mask>
                <path d="M3.954.006C1.576.21-.192 2.274.017 4.606.22 6.886 5.715 7.85 8.067 8.16a.79.79 0 0 0 .707-.27h.001a.755.755 0 0 0 .147-.729C8.218 4.985 6.355 0 4.087 0c-.044 0-.088.002-.133.006m-.407 5.046c-.077-.87.582-1.638 1.4-1.72.361.132 1.044 1.319 1.619 2.741-1.53-.306-2.836-.746-3.019-1.02" fill="#36B38A" mask="url(#sufkoya3vl)"/>
            </g>
            <path d="M93.948 20.759c-.387-1.675.378-3.326 1.709-3.688 1.33-.362 2.722.7 3.108 2.375l-4.817 1.313z" fill="#36B38A"/>
            <g transform="rotate(-9 180.555 -541.633)">
                <mask id="avyc1xev5n" fill="#fff">
                    <use xlink:href="#48v09ke6cm"/>
                </mask>
                <path d="M0 1.618 2.87 16.32c.073.379.44.644.844.61L18.6 15.692c.405-.034.717-.353.721-.74L19.46 0 0 1.618z" fill="#FDE975" mask="url(#avyc1xev5n)"/>
            </g>
            <g transform="rotate(-9 175.308 -536.795)">
                <mask id="7w1yb59oup" fill="#fff">
                    <use xlink:href="#1fuanbx90o"/>
                </mask>
                <path d="M20.412.003.706 1.811c-.45.042-.77.476-.695.943L.698 7 21.28 5.112 21.253.805C21.25.356 20.9 0 20.48 0c-.023 0-.046 0-.07.003" fill="#FACE34" mask="url(#7w1yb59oup)"/>
            </g>
            <path fill="#F55142" d="m98.637 19.425-4.605 1.152 3.993 16.073 4.607-1.153z"/>
            <g transform="rotate(-9 175.094 -586.895)">
                <mask id="j6uaa2rjks" fill="#fff">
                    <use xlink:href="#1uft3zvejr"/>
                </mask>
                <path fill="#36B38A" mask="url(#j6uaa2rjks)" d="m0 .417 1.43 16.5 4.73-.418L4.73 0z"/>
            </g>
        </g>
        <g>
            <path d="M220.083 10h-7.4a5.218 5.218 0 0 0-3.714 1.538l-12.974 12.976a3.4 3.4 0 0 0 0 4.805l7.685 7.686a3.4 3.4 0 0 0 4.805 0l12.977-12.975A5.286 5.286 0 0 0 223 20.317v-7.4A2.917 2.917 0 0 0 220.083 10zm-3.5 9.334a2.917 2.917 0 1 1 0-5.834 2.917 2.917 0 0 1 0 5.834z" fill="#E88480"/>
            <g fill="#FFFCE7" fill-rule="nonzero">
                <path d="M206.846 31.538a.598.598 0 0 1-.598-.598v-9.572a.598.598 0 0 1 1.196 0v9.572c0 .33-.267.598-.598.598zM203.256 26.752a1.795 1.795 0 1 1 0-3.59 1.795 1.795 0 0 1 0 3.59zm0-2.393a.598.598 0 1 0 0 1.197.598.598 0 0 0 0-1.197zM210.436 29.145a1.795 1.795 0 1 1 0-3.59 1.795 1.795 0 0 1 0 3.59zm0-2.393a.598.598 0 1 0 0 1.197.598.598 0 0 0 0-1.197z"/>
            </g>
        </g>
    </g>
</svg>
