<svg width="588" height="140" viewBox="0 0 588 140" xmlns="http://www.w3.org/2000/svg">
    <g fill="none" fill-rule="evenodd">
        <rect fill="#C9E9E9" width="588" height="140" rx="8"/>
        <path d="M444.063 65.779a3.372 3.372 0 0 1-3.37-3.378V49.737c0-7.45-6.043-13.509-13.474-13.509-7.432 0-13.475 6.059-13.475 13.509V62.4a3.372 3.372 0 0 1-3.369 3.378 3.372 3.372 0 0 1-3.369-3.378V49.737c0-11.175 9.066-20.263 20.213-20.263s20.212 9.088 20.212 20.263V62.4a3.372 3.372 0 0 1-3.368 3.378z" fill="#B8B8B8" fill-rule="nonzero"/>
        <path d="M449.958 110.526H404.48c-4.178 0-7.58-3.407-7.58-7.598v-35.46c0-4.192 3.402-7.6 7.58-7.6h45.478c4.177 0 7.58 3.408 7.58 7.6v35.46c0 4.19-3.403 7.598-7.58 7.598z" fill="#FCE455"/>
        <path d="M433.956 80.132c0-3.725-3.022-6.755-6.737-6.755-3.716 0-6.738 3.03-6.738 6.755 0 2.489 1.365 4.643 3.369 5.815v7.693a3.372 3.372 0 0 0 3.369 3.378 3.372 3.372 0 0 0 3.368-3.378v-7.693c2.005-1.172 3.37-3.326 3.37-5.815z" fill="#F49F28"/>
        <g transform="translate(117.6 36.842)">
            <path d="M63.913 28.833 36.75 46.453 9.587 28.833V1.603A1.567 1.567 0 0 1 11.117 0h51.198a1.567 1.567 0 0 1 1.598 1.534V28.833z" fill="#F9F9F9" fill-rule="nonzero"/>
            <g fill="#F49F28">
                <path d="M9.587 28.833 0 22.426l9.587-9.611zM73.5 22.426l-9.587 6.407V12.815z"/>
            </g>
            <path d="m63.913 28.69 9.587-6.264v44.851a6.455 6.455 0 0 1-1.87 4.533L60.718 60.87 43.141 43.25l-.447-.69 21.219-13.87z" fill="#FCE455"/>
            <path d="m60.717 60.87 10.914 10.94a6.423 6.423 0 0 1-4.522 1.874H6.39A6.423 6.423 0 0 1 1.87 71.81l10.914-10.94 17.576-17.62.447-.69 5.944 3.893 5.944-3.892.447.689 17.576 17.62z" fill="#FACE34"/>
            <path d="m30.806 42.56-.447.69-17.576 17.62L1.87 71.81A6.455 6.455 0 0 1 0 67.277V22.426L30.806 42.56z" fill="#FCE455"/>
            <rect fill="#B3E0E0" fill-rule="nonzero" x="14.7" y="5.526" width="44.1" height="3.684" rx="1.837"/>
            <rect fill="#B3E0E0" fill-rule="nonzero" x="14.7" y="12.895" width="44.1" height="3.684" rx="1.837"/>
            <rect fill="#B3E0E0" fill-rule="nonzero" x="14.7" y="20.263" width="44.1" height="3.684" rx="1.837"/>
        </g>
        <g>
            <path d="M333.441 87.31c-2.784 7.514-6.994 14.048-12.515 19.418-6.285 6.112-14.514 10.969-24.459 14.433a7.694 7.694 0 0 1-1.01.275 7.648 7.648 0 0 1-1.367.143H294c-.485 0-.974-.049-1.458-.143a7.906 7.906 0 0 1-1.003-.273c-9.957-3.459-18.196-8.313-24.487-14.425-5.524-5.37-9.733-11.9-12.513-19.415-5.055-13.663-4.767-28.714-4.536-40.809l.004-.186a98.83 98.83 0 0 0 .094-3.206c.084-5.688 4.625-10.394 10.336-10.71 11.908-.663 21.12-4.53 28.992-12.172l.068-.063a6.65 6.65 0 0 1 9.008 0l.067.063c7.873 7.641 17.085 11.51 28.993 12.171 5.712.317 10.252 5.023 10.337 10.711.016 1.166.046 2.214.093 3.206l.002.08c.231 12.117.517 27.198-4.556 40.901z" fill="#36B38A"/>
            <g transform="translate(268.059 51.947)" fill="#FFF">
                <path d="M19.888 37.499 50.77 7.373 44.215 1.18 13.424 31.188z"/>
                <ellipse cx="47.304" cy="4.464" rx="4.578" ry="4.464"/>
                <path d="m1.32 25.447 12.383 12.065 6.411-6.346-12.477-12.17z"/>
                <ellipse cx="4.578" cy="22.318" rx="4.578" ry="4.464"/>
                <ellipse cx="16.785" cy="34.221" rx="4.578" ry="4.464"/>
            </g>
        </g>
    </g>
</svg>
