<svg width="320" height="108" viewBox="0 0 320 108" xmlns="http://www.w3.org/2000/svg" xmlns:xlink="http://www.w3.org/1999/xlink">
    <defs>
        <rect id="5zst3tgaaa" x="0" y="0" width="320" height="108" rx="8"/>
        <path id="9cb9wf58pc" d="M0 0h22.843v24.861H0z"/>
    </defs>
    <g fill="none" fill-rule="evenodd">
        <g>
            <mask id="wyc4r56clb" fill="#fff">
                <use xlink:href="#5zst3tgaaa"/>
            </mask>
            <use fill="#FBE9CE" xlink:href="#5zst3tgaaa"/>
            <g mask="url(#wyc4r56clb)">
                <path d="M203.3 56.858c-.824-.065-4.866 8.22-17.517 7.873-12.651-.347-22.8-14.513-22.8-14.513s-4.37-7.372-7.685-10.037c-3.316-2.666-3.836-3.017-3.836-3.017s-1.04 1.386 0 3.017c1.04 1.63 3.91 4.682 3.91 4.682s-3.163 1.737-1.737 5.355c1.64 4.161 6.262 3.827 6.262 3.827s9.38 41.555 48.144 21.808L203.3 56.858z" fill="#FFD6AF"/>
                <path d="M266 75.854s-3.796-24.52-17.209-30.554c-13.412-6.033-31.558-5.194-36.561-2.181-5.004 3.013-18.046 16.635-18.046 16.635l11.525 16.1s-2.634 43.339-.552 54.78c0 0 12.82 1.497 18.258-.646 5.438-2.143 23.317-5.146 31.863-1.216l-1.553-54.87L266 75.853z" fill="#19976C"/>
                <path d="M207.706 92.992h23.287a1.354 1.354 0 0 0 1.304-1.72l-7.416-26.465a1.354 1.354 0 0 0-1.304-.989H200.29a1.354 1.354 0 0 0-1.304 1.72l7.416 26.466c.164.584.697.988 1.304.988z" fill="#3E3E3E"/>
                <path d="M250.409 71.075s1.941 21.36-24.783 11.018c0 0 .985-2.877.846-6.24-.14-3.361-2.15-.109-2.43 2.624-.282 2.732-6.557 1.623-10.327.546-3.77-1.076-8.72-.371 0 4.442 8.72 4.813 10.63 2.666 10.63 2.666s11.136 15.593 24.991 12.28c17.042-4.074 14.352-22.927 14.352-22.927l-13.28-4.41z" fill="#FFD6AF"/>
                <g transform="translate(217.136 11)">
                    <mask id="n89q7kb15d" fill="#fff">
                        <use xlink:href="#9cb9wf58pc"/>
                    </mask>
                    <path d="M11.305 23.125c1.14 1.045 3.371 2.322 5.117 1.442 1.3-.655 2.026-2.352 1.98-4.296.602.05 1.392.007 1.955-.49.867-.768.705-2.178.67-3.105-.156-4.279 2.328-4.935 1.72-7.839-.477-2.282-2.269-3.641-2.603-3.896-1.692-1.283-2.837-.869-5.68-1.614C9.68 2.073 9.527.01 6.375 0 6.193 0 1.903.047.447 3.012c-1.184 2.412.2 5.344 1.63 6.884 1.851 1.994 3.18 1.009 5.039 2.681 3.262 2.937.8 7.443 4.189 10.548" fill="#094F48" mask="url(#n89q7kb15d)"/>
                </g>
                <path d="m218.893 26.49.188-.162c.947-.816 1.933-1.765 2.184-2.99 1.068-5.207 5.836-7.098 6.056-2.316.055 1.207 4.46 1.144 3.937 2.411-1.363 3.302-1.393 2.414.53 3.63.218.01.434.057.638.153.986.46 1.335 1.8.78 2.992-.338.724-.931 1.222-1.566 1.403v5.218a4.816 4.816 0 0 0 2.992 4.457l1.76.72s-8.21 5.362-16.542-.525l1.112-.499a5.615 5.615 0 0 0 3.312-4.946l.009-1.02a4.35 4.35 0 0 1-1.604-.134c-2.33-.678-3.105-3.366-2.708-6.706l-.95-.51a.717.717 0 0 1-.128-1.175" fill="#FFD6AF"/>
            </g>
        </g>
        <g transform="translate(57 18)">
            <rect fill="#FFF" width="72" height="72" rx="18.132"/>
            <g fill="#2A2D2D">
                <path d="M10.08 53.562H8.538v-8.1h1.542v2.33a2.391 2.391 0 0 1 3.858 1.89v3.88h-1.543v-3.607a1.157 1.157 0 0 0-2.308-.126l-.007.126v3.607zM17.988 52.123c.474 0 .903-.192 1.213-.504l1.698-.001a3.151 3.151 0 1 1 .169-.544h-4.659c.259.617.868 1.05 1.579 1.05zm0-3.422c-.71 0-1.32.433-1.579 1.05h3.157a1.712 1.712 0 0 0-1.578-1.05zM38.82 47.882a3.15 3.15 0 1 1 0 6.3 3.15 3.15 0 0 1 0-6.3zm0 1.439a1.711 1.711 0 1 0 0 3.422 1.711 1.711 0 0 0 0-3.422zM46.367 47.882a3.15 3.15 0 1 1 0 6.3 3.15 3.15 0 0 1 0-6.3zm0 1.439a1.711 1.711 0 1 0 0 3.422 1.711 1.711 0 0 0 0-3.422zM56.163 45.462v8.827h-1.575l.001-.474a2.694 2.694 0 0 1-1.733.647c-1.653 0-2.993-1.569-2.993-3.504 0-1.936 1.34-3.505 2.993-3.505.646 0 1.244.24 1.733.647v-2.638h1.574zm-3.07 3.592c-.936 0-1.694.852-1.694 1.904 0 1.051.758 1.903 1.693 1.903s1.693-.852 1.693-1.903c0-1.052-.758-1.904-1.693-1.904zM30.946 47.882c.673 0 1.293.248 1.79.667v-.504h1.555v5.036c0 1.696-.806 3.8-3.147 3.8-1.482 0-2.482-.617-2.998-1.853l-.077-.2h1.623c.411.407.88.611 1.404.611.896.002 1.45-.541 1.664-1.63l.013-.082-.154.126a2.748 2.748 0 0 1-1.673.574c-1.632 0-2.955-1.465-2.955-3.273 0-1.807 1.323-3.272 2.955-3.272zm.156 1.472c-.945 0-1.711.806-1.711 1.8s.766 1.8 1.71 1.8c.946 0 1.712-.806 1.712-1.8s-.766-1.8-1.711-1.8zM23.573 48.014l1.378 3.503 1.521-3.503h1.7l-3.514 8.1h-1.7l1.102-2.542-2.188-5.558h1.701zM59.11 48.014l1.38 3.503 1.52-3.503h1.7l-3.514 8.1h-1.7l1.102-2.542-2.188-5.558h1.7z"/>
            </g>
            <g transform="translate(22.005 15.052)">
                <path d="M7 12.243a8 8 0 1 0 16 0h4c0 7.456-6.044 13.5-13.5 13.5S0 19.699 0 12.243z" fill="#1DA578"/>
                <rect fill="#2A2D2D" x="21.274" width="7.2" height="7.2" rx="3.6"/>
                <rect fill="#2A2D2D" x="5.074" width="7.2" height="7.2" rx="3.6"/>
            </g>
        </g>
    </g>
</svg>
