<svg width="588" height="198" viewBox="0 0 588 198" xmlns="http://www.w3.org/2000/svg" xmlns:xlink="http://www.w3.org/1999/xlink">
    <defs>
        <rect id="q7gy8xgj8a" x="0" y="0" width="588" height="198" rx="8"/>
        <path id="fc7l8yvgsc" d="M0 0h41.974v45.579H0z"/>
    </defs>
    <g fill="none" fill-rule="evenodd">
        <g>
            <mask id="iejye75d3b" fill="#fff">
                <use xlink:href="#q7gy8xgj8a"/>
            </mask>
            <use fill="#FBE9CE" xlink:href="#q7gy8xgj8a"/>
            <g mask="url(#iejye75d3b)">
                <path d="M373.564 104.24c-1.514-.119-8.942 15.07-32.188 14.433-23.246-.636-41.896-26.607-41.896-26.607s-8.028-13.515-14.12-18.402c-6.093-4.886-7.049-5.53-7.049-5.53s-1.91 2.54 0 5.53 7.184 8.584 7.184 8.584-5.81 3.185-3.19 9.818c3.014 7.63 11.507 7.016 11.507 7.016s17.234 76.186 88.464 39.983l-8.712-34.825z" fill="#FFD6AF"/>
                <path d="M488.775 139.065s-6.976-44.954-31.622-56.015c-24.645-11.06-57.987-9.522-67.181-3.999-9.194 5.524-33.159 30.497-33.159 30.497l21.177 29.517s-4.84 79.455-1.013 100.432c0 0 23.557 2.743 33.549-1.186 9.99-3.929 42.843-9.433 58.547-2.23l-2.853-100.595 22.555 3.579z" fill="#19976C"/>
                <path d="M381.659 170.486h42.789a2.488 2.488 0 0 0 2.396-3.161l-13.624-48.51a2.488 2.488 0 0 0-2.396-1.815h-42.789a2.488 2.488 0 0 0-2.395 3.162l13.623 48.508a2.488 2.488 0 0 0 2.396 1.816z" fill="#707070"/>
                <path d="M460.126 130.304s3.568 39.16-45.539 20.2c0 0 1.81-5.275 1.555-11.439-.257-6.164-3.949-.2-4.466 4.81-.517 5.009-12.047 2.976-18.975 1.001-6.928-1.974-16.022-.68 0 8.143 16.023 8.824 19.534 4.888 19.534 4.888s20.461 28.586 45.92 22.514c31.315-7.47 26.37-42.033 26.37-42.033l-24.399-8.084z" fill="#FFD6AF"/>
                <g transform="translate(398.987 20.167)">
                    <mask id="xx49kfuuwd" fill="#fff">
                        <use xlink:href="#fc7l8yvgsc"/>
                    </mask>
                    <path d="M20.773 42.396c2.096 1.916 6.195 4.256 9.402 2.644 2.39-1.201 3.723-4.312 3.64-7.876 1.106.09 2.556.012 3.59-.9 1.594-1.406 1.296-3.992 1.233-5.692-.288-7.844 4.276-9.047 3.16-14.37-.878-4.184-4.17-6.677-4.784-7.143-3.108-2.353-5.213-1.593-10.437-2.96C17.787 3.8 17.507.017 11.715 0 11.38 0 3.497.087.822 5.523c-2.176 4.422.366 9.797 2.994 12.62 3.402 3.657 5.845 1.85 9.26 4.917 5.994 5.383 1.468 13.644 7.697 19.337" fill="#094F48" mask="url(#xx49kfuuwd)"/>
                </g>
                <path d="m402.216 48.566.346-.298c1.74-1.497 3.55-3.235 4.012-5.481 1.964-9.548 10.724-13.014 11.128-4.247.101 2.213 8.194 2.098 7.234 4.42-2.504 6.055-2.56 4.426.975 6.657.4.017.797.103 1.172.279 1.812.843 2.454 3.298 1.432 5.485-.62 1.327-1.71 2.241-2.876 2.573v9.565a8.829 8.829 0 0 0 5.497 8.172l3.235 1.32s-15.085 9.83-30.396-.962l2.043-.915a10.293 10.293 0 0 0 6.085-9.068l.017-1.87c-1.03.092-2.026.022-2.948-.246-4.282-1.243-5.704-6.17-4.976-12.295l-1.744-.935a1.313 1.313 0 0 1-.236-2.154" fill="#FFD6AF"/>
            </g>
        </g>
        <g transform="translate(104.737 33)">
            <rect fill="#FFF" width="132.3" height="132" rx="33.317"/>
            <path d="M15.525 99.225V83.68h3.04v4.493a4.71 4.71 0 0 1 7.597 3.723v7.33h-3.04V92.36a2.28 2.28 0 0 0-4.553-.156l-.005.156v6.865h-3.039zm18.159-12.04c3.398 0 6.154 2.764 6.154 6.173 0 .444-.047.878-.136 1.296h-2.935v-.001l-6.167.001a3.344 3.344 0 0 0 3.084 2.057c.927 0 1.766-.38 2.372-.991h3.315a6.156 6.156 0 0 1-5.687 3.81c-3.4 0-6.155-2.763-6.155-6.172 0-3.41 2.756-6.173 6.155-6.173zm0 2.82a3.344 3.344 0 0 0-3.085 2.057h6.169a3.344 3.344 0 0 0-3.084-2.057zm37.988-2.82c3.399 0 6.154 2.764 6.154 6.173 0 3.409-2.755 6.172-6.154 6.172s-6.154-2.763-6.154-6.172c0-3.41 2.755-6.173 6.154-6.173zm0 2.82a3.348 3.348 0 0 0-3.343 3.353 3.348 3.348 0 0 0 3.343 3.353 3.348 3.348 0 0 0 3.343-3.353 3.348 3.348 0 0 0-3.343-3.353zm13.22-2.82c3.399 0 6.154 2.764 6.154 6.173 0 3.409-2.755 6.172-6.154 6.172s-6.154-2.763-6.154-6.172c0-3.41 2.755-6.173 6.154-6.173zm0 2.82a3.348 3.348 0 0 0-3.343 3.353 3.348 3.348 0 0 0 3.343 3.353 3.348 3.348 0 0 0 3.343-3.353 3.348 3.348 0 0 0-3.343-3.353zm19.222-6.325v15.545h-3.039l.001-.835a5.5 5.5 0 0 1-3.344 1.14c-3.189 0-5.774-2.763-5.774-6.172 0-3.41 2.585-6.173 5.774-6.173a5.5 5.5 0 0 1 3.344 1.14V83.68h3.038zm-5.926 6.325c-1.804 0-3.267 1.5-3.267 3.353 0 1.851 1.463 3.353 3.267 3.353 1.804 0 3.267-1.502 3.267-3.353 0-1.852-1.463-3.353-3.267-3.353zm-40.42-2.82c1.314 0 2.525.463 3.496 1.243v-.938h3.038v9.297l-.001-.001.001.084c0 3.097-1.511 6.924-5.876 7.075l-.27.005c-2.948 0-4.918-1.192-5.91-3.576l-.1-.251h3.171c.804.76 1.718 1.14 2.743 1.14 1.788.004 2.88-1.051 3.276-3.166l.004-.027-.198.16a5.546 5.546 0 0 1-3.374 1.148c-3.189 0-5.774-2.73-5.774-6.097 0-3.367 2.585-6.096 5.774-6.096zm.304 2.743a3.348 3.348 0 0 0-3.343 3.353 3.348 3.348 0 0 0 3.343 3.353 3.348 3.348 0 0 0 3.343-3.353 3.348 3.348 0 0 0-3.343-3.353zM43.181 87.49l2.587 6.723 2.853-6.723h3.19l-6.594 15.546h-3.191l2.069-4.878L39.99 87.49h3.19zm65.188 0 2.587 6.723 2.853-6.723H117l-6.595 15.546h-3.19l2.068-4.878-4.105-10.668h3.191z" fill="#2A2D2D"/>
            <path d="M53.095 50.118c0 8.08 6.55 14.63 14.63 14.63 8.08 0 14.63-6.55 14.63-14.63v-.05h7.316v.083c0 13.635-11.054 24.689-24.689 24.689S40.294 63.786 40.294 50.15v-.082h12.801z" fill="#1DA578"/>
            <path d="M86.013 28.05a6.4 6.4 0 0 1 6.4 6.4v.044a6.4 6.4 0 1 1-12.8 0v-.043a6.4 6.4 0 0 1 6.4-6.401zm-29.718 0a6.4 6.4 0 0 1 6.401 6.4v.044a6.4 6.4 0 0 1-12.801 0v-.043a6.4 6.4 0 0 1 6.4-6.401z" fill="#2A2D2D"/>
        </g>
    </g>
</svg>
