<svg width="588" height="198" viewBox="0 0 588 198" xmlns="http://www.w3.org/2000/svg" xmlns:xlink="http://www.w3.org/1999/xlink">
    <defs>
        <path id="e19x57qywc" d="M0 0h137.813v112.368H0z"/>
        <path d="m36.947.05-.582.16L1.658 9.744l-.582.16C.258 10.13-.2 11.023.085 11.842l2.588 7.445 2.243-.616 6.881 18.864a1.446 1.446 0 0 0 1.737.915l26.55-7.291c.722-.2 1.18-.928 1.056-1.685L37.9 9.612l2.241-.618-1.39-7.774A1.463 1.463 0 0 0 37.326 0a1.44 1.44 0 0 0-.378.05" id="6fiu3nhtue"/>
        <path d="M.051 1.502 0 9.54l2.265.21.167 20.476c.009.78.57 1.427 1.3 1.495l26.798 2.496c.728.068 1.388-.464 1.52-1.231l3.506-20.134 2.264.212 1.262-7.923c.139-.872-.45-1.684-1.278-1.761l-.588-.055L2.184.061 1.596.006A1.197 1.197 0 0 0 1.469 0C.696 0 .055.664.051 1.502" id="qx3h83ggng"/>
        <path d="M6.281.033C2.257.421.557 10.913.012 15.408c-.062.51.119 1.02.476 1.351.279.26.637.38.992.346.098-.009.197-.03.295-.064 3.911-1.37 12.974-5.043 12.621-9.488C14.056 3.253 10.777 0 6.941 0c-.218 0-.439.01-.66.033m-.788 6.744c1.535-.15 2.891 1.108 3.034 2.668-.231.694-2.326 1.997-4.836 3.096.54-2.92 1.318-5.415 1.802-5.764" id="ry89x51eqi"/>
        <path d="M7.266.011C2.896.385-.353 4.17.031 8.445c.373 4.181 10.47 5.948 14.794 6.515a1.4 1.4 0 0 0 .317.006c.379-.031.733-.21.982-.5.32-.37.423-.876.271-1.337C15.101 9.139 11.676 0 7.509 0c-.08 0-.162.004-.243.011m-.748 9.252c-.142-1.595 1.068-3.004 2.57-3.154.666.242 1.92 2.418 2.976 5.025-2.809-.56-5.21-1.369-5.546-1.871" id="vqrmkf6s7k"/>
        <path d="m0 2.966 5.273 26.953c.135.696.808 1.181 1.552 1.12l27.353-2.27c.744-.063 1.317-.648 1.325-1.358L35.758 0 0 2.966z" id="id6pjnv3gm"/>
        <path d="M37.506.006 1.297 3.319C.472 3.397-.118 4.194.02 5.05l1.262 7.784 37.82-3.46-.05-7.897C39.047.653 38.406 0 37.634 0c-.042 0-.085.001-.128.006" id="s9mvygxsdo"/>
        <path id="7le2pi7uhq" d="M0 2.764.887 7.01l34.658-2.691L35.587 0z"/>
        <path id="xeaw3gyclr" d="m0 .765 2.629 30.249 8.69-.765L8.69 0z"/>
        <rect id="8jhq80q0ba" x="0" y="0" width="588" height="198" rx="8"/>
    </defs>
    <g fill="none" fill-rule="evenodd">
        <g>
            <mask id="j3y412f7wb" fill="#fff">
                <use xlink:href="#8jhq80q0ba"/>
            </mask>
            <use fill="#FFF8D5" xlink:href="#8jhq80q0ba"/>
            <g mask="url(#j3y412f7wb)">
                <path d="M289.08 163.652s15.408 105.407 12.125 175.76l-4.807.48a52.16 52.16 0 0 1-7.78.191l-4.558-.228s-18.375-106.87-27.548-124.618c0 0-24.95 95.038-25.912 120.786 0 0-11.09 1.112-15.51-.474-2.375-24.85-3.06-50.57-3.18-66.716-.34-46.214 4.09-67.206 6.517-77.164a236.44 236.44 0 0 1 6.368-21.602l5.834-16.595 58.451 10.18z" fill="#094F48"/>
                <g transform="translate(194.001 73.633)">
                    <mask id="6e9bj73cld" fill="#fff">
                        <use xlink:href="#e19x57qywc"/>
                    </mask>
                    <path d="M93.837 2.288C83.646 1.142 61.892-.913 46.93.452 42.413.864 35.893 3.615 32.459 6.57 22.34 15.28 3.25 34.456.062 57.468c-.466 3.358 1.743 6.51 5.062 7.243L22.76 68.61s-7.033 27.636-6.466 32.408c.566 4.773 15.136 12.894 33.357 6.233 14.209-5.195 34.319-9.326 47.087-4.845.12.043 1.343 9.828 1.469 9.846 4.099.594 8.23-.997 8.133-6.743l-1.944-29.842 23.373-3.079 2.088-.693c6.318-2.098 9.581-9.047 7.147-15.228-5.492-13.939-13.776-36.504-29.121-48.967-3.283-2.665-9.841-4.938-14.047-5.411" fill="#19976C" mask="url(#6e9bj73cld)"/>
                </g>
                <path d="M277.214 167.76h36.525a3.45 3.45 0 0 0 3.35-2.613l12.638-50.816c.54-2.171-1.107-4.271-3.35-4.271H289.85a3.45 3.45 0 0 0-3.35 2.614l-12.637 50.816c-.54 2.17 1.107 4.27 3.35 4.27" fill="#707070"/>
                <path d="M289.851 111.003c-1.154 0-2.154.78-2.432 1.898l-12.637 50.816c-.187.75-.02 1.532.458 2.142.478.61 1.198.96 1.974.96h36.525a2.5 2.5 0 0 0 2.433-1.899l12.637-50.816a2.477 2.477 0 0 0-.46-2.142 2.492 2.492 0 0 0-1.972-.959H289.85zm23.888 57.701h-36.525a4.375 4.375 0 0 1-3.463-1.683 4.35 4.35 0 0 1-.805-3.758l12.637-50.816a4.388 4.388 0 0 1 4.268-3.33h36.526c1.361 0 2.624.613 3.463 1.684a4.349 4.349 0 0 1 .805 3.757l-12.637 50.817a4.387 4.387 0 0 1-4.269 3.33z"/>
                <path d="m323.787 136.033-1.228 5.128-4.415-1.466a34.451 34.451 0 0 1-6.962-3.212l-2.533-1.532c-1.893-1.144-4.347-.25-5.082 1.831-1.563 4.422-1.254 11.827 14.65 16.48 8.78 2.568 11.292-8.647 10.156-14.878-.29-1.593-1.075-2.61-1.88-3.254a1.7 1.7 0 0 0-2.706.903M239.316 106.616a27.984 27.984 0 0 1-6.178 4.756c-7.668 4.354-25.986 14.897-30.542 18.78-5.806 4.947-8.584 6.791-3.918 19.517 7.605 20.743 43.07-32.507 43.07-32.507s10.416 1.879 12.755-7.224c0 0 5.428 1.016 7.69.038 1.737-.75 1.661-3.687-.655-4.01l-14.983-2.785a6.337 6.337 0 0 0-5.64 1.802l-1.599 1.633z" fill="#FFD6AF"/>
                <path d="M265.263 61.946c-2.106 1.714-6.145 3.723-9.119 2.012-2.215-1.275-3.318-4.313-3.045-7.706-1.06.025-2.44-.127-3.378-1.054-1.444-1.426-1.02-3.875-.867-5.492.702-7.463-3.59-8.857-2.234-13.872 1.066-3.941 4.343-6.139 4.956-6.55 3.093-2.075 5.061-1.237 10.121-2.257 8.517-1.715 8.99-5.306 14.519-5.01.32.018 7.838.528 10.095 5.856 1.837 4.334-.882 9.32-3.543 11.87-3.447 3.3-5.68 1.446-9.106 4.185-6.015 4.807-2.144 12.928-8.4 18.018" fill="#094F48"/>
                <path d="m282.77 49.553-.315-.303c-1.578-1.521-3.213-3.276-3.531-5.442-1.354-9.21-9.527-12.99-10.39-4.653-.217 2.104-7.935 1.557-7.145 3.823 2.06 5.908 2.202 4.358-1.292 6.293a2.929 2.929 0 0 0-1.135.202c-1.774.706-2.52 3.012-1.665 5.153.52 1.299 1.51 2.228 2.605 2.608l-.52 9.12a8.434 8.434 0 0 1-5.692 7.493l-3.16 1.084s13.864 10.189 29.065.73l-1.9-.984a9.825 9.825 0 0 1-5.315-8.975l.086-1.784c.978.143 1.933.13 2.826-.074 4.156-.955 5.781-5.574 5.42-11.452l1.714-.798c.8-.372.979-1.429.344-2.04" fill="#FFD6AF"/>
            </g>
        </g>
        <path d="M421.164 145.53c-1.647 2.984-3.816 5.462-6.446 7.364-2.994 2.166-6.705 3.675-11.029 4.487a3.116 3.116 0 0 1-1.006.021l-.037-.006a3.106 3.106 0 0 1-.985-.336c-3.867-2.106-6.934-4.688-9.115-7.673-1.915-2.622-3.211-5.648-3.854-8.994-1.169-6.086-.046-12.408.856-17.488l.014-.078c.086-.418.169-.858.253-1.345.414-2.39 2.597-4.077 4.968-3.838 4.945.497 8.994-.532 12.743-3.238l.033-.022a2.735 2.735 0 0 1 2.007-.44c.65.111 1.258.46 1.7 1.027l.023.03c2.73 3.733 6.263 5.963 11.12 7.018 2.33.506 3.884 2.784 3.54 5.186-.072.493-.13.936-.176 1.357l-.005.033c-.713 5.12-1.602 11.492-4.604 16.934z" fill="#36B38A" fill-rule="nonzero"/>
        <g transform="rotate(9 -604.537 2582.93)" fill="#FFF">
            <path d="m8.287 15.994 12.868-12.85-2.732-2.64-12.83 12.799z"/>
            <ellipse cx="19.71" cy="1.904" rx="1.907" ry="1.904"/>
            <path d="M.55 10.854 5.71 16l2.67-2.707-5.198-5.19z"/>
            <ellipse cx="1.907" cy="9.519" rx="1.907" ry="1.904"/>
            <ellipse cx="6.994" cy="14.596" rx="1.907" ry="1.904"/>
        </g>
        <path d="m153.593 114.9 4.2 18.187c.435 1.887-.69 3.751-2.518 4.174l-30.99 7.154c-1.828.422-3.655-.76-4.091-2.647l-4.199-18.189a3.595 3.595 0 0 1 .396-2.606l.022-.005 19.456 6.141c.257.109.52.143.762.088.243-.056.464-.203.648-.413l14.794-14.048.022-.005a3.595 3.595 0 0 1 1.498 2.168z" fill="#FCE455"/>
        <path d="m153.593 114.9 4.2 18.187c.435 1.887-.69 3.751-2.518 4.174l-15.494 3.577-3.15-13.641c.243-.056.464-.203.648-.413l14.794-14.048.022-.005a3.595 3.595 0 0 1 1.498 2.168z" fill="#FCE455"/>
        <path d="m157.329 135.501-.005-.023-20.506-10.688a1.246 1.246 0 0 0-.762-.087 1.245 1.245 0 0 0-.648.413l-13.744 18.595.005.023c.737.476 1.663.67 2.566.461l30.99-7.155a3.351 3.351 0 0 0 2.104-1.539z" fill="#FACE34"/>
        <path d="m157.329 135.501-.005-.023-20.506-10.688a1.246 1.246 0 0 0-.762-.087l3.674 15.915 15.495-3.578a3.351 3.351 0 0 0 2.104-1.539z" fill="#FACE34"/>
        <path d="m152.068 112.713.005.023-13.745 18.595c-.183.21-.405.357-.647.413a1.245 1.245 0 0 1-.763-.088l-20.505-10.688-.005-.022a3.351 3.351 0 0 1 2.104-1.54l30.99-7.154a3.351 3.351 0 0 1 2.566.46z" fill="#F49F28"/>
        <path d="m152.068 112.713.005.023-13.745 18.595c-.183.21-.405.357-.647.413l-3.674-15.915 15.495-3.577a3.351 3.351 0 0 1 2.566.46z" fill="#F49F28"/>
        <g>
            <g transform="rotate(-9 311.634 -939.594)">
                <mask id="simp0gf15f" fill="#fff">
                    <use xlink:href="#6fiu3nhtue"/>
                </mask>
                <path d="m36.947.05-.582.16L1.658 9.744l-.582.16C.258 10.13-.2 11.023.085 11.842l2.588 7.445 2.243-.616 6.881 18.864a1.446 1.446 0 0 0 1.737.915l26.55-7.291c.722-.2 1.18-.928 1.056-1.685L37.9 9.612l2.241-.618-1.39-7.774A1.463 1.463 0 0 0 37.326 0a1.44 1.44 0 0 0-.378.05" mask="url(#simp0gf15f)"/>
            </g>
            <g transform="rotate(-9 325.843 -1019.646)">
                <mask id="2v9ptuc0eh" fill="#fff">
                    <use xlink:href="#qx3h83ggng"/>
                </mask>
                <path d="M.051 1.502 0 9.54l2.265.21.167 20.476c.009.78.57 1.427 1.3 1.495l26.798 2.496c.728.068 1.388-.464 1.52-1.231l3.506-20.134 2.264.212 1.262-7.923c.139-.872-.45-1.684-1.278-1.761l-.588-.055L2.184.061 1.596.006A1.197 1.197 0 0 0 1.469 0C.696 0 .055.664.051 1.502" mask="url(#2v9ptuc0eh)"/>
            </g>
            <g transform="rotate(-9 217.754 -1090.074)">
                <mask id="w8zvped5mj" fill="#fff">
                    <use xlink:href="#ry89x51eqi"/>
                </mask>
                <path d="M6.281.033C2.257.421.557 10.913.012 15.408c-.062.51.119 1.02.476 1.351.279.26.637.38.992.346.098-.009.197-.03.295-.064 3.911-1.37 12.974-5.043 12.621-9.488C14.056 3.253 10.777 0 6.941 0c-.218 0-.439.01-.66.033m-.788 6.744c1.535-.15 2.891 1.108 3.034 2.668-.231.694-2.326 1.997-4.836 3.096.54-2.92 1.318-5.415 1.802-5.764" fill="#36B38A" mask="url(#w8zvped5mj)"/>
            </g>
            <g transform="rotate(-9 237.517 -1012.695)">
                <mask id="7w3oq7pmll" fill="#fff">
                    <use xlink:href="#vqrmkf6s7k"/>
                </mask>
                <path d="M7.266.011C2.896.385-.353 4.17.031 8.445c.373 4.181 10.47 5.948 14.794 6.515a1.4 1.4 0 0 0 .317.006c.379-.031.733-.21.982-.5.32-.37.423-.876.271-1.337C15.101 9.139 11.676 0 7.509 0c-.08 0-.162.004-.243.011m-.748 9.252c-.142-1.595 1.068-3.004 2.57-3.154.666.242 1.92 2.418 2.976 5.025-2.809-.56-5.21-1.369-5.546-1.871" fill="#36B38A" mask="url(#7w3oq7pmll)"/>
            </g>
            <path d="M172.633 38.059c-.71-3.07.696-6.097 3.142-6.762 2.445-.665 5.001 1.282 5.71 4.352l-8.852 2.41z" fill="#36B38A"/>
            <g transform="rotate(-9 331.24 -995.313)">
                <mask id="1kajmgbvyn" fill="#fff">
                    <use xlink:href="#id6pjnv3gm"/>
                </mask>
                <path d="m0 2.966 5.273 26.953c.135.696.808 1.181 1.552 1.12l27.353-2.27c.744-.063 1.317-.648 1.325-1.358L35.758 0 0 2.966z" fill="#FDE975" mask="url(#1kajmgbvyn)"/>
            </g>
            <g transform="rotate(-9 321.62 -986.425)">
                <mask id="kt8c8jdfcp" fill="#fff">
                    <use xlink:href="#s9mvygxsdo"/>
                </mask>
                <path d="M37.506.006 1.297 3.319C.472 3.397-.118 4.194.02 5.05l1.262 7.784 37.82-3.46-.05-7.897C39.047.653 38.406 0 37.634 0c-.042 0-.085.001-.128.006" fill="#FACE34" mask="url(#kt8c8jdfcp)"/>
            </g>
            <path fill="#F55142" d="m181.249 35.611-8.463 2.116 7.328 29.465 8.464-2.116z"/>
            <g transform="rotate(-9 321.212 -1078.483)">
                <mask id="woolfiru4s" fill="#fff">
                    <use xlink:href="#xeaw3gyclr"/>
                </mask>
                <path fill="#36B38A" mask="url(#woolfiru4s)" d="m0 .765 2.629 30.249 8.69-.765L8.69 0z"/>
            </g>
        </g>
        <g>
            <path d="M404.403 18.333h-13.598a9.599 9.599 0 0 0-6.824 2.82L360.14 44.941a6.223 6.223 0 0 0 0 8.81l14.121 14.091a6.257 6.257 0 0 0 8.83 0l23.846-23.789a9.68 9.68 0 0 0 2.825-6.806V23.681c0-2.953-2.399-5.348-5.359-5.348zm-6.431 17.112a5.353 5.353 0 0 1-5.36-5.347c0-2.954 2.4-5.348 5.36-5.348 2.96 0 5.36 2.394 5.36 5.347 0 2.954-2.4 5.348-5.36 5.348z" fill="#E88480"/>
            <g fill="#FFFCE7" fill-rule="nonzero">
                <path d="M380.08 57.82c-.607 0-1.1-.49-1.1-1.096v-17.55c0-.606.493-1.097 1.1-1.097.607 0 1.1.491 1.1 1.097v17.55c0 .605-.493 1.097-1.1 1.097zM373.484 49.046a3.294 3.294 0 0 1-3.298-3.291 3.294 3.294 0 0 1 3.298-3.29 3.294 3.294 0 0 1 3.298 3.29 3.294 3.294 0 0 1-3.298 3.29zm0-4.388a1.098 1.098 0 1 0 0 2.194 1.098 1.098 0 1 0 0-2.194zM386.676 53.433a3.294 3.294 0 0 1-3.298-3.29 3.294 3.294 0 0 1 3.298-3.291 3.294 3.294 0 0 1 3.298 3.29 3.294 3.294 0 0 1-3.298 3.291zm0-4.387a1.098 1.098 0 1 0 0 2.194c.607 0 1.1-.492 1.1-1.097 0-.606-.493-1.097-1.1-1.097z"/>
            </g>
        </g>
    </g>
</svg>
