<svg width="24" height="24" viewBox="0 0 24 24" xmlns="http://www.w3.org/2000/svg">
    <g fill="none" fill-rule="evenodd">
        <circle fill="#FFF" fill-rule="nonzero" cx="12" cy="12" r="12"/>
        <path d="m9.369 11.274-.204.135a.369.369 0 0 0-.104.51l.024.037c.078.119.24.135.347.164.092.004.182.02.27.047a.72.72 0 0 1 .377.3c.135.231.047.518.015.653-.29 1.185-.585 2.369-.868 3.557-.237.99.323 1.698 1.35 1.698 1.138 0 2.16-.375 3.094-1.01a.764.764 0 0 0 .17-.162c.183-.241.113-.426-.183-.494-.086-.02-.175-.035-.26-.058-.563-.152-.709-.405-.571-.966.293-1.195.592-2.389.879-3.585.192-.792-.174-1.443-.906-1.62a2.673 2.673 0 0 0-.608-.064c-.252.01-.504.037-.753.08a6.566 6.566 0 0 0-1.205.356c-.151.062-.343.144-.56.251l-.304.171zm3.526-6.399a1.89 1.89 0 0 0-1.933 1.908 1.924 1.924 0 0 0 3.847.035 1.915 1.915 0 0 0-1.914-1.942z" fill="#1DA578"/>
    </g>
</svg>
