<svg width="160" height="160" viewBox="0 0 160 160" xmlns="http://www.w3.org/2000/svg">
    <defs>
        <linearGradient x1="0%" y1="100%" x2="74.201%" y2="30.001%" id="kp67qqhh7a">
            <stop stop-color="#FFF6C3" offset="0%"/>
            <stop stop-color="#B3E0E0" offset="100%"/>
        </linearGradient>
    </defs>
    <g fill="none" fill-rule="evenodd">
        <circle fill="url(#kp67qqhh7a)" cx="80" cy="80" r="80"/>
        <g transform="translate(57 37)">
            <rect fill="#29A8A5" width="46" height="87" rx="4"/>
            <rect fill="#096B65" x="1" y="8" width="44" height="69" rx="2"/>
            <rect fill="#088B86" fill-rule="nonzero" x="18" y="4" width="10" height="2" rx="1"/>
            <rect fill="#088B86" fill-rule="nonzero" x="20" y="79" width="6" height="6" rx="3"/>
        </g>
        <g transform="translate(67 62)">
            <rect fill="#FFF" fill-rule="nonzero" y="2" width="50" height="28" rx="8"/>
            <path d="M19 28.022v5.187a2 2 0 0 0 3.406 1.422l5.187-5.13a2 2 0 0 0-1.384-3.421l-5.187-.058a2 2 0 0 0-2.022 2z" fill="#FFF" fill-rule="nonzero"/>
            <g fill="#29A8A5" fill-rule="nonzero">
                <path d="M8.093 20.562h3.918c.653 0 1.12-.105 1.4-.314.28-.209.42-.571.42-1.086 0-.354-.075-.64-.222-.857-.148-.217-.373-.414-.677-.591-.303-.177-.773-.403-1.41-.676-.762-.322-1.384-.644-1.866-.966a3.751 3.751 0 0 1-1.19-1.315c-.31-.555-.466-1.26-.466-2.112 0-1.448.424-2.418 1.271-2.909.847-.49 2.002-.736 3.463-.736h3.708l-.49 2.438h-2.821c-.793 0-1.369.068-1.726.205-.358.137-.537.463-.537.978 0 .434.137.76.409.977.272.218.734.463 1.387.736.902.387 1.625.745 2.169 1.075.544.33.991.784 1.341 1.363.35.58.525 1.32.525 2.221 0 1.32-.381 2.317-1.143 2.993-.762.676-1.858 1.014-3.288 1.014H8.093v-2.438zM18.703 9h2.776L25 17.134 28.521 9h2.776v14h-2.799v-8.014l-2.425 5.286h-2.146l-2.425-5.382V23h-2.799zM33.395 20.562h3.918c.652 0 1.119-.105 1.399-.314.28-.209.42-.571.42-1.086 0-.354-.074-.64-.222-.857-.148-.217-.373-.414-.676-.591-.303-.177-.774-.403-1.411-.676-.762-.322-1.384-.644-1.866-.966a3.751 3.751 0 0 1-1.19-1.315c-.31-.555-.466-1.26-.466-2.112 0-1.448.424-2.418 1.271-2.909.848-.49 2.002-.736 3.463-.736h3.708l-.49 2.438h-2.821c-.793 0-1.368.068-1.726.205-.357.137-.536.463-.536.978 0 .434.136.76.408.977.272.218.735.463 1.387.736.902.387 1.625.745 2.17 1.075.543.33.99.784 1.34 1.363.35.58.525 1.32.525 2.221 0 1.32-.38 2.317-1.143 2.993C40.095 22.662 39 23 37.57 23h-4.174v-2.438z"/>
            </g>
            <circle fill="#F46A60" cx="47.5" cy="4.5" r="4.5"/>
        </g>
        <g transform="translate(4 4)">
            <circle fill="#F5B964" cx="20" cy="20" r="20"/>
            <path d="M22.965 29h-3.621v-9.914c0-.203.002-.447.006-.732.004-.286.011-.583.023-.891l.035-.932c.012-.312.022-.597.03-.855a3.58 3.58 0 0 1-.2.21 26.37 26.37 0 0 1-.68.657 6.163 6.163 0 0 1-.363.316l-1.968 1.582-1.758-2.18 5.52-4.394h2.976V29z" fill="#FFF" fill-rule="nonzero"/>
        </g>
    </g>
</svg>
