<svg width="40" height="40" viewBox="0 0 40 40" xmlns="http://www.w3.org/2000/svg">
    <g fill="none" fill-rule="evenodd">
        <path d="M28.596 2c1.404.011 5.487.216 7.406 2.135 2.662 2.662 2.666 10.005 0 12.671-1.068 1.068-2.796 1.584-4.058 1.828-1.071.207-2.265.31-3.476.306-.46-.002-.923-.019-1.382-.052l-4.97 2.982V17.66a4.995 4.995 0 0 1-1.182-.853c-2.662-2.662-2.665-10.005 0-12.67C22.915 2.153 27.202 2 28.468 2z" fill="#06774F" fill-rule="nonzero"/>
        <path d="M24.233 9.412V7.294h8.47v2.118h-8.47zm0 4.235V11.53h8.47v2.118h-8.47z" fill="#FFF"/>
        <path d="M10.925 27.936c-2.15-2.21-4.104-4.39-5.633-6.454-2.4-3.24-3.75-6.192-3.15-8.505.143-.55.44-1.06.854-1.474l.24-.24.4-.4.5-.5 1.06-1.06.556-.557.239-.238 3.493 2.496 2.496 3.494-1.223 1.222a1.02 1.02 0 0 0-.296.79c.068 1.012 1.039 2.579 2.21 4.118a47.326 47.326 0 0 0 3.43 3.973c1.592 1.65 5.068 4.74 7.342 4.892.292.02.58-.087.79-.297l.288-.288.343-.343.093-.093.156-.156.169-.168.075-.076.068-.068.01-.01a.16.16 0 0 1 .004-.004l.016-.016 3.494 2.496 2.495 3.494-2.251 2.251-.743.744a3.246 3.246 0 0 1-1.474.853c-2.464.64-5.104-.385-8.161-2.652-2.471-1.831-5.202-4.491-7.35-6.672z" fill="#36B38A"/>
        <path d="M9.789 4.71c-.602.6-2.922 2.922-3.798 3.798l5.989 5.99 3.798-3.799-5.99-5.99zM29.253 24.176l-3.798 3.798 5.99 5.99c.41-.412 3.39-3.392 3.797-3.798l-5.989-5.99z" fill="#06774F" fill-rule="nonzero"/>
    </g>
</svg>
