<svg width="160" height="160" viewBox="0 0 160 160" xmlns="http://www.w3.org/2000/svg">
    <defs>
        <linearGradient x1="0%" y1="100%" x2="100%" y2="0%" id="vss537pg1a">
            <stop stop-color="#F9F2E4" offset="0%"/>
            <stop stop-color="#CCE9DC" offset="100%"/>
        </linearGradient>
    </defs>
    <g fill="none" fill-rule="evenodd">
        <g>
            <rect fill="url(#vss537pg1a)" width="160" height="160" rx="24"/>
            <path d="M40 12h80a8 8 0 0 1 8 8v140H32V20a8 8 0 0 1 8-8z" fill="#29A8A5"/>
            <path d="M38 25h84a4 4 0 0 1 4 4v131H34V29a4 4 0 0 1 4-4z" fill="#E1F2F3"/>
            <rect fill="#088B86" fill-rule="nonzero" x="71" y="18" width="18" height="3" rx="1.5"/>
            <g fill="#094F48" fill-rule="nonzero">
                <path d="M47.384 118v-8.768h1.76l.32 1.376h.128c.181-.437.496-.803.944-1.096.448-.293 1.03-.44 1.744-.44.683 0 1.248.12 1.696.36.448.24.787.603 1.016 1.088.23.485.344 1.096.344 1.832V118h-2.4v-5.168c0-.597-.12-1.027-.36-1.288-.24-.261-.59-.392-1.048-.392-.373 0-.69.101-.952.304-.261.203-.459.499-.592.888-.133.39-.2.877-.2 1.464V118h-2.4zM53.336 108.368c-.608 0-1.093-.139-1.456-.416-.363-.277-.544-.667-.544-1.168 0-.501.181-.89.544-1.168.363-.277.848-.416 1.456-.416s1.096.139 1.464.416c.368.277.552.667.552 1.168 0 .501-.184.89-.552 1.168-.368.277-.856.416-1.464.416zm0-.928c.235 0 .416-.059.544-.176a.619.619 0 0 0 .192-.48.619.619 0 0 0-.192-.48c-.128-.117-.31-.176-.544-.176-.224 0-.4.059-.528.176a.619.619 0 0 0-.192.48c0 .203.064.363.192.48.128.117.304.176.528.176zM59.896 118v-5.792c0-.448-.104-.773-.312-.976-.208-.203-.547-.304-1.016-.304-.352 0-.675.048-.968.144a4.974 4.974 0 0 0-.824.352v-1.92a6.251 6.251 0 0 1 2.496-.48c.587 0 1.107.085 1.56.256.453.17.81.456 1.072.856.261.4.392.947.392 1.64V118h-2.4zM67.544 118.208a8.86 8.86 0 0 1-1.896-.208 6.753 6.753 0 0 1-1.688-.592l.672-1.904c.213.117.47.24.768.368.299.128.624.235.976.32.352.085.71.128 1.072.128.427 0 .75-.061.968-.184a.608.608 0 0 0 .328-.568.592.592 0 0 0-.216-.472c-.144-.123-.355-.24-.632-.352a17.295 17.295 0 0 0-.992-.36 8.94 8.94 0 0 1-1.456-.656 2.673 2.673 0 0 1-.936-.864c-.219-.341-.328-.768-.328-1.28 0-.587.15-1.067.448-1.44.299-.373.72-.653 1.264-.84.544-.187 1.179-.28 1.904-.28.597 0 1.136.048 1.616.144.48.096.853.219 1.12.368v1.888a4.988 4.988 0 0 0-.712-.256 8.803 8.803 0 0 0-.944-.216 5.63 5.63 0 0 0-.968-.088c-.437 0-.768.059-.992.176-.224.117-.336.283-.336.496 0 .17.077.315.232.432.155.117.381.227.68.328.299.101.656.227 1.072.376a7.272 7.272 0 0 1 1.408.64c.384.235.675.523.872.864.197.341.296.763.296 1.264 0 .48-.11.93-.328 1.352-.219.421-.59.763-1.112 1.024-.523.261-1.243.392-2.16.392zM75.144 118v-5.792c0-.448-.104-.773-.312-.976-.208-.203-.547-.304-1.016-.304-.352 0-.675.048-.968.144a4.974 4.974 0 0 0-.824.352v-1.92a6.251 6.251 0 0 1 2.496-.48c.587 0 1.107.085 1.56.256.453.17.81.456 1.072.856.261.4.392.947.392 1.64V118h-2.4zM83.496 118.208c-.96 0-1.728-.115-2.304-.344-.576-.23-.995-.552-1.256-.968-.261-.416-.392-.896-.392-1.44 0-.47.072-.848.216-1.136.144-.288.33-.51.56-.664.23-.155.461-.259.696-.312v-.096a3.104 3.104 0 0 1-.704-.352 1.74 1.74 0 0 1-.552-.608c-.144-.256-.216-.576-.216-.96 0-.395.093-.763.28-1.104.187-.341.488-.616.904-.824.416-.208.965-.312 1.648-.312.33 0 .65.024.96.072.31.048.55.115.72.2l-.368 1.616a5.963 5.963 0 0 0-.344-.072 2.411 2.411 0 0 0-.44-.04c-.33 0-.576.077-.736.232a.797.797 0 0 0-.24.6c0 .256.07.453.208.592.139.139.317.235.536.288.219.053.445.08.68.08h.336v1.488h-.336c-.459 0-.803.08-1.032.24-.23.16-.344.421-.344.784 0 .192.045.381.136.568.09.187.248.341.472.464.224.123.544.184.96.184.395 0 .704-.059.928-.176.224-.117.384-.275.48-.472.096-.197.144-.419.144-.664v-5.84h2.4v5.76c0 1.099-.323 1.91-.968 2.432-.645.523-1.656.784-3.032.784zM89.656 118v-2.672c0-.672.133-1.19.4-1.552.267-.363.645-.619 1.136-.768l.016-.064-1.712-.624v-.416c0-.523.155-1.003.464-1.44.31-.437.765-.787 1.368-1.048.603-.261 1.336-.392 2.2-.392.81 0 1.51.125 2.096.376.587.25 1.043.624 1.368 1.12.325.496.488 1.123.488 1.88v5.6h-2.4v-5.456c0-.533-.141-.933-.424-1.2-.283-.267-.68-.4-1.192-.4-.49 0-.859.104-1.104.312a1.067 1.067 0 0 0-.4.76l1.424.656-.176 1.04c-.384.021-.672.16-.864.416-.192.256-.288.603-.288 1.04V118h-2.4zM102.04 118v-5.792c0-.448-.104-.773-.312-.976-.208-.203-.547-.304-1.016-.304-.352 0-.675.048-.968.144a4.974 4.974 0 0 0-.824.352v-1.92a6.251 6.251 0 0 1 2.496-.48c.587 0 1.107.085 1.56.256.453.17.81.456 1.072.856.261.4.392.947.392 1.64V118h-2.4zM109.688 118.208a8.86 8.86 0 0 1-1.896-.208 6.753 6.753 0 0 1-1.688-.592l.672-1.904c.213.117.47.24.768.368.299.128.624.235.976.32.352.085.71.128 1.072.128.427 0 .75-.061.968-.184a.608.608 0 0 0 .328-.568.592.592 0 0 0-.216-.472c-.144-.123-.355-.24-.632-.352a17.295 17.295 0 0 0-.992-.36 8.94 8.94 0 0 1-1.456-.656 2.673 2.673 0 0 1-.936-.864c-.219-.341-.328-.768-.328-1.28 0-.587.15-1.067.448-1.44.299-.373.72-.653 1.264-.84.544-.187 1.179-.28 1.904-.28.597 0 1.136.048 1.616.144.48.096.853.219 1.12.368v1.888a4.988 4.988 0 0 0-.712-.256 8.803 8.803 0 0 0-.944-.216 5.63 5.63 0 0 0-.968-.088c-.437 0-.768.059-.992.176-.224.117-.336.283-.336.496 0 .17.077.315.232.432.155.117.381.227.68.328.299.101.656.227 1.072.376a7.272 7.272 0 0 1 1.408.64c.384.235.675.523.872.864.197.341.296.763.296 1.264 0 .48-.11.93-.328 1.352-.219.421-.59.763-1.112 1.024-.523.261-1.243.392-2.16.392zM63.281 136v-5.696c0-.512-.138-.88-.416-1.104-.277-.224-.704-.336-1.28-.336-.554 0-1.096.083-1.624.248-.528.165-.984.36-1.368.584v-1.984c.31-.15.747-.301 1.312-.456.566-.155 1.216-.232 1.952-.232.566 0 1.075.07 1.528.208.454.139.782.41.984.816.448.139.771.408.968.808.198.4.296.915.296 1.544v5.6h-2.352zm-2.624.16c-.917 0-1.624-.219-2.12-.656-.496-.437-.744-1.05-.744-1.84 0-.853.307-1.536.92-2.048.614-.512 1.582-.821 2.904-.928l2.048-.16v1.728l-1.776.176c-.64.064-1.085.192-1.336.384a.919.919 0 0 0-.376.768c0 .32.104.56.312.72.208.16.478.24.808.24.128 0 .256-.013.384-.04.128-.027.246-.056.352-.088l.208 1.504a3.744 3.744 0 0 1-.72.176 5.677 5.677 0 0 1-.864.064zm3.664-7.184-1.312-1.104c.374-.128.667-.29.88-.488.214-.197.326-.44.336-.728h2.096c0 .33-.066.648-.2.952a2.132 2.132 0 0 1-.64.808c-.293.235-.68.421-1.16.56zM64.001 126.368c-.608 0-1.093-.139-1.456-.416-.362-.277-.544-.667-.544-1.168 0-.501.182-.89.544-1.168.363-.277.848-.416 1.456-.416s1.096.139 1.464.416c.368.277.552.667.552 1.168 0 .501-.184.89-.552 1.168-.368.277-.856.416-1.464.416zm0-.928c.235 0 .416-.059.544-.176a.619.619 0 0 0 .192-.48.619.619 0 0 0-.192-.48c-.128-.117-.309-.176-.544-.176-.224 0-.4.059-.528.176a.619.619 0 0 0-.192.48c0 .203.064.363.192.48.128.117.304.176.528.176zM70.241 136v-5.792c0-.448-.104-.773-.312-.976-.208-.203-.546-.304-1.016-.304-.352 0-.674.048-.968.144a4.974 4.974 0 0 0-.824.352v-1.92a6.251 6.251 0 0 1 2.496-.48c.587 0 1.107.085 1.56.256.454.17.811.456 1.072.856.262.4.392.947.392 1.64V136h-2.4zM77.345 136.16c-.48 0-.885-.075-1.216-.224a1.585 1.585 0 0 1-.752-.68c-.17-.304-.256-.685-.256-1.144v-6.88h2.4v6.592c0 .203.046.352.136.448.091.096.232.144.424.144.086 0 .176-.01.272-.032.096-.021.187-.048.272-.08l.224 1.536a2.615 2.615 0 0 1-.688.24c-.256.053-.528.08-.816.08zM83.29 136.208a8.86 8.86 0 0 1-1.897-.208 6.753 6.753 0 0 1-1.688-.592l.672-1.904c.214.117.47.24.768.368.299.128.624.235.976.32.352.085.71.128 1.072.128.427 0 .75-.061.968-.184a.608.608 0 0 0 .328-.568.592.592 0 0 0-.216-.472c-.144-.123-.354-.24-.632-.352a17.295 17.295 0 0 0-.992-.36 8.94 8.94 0 0 1-1.456-.656 2.673 2.673 0 0 1-.936-.864c-.218-.341-.328-.768-.328-1.28 0-.587.15-1.067.448-1.44.299-.373.72-.653 1.264-.84.544-.187 1.179-.28 1.904-.28.598 0 1.136.048 1.616.144.48.096.854.219 1.12.368v1.888a4.988 4.988 0 0 0-.712-.256 8.803 8.803 0 0 0-.944-.216 5.63 5.63 0 0 0-.968-.088c-.437 0-.768.059-.992.176-.224.117-.336.283-.336.496 0 .17.078.315.232.432.155.117.382.227.68.328.299.101.656.227 1.072.376a7.272 7.272 0 0 1 1.408.64c.384.235.675.523.872.864.198.341.296.763.296 1.264 0 .48-.109.93-.328 1.352-.218.421-.589.763-1.112 1.024-.522.261-1.242.392-2.16.392zM84.41 126.16c-.331 0-.611-.061-.84-.184a1.298 1.298 0 0 1-.537-.536l-.8.672c-.672 0-1.21-.163-1.616-.488-.405-.325-.608-.797-.608-1.416 0-.437.094-.797.28-1.08.187-.283.43-.493.728-.632.299-.139.619-.208.96-.208h4.032v1.168h-3.616a.727.727 0 0 0-.512.192c-.138.128-.208.325-.208.592 0 .203.046.365.136.488.091.123.222.184.392.184l.736-.688h.32c.032.203.102.376.208.52a.525.525 0 0 0 .448.216c.16 0 .283-.05.368-.152a.613.613 0 0 0 .128-.408v-.24h1.616v.32c0 .576-.146 1-.44 1.272-.293.272-.685.408-1.176.408zM89.29 136v-3.68h-.913v-1.472h3.072v3.328h.112c.352 0 .654-.096.904-.288.251-.192.44-.477.568-.856.128-.379.192-.856.192-1.432 0-.661-.093-1.187-.28-1.576a1.707 1.707 0 0 0-.824-.84c-.362-.17-.81-.256-1.344-.256-.554 0-1.056.077-1.504.232a6.235 6.235 0 0 0-1.2.552v-2a6.506 6.506 0 0 1 1.328-.48c.534-.139 1.147-.208 1.84-.208 1.035 0 1.875.165 2.52.496.646.33 1.123.832 1.432 1.504.31.672.464 1.515.464 2.528 0 .95-.141 1.757-.424 2.424a2.997 2.997 0 0 1-1.376 1.512c-.634.341-1.48.512-2.536.512H89.29zM100.846 132.21H98.94l-.398-7.632h2.703l-.399 7.633zm-2.335 2.673c0-.245.035-.452.105-.621.07-.17.168-.306.293-.41.125-.105.27-.18.437-.227.167-.047.347-.07.54-.07.182 0 .355.023.52.07a1.077 1.077 0 0 1 .73.637c.072.169.109.376.109.62 0 .235-.037.436-.11.602a1.156 1.156 0 0 1-.296.414c-.125.11-.27.19-.434.239a1.79 1.79 0 0 1-.52.074c-.192 0-.372-.025-.539-.074a1.117 1.117 0 0 1-.73-.652 1.544 1.544 0 0 1-.105-.602z"/>
            </g>
            <circle fill="#1DA578" cx="80" cy="72" r="24"/>
            <path d="m90.98 61.4-.18.006-.2.02a2.964 2.964 0 0 0-1.847.973L75.29 75.59l-4.216-4.14-.082-.076-.028.022.024-.025a2.97 2.97 0 0 0-1.97-.741c-1.628 0-2.952 1.299-2.952 2.907 0 .752.291 1.458.8 1.99l6.23 6.104c.527.6 1.333.968 2.197.968.836 0 1.617-.344 2.172-.938L92.93 66.49a2.853 2.853 0 0 0 1.003-2.182c0-1.609-1.324-2.908-2.953-2.908z" fill="#FFF" fill-rule="nonzero"/>
            <circle fill="#F5B964" cx="28" cy="28" r="20"/>
            <path d="M34.105 33.45h-2.062V37h-3.527v-3.55h-7.078v-2.52l7.277-11.063h3.328v10.77h2.062v2.812zm-5.59-2.813V27.73c0-.101.003-.248.006-.439a55.519 55.519 0 0 1 .047-1.4l.036-.739a37.676 37.676 0 0 1 .064-.996h-.105c-.141.328-.3.676-.475 1.043-.176.367-.377.735-.604 1.102l-2.859 4.336h3.89z" fill="#FFF" fill-rule="nonzero"/>
        </g>
    </g>
</svg>
