<svg width="136" height="116" viewBox="0 0 136 116" xmlns="http://www.w3.org/2000/svg" xmlns:xlink="http://www.w3.org/1999/xlink">
    <defs>
        <circle id="2a4ro0rkyc" cx="90" cy="90" r="90"/>
        <path id="sxil9xsmma" d="M0 0h136v116H0z"/>
    </defs>
    <g fill="none" fill-rule="evenodd">
        <mask id="tmusgc0g4b" fill="#fff">
            <use xlink:href="#sxil9xsmma"/>
        </mask>
        <g mask="url(#tmusgc0g4b)">
            <use fill="#88D4B9" xlink:href="#2a4ro0rkyc" transform="translate(8 24)"/>
        </g>
        <circle fill="#FFF" transform="rotate(-90 16 82)" cx="16" cy="82" r="14"/>
        <g fill="#096B65">
            <path d="m15.777 74.34-4.64-.817a1.178 1.178 0 0 0-1.364.955l-1.023 5.8 4.64.818.204-1.16-3.48-.613.818-4.64 4.64.818-.613 3.48 1.16.204.818-4.64-1.16-.204M20.145 83.483l-3.48-.613-.613 3.48 1.16.204.409-2.32 2.32.41.204-1.16M21.852 87.372l-1.16-.204-.205 1.16 1.16.204-.205 1.16-2.32-.409-.204 1.16 2.32.41a1.178 1.178 0 0 0 1.364-.956l.41-2.32-1.16-.205"/>
            <path d="m18.576 85.599-.409 2.32-2.32-.41-.409 2.32 1.16.205.204-1.16 2.32.41.614-3.48-1.16-.205M22.26 85.052l1.16.205.205-1.16-1.16-.205z"/>
            <path d="m20.896 86.008 1.16.204.205-1.16-1.16-.204zM14.55 81.3l1.16.205.204-1.16-1.16-.204zM19.257 74.954l4.64.819c.64.112 1.068.723.955 1.364l-1.022 5.8-2.32-.41.204-1.16 1.16.205.818-4.64-4.64-.818-1.022 5.8-1.16-.204 1.227-6.96 1.16.204"/>
            <path d="m19.19 82.119 1.16.204.204-1.16-1.16-.204zM14.345 82.46l-5.8-1.022-1.022 5.8c-.113.64.314 1.252.955 1.364l5.8 1.023.205-1.16-5.8-1.023.818-4.64 4.64.819-.614 3.48 1.16.204.818-4.64-1.16-.204"/>
        </g>
        <path d="m11.846 78.432 1.586.28c.203.035.396-.1.432-.302l.28-1.587a.372.372 0 0 0-.303-.431l-1.586-.28a.372.372 0 0 0-.432.302L11.543 78c-.035.203.1.396.303.432zM19.965 79.863l1.587.28c.203.036.396-.1.431-.302l.28-1.586a.372.372 0 0 0-.302-.432l-1.586-.28a.372.372 0 0 0-.432.303l-.28 1.586c-.035.203.1.396.302.431zM10.414 86.552l1.586.28c.203.035.396-.1.432-.303l.28-1.586a.372.372 0 0 0-.302-.432l-1.587-.28a.372.372 0 0 0-.431.303l-.28 1.586c-.036.203.1.396.302.432z" fill="#29A8A5"/>
        <g transform="translate(10 24)">
            <circle fill="#FFF" cx="18" cy="18" r="18"/>
            <g transform="rotate(-10 63.403 -18.361)">
                <rect fill="#B3E0E0" width="24.75" height="19.125" rx="1.62"/>
                <path fill="#096B65" fill-rule="nonzero" d="M0 3.938h24.75v4.5H0zM9.45 12.938h-5.4c-.373 0-.675-.252-.675-.563 0-.31.302-.563.675-.563h5.4c.373 0 .675.252.675.563 0 .31-.302.563-.675.563zM11.813 15.188H3.938a.563.563 0 0 1 0-1.125h7.875a.563.563 0 0 1 0 1.125z"/>
            </g>
        </g>
        <g>
            <g fill="#088B86">
                <path d="M101.975 90.88A19.088 19.088 0 0 1 91.633 94h-.153a19.111 19.111 0 0 1-5.309-.739 22.773 22.773 0 0 1-11.504 0 19.11 19.11 0 0 1-5.31.739h-.165C58.566 93.908 50 85.205 50 74.5c0-18.107 16.592-25.071 23.506-33.428l1.383-1.393H85.95l1.382 1.393c3.319 4.01 8.863 7.702 13.745 12.465l.898 37.343z"/>
                <path d="M60.025 90.88A19.088 19.088 0 0 0 70.367 94h.153a19.111 19.111 0 0 0 5.309-.739c3.772.985 7.73.985 11.504 0a19.11 19.11 0 0 0 5.31.739h.165C103.434 93.908 112 85.205 112 74.5c0-18.107-16.592-25.071-23.506-33.428l-1.383-1.393H76.05l-1.382 1.393c-3.319 4.01-8.863 7.702-13.745 12.465l-.898 37.343z"/>
            </g>
            <path d="m74.89 35.5-3.942-9.924c-.355-.9-.244-1.92.295-2.721a2.898 2.898 0 0 1 2.401-1.283h6.775v-2.786A2.776 2.776 0 0 1 83.185 16h5.392a2.9 2.9 0 0 1 2.31 1.164c.548.73.723 1.677.476 2.558L86.893 35.5l-6.474 2.786-5.53-2.786z" fill="#088B86"/>
            <path d="M70.74 35.5h19.358a2.77 2.77 0 0 1 2.766 2.786 2.77 2.77 0 0 1-2.766 2.786H70.74a2.77 2.77 0 0 1-2.764-2.786A2.769 2.769 0 0 1 70.74 35.5z" fill="#FACE34"/>
            <path d="M80.42 21.572v5.572c0 .768-.62 1.392-1.383 1.392a1.388 1.388 0 0 1-1.383-1.392v-5.572h2.765zM94.191 92.147A12.946 12.946 0 0 1 91.633 94h-.153a19.11 19.11 0 0 1-5.309-.739 14.292 14.292 0 0 0 6.07-3.092 1.398 1.398 0 0 1 1.964.015 1.4 1.4 0 0 1-.014 1.963zM74.667 93.261a19.108 19.108 0 0 1-5.31.739h-.165a12.832 12.832 0 0 1-2.558-1.853 1.402 1.402 0 0 1-.007-1.971 1.377 1.377 0 0 1 1.956-.007 14.53 14.53 0 0 0 6.084 3.092z" fill="#096B65"/>
        </g>
        <path d="M88 72.043c0 1.59-.49 2.83-1.471 3.72-.98.892-2.409 1.402-4.284 1.531V80h-3.33v-2.674H74V58.642h4.915V56h3.33v2.738c1.703.194 2.996.714 3.88 1.563.883.848 1.325 1.98 1.325 3.398 0 .945-.194 1.761-.582 2.449-.388.687-.97 1.213-1.746 1.578.97.365 1.692.902 2.167 1.61.474.71.711 1.612.711 2.707zm-10.023-5.67h2.716c.927 0 1.622-.16 2.085-.483.464-.322.695-.913.695-1.772s-.231-1.45-.695-1.772c-.463-.322-1.158-.483-2.085-.483h-2.716v4.51zm3.265 7.732c.927 0 1.623-.183 2.086-.548.463-.365.695-.956.695-1.772 0-.816-.232-1.396-.695-1.74-.463-.343-1.159-.515-2.086-.515h-3.265v4.575h3.265z" fill="#E1F4EE" fill-rule="nonzero"/>
        <g>
            <path fill="#088B86" d="M92 102h36V80.68H92z"/>
            <path d="M121.727 99.44H98.273c0-2.158-1.696-3.906-3.79-3.906v-8.389c2.094 0 3.79-1.748 3.79-3.905h23.454c0 2.157 1.696 3.905 3.79 3.905v8.389c-2.094 0-3.79 1.748-3.79 3.906z" fill="#82CCCC"/>
            <path fill="#29A8A5" d="M92 75.56h36V73H92z"/>
            <path fill="#088B86" d="M92 78.12h36v-2.56H92z"/>
            <path fill="#29A8A5" d="M92 80.68h36v-2.56H92z"/>
            <path d="M115.736 91.34c0 3.265-2.568 5.913-5.736 5.913-3.168 0-5.736-2.648-5.736-5.913 0-3.266 2.568-5.913 5.736-5.913 3.168 0 5.736 2.647 5.736 5.913zM121.677 91.34c0 .852-.67 1.543-1.497 1.543-.827 0-1.497-.691-1.497-1.543 0-.853.67-1.543 1.497-1.543.827 0 1.497.69 1.497 1.543zM101.317 91.34c0 .852-.67 1.543-1.497 1.543-.827 0-1.497-.691-1.497-1.543 0-.853.67-1.543 1.497-1.543.827 0 1.497.69 1.497 1.543z" fill="#088B86"/>
            <path fill="#FACE34" d="M106.842 102h6.316V73h-6.316z"/>
        </g>
    </g>
</svg>
