<svg width="160" height="160" viewBox="0 0 160 160" xmlns="http://www.w3.org/2000/svg">
    <defs>
        <linearGradient x1="0%" y1="100%" x2="100%" y2="0%" id="i9zqhv9o8a">
            <stop stop-color="#F9F2E4" offset="0%"/>
            <stop stop-color="#CCE9DC" offset="100%"/>
        </linearGradient>
    </defs>
    <g fill="none" fill-rule="evenodd">
        <g>
            <rect fill="url(#i9zqhv9o8a)" width="160" height="160" rx="24"/>
            <path d="M40 12h80a8 8 0 0 1 8 8v140H32V20a8 8 0 0 1 8-8z" fill="#29A8A5"/>
            <path d="M38 25h84a4 4 0 0 1 4 4v131H34V29a4 4 0 0 1 4-4z" fill="#B3E0E0" fill-rule="nonzero"/>
            <rect fill="#088B86" fill-rule="nonzero" x="71" y="18" width="18" height="3" rx="1.5"/>
            <g fill="#094F48" fill-rule="nonzero">
                <path d="M49.157 47.225c0 .902-.324 1.613-.974 2.132-.65.52-1.553.78-2.71.78-1.067 0-2.01-.2-2.83-.602v-1.969c.674.301 1.245.513 1.712.636.467.123.894.185 1.282.185.465 0 .821-.09 1.07-.267.248-.178.372-.442.372-.793a.875.875 0 0 0-.164-.523c-.11-.152-.27-.3-.482-.44-.212-.142-.644-.368-1.295-.677-.611-.288-1.069-.563-1.374-.828a3.105 3.105 0 0 1-.732-.922c-.182-.351-.273-.762-.273-1.23 0-.885.3-1.58.899-2.086.599-.506 1.427-.759 2.485-.759.52 0 1.015.062 1.486.185.472.123.965.296 1.48.52l-.683 1.647a10.002 10.002 0 0 0-1.323-.458 4.258 4.258 0 0 0-1.029-.13c-.4 0-.708.093-.923.28a.925.925 0 0 0-.32.732c0 .187.042.35.129.488.087.14.224.274.414.404.189.13.636.363 1.343.7.934.447 1.574.895 1.92 1.344.347.449.52.999.52 1.65zM53.77 43.697c-.442 0-.789.14-1.04.42-.25.28-.394.679-.43 1.194h2.926c-.01-.515-.144-.913-.404-1.193s-.61-.42-1.052-.42zm.294 6.44c-1.23 0-2.192-.34-2.885-1.019-.693-.679-1.04-1.64-1.04-2.885 0-1.28.321-2.27.961-2.97.64-.7 1.526-1.05 2.656-1.05 1.08 0 1.921.308 2.523.924.601.615.902 1.465.902 2.55v1.011h-4.929c.023.593.198 1.055.527 1.388.328.333.788.499 1.38.499.46 0 .896-.048 1.306-.144.41-.095.839-.248 1.285-.458v1.614a4.896 4.896 0 0 1-1.169.406c-.414.09-.92.134-1.517.134zM63.53 50l-.404-1.04h-.054c-.351.443-.712.75-1.084.92-.371.171-.855.257-1.452.257-.734 0-1.312-.21-1.733-.63-.422-.418-.633-1.015-.633-1.79 0-.811.284-1.41.851-1.795.568-.385 1.423-.598 2.567-.639l1.326-.04v-.336c0-.775-.396-1.162-1.189-1.162-.61 0-1.328.185-2.153.554l-.69-1.408c.879-.46 1.854-.69 2.925-.69 1.025 0 1.812.223 2.358.67.547.446.82 1.125.82 2.036V50H63.53zm-.616-3.541-.806.027c-.606.019-1.057.128-1.354.328-.296.201-.444.506-.444.916 0 .588.337.882 1.012.882.483 0 .869-.139 1.158-.417.29-.278.434-.647.434-1.107v-.629zM71.198 42.214c.282 0 .517.02.704.061l-.157 1.955a2.388 2.388 0 0 0-.616-.068c-.665 0-1.183.171-1.555.513-.371.342-.557.82-.557 1.435V50h-2.085v-7.643h1.58l.307 1.286h.102c.237-.429.558-.774.96-1.036a2.368 2.368 0 0 1 1.317-.393zM76.056 50.137c-2.378 0-3.568-1.306-3.568-3.917 0-1.3.324-2.291.97-2.977.648-.686 1.575-1.03 2.783-1.03.884 0 1.677.174 2.379.52l-.615 1.614c-.328-.132-.634-.24-.916-.325a2.951 2.951 0 0 0-.848-.126c-1.085 0-1.627.77-1.627 2.31 0 1.495.542 2.242 1.627 2.242a3.71 3.71 0 0 0 1.114-.16 4.023 4.023 0 0 0 1.026-.503v1.784a3.36 3.36 0 0 1-1.022.445c-.344.082-.778.123-1.303.123zM87.006 50H84.92v-4.464c0-1.103-.41-1.654-1.23-1.654-.584 0-1.005.198-1.265.595-.26.396-.39 1.039-.39 1.927V50h-2.085V39.363h2.085v2.167c0 .169-.016.565-.048 1.19l-.048.615h.11c.465-.747 1.203-1.121 2.215-1.121.897 0 1.579.241 2.044.724.464.484.697 1.176.697 2.079V50z"/>
            </g>
            <rect fill="#E1F2F3" x="40" y="57" width="80" height="14" rx="6"/>
            <path d="M112.088 60c1.706 0 3.088 1.492 3.088 3.333 0 .794-.257 1.523-.686 2.095l1.298 1.4.016.018a.69.69 0 0 1 .196.487c0 .369-.277.667-.618.667a.59.59 0 0 1-.405-.164l-.03-.033-.032-.032-1.36-1.468-.02-.024a2.896 2.896 0 0 1-1.447.388c-1.705 0-3.088-1.493-3.088-3.334 0-1.84 1.383-3.333 3.088-3.333zm0 1.333c-1.023 0-1.853.896-1.853 2 0 1.105.83 2 1.853 2 1.024 0 1.853-.895 1.853-2 0-1.104-.83-2-1.853-2z" fill="#13875D"/>
            <g fill="#094F48" fill-rule="nonzero">
                <path d="M49.792 67.08c-.24 0-.443-.037-.608-.112a.792.792 0 0 1-.376-.34 1.156 1.156 0 0 1-.128-.572v-3.44h1.2v3.296c0 .101.023.176.068.224.045.048.116.072.212.072a.628.628 0 0 0 .136-.016c.048-.01.093-.024.136-.04l.112.768a1.308 1.308 0 0 1-.344.12c-.128.027-.264.04-.408.04zM51.816 67l-1.272-4.384h1.208l.968 3.416h.048a.436.436 0 0 0 .24-.072.658.658 0 0 0 .192-.192c.107-.15.187-.327.24-.532.053-.205.08-.41.08-.612 0-.357-.068-.632-.204-.824a.653.653 0 0 0-.564-.288c-.048 0-.092.003-.132.008a.34.34 0 0 0-.108.032l-.224-.92a1.6 1.6 0 0 1 .348-.068 3.82 3.82 0 0 1 .268-.012c.283 0 .528.037.736.112.208.075.387.187.536.336.187.181.327.408.42.68.093.272.14.579.14.92 0 .432-.068.81-.204 1.132-.136.323-.3.577-.492.764-.16.155-.361.277-.604.368-.243.09-.575.136-.996.136h-.624zM50.664 62.008v-.504l.808-.336h2.856v.84zM57.128 67.08c-.325 0-.599-.063-.82-.188a1.2 1.2 0 0 1-.504-.564c-.115-.25-.172-.557-.172-.92v-2.792h1.2V65.2c0 .293.059.507.176.64.117.133.288.2.512.2a.76.76 0 0 0 .656-.324c.155-.216.232-.55.232-1.004v-2.096h1.2V67h-.912l-.128-.672h-.072c-.09.213-.247.392-.468.536-.221.144-.521.216-.9.216zM62.472 67.08c-.475 0-.844-.097-1.108-.292a1.516 1.516 0 0 1-.552-.816 4.29 4.29 0 0 1-.156-1.22c0-.517.05-.939.152-1.264.101-.325.255-.565.46-.72a1.22 1.22 0 0 1 .756-.232c.187 0 .35.036.492.108.141.072.255.204.34.396h.032a.655.655 0 0 1 .368-.4c.17-.07.355-.104.552-.104.368 0 .644.099.828.296.184.197.276.485.276.864V67h-1.2v-3.08c0-.165-.027-.277-.08-.336a.277.277 0 0 0-.216-.088c-.101 0-.177.03-.228.088-.05.059-.084.157-.1.296h-.472c-.021-.155-.061-.257-.12-.308a.308.308 0 0 0-.208-.076c-.133 0-.236.096-.308.288-.072.192-.108.517-.108.976 0 .299.023.553.068.764.045.21.124.37.236.48.112.11.272.164.48.164.064 0 .123-.004.176-.012a.557.557 0 0 0 .136-.036l.12.856a1.139 1.139 0 0 1-.28.08 2.163 2.163 0 0 1-.336.024zM61.064 62.008v-.504l.808-.336h2.856v.84zM67.608 67.08c-.432 0-.776-.095-1.032-.284-.256-.19-.44-.45-.552-.784a3.6 3.6 0 0 1-.168-1.148c0-.464.052-.85.156-1.156.104-.307.252-.547.444-.72.192-.173.42-.296.684-.368.264-.072.553-.108.868-.108.48 0 .864.067 1.152.2.288.133.497.323.628.568.13.245.196.533.196.864V67h-1.2v-2.76c0-.25-.06-.441-.18-.572-.12-.13-.319-.196-.596-.196-.187 0-.35.039-.492.116-.141.077-.25.215-.328.412-.077.197-.116.48-.116.848 0 .25.024.472.072.664a.922.922 0 0 0 .236.448c.11.107.257.16.444.16a1.215 1.215 0 0 0 .32-.04l.112.896a1.15 1.15 0 0 1-.308.08c-.12.016-.233.024-.34.024zM73.6 67v-2.848c0-.256-.07-.44-.208-.552-.139-.112-.352-.168-.64-.168-.277 0-.548.041-.812.124-.264.083-.492.18-.684.292v-.992c.155-.075.373-.15.656-.228.283-.077.61-.116.984-.116.272 0 .521.028.748.084.227.056.425.15.596.28.17.13.303.304.396.52.093.216.14.484.14.804V67H73.6zm-1.312.08c-.459 0-.812-.11-1.06-.328-.248-.219-.372-.525-.372-.92 0-.427.153-.768.46-1.024.307-.256.79-.41 1.452-.464l1.024-.08v.864l-.888.088c-.32.032-.543.096-.668.192a.46.46 0 0 0-.188.384c0 .16.052.28.156.36.104.08.239.12.404.12a.94.94 0 0 0 .192-.02c.064-.013.123-.028.176-.044l.104.752a1.872 1.872 0 0 1-.36.088 2.838 2.838 0 0 1-.432.032zM72.28 62.016v-.4c.075-.021.157-.05.248-.088a.799.799 0 0 0 .24-.152.313.313 0 0 0 .104-.24.238.238 0 0 0-.064-.176.217.217 0 0 0-.16-.064.43.43 0 0 0-.136.024c-.048.016-.09.032-.128.048l-.152-.536a.835.835 0 0 1 .396-.18c.157-.03.29-.044.396-.044.24 0 .428.056.564.168.136.112.204.277.204.496a.622.622 0 0 1-.376.576l-.032-.208h1.512v.776H72.28zM77.64 67.104c-.65 0-1.133-.159-1.448-.476-.315-.317-.472-.788-.472-1.412a7.559 7.559 0 0 1 .048-.792h1.92v.76h-.792v.112c0 .213.027.388.08.524a.577.577 0 0 0 .244.3c.11.064.247.096.412.096.181 0 .335-.04.46-.12.125-.08.221-.216.288-.408.067-.192.1-.456.1-.792 0-.315-.036-.577-.108-.788a.878.878 0 0 0-.36-.476c-.168-.107-.399-.16-.692-.16-.16 0-.325.017-.496.052-.17.035-.332.079-.484.132a2.406 2.406 0 0 0-.396.176v-1a2.07 2.07 0 0 1 .436-.168 4.596 4.596 0 0 1 1.164-.152c.517 0 .935.095 1.252.284.317.19.55.457.696.804.147.347.22.757.22 1.232 0 .485-.07.897-.212 1.236a1.557 1.557 0 0 1-.668.772c-.304.176-.701.264-1.192.264z"/>
            </g>
            <rect fill="#FFF" fill-rule="nonzero" x="16" y="78" width="128" height="38" rx="12"/>
            <path d="M124.5 88a7.5 7.5 0 0 1 5.834 12.213l3.151 3.151.027.029a1.5 1.5 0 1 1-2.12 2.12l-.028-.028-3.303-3.303-.049-.053A7.5 7.5 0 1 1 124.5 88zm0 3a4.5 4.5 0 1 0 0 9 4.5 4.5 0 0 0 0-9z" fill="#13875D"/>
            <g fill="#094F48" fill-rule="nonzero">
                <path d="M30.004 102.16c-.48 0-.885-.075-1.216-.224a1.585 1.585 0 0 1-.752-.68c-.17-.304-.256-.685-.256-1.144v-6.88h2.4v6.592c0 .203.045.352.136.448.09.096.232.144.424.144.085 0 .176-.01.272-.032.096-.021.187-.048.272-.08l.224 1.536a2.615 2.615 0 0 1-.688.24c-.256.053-.528.08-.816.08zM34.052 102l-2.544-8.768h2.416l1.936 6.832h.096c.17 0 .33-.048.48-.144.15-.096.277-.224.384-.384.213-.299.373-.653.48-1.064.107-.41.16-.819.16-1.224 0-.715-.136-1.264-.408-1.648-.272-.384-.648-.576-1.128-.576-.096 0-.184.005-.264.016a.68.68 0 0 0-.216.064l-.448-1.84a3.2 3.2 0 0 1 .696-.136 7.64 7.64 0 0 1 .536-.024c.565 0 1.056.075 1.472.224.416.15.773.373 1.072.672.373.363.653.816.84 1.36.187.544.28 1.157.28 1.84 0 .864-.136 1.619-.408 2.264-.272.645-.6 1.155-.984 1.528-.32.31-.723.555-1.208.736-.485.181-1.15.272-1.992.272h-1.248zM31.748 92.016v-1.008l1.616-.672h5.712v1.68zM44.676 102.16c-.65 0-1.197-.125-1.64-.376-.443-.25-.779-.627-1.008-1.128-.23-.501-.344-1.115-.344-1.84v-5.584h2.4V98.4c0 .587.117 1.013.352 1.28.235.267.576.4 1.024.4.565 0 1.003-.216 1.312-.648.31-.432.464-1.101.464-2.008v-4.192h2.4V102h-1.824l-.256-1.344h-.144c-.181.427-.493.784-.936 1.072-.443.288-1.043.432-1.8.432zM55.364 102.16c-.95 0-1.688-.195-2.216-.584-.528-.39-.896-.933-1.104-1.632-.208-.699-.312-1.512-.312-2.44 0-1.035.101-1.877.304-2.528.203-.65.51-1.13.92-1.44.41-.31.915-.464 1.512-.464.373 0 .701.072.984.216.283.144.51.408.68.792h.064c.15-.395.395-.661.736-.8.341-.139.71-.208 1.104-.208.736 0 1.288.197 1.656.592.368.395.552.97.552 1.728V102h-2.4v-6.16c0-.33-.053-.555-.16-.672a.555.555 0 0 0-.432-.176c-.203 0-.355.059-.456.176-.101.117-.168.315-.2.592h-.944c-.043-.31-.123-.515-.24-.616a.616.616 0 0 0-.416-.152c-.267 0-.472.192-.616.576-.144.384-.216 1.035-.216 1.952 0 .597.045 1.107.136 1.528.09.421.248.741.472.96.224.219.544.328.96.328.128 0 .245-.008.352-.024.107-.016.197-.04.272-.072l.24 1.712c-.17.075-.357.128-.56.16a4.326 4.326 0 0 1-.672.048zM52.548 92.016v-1.008l1.616-.672h5.712v1.68zM65.636 102.16c-.864 0-1.552-.19-2.064-.568-.512-.379-.88-.901-1.104-1.568-.224-.667-.336-1.432-.336-2.296 0-.928.104-1.699.312-2.312.208-.613.504-1.093.888-1.44s.84-.592 1.368-.736a6.585 6.585 0 0 1 1.736-.216c.96 0 1.728.133 2.304.4.576.267.995.645 1.256 1.136.261.49.392 1.067.392 1.728V102h-2.4v-5.52c0-.501-.12-.883-.36-1.144-.24-.261-.637-.392-1.192-.392-.373 0-.701.077-.984.232-.283.155-.501.43-.656.824-.155.395-.232.96-.232 1.696 0 .501.048.944.144 1.328.096.384.253.683.472.896.219.213.515.32.888.32.117 0 .232-.008.344-.024.112-.016.21-.035.296-.056l.224 1.792a2.3 2.3 0 0 1-.616.16c-.24.032-.467.048-.68.048zM77.62 102v-5.696c0-.512-.139-.88-.416-1.104-.277-.224-.704-.336-1.28-.336-.555 0-1.096.083-1.624.248-.528.165-.984.36-1.368.584v-1.984c.31-.15.747-.301 1.312-.456.565-.155 1.221-.232 1.968-.232.544 0 1.043.056 1.496.168.453.112.85.299 1.192.56.341.261.605.608.792 1.04.187.432.28.968.28 1.608v5.6H77.62zm-2.624.16c-.917 0-1.624-.219-2.12-.656-.496-.437-.744-1.05-.744-1.84 0-.853.307-1.536.92-2.048s1.581-.821 2.904-.928l2.048-.16v1.728l-1.776.176c-.64.064-1.085.192-1.336.384a.919.919 0 0 0-.376.768c0 .32.104.56.312.72.208.16.477.24.808.24.128 0 .256-.013.384-.04.128-.027.245-.056.352-.088l.208 1.504a3.744 3.744 0 0 1-.72.176 5.677 5.677 0 0 1-.864.064zM74.98 92.032v-.8c.15-.043.315-.101.496-.176.181-.075.341-.176.48-.304a.626.626 0 0 0 .208-.48.476.476 0 0 0-.128-.352.434.434 0 0 0-.32-.128.861.861 0 0 0-.272.048 3.318 3.318 0 0 0-.256.096l-.304-1.072a1.67 1.67 0 0 1 .792-.36c.315-.059.579-.088.792-.088.48 0 .856.112 1.128.336.272.224.408.555.408.992 0 .235-.061.453-.184.656a1.34 1.34 0 0 1-.568.496l-.064-.416h3.024v1.552H74.98zM85.7 102.208c-1.301 0-2.267-.317-2.896-.952-.63-.635-.944-1.576-.944-2.824 0-.213.008-.472.024-.776.016-.304.04-.573.072-.808h3.84v1.52h-1.584v.224c0 .427.053.776.16 1.048.107.272.27.472.488.6.219.128.493.192.824.192.363 0 .67-.08.92-.24.25-.16.443-.432.576-.816.133-.384.2-.912.2-1.584 0-.63-.072-1.155-.216-1.576-.144-.421-.384-.739-.72-.952-.336-.213-.797-.32-1.384-.32-.32 0-.65.035-.992.104-.341.07-.664.157-.968.264a4.811 4.811 0 0 0-.792.352v-2a4.14 4.14 0 0 1 .872-.336 9.192 9.192 0 0 1 2.328-.304c1.035 0 1.87.19 2.504.568a3.336 3.336 0 0 1 1.392 1.608c.293.693.44 1.515.44 2.464 0 .97-.141 1.795-.424 2.472a3.114 3.114 0 0 1-1.336 1.544c-.608.352-1.403.528-2.384.528z"/>
            </g>
            <path d="M63 79.304v-6.917a2.667 2.667 0 0 1 4.542-1.896l6.916 6.84a2.667 2.667 0 0 1-1.846 4.562l-6.916.077A2.667 2.667 0 0 1 63 79.304z" fill="#FFF" fill-rule="nonzero"/>
            <rect fill="#094F48" x="82" y="60" width="1" height="8" rx=".5"/>
            <circle fill="#F5B964" cx="28" cy="28" r="20"/>
            <path d="M33.848 37H22.352v-2.52l4.03-4.347c.509-.547.97-1.051 1.384-1.512.414-.46.77-.91 1.066-1.348.297-.437.527-.882.691-1.335a4.27 4.27 0 0 0 .247-1.465c0-.578-.174-1.028-.522-1.348-.348-.32-.814-.48-1.4-.48-.618 0-1.211.152-1.782.457-.57.304-1.168.738-1.793 1.3l-1.968-2.332c.351-.32.718-.627 1.101-.92a7.568 7.568 0 0 1 1.266-.779c.46-.226.969-.408 1.523-.545a7.798 7.798 0 0 1 1.864-.205c.82 0 1.556.113 2.209.34a4.79 4.79 0 0 1 1.67.967c.46.418.814.924 1.06 1.517.246.594.37 1.262.37 2.004 0 .672-.118 1.315-.352 1.928a8.59 8.59 0 0 1-.961 1.805 16.09 16.09 0 0 1-1.412 1.757 51.101 51.101 0 0 1-1.717 1.776l-2.063 2.074v.164h6.985V37z" fill="#FFF" fill-rule="nonzero"/>
        </g>
    </g>
</svg>
