<svg width="136" height="116" viewBox="0 0 136 116" xmlns="http://www.w3.org/2000/svg" xmlns:xlink="http://www.w3.org/1999/xlink">
    <defs>
        <linearGradient x1=".001%" y1="50.017%" x2="100.019%" y2="50.017%" id="k7gr3hwk3d">
            <stop stop-color="#EE4037" offset="0%"/>
            <stop stop-color="#B4202B" offset="100%"/>
        </linearGradient>
        <linearGradient x1="-.027%" y1="49.992%" x2="99.968%" y2="49.992%" id="frjlawj36e">
            <stop stop-color="#EE4037" offset="0%"/>
            <stop stop-color="#B4202B" offset="100%"/>
        </linearGradient>
        <linearGradient x1="-.004%" y1="49.996%" x2="99.998%" y2="49.996%" id="3owynzd7sf">
            <stop stop-color="#2A3B8F" offset="0%"/>
            <stop stop-color="#1D76BB" offset="100%"/>
        </linearGradient>
        <linearGradient x1="49.999%" y1="100.02%" x2="49.999%" y2=".021%" id="p15z11d5fg">
            <stop stop-color="#2A3B8F" offset="0%"/>
            <stop stop-color="#1D76BB" offset="100%"/>
        </linearGradient>
        <linearGradient x1="50%" y1="9.79%" x2="50%" y2="75.52%" id="da9ea2zfuh">
            <stop stop-color="#F8C461" offset="0%"/>
            <stop stop-color="#EE9132" offset="100%"/>
        </linearGradient>
        <linearGradient x1="82.694%" y1="30.711%" x2="68.054%" y2="50%" id="icxz7gc5mi">
            <stop stop-color="#F46A60" offset="0%"/>
            <stop stop-color="#EE761D" offset="100%"/>
        </linearGradient>
        <circle id="gppdqlgt1c" cx="90" cy="90" r="90"/>
        <path id="6rbgph7o6a" d="M0 0h136v116H0z"/>
    </defs>
    <g fill="none" fill-rule="evenodd">
        <g>
            <mask id="aix3370qhb" fill="#fff">
                <use xlink:href="#6rbgph7o6a"/>
            </mask>
            <g mask="url(#aix3370qhb)">
                <use fill="#F8CD8E" xlink:href="#gppdqlgt1c" transform="translate(8 24)"/>
            </g>
        </g>
        <circle fill="#FFF" transform="rotate(-90 16 90)" cx="16" cy="90" r="14"/>
        <g fill-rule="nonzero">
            <path d="M13.501 97.753c-2.644-.321-4.207-1.844-4.304-1.942l-.927-1.08-.011-.027-.018-.02a18.04 18.04 0 0 1-.626-.916l-.114-.194 3.452-5.157-1.786-2.366.244-.22c1.66-1.487 3.34-2.535 4.988-3.113 1.368-.477 2.723-.64 4.032-.48 2.69.328 4.246 1.882 4.31 1.946.35.343.88.903.96 1.084l.012.025.017.023c.261.344.48.662.65.954l.114.194-3.459 5.17 1.73 2.31-.244.22c-1.66 1.486-3.34 2.535-4.991 3.112-1.362.478-2.72.638-4.029.477z" fill="#FFF"/>
            <path d="m.802 4.545 3.627 3.75s1.211-2.537 3.446-4.55c1.407-1.27 3.22-2.327 5.39-2.412.031-.003.063-.003.094-.003.003.003-5.757-4.566-12.557 3.215z" fill="url(#k7gr3hwk3d)" transform="rotate(7 -661.464 117.568)"/>
            <path d="M10.687 6.965S9.473 9.53 7.24 11.543c-1.407 1.268-3.221 2.326-5.39 2.411a1.01 1.01 0 0 0-.094.006s5.76 4.568 12.56-3.212l-3.63-3.783z" fill="url(#frjlawj36e)" transform="rotate(7 -661.464 117.568)"/>
            <path d="M13.794 1.675c-3.19.003-4.842 1.663-5.353 2.224.89.4 2.55 1.529 4.25 4.177l2.493-4.94c-.426-.552-1.012-1.122-1.39-1.461z" fill="url(#3owynzd7sf)" transform="rotate(7 -661.464 117.568)"/>
            <path d="M6.675 11.47c-.904-.421-2.521-1.634-4.182-4.221L0 12.186c.418.54 1.043 1.157 1.524 1.572 2.055-.368 3.437-.655 5.151-2.288z" fill="url(#p15z11d5fg)" transform="rotate(7 -661.464 117.568)"/>
        </g>
        <g transform="translate(10 32)">
            <circle fill="#FFF" cx="18" cy="18" r="18"/>
            <path d="M15 11.022c0 1.725-.137 3.265-.412 4.62-.274 1.354-.713 2.504-1.317 3.449a6.071 6.071 0 0 1-2.335 2.163c-.953.497-2.104.746-3.451.746-1.267 0-2.37-.249-3.308-.746-.938-.497-1.717-1.218-2.336-2.163-.618-.945-1.08-2.095-1.384-3.45C.152 14.287 0 12.747 0 11.021c0-1.724.137-3.269.412-4.633.274-1.364.71-2.52 1.31-3.464A6.088 6.088 0 0 1 4.042.753C4.99.25 6.138 0 7.485 0c1.258 0 2.355.249 3.293.746.939.497 1.722 1.218 2.35 2.163.63.945 1.099 2.1 1.408 3.464.31 1.365.464 2.914.464 4.649zm-10.39 0c0 2.436.215 4.268.644 5.496.43 1.228 1.173 1.842 2.231 1.842 1.038 0 1.784-.609 2.238-1.827.454-1.218.681-3.055.681-5.511 0-2.446-.227-4.286-.68-5.518-.455-1.233-1.201-1.85-2.239-1.85-.529 0-.976.156-1.34.468-.364.312-.661.775-.89 1.389-.23.614-.395 1.381-.495 2.302-.1.921-.15 1.99-.15 3.209z" transform="rotate(-7 75.724 -59.074)" fill="url(#da9ea2zfuh)" fill-rule="nonzero"/>
            <path d="M1.298 1.978c0 .291.045.51.134.653.09.144.232.216.43.216.192 0 .335-.071.428-.213.093-.143.14-.361.14-.656 0-.576-.19-.864-.569-.864-.197 0-.34.071-.429.213-.09.143-.134.36-.134.65zm2.43-.01c0 .308-.037.587-.11.834a1.576 1.576 0 0 1-.34.623 1.505 1.505 0 0 1-.586.39c-.236.09-.516.135-.842.135-.304 0-.57-.045-.801-.135a1.54 1.54 0 0 1-.58-.39 1.64 1.64 0 0 1-.351-.623A2.744 2.744 0 0 1 0 1.967c0-.309.036-.586.107-.831C.18.89.291.684.442.517.594.35.787.222 1.02.133 1.251.044 1.53 0 1.85 0c.308 0 .579.044.813.133.234.09.43.217.587.384.158.167.277.373.357.619.08.245.12.522.12.831zM7.25.111 2.955 6.904H1.727L6.023.112h1.228zm-.68 4.92c0 .292.044.51.133.654.09.144.233.216.43.216.193 0 .336-.071.429-.214.093-.142.139-.36.139-.655 0-.576-.19-.864-.569-.864-.196 0-.34.071-.429.213-.089.142-.134.36-.134.65zM9 5.023c0 .31-.037.587-.11.832a1.578 1.578 0 0 1-.34.62 1.505 1.505 0 0 1-.585.39c-.236.09-.517.136-.842.136-.304 0-.57-.045-.8-.136a1.544 1.544 0 0 1-.576-.39 1.642 1.642 0 0 1-.351-.62 2.718 2.718 0 0 1-.118-.832c0-.31.035-.586.107-.832.071-.245.182-.451.333-.618.15-.167.341-.295.573-.384.233-.089.51-.133.832-.133.307 0 .578.044.812.133.235.089.43.217.588.384.157.167.276.373.356.618.08.246.121.523.121.832z" transform="rotate(-7 131.449 -193.873)" fill="url(#icxz7gc5mi)" fill-rule="nonzero"/>
        </g>
        <g transform="translate(48 16)">
            <path d="M7.449 14.897v53.378A3.724 3.724 0 0 0 11.173 72h57.102A3.725 3.725 0 0 0 72 68.275V14.897l-1.242-1.241H8.69l-1.241 1.24z" fill="#FDF3E3"/>
            <path d="M7.449 8.69v6.207H72V8.69a3.725 3.725 0 0 0-3.725-3.724H11.173A3.724 3.724 0 0 0 7.449 8.69z" fill="#D65C21"/>
            <path d="M62.068 0a2.477 2.477 0 0 0-2.482 2.483v4.966a2.477 2.477 0 0 0 2.482 2.483 2.477 2.477 0 0 0 2.483-2.483V2.483A2.477 2.477 0 0 0 62.068 0zM17.38 0a2.478 2.478 0 0 0-2.483 2.483v4.966a2.478 2.478 0 0 0 2.483 2.483 2.478 2.478 0 0 0 2.482-2.483V2.483A2.478 2.478 0 0 0 17.38 0z" fill="#F3AA49"/>
            <path d="M0 60.827v2.483a3.725 3.725 0 0 0 3.725 3.724h64.352A3.884 3.884 0 0 1 64.55 63.1v-2.272a1.24 1.24 0 0 0-1.24-1.24H1.24c-.685 0-1.241.555-1.241 1.24z" fill="#F5B964"/>
            <path d="M7.449 67.034v1.241A3.724 3.724 0 0 0 11.173 72h57.102A3.725 3.725 0 0 0 72 68.275V63.31a3.725 3.725 0 0 1-3.725 3.724H7.45z" fill="#EE9132"/>
            <rect fill="#F3AA49" x="13" y="23" width="8" height="8" rx="2"/>
            <rect fill="#F3AA49" x="13" y="36" width="8" height="8" rx="2"/>
            <rect fill="#F3AA49" x="28" y="23" width="8" height="8" rx="2"/>
            <rect fill="#F3AA49" x="28" y="36" width="8" height="8" rx="2"/>
            <rect fill="#F3AA49" x="43" y="23" width="8" height="8" rx="2"/>
            <rect fill="#F3AA49" x="43" y="36" width="8" height="8" rx="2"/>
            <rect fill="#F3AA49" x="58" y="23" width="8" height="8" rx="2"/>
            <rect fill="#F3AA49" x="58" y="36" width="8" height="8" rx="2"/>
        </g>
        <path d="M125.165 92h-37.33A2.832 2.832 0 0 1 85 89.169V66.831A2.832 2.832 0 0 1 87.834 64h37.331A2.833 2.833 0 0 1 128 66.831v22.338A2.833 2.833 0 0 1 125.165 92z" fill="#EE9132"/>
        <path fill="#3F49A5" d="M85 74.549h43v-6.225H85z"/>
        <path d="M89.386 80.542c0 .967.867 1.75 1.938 1.75h12.124c1.07 0 1.938-.783 1.938-1.75 0-.966-.868-1.75-1.938-1.75H91.324c-1.07 0-1.938.784-1.938 1.75z" fill="#FDF3E3"/>
    </g>
</svg>
