<svg width="56" height="56" viewBox="0 0 56 56" xmlns="http://www.w3.org/2000/svg">
    <g fill="none" fill-rule="evenodd">
        <g transform="translate(9 2)">
            <path d="M0 12h45v31a2 2 0 0 1-2 2H2a2 2 0 0 1-2-2V12z" fill="#B3E0E0"/>
            <path d="M3 4h39a3 3 0 0 1 3 3v5H0V7a3 3 0 0 1 3-3z" fill="#096B65"/>
            <g transform="translate(5 19)" fill="#4FB8B6">
                <rect width="5" height="5" rx="1"/>
                <rect y="9" width="5" height="5" rx="1"/>
                <rect x="20" width="5" height="5" rx="1"/>
                <rect x="20" y="9" width="5" height="5" rx="1"/>
                <rect x="10" width="5" height="5" rx="1"/>
                <rect x="10" y="9" width="5" height="5" rx="1"/>
                <rect x="30" width="5" height="5" rx="1"/>
                <rect x="30" y="9" width="5" height="5" rx="1"/>
            </g>
            <rect fill="#B3E0E0" fill-rule="nonzero" x="5.867" width="3.467" height="8.667" rx="1.733"/>
            <rect fill="#B3E0E0" fill-rule="nonzero" x="35.333" width="3.467" height="8.667" rx="1.733"/>
            <rect fill="#B3E0E0" fill-rule="nonzero" x="25.8" width="3.467" height="8.667" rx="1.733"/>
            <rect fill="#B3E0E0" fill-rule="nonzero" x="15.4" width="3.467" height="8.667" rx="1.733"/>
        </g>
        <path d="M6 42.833V44.5C6 45.88 7.127 47 8.517 47H52a2.613 2.613 0 0 1-2.382-2.642v-1.525a.836.836 0 0 0-.839-.833H6.84a.836.836 0 0 0-.839.833z" fill="#82CCCC"/>
        <path d="M32 38.967c0 4.13-1.673 7.862-4.38 10.576C24.911 52.257 21.121 54 17 54 8.757 54 2 47.228 2 38.967c0-4.131 1.739-7.863 4.447-10.577C9.155 25.676 12.878 24 17 24c4.122 0 7.912 1.676 10.62 4.39A14.917 14.917 0 0 1 32 38.967z" fill="#29A8A5"/>
        <path d="m26.027 38.967 1.93.998c-.457 5.248-4.725 9.459-9.961 9.917L17 47.947l-.996 1.935c-5.236-.458-9.438-4.67-9.896-9.917l1.932-.998-1.932-.998c.458-5.248 4.66-9.459 9.896-9.918L17 29.987l.996-1.936c5.236.459 9.504 4.67 9.962 9.918l-1.931.998z" fill="#FFF"/>
        <g fill="#096B65">
            <path d="M20.053 37.969v1.996h-4.049v-5.987h1.992v3.991zM17.996 28.05v3.932h-1.992v-3.931a8.1 8.1 0 0 1 .996-.06c.338 0 .677.02.996.06zM17.996 45.951v3.931c-.319.04-.658.06-.996.06-.338 0-.677-.02-.996-.06v-3.93h1.992zM10.031 37.969H6.099c-.03.33-.05.661-.05.998 0 .337.02.668.05.998h3.932v-1.996z"/>
        </g>
        <path d="M27.967 37.969h-3.932v1.996h3.932c.03-.33.05-.661.05-.998 0-.337-.02-.669-.05-.998z" fill="#096B65"/>
    </g>
</svg>
