<svg width="160" height="160" viewBox="0 0 160 160" xmlns="http://www.w3.org/2000/svg">
    <defs>
        <linearGradient x1="0%" y1="100%" x2="100%" y2="0%" id="kmxht1ieka">
            <stop stop-color="#F9F2E4" offset="0%"/>
            <stop stop-color="#CCE9DC" offset="100%"/>
        </linearGradient>
    </defs>
    <g fill="none" fill-rule="evenodd">
        <rect fill="url(#kmxht1ieka)" width="160" height="160" rx="24"/>
        <g transform="translate(32 12)">
            <path d="M8 0h80a8 8 0 0 1 8 8v140H0V8a8 8 0 0 1 8-8z" fill="#29A8A5"/>
            <path d="M6 13h84a4 4 0 0 1 4 4v131H2V17a4 4 0 0 1 4-4z" fill="#B3E0E0" fill-rule="nonzero"/>
            <rect fill="#088B86" fill-rule="nonzero" x="39" y="6" width="18" height="3" rx="1.5"/>
        </g>
        <g transform="translate(40 48.672)">
            <g fill="#094F48" fill-rule="nonzero">
                <path d="M1.792 8.408c-.24 0-.443-.037-.608-.112a.792.792 0 0 1-.376-.34 1.156 1.156 0 0 1-.128-.572v-3.44h1.2V7.24c0 .101.023.176.068.224.045.048.116.072.212.072a.628.628 0 0 0 .136-.016c.048-.01.093-.024.136-.04l.112.768a1.308 1.308 0 0 1-.344.12c-.128.027-.264.04-.408.04zM5.752 8.328V5.48c0-.256-.07-.44-.208-.552-.139-.112-.352-.168-.64-.168-.277 0-.548.041-.812.124-.264.083-.492.18-.684.292v-.992c.155-.075.373-.15.656-.228.283-.077.61-.116.984-.116.272 0 .521.028.748.084.227.056.425.15.596.28.17.13.303.304.396.52.093.216.14.484.14.804v2.8H5.752zm-1.312.08c-.459 0-.812-.11-1.06-.328-.248-.219-.372-.525-.372-.92 0-.427.153-.768.46-1.024.307-.256.79-.41 1.452-.464l1.024-.08v.864l-.888.088c-.32.032-.543.096-.668.192a.46.46 0 0 0-.188.384c0 .16.052.28.156.36.104.08.239.12.404.12a.94.94 0 0 0 .192-.02c.064-.013.123-.028.176-.044l.104.752a1.872 1.872 0 0 1-.36.088 2.838 2.838 0 0 1-.432.032zM9.848 8.432c-.597 0-1.048-.133-1.352-.4-.304-.267-.456-.656-.456-1.168v-.32c0-.219.03-.399.088-.54.059-.141.13-.27.216-.388.085-.117.156-.223.212-.316a.56.56 0 0 0 .084-.292c0-.096-.023-.164-.068-.204a.262.262 0 0 0-.18-.06.595.595 0 0 0-.164.024c-.056.016-.119.04-.188.072l-.192-.752c.15-.08.31-.135.484-.164.173-.03.327-.044.46-.044.235 0 .423.037.564.112a.676.676 0 0 1 .308.32c.064.139.096.304.096.496 0 .165-.024.31-.072.436-.048.125-.11.255-.184.388-.07.123-.132.237-.188.344-.056.107-.084.261-.084.464v.32c0 .17.025.31.076.42.05.11.123.19.216.24.093.05.204.076.332.076.208 0 .363-.06.464-.18.101-.12.152-.292.152-.516V3.944h1.192v2.888c0 .528-.155.927-.464 1.196-.31.27-.76.404-1.352.404zM12.84 8.328V3.944h.88l.16.688h.064c.09-.219.248-.401.472-.548.224-.147.515-.22.872-.22.341 0 .624.06.848.18.224.12.393.301.508.544.115.243.172.548.172.916v2.824h-1.2V5.744c0-.299-.06-.513-.18-.644-.12-.13-.295-.196-.524-.196a.753.753 0 0 0-.476.152.92.92 0 0 0-.296.444c-.067.195-.1.439-.1.732v2.096h-1.2zM12.952 3.304V2.8l.808-.336h2.856v.84h-3.664zm2.64-.488v-.904h1.024v.904h-1.024zM15.584 1.488V0h1.04v1.488zM20.432 8.328V5.48c0-.256-.07-.44-.208-.552-.139-.112-.352-.168-.64-.168-.277 0-.548.041-.812.124-.264.083-.492.18-.684.292v-.992c.155-.075.373-.15.656-.228.283-.077.608-.116.976-.116.283 0 .537.035.764.104a.78.78 0 0 1 .492.408c.224.07.385.204.484.404.099.2.148.457.148.772v2.8h-1.176zm-1.312.08c-.459 0-.812-.11-1.06-.328-.248-.219-.372-.525-.372-.92 0-.427.153-.768.46-1.024.307-.256.79-.41 1.452-.464l1.024-.08v.864l-.888.088c-.32.032-.543.096-.668.192a.46.46 0 0 0-.188.384c0 .16.052.28.156.36.104.08.239.12.404.12a.94.94 0 0 0 .192-.02c.064-.013.123-.028.176-.044l.104.752a1.872 1.872 0 0 1-.36.088 2.838 2.838 0 0 1-.432.032zm1.832-3.592-.656-.552c.187-.064.333-.145.44-.244a.503.503 0 0 0 .168-.364h1.048c0 .165-.033.324-.1.476a1.066 1.066 0 0 1-.32.404c-.147.117-.34.21-.58.28zM20.44 3.336c-.25 0-.448-.037-.592-.112a.698.698 0 0 1-.4-.648 1.179 1.179 0 0 1 .16-.584l.872.112c-.01.037-.02.076-.028.116a.556.556 0 0 0-.012.108c0 .075.023.132.068.172.045.04.121.06.228.06h1.72v.776H20.44zM26.968 9.896c-.24 0-.48-.023-.72-.068a2.97 2.97 0 0 1-.664-.204V8.608c.139.085.316.161.532.228.216.067.444.1.684.1.23 0 .425-.035.588-.104a.792.792 0 0 0 .376-.32c.088-.144.132-.328.132-.552v-.232h-.056c-.101.15-.247.277-.436.384-.19.107-.433.16-.732.16a1.6 1.6 0 0 1-.7-.144 1.036 1.036 0 0 1-.468-.452c-.112-.205-.168-.47-.168-.796V5.536a.849.849 0 0 0-.1-.444.574.574 0 0 0-.268-.236.967.967 0 0 0-.384-.072.897.897 0 0 0-.504.132.48.48 0 0 0-.216.396l.696.336-.08.52c-.197.005-.347.052-.448.14-.101.088-.152.241-.152.46v.488c0 .117.025.201.076.252.05.05.132.076.244.076a.948.948 0 0 0 .148-.012.556.556 0 0 0 .132-.036l.112.712a1.308 1.308 0 0 1-.344.12c-.128.027-.264.04-.408.04-.23 0-.428-.037-.596-.112a.856.856 0 0 1-.392-.34 1.076 1.076 0 0 1-.14-.572v-.52c0-.315.07-.547.208-.696.139-.15.33-.261.576-.336l.008-.032-.872-.312V5.28c0-.272.076-.516.228-.732.152-.216.375-.388.668-.516.293-.128.65-.192 1.072-.192.395 0 .735.06 1.02.18.285.12.505.299.66.536.155.237.232.535.232.892V6.52c0 .256.056.44.168.552.112.112.25.168.416.168a.628.628 0 0 0 .4-.132c.112-.088.2-.21.264-.368a1.47 1.47 0 0 0 .096-.556v-2.24h1.2v3.848c0 .475-.079.868-.236 1.18-.157.312-.39.544-.7.696-.31.152-.693.228-1.152.228zM34.464 9.896c-.24 0-.48-.023-.72-.068a2.97 2.97 0 0 1-.664-.204V8.608c.139.085.316.161.532.228.216.067.444.1.684.1.23 0 .425-.035.588-.104a.792.792 0 0 0 .376-.32c.088-.144.132-.328.132-.552v-.232h-.056c-.101.15-.247.277-.436.384-.19.107-.433.16-.732.16a1.6 1.6 0 0 1-.7-.144A1.036 1.036 0 0 1 33 7.676c-.112-.205-.168-.47-.168-.796V5.536a.849.849 0 0 0-.1-.444.574.574 0 0 0-.268-.236.967.967 0 0 0-.384-.072.897.897 0 0 0-.504.132.48.48 0 0 0-.216.396l.696.336-.08.52c-.197.005-.347.052-.448.14-.101.088-.152.241-.152.46v.488c0 .117.025.201.076.252.05.05.132.076.244.076a.948.948 0 0 0 .148-.012.556.556 0 0 0 .132-.036l.112.712a1.308 1.308 0 0 1-.344.12c-.128.027-.264.04-.408.04-.23 0-.428-.037-.596-.112a.856.856 0 0 1-.392-.34 1.076 1.076 0 0 1-.14-.572v-.52c0-.315.07-.547.208-.696.139-.15.33-.261.576-.336L31 5.8l-.872-.312V5.28c0-.272.076-.516.228-.732.152-.216.375-.388.668-.516.293-.128.65-.192 1.072-.192.395 0 .735.06 1.02.18.285.12.505.299.66.536.155.237.232.535.232.892V6.52c0 .256.056.44.168.552.112.112.25.168.416.168a.628.628 0 0 0 .4-.132c.112-.088.2-.21.264-.368a1.47 1.47 0 0 0 .096-.556v-2.24h1.2v3.848c0 .475-.079.868-.236 1.18-.157.312-.39.544-.7.696-.31.152-.693.228-1.152.228zM38.904 8.328V5.432c0-.224-.052-.387-.156-.488-.104-.101-.273-.152-.508-.152-.176 0-.337.024-.484.072a2.487 2.487 0 0 0-.412.176v-.96a3.126 3.126 0 0 1 1.248-.24c.293 0 .553.043.78.128.227.085.405.228.536.428.13.2.196.473.196.82v3.112h-1.2zM43.271 5.7c0-.373.024-.74.07-1.102.048-.362.12-.714.215-1.055a6.42 6.42 0 0 1 .366-.983c.147-.313.322-.608.525-.884h.977a6.85 6.85 0 0 0-.832 1.894 8.01 8.01 0 0 0 0 4.207c.093.336.21.662.347.979.138.316.297.614.477.892h-.969a5.042 5.042 0 0 1-.525-.861 6.121 6.121 0 0 1-.365-.961 7.063 7.063 0 0 1-.215-1.039 8.372 8.372 0 0 1-.07-1.088zM47.764 5.152h.39c.383 0 .666-.064.848-.191.182-.128.273-.328.273-.602 0-.27-.093-.463-.279-.578-.186-.114-.475-.172-.865-.172h-.367v1.543zm0 .985v2.191h-1.211v-5.71h1.664c.776 0 1.35.14 1.722.423.373.282.559.711.559 1.287 0 .336-.093.635-.277.896a1.835 1.835 0 0 1-.786.616l1.68 2.488h-1.344l-1.363-2.191h-.644zM53.549 4.726c-.253 0-.45.08-.594.24-.143.16-.225.388-.246.682h1.672c-.005-.294-.082-.521-.23-.681-.15-.16-.35-.24-.602-.24zm.168 3.68c-.703 0-1.253-.194-1.649-.582-.396-.388-.594-.937-.594-1.648 0-.732.183-1.298.55-1.698.365-.4.871-.6 1.517-.6.617 0 1.098.177 1.441.528.344.352.516.837.516 1.457v.578h-2.816c.013.339.113.603.3.793.188.19.45.285.79.285a3.276 3.276 0 0 0 1.48-.343v.922a2.798 2.798 0 0 1-.668.232c-.237.05-.526.076-.867.076zM58.88 4.855h-1.03v3.473h-1.192V4.855h-.656v-.574l.656-.32v-.32c0-.498.122-.861.367-1.09.245-.23.637-.344 1.176-.344.411 0 .777.061 1.098.183l-.305.875a2.22 2.22 0 0 0-.664-.113c-.17 0-.292.05-.367.15a.622.622 0 0 0-.114.385v.274h1.032v.894zM64.209 8.328h-1.207V5.023a18.212 18.212 0 0 1 .021-.851l.01-.285a8.79 8.79 0 0 1-.293.29c-.042.038-.082.073-.121.104l-.656.527-.586-.726 1.84-1.465h.992v5.711zM67.986 5.625c0 .372-.023.74-.07 1.101a7.345 7.345 0 0 1-.215 1.055 6.42 6.42 0 0 1-.365.983 5.248 5.248 0 0 1-.526.884h-.976a6.85 6.85 0 0 0 .832-1.894 8.01 8.01 0 0 0 0-4.207 7.458 7.458 0 0 0-.348-.979 6.267 6.267 0 0 0-.476-.892h.968c.204.268.379.555.526.861.147.306.269.626.365.96.096.336.168.682.215 1.04.047.358.07.72.07 1.088z"/>
            </g>
            <rect fill="#FFF" y="14.328" width="80" height="16" rx="5"/>
            <g fill="#094F48" fill-rule="nonzero" opacity=".6">
                <path d="M4.552 24.328V22.92c0-.336.07-.59.208-.76a1.06 1.06 0 0 1 .568-.352l.008-.032-.864-.32v-.232c0-.245.076-.472.228-.68.152-.208.372-.376.66-.504.288-.128.637-.192 1.048-.192.373 0 .704.059.992.176.288.117.515.295.68.532.165.237.248.543.248.916v2.856H7.312v-2.784c0-.304-.085-.525-.256-.664-.17-.139-.395-.208-.672-.208s-.49.057-.636.172a.572.572 0 0 0-.236.428l.776.368-.08.472a.614.614 0 0 0-.468.204c-.115.13-.172.316-.172.556v1.456H4.552zM10.912 24.424a4.21 4.21 0 0 1-.92-.1 3.417 3.417 0 0 1-.784-.268l.288-.808c.112.053.241.108.388.164.147.056.307.103.48.14.173.037.348.056.524.056.24 0 .43-.039.568-.116a.375.375 0 0 0 .208-.348.371.371 0 0 0-.104-.268 1.034 1.034 0 0 0-.312-.204 4.41 4.41 0 0 0-.512-.192 4.485 4.485 0 0 1-.776-.332 1.39 1.39 0 0 1-.488-.432c-.112-.168-.168-.38-.168-.636 0-.267.068-.49.204-.672.136-.181.337-.32.604-.416.267-.096.587-.144.96-.144.283 0 .541.024.776.072.235.048.419.11.552.184v.816a2.543 2.543 0 0 0-.352-.128 4.245 4.245 0 0 0-.464-.108 2.79 2.79 0 0 0-.488-.044c-.267 0-.463.039-.588.116-.125.077-.188.177-.188.3a.32.32 0 0 0 .108.244c.072.067.185.13.34.188.155.059.35.13.584.216.267.09.5.193.7.308.2.115.355.257.464.428.11.17.164.384.164.64 0 .235-.055.453-.164.656-.11.203-.292.368-.548.496-.256.128-.608.192-1.056.192zM15.24 24.424c-.624 0-1.087-.156-1.388-.468-.301-.312-.452-.783-.452-1.412a11.263 11.263 0 0 1 .04-.768h1.832v.688H14.4v.128c0 .261.03.47.092.624a.638.638 0 0 0 .276.336c.123.07.277.104.464.104.203 0 .376-.043.52-.128.144-.085.255-.233.332-.444.077-.21.116-.505.116-.884 0-.341-.039-.625-.116-.852a.935.935 0 0 0-.38-.508c-.176-.112-.419-.168-.728-.168-.165 0-.33.016-.496.048a3.37 3.37 0 0 0-.476.128c-.152.053-.29.117-.412.192v-.872c.112-.064.25-.119.416-.164.165-.045.347-.083.544-.112.197-.03.395-.044.592-.044.501 0 .905.095 1.212.284.307.19.53.457.672.804.141.347.212.755.212 1.224 0 .48-.067.89-.2 1.228a1.519 1.519 0 0 1-.64.772c-.293.176-.68.264-1.16.264zM18.216 24.328V22.92c0-.336.07-.59.208-.76a1.06 1.06 0 0 1 .568-.352l.008-.032-.864-.32v-.232c0-.245.076-.472.228-.68.152-.208.372-.376.66-.504.288-.128.637-.192 1.048-.192.373 0 .704.059.992.176.288.117.515.295.68.532.165.237.248.543.248.916v2.856h-1.016v-2.784c0-.304-.085-.525-.256-.664-.17-.139-.395-.208-.672-.208s-.49.057-.636.172a.572.572 0 0 0-.236.428l.776.368-.08.472a.614.614 0 0 0-.468.204c-.115.13-.172.316-.172.556v1.456h-1.016zM24.32 24.408c-.203 0-.381-.032-.536-.096a.74.74 0 0 1-.36-.308 1.048 1.048 0 0 1-.128-.548v-3.512h1.016v3.384c0 .112.024.193.072.244.048.05.125.076.232.076a.965.965 0 0 0 .28-.056l.112.672c-.101.053-.21.09-.328.112a2.008 2.008 0 0 1-.36.032zM28.248 24.328v-2.872c0-.293-.073-.503-.22-.628-.147-.125-.38-.188-.7-.188-.272 0-.536.04-.792.12-.256.08-.485.179-.688.296v-.872c.155-.075.37-.15.644-.224.275-.075.59-.112.948-.112.277 0 .527.03.748.088.221.059.41.152.568.28.157.128.277.295.36.5.083.205.124.455.124.748v2.864h-.992zm-1.336.08c-.464 0-.82-.11-1.068-.328-.248-.219-.372-.525-.372-.92 0-.437.156-.78.468-1.028.312-.248.812-.396 1.5-.444l.976-.072v.76l-.856.072c-.405.037-.685.11-.84.22a.531.531 0 0 0-.232.46c0 .187.06.327.18.42.12.093.284.14.492.14.075 0 .145-.007.212-.02a2.81 2.81 0 0 0 .188-.044l.112.664a1.883 1.883 0 0 1-.352.088c-.133.021-.27.032-.408.032zM32.128 24.424c-.56 0-.987-.13-1.28-.388-.293-.259-.44-.639-.44-1.14v-.384c0-.235.032-.425.096-.572.064-.147.139-.279.224-.396a4.07 4.07 0 0 0 .224-.316.567.567 0 0 0 .088-.308c0-.101-.024-.173-.072-.216a.278.278 0 0 0-.192-.064.616.616 0 0 0-.18.028 1.543 1.543 0 0 0-.196.076l-.184-.664c.133-.075.28-.125.44-.152.16-.027.301-.04.424-.04.224 0 .403.036.536.108.133.072.23.173.288.304.059.13.088.287.088.468 0 .176-.028.328-.084.456a2.976 2.976 0 0 1-.204.384 9.081 9.081 0 0 0-.2.36c-.059.112-.088.27-.088.472v.376c0 .197.032.355.096.472a.57.57 0 0 0 .256.252c.107.05.23.076.368.076.23 0 .403-.06.52-.18.117-.12.176-.3.176-.54v-2.952h1.008v2.984c0 .485-.145.856-.436 1.112-.29.256-.716.384-1.276.384zM35.072 24.328v-4.384h.736l.144.688h.056c.09-.224.25-.408.48-.552.23-.144.52-.216.872-.216.33 0 .61.057.836.172.227.115.399.29.516.528.117.237.176.537.176.9v2.864h-1.016v-2.696c0-.31-.068-.536-.204-.68-.136-.144-.335-.216-.596-.216a.878.878 0 0 0-.54.164.997.997 0 0 0-.332.456c-.075.195-.112.43-.112.708v2.264h-1.016zM35.168 19.288v-.432l.72-.304h2.84v.736h-3.56zm2.672-.424v-.904h.896v.904h-.896zM37.832 17.52v-1.416h.904v1.416zM42.6 24.328v-2.872c0-.293-.073-.503-.22-.628-.147-.125-.38-.188-.7-.188-.272 0-.536.04-.792.12-.256.08-.485.179-.688.296v-.872c.155-.075.37-.15.644-.224.275-.075.59-.112.948-.112.283 0 .532.033.748.1a.773.773 0 0 1 .476.388.74.74 0 0 1 .444.404c.088.195.132.436.132.724v2.864H42.6zm-1.336.08c-.464 0-.82-.11-1.068-.328-.248-.219-.372-.525-.372-.92 0-.437.156-.78.468-1.028.312-.248.812-.396 1.5-.444l.976-.072v.76l-.856.072c-.405.037-.685.11-.84.22a.531.531 0 0 0-.232.46c0 .187.06.327.18.42.12.093.284.14.492.14.075 0 .145-.007.212-.02a2.81 2.81 0 0 0 .188-.044l.112.664a1.883 1.883 0 0 1-.352.088c-.133.021-.27.032-.408.032zm1.728-3.688-.56-.488c.165-.048.305-.119.42-.212a.447.447 0 0 0 .172-.364h.92a.999.999 0 0 1-.428.828 1.506 1.506 0 0 1-.524.236zM42.48 19.304c-.24 0-.43-.036-.568-.108a.7.7 0 0 1-.3-.272.7.7 0 0 1-.092-.348c0-.085.012-.177.036-.276a.957.957 0 0 1 .108-.268l.768.112a.719.719 0 0 0-.04.232c0 .07.023.127.068.172.045.045.119.068.22.068h1.84v.688h-2.04zM48.984 25.832c-.23 0-.46-.023-.692-.068a3 3 0 0 1-.652-.204v-.896a2.45 2.45 0 0 0 1.24.336c.219 0 .41-.035.576-.104a.792.792 0 0 0 .384-.332c.09-.152.136-.356.136-.612v-.224h-.048c-.101.16-.25.293-.448.4-.197.107-.445.16-.744.16-.261 0-.493-.048-.696-.144a1.027 1.027 0 0 1-.472-.456c-.112-.208-.168-.477-.168-.808v-1.384c0-.208-.039-.373-.116-.496a.631.631 0 0 0-.312-.26 1.174 1.174 0 0 0-.428-.076c-.235 0-.428.05-.58.148a.538.538 0 0 0-.244.452l.784.368-.08.472c-.197 0-.353.05-.468.152-.115.101-.172.275-.172.52v.568c0 .117.025.201.076.252.05.05.132.076.244.076a.999.999 0 0 0 .156-.012.556.556 0 0 0 .132-.036l.112.64c-.101.053-.21.09-.324.112a1.988 1.988 0 0 1-.364.032 1.37 1.37 0 0 1-.528-.096.784.784 0 0 1-.368-.308c-.09-.141-.136-.324-.136-.548v-.616c0-.325.07-.563.212-.712.141-.15.33-.256.564-.32l.008-.032-.888-.32v-.232c0-.256.075-.488.224-.696a1.52 1.52 0 0 1 .644-.496c.28-.123.615-.184 1.004-.184.357 0 .675.056.952.168.277.112.496.283.656.512.16.23.24.525.24.888v1.216c0 .277.063.479.188.604a.645.645 0 0 0 .476.188c.176 0 .33-.048.464-.144a.92.92 0 0 0 .308-.4c.072-.17.108-.373.108-.608v-2.328h1.016v3.896c0 .448-.075.819-.224 1.112a1.46 1.46 0 0 1-.664.66c-.293.147-.656.22-1.088.22zM56.392 25.832c-.23 0-.46-.023-.692-.068a3 3 0 0 1-.652-.204v-.896a2.45 2.45 0 0 0 1.24.336c.219 0 .41-.035.576-.104a.792.792 0 0 0 .384-.332c.09-.152.136-.356.136-.612v-.224h-.048c-.101.16-.25.293-.448.4-.197.107-.445.16-.744.16-.261 0-.493-.048-.696-.144a1.027 1.027 0 0 1-.472-.456c-.112-.208-.168-.477-.168-.808v-1.384c0-.208-.039-.373-.116-.496a.631.631 0 0 0-.312-.26 1.174 1.174 0 0 0-.428-.076c-.235 0-.428.05-.58.148a.538.538 0 0 0-.244.452l.784.368-.08.472c-.197 0-.353.05-.468.152-.115.101-.172.275-.172.52v.568c0 .117.025.201.076.252.05.05.132.076.244.076a.999.999 0 0 0 .156-.012.556.556 0 0 0 .132-.036l.112.64c-.101.053-.21.09-.324.112a1.988 1.988 0 0 1-.364.032 1.37 1.37 0 0 1-.528-.096.784.784 0 0 1-.368-.308c-.09-.141-.136-.324-.136-.548v-.616c0-.325.07-.563.212-.712.141-.15.33-.256.564-.32l.008-.032-.888-.32v-.232c0-.256.075-.488.224-.696a1.52 1.52 0 0 1 .644-.496c.28-.123.615-.184 1.004-.184.357 0 .675.056.952.168.277.112.496.283.656.512.16.23.24.525.24.888v1.216c0 .277.063.479.188.604a.645.645 0 0 0 .476.188c.176 0 .33-.048.464-.144a.92.92 0 0 0 .308-.4c.072-.17.108-.373.108-.608v-2.328h1.016v3.896c0 .448-.075.819-.224 1.112a1.46 1.46 0 0 1-.664.66c-.293.147-.656.22-1.088.22zM60.808 24.328v-2.976c0-.24-.055-.415-.164-.524-.11-.11-.292-.164-.548-.164-.181 0-.35.025-.504.076-.155.05-.301.113-.44.188v-.84a2.988 2.988 0 0 1 1.216-.24c.288 0 .541.041.76.124.219.083.39.221.512.416.123.195.184.457.184.788v3.152h-1.016z"/>
            </g>
        </g>
        <g transform="translate(40 85.672)">
            <g fill="#094F48" fill-rule="nonzero">
                <path d="M1.792 8.408c-.24 0-.443-.037-.608-.112a.792.792 0 0 1-.376-.34 1.156 1.156 0 0 1-.128-.572v-3.44h1.2V7.24c0 .101.023.176.068.224.045.048.116.072.212.072a.628.628 0 0 0 .136-.016c.048-.01.093-.024.136-.04l.112.768a1.308 1.308 0 0 1-.344.12c-.128.027-.264.04-.408.04zM5.752 8.328V5.48c0-.256-.07-.44-.208-.552-.139-.112-.352-.168-.64-.168-.277 0-.548.041-.812.124-.264.083-.492.18-.684.292v-.992c.155-.075.373-.15.656-.228.283-.077.61-.116.984-.116.272 0 .521.028.748.084.227.056.425.15.596.28.17.13.303.304.396.52.093.216.14.484.14.804v2.8H5.752zm-1.312.08c-.459 0-.812-.11-1.06-.328-.248-.219-.372-.525-.372-.92 0-.427.153-.768.46-1.024.307-.256.79-.41 1.452-.464l1.024-.08v.864l-.888.088c-.32.032-.543.096-.668.192a.46.46 0 0 0-.188.384c0 .16.052.28.156.36.104.08.239.12.404.12a.94.94 0 0 0 .192-.02c.064-.013.123-.028.176-.044l.104.752a1.872 1.872 0 0 1-.36.088 2.838 2.838 0 0 1-.432.032zM9.848 8.432c-.597 0-1.048-.133-1.352-.4-.304-.267-.456-.656-.456-1.168v-.32c0-.219.03-.399.088-.54.059-.141.13-.27.216-.388.085-.117.156-.223.212-.316a.56.56 0 0 0 .084-.292c0-.096-.023-.164-.068-.204a.262.262 0 0 0-.18-.06.595.595 0 0 0-.164.024c-.056.016-.119.04-.188.072l-.192-.752c.15-.08.31-.135.484-.164.173-.03.327-.044.46-.044.235 0 .423.037.564.112a.676.676 0 0 1 .308.32c.064.139.096.304.096.496 0 .165-.024.31-.072.436-.048.125-.11.255-.184.388-.07.123-.132.237-.188.344-.056.107-.084.261-.084.464v.32c0 .17.025.31.076.42.05.11.123.19.216.24.093.05.204.076.332.076.208 0 .363-.06.464-.18.101-.12.152-.292.152-.516V3.944h1.192v2.888c0 .528-.155.927-.464 1.196-.31.27-.76.404-1.352.404zM12.84 8.328V3.944h.88l.16.688h.064c.09-.219.248-.401.472-.548.224-.147.515-.22.872-.22.341 0 .624.06.848.18.224.12.393.301.508.544.115.243.172.548.172.916v2.824h-1.2V5.744c0-.299-.06-.513-.18-.644-.12-.13-.295-.196-.524-.196a.753.753 0 0 0-.476.152.92.92 0 0 0-.296.444c-.067.195-.1.439-.1.732v2.096h-1.2zM12.952 3.304V2.8l.808-.336h2.856v.84h-3.664zm2.64-.488v-.904h1.024v.904h-1.024zM15.584 1.488V0h1.04v1.488zM19.68 8.432c-.65 0-1.133-.159-1.448-.476-.315-.317-.472-.788-.472-1.412a7.559 7.559 0 0 1 .048-.792h1.92v.76h-.792v.112c0 .213.027.388.08.524a.577.577 0 0 0 .244.3c.11.064.247.096.412.096.181 0 .335-.04.46-.12.125-.08.221-.216.288-.408.067-.192.1-.456.1-.792 0-.315-.036-.577-.108-.788a.878.878 0 0 0-.36-.476c-.168-.107-.399-.16-.692-.16-.16 0-.325.017-.496.052-.17.035-.332.079-.484.132a2.406 2.406 0 0 0-.396.176v-1a2.07 2.07 0 0 1 .436-.168 4.596 4.596 0 0 1 1.164-.152c.517 0 .935.095 1.252.284.317.19.55.457.696.804.147.347.22.757.22 1.232 0 .485-.07.897-.212 1.236a1.557 1.557 0 0 1-.668.772c-.304.176-.701.264-1.192.264zM19.048 3.344v-.4c.075-.021.157-.05.248-.088a.799.799 0 0 0 .24-.152.313.313 0 0 0 .104-.24.238.238 0 0 0-.064-.176.217.217 0 0 0-.16-.064.43.43 0 0 0-.136.024c-.048.016-.09.032-.128.048L19 1.76a.835.835 0 0 1 .396-.18c.157-.03.29-.044.396-.044.24 0 .428.056.564.168.136.112.204.277.204.496a.622.622 0 0 1-.376.576l-.032-.208h1.512v.776h-2.616zM23.84 8.328V5.432c0-.224-.052-.387-.156-.488-.104-.101-.273-.152-.508-.152-.176 0-.337.024-.484.072a2.487 2.487 0 0 0-.412.176v-.96a3.126 3.126 0 0 1 1.248-.24c.293 0 .553.043.78.128.227.085.405.228.536.428.13.2.196.473.196.82v3.112h-1.2zM26.912 8.328 25.64 3.944h1.208l.968 3.416h.048a.436.436 0 0 0 .24-.072.658.658 0 0 0 .192-.192c.107-.15.187-.327.24-.532.053-.205.08-.41.08-.612 0-.357-.068-.632-.204-.824a.653.653 0 0 0-.564-.288c-.048 0-.092.003-.132.008a.34.34 0 0 0-.108.032l-.224-.92a1.6 1.6 0 0 1 .348-.068A3.82 3.82 0 0 1 28 3.88c.283 0 .528.037.736.112.208.075.387.187.536.336.187.181.327.408.42.68.093.272.14.579.14.92 0 .432-.068.81-.204 1.132-.136.323-.3.577-.492.764-.16.155-.361.277-.604.368-.243.09-.575.136-.996.136h-.624zM32.472 8.432c-.65 0-1.133-.159-1.448-.476-.315-.317-.472-.788-.472-1.412a7.559 7.559 0 0 1 .048-.792h1.92v.76h-.792v.112c0 .213.027.388.08.524a.577.577 0 0 0 .244.3c.11.064.247.096.412.096.181 0 .335-.04.46-.12.125-.08.221-.216.288-.408.067-.192.1-.456.1-.792 0-.315-.036-.577-.108-.788a.878.878 0 0 0-.36-.476c-.168-.107-.399-.16-.692-.16-.16 0-.325.017-.496.052-.17.035-.332.079-.484.132a2.406 2.406 0 0 0-.396.176v-1a2.07 2.07 0 0 1 .436-.168 4.596 4.596 0 0 1 1.164-.152c.517 0 .935.095 1.252.284.317.19.55.457.696.804.147.347.22.757.22 1.232 0 .485-.07.897-.212 1.236a1.557 1.557 0 0 1-.668.772c-.304.176-.701.264-1.192.264zM30.592 3.336v-.504l.808-.336h2.856v.84zM36.224 8.328l-1.272-4.384h1.208l.968 3.416h.048a.436.436 0 0 0 .24-.072.658.658 0 0 0 .192-.192c.107-.15.187-.327.24-.532.053-.205.08-.41.08-.612 0-.357-.068-.632-.204-.824a.653.653 0 0 0-.564-.288c-.048 0-.092.003-.132.008a.34.34 0 0 0-.108.032l-.224-.92a1.6 1.6 0 0 1 .348-.068 3.82 3.82 0 0 1 .268-.012c.283 0 .528.037.736.112.208.075.387.187.536.336.187.181.327.408.42.68.093.272.14.579.14.92 0 .432-.068.81-.204 1.132-.136.323-.3.577-.492.764-.16.155-.361.277-.604.368-.243.09-.575.136-.996.136h-.624zM42.087 5.7c0-.373.024-.74.07-1.102.048-.362.12-.714.216-1.055a6.42 6.42 0 0 1 .365-.983c.147-.313.322-.608.525-.884h.977a6.85 6.85 0 0 0-.832 1.894 8.01 8.01 0 0 0 0 4.207c.093.336.21.662.347.979.138.316.297.614.477.892h-.969a5.042 5.042 0 0 1-.525-.861 6.121 6.121 0 0 1-.365-.961 7.063 7.063 0 0 1-.215-1.039 8.372 8.372 0 0 1-.07-1.088zM46.58 5.152h.39c.383 0 .666-.064.848-.191.182-.128.273-.328.273-.602 0-.27-.093-.463-.279-.578-.186-.114-.475-.172-.865-.172h-.367v1.543zm0 .985v2.191h-1.211v-5.71h1.664c.776 0 1.35.14 1.722.423.373.282.559.711.559 1.287 0 .336-.093.635-.277.896a1.835 1.835 0 0 1-.786.616l1.68 2.488h-1.344l-1.363-2.191h-.644zM52.365 4.726c-.253 0-.45.08-.594.24-.143.16-.225.388-.246.682h1.672c-.005-.294-.082-.521-.23-.681-.15-.16-.35-.24-.602-.24zm.168 3.68c-.703 0-1.253-.194-1.649-.582-.396-.388-.594-.937-.594-1.648 0-.732.183-1.298.55-1.698.365-.4.871-.6 1.517-.6.617 0 1.098.177 1.441.528.344.352.516.837.516 1.457v.578h-2.816c.013.339.113.603.3.793.188.19.45.285.79.285a3.276 3.276 0 0 0 1.48-.343v.922a2.798 2.798 0 0 1-.668.232c-.237.05-.526.076-.867.076zM57.697 4.855h-1.032v3.473h-1.19V4.855h-.657v-.574l.656-.32v-.32c0-.498.122-.861.367-1.09.245-.23.637-.344 1.176-.344.411 0 .777.061 1.098.183l-.305.875a2.22 2.22 0 0 0-.664-.113c-.17 0-.292.05-.367.15a.622.622 0 0 0-.114.385v.274h1.032v.894zM63.986 8.328h-3.832v-.84l1.343-1.45c.17-.181.323-.35.461-.503a4.24 4.24 0 0 0 .356-.45c.099-.145.176-.293.23-.444.055-.152.082-.314.082-.489 0-.192-.058-.342-.173-.449a.662.662 0 0 0-.467-.16c-.206 0-.404.05-.594.152-.19.102-.39.246-.598.434l-.656-.778c.117-.106.24-.209.367-.306a2.523 2.523 0 0 1 .93-.442 2.6 2.6 0 0 1 .621-.068c.274 0 .519.038.736.113.218.076.403.183.557.323.154.139.272.308.354.505.082.198.123.421.123.668 0 .224-.04.439-.118.643a2.863 2.863 0 0 1-.32.602 5.363 5.363 0 0 1-.47.585c-.179.194-.37.392-.573.592l-.687.692v.054h2.328v1.016zM66.802 5.625c0 .372-.023.74-.07 1.101a7.345 7.345 0 0 1-.215 1.055 6.42 6.42 0 0 1-.365.983 5.248 5.248 0 0 1-.526.884h-.976a6.85 6.85 0 0 0 .832-1.894 8.01 8.01 0 0 0 0-4.207 7.458 7.458 0 0 0-.348-.979 6.267 6.267 0 0 0-.476-.892h.968c.204.268.379.555.526.861.147.306.269.626.365.96.096.336.168.682.215 1.04.047.358.07.72.07 1.088z"/>
            </g>
            <rect fill="#FFF" y="14.328" width="80" height="16" rx="5"/>
            <g fill="#094F48" fill-rule="nonzero" opacity=".6">
                <path d="M4.552 24.328V22.92c0-.336.07-.59.208-.76a1.06 1.06 0 0 1 .568-.352l.008-.032-.864-.32v-.232c0-.245.076-.472.228-.68.152-.208.372-.376.66-.504.288-.128.637-.192 1.048-.192.373 0 .704.059.992.176.288.117.515.295.68.532.165.237.248.543.248.916v2.856H7.312v-2.784c0-.304-.085-.525-.256-.664-.17-.139-.395-.208-.672-.208s-.49.057-.636.172a.572.572 0 0 0-.236.428l.776.368-.08.472a.614.614 0 0 0-.468.204c-.115.13-.172.316-.172.556v1.456H4.552zM10.912 24.424a4.21 4.21 0 0 1-.92-.1 3.417 3.417 0 0 1-.784-.268l.288-.808c.112.053.241.108.388.164.147.056.307.103.48.14.173.037.348.056.524.056.24 0 .43-.039.568-.116a.375.375 0 0 0 .208-.348.371.371 0 0 0-.104-.268 1.034 1.034 0 0 0-.312-.204 4.41 4.41 0 0 0-.512-.192 4.485 4.485 0 0 1-.776-.332 1.39 1.39 0 0 1-.488-.432c-.112-.168-.168-.38-.168-.636 0-.267.068-.49.204-.672.136-.181.337-.32.604-.416.267-.096.587-.144.96-.144.283 0 .541.024.776.072.235.048.419.11.552.184v.816a2.543 2.543 0 0 0-.352-.128 4.245 4.245 0 0 0-.464-.108 2.79 2.79 0 0 0-.488-.044c-.267 0-.463.039-.588.116-.125.077-.188.177-.188.3a.32.32 0 0 0 .108.244c.072.067.185.13.34.188.155.059.35.13.584.216.267.09.5.193.7.308.2.115.355.257.464.428.11.17.164.384.164.64 0 .235-.055.453-.164.656-.11.203-.292.368-.548.496-.256.128-.608.192-1.056.192zM15.24 24.424c-.624 0-1.087-.156-1.388-.468-.301-.312-.452-.783-.452-1.412a11.263 11.263 0 0 1 .04-.768h1.832v.688H14.4v.128c0 .261.03.47.092.624a.638.638 0 0 0 .276.336c.123.07.277.104.464.104.203 0 .376-.043.52-.128.144-.085.255-.233.332-.444.077-.21.116-.505.116-.884 0-.341-.039-.625-.116-.852a.935.935 0 0 0-.38-.508c-.176-.112-.419-.168-.728-.168-.165 0-.33.016-.496.048a3.37 3.37 0 0 0-.476.128c-.152.053-.29.117-.412.192v-.872c.112-.064.25-.119.416-.164.165-.045.347-.083.544-.112.197-.03.395-.044.592-.044.501 0 .905.095 1.212.284.307.19.53.457.672.804.141.347.212.755.212 1.224 0 .48-.067.89-.2 1.228a1.519 1.519 0 0 1-.64.772c-.293.176-.68.264-1.16.264zM18.216 24.328V22.92c0-.336.07-.59.208-.76a1.06 1.06 0 0 1 .568-.352l.008-.032-.864-.32v-.232c0-.245.076-.472.228-.68.152-.208.372-.376.66-.504.288-.128.637-.192 1.048-.192.373 0 .704.059.992.176.288.117.515.295.68.532.165.237.248.543.248.916v2.856h-1.016v-2.784c0-.304-.085-.525-.256-.664-.17-.139-.395-.208-.672-.208s-.49.057-.636.172a.572.572 0 0 0-.236.428l.776.368-.08.472a.614.614 0 0 0-.468.204c-.115.13-.172.316-.172.556v1.456h-1.016zM24.32 24.408c-.203 0-.381-.032-.536-.096a.74.74 0 0 1-.36-.308 1.048 1.048 0 0 1-.128-.548v-3.512h1.016v3.384c0 .112.024.193.072.244.048.05.125.076.232.076a.965.965 0 0 0 .28-.056l.112.672c-.101.053-.21.09-.328.112a2.008 2.008 0 0 1-.36.032zM28.248 24.328v-2.872c0-.293-.073-.503-.22-.628-.147-.125-.38-.188-.7-.188-.272 0-.536.04-.792.12-.256.08-.485.179-.688.296v-.872c.155-.075.37-.15.644-.224.275-.075.59-.112.948-.112.277 0 .527.03.748.088.221.059.41.152.568.28.157.128.277.295.36.5.083.205.124.455.124.748v2.864h-.992zm-1.336.08c-.464 0-.82-.11-1.068-.328-.248-.219-.372-.525-.372-.92 0-.437.156-.78.468-1.028.312-.248.812-.396 1.5-.444l.976-.072v.76l-.856.072c-.405.037-.685.11-.84.22a.531.531 0 0 0-.232.46c0 .187.06.327.18.42.12.093.284.14.492.14.075 0 .145-.007.212-.02a2.81 2.81 0 0 0 .188-.044l.112.664a1.883 1.883 0 0 1-.352.088c-.133.021-.27.032-.408.032zM32.128 24.424c-.56 0-.987-.13-1.28-.388-.293-.259-.44-.639-.44-1.14v-.384c0-.235.032-.425.096-.572.064-.147.139-.279.224-.396a4.07 4.07 0 0 0 .224-.316.567.567 0 0 0 .088-.308c0-.101-.024-.173-.072-.216a.278.278 0 0 0-.192-.064.616.616 0 0 0-.18.028 1.543 1.543 0 0 0-.196.076l-.184-.664c.133-.075.28-.125.44-.152.16-.027.301-.04.424-.04.224 0 .403.036.536.108.133.072.23.173.288.304.059.13.088.287.088.468 0 .176-.028.328-.084.456a2.976 2.976 0 0 1-.204.384 9.081 9.081 0 0 0-.2.36c-.059.112-.088.27-.088.472v.376c0 .197.032.355.096.472a.57.57 0 0 0 .256.252c.107.05.23.076.368.076.23 0 .403-.06.52-.18.117-.12.176-.3.176-.54v-2.952h1.008v2.984c0 .485-.145.856-.436 1.112-.29.256-.716.384-1.276.384zM35.072 24.328v-4.384h.736l.144.688h.056c.09-.224.25-.408.48-.552.23-.144.52-.216.872-.216.33 0 .61.057.836.172.227.115.399.29.516.528.117.237.176.537.176.9v2.864h-1.016v-2.696c0-.31-.068-.536-.204-.68-.136-.144-.335-.216-.596-.216a.878.878 0 0 0-.54.164.997.997 0 0 0-.332.456c-.075.195-.112.43-.112.708v2.264h-1.016zM35.168 19.288v-.432l.72-.304h2.84v.736h-3.56zm2.672-.424v-.904h.896v.904h-.896zM37.832 17.52v-1.416h.904v1.416zM41.744 24.424c-.624 0-1.087-.156-1.388-.468-.301-.312-.452-.783-.452-1.412a11.263 11.263 0 0 1 .04-.768h1.832v.688h-.872v.128c0 .261.03.47.092.624a.638.638 0 0 0 .276.336c.123.07.277.104.464.104.203 0 .376-.043.52-.128.144-.085.255-.233.332-.444.077-.21.116-.505.116-.884 0-.341-.039-.625-.116-.852a.935.935 0 0 0-.38-.508c-.176-.112-.419-.168-.728-.168-.165 0-.33.016-.496.048a3.37 3.37 0 0 0-.476.128c-.152.053-.29.117-.412.192v-.872c.112-.064.25-.119.416-.164.165-.045.347-.083.544-.112.197-.03.395-.044.592-.044.501 0 .905.095 1.212.284.307.19.53.457.672.804.141.347.212.755.212 1.224 0 .48-.067.89-.2 1.228a1.519 1.519 0 0 1-.64.772c-.293.176-.68.264-1.16.264zM41.112 19.304v-.376c.085-.021.177-.052.276-.092a.877.877 0 0 0 .256-.156.308.308 0 0 0 .108-.24.241.241 0 0 0-.064-.172.22.22 0 0 0-.168-.068.427.427 0 0 0-.148.028c-.05.019-.095.036-.132.052l-.16-.496a.826.826 0 0 1 .38-.18c.147-.03.27-.044.372-.044.23 0 .408.057.536.172.128.115.192.276.192.484a.631.631 0 0 1-.1.348.743.743 0 0 1-.276.252l-.048-.2h1.536v.688h-2.56zM45.952 24.328v-2.976c0-.24-.055-.415-.164-.524-.11-.11-.292-.164-.548-.164-.181 0-.35.025-.504.076-.155.05-.301.113-.44.188v-.84a2.988 2.988 0 0 1 1.216-.24c.288 0 .541.041.76.124.219.083.39.221.512.416.123.195.184.457.184.788v3.152h-1.016zM48.896 24.328l-1.312-4.384h1.024l1.048 3.552h.072a.56.56 0 0 0 .288-.08.888.888 0 0 0 .24-.208c.123-.16.215-.355.276-.584.061-.23.092-.459.092-.688 0-.39-.08-.69-.24-.904a.784.784 0 0 0-.664-.32.999.999 0 0 0-.156.012.556.556 0 0 0-.132.036l-.2-.792c.117-.032.228-.053.332-.064.104-.01.193-.016.268-.016.277 0 .52.039.728.116.208.077.387.19.536.34.187.181.327.408.42.68.093.272.14.576.14.912 0 .427-.067.801-.2 1.124a2.246 2.246 0 0 1-.488.764c-.16.155-.357.277-.592.368-.235.09-.55.136-.944.136h-.536zM54.288 24.424c-.624 0-1.087-.156-1.388-.468-.301-.312-.452-.783-.452-1.412a11.263 11.263 0 0 1 .04-.768h1.832v.688h-.872v.128c0 .261.03.47.092.624a.638.638 0 0 0 .276.336c.123.07.277.104.464.104.203 0 .376-.043.52-.128.144-.085.255-.233.332-.444.077-.21.116-.505.116-.884 0-.341-.039-.625-.116-.852a.935.935 0 0 0-.38-.508c-.176-.112-.419-.168-.728-.168-.165 0-.33.016-.496.048a3.37 3.37 0 0 0-.476.128c-.152.053-.29.117-.412.192v-.872c.112-.064.25-.119.416-.164.165-.045.347-.083.544-.112.197-.03.395-.044.592-.044.501 0 .905.095 1.212.284.307.19.53.457.672.804.141.347.212.755.212 1.224 0 .48-.067.89-.2 1.228a1.519 1.519 0 0 1-.64.772c-.293.176-.68.264-1.16.264zM52.44 19.304v-.432l.72-.304H56v.736zM58.048 24.328l-1.312-4.384h1.024l1.048 3.552h.072a.56.56 0 0 0 .288-.08.888.888 0 0 0 .24-.208c.123-.16.215-.355.276-.584.061-.23.092-.459.092-.688 0-.39-.08-.69-.24-.904a.784.784 0 0 0-.664-.32.999.999 0 0 0-.156.012.556.556 0 0 0-.132.036l-.2-.792c.117-.032.228-.053.332-.064.104-.01.193-.016.268-.016.277 0 .52.039.728.116.208.077.387.19.536.34.187.181.327.408.42.68.093.272.14.576.14.912 0 .427-.067.801-.2 1.124a2.246 2.246 0 0 1-.488.764c-.16.155-.357.277-.592.368-.235.09-.55.136-.944.136h-.536z"/>
            </g>
        </g>
        <g transform="translate(40 124)" fill-rule="nonzero">
            <rect fill="#13875D" width="80" height="18" rx="4"/>
            <g fill="#FFF">
                <path d="M32.272 11.104c-.48 0-.864-.057-1.152-.172-.288-.115-.497-.276-.628-.484a1.325 1.325 0 0 1-.196-.72c0-.235.036-.424.108-.568a.845.845 0 0 1 .28-.332c.115-.077.23-.13.348-.156v-.048a1.552 1.552 0 0 1-.352-.176.87.87 0 0 1-.276-.304.968.968 0 0 1-.108-.48c0-.197.047-.381.14-.552.093-.17.244-.308.452-.412.208-.104.483-.156.824-.156.165 0 .325.012.48.036.155.024.275.057.36.1l-.184.808c-.043-.01-.1-.023-.172-.036a1.206 1.206 0 0 0-.22-.02c-.165 0-.288.039-.368.116a.399.399 0 0 0-.12.3c0 .128.035.227.104.296.07.07.159.117.268.144.11.027.223.04.34.04h.168v.744H32.2c-.23 0-.401.04-.516.12-.115.08-.172.21-.172.392 0 .096.023.19.068.284.045.093.124.17.236.232.112.061.272.092.48.092.197 0 .352-.03.464-.088a.528.528 0 0 0 .24-.236.749.749 0 0 0 .072-.332v-2.92h1.2v2.88c0 .55-.161.955-.484 1.216-.323.261-.828.392-1.516.392zM30.608 6.008v-.504l.808-.336h2.856v.84h-3.664zm1.68-.488v-.904h.76v.904h-.76zm1.232 0v-.904h.752v.904h-.752zM36.888 11.08c-.325 0-.599-.063-.82-.188a1.2 1.2 0 0 1-.504-.564c-.115-.25-.172-.557-.172-.92V6.616h1.2V9.2c0 .293.059.507.176.64.117.133.288.2.512.2a.76.76 0 0 0 .656-.324c.155-.216.232-.55.232-1.004V6.616h1.2V11h-.912l-.128-.672h-.072c-.09.213-.247.392-.468.536-.221.144-.521.216-.9.216zM42.416 11.104c-.48 0-.864-.057-1.152-.172-.288-.115-.497-.276-.628-.484a1.325 1.325 0 0 1-.196-.72c0-.235.036-.424.108-.568a.845.845 0 0 1 .28-.332c.115-.077.23-.13.348-.156v-.048a1.552 1.552 0 0 1-.352-.176.87.87 0 0 1-.276-.304.968.968 0 0 1-.108-.48c0-.197.047-.381.14-.552.093-.17.244-.308.452-.412.208-.104.483-.156.824-.156.165 0 .325.012.48.036.155.024.275.057.36.1l-.184.808c-.043-.01-.1-.023-.172-.036a1.206 1.206 0 0 0-.22-.02c-.165 0-.288.039-.368.116a.399.399 0 0 0-.12.3c0 .128.035.227.104.296.07.07.159.117.268.144.11.027.223.04.34.04h.168v.744h-.168c-.23 0-.401.04-.516.12-.115.08-.172.21-.172.392 0 .096.023.19.068.284.045.093.124.17.236.232.112.061.272.092.48.092.197 0 .352-.03.464-.088a.528.528 0 0 0 .24-.236.749.749 0 0 0 .072-.332v-2.92h1.2v2.88c0 .55-.161.955-.484 1.216-.323.261-.828.392-1.516.392zM43.24 6.008c-.25 0-.448-.037-.592-.112a.698.698 0 0 1-.4-.648 1.179 1.179 0 0 1 .16-.584l.872.112c-.01.037-.02.076-.028.116A.556.556 0 0 0 43.24 5c0 .075.023.132.068.172.045.04.121.06.228.06h1.72v.776H43.24zM47.032 11.08c-.325 0-.599-.063-.82-.188a1.2 1.2 0 0 1-.504-.564c-.115-.25-.172-.557-.172-.92V6.616h1.2V9.2c0 .293.059.507.176.64.117.133.288.2.512.2a.76.76 0 0 0 .656-.324c.155-.216.232-.55.232-1.004V6.616h1.2V11H48.6l-.128-.672H48.4c-.09.213-.247.392-.468.536-.221.144-.521.216-.9.216z"/>
            </g>
        </g>
        <g transform="translate(8 8)">
            <circle fill="#F5B964" cx="20" cy="20" r="20"/>
            <path d="M25.18 15.7a4.23 4.23 0 0 1-.287 1.599 4 4 0 0 1-.786 1.242 4.428 4.428 0 0 1-1.171.89c-.45.239-.936.42-1.46.546v.07c1.383.172 2.43.592 3.141 1.26.711.668 1.067 1.568 1.067 2.7 0 .75-.135 1.444-.405 2.08a4.37 4.37 0 0 1-1.242 1.66c-.558.468-1.262.833-2.11 1.095-.847.262-1.845.392-2.993.392-.922 0-1.79-.076-2.602-.228a10.21 10.21 0 0 1-2.273-.697v-3.082c.351.187.722.351 1.113.492.39.14.781.26 1.172.357.39.098.775.17 1.154.217.379.047.736.07 1.072.07.672 0 1.23-.062 1.676-.187.445-.125.8-.301 1.067-.528.265-.226.455-.498.568-.814.113-.316.17-.662.17-1.037 0-.352-.072-.67-.217-.955-.145-.285-.379-.528-.703-.727-.324-.199-.748-.353-1.272-.463-.523-.109-1.168-.164-1.933-.164h-1.219v-2.543h1.195c.72 0 1.317-.064 1.793-.193.477-.129.858-.305 1.143-.527.285-.223.486-.483.603-.78.118-.297.176-.613.176-.949 0-.61-.19-1.086-.568-1.43-.38-.343-.979-.515-1.799-.515-.375 0-.725.037-1.049.111a5.817 5.817 0 0 0-1.664.656c-.23.137-.44.272-.627.405l-1.828-2.414a8.304 8.304 0 0 1 1.072-.668c.387-.203.807-.381 1.26-.534a9.344 9.344 0 0 1 1.465-.357 10.348 10.348 0 0 1 1.676-.129c.843 0 1.611.092 2.302.275.692.184 1.284.45 1.776.797.492.348.873.774 1.142 1.278.27.504.405 1.08.405 1.728z" fill="#FFF" fill-rule="nonzero"/>
        </g>
    </g>
</svg>
