<svg width="40" height="40" viewBox="0 0 40 40" xmlns="http://www.w3.org/2000/svg">
    <g fill-rule="nonzero" fill="none">
        <path d="M33.885 7.058c-6.174 0-12.572-5.712-12.636-5.77a1.117 1.117 0 0 0-1.498 0c-.064.058-6.445 5.77-12.636 5.77C6.5 7.058 6 7.556 6 8.17v13.333c0 10.8 8.048 15.116 14.102 17.423a1.117 1.117 0 0 0 .796 0C29.386 35.692 35 30.647 35 21.504V8.17c0-.615-.5-1.113-1.115-1.113z" fill="#7C86C7"/>
        <path d="M20.5 12c-4.687 0-8.5 3.813-8.5 8.5 0 4.687 3.813 8.5 8.5 8.5 4.687 0 8.5-3.813 8.5-8.5 0-4.687-3.813-8.5-8.5-8.5zm3.287 8.144-3.643 3.643a1.21 1.21 0 0 1-1.717 0l-1.214-1.214a1.214 1.214 0 1 1 1.717-1.717l.356.355 2.784-2.784a1.214 1.214 0 1 1 1.717 1.717z" fill="#E8EAF5"/>
    </g>
</svg>
