<svg width="40" height="40" viewBox="0 0 40 40" xmlns="http://www.w3.org/2000/svg">
    <g fill="none" fill-rule="evenodd">
        <g transform="translate(4 2)">
            <path fill="#FFD4D7" d="M1.443 1.688h18.829v29.246H1.443z"/>
            <path d="M18.826 0H3.173A3.169 3.169 0 0 0 0 3.164v29.8A3.04 3.04 0 0 0 3.045 36h15.91A3.04 3.04 0 0 0 22 32.964v-29.8A3.169 3.169 0 0 0 18.826 0zm1.058 27.773c0 1.047-.863 1.899-1.924 1.899H4.037a1.915 1.915 0 0 1-1.921-1.796V3.164c0-.582.473-1.055 1.057-1.055h1.145c.22 0 .415.132.508.33a3.027 3.027 0 0 0 2.743 1.75h6.859a3.027 3.027 0 0 0 2.743-1.75.562.562 0 0 1 .508-.33h1.147c.585 0 1.058.473 1.058 1.055v24.61z" fill="#F1A5A4"/>
            <ellipse fill="#FFEEF0" cx="11.5" cy="32.51" rx="1.5" ry="1.51"/>
        </g>
        <path d="M35.323 10H20.677C19.2 10 18 11.172 18 12.618v9.356c0 1.446 1.199 2.618 2.677 2.618h7.795V27l3.18-2.408h3.67c1.48 0 2.678-1.172 2.678-2.618v-9.356C38 11.172 36.801 10 35.323 10z" fill="#F46A60"/>
        <path d="M28.443 21.558c2.928-1.545 4.444-2.86 4.444-4.897 0-2.81-3.456-3.513-4.444-1.405C27.315 13.078 24 13.85 24 16.66c0 2.037 1.516 3.352 4.443 4.897z" fill="#FFEEF0" fill-rule="nonzero"/>
    </g>
</svg>
