<svg width="160" height="160" viewBox="0 0 160 160" xmlns="http://www.w3.org/2000/svg">
    <defs>
        <linearGradient x1="0%" y1="100%" x2="74.201%" y2="30.001%" id="xchklfvgga">
            <stop stop-color="#FFF6C3" offset="0%"/>
            <stop stop-color="#B3E0E0" offset="100%"/>
        </linearGradient>
    </defs>
    <g fill="none" fill-rule="evenodd">
        <circle fill="url(#xchklfvgga)" cx="80" cy="80" r="80"/>
        <g transform="translate(57 37)">
            <rect fill="#29A8A5" width="46" height="87" rx="4"/>
            <rect fill="#096B65" x="1" y="8" width="44" height="69" rx="2"/>
            <rect fill="#088B86" fill-rule="nonzero" x="18" y="4" width="10" height="2" rx="1"/>
            <rect fill="#088B86" fill-rule="nonzero" x="20" y="79" width="6" height="6" rx="3"/>
        </g>
        <rect fill="#088B86" x="65" y="89" width="30" height="5" rx="2.5"/>
        <rect fill="#088B86" x="65" y="98" width="30" height="5" rx="2.5"/>
        <g fill-rule="nonzero">
            <path d="M120.806 104.902a4.074 4.074 0 0 0-4.435-.88 4.068 4.068 0 0 0-2.514 3.754v-1.356a4.07 4.07 0 0 0-4.071-4.067 4.07 4.07 0 0 0-4.072 4.067v-1.356c0-1.078-.43-2.113-1.194-2.874a3.852 3.852 0 0 0-1.52-.95 3.765 3.765 0 0 0-1.357-.243 4.07 4.07 0 0 0-4.072 4.067V91.505a4.07 4.07 0 0 0-4.071-4.068 4.07 4.07 0 0 0-4.071 4.068v23.05l-1.575-2.71-1.14-1.98a4.082 4.082 0 0 0-5.564-1.492 4.119 4.119 0 0 0-2.036 3.471 4.04 4.04 0 0 0 .543 2.088l5.85 10.115H122v-16.27c0-1.08-.43-2.114-1.194-2.875z" fill="#F8CD8E"/>
            <path d="M97.571 103.708c-.75 0-1.357.608-1.357 1.356v5.424a1.357 1.357 0 0 0 2.715 0v-5.424c0-.748-.608-1.356-1.358-1.356zM105.714 105.064c-.75 0-1.357.607-1.357 1.356v4.068a1.357 1.357 0 0 0 2.714 0v-4.068c0-.749-.607-1.356-1.357-1.356zM113.857 105.064c-.75 0-1.357.607-1.357 1.356v4.068a1.357 1.357 0 0 0 2.714 0v-4.068c0-.749-.607-1.356-1.357-1.356z" fill="#F5B964"/>
            <g fill="#F8CD8E">
                <path d="M68.632 91.246a4.073 4.073 0 0 0-4.582 1.9l-7.03 12.176c-.073-.354-.073-9.461 0-27.322-1.824.258-3.555 1.422-4.33 3.092L47.25 92.875a13.441 13.441 0 0 0-1.25 5.68v25.492l23.072-.013v-7.24a8.163 8.163 0 0 0-1.167-4.19l-.461-.76L65 107.776l6.107-10.562c.356-.62.543-1.32.543-2.034a4.068 4.068 0 0 0-3.018-3.934z"/>
            </g>
        </g>
        <g transform="translate(64 53)" fill-rule="nonzero">
            <circle fill="#F3AA49" cx="16" cy="16" r="16"/>
            <circle fill="#FCE455" cx="16" cy="16" r="11.2"/>
            <path d="M20 18.157c0 .847-.28 1.509-.84 1.984-.561.476-1.377.748-2.449.816v1.444h-1.903v-1.426H12v-9.966h2.808V9.6h1.903v1.46c.973.104 1.712.382 2.217.834.505.452.758 1.057.758 1.813 0 .504-.11.939-.333 1.306-.221.366-.554.647-.997.841.554.195.967.481 1.238.86.27.377.406.859.406 1.443zm-5.727-3.024h1.551c.53 0 .927-.086 1.192-.258.265-.172.397-.487.397-.945 0-.458-.132-.773-.397-.945-.265-.172-.662-.258-1.192-.258h-1.551v2.406zm1.866 4.123c.53 0 .926-.097 1.191-.292.265-.194.397-.51.397-.945 0-.435-.132-.744-.397-.928-.265-.183-.662-.274-1.191-.274h-1.866v2.44h1.866z" fill="#F3AA49"/>
        </g>
        <g transform="translate(4 4)">
            <circle fill="#F5B964" cx="20" cy="20" r="20"/>
            <path d="M25.848 29H14.352v-2.52l4.03-4.347c.509-.547.97-1.051 1.384-1.512.414-.46.77-.91 1.066-1.348.297-.437.527-.882.691-1.335a4.27 4.27 0 0 0 .247-1.465c0-.578-.174-1.028-.522-1.348-.348-.32-.814-.48-1.4-.48-.618 0-1.211.152-1.782.457-.57.304-1.168.738-1.793 1.3l-1.968-2.332c.351-.32.718-.627 1.101-.92a7.568 7.568 0 0 1 1.266-.779c.46-.226.969-.408 1.523-.545a7.798 7.798 0 0 1 1.864-.205c.82 0 1.556.113 2.209.34a4.79 4.79 0 0 1 1.67.967c.46.418.814.924 1.06 1.517.246.594.37 1.262.37 2.004 0 .672-.118 1.315-.352 1.928a8.59 8.59 0 0 1-.961 1.805 16.09 16.09 0 0 1-1.412 1.757 51.101 51.101 0 0 1-1.717 1.776l-2.063 2.074v.164h6.985V29z" fill="#FFF" fill-rule="nonzero"/>
        </g>
    </g>
</svg>
