<svg width="40" height="40" viewBox="0 0 40 40" xmlns="http://www.w3.org/2000/svg">
    <g transform="translate(1 2)" fill-rule="nonzero" fill="none">
        <circle fill="#F3AA49" cx="26" cy="10" r="10"/>
        <circle fill="#FCE455" cx="26" cy="10" r="7"/>
        <path d="m0 28.719 9.216-7.033a6.384 6.384 0 0 1 3.125-1.28 6.319 6.319 0 0 1 5.3 1.752l8.541 1.835a1.97 1.97 0 0 1 .788 3.486l7.867-6a1.97 1.97 0 1 1 2.388 3.13l-10.668 8.14a3.252 3.252 0 0 1-1.97.667l-15.646.002L5.556 36 0 28.719z" fill="#F8CD8E"/>
        <path d="M28.9 26.007a3.133 3.133 0 0 1-3.79 2.98l-8.54-1.837a.583.583 0 0 1 .244-1.14l8.543 1.833c.136.03.275.046.414.047.45 0 .885-.156 1.233-.44a.27.27 0 0 1-.033.03l1.93-1.473zM28.5 11.348c0 .53-.175.943-.525 1.24-.35.297-.86.467-1.53.51V14h-1.19v-.891H23.5V6.88h1.755V6h1.19v.913c.608.064 1.07.238 1.385.52.316.283.474.661.474 1.133 0 .315-.07.587-.208.817-.139.229-.347.404-.624.526.347.121.605.3.774.537.17.236.254.537.254.902zm-3.58-1.89h.97c.331 0 .58-.054.745-.161.166-.108.248-.305.248-.591s-.082-.483-.248-.59c-.165-.108-.414-.162-.745-.162h-.97v1.504zm1.167 2.577c.33 0 .579-.061.744-.183.166-.121.249-.318.249-.59 0-.272-.083-.466-.249-.58-.165-.115-.413-.172-.744-.172H24.92v1.525h1.167z" fill="#F3AA49"/>
        <path d="m14.927 15.62-1.424.795a.143.143 0 0 0-.056.057l-.778 1.453a.14.14 0 0 1-.248 0l-.778-1.453a.142.142 0 0 0-.056-.057l-1.423-.794a.145.145 0 0 1 0-.253l1.423-.794a.142.142 0 0 0 .056-.058l.778-1.452a.14.14 0 0 1 .248 0l.778 1.452a.143.143 0 0 0 .056.058l1.424.794a.145.145 0 0 1 0 .253z" fill="#FAE0BA"/>
        <path d="m8.313 9.154.899.502a.145.145 0 0 1 0 .252l-.899.502a.143.143 0 0 0-.056.057l-.49.917a.14.14 0 0 1-.248 0l-.491-.917a.143.143 0 0 0-.057-.057l-.898-.502a.145.145 0 0 1 0-.252l.898-.502a.143.143 0 0 0 .057-.057l.49-.917a.14.14 0 0 1 .248 0l.491.917a.143.143 0 0 0 .056.057z" fill="#F3AA49"/>
        <path d="m12.672 3.049.898.501a.145.145 0 0 1 0 .253l-.898.501a.143.143 0 0 0-.057.057l-.49.917a.14.14 0 0 1-.248 0l-.491-.917a.143.143 0 0 0-.056-.057l-.899-.501a.145.145 0 0 1 0-.253l.899-.501a.143.143 0 0 0 .056-.057l.49-.917a.14.14 0 0 1 .248 0l.491.917a.142.142 0 0 0 .057.057z" fill="#F3D373"/>
    </g>
</svg>
