<svg width="160" height="160" viewBox="0 0 160 160" xmlns="http://www.w3.org/2000/svg">
    <defs>
        <linearGradient x1="0%" y1="100%" x2="100%" y2="0%" id="1288da0rua">
            <stop stop-color="#F9F2E4" offset="0%"/>
            <stop stop-color="#CCE9DC" offset="100%"/>
        </linearGradient>
    </defs>
    <g fill="none" fill-rule="evenodd">
        <rect fill="url(#1288da0rua)" width="160" height="160" rx="24"/>
        <g transform="translate(32 12)">
            <path d="M8 0h80a8 8 0 0 1 8 8v140H0V8a8 8 0 0 1 8-8z" fill="#29A8A5"/>
            <path d="M6 13h84a4 4 0 0 1 4 4v131H2V17a4 4 0 0 1 4-4z" fill="#B3E0E0" fill-rule="nonzero"/>
            <rect fill="#088B86" fill-rule="nonzero" x="39" y="6" width="18" height="3" rx="1.5"/>
        </g>
        <g fill="#094F48" fill-rule="nonzero">
            <path d="m47.49 50-2.407-7.84h-.062c.087 1.594.13 2.658.13 3.192V50h-1.893v-9.994h2.885l2.365 7.642h.04l2.51-7.642h2.884V50h-1.975v-4.73c0-.224.003-.481.01-.773.007-.292.038-1.066.092-2.324h-.061L49.43 50h-1.942zM57.755 46.165c0 .757.124 1.328.373 1.716.248.387.652.58 1.213.58.556 0 .956-.192 1.2-.577.244-.385.365-.958.365-1.719 0-.756-.123-1.324-.369-1.702-.246-.378-.65-.567-1.21-.567-.556 0-.957.187-1.203.563-.246.376-.369.945-.369 1.706zm5.284 0c0 1.244-.328 2.217-.984 2.919-.656.702-1.57 1.053-2.741 1.053-.734 0-1.381-.16-1.942-.482a3.207 3.207 0 0 1-1.292-1.384c-.3-.602-.45-1.304-.45-2.106 0-1.249.325-2.22.977-2.912.651-.693 1.567-1.04 2.748-1.04.733 0 1.38.16 1.941.48.56.318.991.776 1.292 1.373.3.597.451 1.297.451 2.099zM68.814 42.214c.902 0 1.609.352 2.119 1.056.51.704.766 1.67.766 2.895 0 1.262-.264 2.24-.79 2.933-.526.692-1.243 1.039-2.15 1.039-.898 0-1.602-.326-2.112-.978h-.144l-.348.841h-1.593V39.363h2.085v2.475c0 .314-.027.818-.082 1.51h.082c.488-.756 1.21-1.134 2.167-1.134zm-.67 1.668c-.515 0-.891.158-1.128.475-.237.317-.36.84-.37 1.569v.225c0 .82.123 1.409.367 1.764.243.356.63.533 1.158.533.429 0 .77-.197 1.022-.591.253-.394.38-.967.38-1.72 0-.751-.128-1.315-.383-1.691-.255-.376-.604-.564-1.046-.564zM73.132 40.382c0-.68.379-1.019 1.135-1.019.757 0 1.135.34 1.135 1.019 0 .323-.095.575-.284.755-.189.18-.473.27-.85.27-.757 0-1.136-.342-1.136-1.025zM75.306 50h-2.085v-7.643h2.085V50zM79.379 50h-2.085V39.363h2.085zM84.531 43.697c-.442 0-.788.14-1.039.42-.25.28-.394.679-.43 1.194h2.925c-.009-.515-.143-.913-.403-1.193s-.61-.42-1.053-.42zm.294 6.44c-1.23 0-2.192-.34-2.885-1.019-.692-.679-1.039-1.64-1.039-2.885 0-1.28.32-2.27.96-2.97.641-.7 1.526-1.05 2.657-1.05 1.08 0 1.92.308 2.522.924.602.615.902 1.465.902 2.55v1.011h-4.928c.022.593.198 1.055.526 1.388.328.333.788.499 1.38.499.461 0 .896-.048 1.307-.144.41-.095.838-.248 1.285-.458v1.614a4.896 4.896 0 0 1-1.17.406c-.414.09-.92.134-1.517.134zM43.258 56.006h3.11c1.417 0 2.446.202 3.087.605.64.403.96 1.045.96 1.924 0 .597-.14 1.087-.42 1.47a1.68 1.68 0 0 1-1.118.69v.069c.633.14 1.09.405 1.37.793.28.387.421.902.421 1.545 0 .911-.33 1.622-.988 2.132-.658.51-1.553.766-2.683.766h-3.74v-9.994zm2.119 3.958h1.23c.575 0 .99-.089 1.248-.267.257-.177.386-.471.386-.882 0-.382-.14-.657-.42-.823-.28-.167-.724-.25-1.33-.25h-1.114v2.222zm0 1.682v2.604h1.38c.584 0 1.015-.112 1.293-.335.278-.223.417-.565.417-1.025 0-.83-.593-1.244-1.778-1.244h-1.312zM57.154 66l-.404-1.04h-.054c-.351.443-.713.75-1.084.92-.371.171-.856.257-1.453.257-.733 0-1.311-.21-1.733-.63-.421-.418-.632-1.015-.632-1.79 0-.811.284-1.41.851-1.795.568-.385 1.423-.598 2.567-.639l1.326-.04v-.336c0-.775-.396-1.162-1.19-1.162-.61 0-1.328.185-2.152.554l-.69-1.408c.879-.46 1.854-.69 2.925-.69 1.025 0 1.811.223 2.358.67.547.446.82 1.125.82 2.036V66h-1.455zm-.616-3.541-.806.027c-.606.019-1.058.128-1.354.328-.296.201-.444.506-.444.916 0 .588.337.882 1.012.882.483 0 .869-.139 1.158-.417.29-.278.434-.647.434-1.107v-.629zM67.61 66h-2.084v-4.464c0-.551-.098-.965-.294-1.24-.196-.276-.508-.414-.937-.414-.583 0-1.005.195-1.264.584-.26.39-.39 1.036-.39 1.938V66h-2.085v-7.643h1.593l.28.978h.116c.233-.37.553-.648.96-.837a3.27 3.27 0 0 1 1.392-.284c.889 0 1.563.24 2.023.721.46.48.69 1.175.69 2.082V66zM71.56 61.844l.91-1.162 2.139-2.325h2.352l-3.036 3.316L77.145 66H74.74l-2.201-3.097-.896.718V66h-2.085V55.363h2.085v4.744l-.11 1.737zM77.95 56.382c0-.68.378-1.019 1.135-1.019.756 0 1.135.34 1.135 1.019 0 .323-.095.575-.284.755-.19.18-.473.27-.851.27-.757 0-1.135-.342-1.135-1.025zM80.124 66h-2.085v-7.643h2.085V66zM89.166 66h-2.085v-4.464c0-.551-.098-.965-.294-1.24-.196-.276-.508-.414-.936-.414-.584 0-1.005.195-1.265.584-.26.39-.39 1.036-.39 1.938V66h-2.085v-7.643h1.593l.28.978h.117c.232-.37.552-.648.96-.837a3.27 3.27 0 0 1 1.391-.284c.889 0 1.563.24 2.024.721.46.48.69 1.175.69 2.082V66zM94.278 64.503c.56 0 .961-.16 1.203-.482.241-.321.362-.842.362-1.562v-.253c0-.816-.126-1.402-.38-1.76-.252-.358-.66-.537-1.22-.537-.98 0-1.47.77-1.47 2.31 0 .766.123 1.338.366 1.717.244.378.624.567 1.139.567zm3.513 1.51c0 1.099-.32 1.932-.96 2.5-.64.567-1.594.85-2.861.85-1.117 0-2.07-.15-2.857-.45v-1.669a7.56 7.56 0 0 0 2.98.588c1.07 0 1.606-.579 1.606-1.736v-.15l.062-.937h-.062c-.487.752-1.21 1.128-2.167 1.128-.916 0-1.625-.353-2.129-1.06-.504-.706-.755-1.668-.755-2.885 0-1.253.26-2.23.782-2.929.522-.7 1.241-1.05 2.157-1.05.939 0 1.677.375 2.215 1.122h.055l.17-.978h1.764v7.657z"/>
        </g>
        <g transform="translate(44 77)">
            <rect fill="#82CCCC" width="32" height="32" rx="8"/>
            <g transform="translate(0 40)">
                <rect fill="#088B86" width="32" height="32" rx="8"/>
                <path d="M22.5 19.038c0 1.39-.455 2.475-1.366 3.255-.91.78-2.237 1.226-3.978 1.34V26h-3.092v-2.34H9.5V7.311h4.564V5h3.092v2.396c1.581.17 2.782.625 3.603 1.367.82.742 1.23 1.734 1.23 2.974 0 .827-.18 1.54-.54 2.142-.36.602-.9 1.062-1.621 1.381.9.32 1.571.79 2.011 1.41.44.62.661 1.41.661 2.368zm-9.307-4.961h2.522c.86 0 1.506-.141 1.936-.423.43-.282.646-.799.646-1.55 0-.752-.215-1.27-.646-1.551-.43-.282-1.076-.423-1.936-.423h-2.522v3.947zm3.032 6.765c.86 0 1.506-.16 1.937-.48.43-.319.645-.836.645-1.55 0-.714-.215-1.221-.645-1.522-.43-.3-1.076-.451-1.937-.451h-3.032v4.003h3.032z" fill="#FFF" fill-rule="nonzero"/>
            </g>
            <rect fill="#B3E0E0" x="40" width="32" height="32" rx="8"/>
            <rect fill="#82CCCC" x="40" y="40" width="32" height="32" rx="8"/>
        </g>
        <path d="M72.42 109.73a39.82 39.82 0 0 1-6.41-22.673c.502-21.732 18.58-39.23 40.317-39.056 21.83.175 39.494 17.837 39.672 39.666.178 21.865-17.526 40.002-39.389 40.328a39.816 39.816 0 0 1-22.835-6.74l-13.262 4.64c-1.683.588-3.303-1.024-2.723-2.71l4.63-13.455z" fill="#FFF" fill-rule="nonzero"/>
        <path d="M118.928 100H90.809C88.705 100 87 98.26 87 96.113c0-2.147 1.705-3.887 3.81-3.887h28.118c2.104 0 3.81 1.74 3.81 3.887 0 2.147-1.706 3.887-3.81 3.887zM120.012 76.286l1.96-2 1.96 2 2.068-2V64.78c0-2.64-2.098-4.781-4.686-4.781h-13.35v16.618h7.802l2.285-2.332 1.96 2z" fill="#29A8A5"/>
        <path d="M118.052 97.468H91.646a1.247 1.247 0 0 1-1.234-1.26c0-.695.553-1.259 1.234-1.259h26.406c.681 0 1.234.564 1.234 1.26 0 .695-.553 1.26-1.234 1.26z" fill="#096B65"/>
        <path d="M121.607 60H96.332c-2.588 0-4.686 2.14-4.686 4.781V96.21h26.406V64.78c0-3.138.967-4.781 3.555-4.781z" fill="#E1F2F3" fill-rule="nonzero"/>
        <path d="M96.684 68.224h10.475a1.262 1.262 0 0 1 0 2.524H96.684a1.262 1.262 0 0 1 0-2.524zM111.842 68.224h1.253a1.262 1.262 0 1 1 0 2.524h-1.253a1.262 1.262 0 0 1 0-2.524zM96.684 75.113h10.475a1.262 1.262 0 1 1 0 2.525H96.684a1.262 1.262 0 0 1 0-2.525zM111.842 75.113h1.253a1.262 1.262 0 1 1 0 2.525h-1.253a1.262 1.262 0 0 1 0-2.525zM96.684 82.213h10.475a1.262 1.262 0 1 1 0 2.524H96.684a1.262 1.262 0 0 1 0-2.524zM111.842 82.213h1.253a1.262 1.262 0 1 1 0 2.524h-1.253a1.262 1.262 0 0 1 0-2.524z" fill="#82CCCC"/>
        <g fill="#094F48" fill-rule="nonzero">
            <path d="M87.667 115v-3.22h-.798v-1.288h2.688v2.912h.098c.308 0 .572-.084.791-.252.22-.168.385-.418.497-.749.112-.331.168-.749.168-1.253 0-.579-.082-1.038-.245-1.379a1.494 1.494 0 0 0-.721-.735c-.317-.15-.71-.224-1.176-.224-.485 0-.924.068-1.316.203a5.456 5.456 0 0 0-1.05.483v-1.75a5.693 5.693 0 0 1 1.162-.42 6.425 6.425 0 0 1 1.61-.182c.905 0 1.64.145 2.205.434.565.29.982.728 1.253 1.316.27.588.406 1.325.406 2.212 0 .83-.124 1.538-.371 2.121a2.622 2.622 0 0 1-1.204 1.323c-.555.299-1.295.448-2.219.448h-1.778zM90.845 106.264v-3.178h1.932v3.178zM96.893 115v-5.068c0-.392-.091-.677-.273-.854-.182-.177-.478-.266-.889-.266-.308 0-.59.042-.847.126a4.352 4.352 0 0 0-.721.308v-1.68a5.47 5.47 0 0 1 2.184-.42c.513 0 .968.075 1.365.224.397.15.71.399.938.749.229.35.343.828.343 1.435V115h-2.1zM104.201 115.182c-.84 0-1.512-.1-2.016-.301-.504-.2-.87-.483-1.099-.847a2.318 2.318 0 0 1-.343-1.26c0-.41.063-.742.189-.994s.29-.446.49-.581c.2-.135.404-.226.609-.273v-.084a2.716 2.716 0 0 1-.616-.308 1.523 1.523 0 0 1-.483-.532c-.126-.224-.189-.504-.189-.84 0-.345.082-.667.245-.966.163-.299.427-.539.791-.721.364-.182.845-.273 1.442-.273.29 0 .57.021.84.063.27.042.48.1.63.175l-.322 1.414a5.218 5.218 0 0 0-.301-.063 2.11 2.11 0 0 0-.385-.035c-.29 0-.504.068-.644.203a.698.698 0 0 0-.21.525c0 .224.06.397.182.518a.973.973 0 0 0 .469.252c.191.047.39.07.595.07h.294v1.302h-.294c-.401 0-.702.07-.903.21-.2.14-.301.369-.301.686 0 .168.04.334.119.497.08.163.217.299.413.406.196.107.476.161.84.161.345 0 .616-.051.812-.154a.923.923 0 0 0 .42-.413 1.31 1.31 0 0 0 .126-.581v-5.11h2.1v5.04c0 .961-.282 1.67-.847 2.128-.565.457-1.449.686-2.653.686zM113.119 115.182c-1.213 0-2.093-.282-2.639-.847-.546-.565-.819-1.384-.819-2.457v-4.55h2.1v4.662c0 .495.11.87.329 1.127.22.257.562.385 1.029.385.467 0 .81-.128 1.029-.385.22-.257.329-.632.329-1.127v-4.662h2.1v4.55c0 1.073-.273 1.892-.819 2.457-.546.565-1.426.847-2.639.847zM110.165 106.264v-.882l1.414-.588h4.998v1.47zM122.905 115v-4.984c0-.448-.121-.77-.364-.966-.243-.196-.616-.294-1.12-.294-.485 0-.959.072-1.421.217a5.84 5.84 0 0 0-1.197.511v-1.736c.27-.13.653-.264 1.148-.399.495-.135 1.069-.203 1.722-.203.476 0 .912.049 1.309.147.397.098.744.261 1.043.49.299.229.53.532.693.91.163.378.245.847.245 1.407v4.9h-2.058zm-2.296.14c-.803 0-1.421-.191-1.855-.574-.434-.383-.651-.92-.651-1.61 0-.747.268-1.344.805-1.792.537-.448 1.384-.719 2.541-.812l1.792-.14v1.512l-1.554.154c-.56.056-.95.168-1.169.336a.804.804 0 0 0-.329.672c0 .28.091.49.273.63.182.14.418.21.707.21.112 0 .224-.012.336-.035.112-.023.215-.049.308-.077l.182 1.316a3.276 3.276 0 0 1-.63.154 4.967 4.967 0 0 1-.756.056z"/>
        </g>
        <g transform="translate(8 8)">
            <circle fill="#F5B964" cx="20" cy="20" r="20"/>
            <path d="M22.965 29h-3.621v-9.914c0-.203.002-.447.006-.732.004-.286.011-.583.023-.891l.035-.932c.012-.312.022-.597.03-.855a3.58 3.58 0 0 1-.2.21 26.37 26.37 0 0 1-.68.657 6.163 6.163 0 0 1-.363.316l-1.968 1.582-1.758-2.18 5.52-4.394h2.976V29z" fill="#FFF" fill-rule="nonzero"/>
        </g>
    </g>
</svg>
