<svg width="64" height="64" viewBox="0 0 64 64" xmlns="http://www.w3.org/2000/svg">
    <g fill="none" fill-rule="evenodd">
        <circle stroke="#CCC" stroke-width=".8" fill="#FFF" cx="32" cy="32" r="30.8"/>
        <path d="M32.536 26.016v2h6.547v-6h-4.026v-2h4.026v-6.008h-6.547v2.001h4.527v2.005h-4.034v6.002h4.034v2h-4.527zM20.9 21.018c0-6.073 4.97-11.005 11.1-11.005 6.128 0 11.099 4.932 11.099 11.005 0 6.076-4.97 11.004-11.099 11.004-6.13 0-11.1-4.928-11.1-11.004m-2.034 0C18.865 13.826 24.742 8 32 8c7.255 0 13.136 5.826 13.136 13.018 0 7.193-5.881 13.02-13.136 13.02-7.257 0-13.134-5.827-13.134-13.02m12.655-5.012v-2.001h-6.556v6.003h4.017v2.002h-4.017v6.003h6.556v-2H26.98v-2h4.033v-6.008h-4.033v-1.999" fill="#C9000D"/>
        <path d="M31.534 45.249v-.022h3.608c.33 0 .804.051 1.184.297.355.23.535.57.535 1.009 0 .352-.098.625-.287.814-.355.35-.966.35-1.412.35h-3.64v-.023l.012-2.425zm0-1.918v-2.155h3.303c.58 0 1.555 0 1.555 1.136 0 .416-.182.712-.543.877-.322.149-.728.166-1.005.166h-3.31v-.024zm3.743 6.269c1.25 0 2.195-.3 2.804-.89.627-.609.758-1.391.758-1.941 0-1.205-.509-2.041-1.516-2.485l-.044-.02.043-.02c.454-.236 1.055-.713 1.055-2.14 0-.784-.3-1.49-.848-1.988-.599-.547-1.472-.835-2.524-.835l-5.452-.005v10.32M15.2 49.6h2.077V39.28H15.2V49.6zm3.763-5.248c0 .998.17 1.822.522 2.518.292.58.704 1.068 1.301 1.538.93.733 2.236 1.104 3.885 1.104h2.842v-1.948H24.83c-1.492 0-2.577-.367-3.219-1.09-.455-.515-.69-1.205-.696-2.057-.007-.913.252-1.64.77-2.157.649-.649 1.706-.977 3.145-.977h2.683v-1.931h-2.742c-.923 0-1.698.092-2.369.276-.669.187-1.22.466-1.681.852-.657.548-1.758 1.78-1.758 3.872m21.13 0c0 .996.175 1.875.522 2.61.302.637.74 1.185 1.303 1.631.87.688 2.106 1.007 3.884 1.007H48.8v-1.948h-2.839c-1.49 0-2.574-.381-3.22-1.135-.454-.53-.687-1.237-.696-2.1-.008-.94.261-1.688.798-2.225.652-.651 1.701-.982 3.118-.982H48.8v-1.93h-2.898c-.923 0-1.698.091-2.368.278-.67.185-1.222.463-1.682.85-.528.44-1.759 1.708-1.759 3.944" fill="#211F20" fill-rule="nonzero"/>
        <path d="M32.536 26.016v2h6.547v-6h-4.026v-2h4.026v-6.008h-6.547v2.001h4.527v2.005h-4.034v6.002h4.034v2h-4.527zM20.9 21.018c0-6.073 4.97-11.005 11.1-11.005 6.128 0 11.099 4.932 11.099 11.005 0 6.076-4.97 11.004-11.099 11.004-6.13 0-11.1-4.928-11.1-11.004zm-2.034 0C18.865 13.826 24.742 8 32 8c7.255 0 13.136 5.826 13.136 13.018 0 7.193-5.881 13.02-13.136 13.02-7.257 0-13.134-5.827-13.134-13.02zm12.655-5.012v-2.001h-6.556v6.003h4.017v2.002h-4.017v6.003h6.556v-2H26.98v-2h4.033v-6.008h-4.033v-1.999h4.539z" stroke="#C9000D" stroke-width=".5"/>
    </g>
</svg>
