<svg width="64" height="64" viewBox="0 0 64 64" xmlns="http://www.w3.org/2000/svg">
    <defs>
        <linearGradient x1=".001%" y1="50.017%" x2="100.019%" y2="50.017%" id="0vknrc1rda">
            <stop stop-color="#EE4037" offset="0%"/>
            <stop stop-color="#B4202B" offset="100%"/>
        </linearGradient>
        <linearGradient x1="-.027%" y1="49.992%" x2="99.968%" y2="49.992%" id="6gk3mhd01b">
            <stop stop-color="#EE4037" offset="0%"/>
            <stop stop-color="#B4202B" offset="100%"/>
        </linearGradient>
        <linearGradient x1="-.004%" y1="49.996%" x2="99.998%" y2="49.996%" id="nhc6rka7nc">
            <stop stop-color="#2A3B8F" offset="0%"/>
            <stop stop-color="#1D76BB" offset="100%"/>
        </linearGradient>
        <linearGradient x1="49.999%" y1="100.02%" x2="49.999%" y2=".021%" id="9m3fuy4dud">
            <stop stop-color="#2A3B8F" offset="0%"/>
            <stop stop-color="#1D76BB" offset="100%"/>
        </linearGradient>
    </defs>
    <g fill="none" fill-rule="evenodd">
        <rect fill="#0060BA" width="64" height="64" rx="32"/>
        <g fill-rule="nonzero">
            <path d="M29.07 39.06c-5.264.006-8.696-2.531-8.91-2.694l-2.079-1.841-.028-.051-.039-.034c-.045-.045-1.045-1.094-1.45-1.6l-.27-.342 5.529-10.64-4.073-4.092.427-.477c2.899-3.223 5.938-5.614 9.034-7.102 2.567-1.23 5.185-1.858 7.792-1.858 5.354-.006 8.78 2.593 8.921 2.7.77.573 1.944 1.516 2.146 1.842l.028.044.04.04c.595.595 1.1 1.15 1.505 1.667l.27.343-5.54 10.667 3.95 3.997-.427.477c-2.899 3.223-5.938 5.614-9.04 7.102-2.555 1.23-5.179 1.853-7.786 1.853z" fill="#FFF"/>
            <path d="m1.584 8.73 7.169 7.203s2.393-4.873 6.809-8.741c2.78-2.437 6.365-4.47 10.651-4.632.062-.005.124-.005.186-.005.005.005-11.377-8.77-24.815 6.175z" fill="url(#0vknrc1rda)" transform="translate(17.104 9.014)"/>
            <path d="M21.118 13.379s-2.399 4.923-6.809 8.791c-2.78 2.437-6.365 4.47-10.652 4.632-.061 0-.123.006-.185.011 0 0 11.382 8.775 24.82-6.17l-7.174-7.264z" fill="url(#6gk3mhd01b)" transform="translate(17.104 9.014)"/>
            <path d="M27.258 3.217c-6.303.006-9.567 3.194-10.578 4.272 1.758.77 5.04 2.937 8.399 8.023l4.927-9.488c-.843-1.061-2-2.156-2.748-2.807z" fill="url(#nhc6rka7nc)" transform="translate(17.104 9.014)"/>
            <path d="M13.191 22.03c-1.787-.808-4.983-3.138-8.264-8.107L0 23.406c.826 1.038 2.062 2.223 3.011 3.02 4.062-.707 6.792-1.258 10.18-4.396z" fill="url(#9m3fuy4dud)" transform="translate(17.104 9.014)"/>
            <g fill="#FFF">
                <path d="M47.767 46.095a1.995 1.995 0 0 0-.152.46c-.101.32-.174.674-.18.966-.016.624.124 1.084.433 1.404.416.438 1.174.651 2.286.674 2.23.045 3.618-.927 4.147-2.897.084-.332.129-.64.14-.91.017-.539-.135-.971-.438-1.28-.433-.443-1.18-.685-2.27-.685-1 0-1.865.202-2.54.567-.544.298-.937.674-1.162 1.117h1.792c.101-.168.258-.325.472-.46a1.841 1.841 0 0 1 1.045-.303c.455 0 .792.112 1.006.331.19.197.286.483.275.848-.006.236-.056.51-.14.82-.203.758-.495 1.29-.866 1.588-.292.242-.69.365-1.185.365-.455 0-.781-.106-.983-.308-.158-.163-.236-.388-.225-.669a3.97 3.97 0 0 1 .107-.544l.061-.202h.512l.23-.876h-2.365v-.006zM9.75 49.531h1.59l1.522-5.603h-1.6zM29.104 43.923c-.652 0-1.236.252-1.742.752-.528.522-.915 1.252-1.151 2.161-.057.197-.096.371-.118.528-.023.163-.04.326-.04.472-.01.572.118 1.005.4 1.291.303.309.775.41 1.426.399h1.14l.242-.927c-.5-.005-.87-.123-1.09-.353-.174-.18-.264-.433-.252-.747 0-.101.01-.208.039-.331.022-.113.05-.242.079-.376.219-.865.55-1.438.977-1.707a.236.236 0 0 1 .118-.034c.079 0 .135.045.14.05l.467.41c.1.096.247.197.298.197.09 0 .247-.09.297-.124l1.135-.684-1.241 4.631h1.6l1.5-5.603h-1.836l-.742.472c-.034.022-.202.135-.315.146h-.016a.22.22 0 0 1-.124-.04l-.54-.404a.785.785 0 0 0-.325-.151 1.943 1.943 0 0 0-.242-.023h-.011c-.028-.005-.05-.005-.073-.005zM20.402 43.928l-.865 3.178c-.113.382-.18.719-.197 1.039-.034.488.062.847.28 1.083.231.247.613.365 1.147.365.887 0 1.635-.326 2.247-.971l.253-.264-.343 1.173h1.59c.09-.292.32-1.128.584-2.094l.961-3.509h-1.607l-.826 2.852c-.095.27-.146.36-.168.405-.006.005-.006.01-.006.01l-.005.018c-.422.786-1.023 1.257-1.601 1.257-.27 0-.49-.078-.635-.236a.674.674 0 0 1-.174-.527c.016-.264.1-.595.146-.77l.82-3.003h-1.601v-.006zM43.924 42.878l4.652.012.168-.69-3.19-.007.292-1.05h-.478c-.983.04-1.478.141-1.556.158l-.135.466.567-.006-.32 1.117zM38.25 45.147l.112.005-1.18 4.38h1.703l1.505-5.604h-2.865c-.983 0-2.106.05-2.966.803-.522.46-.854 1.056-1.135 2.072a3.016 3.016 0 0 0-.123.522c-.029.18-.034.398-.04.51-.017.55.118.972.393 1.258.315.32.849.45 1.551.433h.978l.275-.944c-.562-.005-.995-.151-1.253-.415a.939.939 0 0 1-.264-.719c.006-.095.017-.207.04-.33.022-.119.05-.242.084-.377.123-.46.449-1.269 1.252-1.55.012 0 .124-.044.208-.056l1.725.012zM33.593 42.873l.275-1.005-1.584-.084c-1.86.078-3.635.224-3.983.247l-.225.842h5.517zM16.357 48.324a.266.266 0 0 1-.45.068l-.01-.017a.652.652 0 0 1-.074-.124c-.163-.353-1.017-2.582-1.191-3.07h-1.59l1.438 3.862c.028.05.152.483.635.483h2.545l1.511-5.603h-2.443l-.225.847h.809l-.955 3.537v.017zM19.53 42.873l.276-1.005-1.59-.084c-1.86.078-3.635.224-3.983.247l-.225.842h5.523zM46.89 44.417c-.376-.388-1.134-.573-2.32-.573-1.005 0-1.831.163-2.45.483-.567.297-.932.69-1.112 1.19h1.826c.101-.258.287-.455.573-.606.27-.13.573-.197.916-.197.483 0 .803.09.983.27a.562.562 0 0 1 .157.42c0 .08-.01.141-.028.186l-.05.191-.045.146c-.017.056-.028.101-.034.112l-.005.056h-.27l-2.028.006h-.068c-.36 0-.69.045-.983.135a3.034 3.034 0 0 0-.814.381 2.39 2.39 0 0 0-.573.568 1.966 1.966 0 0 0-.31.662c-.145.59-.056 1.027.282 1.33.297.27.735.354 2.044.349h.253l.264-.87c-.005.016-.342 0-.376-.006a.893.893 0 0 1-.365-.084c-.287-.14-.377-.45-.31-.753.046-.185.17-.342.36-.477a1.2 1.2 0 0 1 .697-.196h.028l1.899.005-.646 2.38h1.674l1.062-3.997c.017-.067.022-.123.033-.174.012-.056.012-.112.012-.163.011-.32-.085-.572-.276-.774z"/>
            </g>
            <g fill="#FFF">
                <path d="M54.03 49.371a.265.265 0 0 1-.016.098.135.135 0 0 1-.05.067c-.023.022-.045.03-.074.045-.028.007-.056.015-.084.015a.377.377 0 0 1-.09-.015.177.177 0 0 1-.073-.053.233.233 0 0 1-.05-.082.402.402 0 0 1-.017-.12h.073c0 .03.005.06.011.083a.427.427 0 0 0 .034.06c.017.015.034.03.05.037.017.008.04.015.062.015.023 0 .045 0 .062-.007a.334.334 0 0 0 .045-.023c.011-.015.022-.022.034-.045a.18.18 0 0 0 .01-.06.18.18 0 0 0-.01-.06.066.066 0 0 0-.034-.037.583.583 0 0 0-.056-.022l-.073-.023c-.028-.007-.056-.015-.079-.03a.189.189 0 0 1-.062-.037.195.195 0 0 1-.04-.06.238.238 0 0 1-.016-.097c0-.03.006-.067.017-.09a.468.468 0 0 1 .045-.067.35.35 0 0 1 .067-.045.256.256 0 0 1 .174 0 .17.17 0 0 1 .062.053.283.283 0 0 1 .04.074c.01.03.01.06.016.098h-.073c0-.023-.005-.045-.01-.068-.006-.022-.018-.037-.029-.052a.089.089 0 0 0-.04-.03c-.016-.007-.033-.007-.055-.007-.017 0-.04 0-.051.007-.017.007-.028.015-.04.022a.083.083 0 0 0-.027.038c-.006.015-.012.03-.012.052 0 .023 0 .045.006.06a.053.053 0 0 0 .022.03.334.334 0 0 0 .045.022c.017.008.04.015.062.023.017.007.034.015.056.015l.05.022c.018.008.035.015.046.023a.107.107 0 0 1 .04.037c.01.015.016.037.027.06 0 .015.006.037.006.074zM54.615 48.915l-.174.65h-.062l-.185-.65.005.658h-.073l-.005-.777h.107l.185.65.174-.65h.107l.005.777h-.073z"/>
            </g>
        </g>
    </g>
</svg>
