<svg width="64" height="64" viewBox="0 0 64 64" xmlns="http://www.w3.org/2000/svg">
    <g fill="none" fill-rule="evenodd">
        <circle stroke="#CCC" stroke-width=".8" fill="#FFF" cx="32" cy="32" r="31.6"/>
        <g fill-rule="nonzero">
            <path d="M38.581 15.56c.11-.196.22-.383.33-.57.413-.679.835-1.358 1.366-1.952a.664.664 0 0 1 .549-.238c2.877.008 5.754 0 8.631 0 .422 0 .903.365 1.08.79.245.603.228 1.23.177 1.85-.126 1.385-.48 2.726-.835 4.06-.532 1.952-1.088 3.905-1.586 5.867-.464 1.842-.86 3.702-1.274 5.553-.085.382-.144.772-.194 1.163a2.49 2.49 0 0 0-.009.56c.026.247.177.349.422.349 1.966 0 3.932-.009 5.898-.009.034 0 .076.009.135.017-.101.263-.194.518-.295.773a37.076 37.076 0 0 1-1.663 3.574c-.717 1.342-1.501 2.633-2.43 3.847-.244.323-.514.62-.793.917a.46.46 0 0 1-.295.119c-2.818.008-5.628.008-8.446 0-.236 0-.48.025-.709-.009-.48-.085-.767-.407-.936-.849-.194-.484-.211-1.002-.194-1.511.008-.22.033-.442.025-.68-.034.051-.067.094-.093.145a18.072 18.072 0 0 1-1.704 2.445c-.304.365-.641.544-1.148.535-2.7-.025-5.408-.017-8.108-.017-.177 0-.371 0-.54-.042-.616-.153-.886-.62-1.021-1.197-.135-.595-.101-1.198-.025-1.8 0-.026.008-.051-.017-.102l-.152.229c-.54.849-1.097 1.681-1.772 2.437-.48.535-.48.535-1.19.535h-8.547c-.21 0-.43-.043-.633-.094-.32-.076-.472-.348-.455-.721.033-.51.194-.985.38-1.452.43-1.087.894-2.166 1.299-3.27a90.917 90.917 0 0 0 1.324-3.965 36.17 36.17 0 0 0 .768-2.955c.27-1.282.498-2.572.692-3.863a22.84 22.84 0 0 0 .262-3.795c0-.221-.017-.442-.017-.663 0-.161-.05-.22-.228-.22-1.907.008-3.805.008-5.712.008h-.22c.051-.144.085-.272.127-.39a28.326 28.326 0 0 1 2.363-5.265c.565-.968 1.19-1.902 1.915-2.751a.384.384 0 0 1 .329-.153h8.615c.801 0 1.164.272 1.434 1.053.169.5.236 1.019.262 1.545 0 .06.008.11.016.17l.026.026c.093-.17.185-.332.287-.493.405-.688.826-1.358 1.341-1.97.194-.23.397-.297.684-.297 2.75.008 5.492.017 8.243 0 .81 0 1.333.39 1.704 1.061a4.5 4.5 0 0 1 .49 1.47c.008.059.025.118.042.186-.017-.025 0-.025.025.009zm-9.796 26.458c.414 0 .785 0 1.156-.009.06 0 .127-.05.169-.093.287-.315.582-.62.844-.96.734-.96 1.35-2.004 1.94-3.065a55.627 55.627 0 0 0 2.498-5.027 198.651 198.651 0 0 0 2.438-5.859c.692-1.74 1.308-3.515 1.983-5.264a45.148 45.148 0 0 1 2.405-5.29c.633-1.18 1.3-2.335 2.168-3.362.009-.009.009-.034.017-.051-.025-.009-.042-.017-.067-.017-.355 0-.7-.009-1.055 0-.06 0-.135.05-.177.102-.245.305-.49.611-.709.934-.92 1.35-1.662 2.785-2.363 4.262-.818 1.74-1.535 3.524-2.202 5.324-.405 1.095-.793 2.208-1.215 3.295a103.944 103.944 0 0 1-1.578 3.888 124.262 124.262 0 0 1-2.21 4.823c-.532 1.096-1.148 2.157-1.747 3.218-.464.832-.995 1.63-1.603 2.37-.21.263-.439.5-.692.78zM13.48 42c.092.008.152.008.21.008.288 0 .566.009.853-.008a.535.535 0 0 0 .295-.12c.211-.203.405-.415.59-.636.71-.883 1.309-1.843 1.874-2.828 1.147-2.012 2.151-4.092 3.088-6.215.903-2.03 1.73-4.084 2.514-6.156.608-1.622 1.198-3.26 1.831-4.874a43.024 43.024 0 0 1 2.405-5.137c.557-1.01 1.148-2.004 1.898-2.887.026-.025.034-.068.068-.136h-.582c-.684 0-.684 0-1.089.552-.801 1.079-1.46 2.25-2.067 3.448-1.088 2.13-1.991 4.355-2.835 6.597-.633 1.698-1.249 3.413-1.924 5.095a123.314 123.314 0 0 1-2.193 5.094c-.878 1.928-1.848 3.804-2.962 5.604-.472.764-.97 1.512-1.578 2.174l-.396.425zm12.833-.034c0 .017.009.034.009.042.244 0 .48-.025.725.009.363.042.6-.102.835-.366.751-.84 1.359-1.783 1.933-2.742a44.014 44.014 0 0 0 2.236-4.237c.793-1.724 1.569-3.448 2.295-5.197.666-1.613 1.257-3.252 1.89-4.882.548-1.435 1.071-2.878 1.67-4.288a68.3 68.3 0 0 1 1.755-3.736c.6-1.197 1.283-2.36 2.152-3.405.034-.034.05-.076.093-.153-.321 0-.608.026-.886-.008-.27-.026-.44.093-.59.297-.743.951-1.36 1.987-1.933 3.048-1.14 2.114-2.067 4.33-2.92 6.572-.725 1.91-1.409 3.847-2.176 5.74-.7 1.74-1.452 3.456-2.228 5.171a51.541 51.541 0 0 1-2.312 4.509c-.599 1.044-1.232 2.072-2.008 2.997-.16.23-.354.425-.54.629zM31.63 13.02c-.32 0-.608.025-.886-.009-.279-.034-.447.094-.608.297-.607.782-1.13 1.622-1.611 2.488-1.3 2.335-2.346 4.79-3.282 7.294-.498 1.325-.954 2.658-1.469 3.965a128.724 128.724 0 0 1-1.771 4.322 107.819 107.819 0 0 1-1.722 3.77 44.031 44.031 0 0 1-2.286 4.212c-.574.917-1.165 1.825-1.95 2.573-.016.017-.016.034-.041.076.37 0 .725.009 1.071-.008a.415.415 0 0 0 .253-.102c.549-.501.996-1.096 1.384-1.724.582-.926 1.156-1.851 1.662-2.819a111.58 111.58 0 0 0 2.228-4.509 74.57 74.57 0 0 0 1.535-3.574c.6-1.495 1.165-3.006 1.738-4.51.515-1.332.996-2.674 1.536-3.998.439-1.079.937-2.14 1.434-3.193.616-1.29 1.308-2.539 2.127-3.71.202-.255.421-.527.658-.841zm17.803.025c-.034-.017-.05-.025-.068-.025-.354 0-.717-.009-1.071 0-.06 0-.127.05-.169.093-.194.238-.397.476-.565.722a22.932 22.932 0 0 0-1.89 3.235 82.648 82.648 0 0 0-1.519 3.294 54.451 54.451 0 0 0-1.013 2.53c-.7 1.835-1.341 3.686-2.075 5.511-.76 1.877-1.561 3.737-2.396 5.579-.836 1.834-1.747 3.626-2.827 5.332-.456.722-.97 1.401-1.477 2.09-.151.203-.345.381-.531.577.025.008.05.025.067.025.355 0 .718.009 1.072 0a.25.25 0 0 0 .169-.085c.337-.382.709-.747.987-1.163.59-.875 1.181-1.758 1.687-2.683a85.011 85.011 0 0 0 2.228-4.373 66.503 66.503 0 0 0 1.738-3.974c.776-1.927 1.51-3.863 2.236-5.816.616-1.639 1.24-3.278 1.966-4.874.422-.917.86-1.817 1.333-2.709.54-1.027 1.122-2.03 1.848-2.938.084-.11.177-.22.27-.348zm-30.89 28.946c.009 0 .017.017.034.017.363 0 .726.009 1.088 0 .051 0 .11-.034.144-.076.261-.28.531-.56.768-.866.86-1.104 1.569-2.31 2.236-3.541a66.439 66.439 0 0 0 2.775-5.74c.7-1.639 1.376-3.295 2.025-4.959.676-1.732 1.3-3.49 1.966-5.222a47.343 47.343 0 0 1 2.481-5.409c.582-1.078 1.207-2.13 2-3.065.017-.025.025-.05.059-.11-.338 0-.65.008-.954-.009-.194-.008-.32.06-.447.213a15.952 15.952 0 0 0-1.696 2.598 76.13 76.13 0 0 0-1.746 3.532c-.481 1.044-.903 2.114-1.317 3.184-.489 1.265-.936 2.556-1.417 3.821-.439 1.155-.878 2.31-1.358 3.447-.65 1.52-1.308 3.04-2.009 4.543-.523 1.121-1.105 2.216-1.687 3.312-.59 1.112-1.24 2.199-2.008 3.21-.287.373-.616.738-.937 1.12zm28.359-28.971c-.262 0-.532.025-.794-.009-.312-.034-.506.094-.691.34-.726.942-1.334 1.961-1.899 3.014-1.004 1.868-1.848 3.804-2.607 5.783-.532 1.392-1.02 2.802-1.552 4.194a145.386 145.386 0 0 1-1.654 4.135 70.319 70.319 0 0 1-1.629 3.643c-.7 1.435-1.434 2.836-2.193 4.245A17.778 17.778 0 0 1 32 41.228c-.22.263-.456.518-.7.781.05.009.092.017.135.017.312 0 .624.009.936 0a.396.396 0 0 0 .253-.102c.397-.458.802-.9 1.156-1.384 1.055-1.477 1.916-3.074 2.726-4.704a74.73 74.73 0 0 0 1.822-3.914c.835-1.953 1.62-3.923 2.405-5.893.531-1.342.987-2.709 1.51-4.042a70.85 70.85 0 0 1 1.308-3.099c.641-1.443 1.358-2.853 2.21-4.195.346-.568.743-1.103 1.14-1.672zM21.006 41.95c.017.017.025.042.042.059.262 0 .523-.025.776.009.338.042.557-.11.768-.349.54-.602 1.004-1.256 1.443-1.944.903-1.401 1.68-2.87 2.413-4.373.523-1.07 1.03-2.14 1.502-3.226a89.572 89.572 0 0 0 1.46-3.49c.708-1.826 1.375-3.66 2.075-5.485a86.987 86.987 0 0 1 1.443-3.558 58.356 58.356 0 0 1 1.544-3.193 18.609 18.609 0 0 1 1.856-2.972c.093-.119.194-.246.321-.399-.388 0-.734.009-1.08 0-.127 0-.22.043-.287.145-.337.475-.717.925-1.012 1.426a47.183 47.183 0 0 0-1.595 2.853c-.86 1.698-1.595 3.464-2.27 5.239-.64 1.698-1.248 3.405-1.915 5.095a140.263 140.263 0 0 1-1.95 4.678c-.488 1.121-1.028 2.216-1.568 3.312a37.754 37.754 0 0 1-2.025 3.668c-.524.84-1.064 1.664-1.772 2.369-.043.05-.11.093-.17.136zm31.936-8.636c-.05-.025-.068-.034-.084-.034-.346 0-.692-.008-1.038 0-.043 0-.102.068-.118.11a33.033 33.033 0 0 1-1.595 3.473c-.878 1.665-1.865 3.253-3.054 4.713-.102.127-.211.263-.33.408.051.008.076.025.102.025.329 0 .658.009.987 0a.22.22 0 0 0 .152-.076c.126-.145.244-.298.371-.45a25.88 25.88 0 0 0 2.447-3.669c.531-.967 1.012-1.97 1.493-2.971.253-.493.447-1.01.667-1.529zm-5.139-.042c-.405 0-.759 0-1.113.008-.042 0-.102.068-.118.12a33.6 33.6 0 0 1-2.034 4.279c-.827 1.469-1.746 2.87-2.826 4.169-.034.042-.068.093-.127.17h1.13c.043 0 .102-.051.136-.094.962-1.138 1.797-2.369 2.548-3.66a35.744 35.744 0 0 0 2.11-4.22c.1-.237.185-.484.294-.772zm2.565.017c-.084-.009-.126-.017-.177-.017-.287 0-.574.008-.869 0-.11 0-.16.042-.194.136a32.381 32.381 0 0 1-1.578 3.439c-.827 1.57-1.755 3.065-2.843 4.457-.169.221-.346.442-.549.688.093.009.144.017.194.017.27 0 .54-.008.819 0 .127 0 .21-.034.287-.136.506-.688 1.046-1.35 1.519-2.055 1.231-1.817 2.236-3.753 3.088-5.774.11-.237.202-.484.303-.755zm-5.138.017a.466.466 0 0 0-.127-.026c-.32 0-.65-.008-.97 0-.05 0-.118.06-.135.11a36.682 36.682 0 0 1-1.763 3.788c-.836 1.545-1.78 3.022-2.877 4.398-.11.136-.211.263-.346.433.244 0 .447-.025.64.009.389.05.642-.085.895-.408a32.8 32.8 0 0 0 2.312-3.388 33.17 33.17 0 0 0 1.932-3.83c.152-.364.287-.721.439-1.086zm-29.092-12.15c.37 0 .7-.01 1.029 0 .126 0 .177-.043.22-.154a25.667 25.667 0 0 1 1.35-3.311c.75-1.529 1.61-2.989 2.666-4.33l.253-.34c-.405 0-.76-.009-1.114.008-.06 0-.127.06-.16.11-.549.782-1.131 1.546-1.637 2.361-.937 1.512-1.688 3.116-2.304 4.79-.11.27-.194.551-.303.865zm8.083-8.135c-.38 0-.7-.009-1.03.008a.367.367 0 0 0-.253.128 22.808 22.808 0 0 0-2.067 3.082c-.7 1.248-1.3 2.539-1.806 3.88-.126.331-.236.671-.363 1.028.085.008.135.017.195.017.278 0 .556-.009.835 0 .118 0 .177-.043.22-.162.463-1.375 1.029-2.7 1.695-3.982a23.76 23.76 0 0 1 1.924-3.133c.202-.28.413-.544.65-.866zm-7.738.05-.025-.05h-1.063c-.042 0-.101.042-.135.085-.304.399-.616.798-.903 1.214-1.384 2.004-2.438 4.177-3.24 6.479-.034.101-.059.212-.101.34.093.008.152.016.21.016.27 0 .54-.008.82 0 .117 0 .168-.042.202-.153.371-1.112.818-2.199 1.325-3.252.717-1.469 1.535-2.878 2.522-4.177.127-.162.262-.331.388-.501zm2.608-.05h-.583c-.632 0-.632 0-1.02.518-.7.934-1.325 1.919-1.89 2.938a29.365 29.365 0 0 0-1.907 4.28c-.043.118-.076.245-.119.398.372 0 .7-.008 1.038 0 .118 0 .17-.042.203-.153.034-.136.093-.271.135-.407a28.124 28.124 0 0 1 1.848-4.118 22.817 22.817 0 0 1 1.847-2.879c.135-.178.279-.356.448-.577z" fill="#EC1C23"/>
            <g fill="#201F1D">
                <path d="M37.569 49.43v.153h-2.616c0-.042-.008-.093-.008-.136.025-.008.042-.025.05-.025.043-.009.093 0 .135-.009.422-.06.523-.17.523-.603V45.388c-.016-.008-.025-.008-.042-.017a.482.482 0 0 0-.067.11l-1.797 3.94c-.043.086-.068.17-.194.17-.136 0-.152-.084-.195-.17-.615-1.298-1.223-2.59-1.83-3.888-.009-.017-.026-.034-.043-.068-.017.034-.025.05-.025.076v3.184c0 .051 0 .102.008.153.034.323.16.459.49.51.093.017.177.025.278.042v.153h-1.822c0-.05-.009-.093-.009-.144a.41.41 0 0 0 .06-.026c.548-.034.65-.136.65-.696v-3.235c0-.408-.085-.501-.482-.552l-.21-.026v-.186h.632c.397 0 .793.008 1.19 0 .126 0 .185.042.244.153.481 1.035.962 2.063 1.443 3.09.017.034.042.068.076.128l.084-.145c.456-.993.92-1.978 1.376-2.972.084-.195.185-.263.405-.263.565.017 1.13.009 1.713.009 0 .06.008.119.008.178a4.625 4.625 0 0 0-.363.06c-.185.033-.287.152-.312.33-.017.128-.034.247-.034.374v3.074c.017.492.127.62.616.67.017.018.034.026.068.026zM15.505 44.913v-.178h2.674v.17c-.118.016-.236.025-.346.042-.219.042-.345.153-.354.374-.017.526-.008 1.044-.008 1.579h1.856c.008-.009.017-.017.017-.026 0-.51.017-1.027 0-1.536-.009-.238-.144-.357-.372-.4-.1-.017-.202-.025-.32-.042 0-.051-.009-.11-.009-.17h2.692c0 .051.008.102.017.17-.093.008-.177.025-.262.034-.312.05-.438.187-.438.5V48.75c0 .476.11.604.582.655.025 0 .059 0 .093.008.008.026.016.051.016.077 0 .025-.008.05-.008.085H18.66c-.025-.153-.025-.153.11-.17l.186-.026c.244-.042.38-.178.388-.424.008-.56 0-1.13 0-1.707h-1.89v1.512c0 .475.118.602.59.645.034 0 .068 0 .11.008.009.051.009.102.017.162h-2.675v-.145c.625-.11.658-.153.658-.79v-3.099c0-.467-.092-.577-.565-.628-.017.008-.042 0-.084 0zM26.085 44.735v1.435c-.059.008-.118.008-.177.017-.05-.145-.093-.29-.143-.425-.16-.441-.481-.688-.945-.722-.363-.025-.726-.034-1.08-.042-.144 0-.228.085-.228.23-.009.577 0 1.162 0 1.74.506.127.962-.12 1.147-.603.034-.093.068-.187.085-.28.025-.153.093-.196.244-.136v2.403c-.135.042-.219.025-.227-.136a.303.303 0 0 0-.017-.085c-.127-.637-.6-.976-1.24-.858v1.648c0 .348.067.424.413.45.498.042.979 0 1.434-.23.388-.195.633-.517.827-.883.076-.135.152-.16.295-.118-.1.492-.21.968-.312 1.46H21.53v-.153c.101-.017.203-.025.304-.042.261-.043.388-.196.388-.459v-3.524c0-.263-.118-.407-.38-.458-.101-.017-.202-.026-.312-.043v-.17c1.51-.016 3.03-.016 4.556-.016zM14.197 49.583h-2.81c0-.05-.008-.102-.008-.144.025-.009.042-.017.059-.017h.067c.49-.017.642-.17.65-.671.008-.34 0-.67 0-1.01v-2.743c-.683-.17-1.384.306-1.519 1.01-.033.179-.033.179-.236.153v-1.426h4.767v1.426h-.21c-.186-.985-.76-1.197-1.545-1.189v3.77c.009.501.144.646.65.663.135.017.135.017.135.178zM43.213 49.422v.161h-2.54v-.153c.127-.017.245-.025.364-.042.202-.026.303-.136.236-.323-.093-.28-.228-.543-.346-.815-.017-.034-.084-.051-.127-.051-.523 0-1.037-.009-1.56 0-.043 0-.11.034-.119.068-.101.255-.202.518-.287.781-.059.178.034.306.228.34.118.025.245.034.38.05 0 .052.008.094.008.154h-1.603c-.017-.077-.059-.153.068-.179.253-.05.405-.23.498-.441.345-.756.691-1.52 1.037-2.284.287-.646.574-1.291.86-1.928a.325.325 0 0 1 .153-.127c.093-.034.152.025.194.119l1.645 3.54c.127.264.253.518.388.782.11.203.262.348.523.348zm-2.421-1.537c-.253-.57-.506-1.113-.751-1.664h-.06c-.235.543-.472 1.095-.708 1.655.515.009 1.004.009 1.519.009zM53.6 47.995c-.101.527-.203 1.053-.312 1.588h-4.599v-.144c.017-.009.026-.017.043-.017l.202-.026c.33-.05.447-.187.447-.526v-3.371c0-.4-.11-.527-.514-.57-.06-.008-.11-.008-.178-.016-.008-.034-.008-.06-.017-.085 0-.025 0-.06.009-.093.034-.009.067-.017.101-.017h2.515c.143 0 .177.05.143.178-.152.017-.295.025-.439.06-.22.042-.303.152-.337.373-.009.06-.009.127-.009.187v3.422c0 .314.068.39.38.416.49.042.962 0 1.4-.23.414-.22.659-.585.844-.993.076-.144.152-.195.321-.136zM48.386 47.995c-.102.527-.211 1.053-.313 1.588h-4.581c-.009-.042-.009-.085-.017-.136.025-.008.034-.025.05-.025.043-.009.077-.009.119-.009.43-.06.531-.187.54-.628v-3.227c0-.06 0-.127-.009-.187-.025-.229-.135-.365-.362-.407-.102-.026-.211-.034-.33-.051v-.17h2.751c0 .06.008.102.008.161-.033.009-.067.026-.1.026-.625.042-.701.119-.701.756v3.226c0 .357.059.425.422.45.531.043 1.038-.008 1.502-.305.337-.221.548-.552.708-.917.068-.145.144-.213.313-.145z"/>
            </g>
            <path d="M28.785 42.018c.253-.28.481-.51.684-.765a16.646 16.646 0 0 0 1.603-2.369c.599-1.061 1.215-2.122 1.746-3.218a124.262 124.262 0 0 0 2.211-4.823 103.944 103.944 0 0 0 1.578-3.889c.422-1.086.81-2.199 1.215-3.294.666-1.8 1.384-3.583 2.202-5.324.692-1.469 1.443-2.912 2.363-4.262.219-.323.464-.629.708-.934.042-.051.118-.102.178-.102.354-.009.7 0 1.054 0a.26.26 0 0 1 .068.017c-.009.025-.009.042-.017.05-.87 1.028-1.536 2.183-2.169 3.363a48.835 48.835 0 0 0-2.404 5.29c-.675 1.75-1.291 3.524-1.983 5.264a219.88 219.88 0 0 1-2.439 5.86 56.761 56.761 0 0 1-2.497 5.026c-.59 1.061-1.207 2.097-1.94 3.065-.262.34-.558.645-.844.96-.043.042-.11.093-.17.093-.362-.008-.733-.008-1.147-.008zM13.48 42c.143-.16.27-.288.388-.416.607-.662 1.105-1.409 1.578-2.173 1.113-1.8 2.084-3.685 2.961-5.604.768-1.681 1.502-3.38 2.194-5.095.675-1.681 1.29-3.388 1.924-5.094.835-2.25 1.738-4.467 2.835-6.598.607-1.197 1.274-2.36 2.067-3.447.413-.552.405-.56 1.088-.552h.583l-.068.136c-.742.883-1.333 1.876-1.898 2.887-.92 1.655-1.705 3.379-2.405 5.137-.633 1.613-1.224 3.243-1.831 4.873a111.831 111.831 0 0 1-2.514 6.156c-.937 2.115-1.941 4.203-3.089 6.216-.556.985-1.164 1.944-1.873 2.827-.177.221-.38.433-.59.637a.535.535 0 0 1-.296.119c-.278.017-.565.009-.852.009-.05 0-.11-.009-.202-.017zM26.313 41.967c.186-.204.388-.4.565-.612.777-.925 1.401-1.953 2.009-2.997a49.247 49.247 0 0 0 2.311-4.509c.768-1.715 1.528-3.43 2.228-5.17.76-1.903 1.451-3.83 2.177-5.74.852-2.25 1.789-4.459 2.92-6.573.573-1.061 1.18-2.097 1.931-3.048.16-.204.321-.323.591-.297.278.025.565.008.886.008l-.093.153c-.894 1.028-1.578 2.19-2.185 3.396a68.3 68.3 0 0 0-1.755 3.737c-.6 1.409-1.122 2.861-1.67 4.287-.625 1.63-1.224 3.27-1.89 4.883a149.337 149.337 0 0 1-2.296 5.196 45.039 45.039 0 0 1-2.236 4.237c-.573.96-1.181 1.902-1.932 2.743-.236.263-.472.407-.835.365-.236-.025-.481-.008-.726-.008v-.051zM31.629 13.02c-.245.323-.456.587-.658.867-.827 1.172-1.52 2.42-2.127 3.71-.497 1.053-.995 2.115-1.434 3.193-.54 1.325-1.02 2.666-1.536 4-.573 1.502-1.139 3.014-1.738 4.508a66.909 66.909 0 0 1-1.535 3.575 111.58 111.58 0 0 1-2.228 4.508c-.506.968-1.088 1.894-1.662 2.82a8.204 8.204 0 0 1-1.384 1.723.396.396 0 0 1-.253.102c-.346.009-.7.009-1.072.009.017-.043.026-.068.043-.077.784-.756 1.375-1.656 1.949-2.573a44.031 44.031 0 0 0 2.286-4.211c.6-1.248 1.173-2.505 1.722-3.77.616-1.435 1.206-2.87 1.771-4.322.515-1.316.97-2.65 1.469-3.965.936-2.497 1.982-4.96 3.282-7.294a20.844 20.844 0 0 1 1.611-2.488c.16-.204.33-.331.608-.297.278.008.565-.017.886-.017zM49.432 13.046c-.093.12-.186.238-.27.348-.726.909-1.308 1.91-1.848 2.938a61.882 61.882 0 0 0-1.333 2.709c-.734 1.588-1.359 3.226-1.966 4.874a242.63 242.63 0 0 1-2.236 5.816 68.99 68.99 0 0 1-1.738 3.974 85.011 85.011 0 0 1-2.228 4.373c-.506.925-1.096 1.808-1.687 2.683-.287.424-.658.781-.987 1.163-.042.043-.11.085-.169.085-.354.009-.717 0-1.072 0a.134.134 0 0 1-.067-.025c.186-.196.38-.374.531-.578.507-.688 1.021-1.367 1.477-2.089 1.072-1.706 1.991-3.498 2.827-5.332a135.149 135.149 0 0 0 2.396-5.579c.734-1.817 1.384-3.676 2.075-5.51.321-.85.65-1.698 1.013-2.53.49-1.113.996-2.208 1.519-3.295a24.687 24.687 0 0 1 1.89-3.235c.177-.255.371-.484.565-.722.042-.05.11-.093.169-.093.354-.009.717 0 1.071 0 .017 0 .034.017.068.025zM18.542 41.992c.32-.382.641-.747.937-1.13.768-1.001 1.409-2.088 2.008-3.209.582-1.095 1.164-2.19 1.687-3.311.7-1.503 1.367-3.015 2.009-4.543.48-1.138.92-2.293 1.358-3.447.48-1.274.928-2.556 1.417-3.821.414-1.07.836-2.14 1.317-3.184a76.13 76.13 0 0 1 1.746-3.533 16.326 16.326 0 0 1 1.696-2.598.483.483 0 0 1 .447-.212c.313.017.616.008.954.008-.034.06-.042.094-.06.11-.792.935-1.417 1.996-1.999 3.066a44.02 44.02 0 0 0-2.48 5.409c-.667 1.732-1.291 3.49-1.967 5.222-.65 1.664-1.324 3.32-2.024 4.958a66.439 66.439 0 0 1-2.776 5.74c-.667 1.232-1.376 2.437-2.236 3.541-.237.306-.515.577-.768.866-.034.034-.093.077-.144.077-.362.008-.725 0-1.088 0-.008.008-.025-.009-.034-.009zM46.9 13.02c-.396.57-.792 1.105-1.147 1.665-.852 1.333-1.57 2.743-2.21 4.195a70.85 70.85 0 0 0-1.308 3.099c-.523 1.341-.98 2.708-1.51 4.041-.777 1.97-1.57 3.94-2.405 5.893a82.295 82.295 0 0 1-1.823 3.915c-.801 1.63-1.662 3.226-2.725 4.704-.346.484-.76.934-1.156 1.384-.05.06-.169.093-.253.102a17.22 17.22 0 0 1-.937 0c-.042 0-.084-.009-.135-.017.245-.272.481-.518.7-.782a18.363 18.363 0 0 0 1.882-2.861c.751-1.401 1.494-2.81 2.194-4.246a73.701 73.701 0 0 0 1.628-3.642 145.386 145.386 0 0 0 1.654-4.135c.532-1.393 1.021-2.802 1.553-4.195.759-1.978 1.603-3.914 2.607-5.782.565-1.045 1.173-2.064 1.898-3.015.186-.246.38-.373.692-.34.27.035.54.018.802.018zM21.006 41.95c.059-.051.127-.085.186-.145.708-.704 1.248-1.528 1.771-2.369a38.778 38.778 0 0 0 2.025-3.668c.532-1.095 1.08-2.199 1.57-3.311a133.143 133.143 0 0 0 1.949-4.679c.666-1.69 1.265-3.396 1.915-5.094.675-1.784 1.4-3.541 2.27-5.24a52.28 52.28 0 0 1 1.595-2.852c.295-.501.675-.951 1.012-1.427a.323.323 0 0 1 .287-.144c.346.008.683 0 1.08 0-.127.161-.228.28-.32.399a18.609 18.609 0 0 0-1.857 2.972 65.25 65.25 0 0 0-1.544 3.192 86.987 86.987 0 0 0-1.443 3.558c-.7 1.826-1.367 3.668-2.075 5.485a89.572 89.572 0 0 1-1.46 3.49c-.481 1.087-.987 2.165-1.502 3.227-.734 1.494-1.519 2.963-2.413 4.372-.439.68-.903 1.342-1.443 1.945-.21.238-.43.39-.768.348-.253-.034-.514-.008-.776-.008-.034-.009-.05-.026-.06-.051zM52.942 33.314c-.22.518-.414 1.036-.65 1.529-.48.993-.962 1.995-1.493 2.971a25.88 25.88 0 0 1-2.447 3.669 6.162 6.162 0 0 1-.371.45.22.22 0 0 1-.152.076c-.33.009-.658 0-.987 0a.34.34 0 0 1-.102-.025c.118-.145.22-.28.33-.408 1.18-1.46 2.168-3.048 3.054-4.713.599-1.129 1.13-2.284 1.594-3.472.017-.051.076-.11.119-.11.345-.01.691 0 1.037 0 0 0 .009.016.068.033zM47.803 33.272c-.11.288-.194.526-.295.772a35.744 35.744 0 0 1-2.11 4.22c-.759 1.283-1.594 2.514-2.547 3.66-.034.043-.085.094-.135.094-.363.008-.726 0-1.131 0 .06-.077.093-.128.127-.17 1.08-1.3 2-2.7 2.826-4.17a33.06 33.06 0 0 0 2.034-4.279c.016-.05.075-.119.118-.119.354-.008.708-.008 1.113-.008zM50.368 33.289c-.1.271-.194.518-.295.764-.852 2.02-1.856 3.965-3.088 5.774-.48.705-1.013 1.367-1.519 2.055-.076.102-.16.136-.287.136-.27-.009-.54 0-.818 0-.05 0-.11-.009-.194-.017.194-.247.371-.467.548-.688 1.089-1.401 2.017-2.896 2.844-4.458a34.154 34.154 0 0 0 1.578-3.439c.033-.093.084-.144.194-.136.286.009.573 0 .869 0 .042-.008.084 0 .168.009zM45.23 33.306c-.152.365-.295.722-.439 1.078a33.846 33.846 0 0 1-1.932 3.83 30.696 30.696 0 0 1-2.312 3.387c-.244.323-.506.459-.894.408-.194-.025-.397-.008-.641-.008l.346-.433c1.096-1.376 2.041-2.853 2.877-4.399a36.682 36.682 0 0 0 1.763-3.787c.017-.05.093-.11.135-.11.32-.009.641-.009.97 0 .034.008.068.017.127.034zM16.137 21.155c.11-.314.195-.594.304-.874.616-1.665 1.367-3.278 2.304-4.79.506-.814 1.088-1.579 1.637-2.36a.265.265 0 0 1 .16-.11c.354-.009.709-.009 1.114-.009l-.253.34c-1.055 1.341-1.916 2.802-2.667 4.33a25.667 25.667 0 0 0-1.35 3.312c-.042.119-.093.161-.22.153-.328 0-.657.008-1.029.008zM24.22 13.02c-.236.323-.447.587-.65.867a24.327 24.327 0 0 0-1.923 3.133 28.058 28.058 0 0 0-1.696 3.982c-.042.12-.093.162-.22.162-.278-.009-.556 0-.834 0-.051 0-.11-.009-.194-.017.126-.357.236-.697.362-1.028a28.394 28.394 0 0 1 1.806-3.88 22.287 22.287 0 0 1 2.067-3.082.405.405 0 0 1 .253-.128c.33-.017.65-.008 1.03-.008zM16.483 13.072c-.126.17-.261.34-.388.51-.995 1.298-1.814 2.7-2.53 4.177a26.502 26.502 0 0 0-1.326 3.252c-.033.11-.084.153-.202.153-.27-.009-.54 0-.819 0-.059 0-.118-.009-.21-.017.033-.128.059-.238.1-.34.81-2.301 1.865-4.466 3.24-6.479.288-.416.6-.815.904-1.214.033-.042.092-.085.135-.085.354-.008.708 0 1.063 0 .017.009.025.026.033.043zM19.09 13.02l-.438.578c-.692.909-1.3 1.877-1.848 2.879a27.395 27.395 0 0 0-1.856 4.126c-.05.136-.101.263-.135.408-.034.11-.085.161-.203.153-.329-.009-.666 0-1.037 0 .05-.153.075-.272.118-.4a29.062 29.062 0 0 1 1.906-4.287 23.797 23.797 0 0 1 1.89-2.938c.389-.518.38-.518 1.021-.518h.583z" fill="#FFF"/>
        </g>
    </g>
</svg>
