<svg width="64" height="64" viewBox="0 0 64 64" xmlns="http://www.w3.org/2000/svg">
    <g fill-rule="nonzero" fill="none">
        <circle fill="#00A550" cx="32" cy="32" r="32"/>
        <path d="M16.605 12.808h30.79s.047-.006.127-.008h.11c.604.016 2.137.28 1.953 2.597-.05.634-.243 2.603-.512 5.29l-.075.75c-.257 2.556-.573 5.66-.899 8.844l-.098.958-.098.96-.147 1.437c-.768 7.485-1.498 14.525-1.556 15.087l-.004.036s-.091 1.529-1.922 1.529H37.45V52H26.549v-1.712h-6.823c-1.83 0-1.923-1.528-1.923-1.528l-.008-.081c-.094-.906-.962-9.288-1.797-17.44l-.097-.958c-.717-7.007-1.385-13.618-1.486-14.884-.184-2.317 1.35-2.581 1.953-2.596h.11c.08.001.127.007.127.007z" fill="#FFF"/>
        <path d="M40.946 17.826H19.86v8.06h11.104s3.079-4.924 9.981-8.06" fill="#F26F21"/>
        <path d="M34.44 23.768c4.43-4.6 9.821-6.307 9.821-6.307v8.728s-4.635 1.522-6.215 7.022H29.29s.72-4.843 5.15-9.443M27.665 40.84h9.03s-.274 8.025-.205 10.147h-9.375s0-6.861.55-10.147" fill="#EC1D24"/>
        <path d="M22.33 34.264v1.26l-1.385.02-.001 1.076h1.387v1.327h-1.387v1.062h1.387v1.26h-3.195v-6.004h3.195zm8.341 0v1.26l-1.385.02-.002 1.076h1.387v1.327h-1.387v1.062h1.387v1.26h-3.195v-6.004h3.195zm8.341 0v1.26l-1.385.02-.002 1.076h1.387v1.327h-1.387v1.062h1.387v1.26h-3.195v-6.004h3.195zm1.157-.156v6.045h1.748v-4.285s.011-.266.186-.396c.176-.131.784-.264.895.257v4.47h1.838v-5.026s.047-1.227-1.356-1.274c0 0-.965 0-1.563.579v-.37h-1.748zm-17.044.156v6.016h3.4v-1.285h-1.536v-4.73h-1.864zm7.615 0h1.622l.73 3.98.777-3.98h1.347l-1.142 6.026H31.7l-.96-6.026zm8.928 10.186a1.18 1.18 0 0 1-.838-.35 1.196 1.196 0 0 1 .838-2.035c.654 0 1.184.534 1.184 1.192 0 .659-.53 1.193-1.184 1.193m0-2.514c-.725 0-1.312.592-1.312 1.321a1.309 1.309 0 0 0 2.24.934c.246-.247.384-.583.384-.934 0-.73-.587-1.32-1.312-1.321" fill="#00A550"/>
        <path d="M39.89 43.102c.144-.059.241-.17.25-.33.02-.354-.256-.47-.593-.47h-.466v1.403h.259v-.557h.294l.229.558h.278l-.252-.604zm-.55-.162v-.407h.274c.145 0 .266.046.266.204 0 .144-.13.203-.25.203h-.29z" fill="#00A550"/>
    </g>
</svg>
