<svg width="64" height="64" viewBox="0 0 64 64" xmlns="http://www.w3.org/2000/svg">
    <g fill="none" fill-rule="evenodd">
        <circle fill="#93D600" fill-rule="nonzero" cx="32" cy="32" r="32"/>
        <path d="M32.496 13.602c-7.569 2.096-14.011 10.577-16.018 19.399C14.087 44.058 20.612 52.78 31.82 52.8c2.452.005 7.856-.461 10.382-1.514L45.394 37.3c-2.71 2.114-5.246 3.036-8.514 3.032-4.199-.01-7.007-3.424-6.131-7.662.987-4.234 5.195-7.638 9.399-7.629 3.152.005 5.733 1.174 7.309 3.405L50.4 15.638c.005 0-6.484-5.203-17.904-2.036" fill="#DF2027"/>
        <path d="M30.382 15.032s-.996.051-1.608.359a5.21 5.21 0 0 0-.445.251c.149-.233.27-.484.339-.75.185-.68.074-1.383-.302-1.928-.38-.55-.996-.894-1.7-.955a3.123 3.123 0 0 0-.21-.009c-1.047 0-2.048.643-2.534 1.56a2.528 2.528 0 0 0-.39-.414c-.417-.354-.95-.54-1.548-.54H16.2l-2.6 11.406h5.492c.561 0 1.108-.07 1.632-.205.38-.098.737-.238 1.066-.41l-.14.615h2.939l-.213.186.584.866c.39.573.894 1.025 1.506 1.332.593.303 1.316.457 2.137.457a6.21 6.21 0 0 0 2.558-.526 5.63 5.63 0 0 0 2.02-1.519 5.368 5.368 0 0 0 1.132-2.31l1.715-7.457h-5.646v-.009z" fill="#DF2027" fill-rule="nonzero"/>
        <path d="M25.766 15.805c.751.06 1.52-.456 1.72-1.15.199-.694-.246-1.304-1.001-1.365-.751-.056-1.52.457-1.72 1.15-.2.695.25 1.305 1.001 1.365M21.586 18.101c2.173-.302 2.67-4.387-.088-4.406h-4.339l-2.085 9.083H19.764c3.29 0 4.399-4.015 1.822-4.677m-.598-1.583a.875.875 0 0 1-.366.587c-.19.13-.385.181-.677.181h-1.196l.343-1.471h1.344c.227 0 .362.05.464.186.092.12.12.284.088.517m-.394 3.377c-.046.298-.213.54-.436.698-.222.154-.454.214-.797.214h-1.414l.404-1.742h1.599c.268 0 .426.061.551.22.102.14.14.33.093.61" fill="#F9EB26" fill-rule="nonzero"/>
        <path fill="#F9EB26" fill-rule="nonzero" d="m24.594 16.168-1.525 6.61h2.46l1.526-6.61zM32.37 16.168l-.185.806c-.764-1.565-4.287-1.364-5.214 1.859-1.029 3.567 2.072 5.025 4.065 3.125l-.19.82c-.38 1.155-2.633 1.583-3.787.097l-1.423 1.444c2.207 2.71 6.832 1.58 7.527-1.541l1.525-6.61h-2.317zm-.713 3.098-.158.694c-.102.46-.51.899-.862.982-.662.154-.982-.284-1.038-.824-.046-.442.079-1.062.325-1.448.324-.513.718-.643 1.13-.531.394.102.756.451.603 1.127"/>
    </g>
</svg>
