<svg width="64" height="64" viewBox="0 0 64 64" xmlns="http://www.w3.org/2000/svg">
    <g fill="none" fill-rule="evenodd">
        <circle fill="#00BCB4" cx="32" cy="32" r="32"/>
        <g fill-rule="nonzero">
            <path d="M19.322 28.235c-2.63 0-4.01 1.433-4.01 4.154 0 2.64 1.24 4.105 3.924 4.105 2.63 0 4.026-1.43 4.026-4.154 0-2.656-1.24-4.105-3.94-4.105zm0 6.354c-.842 0-1.406-.393-1.406-2.264 0-1.746.537-2.185 1.326-2.185 1.009 0 1.422.581 1.422 2.264 0 1.683-.381 2.185-1.342 2.185zm-5.114-.334h-3.132a.474.474 0 0 1-.471-.45v-7.277a.125.125 0 0 0-.04-.092.138.138 0 0 0-.097-.036H8.15a.146.146 0 0 0-.151.128v8.07c.002 1.046.894 1.894 1.996 1.896h4.212a.146.146 0 0 0 .151-.128v-1.968a.139.139 0 0 0-.043-.102.154.154 0 0 0-.108-.041zm23.846-5.713H35.81a.146.146 0 0 0-.148.142v5.09c0 .56-.615 1.106-1.431 1.106-.763 0-1.097-.418-1.097-1.217v-4.979a.145.145 0 0 0-.148-.142h-2.26a.148.148 0 0 0-.152.142v5.17c0 1.89 1.148 2.946 2.964 2.946.774.01 1.53-.22 2.156-.657a.145.145 0 0 1 .137-.033.138.138 0 0 1 .097.098l.116.32c.032.08.067.11.148.11h1.846a.158.158 0 0 0 .116-.036.145.145 0 0 0 .051-.106v-7.812a.145.145 0 0 0-.051-.106.158.158 0 0 0-.116-.036h.016zm-8.992 5.976a.167.167 0 0 0-.263-.06c-.297.207-.65.32-1.011.324-.475 0-.714-.214-.714-.755v-3.55a.157.157 0 0 1 .163-.164l1.725.001a.148.148 0 0 0 .163-.15v-1.612a.147.147 0 0 0-.163-.15H27.25a.154.154 0 0 1-.163-.15V26.55a.144.144 0 0 0-.15-.15h-1.31a.153.153 0 0 0-.112.04.157.157 0 0 0-.05.11c-.087 1.172-.95 1.827-1.736 1.848a.14.14 0 0 0-.15.153v1.609a.143.143 0 0 0 .15.15h.724c.089.002.16.074.162.164v3.554c0 1.812.813 2.77 2.674 2.77 1.214 0 1.987-.34 2.276-.528a.159.159 0 0 0 .05-.163l-.554-1.59zm9.824.75a.142.142 0 0 1 0-.208l.997-1.422c.053-.087.16-.062.226-.026.81.548 1.632.949 2.577.949.303 0 .835-.084.835-.51 0-.33-.638-.572-1.328-.765-1.182-.342-2.786-.865-2.786-2.517 0-1.24 1.156-2.53 3.399-2.53 1.189-.043 2.35.336 3.242 1.058a.143.143 0 0 1 0 .206l-1.184 1.337c-.053.061-.159.025-.226 0-.278-.171-1.022-.645-1.885-.645-.424 0-.703.17-.703.461 0 .342.625.548 1.34.778 1.181.39 2.764.852 2.764 2.494 0 1.24-1.115 2.566-3.6 2.566-1.409 0-2.868-.51-3.68-1.204" fill="#FFF"/>
            <path d="M50.332 35.262a.143.143 0 0 1 0-.207l.995-1.423c.053-.086.159-.06.226-.025.798.548 1.632.954 2.571.954.303 0 .849-.084.849-.51 0-.33-.637-.572-1.327-.765-1.179-.342-2.78-.865-2.78-2.518 0-1.239 1.154-2.53 3.392-2.53a4.871 4.871 0 0 1 3.236 1.059.144.144 0 0 1 0 .206l-1.181 1.337c-.053.061-.159.025-.226 0-.292-.171-1.02-.645-1.882-.645-.423 0-.7.17-.7.461 0 .342.622.548 1.337.778 1.179.39 2.758.852 2.758 2.494 0 1.24-1.112 2.566-3.592 2.566-1.407 0-2.864-.51-3.673-1.204l-.003-.028zm-1.633-8.854c-.684 0-1.315.362-1.655.948a1.873 1.873 0 0 0 .005 1.891l1.398 2.216a.298.298 0 0 0 .503 0l1.396-2.224a1.87 1.87 0 0 0 .006-1.89 1.913 1.913 0 0 0-1.653-.949" fill="#F9BE00"/>
        </g>
    </g>
</svg>
