<svg width="64" height="64" viewBox="0 0 64 64" xmlns="http://www.w3.org/2000/svg">
    <g transform="translate(.8 .8)" fill="none" fill-rule="evenodd">
        <circle fill="#5A5075" cx="31.2" cy="31.2" r="31.2"/>
        <path d="M24.34 13.372c-.146.307-.182.67-.189 1.068l-.002.201v.557h9.496c4.163 0 8.927-.398 13.032-2.365.15-.071.325.07.297.22l-.017.049-1.966 4.806c-1.03 2.252-3.445 3.124-11.696 3.152H24.15v8.104L40.5 24.721c.344-.09 2.052-.44 3.153.752 1.236 1.339 2.402 2.56 3.201 3.701.22.269.13.507-.22.41-.335-.094-1.165-.092-1.87.098l-.684.184-.01.003.001 11.229 5.168-.004c2.679 0 2.816-.322 3.206-.593.118-.081.311-.088.346.078.026.122 0 .232-.172.585l-.108.219a50.38 50.38 0 0 1-.141.276c-.395.768-1.742 3.117-2.57 4.139-.515.64-1.984 2.097-4.677 2.197l-.294.005H17.57c-2.88 0-4.436-1.54-4.97-2.202-.828-1.022-2.175-3.37-2.57-4.14-.052-.102-.1-.193-.14-.275l-.11-.219c-.171-.353-.197-.463-.171-.585.035-.166.229-.16.346-.078.377.263.518.572 2.954.592h.251l5.17.005-.001-22.75c0-.803.231-1.673 1.266-2.5 1.282-1.023 3.268-2.297 4.554-3.006.2-.11.489-.031.192.53zm13.91 18.067-14.1 3.802v5.857h14.1v-9.66z" fill="#FFF" fill-rule="nonzero"/>
    </g>
</svg>
