<svg width="64" height="64" viewBox="0 0 64 64" xmlns="http://www.w3.org/2000/svg">
    <g transform="translate(.8 .8)" fill="none" fill-rule="evenodd">
        <circle fill="#039" cx="31.2" cy="31.2" r="31.2"/>
        <path d="M45.684 31.01c-.37-1.397-.904-2.432-1.768-4.012-.283-.447-.646-.949-.972-1.48-3.751-5.559-11.155-15.26-11.83-15.884 0 0-.046-.034-.086-.034-.04 0-.087.034-.087.034-.675.625-8.08 10.326-11.83 15.885-.326.532-.689 1.032-.973 1.48-.864 1.58-1.396 2.615-1.767 4.013-.46 2.018-.482 4.527-.064 6.589.378 1.814 2.1 3.662 3.832 5.044l2.65 2.103s7.404 5.336 8.094 5.675c0 0 .067.043.144.043.076 0 .143-.043.143-.043.69-.339 8.094-5.675 8.094-5.675l2.65-2.103c1.732-1.382 3.454-3.23 3.83-5.044.419-2.062.399-4.571-.061-6.589v-.002zM28.707 44.933c-.05.079-.17.053-.256.046-.436-.304-1.507-1.082-1.507-1.082-1.844-1.365-3.706-2.628-5.474-4.028-2.713-2.985-2.44-5.965-1.606-8.953.03-.196.12-.488.372-.54.767 1.126 2.39 3.447 2.39 3.447 1.577 2.27 3.495 4.314 5.308 6.444 1.245 1.142.739 3.06.773 4.666zm2.323-5.917c-.038 0-.096-.028-.152-.086-2.348-2.781-5.01-5.92-7.349-8.712-.42-.706-.852-1.385-.898-2.295-.031-.713-.076-1.368.512-2.257 0 0 .39-.564.503-.733 0 0 4.787-6.726 7.308-9.915 0 0 .033-.045.074-.045.036 0 .07.045.07.045 2.518 3.189 7.306 9.915 7.306 9.915.114.169.504.732.504.732.587.89.541 1.545.51 2.258-.047.91-.476 1.59-.897 2.295-2.34 2.79-5.001 5.93-7.349 8.712-.056.058-.11.084-.142.086zm9.537.853c-1.766 1.4-3.63 2.663-5.474 4.03 0 0-1.071.775-1.506 1.08-.086.007-.206.033-.258-.046.034-1.606-.47-3.524.774-4.666 1.814-2.13 3.73-4.174 5.308-6.444 0 0 1.622-2.32 2.39-3.447.251.052.342.344.371.539.836 2.989 1.11 5.97-1.605 8.954z" fill="#FFF" fill-rule="nonzero"/>
    </g>
</svg>
