<svg width="64" height="64" viewBox="0 0 64 64" xmlns="http://www.w3.org/2000/svg">
    <g fill="none" fill-rule="evenodd">
        <circle stroke="#CCC" stroke-width=".8" fill="#FFF" cx="32" cy="32" r="30.8"/>
        <g transform="translate(10.4 10.4)">
            <rect fill="#9F853A" x="4.8" y="23.2" width="33.6" height="16.8" rx="1.6"/>
            <g fill-rule="nonzero">
                <path d="M29.76 1.6H13.44C4.8 1.6 1.2 5.705 1.2 13.84v16.32c0 6.758 5.482 12.24 12.24 12.24h16.32C36.518 42.4 42 36.918 42 30.16V13.84C42 5.57 39.74 1.6 29.76 1.6zM14.779 4.405h13.61v8.957c-1.147.701-2.358 1.594-3.506 2.837V7.847h-6.598V16.2c-1.02-1.116-2.231-2.04-3.506-2.837V4.405zm2.008 29.006V39.5h-1.594v-3.06s.191-1.498-1.434-1.498H5.63v-1.434h9.211c.415 0 .415-.606 0-.606H5.631V31.5h9.753c1.594 0 1.403.701 1.403 1.912zm2.231-4.048V39.5h-1.594v-7.108s.192-1.498-1.434-1.498H5.63V29.46h11.476c.382 0 .382-.606 0-.606H5.63V27.42h11.985c1.593.032 1.402.701 1.402 1.944zM21.281 39.5h-1.593V28.311s.19-1.498-1.435-1.498H5.631v-1.402h13.738c.382 0 .382-.606 0-.606H5.63v-1.402h14.025c.988.19 1.593 1.179 1.593 2.199v13.897h.032zm16.257-6.566h-9.244c-.415 0-.415.606 0 .606h9.244v1.434h-8.129c-1.657 0-1.434 1.498-1.434 1.498v3.06h-1.594v-6.12c0-1.243-.191-1.912 1.403-1.912h9.754v1.434zm0-4.048H26.063c-.383 0-.383.606 0 .606h11.475v1.434h-10.36c-1.657 0-1.434 1.498-1.434 1.498v7.108H24.15V29.363c0-1.243-.191-1.912 1.402-1.912h11.986v1.434zm0-4.08H23.799c-.382 0-.382.606 0 .606h13.739v1.402H24.947c-1.626 0-1.434 1.498-1.434 1.498V39.5h-1.594V25.602c0-1.052.605-2.008 1.593-2.2h14.026v1.403zm0-2.04h-3.634v-7.3c-1.562.192-4.654 1.85-6.248 3.762h5.323v3.57H5.631v-7.013H9.2v3.443h6.279c-2.008-2.327-6.28-4.335-9.85-4.208V8.772h8.67v3.57h-2.9c5.196 1.753 8.925 6.12 10.168 10.391 1.562-4.877 5.387-8.734 10.2-10.391h-2.932v-3.57h5.068v-1.02h3.633v15.013z" fill="#14007D"/>
                <path d="M21.536 22.765h.064c0-.032 0-.032-.032-.064 0 .032 0 .064-.032.064z" fill="#FFF"/>
            </g>
            <rect stroke="#9F853A" stroke-width="1.6" x=".8" y=".8" width="41.6" height="41.6" rx="12.8"/>
        </g>
    </g>
</svg>
