<svg width="64" height="64" viewBox="0 0 64 64" xmlns="http://www.w3.org/2000/svg" xmlns:xlink="http://www.w3.org/1999/xlink">
    <defs>
        <linearGradient x1="85.4%" y1="14.603%" x2="14.647%" y2="85.404%" id="mzmkc17y4a">
            <stop stop-color="#37AEE3" offset="0%"/>
            <stop stop-color="#0C3C86" offset="100%"/>
        </linearGradient>
        <linearGradient x1="85.4%" y1="14.603%" x2="50%" y2="50%" id="tasru6qbyc">
            <stop stop-color="#841D15" offset="0%"/>
            <stop stop-color="#B40E0C" offset="14.961%"/>
            <stop stop-color="#E20613" offset="44.824%"/>
            <stop stop-color="#E30613" offset="100%"/>
        </linearGradient>
        <circle id="h4dg3fakjb" cx="11.125" cy="11.125" r="11.125"/>
    </defs>
    <g fill="none" fill-rule="evenodd">
        <circle stroke="#CCC" stroke-width=".8" fill="#FFF" cx="32" cy="32" r="30.8"/>
        <g transform="translate(14.4 8)">
            <circle fill="url(#mzmkc17y4a)" cx="17.6" cy="17.6" r="17.6"/>
            <g transform="translate(9.63 3.32)">
                <mask id="0yzwoz7mvd" fill="#fff">
                    <use xlink:href="#h4dg3fakjb"/>
                </mask>
                <use fill="url(#tasru6qbyc)" xlink:href="#h4dg3fakjb"/>
                <circle fill="#FFF" mask="url(#0yzwoz7mvd)" cx="7.97" cy="14.279" r="10.958"/>
            </g>
        </g>
        <path d="M20.8 46.035c1.348 0 2.713-.018 4.043.017v2.325h-.753v7.616c-.84 0-1.715.018-2.537-.017V48.36H20.8v-2.325zm4.62.017h2.52v9.941h-2.537v-9.906c.017-.018 0-.035.017-.035zm7.106.278v2.064c-.052.018-.087-.07-.14-.104-.385-.277-.963 0-1.015.451-.018.208.052.451.087.677.14.642.315 1.25.49 1.822.245.763.596 1.578.526 2.55-.07.92-.49 1.579-1.156 1.943-.332.191-.77.295-1.26.26a3.635 3.635 0 0 1-1.242-.312v-2.273c.035-.017.105.035.157.07a.55.55 0 0 0 .175.086c.403.14.893-.052.928-.468.035-.364-.088-.78-.193-1.11-.315-.99-.752-1.84-.945-2.985-.14-.85-.017-1.561.403-2.099a2.14 2.14 0 0 1 .717-.59 2.41 2.41 0 0 1 .998-.312c.612 0 1.032.19 1.47.33zm4.06-.278v2.134c-.647-.07-1.067.087-1.207.538-.088.277-.035.746-.035 1.11v2.29c0 .382-.053.816.035 1.11.122.487.577.66 1.225.59v2.135c-1.383.07-2.275-.417-2.835-1.197a2.942 2.942 0 0 1-.56-1.44c-.035-.295-.018-.642-.018-.99v-3c0-.348 0-.66.053-.955.157-.78.63-1.423 1.19-1.822.525-.347 1.207-.572 2.152-.503zm3.518 0c1.26-.087 2.118.59 2.608 1.336.28.434.455.902.472 1.492.035.711 0 1.301 0 1.96v1.961c0 .642-.105 1.197-.35 1.614-.455.832-1.26 1.457-2.397 1.544-.63.052-1.173-.14-1.593-.365a2.805 2.805 0 0 1-1.015-.954 2.851 2.851 0 0 1-.473-1.492c-.035-1.301 0-2.637 0-3.921 0-.711.105-1.145.35-1.613.333-.625.84-1.128 1.576-1.388a3.82 3.82 0 0 1 .822-.174zm-.525 2.62c-.122.295-.07.78-.07 1.11v2.377c0 .417-.052.868.035 1.145.14.417.595.677 1.015.486.158-.07.35-.26.42-.486.088-.277.035-.78.035-1.11v-2.308c0-.399.053-.85-.035-1.127-.105-.33-.402-.608-.822-.538-.298.017-.473.225-.578.45z" fill="#0069B4"/>
    </g>
</svg>
