<svg width="64" height="64" viewBox="0 0 64 64" xmlns="http://www.w3.org/2000/svg">
    <g fill="none" fill-rule="evenodd">
        <circle fill="#FFF" cx="32" cy="32" r="29.6"/>
        <g fill-rule="nonzero">
            <path d="M41.847 53.157c1.707 0 2.974.488 4.095 1.024-.243.147-.487.341-.78.488-.926-.439-1.95-.731-3.315-.731-1.706 0-3.07.633-4.485 1.267-1.608.731-3.266 1.511-5.508 1.511-1.999 0-3.559-.731-5.021-1.414-1.512-.682-2.925-1.364-4.875-1.364-1.17 0-2.194.292-3.17.682a7.339 7.339 0 0 1-.828-.487c1.219-.537 2.486-.976 3.997-.976 2.145 0 3.706.732 5.217 1.414 1.462.683 2.827 1.316 4.68 1.316 2.096 0 3.656-.73 5.167-1.413 1.463-.634 3.023-1.316 4.826-1.316zm.05-1.51c1.849 0 3.13.569 4.41 1.205l.513.257c.146.097.341.195.536.292-.244.146-.487.341-.731.488-.098-.049-.146-.049-.195-.098-1.316-.682-2.584-1.316-4.485-1.316-1.706 0-3.071.585-4.485 1.267-1.609.732-3.266 1.512-5.509 1.512-1.998 0-3.558-.732-5.021-1.414-1.511-.683-2.925-1.365-4.875-1.365-1.706 0-3.022.634-4.485 1.267-.049.05-.049.05-.098.05-.243-.196-.487-.342-.73-.537.145-.098.34-.146.487-.244 1.462-.634 2.974-1.316 4.826-1.316 2.145 0 3.705.682 5.216 1.414 1.463.682 2.828 1.316 4.68 1.316 2.096 0 3.656-.731 5.168-1.414 1.413-.682 2.925-1.365 4.777-1.365zm0-1.463c2.096 0 3.46.682 4.874 1.413.585.293 1.17.585 1.804.83l-.731.584a12.63 12.63 0 0 1-1.414-.682c-1.316-.683-2.584-1.317-4.485-1.317-1.706 0-3.071.585-4.485 1.268-1.609.731-3.266 1.511-5.509 1.511-1.998 0-3.558-.731-5.021-1.413-1.511-.683-2.925-1.366-4.875-1.366-1.706 0-3.022.634-4.485 1.268-.439.195-.878.39-1.365.585l-.731-.585c.633-.195 1.17-.488 1.755-.731 1.462-.634 2.974-1.317 4.826-1.317 2.145 0 3.705.732 5.216 1.414 1.463.683 2.828 1.316 4.68 1.316 2.096 0 3.656-.73 5.168-1.413 1.413-.683 2.925-1.365 4.777-1.365zm0-1.511c2.096 0 3.46.73 4.874 1.364.926.488 1.853.975 3.071 1.22-.243.194-.487.438-.73.633-1.073-.293-1.902-.683-2.73-1.121-1.317-.634-2.584-1.268-4.486-1.268-1.706 0-3.071.634-4.485 1.268-1.609.731-3.266 1.511-5.509 1.511-1.998 0-3.558-.731-5.02-1.414-1.512-.682-2.926-1.365-4.876-1.365-1.706 0-3.022.634-4.485 1.268-.829.341-1.706.731-2.632 1.023-.244-.195-.439-.438-.683-.633 1.122-.244 2.096-.683 3.023-1.122 1.462-.633 2.974-1.316 4.826-1.316 2.145 0 3.705.732 5.216 1.414 1.463.682 2.828 1.316 4.68 1.316 2.096 0 3.656-.731 5.168-1.414 1.413-.682 2.925-1.364 4.777-1.364zm0-1.463c2.096 0 3.46.682 4.874 1.462 1.219.586 2.486 1.268 4.388 1.365-.195.244-.439.488-.683.732-1.706-.244-2.876-.829-4.046-1.414-1.316-.682-2.584-1.316-4.485-1.316-1.706 0-3.071.585-4.485 1.267-1.609.731-3.266 1.511-5.509 1.511-1.998 0-3.558-.73-5.021-1.413-1.511-.683-2.925-1.365-4.875-1.365-1.706 0-3.022.633-4.485 1.267-1.17.536-2.389 1.073-3.9 1.316-.244-.195-.439-.438-.682-.682 1.608-.195 2.973-.78 4.24-1.365 1.463-.634 2.974-1.316 4.827-1.316 2.145 0 3.705.731 5.216 1.413 1.463.683 2.828 1.317 4.68 1.317 2.096 0 3.656-.731 5.168-1.414 1.413-.683 2.925-1.365 4.777-1.365zm0-1.463c2.096 0 3.51.683 4.825 1.365 1.365.683 2.78 1.365 5.07 1.463.195 0 .44-.049.634-.049-.244.293-.439.585-.682.829-2.438 0-3.949-.731-5.363-1.462-1.316-.683-2.584-1.317-4.485-1.317-1.706 0-3.071.634-4.485 1.268-1.609.731-3.266 1.511-5.509 1.511-1.998 0-3.558-.731-5.02-1.414-1.512-.682-2.926-1.365-4.876-1.365-1.706 0-3.022.634-4.485 1.268-1.511.682-3.071 1.413-5.167 1.462-.13-.162-.282-.346-.426-.523l-.208-.257h.341c2.048 0 3.657-.731 5.168-1.414 1.462-.633 2.974-1.316 4.826-1.316 2.145 0 3.705.731 5.216 1.414 1.463.682 2.828 1.316 4.68 1.316 2.096 0 3.656-.731 5.168-1.414 1.413-.682 2.925-1.365 4.777-1.365z" fill="#927D73"/>
            <path d="M32 .8C14.791.8.8 14.791.8 32S14.791 63.2 32 63.2 63.2 49.209 63.2 32 49.209.8 32 .8zm0 57.428C17.521 58.227 5.773 46.477 5.773 32 5.773 17.521 17.52 5.773 32 5.773 46.479 5.773 58.227 17.52 58.227 32c0 14.479-11.748 26.227-26.227 26.227" fill="#ED1B2E"/>
            <path d="M46.625 24.054v6.484c0 1.803-.146 3.9-2.242 5.46-2.584 1.852-6.436 3.997-8.093 5.752-.975 1.024-1.462 2.34-1.462 3.169v2.437H33.56V37.85c0-1.268.146-2.974 1.072-4.095.927-1.121 9.02-6.045 10.238-7.02.536-.439 1.511-1.462 1.706-2.438l.049-.243zm0-13.016v10.627c0 1.901-1.414 3.364-2.584 4.339-.52.433-2.465 1.675-4.543 3.02l-.626.406c-2.405 1.562-4.815 3.167-5.263 3.74-.927 1.121-1.024 2.73-.975 3.997v10.14h-1.219V27.905c0-2.389.926-4.29 3.705-6.24 2.779-1.95 8.385-4.973 9.604-6.581 1.072-1.414 1.901-2.535 1.901-4.046zM27.271 22.152c-2.535-1.95-7.702-6.093-8.336-6.922-.634-.829-1.95-2.291-1.95-4.095v9.896c0 1.414.683 3.949 3.12 5.753 2.438 1.804 5.899 4.387 6.971 5.46 1.024 1.023 1.999 2.925 1.999 5.606v9.555h1.219V28.441c.097-3.12-.488-4.338-3.023-6.288z" fill="#00A950"/>
        </g>
    </g>
</svg>
