<svg width="64" height="64" viewBox="0 0 64 64" xmlns="http://www.w3.org/2000/svg">
    <g transform="translate(.8 .8)" fill-rule="nonzero" fill="none">
        <circle fill="#FFF" cx="31.2" cy="31.2" r="27.788"/>
        <path d="M62.4 31.2c0 17.232-13.968 31.2-31.2 31.2S0 48.432 0 31.2 13.968 0 31.2 0s31.2 13.968 31.2 31.2zm-13.125 4.093c.635-1.758.181-5.14.181-5.14l.477-.342s.248-.755-.362-2.833c-.612-2.08-2.129-4.136-2.129-4.136l.475-.55s-1.29-1.644-2.285-2.329c-.996-.685-2.286-1.53-3.961-1.554-1.675-.023-2.695 1.096-3.419 1.783-.724.685-2.082 1.668-3.597 1.622-1.517-.047-2.74-1.166-3.125-1.943-.383-.776-.044-1.668.68-2.445.724-.775 1.063-.775 1.584-.844.52-.07.77-.618.77-.618s.542.023 1.267-.113c.724-.139.588-.572.95-.595.362-.023.884-.205.884-.205-.272-.091-.205-.572-1.042-.983-.838-.412-1.606-.09-1.606-.09s-.658-.572-.93-.709c-.27-.138-1.13-.573-2.42-.526-1.29.046-2.355 1.119-2.355 1.119s-.294.138-.566.092c-.27-.046-.204-.388-.204-.388.204-.526-.067-.891-.34-.891-.27 0-.746.206-.655.937.09.73.791 1.004.791 1.004s-.225.435-.566.412a.587.587 0 0 1-.474-.297s-.046-.388-.069-.663c-.021-.274-.497-.502-.905-.206-.406.298-.34.892.295 1.44.633.549 1.538.412 1.538.412-.452.183-.474.822-.61 1.12-.137.296-.476.205-.657.707-.181.503-.09 1.326-.09 1.326s-.703.525-.703.8c0 .273-.36.615-.52.708-.158.09-1.109.365-1.764.069-.658-.298-1.246-1.144-1.97-1.76-.725-.617-2.06-.8-3.259-.412-1.2.389-2.92 2.057-3.53 2.993-.612.937-1.11 2.033-1.02 2.193.091.16.295.115.295.115-.838.8-1.675 4-1.654 4.98.023.983 0 .914.318.96.317.046.385.206.385.206s-.339.89-.453 1.76c-.113.867-.136 2.718.114 3.245.248.525.747.479.747.479s.316 2.375.882 4.181c.566 1.804 1.652 3.518 2.127 3.974.476.458.815.573.996.252.181-.32-.18-.571-.339-.96-.158-.388-.091-.615-.135-.73-.046-.114-.522-.778-.589-1.005-.068-.229.023-.64.09-1.279.068-.64-.023-1.554-.023-1.554s.34-.617.476-1.235c.136-.616.113-1.37.113-1.37h.453l.43-.343s.045-.503.113-1.074c.069-.571.612-.617.905-.914.294-.296.408-.982.408-.982s.724.205 1.517 0c.792-.206 1.56-.96 1.56-.96s.68-.114 1.02-.32c.339-.205.43-.754.43-.754s.498.093.905-.069c.408-.16.814-.456.814-.456s.181.618.454.868c.27.252.497.298.747.525.248.229.384.823.77.937.384.115.407.138.27.367-.135.227-1.56.821-1.56.821s-1.224.093-1.698.07c-.477-.024-1.178-.183-1.405-.07-.225.114-1.131.823-1.402 1.052-.272.228-.091.776-.091.776l.295-.137s-.046.206.022.458c.067.25.182.502.182.502l.225-.252c.137.321.182.206.182.206s.248-.25.248-.389c0-.136.158-.32.362-.32s.341.024.543-.091c.204-.114.362-.274.43-.297.07-.023.273.275.567.275.293 0 .905-.525 1.177-.525.271 0 .724.16 1.018.181.295.023.793.275.793.275.068-.275-.317-.662-.34-.89-.023-.23.271-.412.43-.298.159.115.294.319.43.182.135-.136.135-.548.158-.708.023-.16.204-.388.453-.388.248 0 .656.434.951.594.294.16.181.206.408.435.225.227.52.229.86.25.339.023.407.206.203.389-.204.182-1.72 1.028-1.72 1.028s-2.15.023-2.897.068c-.747.046-1.879 1.258-1.97 1.714-.09.457.091.754.091.754.022-.206.408-.183.408-.183-.023.32.225.754.225.754-.021-.25.408-.342.408-.342.046.457.543.684.543.684s-.113-.319-.023-.548c.091-.229.362-.685.543-.89.181-.206.43-.572.43-.572.227.23.929.23.929.23s.339-.23.678-.23c.341 0 .295.092.68.137.385.046.543-.25.724-.181.181.067.498.708.498.708s.25-.092.385-.504c.135-.412-.113-.685-.227-.799-.113-.115.069-.434.295-.48.225-.046.362.069.816.16.451.092.655-.366.655-.366-.747-.206-.701-.594-.407-.845.295-.251.792-.777 1.245-.525.452.25-.022.731.136.982s.497.092.724.023c.227-.07.385-.23.633.182.25.412.204.458-.136 1.097-.339.64-.724.913-.905.663-.18-.252-1.267-.32-1.267.366 0 .685.815.638.815.638s-.363.389-.16.937c.205.55 1.066.48 1.066.48-.023.618-.59 1.509-1.494 1.509-.907 0-1.223-.343-1.223-.343s.18.64-.747.685c-.928.046-.974-1.096-.974-1.096s-.564.777-.044 1.485c.52.708 1.584.754 1.584.754s.407.73.928.867c.52.139 1.244 0 1.697-.067.454-.07.928.021.928.021-1.017 3.245-3.44 4.205-4.232 4.32-.792.114-2.31.137-3.033-.07-.724-.205-1.517-1.53-1.449-2.169.067-.64.702-1.075 1.087-1.075s1.017-.25.905-.821c-.113-.572-.747-.777-1.517-.435-.77.342-1.54 1.439-1.334 2.764.202 1.325.791 1.69.791 1.69l-.023.458c-2.784-.823-3.598-2.192-3.734-3.656-.136-1.462.521-1.94 1.064-2.056.543-.114.883-.229.837-.777-.046-.548-.701-.799-1.221-.708-.52.092-1.631.389-1.88 2.125-.249 1.737.43 3.382 2.354 4.913 1.925 1.53 4.935 1.21 4.935 1.21 1.063.8 2.851 1.234 4.686 1.029 1.833-.206 5.068-1.989 6.269-4.959 1.198-2.97-.092-6.168-.092-6.168s.658-.824.431-3.268c-.227-2.445-2.105-3.974-2.105-3.974s-.204-.595-.113-.779c.09-.181.316-.137.543 0 .227.138.43.321.43.321s.61-.07.77-.252c.159-.183.565-.16.814-.046.25.115.702.138.702.138s.203-.32.476-.342c.27-.023.385.16.52.296.135.137.362.275.362.275.114-.161.43-.184.77.114.339.298.611 1.073.838 1.508.225.434.747.708.747.708s-.43 1.096-.295 2.354c.135 1.256.566 1.94.566 1.94s-.204.207-.385.8c-.181.595-.158 1.555.023 1.99.18.432.09 1.14.09 1.14-.746.367-1.11 1.349-1.041 2.103.068.754.135.777.453.708.317-.068 1.132-1.12 2.422-3.746 1.29-2.629 1.675-5.439 1.675-5.439l.678-.229z" fill="#00A4E4"/>
    </g>
</svg>
