<svg width="64" height="64" viewBox="0 0 64 64" xmlns="http://www.w3.org/2000/svg">
    <g transform="translate(.8 .8)" fill-rule="nonzero" fill="none">
        <circle fill="#6F5F5E" cx="31.2" cy="31.2" r="31.2"/>
        <g fill="#FFD400">
            <path d="m25.234 34.369-.012-.009c-1.213-1.25-2.678-3.303-3.61-6.263 0 0-.038-.113-.097-.113-.059 0-.1.126-.1.126V28.1c-2.003 6.52-6.86 9.097-8.522 9.664-.092.033-.092.105-.084.146a19.71 19.71 0 0 0 3.715 6.188c.03.025.088.046.176 0 5.201-2.964 8.156-8.752 8.551-9.558a.14.14 0 0 0-.017-.172M37.03 34.369c.017-.005.017-.009.017-.009 1.213-1.25 2.682-3.303 3.606-6.263 0 0 .042-.113.096-.113.059 0 .1.126.1.126V28.1c2.012 6.515 6.86 9.097 8.527 9.66.088.033.096.104.08.146a19.39 19.39 0 0 1-3.712 6.188c-.029.025-.092.046-.172 0-5.205-2.964-8.164-8.753-8.555-9.559-.046-.08-.004-.138.013-.167M40.552 48.141c-7.359-7.161-9.29-19.939-9.29-19.939s-.03-.222-.126-.222-.126.222-.126.222-1.93 12.778-9.285 19.94c0 0-.076.067.004.117a19.483 19.483 0 0 0 9.281 2.414h.252a19.404 19.404 0 0 0 9.281-2.418c.08-.055.009-.114.009-.114M41.328 14.459c-.113-.06-.113.092-.113.092.009 2.305.32 15.024 9.21 18.907.084.037.11-.026.11-.047.083-.75.138-1.506.138-2.279 0-7.065-3.745-13.24-9.345-16.673M20.948 14.459c.11-.06.11.092.11.092-.009 2.305-.32 15.024-9.21 18.907-.08.037-.105-.026-.11-.047a20.448 20.448 0 0 1-.138-2.279c-.004-7.065 3.744-13.24 9.348-16.673M40.157 13.795a19.515 19.515 0 0 0-8.446-2.195c-.084 0-.071.1-.071.1 0 3.88.626 12.955 3.652 19.088.025.071.076.042.105.03.004-.005.008-.013.017-.013.298-.324 4.995-5.483 4.815-16.875-.013-.08-.055-.126-.072-.135M22.115 13.795a19.512 19.512 0 0 1 8.442-2.195c.08 0 .076.1.076.1 0 3.88-.626 12.955-3.66 19.088-.022.071-.08.042-.097.03-.009-.005-.009-.013-.021-.013-.303-.324-4.996-5.483-4.811-16.875.008-.08.046-.126.071-.135"/>
        </g>
    </g>
</svg>
