<svg width="64" height="64" viewBox="0 0 64 64" xmlns="http://www.w3.org/2000/svg">
    <g fill-rule="nonzero" fill="none">
        <circle fill="#1B3281" cx="32" cy="32" r="31.2"/>
        <path d="M15.379 25.245a99.792 99.792 0 0 1-1.377 3.333l-.642 1.482-.654-1.482c-.497-1.12-.962-2.228-1.409-3.333H7.674v.294c.405 0 .739.333.739.743-.056.764-.126 1.53-.206 2.296l-.234 2.33a76.512 76.512 0 0 1-.405 3.336h1.16c.07-1.106.162-2.218.273-3.336l.357-3.514a122.687 122.687 0 0 1 1.486 3.222l.125.297c.497 1.113.965 2.225 1.414 3.331h.347c.437-1.106.898-2.218 1.378-3.336l.214-.475a88.061 88.061 0 0 1 1.455-3.22l.369 3.7c.113 1.112.203 2.225.275 3.331h2.664a84.507 84.507 0 0 1-.401-3.336l-.234-2.33a72.322 72.322 0 0 1-.282-3.333h-2.79M27.305 33.345c.295-.552.606-1.11.936-1.665l3.223-5.374v-.232h-7.101v1.657l.284.005c0-.395.309-.723.692-.753.22-.004.437-.017.659-.017h2.294a35.38 35.38 0 0 1-.916 1.639l-3.25 5.408v.231h7.669v-.961c-.543.042-1.088.062-1.633.062h-2.857M40.445 34.244c.024-.005.046-.005.076-.007a17.702 17.702 0 0 1-.076-1.657v-2.026h3.18v2.026c0 .555-.022 1.112-.068 1.664h2.446a20.35 20.35 0 0 1-.06-1.664v-4.834c0-.562.015-1.114.06-1.672H42.89v.261h.072a.66.66 0 0 1 .647.624c.009.261.017.522.017.787v1.908h-3.18v-1.908c0-.562.024-1.114.066-1.672h-3.112v.261h.063c.347 0 .628.272.656.618.004.265.009.528.009.793V33.4a7.612 7.612 0 0 1-.982.055c-.36 0-.708-.023-1.054-.086-.98-.181-1.134-1.093-1.134-1.67v-4.003c0-.541.022-1.079.06-1.622h-3.109v.261h.063c.345 0 .63.272.656.618.002.265.01.527.01.793v3.563c0 .808.255 2.576 2.432 2.895.675.096 1.374.152 2.076.152 1.107 0 2.212-.039 3.3-.112M56.47 30.16c0 2.782-2.402 4.196-4.77 4.196-2.373 0-4.775-1.414-4.775-4.196 0-2.783 2.402-4.194 4.774-4.194 2.369 0 4.771 1.411 4.771 4.194zm-2.328 0c-.002-1.514-.639-3.3-2.443-3.3-1.814 0-2.446 1.786-2.451 3.3.005 1.518.637 3.295 2.451 3.295 1.804 0 2.44-1.777 2.443-3.295M23.021 27.746c0-.562.022-1.114.068-1.672H19.89v.29h.073c.407 0 .735.342.735.754.007.208.01.42.01.628v4.834c0 .555-.024 1.112-.065 1.664h2.446a20.229 20.229 0 0 1-.068-1.664v-4.834" fill="#FFF"/>
        <path d="M59.833 40.856a159.826 159.826 0 0 0-27.816-2.435c-9.488 0-18.785.841-27.814 2.435a.095.095 0 0 1-.111-.067c-.012-.048.015-.106.07-.115 8.807-2.702 18.16-4.152 27.855-4.152 9.7 0 19.052 1.45 27.862 4.152.053.01.079.067.06.115-.007.051-.056.077-.106.067" fill="#ED1A3A"/>
    </g>
</svg>
