<svg width="64" height="64" viewBox="0 0 64 64" xmlns="http://www.w3.org/2000/svg">
    <g transform="translate(.8 .8)" fill="none" fill-rule="evenodd">
        <circle fill="#00256B" cx="31.2" cy="31.2" r="31.2"/>
        <g fill-rule="nonzero">
            <path d="M50.777 35.312c1.36 0 1.972-.539 1.972-1.618 0-1.078-.612-1.618-1.768-1.618h-2.72v3.236h2.516zm-.136-5.056c1.02 0 1.564-.54 1.564-1.416 0-.943-.544-1.483-1.428-1.483h-2.583v2.9h2.447zm3.603 1.079c.748.54 1.156 1.483 1.156 2.494 0 1.079-.408 1.888-1.224 2.495-.816.606-1.631.809-3.059.809h-5.03c-.273 0-.477-.203-.477-.405V25.942c0-.203.204-.405.476-.405h4.827c1.428 0 2.04.202 2.72.674.68.472 1.155 1.416 1.155 2.292 0 1.146-.408 2.023-1.36 2.427.272.068.476.203.816.405m-28.829-5.933c.272 0 .408.202.408.405v6.741c0 1.214.136 1.55.612 1.955.408.337.884.54 1.564.54s1.156-.203 1.564-.54c.475-.404.611-.741.611-1.955v-6.741c0-.27.204-.405.408-.405h1.768c.272 0 .408.202.408.405v6.809c0 1.887-.34 2.764-1.36 3.573-.748.741-1.835 1.011-3.331 1.011s-2.584-.27-3.4-.944c-1.087-.809-1.427-1.685-1.427-3.573v-6.876c0-.27.204-.405.408-.405h1.767zM39 25.2c3.331 0 5.439 2.36 5.439 6s-2.108 6-5.439 6-5.439-2.36-5.439-6 2.04-6 5.439-6zm0 2.09c-1.7 0-2.855 1.416-2.855 3.843-.068 2.629 1.02 3.977 2.855 3.977 1.768 0 2.855-1.348 2.855-3.91 0-2.494-1.087-3.91-2.855-3.91z" fill="#FFF"/>
            <path d="M12.537 24.71v5.78h1.279v-5.78c0-.378.331-.71.71-.71.38 0 .71.332.71.71v5.78h1.232v-5.78c0-.378.332-.71.71-.71.38 0 .711.332.711.71v5.78h1.8c.38 0 .711.284.711.71 0 .379-.332.71-.71.71h-1.8v5.78c0 .378-.332.71-.711.71a.729.729 0 0 1-.71-.71v-5.827h-1.232v5.78c0 .378-.332.71-.71.71a.729.729 0 0 1-.711-.71v-5.78h-1.232v5.78c0 .378-.331.71-.71.71a.729.729 0 0 1-.71-.71v-5.78H9.931v5.78c0 .378-.332.71-.71.71a.729.729 0 0 1-.711-.71v-5.78h-1.8a.729.729 0 0 1-.711-.71c0-.38.332-.71.71-.71h1.8V24.71c0-.38.332-.711.711-.711.379 0 .71.332.71.71v5.78h1.232v-5.78c0-.378.332-.71.71-.71.38 0 .664.284.664.71" fill="#DF0925"/>
        </g>
    </g>
</svg>
