<svg width="24" height="24" viewBox="0 0 24 24" xmlns="http://www.w3.org/2000/svg">
    <g fill="none" fill-rule="evenodd">
        <g fill="#29A8A5">
            <path d="M21.374 9.954h-5.416a.62.62 0 0 0-.625.614c0 .338.28.613.625.613h5.416a.62.62 0 0 0 .625-.613.62.62 0 0 0-.625-.614zM21.374 12.409h-5.416a.62.62 0 0 0-.625.613c0 .34.28.614.625.614h5.416a.62.62 0 0 0 .625-.614.62.62 0 0 0-.625-.613zM21.374 14.863h-5.416a.62.62 0 0 0-.625.614c0 .339.28.614.625.614h5.416a.62.62 0 0 0 .625-.614.62.62 0 0 0-.625-.614zM21.374 17.318h-5.416a.62.62 0 0 0-.625.614c0 .338.28.613.625.613h5.416a.62.62 0 0 0 .625-.613.62.62 0 0 0-.625-.614zM21.374 19.773h-5.416a.62.62 0 0 0-.625.613c0 .34.28.614.625.614h5.416a.62.62 0 0 0 .625-.614.62.62 0 0 0-.625-.613z"/>
        </g>
        <path d="M3.459 21h8.75c.8 0 1.458-.647 1.458-1.432v-8.182c0-.785-.659-1.432-1.459-1.432h-8.75c-.8 0-1.458.647-1.458 1.432v8.183C2 20.354 2.659 21 3.459 21z" fill="#096B65" fill-rule="nonzero"/>
        <path d="M7.833 12.819c.692 0 1.25.548 1.25 1.227s-.558 1.227-1.25 1.227c-.69 0-1.25-.548-1.25-1.227 0-.68.558-1.227 1.25-1.227zM5.334 17.63c0-.85.783-1.538 1.75-1.538h1.5c.966 0 1.75.687 1.75 1.538v.303a.624.624 0 0 1-.626.614h-3.75a.624.624 0 0 1-.624-.614v-.303z" fill="#B3E0E0"/>
        <path d="M20.54 3H3.46C2.654 3 2 3.642 2 4.431v2.046c0 .79.654 1.432 1.459 1.432H20.54c.804 0 1.459-.642 1.459-1.432V4.431C21.999 3.641 21.345 3 20.54 3z" fill="#096B65" fill-rule="nonzero"/>
    </g>
</svg>
