<svg width="24" height="24" viewBox="0 0 24 24" xmlns="http://www.w3.org/2000/svg">
    <g fill="none" fill-rule="evenodd">
        <path d="M12 6.2a5.81 5.81 0 0 1 5.8 5.8 5.81 5.81 0 0 1-5.578 5.797L12 17.8A5.81 5.81 0 0 1 6.2 12 5.81 5.81 0 0 1 12 6.2z" fill="#096B65" fill-rule="nonzero"/>
        <path d="m12 1 .369.006c2.448.085 4.696 1.011 6.489 2.447l.825-.825.902 4.55-4.55-.901.98-.98A8.262 8.262 0 0 0 12 3.62c-4.615 0-8.379 3.764-8.379 8.379S7.385 20.379 12 20.379l.25-.004c4.5-.133 8.129-3.844 8.129-8.375H23c0 6.046-4.954 11-11 11S1 18.046 1 12 5.954 1 12 1z" fill="#29A8A5"/>
        <path fill="#FFF" d="M14.122 10.255 12 12.378l-.645.644-1.477-1.478-.912.912 2.39 2.389L12 14.2l3.034-3.033z"/>
    </g>
</svg>
