<svg width="24" height="24" viewBox="0 0 24 24" xmlns="http://www.w3.org/2000/svg">
    <g fill="none" fill-rule="evenodd">
        <g transform="translate(1.5 6)">
            <path d="M.5 13h4v2a1 1 0 0 1-1 1h-2a1 1 0 0 1-1-1v-2zM16.5 13h4v2a1 1 0 0 1-1 1h-2a1 1 0 0 1-1-1v-2z" fill="#096B65"/>
            <rect fill="#29A8A5" y="4" width="6" height="2" rx="1"/>
            <rect fill="#29A8A5" x="15" y="4" width="6" height="2" rx="1"/>
            <path d="M3.636 1.512A3 3 0 0 1 6.241 0h8.518a3 3 0 0 1 2.605 1.512L20.5 7v7H.5V7l3.136-5.488z" fill="#096B65"/>
            <path d="M2.401 8h2.564a1 1 0 0 1 .832.445L6 8.75a.482.482 0 0 1-.401.75H3.035a1 1 0 0 1-.832-.445L2 8.75A.482.482 0 0 1 2.401 8zM16.035 8H18.6a.482.482 0 0 1 .401.75l-.203.305a1 1 0 0 1-.832.445H15.4A.482.482 0 0 1 15 8.75l.203-.305A1 1 0 0 1 16.035 8zM7.16 2h6.68a2 2 0 0 1 1.736 1.008L17 5.5H4l1.424-2.492A2 2 0 0 1 7.161 2z" fill="#FFF"/>
            <path fill="#29A8A5" d="M6.5 8h8l-1 3h-6z"/>
        </g>
        <path d="M22.576 2.565 18.2 1.035a.598.598 0 0 0-.402 0l-4.375 1.53a.64.64 0 0 0-.424.609v3.444c0 4.203 4.562 6.246 4.756 6.33.157.07.33.07.488 0 .194-.085 4.756-2.127 4.756-6.33V3.174a.64.64 0 0 0-.424-.609" fill="#29A8A5"/>
        <path fill="#FFF" d="m20.156 4.8-2.122 2.122-.645.645-1.478-1.478L15 7l2.39 2.39.644-.645 3.034-3.034z"/>
    </g>
</svg>
