<svg width="25" height="25" viewBox="0 0 25 25" xmlns="http://www.w3.org/2000/svg">
    <g transform="translate(1 2)" fill-rule="nonzero" fill="none">
        <path d="M21.722 18.7c0 .717-.572 1.3-1.278 1.3h-1.916a1.29 1.29 0 0 1-1.278-1.3v-5.204c0-.718.572-1.3 1.278-1.3h1.916a1.29 1.29 0 0 1 1.278 1.3v5.203zm-15.972 0c0 .717-.572 1.3-1.278 1.3H2.556a1.29 1.29 0 0 1-1.278-1.3v-5.204c0-.718.572-1.3 1.278-1.3h1.916a1.29 1.29 0 0 1 1.278 1.3v5.203z" fill="#292F33"/>
        <path d="M5.75.488c2.556-.65 8.944-.65 11.5 0 2.48.63 3.194 7.154 3.194 7.154s1.278 0 1.278 2.602v5.203s-.076 1.97-2.555 2.602c-2.556.65-4.473.65-7.667.65s-5.111 0-7.667-.65c-2.479-.631-2.555-2.602-2.555-2.602v-5.203s0-2.602 1.278-2.602c0 0 .715-6.523 3.194-7.154z" fill="#606BBB"/>
        <path d="M11.5 6.992c2.495 0 5.51.13 7.667.365l-.64-3.617c-.638-1.951-4.471-1.951-7.027-1.951s-6.389 0-7.028 1.95l-.639 3.618c2.158-.235 5.172-.365 7.667-.365z" fill="#C1E0F6"/>
        <path d="M3.194 7.317c0 .54-.428.976-.958.976H.958A.967.967 0 0 1 0 7.317c0-.54.429-.976.958-.976h1.278c.53 0 .958.437.958.976zm16.612 0c0 .54.429.976.958.976h1.278A.967.967 0 0 0 23 7.317c0-.54-.43-.976-.958-.976h-1.278a.967.967 0 0 0-.958.976z" fill="#606BBB"/>
        <path d="M11.5 16.098c-3.618 0-8.075-.147-8.757-.841a.658.658 0 0 1 0-.92.63.63 0 0 1 .81-.08c.147.066 1.46.54 7.947.54 6.488 0 7.8-.474 7.948-.54a.63.63 0 0 1 .81.08c.25.254.25.665 0 .92-.683.694-5.14.84-8.758.84z" fill="#A0A8D7"/>
        <path d="M15.972 16.423c0 .975-2.002 1.626-4.472 1.626-2.47 0-4.472-.65-4.472-1.626 0-.539 2.002-.325 4.472-.325 2.47 0 4.472-.214 4.472.325zM1.278 10.238h3v3h-3zM18.722 10.238h3v3h-3z" fill="#3F49A5"/>
        <rect fill="#FACE34" x="3" y="10.238" width="4" height="3" rx="1.5"/>
        <rect fill="#FACE34" x="16" y="10.238" width="4" height="3" rx="1.5"/>
    </g>
</svg>
