<svg width="24" height="24" viewBox="0 0 24 24" xmlns="http://www.w3.org/2000/svg">
    <g fill="none" fill-rule="evenodd">
        <path d="M16.806 2c.807.01 3.031.133 4.084 1.186 1.479 1.48 1.48 5.559 0 7.04-.593.593-1.553.88-2.254 1.015a10.13 10.13 0 0 1-1.931.17c-.256-.001-.513-.01-.768-.029l-2.762 1.657v-2.34a2.775 2.775 0 0 1-.656-.473c-1.479-1.48-1.48-5.559 0-7.04C13.619 2.086 16.001 2 16.705 2z" fill="#096B65" fill-rule="nonzero"/>
        <path d="M14.352 6.118V4.94h4.705v1.177h-4.705zm0 2.353V7.294h4.705v1.177h-4.705z" fill="#FFF"/>
        <path d="M6.7 10.061a.567.567 0 0 1 .165-.439l.68-.679-1.387-1.94-1.941-1.387-1.664 1.663c-.23.23-.395.513-.474.82-.334 1.284.416 2.924 1.75 4.724.92 1.242 2.118 2.561 3.43 3.893l1.463-.91.909-1.463a26.292 26.292 0 0 1-1.703-1.994c-.65-.855-1.19-1.726-1.227-2.288z" fill="#29A8A5"/>
        <path d="M15.875 21.896c.305-.08.588-.243.82-.475l1.663-1.663-1.387-1.941-1.94-1.387-.68.68a.567.567 0 0 1-.438.164c-1.264-.085-3.195-1.801-4.08-2.718a22.762 22.762 0 0 1-.202-.213l-2.372 2.373c1.193 1.211 2.71 2.689 4.083 3.706 1.698 1.26 3.165 1.83 4.533 1.474z" fill="#29A8A5"/>
        <path d="m6.327 3.505-2.11 2.11 3.327 3.328 2.11-2.11-3.327-3.328zM17.14 14.32l-2.11 2.11 3.328 3.328 2.11-2.11-3.327-3.328z" fill="#096B65" fill-rule="nonzero"/>
    </g>
</svg>
