<svg width="24" height="24" viewBox="0 0 24 24" xmlns="http://www.w3.org/2000/svg">
    <g fill="none" fill-rule="evenodd">
        <path d="M5.833 3.635h13.334c.5 0 .833.334.833.835v16.695c0 .501-.333.835-.833.835H5.833c-.5 0-.833-.334-.833-.835V4.47c0-.5.333-.835.833-.835z" fill="#096B65" fill-rule="nonzero"/>
        <path d="M16.667 3.635h-1.834C14.417 2.3 13 1.715 11.667 2.133c-.667.25-1.25.751-1.5 1.502H8.333V6.14c0 .5.334.834.834.834h6.666c.5 0 .834-.334.834-.834V3.635z" fill="#29A8A5"/>
        <g transform="translate(7.5 9.479)" fill="#B3E0E0">
            <circle cx=".833" cy=".835" r="1"/>
            <circle cx=".833" cy="4.174" r="1"/>
            <circle cx=".833" cy="7.513" r="1"/>
        </g>
        <g transform="translate(10.833 3.635)" fill="#B3E0E0">
            <path d="M0 5.843h6.25v1.67H0zM0 9.182h3.75v1.67H0zM0 12.521h5v1.67H0z"/>
            <circle cx="1.667" cy=".835" r="1"/>
        </g>
    </g>
</svg>
