<svg width="71" height="71" viewBox="0 0 71 71" xmlns="http://www.w3.org/2000/svg">
    <g fill="none" fill-rule="evenodd">
        <path fill="#163A68" d="M10.804 60.196h49.392V10.804H10.804z"/>
        <g fill="#FFF">
            <path d="M16.355 54.192c.208.004.464.004.607-.044.178-.062.298-.195.298-.408 0-.154-.052-.307-.19-.393-.138-.08-.351-.08-.715-.07v.915zm0-1.483c.195 0 .447 0 .563-.053a.42.42 0 0 0 .245-.388c0-.31-.231-.4-.49-.4-.081 0-.216.007-.318.007v.834zm-.797 2.017-.033-.021c.012-.675.016-1.348.016-2.028 0-.655-.004-.833-.024-1.29l.028-.027.668-.01c.164-.003.452-.01.617-.01.467 0 .776.06.977.27a.79.79 0 0 1 .19.535.75.75 0 0 1-.073.333c-.126.253-.318.341-.477.41.099.015.203.034.293.083.271.132.4.413.4.718 0 .268-.082.582-.4.807-.356.249-.905.238-1.35.23h-.832zM19.844 53.487c-.323.041-.7.092-.7.408 0 .198.143.289.316.289a.767.767 0 0 0 .384-.122v-.575zm.785.169c0 .448 0 .567.035 1.036l-.026.034c-.31-.006-.416 0-.76.013l-.026-.034v-.176c-.102.083-.306.255-.666.255-.465 0-.834-.33-.834-.842 0-.214.09-.486.358-.651.287-.177.556-.227 1.128-.307 0-.07-.013-.158-.063-.205-.064-.06-.135-.09-.31-.09-.321 0-.628.122-.798.19l-.038-.018.026-.523.028-.036c.27-.081.522-.157.934-.157.611 0 .805.19.897.345.124.198.124.387.12.815l-.005.351zM23.367 54.72c-.38 0-.462.006-.779.014l-.026-.03.003-.489c0-.182-.003-.834-.015-.993-.016-.17-.037-.451-.302-.451-.15 0-.266.08-.366.147.003.853.009 1.04.039 1.773l-.03.028c-.383 0-.452 0-.795.015l-.031-.03c.005-.304.01-.61.01-.911 0-.779-.03-1.08-.065-1.494l.028-.034a8.51 8.51 0 0 0 .806-.139l.047.033-.009.262c.22-.129.474-.28.764-.28.172 0 .446.039.59.285.121.196.126.414.13.875v.37c.011.467.011.6.034 1.02l-.033.028zM28.909 54.705l-.858.034-.044-.029a19.654 19.654 0 0 0-.712-1.374l.005.548.03.809-.03.033c-.363 0-.453 0-.77.013l-.035-.034c.006-.77.006-1.545-.004-2.318-.01-.624-.025-.846-.057-1.312l.028-.032.829-.123.04.03c-.026.717-.03.908-.036 1.8v.53c.224-.33.267-.403.642-1.048l.047-.034.778-.01.022.048c-.339.434-.37.482-.699.93.36.652.408.738.858 1.497l-.034.042z"/>
            <path d="M30.446 52.783a.413.413 0 0 0-.305-.148.4.4 0 0 0-.349.216c-.094.166-.094.472-.094.61 0 .463.088.626.17.706.058.053.143.11.269.11.394 0 .446-.435.446-.825 0-.258-.021-.53-.137-.669m-.319 2c-.684 0-.918-.258-1.042-.448-.177-.255-.224-.565-.224-.868 0-.88.47-1.322 1.299-1.322.124 0 .371.01.58.091.668.264.668 1.035.668 1.22 0 .717-.269 1.328-1.28 1.328M34.152 54.705l-.86.034-.041-.029a22.125 22.125 0 0 0-.712-1.374l.005.548.025.809-.025.033c-.362 0-.455 0-.774.013l-.034-.034c.006-.77.006-1.545-.004-2.318a18.427 18.427 0 0 0-.056-1.312l.03-.032.828-.123.035.03a57.34 57.34 0 0 0-.03 1.8v.53c.218-.33.267-.403.637-1.048l.052-.034.776-.01.024.048c-.338.434-.37.482-.701.93.363.652.41.738.858 1.497l-.033.042zM36.258 51.372a88.72 88.72 0 0 0-.022 1.975c0 .69.008.91.031 1.347l-.026.032c-.396 0-.495 0-.853.013l-.022-.029c.02-.495.026-.786.026-1.348 0-1.217-.013-1.461-.041-1.974l.021-.028c.341.005.452.005.864-.013l.022.025zM39.07 54.72c-.38 0-.462.006-.78.014l-.027-.03c0-.163.006-.326.006-.489 0-.182-.006-.834-.014-.993-.016-.17-.04-.451-.302-.451-.155 0-.268.08-.369.147.004.853.011 1.04.041 1.773l-.03.028c-.383 0-.455 0-.8.015l-.026-.03c.003-.304.01-.61.01-.911 0-.779-.03-1.08-.067-1.494l.028-.034c.359-.048.44-.062.805-.139l.05.033-.01.262c.219-.129.472-.28.76-.28.175 0 .448.039.596.285.119.196.124.414.13.875v.37c.007.467.007.6.031 1.02l-.032.028zM40.751 53.165c.264.102.633.238.633.764 0 .035 0 .068-.007.104-.085.683-.802.75-1.165.75-.347 0-.55-.078-.781-.162l-.025-.044c.02-.237.025-.291.032-.54l.043-.018c.073.055.11.09.195.134.172.089.368.133.503.133.266 0 .376-.128.376-.248 0-.173-.208-.243-.336-.286l-.184-.069c-.224-.082-.621-.236-.621-.747a.7.7 0 0 1 .13-.418c.249-.357.714-.377.95-.377.308 0 .508.057.728.12l.027.027-.049.519-.045.016a1.001 1.001 0 0 0-.594-.198c-.298 0-.334.154-.334.21 0 .136.128.188.29.247l.234.083zM43.957 52.213c-.011.448-.015.895-.015 1.344 0 .62.01.8.035 1.139l-.031.03c-.31 0-.413 0-.763.013l-.033-.029.003-.214c-.169.134-.364.288-.704.288-.24 0-.472-.08-.624-.255-.175-.2-.198-.42-.19-.938v-.333c0-.483-.008-.617-.033-1.016l.033-.03.783-.038.037.039-.013.962c-.002.121-.002.244-.002.363 0 .28 0 .643.34.643.133 0 .233-.071.363-.158v-.405c0-.076 0-.839-.03-1.376l.03-.03.78-.038.034.039zM45.724 52.977a.332.332 0 0 0-.197-.067c-.324 0-.324.312-.324.528 0 .328.032.866.052 1.253l-.027.035c-.38-.007-.459 0-.811.013l-.028-.029c.012-.397.012-.786.012-1.178 0-.663-.012-.876-.042-1.233l.03-.031c.35-.051.44-.065.793-.142l.038.037-.017.442c.154-.354.375-.464.57-.464.033 0 .066.004.1.004l.026.035-.132.778-.043.02zM47.38 53.487c-.325.041-.702.092-.702.408 0 .198.14.289.316.289a.77.77 0 0 0 .386-.122v-.575zm.782.169c0 .448 0 .567.033 1.036l-.026.034c-.308-.006-.412 0-.756.013l-.03-.034v-.176c-.1.083-.305.255-.664.255-.467 0-.835-.33-.835-.842 0-.214.09-.486.36-.651.286-.177.553-.227 1.126-.307 0-.07-.015-.158-.062-.205-.063-.06-.135-.09-.31-.09-.32 0-.63.122-.799.19l-.038-.018.025-.523.03-.036c.272-.081.523-.157.935-.157.61 0 .802.19.896.345.122.198.122.387.12.815l-.005.351zM50.853 54.72c-.385 0-.464.006-.778.014l-.032-.03c0-.163.006-.326.006-.489 0-.182-.006-.834-.013-.993-.017-.17-.04-.451-.304-.451-.152 0-.267.08-.364.147.001.853.008 1.04.036 1.773l-.028.028c-.38 0-.453 0-.796.015l-.029-.03c.005-.304.007-.61.007-.911 0-.779-.027-1.08-.066-1.494l.03-.034c.358-.048.437-.062.807-.139l.047.033-.008.262c.216-.129.473-.28.76-.28.175 0 .446.039.593.285.12.196.124.414.132.875v.37c.008.467.008.6.03 1.02l-.03.028zM53.097 54.062l-.02.573-.03.028c-.2.056-.362.107-.614.107-1.074 0-1.358-.747-1.358-1.292 0-.489.219-1.337 1.34-1.337.276 0 .458.056.669.124l.023.027c-.038.252-.044.32-.064.574l-.048.013c-.143-.096-.257-.17-.465-.17-.464 0-.616.4-.616.747 0 .284.109.736.648.736.243 0 .368-.08.496-.155l.04.025zM54.877 53.146c0-.108-.004-.224-.074-.327a.33.33 0 0 0-.305-.168.343.343 0 0 0-.189.051c-.181.117-.215.315-.228.463l.796-.019zm.684.887-.036.542-.025.037c-.254.098-.427.172-.825.172-.341 0-.992-.058-1.266-.704a1.51 1.51 0 0 1-.119-.624c0-.824.499-1.315 1.247-1.315.11 0 .22.009.34.041.161.039.53.153.698.717.066.24.07.477.077.71l-.03.034-1.541.025c.018.098.031.196.104.296.113.168.31.26.595.26.351 0 .566-.111.745-.205l.036.014zM25.011 54.14c-.506 0-.503-.615-.503-.745 0-.292.112-.725.646-.725.041 0 .091 0 .138.007l.013 1.37a.527.527 0 0 1-.294.093m1.086-.741c.001-.556.012-.832.028-1.244l-.035-.032c-1.132-.012-1.5-.012-1.89.228-.427.274-.532.78-.535 1.143 0 .659.342 1.216 1.057 1.216.291 0 .452-.094.583-.175h.004l-.004.077c-.008.262-.016.423-.137.558-.11.111-.263.13-.377.13a.85.85 0 0 1-.583-.21l-.052.01c-.014.088-.03.175-.056.262-.02.076-.044.149-.068.222l.016.044c.1.058.21.122.468.174.167.026.334.047.495.047.416 0 .765-.132.943-.429.084-.145.123-.33.14-.543l.004.001V54.5h.002a49.941 49.941 0 0 1-.003-1.1M32.595 46.413v2.338l-.685-2.103h-.154l-.677 2.127v-2.362h-1.233v.07a.652.652 0 0 1 .228.458v1.708c0 .48.013.867.876.867h.506l.374-1.376.43 1.376h.595c.285 0 .756-.145.756-.64v-2.463h-1.016zM26.051 48.998l-.003-2.58h-.984V49.513h1.232v-.06c-.165-.085-.245-.291-.245-.455M19.887 47.255c-.06-.097-.06-.225.002-.298.02-.03.106-.166.446-.166.332 0 .904.208.93.217v-.583a3.023 3.023 0 0 0-.9-.139c-.282 0-.533.043-.753.123-.448.158-.666.415-.728.856-.006.07-.05.456.233.738.301.301.762.29.86.295.193.01.398.021.57.108.121.044.212.191.2.334-.013.152-.123.265-.298.3a1.384 1.384 0 0 1-.313.035c-.554 0-1.133-.346-1.143-.353v.655c.016.004.045.018.086.03.449.163.979.213 1.56.143.365-.057.644-.215.822-.47.22-.292.25-.784.07-1.118-.09-.164-.253-.322-.544-.425-.33-.116-.697-.09-.863-.128-.173-.04-.225-.132-.237-.154M28.783 46.352c-.649 0-1.2.753-1.2.753v-.692h-1.182v.07c.085.075.194.23.208.466v2.56h.974v-1.005c0-.394.031-.675.177-.9 0 0 .325-.464.583-.464.262 0 .294.246.294.321v2.051h.977v-2.229c0-.35-.18-.93-.831-.93M38.431 47.255c-.053-.097-.053-.225.005-.298.019-.03.106-.166.447-.166.333 0 .902.208.93.217v-.583a3.028 3.028 0 0 0-.902-.139c-.28 0-.53.043-.751.123-.448.158-.664.415-.725.856-.01.07-.054.456.23.738.301.301.764.29.859.295.196.01.397.021.57.108.122.044.21.191.2.334-.012.152-.123.265-.297.3-.1.023-.208.035-.312.035-.554 0-1.134-.346-1.142-.353v.655c.016.004.044.018.084.03.445.163.978.213 1.558.143.366-.057.645-.215.826-.47.22-.292.247-.784.068-1.118-.09-.164-.253-.322-.542-.425-.332-.116-.698-.09-.862-.128-.176-.04-.232-.132-.244-.154M47.837 49.527c-.31 0-.432-.32-.432-.32s-.316.424-1.007.424c-.19 0-.388-.033-.572-.09-.339-.119-.496-.479-.503-.78v-1.78c0-.024-.059-.33-.205-.48v-.088h1.202v2.31c0 .113.098.309.424.309.33 0 .674-.314.674-.821v-1.78h1.005v3.096h-.586zM24.574 46.914c-.03-.063-.14-.331-.372-.477-.217-.137-.553-.154-.66-.15-.284.004-.531.134-.55.134v.587c.109-.007.686-.254.686.737v.311a2.676 2.676 0 0 1-.059.577.714.714 0 0 1-.294.352.396.396 0 0 1-.242.067c-.091-.008-.102-.07-.117-.103-.034-.08-.497-2.28-.497-2.28l-.812.489s.402 1.494.495 1.847c.106.403.498.58.919.58.421 0 .84-.098 1.145-.368.168-.15.294-.327.37-.53.059-.147.071-.32.071-.428v-.771a1.554 1.554 0 0 0-.083-.574M17.034 46.267c-1.375 0-1.587.613-1.587.613l.492.327s-.374.144-.374.62v1.691h1.004v-1.934c.018-.188.253-.32.253-.32l-.217-.182c.056-.175.197-.304.448-.304.323 0 .475.246.475.562v2.178h1.02v-2.431c0-.423-.382-.82-1.514-.82M43.263 46.267c-1.338 0-1.542.613-1.542.613l.491.327s-.376.144-.376.62v1.691h1.007v-1.93c.011-.19.252-.324.252-.324l-.217-.183c.058-.174.19-.303.462-.303.391 0 .497.296.497.562v2.178h1.02v-2.431c0-.375-.278-.82-1.594-.82M35.606 49.579c.75-.026 1.512-.132 1.512-.87v-3.495H36.1v3.335c0 .436-.238.49-.482.49-.25 0-.468-.138-.468-.457v-2.169h-1.226v.048c.087.077.205.232.205.39v1.858c0 .777.878.849 1.452.87h.026zM54.185 49.1c-.154.066-.388.046-.561-.052-.253-.2-.27-.56-.179-.808.106-.207.287-.293.475-.352v-.436c-.07.002-.138.015-.205.024-.032.006-.061.008-.091.012a.3.3 0 0 1-.225-.116.365.365 0 0 1-.048-.29.313.313 0 0 1 .138-.214.47.47 0 0 1 .237-.064c.18 0 .319.125.319.125v-.511c-.073-.026-.316-.114-.749-.08-.567.045-.754.318-.825.492a.662.662 0 0 0 .107.685c.061.062.086.09.217.167l.078.044-.083.04s-.058.03-.134.077c-.242.152-.311.594-.266.838.036.363.355.721.719.82.267.07.56.108.843.108.386 0 .76-.069 1.08-.201.252-.136.474-.353.474-.803V46.43h-1.01v2.23c0 .152-.133.38-.31.44M50.382 46.267c-1.336 0-1.54.613-1.54.613l.491.327s-.376.144-.376.62v1.147c-.009.058-.068.331-.206.473v.071h.941c.256 0 .272-.376.272-.376v-1.4l.004-.139c0-.198.252-.34.252-.34L50 47.08c.058-.176.19-.3.46-.3.393 0 .495.295.495.561v2.178h1.02v-2.431c0-.375-.274-.82-1.593-.82M20.077 49.99v.17s.01.003.028.003c.1 0 .205.06.205.203v.694h.904v-.74c0-.233-.15-.33-.337-.33h-.8zM44.705 45.55c-.107 0-.21-.01-.31-.034-.174-.036-.284-.146-.296-.295v-.04h-.86c.026.141.08.27.156.375.18.25.453.405.814.464.571.065 1.093.02 1.535-.146v-.623c-.177.093-.615.298-1.039.298M51.803 45.55c-.106 0-.21-.01-.312-.034-.173-.036-.283-.146-.294-.295v-.04h-.859c.025.141.077.27.156.375.177.25.451.405.813.464.57.065 1.092.02 1.535-.146v-.623c-.182.093-.616.298-1.04.298M41.44 47.013l-.031.014c-.278.09-.505.138-.64.138-.206 0-.326-.14-.332-.147l-.046-.054-.058.02v.494l.008.022.005.007c.016.021.169.191.423.191.149 0 .384-.054.672-.146v-.539zM41.44 48.3l-.031.014c-.278.09-.505.138-.64.138-.206 0-.326-.141-.332-.147l-.046-.052-.058.02v.494l.008.021.005.007a.577.577 0 0 0 .423.188c.149 0 .384-.05.672-.146V48.3z"/>
        </g>
        <path d="M27.75 26.542a.383.383 0 0 0-.38-.38.378.378 0 0 0-.37.38c0 .21.165.375.37.375.212 0 .38-.164.38-.375m18.183 1.806s-.035.17-.16.393h.01a.83.83 0 0 1-.122.194 2.25 2.25 0 0 1-.811.68 1.881 1.881 0 0 0-.118.063c-.083.036-.155.057-.243.095a4.697 4.697 0 0 1-1.477.264h-.35c-.341.015-.677.019-1.016.04-1.177 0-2.266.186-3.16.833-.735.47-1.327 1.21-2.036 1.692-1.511 1.212-3.806 1.55-5.65.84-1.115-.411-2.235-1.302-2.846-2.37-.506-.836-.789-1.753-.998-2.706-.243-.729-1.02-1.407-1.787-1.514a1.71 1.71 0 0 1 .22-.316c.693-.807 1.726-1.207 2.752-.907.843.246 1.212 1.157 1.556 1.84.175.288.504.619.902.619a.708.708 0 0 0 .611-.437c.116-.389-.148-.692-.338-.99-.623-.739-1.519-1.556-1-2.558.45-.74 1.242-1.207 2.052-1.376 0 0 .693-.137 1.058-.137h8.522c.668-.036 1.284-.237 1.889-.556l.015-.013c-.017.695-.51 1.286-1.108 1.57-.296.137-.9.3-1.198.3l-7.283-.012c-.182.026-.375.074-.447.256-.06.089-.044.244.02.332.12.168.265.179.472.179l7.438-.011c.616-.014 1.11-.242 1.596-.477.052.16-.14.5-.267.713-.567.71-1.33 1.027-2.198 1.066h-5.24a.48.48 0 0 0-.454.317c-.007.102-.007.215.08.297.14.135.308.143.515.143h4.993c.693 0 1.328-.2 1.952-.4-.018.344-.318.617-.552.884-.72.665-1.648.847-2.652.826h-2.668c-.214 0-.326.044-.446.176-.083.077-.087.26-.036.353.098.154.314.208.482.208h7.683c.187 0 .818-.04 1.843-.393m1.98 1.033c0-6.85-5.57-12.426-12.416-12.426-6.843 0-12.41 5.577-12.41 12.426 0 2.349.658 4.623 1.905 6.601.502-.17.993-.243 1.485-.243 1.369 0 2.463.606 3.428 1.148.298.158.57.306.836.434.447.22 1.654.727 3.17.727 1.244 0 2.425-.35 3.486-1.027.342-.226.697-.47 1.038-.706l.275-.183c1.259-.891 2.569-1.813 4.078-2.223a5.993 5.993 0 0 1 1.64-.235c.826 0 1.656.176 2.512.529.65-1.528.974-3.154.974-4.822m-1.28 5.487c-.751-.3-1.471-.451-2.188-.451-2.002 0-3.683 1.179-5.313 2.321-.428.3-.89.616-1.339.903a7.087 7.087 0 0 1-3.883 1.137c-1.68 0-3-.558-3.504-.792-.261-.128-.529-.276-.808-.427-.968-.538-1.931-1.078-3.122-1.078-.339 0-.683.047-1.04.154.143.202.295.395.458.603.8.036 1.648.285 2.535.737l.803.418c2.008 1.049 3.315 1.743 5.516 1.743 1.774 0 3.686-1.168 5.375-2.198.647-.39 1.276-.783 1.853-1.071.912-.445 1.83-.677 2.706-.677.375 0 .748.044 1.107.125.316-.466.599-.953.844-1.447m-1.32 2.111a4.1 4.1 0 0 0-.634-.05c-.764 0-1.57.201-2.38.602a30.72 30.72 0 0 0-1.757 1.02c-1.778 1.086-3.786 2.318-5.794 2.318-2.4 0-3.774-.722-5.862-1.823l-.792-.419c-.494-.24-.966-.43-1.433-.54 2.334 2.36 5.526 3.714 8.835 3.714 3.818 0 7.473-1.805 9.816-4.822m3.72-7.598c0 7.459-6.063 13.528-13.536 13.528-7.458 0-13.53-6.07-13.53-13.528 0-7.47 6.072-13.539 13.53-13.539 7.473 0 13.536 6.07 13.536 13.539" fill="#FFF"/>
    </g>
</svg>
