<svg width="71" height="71" viewBox="0 0 71 71" xmlns="http://www.w3.org/2000/svg" xmlns:xlink="http://www.w3.org/1999/xlink">
    <defs>
        <path id="k8immn0g5a" d="M0 0h3.977v4.521H0z"/>
        <path id="r8plp4ad7c" d="M0 0h3.977v4.521H0z"/>
        <path id="r6zffp26pe" d="M0 0h4.053v5.987H0z"/>
        <path id="8hdd9909cg" d="M0 0h3.977v4.521H0z"/>
        <path id="4h06kr7lri" d="M0 0h4.06v4.647H0z"/>
        <path d="M0 17.833c0 .826.328 1.617.912 2.2L8.34 26V10.912L0 0v17.833z" id="ckebz5cb7k"/>
        <path d="M0 0v2.7l12.855 16.795 3.804 4.978.004-13.583-6.15-8.045-1.032-1.35A3.803 3.803 0 0 0 6.46 0H0z" id="8afm18vsjm"/>
        <path d="M8.34 0A8.34 8.34 0 0 0 0 8.34V28.7l7.43-5.966c.03-.031.058-.066.088-.098l.035-.026c.073-.073.131-.155.183-.24.389-.53.605-1.17.605-1.836V0z" id="ocuakilpno"/>
        <path d="M0 8.007c0 1.014.1 2.006.29 2.965l8.132 10.64V8.025L2.29 0A15.08 15.08 0 0 0 0 8.007" id="ajg3y2jltq"/>
        <linearGradient x1="50.625%" y1="-50.377%" x2="49.972%" y2="74.944%" id="7o3c9o7gvs">
            <stop stop-color="#00527D" offset="0%"/>
            <stop stop-color="#00527E" offset="1.123%"/>
            <stop stop-color="#0B619F" offset="57.28%"/>
            <stop stop-color="#248BC6" offset="82.92%"/>
            <stop stop-color="#32A2DB" offset="100%"/>
        </linearGradient>
        <linearGradient x1="34.216%" y1="-8.235%" x2="70.59%" y2="77.198%" id="jcbfklkyqt">
            <stop stop-color="#1068B2" offset="0%"/>
            <stop stop-color="#278FCE" offset="37.08%"/>
            <stop stop-color="#32A2DB" offset="59.33%"/>
            <stop stop-color="#32A2DB" offset="100%"/>
        </linearGradient>
        <linearGradient x1="50.088%" y1="19.661%" x2="50.088%" y2="93.215%" id="tspk3fzqru">
            <stop stop-color="#F9A533" offset="0%"/>
            <stop stop-color="#F05A2A" offset="47.99%"/>
            <stop stop-color="#EF4A33" offset="59.55%"/>
            <stop stop-color="#EC1651" offset="100%"/>
        </linearGradient>
        <linearGradient x1="34.521%" y1="-7.826%" x2="74.829%" y2="125.631%" id="9fo05dmlmv">
            <stop stop-color="#32A2DB" offset="0%"/>
            <stop stop-color="#32A2DB" offset="51.58%"/>
            <stop stop-color="#278FCE" offset="69.74%"/>
            <stop stop-color="#1068B2" offset="100%"/>
        </linearGradient>
    </defs>
    <g fill="none" fill-rule="evenodd">
        <path d="M22.971 50.406v-9.6h1.13c.46 0 .89.23 1.146.611l4.211 6.285h.079v-6.896h.972c.633 0 1.145.513 1.145 1.146v9.6h-1.133c-.452 0-.875-.227-1.126-.603l-4.227-6.34h-.079v6.943h-.972a1.146 1.146 0 0 1-1.146-1.146M45.507 50.406v-9.6h1.138c.632 0 1.145.513 1.145 1.146v9.6h-1.137a1.146 1.146 0 0 1-1.146-1.146M41.825 43.6c.453-.304.507-.938.21-1.395-.647-1-1.921-1.62-3.564-1.62-2.275 0-4.07 1.174-4.07 3.283 0 1.827 1.26 2.677 2.77 3l1.615.37c1.086.244 1.637.598 1.637 1.33 0 .835-.677 1.401-1.945 1.401-1.361 0-2.078-.708-2.14-1.503h-.83a1.14 1.14 0 0 0-.865.435c-.136.17-.213.333-.212.554.002.268.053.418.152.587.151.259.342.493.563.695.55.504 1.264.784 1.99.916a6.9 6.9 0 0 0 1.232.103c2.661 0 4.306-1.299 4.306-3.408 0-1.953-1.33-2.716-2.904-3.055l-1.63-.362c-.96-.197-1.464-.614-1.464-1.236 0-.827.685-1.346 1.787-1.346 1.235 0 1.856.692 1.918 1.442h.813c.234 0 .45-.07.63-.191" fill="#005290"/>
        <g transform="translate(10.088 58.117)">
            <mask id="lyz4c2bmmb" fill="#fff">
                <use xlink:href="#k8immn0g5a"/>
            </mask>
            <path d="M.444 4.107C.148 3.831 0 3.439 0 2.931V.25C0 .168.02.105.059.063.098.02.162 0 .25 0h.252c.172 0 .259.084.259.251V2.94c0 .346.084.597.251.753.168.157.43.235.787.235.24 0 .47-.052.687-.155.218-.103.393-.236.527-.398a.78.78 0 0 0 .201-.502V.252c0-.084.02-.147.059-.19C3.313.022 3.377 0 3.467 0h.25c.174 0 .26.084.26.251v3.91c0 .079-.015.137-.046.176-.03.04-.085.059-.163.059h-.235c-.083 0-.14-.015-.171-.046-.031-.03-.046-.085-.046-.164v-.401c-.385.49-.952.736-1.7.736-.486 0-.876-.138-1.172-.414" fill="#5B5D61" mask="url(#lyz4c2bmmb)"/>
        </g>
        <path d="M13.881 56.945c.1-.1.151-.22.151-.36 0-.14-.05-.258-.15-.356a.5.5 0 0 0-.36-.146.5.5 0 0 0-.36.146.478.478 0 0 0-.152.356c0 .14.05.26.151.36.1.1.22.15.36.15.14 0 .26-.05.36-.15m-1.046.322a.918.918 0 0 1-.277-.682c0-.273.093-.502.277-.687a.932.932 0 0 1 .686-.276c.28 0 .512.092.7.276.186.185.28.414.28.687a.91.91 0 0 1-.28.682.964.964 0 0 1-.7.273.94.94 0 0 1-.686-.273M16.93 62.279v-2.797c0-.324-.06-.555-.18-.695-.121-.14-.343-.209-.667-.209-.357 0-.68.075-.97.226a.696.696 0 0 1-.093.034c-.04 0-.073-.034-.1-.101l-.126-.301a.194.194 0 0 1-.009-.059c0-.028.012-.052.034-.071a.403.403 0 0 1 .084-.055c.335-.173.745-.26 1.23-.26.525 0 .916.124 1.173.37.257.245.385.622.385 1.13v2.788c0 .156-.08.234-.243.234h-.276c-.162 0-.243-.078-.243-.234M19.035 62.317c-.265-.215-.398-.53-.398-.942 0-.491.162-.84.486-1.047.323-.207.773-.31 1.348-.31h1.515v-.36c0-.374-.098-.649-.293-.825-.195-.175-.53-.263-1.004-.263a3.454 3.454 0 0 0-1.382.284.209.209 0 0 1-.092.025c-.034 0-.07-.033-.11-.1l-.142-.276a.2.2 0 0 1-.024-.084c0-.04.033-.075.1-.11.212-.1.465-.177.758-.233.293-.056.596-.084.908-.084.407 0 .754.05 1.039.15.15-.106.31-.2.477-.284.167-.084.298-.137.393-.16a.404.404 0 0 1 .126-.016c.033 0 .058.006.075.017.017.011.03.033.042.067l.117.326c.006.017.009.04.009.067 0 .045-.028.078-.084.1l-.544.252-.017-.008c.273.29.41.709.41 1.256v2.503c0 .084-.02.147-.058.189-.04.041-.104.062-.193.062h-.251c-.173 0-.26-.083-.26-.25v-1.659h-1.49c-.374 0-.657.058-.85.172-.193.114-.289.311-.289.59 0 .48.273.72.82.72.224 0 .425-.033.604-.1a.264.264 0 0 1 .075-.017c.039 0 .067.03.084.092l.075.268a.12.12 0 0 1 .008.05c0 .045-.025.079-.075.1-.1.051-.232.09-.394.118a3.059 3.059 0 0 1-.519.042c-.402 0-.735-.108-1-.322M19.336 57.213c-.036-.033-.054-.095-.054-.184v-.126c0-.095.017-.159.05-.192.034-.034.098-.05.193-.05h3.048c.089 0 .153.02.192.058.04.04.059.1.059.184v.126c0 .084-.02.144-.059.18-.039.036-.103.054-.192.054h-3.048c-.09 0-.152-.016-.189-.05" fill="#5B5D61"/>
        <g transform="translate(23.946 58.117)">
            <mask id="4uguiw4gfd" fill="#fff">
                <use xlink:href="#r8plp4ad7c"/>
            </mask>
            <path d="M.444 4.107C.148 3.831 0 3.439 0 2.931V.25C0 .168.02.105.059.063.098.02.162 0 .25 0h.252c.172 0 .259.084.259.251V2.94c0 .346.084.597.251.753.168.157.43.235.787.235.24 0 .47-.052.687-.155.218-.103.393-.236.527-.398a.78.78 0 0 0 .201-.502V.252c0-.084.02-.147.059-.19C3.313.022 3.377 0 3.467 0h.25c.174 0 .26.084.26.251v3.91c0 .079-.015.137-.046.176-.03.04-.085.059-.163.059h-.235c-.083 0-.14-.015-.171-.046-.031-.03-.046-.085-.046-.164v-.401c-.385.49-.952.736-1.7.736-.486 0-.876-.138-1.172-.414" fill="#5B5D61" mask="url(#4uguiw4gfd)"/>
        </g>
        <g transform="translate(29.045 56.652)">
            <mask id="kl7t59vh7f" fill="#fff">
                <use xlink:href="#r6zffp26pe"/>
            </mask>
            <path d="M.515 5.556C.172 5.268 0 4.876 0 4.379V1.716c0-.167.084-.25.251-.25h.26c.089 0 .153.02.192.062.04.042.059.105.059.188v2.738c0 .313.109.549.327.708.217.16.53.239.937.239.408 0 .72-.08.938-.239.218-.159.327-.395.327-.708V.251c0-.084.02-.146.058-.188C3.39.02 3.453 0 3.542 0h.251c.173 0 .26.084.26.251V4.38c0 .497-.172.89-.515 1.177-.344.287-.848.43-1.512.43S.858 5.844.515 5.557" fill="#5B5D61" mask="url(#kl7t59vh7f)"/>
        </g>
        <path d="M34.952 62.56a3.034 3.034 0 0 1-.758-.23.28.28 0 0 1-.121-.089c-.02-.03-.018-.068.004-.113l.134-.301c.023-.062.056-.092.1-.092.029 0 .062.008.101.025.168.083.38.152.636.205.257.053.511.08.762.08.358 0 .633-.045.825-.135a.463.463 0 0 0 .29-.452.556.556 0 0 0-.135-.39 1.148 1.148 0 0 0-.393-.259 12.55 12.55 0 0 0-.846-.314c-.452-.15-.793-.319-1.022-.506-.229-.187-.343-.45-.343-.791 0-.386.159-.683.477-.892.318-.21.754-.314 1.306-.314.319 0 .59.024.817.07.226.048.45.125.674.231.084.04.126.084.126.134a.137.137 0 0 1-.017.076l-.126.276c-.028.061-.061.092-.1.092a.325.325 0 0 1-.092-.025 2.735 2.735 0 0 0-.586-.188 3.348 3.348 0 0 0-.696-.072c-.346 0-.607.046-.782.138-.176.092-.264.25-.264.474 0 .145.04.265.121.36a.929.929 0 0 0 .34.238c.144.064.37.15.678.256l.184.067c.357.122.635.24.833.351.198.112.346.246.444.402.097.156.146.352.146.586 0 .369-.16.658-.481.867-.321.21-.76.314-1.319.314-.318 0-.624-.027-.917-.08M38.582 61.957c-.084-.081-.126-.214-.126-.398v-.486c0-.083.013-.14.038-.172.025-.03.08-.046.163-.046h.26c.084 0 .138.016.163.046.025.031.038.091.038.18v.47a7.306 7.306 0 0 1 1.113-.093c.09 0 .147.013.172.038.025.025.038.08.038.163v.243c0 .062-.016.106-.046.134-.031.028-.085.042-.164.042H39.01c-.201 0-.343-.04-.427-.121m0-2.186c-.084-.08-.126-.213-.126-.397v-.486c0-.084.013-.141.038-.172.025-.03.08-.046.163-.046h.26c.084 0 .138.016.163.046.025.03.038.09.038.18v.47a7.29 7.29 0 0 1 1.113-.093c.09 0 .147.012.172.038.025.025.038.08.038.163v.243c0 .061-.016.106-.046.134-.031.028-.085.042-.164.042H39.01c-.201 0-.343-.04-.427-.122M41.58 62.45c-.04-.041-.06-.104-.06-.188v-2.57l-.225-.52a.52.52 0 0 1-.067-.217c0-.062.022-.112.067-.151.62-.541 1.328-.812 2.126-.812.71 0 1.226.162 1.55.485.323.324.485.757.485 1.298v2.487c0 .084-.02.147-.058.189-.04.041-.104.062-.193.062h-.251c-.173 0-.26-.083-.26-.25V59.75c0-.39-.102-.682-.305-.875-.204-.192-.53-.289-.976-.289-.279 0-.539.042-.778.126a1.95 1.95 0 0 0-.62.343l.142.31c.045.1.077.188.096.264.02.075.03.174.03.297v2.336c0 .168-.087.251-.26.251h-.25c-.09 0-.155-.02-.194-.062M43.664 57.125c-.084-.092-.126-.238-.126-.44v-.401c0-.095.017-.16.05-.197.034-.036.099-.055.193-.055h.21c.083 0 .14.019.172.055.03.036.045.102.045.197v.46a72.32 72.32 0 0 1 1.127-.063c.404-.02.693-.029.866-.029.095 0 .155.013.18.038.025.025.038.074.038.146v.226c0 .084-.014.139-.042.164-.028.025-.087.037-.176.037h-2.11c-.2 0-.343-.046-.427-.138" fill="#5B5D61"/>
        <g transform="translate(46.578 58.117)">
            <mask id="0ktukv0jvh" fill="#fff">
                <use xlink:href="#8hdd9909cg"/>
            </mask>
            <path d="M.444 4.107C.148 3.831 0 3.439 0 2.931V.25C0 .168.02.105.059.063.098.02.162 0 .25 0h.252c.172 0 .259.084.259.251V2.94c0 .346.084.597.251.753.168.157.43.235.787.235.24 0 .47-.052.687-.155.218-.103.393-.236.527-.398a.78.78 0 0 0 .201-.502V.252c0-.084.02-.147.059-.19C3.313.022 3.377 0 3.467 0h.25c.174 0 .26.084.26.251v3.91c0 .079-.015.137-.046.176-.03.04-.085.059-.163.059h-.235c-.083 0-.14-.015-.171-.046-.031-.03-.046-.085-.046-.164v-.401c-.385.49-.952.736-1.7.736-.486 0-.876-.138-1.172-.414" fill="#5B5D61" mask="url(#0ktukv0jvh)"/>
        </g>
        <path d="M51.33 62.467c-.031-.03-.046-.082-.046-.155v-.242c0-.067.014-.116.042-.147.027-.03.078-.046.15-.046h.318c.09 0 .147-.014.172-.042.025-.028.038-.086.038-.176V59.7l-.352-.528a.4.4 0 0 1-.075-.209c0-.061.028-.12.084-.176.574-.53 1.278-.795 2.11-.795.697 0 1.212.158 1.545.473.332.315.498.733.498 1.252v2.545c0 .084-.02.147-.06.189-.038.041-.102.062-.191.062h-.252c-.173 0-.26-.083-.26-.25V59.75c0-.39-.103-.682-.31-.875-.206-.192-.53-.289-.97-.289-.28 0-.535.042-.767.126a1.974 1.974 0 0 0-.607.343l.218.335a.81.81 0 0 1 .122.247c.019.076.029.186.029.33v1.985c0 .207-.035.352-.105.436-.07.083-.213.125-.431.125h-.745c-.073 0-.125-.015-.155-.046M54.022 57.125c-.084-.092-.126-.238-.126-.44v-.401c0-.095.017-.16.05-.197.034-.036.098-.055.193-.055h.21c.083 0 .14.019.171.055.03.036.046.102.046.197v.46a72.32 72.32 0 0 1 1.126-.063c.405-.02.694-.029.867-.029.095 0 .155.013.18.038.025.025.037.074.037.146v.226c0 .084-.014.139-.041.164-.028.025-.087.037-.176.037h-2.11c-.201 0-.344-.046-.427-.138" fill="#5B5D61"/>
        <g transform="translate(56.768 57.992)">
            <mask id="6zfnyo64nj" fill="#fff">
                <use xlink:href="#4h06kr7lri"/>
            </mask>
            <path d="M.56 4.312C.188 4.09 0 3.737 0 3.257c0-.575.254-.938.762-1.088a1.182 1.182 0 0 1-.54-.39c-.12-.164-.18-.375-.18-.632 0-.324.11-.596.33-.816C.593.11.896 0 1.282 0c.3 0 .563.05.786.15.062.029.1.057.113.084.014.029.013.065-.004.11l-.092.225c-.023.062-.053.092-.092.092a.138.138 0 0 1-.076-.016c-.134-.067-.31-.1-.527-.1a.628.628 0 0 0-.465.17C.811.83.753.989.753 1.19c0 .24.078.417.235.532.156.114.394.171.712.171h.167c.067 0 .116.013.146.038.031.025.047.071.047.138v.176c0 .123-.065.184-.193.184h-.125c-.335 0-.584.063-.746.189-.162.125-.243.333-.243.623 0 .548.422.821 1.265.821.457 0 .786-.105.984-.314.198-.21.297-.54.297-.992V.377c0-.168.084-.251.251-.251h.26c.089 0 .153.02.192.062.04.042.059.105.059.189v2.37c0 .586-.155 1.049-.465 1.39-.31.34-.833.51-1.57.51-.603 0-1.091-.112-1.465-.335" fill="#5B5D61" mask="url(#6zfnyo64nj)"/>
        </g>
        <g transform="translate(22.915 10.93)">
            <mask id="e6zoxuhgql" fill="#fff">
                <use xlink:href="#ckebz5cb7k"/>
            </mask>
            <path d="M0 17.833c0 .826.328 1.617.912 2.2L8.34 26V10.912L0 0v17.833z" mask="url(#e6zoxuhgql)"/>
        </g>
        <path fill="#000" d="M39.594 32.723v.073z"/>
        <g transform="translate(22.933 8.273)">
            <mask id="rk6t8fwyan" fill="#fff">
                <use xlink:href="#8afm18vsjm"/>
            </mask>
            <path d="M0 0v2.7l12.855 16.795 3.804 4.978.004-13.583-6.15-8.045-1.032-1.35A3.803 3.803 0 0 0 6.46 0H0z" mask="url(#rk6t8fwyan)"/>
        </g>
        <g transform="translate(39.594 8.273)">
            <mask id="lw6xbc6bbp" fill="#fff">
                <use xlink:href="#ocuakilpno"/>
            </mask>
            <path d="M8.34 0A8.34 8.34 0 0 0 0 8.34V28.7l7.43-5.966c.03-.031.058-.066.088-.098l.035-.026c.073-.073.131-.155.183-.24.389-.53.605-1.17.605-1.836V0z" mask="url(#lw6xbc6bbp)"/>
        </g>
        <g transform="translate(31.17 11.134)">
            <mask id="0xnbr3owqr" fill="#fff">
                <use xlink:href="#ajg3y2jltq"/>
            </mask>
            <path d="M0 8.007c0 1.014.1 2.006.29 2.965l8.132 10.64V8.025L2.29 0A15.08 15.08 0 0 0 0 8.007" mask="url(#0xnbr3owqr)"/>
        </g>
        <g fill-rule="nonzero">
            <path d="M.095 20.28c0 .852.285 1.61.856 2.179l7.324 5.875V13.456L0 2.653.095 20.28z" fill="url(#7o3c9o7gvs)" transform="translate(23.183 8.014)"/>
            <path fill="#000" d="m39.521 32.348.043-.085.085.043-.043.084z"/>
            <path d="m16.454 10.803-6.087-7.96-1.046-1.327C8.655.57 7.514 0 6.372 0H0v2.653l12.745 16.584 3.804 4.927-.095-13.361z" fill="url(#jcbfklkyqt)" transform="translate(23.183 8.014)"/>
            <path d="M16.454 8.34V28.523l7.324-5.876.095-.095c.095-.094.095-.19.19-.284.38-.568.57-1.137.57-1.8V.189c-4.47-.094-8.179 3.601-8.179 8.15z" fill="url(#tspk3fzqru)" transform="translate(23.183 8.014)"/>
            <path d="m8.37 13.74 8.084 10.52V10.802l-6.087-7.96C8.94 5.117 8.084 7.865 8.084 10.708c0 1.137.096 2.085.286 3.033z" fill="url(#9fo05dmlmv)" transform="translate(23.183 8.014)"/>
        </g>
    </g>
</svg>
