<svg width="71" height="71" viewBox="0 0 71 71" xmlns="http://www.w3.org/2000/svg" xmlns:xlink="http://www.w3.org/1999/xlink">
    <defs>
        <path id="ht7llfxbya" d="M.032.032h.064v.064H.032z"/>
        <path id="8asmb3cf8c" d="M.032.032h.064v.064H.032z"/>
        <path id="xzwhnd8m3e" d="M.025 34.961H38.27V0H.025z"/>
    </defs>
    <g fill="none" fill-rule="evenodd">
        <path fill="#21438E" d="M10.804 10.804h49.391v49.391h-49.39z"/>
        <g transform="translate(16.336 18.015)">
            <path d="M28.674 9.623c0 5.31-4.251 9.619-9.502 9.619-5.25 0-9.502-4.31-9.502-9.62C9.67 4.307 13.92 0 19.172 0c5.25 0 9.502 4.306 9.502 9.623" fill="#B68446"/>
            <path d="M28.085 9.623c0 4.915-3.988 8.911-8.913 8.911-4.922 0-8.914-3.996-8.914-8.911A8.912 8.912 0 0 1 19.172.71a8.91 8.91 0 0 1 8.913 8.913" fill="#FFF"/>
            <path d="M27.615 9.623c0 4.72-3.779 8.545-8.443 8.545-4.662 0-8.446-3.825-8.446-8.545 0-4.727 3.784-8.555 8.446-8.555 4.664 0 8.443 3.828 8.443 8.555" fill="#E72429"/>
            <path d="M26.885 9.623c0 4.311-3.453 7.81-7.713 7.81s-7.713-3.499-7.713-7.81c0-4.315 3.453-7.819 7.713-7.819s7.713 3.504 7.713 7.819" fill="#21438E"/>
            <path d="M23.01 6.377c0-.341.279-.611.622-.611.34 0 .616.27.616.611a.604.604 0 0 1-.354.552l.009-.088c-.01-.017-.024-.028-.037-.04-.025-.018-.039-.024-.062-.016-.018-.022-.028-.049-.05-.07a.128.128 0 0 0-.08-.03c-.021.004-.042.02-.067.006-.032-.014-.04-.066-.069-.09a.138.138 0 0 0-.057-.033.152.152 0 0 0-.067-.014c-.018-.003-.043.008-.06.002-.033-.01-.039-.056-.059-.071a.14.14 0 0 0-.08-.038.151.151 0 0 0-.103.043l-.066.082a.661.661 0 0 1-.036-.195zm.893 6.84c-.134-.18-.115-.719-.349-.871-.222-.141-.478.015-.617.188-.558.077-1.74.797-1.866 1.095-.07.109-.135.305-.21.342.518-1.367-.575-3.004-.575-3.333 0-.523.56-.799.56-1.244.193.378.637.554 1.027.687-.227.481.226.997.19 1.387-.009.111-.062.199-.153.209-.118-.098-.176-.252-.329-.313.189-.134-.052-.426.104-.712-.033.006-.11.02-.16.063-.111.116-.04.283-.14.364-.051-.157-.085-.367.02-.533-.125-.078-.37-.502-.453-.629-.059.255-.07.61-.16.766.18.073.279.317.294.495-.124-.092-.167-.273-.428-.225.202.147.202.458.428.532-.085.137-.101.342-.17.423.105.025.202-.129.29-.18-.112.223-.018.422.137.581.062.06.071-.01.128.031.04.096-.012.178.012.28.038.19.398.19.39-.038 0-.107-.103-.052-.103-.221.153.06.604.02.98-.98.224-.584.122-1.513-.187-1.89 0 0 .193-.179.268-.29.196-.299.328-.622.464-.945.09-.213.21-.418.312-.626a.265.265 0 0 1 .075-.127c.074-.08.152-.158.192-.27.005-.006.005-.01.01-.02l.002-.066a.843.843 0 1 0-1.099-.803c0 .156.044.295.118.424l-.107.137c-.004.029-.01.06-.01.095a.672.672 0 0 0 .03.225c.02.065.087.114.08.178a.713.713 0 0 1-.12.329c-.1.158-.262.28-.402.412-.237.21-.392.32-.471.419-.214-.293-.417-.475-.604-.573-.084-.045-.188-.053-.275-.088 0-.004.003-.008.003-.008l-.112-.02a3.546 3.546 0 0 1-.075-.017 1.962 1.962 0 0 1-.22.25c.075-.084.141-.178.186-.286-.182-.035-.371-.042-.551-.064.115-.209.626-.03.691-.252 0 0-.092-.019-.101-.019-.03-.006-.047-.018-.072-.026-.04-.02-.066-.028-.082-.07.008-.018.018-.04.033-.05.089-.004.096.069.157.1.022.01.062.01.089.01.027.004.057 0 .086 0a.527.527 0 0 0 .159-.047.6.6 0 0 0 .138-.064.349.349 0 0 0 .104-.136c.012-.03.016-.038.037-.056a.142.142 0 0 1 .046-.028c.016-.013.025-.024.037-.033a.427.427 0 0 1 .084-.07c.042-.033.107-.07.125-.127-.083-.046-.278.076-.343 0a.603.603 0 0 0 .228-.411c-.045.022-.106.03-.125 0a.555.555 0 0 0 .157-.31c-.053.032-.11.022-.138-.016.135-.122.203-.394.203-.585-.228-.147-.349-.18-.588-.18 0-.05.006-.087.023-.114a.997.997 0 0 0-.48-.035.153.153 0 0 1 0-.13c-.141-.024-.381-.01-.481.03-.018-.01-.018-.1.013-.14-.279-.028-.618.091-.764.297-.263.019-.393.17-.5.344-.172-.313-.754-.186-.619.205-.115.067-.135.257-.048.393a.163.163 0 0 1 .118-.068c.037.028.124.015.14.068.01.205.232.206.275.378-.144.056-.28.11-.446.14a.232.232 0 0 1-.157-.121c-.104.131-.098.25-.037.392-.172.25.09.529.364.377.044.206.151.42.257.534-.21-.073-.416-.256-.551-.42a.8.8 0 0 0 .124.397.852.852 0 0 1-.115-.14 1.767 1.767 0 0 1-.164-.45c-.026-.013-.104-.026-.122-.034-.364-.082-.829-.024-1.457.248.178-.379-.059-.755-.102-1.095-.04-.327.084-.617.255-.857.085.034.21.023.26.084-.05.143 0 .22-.035.325-.032.103-.18.174-.135.326.034.113.201.157.329.122.186-.055.083-.217.083-.395 0-.082.037-.304.086-.378.03-.05.092-.046.137-.084.022-.025.022-.072.05-.103.04-.046.104-.063.122-.086.028-.043.02-.139.052-.187.038-.076.082-.07.082-.142-.003-.114-.134-.148-.134-.237.269-.035.333-.268.457-.45.475.405.708-.27 1.138-.406.12-.043.218 0 .358-.07-.112-.09-.31-.118-.396-.191.592.014 1.16.199 1.614-.103a8.267 8.267 0 0 1-.948-.16c.47-.02 1.626-.017 1.773-.542-.235.144-.52.182-.825.185-.42.01-.762-.172-1.08-.168.225-.109.446-.247.514-.483-.105 0-.17.113-.291.16-.329.135-.856.061-1.252.149-.178.04-.287.147-.428.157.287-.108.794-.472.428-.806.027.113-.006.236-.542.453-.27.108-.548.203-.804.343-.67.37-.722 1.063-.388 1.242-.034.246.128.432.24.587-.142.096-.332.041-.48.086a.922.922 0 0 0-.415.26c-.062.053-.118.12-.174.175-.062.067-.1.159-.143.234-.124.215-.177.465-.279.692-.061.137-.104.28-.144.426a2.525 2.525 0 0 0-.061.925c.015.096.029.192.054.286l.1.26c-.984.718-.93 2.611.051 2.611-.182.422.679.282.653-.069.06.08.43.167.485-.005a.533.533 0 0 1-.324-.227c-.144-.14-.357-.229-.866-.37-.17-.653.63-.704.618-1.252.256.087.73.034.944-.05-.03.242-.035.395.052.567.053.11.193.17.224.27.05.18-.055.37.105.549 0 .12-.542.619-.542.619-.658.63-1.538.352-2.148.352-1.075 0-1.458 1.075-.47 1.74.668.45 1.424.325 1.63.926.038.104.044.215.017.326.284 0 .211-.823.703-.823.28 0 .582.11.687.258.294.411-.762.21-.979.428-.255.215-.106.735.327.616.043-.172.22-.303.446-.242-.298.187.186.485.343.26.013-.072-.034-.08-.034-.135.14-.139.313.043.477.015.173-.028.286-.213.273-.43.16.791.603 2.811 2.721 2.811.977 0 .816-.97 1.544-.97.263 0 .435-.051.672-.22.114-.116.221-.437.503-.457-.253-.217-.233-.066-.468 0-.181.055-.343-.023-.465.024-.09.031-.154.085-.253.14.073-.179.327-.267.51-.276.374-.132.252-.545.709-.585-.262-.238-.46-.058-.742.05-.115.05-.232.004-.353.025-.151.018-.21.104-.412.145.123-.145.17-.33.316-.436.098.03.606.03.491-.33-.157.203-.294-.15-.482-.075.04-.235.208-.727.518-.634.26.084-.032.752.426.704.069-.033-.01-.111.037-.154.242.436 1.049.078.75-.358-.168-.034-.334-.061-.422-.192z" fill="#FFF"/>
            <path d="m21.027 7.902-.033.027h.003l.033-.027.023-.029-.002-.007-.024.036.038.023v-.003l-.038-.02-.033.027.033-.027-.033-.025v.002l-.03.035.037.026.064-.063v-.004l-.041-.042-.03.046.033.025zm3.298 5.508.01-.047c-.17-.032-.325-.059-.4-.168-.056-.078-.087-.26-.126-.436-.042-.18-.095-.362-.23-.45a.39.39 0 0 0-.208-.061c-.192 0-.36.127-.466.26l.032.026-.005-.036c-.294.032-.727.235-1.113.464-.386.233-.713.476-.793.653l.045.014-.042-.019c-.032.053-.064.135-.098.2-.032.065-.07.116-.09.124l.02.037.038.017c.102-.264.145-.543.145-.817 0-.58-.184-1.154-.36-1.615-.087-.227-.182-.427-.247-.59-.065-.156-.106-.277-.106-.328 0-.246.13-.432.27-.627.137-.185.286-.376.288-.617h-.042l-.042.016c.206.405.666.58 1.057.712l.01-.041-.04-.018a.801.801 0 0 0-.066.31c.003.39.26.768.255 1.052v.043h.042-.042c-.008.101-.053.16-.113.164l.002.045.026-.035c-.104-.086-.17-.244-.337-.313l-.018.035.026.034c.074-.046.098-.129.095-.204 0-.099-.03-.206-.03-.312 0-.072.013-.137.05-.205l.037-.075-.08.012a.299.299 0 0 0-.185.073c-.062.07-.075.152-.085.218-.006.068-.02.116-.054.14l.03.034.039-.012a1.076 1.076 0 0 1-.045-.262c0-.084.015-.167.065-.237l.024-.039-.041-.023c-.047-.026-.143-.149-.23-.276-.084-.134-.168-.272-.212-.333l-.054-.09-.019.102c-.06.258-.074.618-.157.752l-.02.04.043.02c.149.06.248.293.264.463l.044-.006.027-.033c-.05-.036-.087-.092-.141-.144a.307.307 0 0 0-.234-.096l-.089.012-.101.015.085.058c.087.066.142.172.192.278.052.103.115.217.246.258l.015-.041-.036-.025c-.085.152-.11.356-.167.424l-.045.054.07.013.028.004c.065 0 .12-.043.17-.086a.743.743 0 0 1 .12-.098l-.02-.043-.04-.016a.502.502 0 0 0-.053.215c0 .155.085.299.2.413l.077.039.045-.01.02.006.016-.035-.038.015.01.067c0 .041-.01.086-.01.14l.006.068.044-.01-.044.01c.024.118.142.17.246.17.055 0 .11-.012.155-.044a.211.211 0 0 0 .076-.164v-.002h-.018l.018.002v-.002h-.018l.018.002v-.01c.002-.068-.047-.104-.065-.119-.02-.02-.032-.02-.037-.102h-.044l.038.022.006-.022h-.044l.038.022-.038-.022-.016.039a.321.321 0 0 0 .119.022c.226 0 .597-.189.917-1.024.082-.22.124-.488.124-.758 0-.46-.112-.925-.32-1.173l-.031.025.022.037.008-.004c.026-.025.201-.19.275-.3.196-.305.33-.628.466-.95.09-.213.207-.418.31-.628.026-.052.038-.087.066-.12a.775.775 0 0 0 .208-.278l.005-.022v-.004l.021-.38v-.02l-.05-.052-.008-.008-.059-.013-.039-.06-.007-.011-.092-.034-.007-.006-.058.006-.05-.069-.003-.008-.065-.035H23.5l-.078-.022-.007-.003-.045.003-.041-.056-.009-.008-.088-.04h-.023a.214.214 0 0 0-.13.048l-.004.005-.323.43-.01.105V7.02c0 .074.01.145.034.217.03.082.084.127.082.166v.01l.038-.01h-.038a.726.726 0 0 1-.115.305c-.097.15-.253.272-.395.405-.234.21-.39.317-.48.42l.036.03.03-.027c-.213-.296-.418-.476-.61-.582-.1-.052-.2-.06-.278-.097l-.02.045.044.012v-.006l.015-.044-.167-.033-.07-.015-.027-.008-.014.023c-.291.384-.577.59-1.045.59-.167 0-.365-.028-.593-.09a1.517 1.517 0 0 1-.841-.584l-.03.028.038-.018a1.814 1.814 0 0 1-.165-.443l-.002-.024-.147-.04h-.005a1.376 1.376 0 0 0-.325-.038c-.319 0-.694.086-1.156.291l.018.035.042.02a.719.719 0 0 0 .067-.319c0-.29-.143-.56-.168-.797-.005-.044-.005-.083-.005-.121 0-.263.108-.508.253-.712l-.036-.023-.016.038c.052.022.106.025.15.035.048.008.08.021.09.04l.036-.03-.039-.014a.378.378 0 0 0-.028.156c0 .037.003.068.003.094l-.01.08c-.009.028-.042.067-.074.106-.038.051-.07.103-.07.176l.006.066c.037.12.163.163.28.167l.099-.015c.106-.025.149-.108.143-.186 0-.082-.029-.167-.029-.25 0-.066.047-.305.081-.355l.044-.03.087-.044.007-.01.05-.108-.035-.019.03.031.06-.041.065-.053-.033-.023.033.023.031-.106.024-.086.05-.056a.14.14 0 0 0 .038-.104c-.002-.078-.047-.123-.077-.157-.04-.037-.06-.06-.06-.08h-.04l.003.043a.472.472 0 0 0 .318-.19c.066-.088.118-.192.176-.28l-.039-.024-.023.037c.11.093.213.136.316.136.17-.005.306-.123.437-.242.133-.12.265-.252.419-.294.104-.037.21 0 .37-.075l.058-.026-.049-.047c-.131-.1-.337-.13-.397-.186l-.031.03v.042c.326.008.645.071.95.071.24 0 .476-.039.687-.177l.106-.071-.127-.01a7.13 7.13 0 0 1-.942-.164l-.008.046.003.043c.23-.007.636-.01 1.01-.084.37-.064.714-.195.798-.487l.034-.109-.094.06c-.224.135-.505.178-.803.18h-.02c-.4 0-.733-.168-1.06-.168h-.012l.013.04.02.038c.224-.109.457-.256.535-.506l.017-.057h-.06c-.137.008-.207.125-.308.162-.31.129-.835.059-1.245.151-.194.046-.3.151-.422.153l.005.043.013.04a1.27 1.27 0 0 0 .375-.224c.111-.102.208-.231.213-.376 0-.094-.048-.19-.142-.278l-.104-.092.033.132.003.04c0 .036-.012.077-.086.139-.071.06-.207.134-.436.225-.266.108-.548.202-.81.349-.418.23-.61.591-.61.882 0 .192.077.357.224.438l.02-.043-.038-.002-.007.075c0 .235.153.403.253.54l.032-.026-.026-.034c-.115.086-.294.034-.46.075-.176.05-.318.151-.438.269l.03.036-.03-.036c-.062.06-.119.124-.174.183-.07.074-.106.166-.148.244-.133.217-.187.469-.283.692-.06.14-.108.286-.143.434a2.588 2.588 0 0 0-.088.652 2.285 2.285 0 0 0 .081.581v.007l.095.257.042-.016-.03-.033c-.488.36-.725.997-.725 1.563 0 .295.066.573.2.78a.7.7 0 0 0 .607.341v-.04l-.04-.021a.275.275 0 0 0-.028.123c0 .069.034.129.085.158a.316.316 0 0 0 .179.045.665.665 0 0 0 .326-.095c.093-.06.172-.148.172-.266v-.013h-.041l-.031.024c.024.034.072.059.129.077a.651.651 0 0 0 .198.037c.094 0 .196-.029.232-.13l.017-.05-.053-.004a.517.517 0 0 1-.297-.211l-.001-.002v-.005c-.156-.152-.381-.238-.889-.379l-.01.04.042-.01a.675.675 0 0 1-.024-.164c0-.225.145-.359.31-.503.157-.143.33-.298.33-.563v-.008h-.005l.006.003v-.003h-.006l.006.003-.04-.006-.015.04c.1.033.223.047.352.047.234 0 .475-.04.624-.102l-.018-.035-.046-.01c-.006.1-.011.18-.011.262 0 .117.016.225.07.327a.503.503 0 0 0 .13.158.31.31 0 0 1 .09.114c.012.035.012.074.012.12s-.004.091-.004.145c0 .091.017.2.102.296l.038-.026h-.05c.007.003-.022.061-.07.12-.146.186-.454.47-.454.47-.335.324-.735.4-1.13.4-.35 0-.693-.06-.986-.06-.334 0-.6.1-.791.259a.809.809 0 0 0-.296.622c0 .319.183.662.592.932.344.235.705.318.999.414.298.098.518.208.617.495.019.06.027.119.027.175 0 .042-.008.083-.014.126l-.013.048h.056c.092 0 .158-.066.2-.149.064-.123.108-.295.18-.434.07-.138.159-.233.323-.233.273-.003.563.109.65.235.037.05.042.083.042.1l-.018.044c-.058.057-.265.085-.472.098-.209.02-.417.037-.526.136l.032.028-.028-.033a.403.403 0 0 0-.135.31c0 .101.027.201.091.276a.365.365 0 0 0 .276.122.603.603 0 0 0 .135-.015l.022-.01.01-.024a.29.29 0 0 1 .288-.22c.03 0 .062 0 .102.015l.012-.047-.021-.032c-.08.045-.12.106-.118.172 0 .071.046.13.105.172a.328.328 0 0 0 .208.074c.075 0 .155-.03.202-.1l.005-.012.002-.007.006-.032-.026-.08-.015-.036-.04.006.028.03.094-.043c.08 0 .193.07.317.075l.048-.007c.184-.025.306-.212.306-.427v-.043h-.042l-.044.008c.08.399.238 1.105.64 1.72.396.616 1.05 1.13 2.125 1.13.502 0 .728-.26.901-.505.177-.245.305-.467.643-.467.267.003.454-.055.701-.23l.004-.006.002-.001c.121-.13.221-.425.475-.438l.106-.006-.08-.072c-.102-.086-.168-.123-.238-.123-.048 0-.09.025-.124.046-.043.022-.084.05-.155.07-.043.007-.084.015-.13.015-.075 0-.147-.01-.215-.01a.296.296 0 0 0-.12.018c-.09.031-.16.09-.253.14l.016.039.037.014c.06-.154.298-.24.478-.246h.004l.005-.003c.203-.072.276-.224.348-.348.074-.12.134-.215.352-.238l.098-.012-.075-.061a.43.43 0 0 0-.294-.13c-.168.004-.315.105-.491.174a.28.28 0 0 1-.114.023c-.05 0-.107-.008-.169-.008l-.064.002c-.083.012-.14.047-.2.07a.926.926 0 0 1-.209.086l.006.036.035.027c.128-.154.175-.333.305-.428l-.024-.035-.017.039c.034.01.083.014.136.014.083 0 .184-.01.273-.053.087-.039.16-.117.157-.235 0-.034 0-.072-.013-.109l-.025-.078-.05.065c-.036.042-.056.044-.072.044-.03.004-.082-.022-.133-.065-.051-.033-.111-.078-.187-.078l-.075.015.015.036.044.008c.016-.102.065-.261.131-.389.069-.132.157-.225.265-.22l.062.008c.045.014.069.051.083.112.027.097.02.24.046.362a.315.315 0 0 0 .08.162c.041.05.109.07.19.07h.043l.01-.004h.006c.042-.017.06-.058.054-.086l-.006-.068v-.01l-.027-.03-.037.02a.427.427 0 0 0 .39.222c.244-.003.503-.163.507-.41a.411.411 0 0 0-.07-.216l-.01-.016-.02-.004-.01.047-.034.02c.037.06.06.118.06.169 0 .087-.053.169-.13.226a.518.518 0 0 1-.293.098.354.354 0 0 1-.32-.178l-.02-.042-.047.035-.027.07.014.067v.004h-.005l.015.043-.003-.043h-.04c-.085 0-.124-.029-.153-.076-.045-.07-.047-.204-.058-.327-.008-.066-.011-.127-.034-.18a.225.225 0 0 0-.13-.12l-.086-.011c-.158.002-.266.126-.342.262a1.342 1.342 0 0 0-.135.422l-.012.074.068-.03.04-.008c.039 0 .087.028.141.065.053.038.103.084.18.084.045 0 .094-.028.139-.084l-.037-.024-.037.012.012.084c0 .082-.045.126-.112.158a.525.525 0 0 1-.235.046.537.537 0 0 1-.11-.01l-.015-.008-.017.015c-.165.12-.208.311-.325.442l-.085.1.127-.029a.78.78 0 0 0 .235-.088.397.397 0 0 1 .17-.06l.052-.006c.054 0 .11.009.169.01.05 0 .098-.005.148-.026.184-.078.329-.17.457-.166.078 0 .152.027.24.1l.026-.027-.004-.046a.487.487 0 0 0-.418.283c-.073.129-.129.245-.3.31l.014.038v-.042c-.2.011-.462.093-.552.298l-.046.11.109-.053c.102-.057.17-.109.243-.135l.092-.015c.06 0 .132.015.215.015a.598.598 0 0 0 .323-.099c.044-.025.067-.035.086-.035.033-.003.082.017.18.105l.025-.037v-.038c-.32.023-.429.371-.533.465l.03.03-.021-.04c-.238.174-.397.219-.65.219-.39 0-.542.264-.716.506-.174.239-.359.464-.829.465-1.046 0-1.667-.495-2.058-1.086-.391-.6-.542-1.299-.62-1.69l-.087.008v.04c0 .186-.1.325-.236.343l-.032.005c-.09.003-.197-.068-.317-.068a.206.206 0 0 0-.156.061l-.01.013v.018l.027.078.012.032-.002.017.042.008-.034-.025c-.035.046-.08.062-.135.062a.318.318 0 0 1-.156-.05c-.045-.036-.07-.077-.07-.107s.013-.062.073-.102l.086-.052-.097-.025a.629.629 0 0 0-.124-.016.39.39 0 0 0-.377.286l.045.01-.012-.038a.491.491 0 0 1-.11.014c-.185 0-.282-.15-.29-.313 0-.092.036-.186.113-.25h.005c.067-.075.323-.098.554-.116.117-.01.231-.023.32-.05a.28.28 0 0 0 .115-.056.152.152 0 0 0 .052-.111.335.335 0 0 0-.062-.15c-.122-.165-.427-.267-.72-.272a.394.394 0 0 0-.31.142c-.11.124-.157.3-.214.444a.595.595 0 0 1-.087.17c-.026.042-.053.063-.092.063v.045l.044.006a.66.66 0 0 0-.021-.344c-.11-.32-.369-.448-.668-.548-.303-.1-.654-.182-.978-.404-.388-.261-.552-.578-.552-.862 0-.424.368-.795.998-.795.28 0 .627.06.986.06.406 0 .832-.082 1.19-.424 0 0 .133-.124.271-.268.066-.07.138-.143.188-.21.055-.068.089-.117.094-.174v-.015l-.012-.013c-.07-.078-.082-.154-.082-.242 0-.048.004-.1.004-.144a.732.732 0 0 0-.014-.149c-.022-.066-.071-.111-.112-.15a.71.71 0 0 1-.118-.126.687.687 0 0 1-.058-.295c0-.072.005-.156.014-.252l.01-.07-.072.027c-.12.056-.362.094-.586.094-.123 0-.242-.014-.323-.04L16.21 8.7l-.004.051-.002.02c0 .217-.145.348-.306.493-.16.148-.338.305-.338.573 0 .057.007.121.026.187l.008.02.021.009c.51.14.719.226.847.357l.033-.028-.04.02c.092.146.252.236.36.25l.004-.043-.042-.012c-.013.043-.065.07-.147.07a.64.64 0 0 1-.168-.03.233.233 0 0 1-.095-.05l-.08-.1v.14c0 .078-.049.142-.132.195a.571.571 0 0 1-.278.081.273.273 0 0 1-.134-.034c-.03-.02-.042-.038-.044-.084l.018-.088.029-.06h-.065a.613.613 0 0 1-.537-.3c-.122-.192-.18-.45-.18-.735-.004-.544.225-1.156.692-1.493l.025-.021-.112-.29-.04.014.044-.01a3.838 3.838 0 0 1-.06-.284 2.692 2.692 0 0 1 .209-1.326c.103-.234.155-.477.276-.688.043-.08.083-.168.135-.225.055-.058.114-.123.174-.172a.889.889 0 0 1 .397-.254c.13-.039.331.02.494-.085l.035-.031-.024-.035c-.105-.14-.242-.301-.238-.488l.007-.062.004-.031-.029-.015c-.113-.063-.18-.19-.18-.36 0-.253.172-.585.57-.807.248-.14.526-.232.797-.345.233-.092.373-.17.456-.24.088-.064.12-.138.12-.203l-.003-.058-.047.01-.029.031c.085.08.113.15.113.215 0 .106-.074.22-.183.311a1.134 1.134 0 0 1-.347.21l.018.08c.164-.011.27-.114.438-.154.386-.09.913-.018 1.258-.155.132-.058.199-.156.275-.156v-.042l-.042-.008c-.063.209-.272.343-.492.452l.032.081-.011-.042.003.042h.008l-.011-.042.003.042-.003-.026v.026h.003l-.003-.026v.026c.298 0 .636.169 1.058.172h.021c.31-.003.603-.049.843-.191l-.018-.04-.043-.014c-.062.236-.37.366-.733.432-.363.069-.763.072-.997.077l-.01.089c.228.05.734.145.957.163l.001-.045-.02-.033c-.195.125-.412.162-.644.162-.294 0-.613-.061-.95-.067l-.116-.004.09.077c.104.088.302.108.397.192l.025-.033-.018-.038c-.127.062-.214.027-.355.065-.18.06-.32.2-.45.314-.13.123-.254.22-.38.22-.079 0-.16-.03-.263-.118l-.036-.029-.026.039c-.06.094-.114.197-.176.274a.36.36 0 0 1-.259.158l-.035.001v.04c.002.07.048.106.078.139.036.03.059.06.059.098l-.014.041a.242.242 0 0 0-.066.078l-.03.113-.018.069v.007l.008.003-.008-.01v.007l.008.003-.008-.01-.04.028-.076.056-.003.006-.058.108.041.019-.034-.031-.056.03-.086.06c-.052.092-.094.311-.094.403 0 .104.034.189.029.251 0 .056-.006.076-.082.101l-.074.013c-.096 0-.186-.044-.195-.103l-.009-.043c0-.04.02-.077.055-.118.032-.042.067-.08.092-.142a.468.468 0 0 0 .01-.102l-.002-.094c0-.04.003-.076.02-.129l.01-.023-.018-.018c-.034-.043-.095-.055-.14-.067-.05-.013-.1-.017-.129-.029l-.034-.013-.02.025c-.155.215-.272.477-.272.764 0 .042.003.085.006.128.033.262.17.526.17.79a.717.717 0 0 1-.064.279l-.049.104.107-.041c.454-.199.818-.283 1.119-.283.108 0 .21.013.31.038l.01-.046-.015.046.122.032.014-.043-.044.01c.035.17.098.326.169.461v.002h.005c.163.235.442.497.884.616.234.061.433.092.615.092.496 0 .82-.23 1.114-.624l-.035-.025-.011.045s.03 0 .074.012l.118.023.006-.043-.044-.015v.003l-.013.04.04.018c.094.04.199.048.272.091.175.09.373.268.582.556l.035.045.035-.038c.077-.095.23-.205.469-.422.144-.129.301-.25.414-.415a.905.905 0 0 0 .126-.348v-.006h-.026.026-.026.026c-.008-.097-.077-.145-.086-.19a.588.588 0 0 1-.028-.193v-.017L22.787 7l.044.006.007-.083.308-.404-.034-.03.022.034.076-.033.006-.043-.018.04.071.032.05.064.013.016.078-.005.056.01.044.03.061.085.017.017.086-.006.049.02.046.063.012.013.06.017.017.011-.017.349-.007.02c-.033.096-.111.167-.19.25-.042.042-.056.09-.081.136-.094.207-.217.414-.304.631-.138.323-.27.64-.465.935a1.352 1.352 0 0 1-.156.186l-.075.074-.022.022-.006.004-.003.006h.01-.01.01-.01l.03.025-.02-.035-.01.01.03.025-.02-.035-.045.03.033.038c.182.213.3.669.3 1.115 0 .263-.04.52-.118.724-.315.82-.665.972-.84.97a.363.363 0 0 1-.084-.012l-.036-.013-.018.031-.006.02c-.002.097.036.148.064.166.03.03.036.019.04.06l.04-.004-.04-.003v.013c0 .083-.066.121-.147.121-.078 0-.149-.038-.164-.102l-.004-.048c0-.04.012-.088.012-.141l-.016-.096-.003-.015-.014-.008-.06-.019-.046.007-.017-.015c-.101-.106-.175-.222-.175-.35 0-.057.015-.111.045-.175l.065-.119-.12.06a.847.847 0 0 0-.138.118c-.05.035-.088.06-.114.06l-.012-.004-.007.042.031.03c.087-.11.102-.306.177-.43l.02-.048-.044-.017c-.1-.03-.145-.112-.202-.213-.05-.105-.107-.229-.216-.308l-.025.03.008.046.072-.008c.084 0 .132.03.179.073.04.046.08.102.141.152l.079.058-.009-.097c-.02-.188-.117-.442-.32-.536l-.016.043.039.018c.096-.174.105-.526.162-.773l-.04-.011-.036.025c.04.066.122.2.208.334.092.134.176.255.26.305l.02-.035-.033-.025a.495.495 0 0 0-.08.284c0 .1.025.203.051.289l.023.062.045-.044c.064-.053.075-.132.083-.195.009-.07.02-.13.064-.169l.127-.051v-.045l-.04-.014a.49.49 0 0 0-.058.244c0 .122.032.232.032.312-.004.064-.012.107-.061.137l-.064.043.073.033c.13.05.187.192.314.3l.017.011h.016c.118-.012.18-.124.193-.243v-.05c-.005-.325-.256-.697-.256-1.051 0-.095.018-.184.063-.278l.02-.043-.047-.012c-.39-.132-.823-.306-1.004-.67l-.083.023c0 .202-.126.375-.27.569-.14.19-.286.399-.286.675 0 .085.05.204.112.363.205.484.6 1.325.6 2.17 0 .265-.037.532-.134.785l-.04.106.1-.048a.426.426 0 0 0 .123-.165c.037-.068.069-.144.1-.197v-.005c.053-.125.378-.39.757-.61.375-.226.816-.426 1.083-.458l.014-.006.015-.015c.09-.115.245-.226.397-.226.052 0 .108.014.164.048.09.059.15.222.188.398.044.174.069.359.143.466.107.15.287.174.454.206l.005-.04-.034.02.034-.02z" fill="#B68446"/>
            <path d="m21.205 5.273.013-.037a1.044 1.044 0 0 0-.33-.055.658.658 0 0 0-.173.02l.013.037.035-.015-.011-.051.009-.045.026-.053-.056-.006c-.048-.012-.106-.012-.17-.012a.97.97 0 0 0-.33.043l.013.038.025-.03-.017.017.022-.013-.005-.004-.017.017.022-.013-.002-.022.014-.068.045-.056-.072-.008-.088-.003c-.275.003-.57.12-.712.319l.034.022-.002-.04c-.283.018-.425.19-.532.365l.035.019.033-.019a.39.39 0 0 0-.35-.196.446.446 0 0 0-.25.078.285.285 0 0 0-.11.233c0 .037.004.08.02.126l.037-.017-.019-.033a.28.28 0 0 0-.125.243c0 .068.022.14.059.203l.032.05.034-.046a.118.118 0 0 1 .09-.053v-.04l-.02.034.092.028.027.016.04-.009h-.04c.006.122.077.188.141.233.066.05.115.086.136.155l.038-.01-.019-.037c-.142.051-.272.113-.44.137l.013.04.002-.04c-.06-.01-.09-.051-.126-.104l-.03-.05-.032.043a.4.4 0 0 0-.093.24c0 .066.018.131.052.202l.033-.02-.031-.02a.336.336 0 0 0-.068.186.3.3 0 0 0 .307.294.33.33 0 0 0 .17-.046l-.014-.037-.039.01c.048.217.154.428.266.55l.03-.026.014-.035c-.198-.071-.407-.25-.533-.411l-.073-.09.004.117c.024.64.716 1.032 1.387 1.032.493 0 .99-.214 1.208-.717l.02-.042-.05-.01c-.188-.034-.38-.038-.556-.063l-.004.039.037.018c.037-.078.18-.094.331-.1a.728.728 0 0 0 .213-.026c.067-.017.127-.058.147-.131l.014-.038-.143-.03-.068-.026-.013.036.017-.036c-.04-.021-.054-.021-.064-.05l-.035.016.033.019.035-.05-.033-.02v.037l.059.027a.178.178 0 0 0 .08.072l.003.002.095.012h.007l.091-.003a.537.537 0 0 0 .168-.043c.053-.018.097-.046.143-.07h.005a.374.374 0 0 0 .117-.157l-.037-.013.035.02.032-.05.041-.026v-.002l.036-.033-.024-.026.024.033.082-.073-.022-.03.022.03c.037-.03.117-.063.143-.147l.004-.029-.024-.016-.07-.014c-.083.003-.17.036-.225.036l-.038-.007-.03.02.026.031a.64.64 0 0 0 .238-.442v-.072l-.063.037-.045.017-.014-.005h-.006l-.002.005.008-.005h-.006l-.002.005.008-.005-.035.023.027.03a.646.646 0 0 0 .167-.33l.018-.087-.079.045-.046.016-.038-.022-.034.022.027.03c.152-.144.214-.414.217-.615v-.022l-.02-.009a.898.898 0 0 0-.609-.185v.036l.043-.003v-.025l.014-.061.033-.043-.054-.019-.013.037-.027-.025a.167.167 0 0 0-.033.111v.028l.003.043h.034a.83.83 0 0 1 .564.168l.024-.03h-.036c0 .182-.071.445-.192.558l-.025.018.016.031c.025.033.066.051.106.051l.087-.023-.02-.034-.039-.007a.556.556 0 0 1-.146.291l-.018.017.014.03.084.04.091-.029-.02-.033h-.042a.571.571 0 0 1-.206.376l-.034.03.024.03.1.039c.074 0 .167-.037.223-.037l.032.007.019-.034-.036-.01c-.006.035-.067.07-.116.104l-.081.072h-.003l-.035.033.025.03-.025-.037-.046.038-.003.001-.036.054-.005.008a.273.273 0 0 1-.1.12l.028.037-.021-.036a.566.566 0 0 1-.277.104l.001.043-.001-.043-.085.006-.085-.012-.004.039.012-.037-.053-.05a.157.157 0 0 0-.114-.055h-.024l-.043.07-.012.014.009.02c.018.06.068.078.097.089l.006.004.07.028h.007l.102.025.008-.043-.036-.01c-.013.043-.037.06-.094.078-.08.022-.2.018-.316.026-.11.019-.218.04-.279.14l-.025.048.054.006c.18.028.37.032.548.064l.008-.036-.033-.015c-.206.464-.663.665-1.136.669-.647 0-1.294-.38-1.31-.96l-.04.003-.03.022c.137.173.345.354.569.435l.038-.065a1.172 1.172 0 0 1-.245-.513l-.012-.052-.042.027a.303.303 0 0 1-.14.03c-.129 0-.224-.091-.224-.21 0-.045.012-.09.049-.14l.014-.017-.01-.023a.405.405 0 0 1-.042-.168.313.313 0 0 1 .072-.188l-.03-.022-.035.022c.038.057.088.119.18.137H18.415c.177-.028.32-.088.455-.137l.03-.017-.001-.035c-.03-.104-.107-.15-.165-.198-.059-.047-.104-.088-.113-.169v-.011c-.017-.049-.054-.064-.087-.071l-.072-.016-.01-.009h-.008a.2.2 0 0 0-.155.083l.037.024.03-.02a.328.328 0 0 1-.047-.163c0-.08.032-.143.087-.175l.028-.017-.011-.033-.017-.094c0-.076.031-.126.08-.174a.368.368 0 0 1 .201-.06c.115 0 .222.052.282.154l.033.06.035-.056c.109-.17.213-.308.466-.323l.023-.003.01-.015c.113-.168.395-.285.645-.285l.081.005.005-.04-.031-.022-.028.113.028.083.015.009.018-.009a1.03 1.03 0 0 1 .302-.038c.058 0 .115.003.16.012l.007-.039-.037-.018-.017.083.017.083.012.032.032-.01a.665.665 0 0 1 .154-.017c.096 0 .212.02.309.054l.007-.041-.027-.025.027.025zM16.933 9.377c.107 0 .103.12.207.12.032-.177-.207-.313-.39-.22-.209.385-.442.605-.62.782.166.053.27.098.411.247.164-.255.449-.389.686-.568-.208-.003-.364-.146-.326-.344l.032-.017zM15.6 9.909a.844.844 0 0 1 .006-.198c-.238-.238-.472-.16-.694.058.008.165.052.33.115.477.081-.306.406-.378.587-.235M17.934 9.059h.003zM18.018 9.382h.006-.006z" fill="#B68446"/>
            <g transform="translate(0 34.887)">
                <mask id="iopv4zxpob" fill="#fff">
                    <use xlink:href="#ht7llfxbya"/>
                </mask>
            </g>
            <g transform="translate(0 34.887)">
                <mask id="w6ogy29djd" fill="#fff">
                    <use xlink:href="#8asmb3cf8c"/>
                </mask>
            </g>
            <path d="M19.855 3.503c-.315-.182-.568-.209-.76-.147-.49.157-.528.28-.819.182.205.15.303.15.602.035.412-.169.615-.169.977-.07M17.6 4.005s.515.271.968.048c.424-.204.453-.288.74-.219-.146-.214-.337-.184-.614-.035-.267.148-.614.289-1.094.206M20.142 2.515c-.102.22-.304.513-.72.573-.456.065-.544-.025-.732.182.103-.219.262-.267.55-.283.286-.019.698-.153.902-.472M17.197 3.798a.49.49 0 0 1 .193-.598c.362-.24.608-.272.919-.395.288-.114.45-.27.513-.466 0 0 .026.413-.587.64-.864.32-.9.503-.785.89.036.136-.13.234-.253-.071M18.125 6.38c.082.063.13.182.215.216.122.043.275-.013.411 0-.221-.162-.38-.406-.781-.335.042.025.086.065.155.118M15.903 5.557c.09.254.38.442.618.342l.032-.055c.029-.064.063-.12.099-.185l.044-.066c-.128-.009-.531-.19-.475-.484-.186.15-.246.32-.318.448M22.884 7.432a1.023 1.023 0 0 1-.192.4c.324-.094.635.138.634.346l.223-.44c-.043-.251-.399-.413-.665-.306M21.198 9.796s.241.162.479.232c.075.034.741-.585.708-.729-.032-.137-.238-.427-.306-.488-.047-.13-.954.781-.881.985M16.61 7.528c-.166.045-.611.31-.611.366 0 .366.222.861.505.917.089.016.316.016.522-.051-.273-.19-.496-.886-.416-1.232M21.808 11.636s.344.319.307.67c0 0 .238-.15.394-.43 0-.279-.22-.45-.455-.45 0 0-.113.216-.246.21M22.626 12.962a.812.812 0 0 1 .07.465c.201-.31.39-.24.39-.24.093-.278-.167-.653-.167-.653v-.008c-.06.015-.122.037-.122.037a.508.508 0 0 1-.114.029c-.174.04-.478.204-.577.272.181.053.381.11.52.098M22.581 13.858h-.002l-.01-.01c-.006-.011-.137-.178-.418-.115l-.025.005-.003-.017c-.004-.01-.11-.245-.535-.16l-.01.005-.01-.01a.379.379 0 0 0-.38-.118.855.855 0 0 0-.117.164c.057.022.107.058.12.185.048-.063.117-.078.241-.082h.012l.01.012c0 .004.067.064.088.172a.498.498 0 0 1 .212-.082c.048 0 .132.089.133.202a.38.38 0 0 1 .22-.107c.06.068.117.177.098.26.064-.04.144-.113.291-.103l.01.043c.059.092.043.119.062.155.104.035.61.03.5-.325-.16.198-.299-.151-.487-.074M16.09 3.43l-.078-.148-.013.163-.162-.05.11.128-.159.071.171.014-.06.157.136-.106.08.15.014-.169.167.057-.11-.128.152-.076-.172-.015.06-.157zM17.793 5.694l-.031.086.072-.055.045.086.006-.096.088.029-.057-.074.082-.04-.095-.006.034-.088-.073.062-.038-.084-.013.095-.088-.03.058.067-.086.042zM17.938 5.295l-.047.129.107-.088.061.117.016-.132.128.043-.088-.104.124-.055-.138-.006.048-.131-.106.088-.06-.121-.013.137-.128-.045.086.101-.127.059zM16.457 4.283l-.043.12.1-.082.06.118.012-.13.13.039-.09-.095.127-.059-.137-.008.048-.12-.108.081-.057-.116-.012.131-.126-.041.083.1-.12.05zM15.342 3.531l.094-.253-.218.172-.117-.236-.026.264-.26-.084.177.2-.251.116.278.022-.1.251.219-.168.116.236.029-.264.26.082-.175-.202.253-.117zM18.012 6l-.024.067.061-.046.026.06.008-.068.075.023-.05-.051.07-.037-.074-.002.021-.072-.058.048-.032-.06-.005.068-.073-.025.046.055-.065.035zM15.672 4.404l-.066.165.14-.112.08.15.01-.167.168.06-.11-.136.16-.071-.176-.013.057-.161-.134.113-.079-.156-.016.17-.164-.052.115.125-.164.072zM19.709 6.228h-.124c.047-.12.028-.267-.034-.332l-.013-.016c.07 0 .171.242.171.348m-.508-.188c.038.175.212.266.407.266.065 0 .134.046.194.06.147.045.256-.037.394-.037-.11 0-.28.037-.373-.03a.183.183 0 0 1-.08-.124c-.149-.525-.598-.432-.542-.135" fill="#B68446"/>
            <path d="m19.23 5.758.027-.014a.273.273 0 0 1 .174-.031c.12.018.208.148.274.33.024.077.11.12.201.12.044 0 .096-.02.134-.043-.062.019-.179.002-.222-.049-.091-.086-.134-.39-.349-.462-.143-.042-.276.071-.258.135l.019.014zM18.69 6.058c0 .317.548.514.304.758-.042.038-.088-.013-.133-.015-.106.182-.532.051-.566.305.204-.051.443.097.604-.076.072-.018.085.031.154.016.104-.075.147-.222.357-.192-.217-.225-.18-.542-.47-.697 0-.273-.302-.223-.46-.331-.02.018-.074.132-.036.17.086.075.171-.011.246.062M20.699 11.556c.053-.225-.041-.366-.182-.366a.156.156 0 0 1-.04.1c-.084.089-1.165.121-1.554.04.03.17.024.306-.053.426.912.182 1.775-.018 1.829-.2M18.316 10.98a.518.518 0 0 0-.537.52c-.01.238.256.65-.012.9-.162.152-.513.145-.75.024.015.04.04.084.06.12a.67.67 0 0 0-.46-.03l.058.196-.277.011.059.297-.278.011.032.316-.218.026.08.365-.033.245.014.078.172-.114.188-.49c-.1.15.282-.745.765-.78a.88.88 0 0 0 .314.232c.204.084.41.074.57-.025.213-.134.304-.434.263-.77-.031-.224-.2-.509-.193-.776 0-.142.162-.227.3-.168.093.047.137.17-.006.464l-.003.092a.173.173 0 0 0 .08.09h.005l.01.013c.068.022.137.002.195-.064a.38.38 0 0 0 .078-.227c0-.304-.17-.548-.476-.556" fill="#B68446"/>
            <path d="M14.904 12.592c-.283-.11-.491-.266-.587-.432a.441.441 0 0 1-.064-.219c0-.141.078-.274.207-.335.026.06.06.122.102.178a.246.246 0 0 0-.031.123c0 .104.058.195.137.27.123.107.313.192.547.26.233.061.519.1.84.1l.062-.003c-.075.085-.144.179-.212.285l.004-.019a3.07 3.07 0 0 1-1.005-.208m1.754-.237a.484.484 0 0 0-.301-.03c-.102.007-.205.015-.303.015-.403 0-.747-.067-.986-.157a1.065 1.065 0 0 1-.266-.154l-.061-.082.046.03c.117.08.259.157.678.206-.698-.117-.997-.74-.864-1.064-.07.018-.084.038-.164.043a.48.48 0 0 0-.03.251l-.003-.004a.573.573 0 0 0-.347.532c0 .107.03.215.09.322.135.22.376.39.683.515.277.112.615.184.973.211a.983.983 0 0 0-.11.268c-.014.127.046.114.1.173l.116.074v-.044c-.083-.093.172-.715.75-1.105M22.562 15.236c-.189.232-.267.331-.415.44-.1.066-.155.092-.25.136a.52.52 0 0 0 .281-.073c.075-.048.26-.213.407-.362.135-.115.242-.158.391-.152.2.01 0-.03 0-.03l-.253-.032-.161.073zM21.182 6.689l-.064-.018a.741.741 0 0 0 .043-.504.751.751 0 0 0-.847-.553 5.511 5.511 0 0 0-.209-.133l.105-.034a.92.92 0 0 1 .697.09.925.925 0 0 1 .43.564.906.906 0 0 1-.155.784c-.034-.04-.037-.129 0-.196zm-.156-.012a.257.257 0 0 0-.14.098c-.01-.08-.003-.141.045-.203l-.054-.01a.477.477 0 0 0 .028-.33.477.477 0 0 0-.286-.321 1.104 1.104 0 0 0-.214-.229.687.687 0 0 1 .366.096.675.675 0 0 1 .315.408.673.673 0 0 1-.06.49zm-.239-.113c-.09.019-.179.07-.186.153-.044-.078.007-.158.06-.222.091-.111.1-.287.032-.453a.413.413 0 0 1 .132.21.403.403 0 0 1-.038.312zm-.19.89.012-.003.005.004h-.017zm.787-.698-.048.029a.992.992 0 0 0-.391-1.312.982.982 0 0 0-.758-.106c-.055.016-.11.04-.164.063a1.562 1.562 0 0 1-.395-.315L19.639 5c-.205.09-.428.274-.46.405.21-.127 1.308.34 1.308.88 0 .042-.094.176-.087.224-.033-.03-.116-.139-.114-.187-.115.07-.197.318-.107.435.07.088.165.113.273.113-.226 0-.334.305-.498.42.048.014.14-.01.191-.021-.07.106-.26.175-.269.308.009-.093.3-.038.343-.05.045-.017.05-.076.1-.064l.074.064.068-.008-.018.057c0 .157.18.204.35.21v-.12l-.005-.07.02-.006.128-.061.099.02c.3-.008.453-.174.597-.345l-.084-.005-.077-.037c.05.003.116-.057.159-.082.055-.026.116-.057.162-.084.106-.061.192-.143.2-.27-.152.144-.425-.04-.608.031zM19.533 3.367c.117.032.305.042.417.042.025.07-.095.063-.095.063l-.048.014-.2-.059-.074-.06zM18.899 7.566a.977.977 0 0 0 .447.095c.133 0 .26-.02.367-.066l-.033-.077a.806.806 0 0 1-.334.063.928.928 0 0 1-.414-.086l-.033.071zM18.945 7.726a.988.988 0 0 0 .444.095c.128 0 .25-.02.354-.065l-.03-.07a.967.967 0 0 1-.324.057.954.954 0 0 1-.405-.082l-.039.065zM18.984 7.894a.75.75 0 0 0 .429.117c.156 0 .314-.036.43-.09l-.036-.072a.928.928 0 0 1-.394.08c-.148 0-.29-.03-.38-.096l-.049.06zM21.081 11.544s-.15-.1-.243-.317c-.086-.213-.193-.269-.193-.269s.177-.023.247.04c.073.061.182.186.182.186s.012-.196-.112-.342a.7.7 0 0 0-.162-.145l.156-.739.414.598s-.046.207-.031.354c.01.048.045.156.045.156s.037-.013.051-.143a.299.299 0 0 1 .244-.271s-.085.197-.055.374c.04.179.061.348-.025.394 0 0-.33-.177-.518.124M21.354 12.301s.225-.088.519.06c0 0-.103-.006-.094.044.009.052.102.113.094.177 0 .072-.022.186-.164.186-.13 0-.261-.106-.226-.227.03-.128.005-.152-.008-.18l-.12-.06zM21.005 15.072c-.503 0-.943-.285-1.26-.573a1.956 1.956 0 0 1-.165-.17l-.013-.019c.125-.008.24-.018.341-.03.436.567 1.392.653 1.945.09.115.066.212.137.294.212-.41.36-.792.49-1.142.49zm-1.088-.1a.162.162 0 0 1-.19-.099c-.01-.05 0-.099.03-.137.08.061.16.116.238.167l-.078.068zm.51-.78c.36.198.617.195.952-.044.11.042.215.087.306.131-.54.4-1.097.44-1.58-.022.126-.022.231-.04.323-.065zm.49-.199c.094.033.189.061.274.093-.14.1-.36.114-.533.04a.897.897 0 0 0 .259-.133zm-2.256 1.09a4.19 4.19 0 0 1-.152-.401l-.02-.06a.246.246 0 0 1 .303.165.249.249 0 0 1-.13.297zm.811.416a.197.197 0 0 1 .24.128.196.196 0 0 1-.13.243c-.1.032-.208-.031-.24-.128a.198.198 0 0 1 .13-.243zm-.324-2.383s.152-.254.298-.254c0-.15.259-.3.259-.3s.245.183.245.3c.125 0 .294.243.294.243s-.16.254-.294.254c0 .149-.245.294-.245.294s-.259-.163-.259-.294c-.122 0-.298-.243-.298-.243zm-.06-.73c-.044-.017-.136-.118-.112-.22.057.004.113.004.172.012.027.109.155.168.16.17l.012.007.006-.007a.31.31 0 0 0 .146-.16l.027.003c.056 0 .115-.006.169-.006.016.088-.029.17-.128.22l-.061-.087c-.007.095-.159.2-.159.2s-.167-.105-.167-.2l-.065.069zm-.14 1.43a.169.169 0 0 1-.214-.111.17.17 0 0 1 .076-.193c.05.1.096.2.158.295l-.02.009zm.465-1.628a.226.226 0 0 1-.093.107.215.215 0 0 1-.112-.112c.066.002.138.002.205.005zm.483-.018c.04.106.171.148.176.152l.01.004.012-.008c.003-.002.117-.074.123-.19.055-.009.104-.021.164-.03.03.087.01.189-.08.257l-.07-.082c.004.092-.13.215-.13.215s-.168-.09-.18-.179l-.06.071c-.037-.015-.132-.096-.12-.197.052 0 .107-.007.155-.013zm.266-.03a.206.206 0 0 1-.087.128c-.029-.012-.097-.042-.118-.101.066-.01.137-.017.205-.027zm.399-.096c.058.116.231.16.257.16.024.072.042.15.042.15s-.226-.055-.246-.15l-.053.085a.207.207 0 0 1-.136-.203c.05-.01.092-.029.136-.042zm.191-.051c.009.02.03.083.048.155-.045-.008-.142-.046-.181-.119.047-.012.09-.023.133-.036zm1.693 2.414a4.245 4.245 0 0 0-1.471-.606l-.018.036-.025-.07c-.43.357-1.214.373-1.518.363l-.064-.087c.168.008.348-.004.527-.025.045-.068.176-.223.269-.223 0 0-.006-.132.236-.307 0 0 .27.156.264.286 0 0 .054.002.103.024.067-.032.13-.065.176-.097l.012-.084.012-.119c-.22-.11-.22-.247-.22-.247-.095.027-.285-.203-.285-.203s.034-.067.096-.153c.058-.084.158-.095.158-.095-.01-.138.18-.282.202-.292a5.694 5.694 0 0 0-.128-.526h.004l-.004-.012-.016-.032-.011-.034a3.715 3.715 0 0 1-1.245.198c-.291 0-.552-.026-.735-.054-.087-.015-.167-.025-.216-.035-.049-.012-.104-.031-.104-.031l.003.057v.015h.002v.022s.07.023.181.041a.353.353 0 0 1-.15.209l.017.087c.002-.008.188-.15.208-.286.053.008.11.017.177.023.024.094-.007.176-.101.24-.038-.01-.076-.089-.076-.089.01.096-.18.244-.206.268.045.244.116.493.216.733l-.017-.006s-.101.106-.06.22c-.119.038-.178.279-.178.279s.201.15.304.12c.028.105.275.173.275.173s.027-.03.059-.074c.155.234.34.442.541.618l.004.075c-.105.033-.155.24-.155.24s.175.137.262.109c.032.09.245.15.245.15s.123-.134.11-.235l.037.019.01.037c.016.082.056.29.056.552 0 .295-.066.647-.23.98a2.055 2.055 0 0 1-.81-.63c.067.04.147.067.202.054.036.12.314.193.314.193s.184-.2.144-.337c.122-.037.195-.313.195-.313s-.222-.172-.336-.135c-.034-.109-.305-.205-.305-.205s-.194.212-.152.348c-.087.028-.152.162-.181.243a3.114 3.114 0 0 1-.239-.384c.06-.084.142-.23.104-.344.156-.053.258-.409.258-.409s-.294-.225-.438-.18c-.03-.11-.261-.207-.354-.243a6.517 6.517 0 0 1-.091-1.105v-.121h-.075v.12c0 .095.001.234.007.393-.165-.438-.768-.379-1.11-.208.295.094.411.262.382.382 0 0 .52-.112.746.067.017.226.05.478.111.682 0 0 .097.432.348.921.247.49.65 1.047 1.264 1.287l.006-.02.15.073c.196-.378.247-.786.247-1.109 0-.209-.021-.389-.044-.501.079.034.161.069.248.09.02.092.05.293.05.549 0 .304-.05.681-.229 1.026l.15.06c.19-.377.242-.766.242-1.086 0-.22-.021-.393-.04-.51.046.01.1.016.15.023a.391.391 0 0 1 .032.13c.038-.006.102-.036.15-.13l.067-.005c-.009.035-.049.145-.205.205.004.045.009.1.012.167 0 0 .16.058.27-.136 0 0-.03-.047-.093-.07.02.006.088.002.2-.193.32-.065.671-.243 1.018-.574l-.015-.016.02-.026.097-.175z" fill="#B68446"/>
            <path d="M19.697 13.339a.228.228 0 0 0 .228-.227.228.228 0 1 0-.456 0c0 .124.1.227.228.227M20.748 13a.178.178 0 0 0 .183.187l.041-.005c0-.116-.01-.236-.027-.363-.036 0-.19.011-.197.18M20.236 13.96c.116-.026.225-.057.324-.092a.203.203 0 0 0-.135-.052.193.193 0 0 0-.19.145M20.948 15.882c-.003.1-.008.187-.017.26.041-.007.099-.033.161-.121 0 0-.04-.11-.144-.14" fill="#B68446"/>
            <path d="M21.13 15.847c.068-.01.107-.063.107-.063-.092-.197-.289-.15-.289-.15.004.066.004.127 0 .183.053.014.158.059.21.208 0 0-.106.168-.234.179a.959.959 0 0 1-.03.18c.177.032.271-.093.271-.093a.237.237 0 0 0-.064-.087c.087.014.235-.165.235-.165-.123-.194-.206-.192-.206-.192M21.035 16.645c.039-.008.11-.057.11-.057-.095-.21-.258-.17-.258-.17a1.681 1.681 0 0 1-.04.182c.048.01.146.045.188.2h-.09s0-.079-.123-.127c-.034.097-.067.142-.067.142.28.06.427-.024.427-.024-.064-.14-.147-.146-.147-.146M23.973 7.07l-.029.008.01-.14c.24-.11.362-.327.362-.594a.68.68 0 0 0-.679-.674.68.68 0 0 0-.675.674c0 .075 0 .136.025.207l-.103.13a1.493 1.493 0 0 1-.043-.337.795.795 0 1 1 1.132.725m.748-1.056c-.004-.047.116 0 .152.045-.045-.255-.325-.3-.497-.232l-.06-.068c.109-.088.286-.142.43-.074-.152-.363-.344-.182-.38-.25-.011-.024.048-.07.127-.067-.173-.125-.44-.053-.557.137l-.078-.02c.012-.097.192-.269.347-.303-.391-.195-.488.042-.555.042-.036 0 .02-.124.069-.18-.262.041-.387.27-.393.471-.042.018-.053.022-.093.043a.739.739 0 0 1 .128-.468c-.456.083-.345.384-.407.384-.029 0-.05-.152-.022-.194-.176.088-.182.39-.048.601l-.046.095c-.132-.086-.187-.301-.17-.443-.236.236-.079.4-.123.448-.031.028-.066-.034-.079-.118-.09.23.066.464.285.544l.005.094a.657.657 0 0 1-.355-.229c0 .325.162.368.162.424 0 .024-.066.039-.109-.01a.351.351 0 0 0 .32.249l.02.004c-.025-.05.182-.352.302-.405l-.016-.059a.536.536 0 0 1 .088-.416.547.547 0 0 1 .465-.247.55.55 0 0 1 .311.09.565.565 0 0 1 .153.778.667.667 0 0 1-.235.2c.11.039.017.337-.006.36l.088-.03a.375.375 0 0 1-.152.339c.352-.03.348-.237.42-.264.055-.018.043.11.004.133.16-.035.174-.375.127-.497.002-.01.038-.033.06-.092.06.106.11.25.09.405.294-.262.127-.479.175-.528.03-.028.096.092.096.164.113-.178.019-.463-.235-.557-.002-.037 0-.051-.007-.095.156.02.315.116.368.268.035-.447-.16-.394-.17-.472M19.574 8.696c-.075 0-.175-.014-.265-.03-.847-.121-1.332-.94-1.339-1.363l.11.028c.118.475.387.831.76 1.033.139.082.296.14.475.155.04.009.078.017.123.024.045.002.098.003.142.003.145 0 .292-.018.43-.054.415-.078.718-.277.867-.618l.122.032c-.174.501-.727.79-1.425.79zm.468.544-.01.006a1.03 1.03 0 0 1-.255.166l-.003.006a1.46 1.46 0 0 1-.28.09h-.003a2.063 2.063 0 0 1-.176.021v-.037l.027.013a.097.097 0 0 0 .104-.083c.01-.057-.028-.102-.079-.112-.052-.004-.102.03-.11.084l.007.038-.029-.01c-.056-.004-.1.033-.103.083l-.007.011a.492.492 0 0 1-.12-.024l-.09-.174-.172.086-.066-.039.013-.053c0-.048-.034-.084-.08-.094l.035-.074a.092.092 0 0 0-.062-.09l.012-.047c0-.05-.028-.09-.076-.096l.018-.064c0-.044-.023-.081-.064-.092l.016-.055a.092.092 0 0 0-.074-.092l.012-.05-.014-.052.064-.021c.102.034.127.147.254.166-.075.284.09.382.16.562.181-.092.498-.044.502-.31.136-.017.252.034.344 0a.32.32 0 0 0 .118.095l-.017.041v.019l-.028-.01c-.056-.009-.102.031-.11.084v.01l-.021-.004c-.052-.01-.099.029-.11.08v.017l-.033-.017a.096.096 0 0 0-.105.084.088.088 0 0 0 .077.108c.053.01.104-.028.106-.08v-.016l.039.014a.094.094 0 0 0 .108-.082v-.011l.021.005a.093.093 0 0 0 .106-.086V9.14l.033.009a.1.1 0 0 0 .108-.081v-.01c.046.016.097.027.142.045a2.05 2.05 0 0 1-.13.137zm-1.183.718c-.011.05.02.088.06.105a.11.11 0 0 0-.071.076c0 .051.027.091.066.107l-.052.077.004.047c-.043.007-.087.019-.132.022a.538.538 0 0 0-.166.076l-.06.047-.019-.066a.447.447 0 0 0-.113-.155c-.042-.048-.09-.088-.137-.137l-.009-.023.034.005a.098.098 0 0 0 .097-.098l-.006-.023c.05.003.098-.028.107-.076l-.015-.061.026.006c.053 0 .095-.05.095-.103l-.014-.046c.043 0 .084-.04.091-.086l.016.01.082.174.157-.078.006.002h.013l-.009.022a.11.11 0 0 0 .042.099c-.046 0-.086.028-.093.077zm-.755-1.479c.054.013.1.024.148.031l-.013.048c0 .05.031.087.076.098l-.017.044c0 .043.028.078.07.09l-.018.057c0 .047.037.088.077.094l-.022.066c0 .041.028.072.062.088l-.014.049c0 .047.036.09.084.096l-.018.017a1.171 1.171 0 0 1-.415-.778zm.017-1.143.005.006-.021-.006h.016zm3.16.593c-.364-.21-.829-.197-.984-.197l-.048.004.01.022-.007.021h.045c.086 0 .264 0 .473.037a1.067 1.067 0 0 1-.162.227c-.287.3-.891.476-1.465.28-.719-.24-.806-.765-.806-.765s.064.041-.089-.14c-.154-.187-.422-.163-.422-.163l.016.035a.585.585 0 0 0-.307.153c.06.095.229.189.399.218-.043.12.174.253.18.329.003.033-.11.14-.126.216-.018.089.003.141-.037.214-.026.03-.032.051-.032.1V8.593a.16.16 0 0 0 .078.134.178.178 0 0 0-.06.138l.001.02-.001.027c0 .099.075.174.167.18l-.012.065.002.026-.002.026c0 .1.08.18.18.18l.023-.003V9.443c0 .09.072.17.158.184l-.004.015.013.046a.096.096 0 0 0-.088.096l.016.053-.01-.003a.1.1 0 0 0-.114.075l.004.04h-.006a.093.093 0 0 0-.094.092l.012.043h-.009l-.007-.016a.342.342 0 0 1-.062-.163.767.767 0 0 0-.029.207l-.025.063.01.035-.021-.004a.098.098 0 0 0-.101.094l.002.015-.037-.009a.095.095 0 0 0-.094.094l.006.032-.053-.017a.095.095 0 0 0-.098.096v.004l-.06-.025a.101.101 0 0 0-.096.089l-.075-.038-.078.04-.077-.04-.02.005-.035-.091c-.113-.045-.414.28-.277.362.098.171.213.328.472.537-.171 0 .048.306-.177.306-.055 0 .037-.16-.062-.118a.54.54 0 0 0-.2.534l.094.15c.084-.342.395-.442.689-.346-.145-.37-.098-.648.06-.8a.745.745 0 0 1-.479-.375l.012-.012.078.041c.053 0 .09-.04.097-.092l.075.041c.054 0 .1-.043.1-.094l-.005-.002.062.015c.051 0 .096-.04.096-.091l-.004-.031.05.018a.098.098 0 0 0 .098-.098l-.004-.008.037.005c.048.003.085-.031.098-.074.082.175.243.309.282.51h.004c.143-.146.345-.177.506-.28l.076.05h.026l-.023.045c-.003.053.033.1.087.108l.041-.004-.009.027c-.01.054.03.103.085.115l.032-.008-.01.03c0 .05.027.102.085.11l.067-.016-.015.029a.093.093 0 0 0 .08.112l.06-.01c.009.04.033.074.083.08.037.006.074-.016.094-.053.013.032.04.059.077.064.053.007.1-.027.107-.083v-.004l.053.027a.101.101 0 0 0 .111-.086l-.003-.027.003.002a.094.094 0 0 0 .12-.063l.006-.04c.052.009.099-.03.101-.076v-.04a.099.099 0 0 0 .088-.094.091.091 0 0 0-.09-.092.093.093 0 0 0-.093.092l.004.021a.096.096 0 0 0-.093.083v.018c-.046-.003-.09.024-.1.068l-.007.048-.018-.006c-.054-.007-.102.028-.106.081v.005l-.055-.03a.11.11 0 0 0-.102.054l-.073-.06-.06.006c-.006-.038-.037-.07-.082-.078l-.062.017.012-.032c.009-.05-.029-.1-.083-.11h-.037l.01-.028c.008-.057-.03-.1-.082-.108h-.042l.01-.025c.01-.05-.03-.1-.084-.104h-.025l.016-.047-.035-.09a.617.617 0 0 0 .1-.221.309.309 0 0 1-.121.1l-.06-.067.052-.076c.008-.045-.02-.086-.057-.104.037-.01.057-.039.065-.078a.095.095 0 0 0-.045-.092c.049 0 .09-.033.096-.086v-.016c.043.002.08.005.13.005l.044.043c.08.058.195.033.246-.05l.018-.04.013-.003.016.012a.184.184 0 0 0 .247-.053l.034-.1.013-.009c.085.053.191.03.244-.055a.21.21 0 0 0 .025-.121l-.004-.071a.16.16 0 0 0 .168-.072.16.16 0 0 0 .021-.11v-.053c.102-.093.214-.224.128-.392.131-.065.254-.126.345-.23.21.136.429-.05.626-.08-.003-.12-.086-.305-.177-.424h.006c.215.129.376.276.49.397.05.06.095.108.12.149l.033.037.011.017.038-.025s-.183-.36-.655-.634zM16.32 11.751a.208.208 0 0 0-.196-.215.212.212 0 0 0-.22.192.209.209 0 0 0 .2.223.211.211 0 0 0 .217-.2" fill="#B68446"/>
            <path d="M17.146 11.448c-.049.084-.147.125-.256.088l.022-.1c-.07.057-.243.012-.243.012s-.028-.183.044-.243l-.093-.009c-.013-.039.003-.182.121-.22l.034.042.052.07c-.086.09-.04.238-.04.243l.006.011.005.003c.004.007.14.062.238-.014l.094.094.016.023zM17 11.3c-.06.035-.14.018-.167.008-.01-.033-.023-.123.026-.176l.141.168zm.287.156a2.457 2.457 0 0 1-.396-.428c-.038-.043-.055-.082-.067-.106l-.007-.02-.006-.006-.079.025.01.025c-.445.247-.659.215-1.135.172-.595-.056-.89-.048-.89-.048l.004.05c.033-.007.106-.012.217-.009l-.009.04a.203.203 0 1 0 .407 0l-.006-.015c.104.008.217.02.35.035 0 0-.137.202-.299.226 0 0 0 .13-.242.273 0 0-.225-.15-.23-.292 0 0-.117-.015-.183-.144.062.85.74.978 1.178.99h.101c-.072-.058-.164-.16-.156-.24-.132-.003-.297-.26-.297-.26s.161-.252.314-.247c.009-.149.279-.294.279-.294s.241.195.241.315c.125.009.29.264.29.264s-.176.25-.31.248c-.008.088-.094.172-.161.222l.729.043s-.083-.11-.043-.382c.036-.223.22-.372.285-.42l.055.048.056-.065z" fill="#B68446"/>
            <path d="M18.003 34.011a.111.111 0 0 0-.03-.078.101.101 0 0 0-.075-.027.096.096 0 0 0-.07.027.103.103 0 0 0-.03.078.103.103 0 0 0 .1.1.107.107 0 0 0 .075-.03.108.108 0 0 0 .03-.07zm.775.204h-.187v-.806a.252.252 0 0 0-.082-.193.283.283 0 0 0-.2-.075.29.29 0 0 0-.27.154c.099.021.166.065.202.138a.384.384 0 0 0-.108.076c-.029.032-.04.075-.04.128 0 .045.007.11.015.193.01.084.017.14.017.177 0 .065-.024.12-.064.164a.216.216 0 0 1-.163.066.218.218 0 0 1-.161-.066.222.222 0 0 1-.067-.164c0-.063.022-.115.067-.16a.217.217 0 0 1 .155-.066c.027 0 .04.002.048.008l-.02-.185c0-.072.037-.127.105-.164a.255.255 0 0 0-.186-.037.4.4 0 0 1 .14-.309.483.483 0 0 1 .326-.111c.144 0 .257.037.342.115a.409.409 0 0 1 .131.317v.8zM19.796 34.215h-.188v-.883a.167.167 0 0 0-.057-.135c-.038-.04-.09-.056-.155-.056a.223.223 0 0 0-.165.066.25.25 0 0 0-.067.173h-.181a.407.407 0 0 1 .118-.29.407.407 0 0 1 .295-.107.46.46 0 0 1 .283.085c.08.057.117.145.117.261v.886zM20.67 33.495a.082.082 0 0 0-.03-.069c-.016-.018-.04-.025-.068-.025a.095.095 0 0 0-.067.025.102.102 0 0 0 0 .132c.02.016.04.026.067.026.029 0 .052-.01.068-.026a.074.074 0 0 0 .03-.063zm.377.72h-.195v-.828a.213.213 0 0 0-.095-.18.333.333 0 0 0-.208-.066.294.294 0 0 0-.224.094.304.304 0 0 0-.086.214.72.72 0 0 0 .016.11c.007.05.014.095.014.133v.085l.01-.066c.007-.037.012-.069.015-.093a.487.487 0 0 1 .097-.213c.053-.073.114-.109.185-.109.058 0 .106.02.149.056a.2.2 0 0 1 .06.143c0 .05-.02.097-.06.132a.2.2 0 0 1-.15.062.207.207 0 0 1-.14-.053 1.797 1.797 0 0 0-.092.579h-.193v-.195c0-.094-.016-.2-.051-.31a.991.991 0 0 1-.052-.263c0-.144.052-.254.156-.341a.542.542 0 0 1 .362-.123c.131 0 .24.032.33.097a.374.374 0 0 1 .152.313v.822zM21.962 34.011a.109.109 0 0 0-.035-.078.136.136 0 0 0-.086-.027.13.13 0 0 0-.084.027.107.107 0 0 0-.033.078c0 .024.012.049.033.07.025.018.05.03.084.03.033 0 .06-.012.086-.03.02-.021.035-.046.035-.07zm.15 0a.202.202 0 0 1-.078.16.29.29 0 0 1-.193.066.284.284 0 0 1-.19-.066.204.204 0 0 1-.08-.164c0-.066.026-.12.08-.164a.293.293 0 0 1 .19-.066c.029 0 .044 0 .051.004v-.261c0-.033-.075-.063-.23-.095a11.15 11.15 0 0 0-.425-.077.435.435 0 0 1 .104-.264c.063-.07.155-.101.273-.101.048 0 .116.009.2.028a.972.972 0 0 0 .187.026c.038 0 .062-.02.063-.063l.173.039c-.042.122-.119.185-.232.185a.764.764 0 0 1-.178-.029.87.87 0 0 0-.177-.028c-.103 0-.16.036-.175.105.175.033.329.068.453.102.12.037.184.1.184.187v.476zM21.725 32.575a.146.146 0 0 0-.03-.085.098.098 0 0 0-.072-.036c-.029 0-.052.014-.072.036a.148.148 0 0 0-.028.085c0 .038.011.061.028.09a.097.097 0 0 0 .145 0 .16.16 0 0 0 .029-.09zm.674-.31c-.063.436-.256.653-.592.653-.13 0-.234-.03-.303-.098a.314.314 0 0 1-.105-.245c0-.073.025-.137.067-.191a.192.192 0 0 1 .159-.079.2.2 0 0 1 .167.079c.04.058.063.12.063.191 0 .072-.018.126-.048.158.227-.008.361-.167.396-.468h.196zM22.988 34.497a.067.067 0 0 0-.021-.046c-.013-.01-.028-.014-.048-.014-.024 0-.038.003-.05.014a.07.07 0 0 0-.019.046c0 .02.007.036.019.047a.065.065 0 0 0 .098 0 .06.06 0 0 0 .02-.047zm-.388-.815a.086.086 0 0 0-.028-.064.083.083 0 0 0-.06-.022.093.093 0 0 0-.062.022.08.08 0 0 0-.025.064c0 .023.005.045.025.06a.091.091 0 0 0 .062.026.08.08 0 0 0 .06-.025.08.08 0 0 0 .028-.061zm.517.279c0 .186-.093.276-.283.276-.186 0-.282-.087-.282-.259v-.101c-.015.007-.029.007-.042.007a.198.198 0 0 1-.146-.058.209.209 0 0 1-.058-.144c0-.06.025-.11.066-.147a.217.217 0 0 1 .148-.056.23.23 0 0 1 .157.056.18.18 0 0 1 .065.142v.294c0 .073.03.11.093.11s.096-.037.096-.11v-.436c0-.04-.094-.083-.283-.127a1.93 1.93 0 0 0-.376-.052.401.401 0 0 1 .14-.291.409.409 0 0 1 .257-.082.72.72 0 0 1 .17.028c.078.02.134.031.177.031.032 0 .05-.024.056-.073l.155.042c-.036.136-.11.207-.219.207a.56.56 0 0 1-.17-.038.58.58 0 0 0-.169-.039.283.283 0 0 0-.105.026c-.04.018-.067.035-.078.059.234.035.404.081.513.13.08.037.118.093.118.16v.445zm-.687.667a.229.229 0 0 0-.07-.016c-.077 0-.117.027-.117.082 0 .05.03.074.08.074.07 0 .107-.046.107-.14zm.687.08c0 .136-.064.2-.2.2h-.248l-.134-.18a.171.171 0 0 1-.066.125.178.178 0 0 1-.127.052.215.215 0 0 1-.159-.06.226.226 0 0 1-.055-.157c0-.062.02-.113.06-.15a.234.234 0 0 1 .171-.06c.04 0 .07.005.084.014a.19.19 0 0 1 .11-.153l.095.052c-.06.029-.092.087-.092.17l.148.2h.157c.066 0 .098-.018.098-.05v-.038h-.036a.19.19 0 0 1-.138-.054.155.155 0 0 1-.056-.122c0-.046.02-.085.056-.12a.198.198 0 0 1 .138-.053c.05 0 .095.018.137.052.04.036.057.075.057.121v.21zM23.893 34.011c0-.033-.018-.056-.042-.078a.16.16 0 0 0-.095-.027.144.144 0 0 0-.092.027c-.026.022-.043.045-.043.078 0 .024.017.049.043.07.024.018.057.03.092.03a.17.17 0 0 0 .095-.03c.024-.021.042-.046.042-.07m.16-.004c0 .065-.03.12-.09.164a.315.315 0 0 1-.207.066.34.34 0 0 1-.224-.07.22.22 0 0 1-.092-.177v-.984h.243v.777a.223.223 0 0 1 .073-.008c.082 0 .154.022.208.068.06.045.089.098.089.164M24.29 33.213a.11.11 0 0 0-.03-.076.105.105 0 0 0-.073-.027.102.102 0 0 0-.073.027.11.11 0 0 0-.032.076c0 .026.012.052.032.073a.11.11 0 0 0 .073.028c.029 0 .051-.01.073-.028a.106.106 0 0 0 .03-.073zm.83.726c0 .199-.148.298-.438.298-.296 0-.444-.1-.444-.298v-.503c-.02.005-.036.005-.051.005a.21.21 0 0 1-.164-.068.224.224 0 0 1-.067-.165.22.22 0 0 1 .067-.16.232.232 0 0 1 .164-.065.234.234 0 0 1 .239.247v.713c0 .04.028.072.083.097.052.022.11.037.173.037a.445.445 0 0 0 .168-.037c.053-.025.082-.057.082-.097V32.52h.188v1.419z" fill="#FFF"/>
            <path d="M24.929 32.794a.085.085 0 0 0-.023-.06.075.075 0 0 0-.058-.03c-.024 0-.041.01-.06.03-.016.015-.022.039-.022.06 0 .024.006.042.022.061.019.018.036.022.06.022.023 0 .042-.004.058-.022a.09.09 0 0 0 .023-.061m.114 0c0 .056-.02.098-.055.143a.183.183 0 0 1-.14.061c-.121 0-.263-.058-.422-.163a.284.284 0 0 0-.108.076.208.208 0 0 0-.063.107c-.135-.095-.202-.204-.202-.337 0-.099.04-.179.115-.236a.43.43 0 0 1 .265-.079h.254c.123 0 .186-.055.186-.17v-.094h.18v.089a.304.304 0 0 1-.1.245.382.382 0 0 1-.259.088h-.274a.183.183 0 0 0-.11.038.148.148 0 0 0-.05.109c0 .043.01.075.023.102a.21.21 0 0 1 .168-.1.781.781 0 0 0 .207.104c0-.053.023-.098.059-.133a.191.191 0 0 1 .27.005.22.22 0 0 1 .056.145M26.359 34.011a.097.097 0 0 0-.03-.072.097.097 0 0 0-.073-.031.09.09 0 0 0-.072.03.096.096 0 0 0-.03.073c0 .029.009.051.03.072.02.02.044.03.072.03a.11.11 0 0 0 .073-.03.097.097 0 0 0 .03-.072zm-.721-.798a.103.103 0 0 0-.031-.076.102.102 0 0 0-.073-.027.1.1 0 0 0-.072.027c-.02.02-.03.05-.03.076 0 .026.01.052.03.073a.109.109 0 0 0 .072.028.11.11 0 0 0 .073-.028.1.1 0 0 0 .03-.073zm.794.429c0 .08-.02.135-.062.168.076.043.115.11.115.201 0 .064-.02.116-.066.16a.216.216 0 0 1-.16.066.21.21 0 0 1-.152-.056.238.238 0 0 1-.074-.141c-.066.032-.11.055-.141.074a.383.383 0 0 0-.115.1h-.19v-.778a.251.251 0 0 1-.053.005.22.22 0 0 1-.163-.07.222.222 0 0 1-.065-.164c0-.061.02-.114.065-.16a.24.24 0 0 1 .163-.064c.07 0 .128.023.17.068a.231.231 0 0 1 .07.175v.77a.997.997 0 0 1 .218-.107.557.557 0 0 0 .21-.129.21.21 0 0 0 .044-.142v-.612h.186v.636zM27.06 33.213a.11.11 0 0 0-.032-.076.096.096 0 0 0-.072-.027.11.11 0 0 0-.076.027.12.12 0 0 0-.03.076c0 .026.012.052.03.073a.119.119 0 0 0 .076.028c.029 0 .054-.01.072-.028a.106.106 0 0 0 .032-.073zm.649 1.002h-.192l-.31-.486-.311.486h-.187v-.99c0-.067.025-.128.07-.174a.252.252 0 0 1 .177-.068c.064 0 .122.023.166.068a.221.221 0 0 1 0 .324.222.222 0 0 1-.166.066h-.058v.516l.245-.373h.124l.25.375v-.953h.192v1.209zM27.296 34.56a.104.104 0 0 0-.032-.076.123.123 0 0 0-.075-.03.114.114 0 0 0-.071.03.098.098 0 0 0-.038.075c0 .03.012.056.038.077a.092.092 0 0 0 .07.036c.032 0 .056-.013.076-.036a.105.105 0 0 0 .032-.077zm.611.332c0 .089-.038.151-.112.196a.455.455 0 0 1-.247.06.471.471 0 0 1-.23-.055c-.074-.04-.108-.097-.108-.17v-.121h-.027a.21.21 0 0 1-.163-.067.222.222 0 0 1-.072-.163c0-.066.024-.121.072-.17a.22.22 0 0 1 .167-.07c.064 0 .123.022.173.063.05.04.073.099.073.171v.357c0 .033.042.058.12.058.084 0 .124-.025.124-.058v-.555h.23v.524z" fill="#FFF"/>
            <path d="M27.428 32.468a.096.096 0 0 0-.031-.07c-.018-.023-.042-.03-.074-.03-.025 0-.049.007-.064.03-.022.018-.03.042-.03.07a.09.09 0 0 0 .03.072.07.07 0 0 0 .064.034c.032 0 .056-.009.074-.034a.105.105 0 0 0 .03-.072zm.65-.165c-.023.142-.06.258-.102.353a.664.664 0 0 1-.18.224.651.651 0 0 1-.25.12 1.293 1.293 0 0 1-.332.035h-.124v-.156a.18.18 0 0 0 .127-.055.298.298 0 0 0 .071-.104.218.218 0 0 1-.15-.088.25.25 0 0 1-.06-.17c0-.073.031-.13.077-.178a.258.258 0 0 1 .174-.067c.078 0 .136.025.184.07a.3.3 0 0 1 .06.192.479.479 0 0 1-.052.221.472.472 0 0 1-.112.158.474.474 0 0 0 .315-.187.621.621 0 0 0 .125-.368h.23zM28.368 34.011a.097.097 0 0 0-.034-.072.097.097 0 0 0-.076-.031.104.104 0 0 0-.08.03.099.099 0 0 0-.032.073c0 .029.012.051.033.072.022.02.047.03.079.03.03 0 .055-.01.076-.03a.096.096 0 0 0 .034-.072zm.564.204h-.198v-.806a.25.25 0 0 0-.08-.193.302.302 0 0 0-.218-.075.332.332 0 0 0-.292.154c.102.019.175.065.216.138-.108.062-.164.131-.164.217v.14a.165.165 0 0 1 .062-.009c.066 0 .122.022.17.066a.207.207 0 0 1 .068.16.22.22 0 0 1-.068.164.248.248 0 0 1-.176.066.244.244 0 0 1-.18-.07.236.236 0 0 1-.074-.177v-.353c0-.083.042-.15.133-.197a.28.28 0 0 0-.199-.037.395.395 0 0 1 .155-.309.531.531 0 0 1 .345-.111c.155 0 .279.037.368.114a.406.406 0 0 1 .132.318v.8z" fill="#FFF"/>
            <path d="M28.705 32.797a.357.357 0 0 0-.114-.184.3.3 0 0 0-.212-.085.334.334 0 0 0-.192.054.267.267 0 0 0-.105.154.617.617 0 0 1 .17-.017c.151 0 .3.023.453.078zm.196.232a1.856 1.856 0 0 0-.705-.159c-.097 0-.193.009-.295.026.026-.35.179-.53.454-.53.031 0 .06.004.088.01v-.126h.136v.166c.048.024.09.06.13.106v-.272h.186v.724l.006.055zM29.544 33.605a.097.097 0 0 0-.032-.072c-.02-.023-.044-.03-.076-.03a.096.096 0 0 0-.073.03.104.104 0 0 0-.03.072c0 .03.01.053.03.072.021.02.046.032.073.032a.1.1 0 0 0 .076-.032.09.09 0 0 0 .032-.072zm.55.334a.248.248 0 0 1-.147.236.648.648 0 0 1-.304.062.627.627 0 0 1-.302-.062.252.252 0 0 1-.142-.236v-.303c0-.074.02-.134.064-.182.04-.051.098-.074.175-.074.068 0 .126.02.17.061.047.046.069.1.069.164 0 .06-.022.115-.068.16a.228.228 0 0 1-.217.062v.093c0 .107.085.157.253.157.17 0 .256-.052.256-.16v-.582c0-.065-.031-.117-.098-.149a.378.378 0 0 0-.199-.045c-.198 0-.305.052-.32.147h-.19c.03-.202.19-.303.496-.305.137 0 .252.023.34.073a.32.32 0 0 1 .164.292v.59zM31.31 33.213a.115.115 0 0 0-.03-.076.098.098 0 0 0-.074-.027.098.098 0 0 0-.072.027.102.102 0 0 0-.03.076c0 .026.008.052.03.073a.106.106 0 0 0 .072.028c.03 0 .054-.01.073-.028a.11.11 0 0 0 .03-.073zm-.731 0a.109.109 0 0 0-.028-.076.102.102 0 0 0-.071-.027.104.104 0 0 0-.074.027.112.112 0 0 0 0 .149.113.113 0 0 0 .074.028.11.11 0 0 0 .071-.028.105.105 0 0 0 .028-.073zm.813 1.002h-.19v-.674c0-.054-.009-.081-.033-.081-.016 0-.04.027-.067.075l-.396.68h-.175v-.78c-.02.006-.039.006-.051.006a.21.21 0 0 1-.165-.068.228.228 0 0 1-.066-.166c0-.061.023-.114.066-.159a.232.232 0 0 1 .165-.065c.068 0 .122.023.17.068a.241.241 0 0 1 .07.175v.451c0 .052-.014.162-.038.322a.923.923 0 0 1 .092-.24l.166-.286c.036-.06.07-.093.095-.104a.26.26 0 0 1-.06-.156c0-.067.024-.12.066-.165a.235.235 0 0 1 .165-.065c.068 0 .117.023.164.065a.218.218 0 0 1 .065.165.232.232 0 0 1-.083.174c.026.05.04.105.04.163v.665zM31.365 34.56a.112.112 0 0 0-.03-.076c-.024-.016-.047-.03-.077-.03a.147.147 0 0 0-.076.03.096.096 0 0 0-.032.075c0 .03.008.056.032.077.023.023.051.036.076.036a.113.113 0 0 0 .108-.113h-.001zm.139.543h-.236v-.296h-.016a.227.227 0 0 1-.168-.072.221.221 0 0 1-.068-.163.236.236 0 0 1 .24-.24c.066 0 .122.022.17.063.053.04.078.099.078.175v.533z" fill="#FFF"/>
            <path d="M31.13 32.468a.097.097 0 0 0-.028-.07.085.085 0 0 0-.072-.03c-.028 0-.048.007-.067.03-.02.018-.027.042-.027.07 0 .028.007.053.027.072.019.025.04.034.067.034.03 0 .05-.009.072-.034a.106.106 0 0 0 .029-.072zm.657-.165c-.027.142-.06.258-.106.353a.636.636 0 0 1-.177.224.659.659 0 0 1-.253.12 1.291 1.291 0 0 1-.331.035h-.127v-.156a.191.191 0 0 0 .13-.055.3.3 0 0 0 .07-.104.222.222 0 0 1-.152-.088.258.258 0 0 1-.054-.17c0-.073.025-.13.073-.178a.255.255 0 0 1 .177-.067c.073 0 .136.025.178.07.045.052.07.115.07.192a.49.49 0 0 1-.058.221.52.52 0 0 1-.112.158.48.48 0 0 0 .316-.187.626.626 0 0 0 .126-.368h.23zM32.63 34.011a.113.113 0 0 0-.03-.072.095.095 0 0 0-.068-.031c-.032 0-.058.009-.077.03a.098.098 0 0 0-.03.073c0 .029.01.051.03.072.019.02.045.03.077.03a.109.109 0 0 0 .069-.03.113.113 0 0 0 .03-.072zm-.72-.798a.114.114 0 0 0-.03-.076.11.11 0 0 0-.074-.027.102.102 0 0 0-.074.027.12.12 0 0 0-.03.076c0 .026.013.052.03.073a.11.11 0 0 0 .074.028.12.12 0 0 0 .074-.028.11.11 0 0 0 .03-.073zm.796.429c0 .08-.025.135-.066.168.077.043.118.11.118.201a.22.22 0 0 1-.067.16.213.213 0 0 1-.159.066.212.212 0 0 1-.154-.056.224.224 0 0 1-.074-.141c-.064.032-.11.055-.14.074a.375.375 0 0 0-.115.1h-.192v-.778a.252.252 0 0 1-.05.005.21.21 0 0 1-.164-.07.226.226 0 0 1 .163-.388c.07 0 .125.023.172.068a.238.238 0 0 1 .067.175v.77a.957.957 0 0 1 .219-.107.56.56 0 0 0 .21-.129c.028-.031.043-.077.043-.142v-.612h.189v.636zM33.613 34.011a.095.095 0 0 0-.033-.078.113.113 0 0 0-.08-.027.116.116 0 0 0-.08.027.1.1 0 0 0-.032.078c0 .024.01.049.032.07a.123.123 0 0 0 .16 0 .091.091 0 0 0 .033-.07m-.536-1.444a.086.086 0 0 0-.028-.063.12.12 0 0 0-.076-.031.105.105 0 0 0-.072.031c-.025.016-.03.038-.03.063 0 .03.005.053.03.069a.1.1 0 0 0 .072.026.113.113 0 0 0 .076-.026.091.091 0 0 0 .028-.069m.675 1.44c0 .065-.023.12-.072.164a.264.264 0 0 1-.183.066.277.277 0 0 1-.19-.07.24.24 0 0 1-.076-.177V32.85a.42.42 0 0 1 .061-.183.459.459 0 0 0 .058-.17.121.121 0 0 0-.05-.105.223.223 0 0 0-.13-.044c-.075 0-.13.013-.166.04.056 0 .102.018.14.054a.182.182 0 0 1 .046.124c0 .056-.02.101-.064.14a.213.213 0 0 1-.153.06.214.214 0 0 1-.16-.062.22.22 0 0 1-.06-.15c0-.112.042-.195.123-.254a.465.465 0 0 1 .29-.082c.1 0 .184.024.256.069.083.052.124.123.124.205a.55.55 0 0 1-.054.194.495.495 0 0 0-.055.186v.91c.012-.006.033-.006.06-.006.07 0 .132.022.183.066.049.045.072.098.072.164M34.763 33.213a.1.1 0 0 0-.033-.076.09.09 0 0 0-.07-.027.095.095 0 0 0-.072.027.108.108 0 0 0-.03.076c0 .026.01.052.03.073a.102.102 0 0 0 .072.028c.029 0 .052-.01.07-.028a.096.096 0 0 0 .033-.073zm-.726 0a.107.107 0 0 0-.031-.076.096.096 0 0 0-.071-.027c-.031 0-.055.008-.074.027a.106.106 0 0 0 0 .149.102.102 0 0 0 .074.028c.026 0 .053-.01.07-.028a.103.103 0 0 0 .032-.073zm.807 1.002h-.188v-.674c0-.054-.01-.081-.033-.081-.016 0-.038.027-.068.075l-.394.68h-.177v-.78c-.02.006-.036.006-.05.006a.216.216 0 0 1-.164-.068.218.218 0 0 1-.068-.166c0-.061.021-.114.068-.159a.238.238 0 0 1 .165-.065c.067 0 .124.023.168.068a.24.24 0 0 1 .07.175v.451c0 .052-.012.162-.037.322.023-.088.051-.165.09-.24l.168-.286c.038-.06.066-.093.096-.104a.254.254 0 0 1-.058-.156.221.221 0 0 1 .228-.23.23.23 0 0 1 .163.065.227.227 0 0 1-.018.339c.025.05.04.105.04.163v.665zM36.065 34.53a.09.09 0 0 0-.026-.065.105.105 0 0 0-.07-.027c-.03 0-.05.01-.069.027a.097.097 0 0 0-.023.065.12.12 0 0 0 .023.071c.019.018.04.027.07.027a.1.1 0 0 0 .069-.027.11.11 0 0 0 .026-.071zm.508-.193a.582.582 0 0 1-.1.356c-.075.097-.187.148-.342.148a.428.428 0 0 1-.254-.077.27.27 0 0 1-.12-.23c0-.062.021-.11.062-.153a.201.201 0 0 1 .152-.06c.059 0 .105.018.147.062.04.042.058.095.058.155 0 .08-.032.129-.094.15.03.006.05.006.06.006.168 0 .258-.12.268-.357h.163zm-1.075-.326a.091.091 0 0 0-.03-.072c-.016-.023-.043-.031-.072-.031a.09.09 0 0 0-.071.03.098.098 0 0 0 0 .145c.02.02.044.03.071.03a.099.099 0 0 0 .073-.03.09.09 0 0 0 .029-.072zm1.057-.081c0 .1-.038.179-.118.232a.399.399 0 0 1-.256.075.39.39 0 0 1-.256-.075.27.27 0 0 1-.111-.232v-.518c0-.08-.023-.146-.074-.192a.242.242 0 0 0-.183-.074c-.125 0-.211.05-.264.15a.289.289 0 0 1 .2.137c-.102.057-.152.13-.152.218v.143c.011-.011.03-.013.055-.013a.218.218 0 0 1 .223.226.226.226 0 0 1-.228.23.229.229 0 0 1-.171-.07.232.232 0 0 1-.068-.173v-.352c0-.088.04-.155.126-.202a.262.262 0 0 0-.188-.037.42.42 0 0 1 .14-.309.462.462 0 0 1 .317-.111c.137 0 .244.037.33.114a.412.412 0 0 1 .128.318v.543c0 .041.015.072.05.091a.31.31 0 0 0 .256 0 .096.096 0 0 0 .057-.091v-.952h.187v.924z" fill="#FFF"/>
            <mask id="1ler53815f" fill="#fff">
                <use xlink:href="#xzwhnd8m3e"/>
            </mask>
            <path fill="#FFF" mask="url(#1ler53815f)" d="M36.368 32.809h.188v-.43h-.188z"/>
            <path fill="#E72429" mask="url(#1ler53815f)" d="M.025 30.982H38.27V27.39H.025z"/>
            <path d="M2.065 29.731h.116c.115 0 .212-.01.288-.032a.654.654 0 0 0 .214-.11.492.492 0 0 0 .191-.401.496.496 0 0 0-.19-.407c-.111-.095-.283-.14-.503-.14h-.116v1.09zm-.263.214v-1.52h.364c.173 0 .311.016.412.047.106.029.205.08.296.151a.69.69 0 0 1 .265.565c0 .231-.094.42-.281.564a.811.811 0 0 1-.29.148c-.099.032-.233.045-.407.045h-.359zM4.482 29.019h.744v-.593h.26v1.519h-.26v-.71h-.744v.71h-.26v-1.52h.26zM6.7 29.945h.26v-1.52H6.7zM8.399 29.115h.103c.25 0 .372-.082.372-.242 0-.158-.127-.237-.385-.237h-.09v.479zm0 .213v.617h-.265v-1.52h.302c.15 0 .264.007.34.027.08.02.145.051.203.1a.403.403 0 0 1 .155.326.387.387 0 0 1-.164.328.727.727 0 0 1-.443.122h-.128zM10.836 29.361l-.258-.519-.266.52h.524zm.109.216h-.74l-.195.368h-.28l.854-1.614.823 1.614h-.283l-.18-.368zM12.51 29.29l-.565-.864h.3l.396.607.395-.607h.298l-.563.865v.654h-.26zM14.97 29.361l-.255-.519-.268.52h.523zm.107.216h-.738l-.193.368h-.28l.854-1.614.823 1.614h-.284l-.182-.368zM17.84 29.945h.26v-1.52h-.26zM19.203 29.945v-1.621l1.256 1.158v-1.056h.263v1.611l-1.261-1.158v1.066zM22.797 28.653l-.209.11a.352.352 0 0 0-.115-.12.305.305 0 0 0-.142-.032.285.285 0 0 0-.182.057.16.16 0 0 0-.072.133c0 .072.065.132.187.178l.173.06c.14.05.244.112.307.185a.38.38 0 0 1 .1.264.44.44 0 0 1-.161.346.58.58 0 0 1-.397.138.58.58 0 0 1-.371-.118.505.505 0 0 1-.178-.331l.262-.051c.014.093.032.152.062.188.055.065.13.099.236.099a.281.281 0 0 0 .2-.075.227.227 0 0 0 .083-.181.206.206 0 0 0-.016-.083.138.138 0 0 0-.042-.065.396.396 0 0 0-.079-.059.686.686 0 0 0-.11-.052l-.168-.062c-.235-.086-.353-.216-.353-.383 0-.114.05-.212.148-.285a.588.588 0 0 1 .372-.12c.2 0 .356.087.465.259M24.104 28.426v.915c0 .128.025.225.07.285a.37.37 0 0 0 .307.133.371.371 0 0 0 .31-.133c.044-.057.07-.154.07-.285v-.915h.26v.977a.514.514 0 0 1-.172.397.669.669 0 0 1-.468.172.678.678 0 0 1-.469-.172.527.527 0 0 1-.17-.397v-.977h.262zM26.482 29.124h.083c.245 0 .368-.085.368-.25 0-.156-.12-.234-.36-.234h-.09v.484zm.322.174.536.647h-.319l-.491-.622h-.048v.622h-.26v-1.52h.303c.228 0 .396.038.496.115a.395.395 0 0 1 .167.333.407.407 0 0 1-.102.277.509.509 0 0 1-.282.148zM29.129 29.361l-.259-.519-.268.52h.527zm.105.216h-.741l-.193.368h-.279l.852-1.614.825 1.614h-.285l-.18-.368zM30.6 29.945v-1.621l1.26 1.158v-1.056h.26v1.611L30.86 28.88v1.066zM34.511 28.508v.27a.774.774 0 0 0-.466-.167.625.625 0 0 0-.447.17.518.518 0 0 0-.186.407c0 .16.06.294.186.405a.64.64 0 0 0 .447.166c.091 0 .17-.014.234-.039l.11-.055c.04-.023.078-.048.122-.082v.279c-.148.072-.306.11-.469.11a.915.915 0 0 1-.63-.227.699.699 0 0 1-.263-.553c0-.195.075-.367.217-.517a.933.933 0 0 1 .696-.28c.154 0 .306.037.45.113M36.48 28.64h-.69v.364h.67v.217h-.67v.51h.69v.214h-.954v-1.52h.955zM4.251 22.916c-.179-.154-.428-.215-.743-.18a.747.747 0 0 0-.218.065.803.803 0 0 0-.222.164.83.83 0 0 0-.178.305l-.602 1.591v-1.58a.49.49 0 0 0-.203-.427.784.784 0 0 0-.44-.128c-.213 0-.373.06-.485.175a.56.56 0 0 0-.162.385c0 .08.024.155.037.193a.457.457 0 0 0 .408.286l.028-.001a.306.306 0 0 0 .153-.047c.053-.037.105-.082.097-.144-.011-.038-.044-.085-.106-.085a.118.118 0 0 0-.037.006h-.023c-.026 0-.047-.006-.068-.01a.144.144 0 0 1-.09-.1c-.018-.047-.005-.106.032-.158a.222.222 0 0 1 .173-.088c.07 0 .117.014.143.045.031.032.044.063.044.103l.004 2.76v.075l.077.007s.022.002.056.002c.226 0 .389-.078.444-.223l1-2.562a.242.242 0 0 1 .129-.142.505.505 0 0 1 .173-.038c.106 0 .181.025.234.075a.247.247 0 0 1 .076.185v2.45c0 .015.003.081.067.147.07.07.183.108.343.108h.085v-2.705a.641.641 0 0 0-.226-.51M1.876 21.444c.09-.092.285-.238.436-.288.157-.054.33-.08.51-.08.515 0 1.156.381 1.186.741-.963-.494-2.057-.364-2.132-.373m2.575.724c0-.22-.192-1.444-1.677-1.444a1.65 1.65 0 0 0-.403.048c-.431.108-.807.384-1.006.737-.01.019-.055.104-.012.179.018.03.054.069.131.069.082.005.167.005.247.005a9.5 9.5 0 0 1 .414.012c.751.031 1.4.157 1.983.386 0 0 .323.15.323.008M8.9 22.721h-.082c-.41 0-.415.244-.415.256v1.884l-.706-1.877c-.027-.066-.112-.259-.258-.259-.155 0-.232.208-.244.243l-.741 1.9V23.28a.485.485 0 0 0-.207-.426.784.784 0 0 0-.436-.128c-.213 0-.376.06-.486.176a.55.55 0 0 0-.164.384c0 .074.023.146.039.193a.454.454 0 0 0 .407.286l.028-.001a.336.336 0 0 0 .149-.045c.039-.023.107-.074.1-.14a.104.104 0 0 0-.105-.09.134.134 0 0 0-.037.005H5.72a.239.239 0 0 1-.067-.01.155.155 0 0 1-.093-.099.202.202 0 0 1 .034-.16.227.227 0 0 1 .177-.087c.063 0 .11.014.14.045a.136.136 0 0 1 .045.103l.004 2.76.003.075.074.007s.02.002.055.002c.224 0 .386-.078.447-.223l.9-2.395.888 2.403c.011.025.121.215.492.215H8.9v-2.705h-.001l.001-.704zM16.608 21.055h-.082c-.158 0-.274.035-.343.108a.2.2 0 0 0-.068.144v4.383h-1.51v-2.415a.495.495 0 0 0-.207-.428.757.757 0 0 0-.44-.131c-.21 0-.374.061-.482.177a.549.549 0 0 0-.162.385c0 .082.024.155.037.195.06.15.23.3.437.282a.31.31 0 0 0 .15-.047c.051-.034.1-.078.096-.14 0-.015-.023-.102-.145-.084a.209.209 0 0 1-.088-.01.144.144 0 0 1-.09-.097c-.016-.049-.002-.107.032-.158a.226.226 0 0 1 .176-.093c.068 0 .113.017.142.048a.14.14 0 0 1 .044.104l.006 2.644c0 .035-.014.05-.018.05l-.207.152h2.718l.004-5.07zM21.353 23.055c-.021 0-.079 0-.159.142a.602.602 0 0 1-.129.152c-.19.17-.545.217-.737.084-.05-.036-.081-.096-.044-.155.023-.034.104-.075.183-.075.016 0 .03 0 .045.007.044.011.08.03.091.057.005.011.006.023.005.043-.004.015-.012.056.014.092l.04.039h.042c.065 0 .124-.075.124-.075a.222.222 0 0 0 .05-.126c.016-.163-.138-.298-.287-.338a.735.735 0 0 0-.182-.029.64.64 0 0 0-.366.119.438.438 0 0 0-.18.357c-.021.303.268.48.565.515.031.004.069.005.104.008h.035c.145 0 .294-.024.436-.077.284-.106.463-.338.459-.593-.001-.136-.086-.147-.11-.147M24.835 21.24c-.02 0-.08 0-.165.135a.62.62 0 0 1-.126.153c-.274.24-.793.277-1.007.285h-.11c-.287 0-.482-.039-.603-.125-.048-.034-.082-.092-.044-.148.025-.038.102-.078.185-.078.015 0 .03.002.041.005.044.011.079.033.092.061.004.009.007.02.005.04-.002.016-.01.055.015.091 0 0 .03.04.08.04.064 0 .12-.067.125-.075a.23.23 0 0 0 .05-.124c.016-.165-.138-.3-.288-.337a.62.62 0 0 0-.18-.028c-.217 0-.4.099-.493.266a.457.457 0 0 0 .02.463c.128.199.385.28.618.336.144.032.292.039.42.04h.036c.577 0 1.431-.273 1.431-.86 0-.134-.087-.14-.102-.14M32.91 21.24c-.021 0-.08 0-.163.135a.643.643 0 0 1-.129.153c-.272.24-.793.277-1.004.285h-.11c-.29 0-.486-.039-.603-.125-.048-.034-.083-.092-.047-.148.026-.038.105-.078.187-.078.016 0 .03.002.043.005.042.011.078.033.091.061.004.009.009.02.004.04 0 .016-.01.055.018.091 0 0 .026.04.08.04.061 0 .117-.067.122-.075a.26.26 0 0 0 .049-.124c.016-.165-.133-.3-.286-.337a.612.612 0 0 0-.178-.028c-.221 0-.405.099-.495.266a.442.442 0 0 0 .022.463c.125.199.382.28.615.336.143.032.294.039.42.04h.035c.58 0 1.434-.273 1.434-.86 0-.134-.088-.14-.105-.14M21.353 25.084c-.021 0-.079 0-.159.144a.566.566 0 0 1-.129.15c-.191.169-.545.217-.737.081-.05-.034-.081-.094-.044-.15.023-.035.1-.075.183-.075.016 0 .03.003.045.006.023.006.072.022.091.056.005.01.006.025.005.04-.004.017-.012.061.014.097l.037.038h.045c.055 0 .109-.058.124-.074a.231.231 0 0 0 .05-.126c.016-.164-.138-.298-.287-.34-.049-.01-.114-.026-.182-.026a.63.63 0 0 0-.366.116.432.432 0 0 0-.18.357c-.021.305.268.48.56.515a.756.756 0 0 0 .108.008h.001a1.21 1.21 0 0 0 .47-.08c.285-.102.464-.336.46-.59-.001-.136-.086-.147-.11-.147M19.33 22.89h-.075l-.01.078c-.005.075-.092.122-.164.122a.162.162 0 0 1-.113-.044c-.195-.182-.39-.33-.728-.33-.945 0-1.143.874-1.143.883l-.015.075 1.451.447v1.024l-.006.44a.14.14 0 0 1-.047.105c-.026.029-.073.045-.137.045a.215.215 0 0 1-.177-.09.192.192 0 0 1-.033-.16.152.152 0 0 1 .09-.097.25.25 0 0 1 .069-.01l.026.002.031.003c.067 0 .103-.048.105-.087.012-.07-.065-.124-.1-.146a.361.361 0 0 0-.145-.043c-.21-.017-.381.137-.438.286a.734.734 0 0 0-.034.192c0 .14.053.27.16.387.11.113.273.172.486.172a.779.779 0 0 0 .439-.127c.135-.095.203-.239.203-.429v-1.495c0-.257-.231-.343-.246-.35l-1.074-.31a.672.672 0 0 1 .544-.27c.18 0 .274.065.395.147.065.047.13.091.215.13a.638.638 0 0 0 .253.054c.117 0 .22-.037.292-.102a.398.398 0 0 0 .114-.264c0-.069-.053-.239-.188-.239M12.358 22.84a.23.23 0 0 0-.066.15v2.712h-1.703v-.967c0-.11.039-.226.487-.226.185 0 .315-.046.387-.13a.222.222 0 0 0 .05-.18l-.01-.07h-.454c-.47 0-.491-.352-.494-.39l.009-.44c0-.039.013-.075.043-.108.025-.028.072-.045.14-.045.069 0 .133.037.176.091a.193.193 0 0 1 .034.16.158.158 0 0 1-.095.098.26.26 0 0 1-.066.008h-.028c-.01 0-.017-.003-.03-.003-.067 0-.102.046-.106.09-.007.061.05.111.099.141a.37.37 0 0 0 .149.046.447.447 0 0 0 .433-.287.545.545 0 0 0 .04-.19.544.544 0 0 0-.162-.384c-.11-.119-.273-.177-.483-.177a.79.79 0 0 0-.443.128c-.133.094-.2.238-.2.427v.604c.007.113.057.296.188.4a.411.411 0 0 0-.189.36v1.273c-.003.04-.016.05-.018.054l-.203.15h.384l2.556-.001.003-3.4h-.084c-.156 0-.273.037-.344.106M36.444 22.734c-.157 0-.273.037-.344.106a.236.236 0 0 0-.065.15v2.712h-1.702v-.967c0-.11.038-.226.486-.226.186 0 .312-.046.382-.13.072-.081.06-.17.056-.18l-.012-.07h-.455c-.468 0-.49-.352-.49-.39l.005-.44c0-.039.015-.075.044-.105.028-.03.075-.048.14-.048.071 0 .134.037.174.091.037.053.05.112.037.158-.019.05-.048.084-.093.1a.255.255 0 0 1-.069.008h-.027c-.01 0-.018-.003-.03-.003a.104.104 0 0 0-.108.09c0 .016-.005.07.104.141a.31.31 0 0 0 .146.046.451.451 0 0 0 .434-.283.574.574 0 0 0 .04-.195.555.555 0 0 0-.163-.383c-.111-.119-.272-.177-.483-.177a.785.785 0 0 0-.442.128c-.138.094-.203.238-.203.427v.604a.574.574 0 0 0 .187.4.413.413 0 0 0-.19.36v1.278c0 .019-.005.04-.013.049l-.21.15h.389l2.557-.001v-3.4h-.082zM28.393 25.774a.147.147 0 0 1-.06-.01c-.037-.005-.098-.029-.124-.075a.239.239 0 0 1-.008-.058.113.113 0 0 0-.013-.101c-.012-.009-.018-.02-.034-.028.08-.01.152-.019.214-.02l.023.001c.126.002.196.02.21.031.035.023.046.038.046.088 0 .088-.124.172-.254.172m.499-.601a.714.714 0 0 0-.26-.092v-2.365h-.086c-.403 0-.408.241-.408.252v2.14c-.52.088-1.217.359-1.45.448 0 0-.105.039-.12.039V23.24c0-.19-.07-.333-.204-.424a.749.749 0 0 0-.439-.13c-.213 0-.375.058-.483.174a.552.552 0 0 0-.163.385c0 .08.023.156.04.19a.445.445 0 0 0 .406.287h.03a.374.374 0 0 0 .145-.042c.05-.032.104-.08.098-.145-.007-.052-.054-.1-.138-.083h-.025a.14.14 0 0 1-.066-.011.144.144 0 0 1-.094-.096.191.191 0 0 1 .035-.16.21.21 0 0 1 .176-.09c.065 0 .11.014.14.046a.135.135 0 0 1 .044.105l.003 2.444v.24c-.003.014-.006.026-.015.032l-.208.154h.393a.875.875 0 0 0 .278-.049c.013-.004.871-.395 1.49-.534-.02.02-.036.038-.042.04a.271.271 0 0 0-.055.139c-.017.19.154.345.329.39.076.02.15.032.212.032.158 0 .3-.043.43-.134a.5.5 0 0 0 .213-.429.442.442 0 0 0-.206-.398M24.229 22.916a1.602 1.602 0 0 0-.87-.217c-.834.031-1.196.49-1.329.784a1.04 1.04 0 0 0-.073.281c0 .026-.005.041.003.072.003.016.034.036.063.036.32-.024.499.112.499.112-.291.116-.357.307-.357.565v1.579h.084c.407 0 .412-.247.412-.26v-1.313c0-.306.534-.596.534-.596s-.147-.298-.623-.37c0 0-.008 0-.01-.009l.01-.014c.076-.108.295-.381.786-.406.82-.045 1.004.603 1.004.722v1.986c0 .013.002.26.408.26h.083l.004-.717V24.11c.057-.798-.597-1.173-.628-1.194M32.304 22.918a1.579 1.579 0 0 0-.872-.215c-.826.027-1.189.48-1.324.775v.001c0 .004-.002.005-.002.005-.01.028-.02.06-.033.094-.023.07-.038.148-.043.187-.003.012-.003.018-.003.03a.19.19 0 0 0 .007.041c.004.019.032.041.064.037.04 0 .076-.004.113 0h.016c.026.004.055.004.081.01h.007c.033.003.058.01.082.017a.55.55 0 0 1 .198.086l-.003-.004a.03.03 0 0 1 .006.004c-.29.117-.36.308-.36.57v1.027c0 .041-.012.07-.045.106-.026.03-.072.046-.14.046a.22.22 0 0 1-.176-.093.177.177 0 0 1-.03-.159.155.155 0 0 1 .094-.103.217.217 0 0 1 .065-.01l.024.001c.01 0 .02.007.033.007.069 0 .104-.05.104-.093.007-.048-.024-.095-.098-.145a.372.372 0 0 0-.148-.045.447.447 0 0 0-.432.288.518.518 0 0 0-.04.2c0 .14.056.272.163.39.109.118.271.179.482.179.059 0 .117-.008.172-.022a.75.75 0 0 0 .274-.106c.205-.134.196-.307.196-.307V24.56c0-.307.534-.597.534-.597s-.146-.3-.62-.374c0 0-.006.004-.014-.01 0 0 .004 0 .015-.014.07-.105.295-.377.781-.404.822-.046 1.005.602 1.005.722v1.989c0 .01.003.257.411.257h.084v-2.019c.057-.799-.596-1.174-.628-1.193" fill="#FFF" mask="url(#1ler53815f)"/>
        </g>
    </g>
</svg>
