<svg width="71" height="71" viewBox="0 0 71 71" xmlns="http://www.w3.org/2000/svg" xmlns:xlink="http://www.w3.org/1999/xlink">
    <defs>
        <path id="cys8bt25oa" d="M0 0h5.936v6.081H0z"/>
        <path id="w8fn37czuc" d="M0 0h8.892v9.374H0z"/>
        <path id="63goemu0qe" d="M0 52.692h44.232V0H0z"/>
    </defs>
    <g transform="translate(13.33 9.18)" fill="none" fill-rule="evenodd">
        <path d="M11.322 5.982C13.305.98 19.357 0 23.036 0h16.399c-1.792 4.518-6.902 5.764-10.586 5.964-.286.02-1.128.03-1.128.03l-16.4-.012z" fill="#EF5323"/>
        <path d="M9.387 16.933c-.919-3.11 3.68-7.118 10.273-8.953a25.304 25.304 0 0 1 3.941-.773c-1.615.47-3.211 1.443-4.206 3.343-.329.623-1.846 3.607-2.744 4.854-1.29 1.793-2.26 1.756-2.26 1.756 5.95.567 9.243-1.834 10.446-4.115.571-1.215 1.596-3.152 2.064-3.929.552-1.08 1.185-1.598 1.635-1.846 2.488.412 4.26 1.451 4.723 3.017.92 3.11-3.68 7.118-10.272 8.953-6.592 1.835-12.68.802-13.6-2.307M.142 37.191v3.898c0 1.575 1.379 2.309 2.977 2.309 1.731 0 3.06-.673 3.06-2.37v-5.993H4.615v6.176c0 .81-.622 1.07-1.446 1.07-.891 0-1.463-.382-1.463-1.207V37.19H.142zM10.714 38.98h1.513v-.168c0-1.284-1.598-1.789-2.758-1.789-1.127 0-2.758.505-2.758 1.743 0 2.385 4.255 1.559 4.255 2.782 0 .642-.841.795-1.396.795-.824 0-1.514-.275-1.547-1.116l-1.53-.016c-.067 1.59 1.597 2.156 3.077 2.156 1.379 0 2.892-.49 2.892-1.942 0-2.277-4.22-1.589-4.22-2.644 0-.535.639-.719 1.126-.719.656 0 1.329.23 1.346.918M13.05 37.726v1.009c0 .474.27.734.791.734h2.405v-.78c-1.833 0-1.816.321-1.816-.963h-1.38zm0 3.18v1.009c0 .474.27.733.791.733h2.405v-.78c-1.833 0-1.816.322-1.816-.962h-1.38zM23.288 43.272v-3.88c0-1.559-1.396-2.293-2.976-2.293-1.732 0-3.06.658-3.06 2.355v3.818h1.563v-3.956c0-.81.622-1.1 1.446-1.1.892 0 1.463.366 1.463 1.192v3.864h1.564zM19.424 34.424v1.01c0 .473.269.733.79.733h4.204v-.78h-3.195c-.605 0-.42-.58-.42-.963h-1.38zM28.47 42.343c-.303.642-1.429 1.009-2.135 1.009-1.699 0-2.371-1.07-2.371-2.477v-3.684h1.597v3.714c0 .78.27 1.285 1.228 1.285 1.042 0 1.681-.673 1.681-1.605V37.19h1.547v6.081H28.47v-.93zM37.452 43.272v-3.88c0-1.559-1.378-2.293-2.976-2.293-2.337 0-3.06.963-3.044 2.34v2.75h-.907v1.083h2.454v-3.956c0-.81.623-1.1 1.446-1.1.892 0 1.48.366 1.48 1.192v3.864h1.547zM33.924 34.424v1.01c0 .473.269.733.79.733h4.204v-.78h-3.195c-.605 0-.42-.58-.42-.963h-1.38z" fill="#000"/>
        <g transform="translate(38.296 37.191)">
            <mask id="j36fbcdfrb" fill="#fff">
                <use xlink:href="#cys8bt25oa"/>
            </mask>
            <path d="M5.936 6.081V0H4.372v5.045H2.506c-.522 0-.942-.306-.942-.795 0-.55.504-.734 1.026-.734H3.8v-.887c-.722 0-2.085.168-2.085-.825 0-1.055 1.329-.795 2.102-.795V0H2.253C1.11 0 .32.642.32 1.712c0 .596.37 1.116 1.008 1.3C.588 3.117 0 3.622 0 4.325c0 1.13 1.08 1.723 2.192 1.755h3.744z" fill="#000" mask="url(#j36fbcdfrb)"/>
        </g>
        <g transform="translate(0 23.717)">
            <mask id="rirncy5f3d" fill="#fff">
                <use xlink:href="#w8fn37czuc"/>
            </mask>
            <path d="M6.517 6.558c0 .867-.836 1.124-1.848 1.124H2.525l.002-2.456H.147L.142 9.374H5.75c1.594 0 3.141-.931 3.141-2.536 0-1.903-.657-2.539-2.48-3.077-1.366-.403-4.02-.583-3.867-1.321.094-.456-.008-.53 1.485-.727 1.128-.147 4.252.173 4.556.173V.246C7.898.246 6.883 0 4.433 0 1.473 0 .08.63 0 2.401-.026 3.576 1.136 4.203 2.18 4.53c1.7.533 4.337.615 4.337 2.029" fill="#000" mask="url(#rirncy5f3d)"/>
        </g>
        <path d="M16.201 31.696c-.454.964-2.146 1.515-3.206 1.515-2.55 0-3.56-1.607-3.56-3.719v-5.531h2.398v5.577c0 1.17.404 1.928 1.843 1.928 1.566 0 2.525-1.01 2.525-2.41v-5.095h2.323v9.13H16.2v-1.395zM28.426 23.96c-.101 1.149-.833 2.456-2.146 2.732 1.514.345 2.146 1.653 2.146 2.984 0 2.433-1.667 3.535-4.318 3.535-2.676 0-4.318-.964-4.318-3.512V23.96h2.349v5.967c0 1.171.58 1.676 1.893 1.676 1.54 0 1.995-.964 1.995-2.135 0-1.423-.858-2.432-2.424-2.731 1.161-.436 2.348-1.377 2.348-2.617v-.16h2.475zM31.862 26.784c0-1.56-1.692-1.148-2.93-1.148V23.96h2.02c1.768 0 3.258.505 3.258 2.317v6.814h-2.348v-6.308zM41.909 33.092h2.323V23.96h-2.677c-.278.367-.682.826-1.237.826-.53 0-.96-.46-1.237-.826-3.207 0-4.242 2.134-4.242 4.774 0 3.214 2.273 4.315 5.378 4.361v-1.63c-1.995 0-3.055-1.033-3.055-2.869 0-.62.1-2.961 1.237-2.961.379.506 1.06.918 1.742.918.707 0 1.339-.459 1.768-.94v7.478z" fill="#000"/>
        <mask id="508r84dnff" fill="#fff">
            <use xlink:href="#63goemu0qe"/>
        </mask>
        <path fill="#EF5323" mask="url(#508r84dnff)" d="M.142 47.085h44.09v-1.27H.141z"/>
        <path fill="#000" mask="url(#508r84dnff)" d="M.142 49.627v.485l.95-.004v2.542h.693v-2.542l.95.004v-.485zM3.578 52.65v-1.57c.105-.1.311-.23.583-.23.21 0 .321.091.321.385v1.415h.623v-1.491c0-.444-.25-.728-.774-.728-.306 0-.562.142-.753.276v-1.08h-.623v3.023h.623zM7.581 52.65a.82.82 0 0 1-.05-.314V51.31c0-.653-.302-.867-1.005-.88-.382-.008-.814.168-.975.398l.402.256a.704.704 0 0 1 .573-.268c.221 0 .382.092.382.26v.183c-1.015.101-1.498.36-1.498.855 0 .297.237.578.709.578.327 0 .563-.088.814-.23l.04.188h.608zm-.673-.574c-.13.092-.377.23-.573.23-.176 0-.301-.092-.301-.255 0-.306.457-.377.874-.444v.469zM8.528 52.65v-1.57c.105-.1.311-.23.582-.23.211 0 .322.091.322.385v1.415h.623v-1.491c0-.444-.251-.728-.774-.728-.306 0-.573.142-.804.276v-.236h-.573v2.179h.624zM12.53 52.65a.82.82 0 0 1-.05-.314V51.31c0-.653-.3-.867-1.004-.88-.382-.008-.814.168-.975.398l.402.256a.703.703 0 0 1 .573-.268c.221 0 .382.092.382.26v.183c-1.015.101-1.498.36-1.498.855 0 .297.237.578.709.578.326 0 .563-.088.814-.23l.04.188h.608zm-.672-.574c-.13.092-.377.23-.573.23-.176 0-.301-.092-.301-.255 0-.306.457-.377.874-.444v.469zM14.915 51.013c-.146-.365-.538-.582-1.03-.582-.709 0-1.136.44-1.136 1.13 0 .691.427 1.13 1.135 1.13.478.005.794-.154 1.045-.544l-.472-.222c-.125.193-.281.348-.552.348-.367 0-.533-.226-.533-.712 0-.485.166-.712.512-.712.302 0 .412.147.513.33l.518-.166zM15.788 52.65v-1.57c.105-.1.311-.23.583-.23.21 0 .321.091.321.385v1.415h.623v-1.491c0-.444-.25-.728-.773-.728-.307 0-.563.142-.754.276v-1.08h-.623v3.023h.623zM19.791 52.65a.82.82 0 0 1-.05-.314V51.31c0-.653-.301-.867-1.005-.88-.382-.008-.814.168-.975.398l.403.256a.703.703 0 0 1 .572-.268c.221 0 .382.092.382.26v.183c-1.015.101-1.497.36-1.497.855 0 .297.236.578.708.578.327 0 .563-.088.814-.23l.04.188h.608zm-.673-.574c-.13.092-.377.23-.573.23-.175 0-.301-.092-.301-.255 0-.306.457-.377.874-.444v.469zM20.745 52.65v-1.323c0-.055.272-.352.583-.352.045 0 .08 0 .11.004v-.548c-.371.008-.582.155-.733.414h-.01v-.374h-.573v2.179h.623zM21.665 50.471v.419h.362v1.3c0 .309.181.502.643.502.172 0 .322-.017.493-.034v-.427c-.09.017-.191.042-.287.042-.155 0-.225-.033-.225-.15V50.89h.512v-.419h-.512v-.719h-.624v.72h-.362zM25.143 52.65h.694v-3.023h-.694zM26.912 52.65v-1.57c.105-.1.311-.23.583-.23.21 0 .321.091.321.385v1.415h.623v-1.491c0-.444-.25-.728-.773-.728-.307 0-.573.142-.805.276v-.236h-.572v2.179h.623zM30.55 50.761c-.225-.222-.572-.33-.919-.33-.452 0-.864.225-.864.631 0 .758 1.307.625 1.307.997 0 .147-.151.248-.372.248-.267 0-.463-.147-.608-.315l-.417.26c.23.285.572.44.99.44.547 0 .96-.201.96-.653 0-.796-1.307-.637-1.307-1.01 0-.13.11-.213.351-.213.197 0 .362.117.488.23l.392-.285zM32.45 50.471v1.571a.86.86 0 0 1-.582.231c-.212 0-.322-.092-.322-.385V50.47h-.623v1.492c0 .444.25.729.774.729.306 0 .572-.143.803-.277v.235h.574V50.47h-.624zM34.104 52.65v-1.323c0-.055.272-.352.583-.352.046 0 .08 0 .11.004v-.548c-.37.008-.582.155-.733.414h-.01v-.374h-.573v2.179h.623zM36.936 52.65a.817.817 0 0 1-.05-.314V51.31c0-.653-.301-.867-1.005-.88-.382-.008-.814.168-.975.398l.403.256a.703.703 0 0 1 .572-.268c.221 0 .382.092.382.26v.183c-1.015.101-1.498.36-1.498.855 0 .297.237.578.71.578.326 0 .562-.088.813-.23l.04.188h.608zm-.673-.574c-.13.092-.377.23-.573.23-.176 0-.301-.092-.301-.255 0-.306.457-.377.874-.444v.469zM37.938 52.65v-1.57c.105-.1.312-.23.583-.23.21 0 .321.091.321.385v1.415h.623v-1.491c0-.444-.25-.728-.773-.728-.307 0-.573.142-.804.276v-.236h-.573v2.179h.623zM41.879 51.013c-.146-.365-.538-.582-1.03-.582-.71 0-1.136.44-1.136 1.13 0 .691.427 1.13 1.135 1.13.478.005.794-.154 1.045-.544l-.472-.222c-.126.193-.281.348-.552.348-.368 0-.533-.226-.533-.712 0-.485.165-.712.512-.712.302 0 .412.147.513.33l.518-.166zM42.654 51.293c.01-.301.2-.477.502-.477s.493.176.503.477h-1.005zm1.578.352v-.214c0-.523-.382-1.004-1.066-1-.708 0-1.135.44-1.135 1.13 0 .691.427 1.13 1.105 1.13.503 0 .855-.133 1.096-.443l-.453-.235c-.156.151-.291.26-.583.26-.29 0-.532-.176-.542-.628h1.578z"/>
    </g>
</svg>
