<svg width="71" height="71" viewBox="0 0 71 71" xmlns="http://www.w3.org/2000/svg">
    <g fill="none" fill-rule="evenodd">
        <path fill="#FFDA00" d="M10.366 57.084h50.41V6.674h-50.41z"/>
        <path d="m34.248 32.786-1.48-.712c.031.377.059.717.091 1.057.003.03.03.068.056.087.368.257.738.51 1.137.786 0-.234-.024-.433.007-.622.03-.19.115-.372.189-.596zm-9.939-11.16c.464-.48 1.04-.558 1.643-.558.618 0 1.161.207 1.64.627.04-.45-.076-.724-.388-.954-.626-.46-1.893-.486-2.54-.05-.326.22-.443.511-.355.935zm-.025 1.986a35.61 35.61 0 0 1-.07-.047c-.115.16-.233.317-.342.48-.038.057-.089.14-.073.192.076.25.192.484.422.68.133-.424.412-.678.787-.853.079-.036.126-.179.15-.281.018-.083-.02-.18-.034-.277.08-.01.153-.012.223-.028.174-.042.278-.246.255-.476-.018-.197-.166-.17-.293-.175-.151-.005-.302-.001-.454-.001.413-.3.457-.41.32-.835-.287-.001-.64.113-1.085.351-.346.186-.346.186-.227.561.004.013-.001.028-.002.044l-.29.032c.02.193.033.372.056.55.015.116.084.146.202.126.15-.027.303-.03.455-.043zm7.774 2.245-.039.04 2.762 4.714c.253-.563.644-.946 1.114-1.273l-3.837-3.48zm12.606 7.545 3.785-3.573a7.94 7.94 0 0 0-.026-.042l-4.484 1.988.725 1.627zm-.815 2.403c-.397.268-.714.541-.968.883-.185.25-.226.525-.087.803.433.865.874 1.726 1.318 2.585.03.059.114.125.175.127.345.012.69.006 1.063.006-.057-.132-.092-.226-.137-.316-.392-.78-.79-1.558-1.174-2.341a1.288 1.288 0 0 1-.125-.454c-.033-.411-.043-.825-.065-1.293zm-.952-5.008 2.324-4.957-.065-.05-3.784 3.901 1.525 1.106zm-17.1-6.788c-.09.097-.155.195-.244.256-.186.127-.394.222-.574.355a.36.36 0 0 0-.129.26c.016.517.06 1.033.076 1.549.003.108-.071.217-.106.327-.042.128-.108.258-.111.388-.004.202.094.245.277.16.533-.252 1.073-.305 1.623-.052.11.05.221.098.335.148.138-.199.186-.405.015-.568-.143-.135-.14-.265-.115-.429.157-1.025-.204-1.825-1.047-2.394zm13.728 4.825-1.097-6.216-.05.005-.807 6.035 1.954.176zm-16.982-7.727c.016-.413.169-.766.45-1.063.284-.297.633-.49 1.016-.624.932-.325 1.888-.34 2.85-.196.65.097 1.262.302 1.786.716.347.275.604.61.682 1.06.006.032.028.06.062.13.092-.42.124-.792-.035-1.156-.184-.422-.38-.84-.216-1.318.001-.003-.01-.01-.025-.028l-.261.063c-.622.152-.682-.037-.757-.469-.053-.303-.191-.393-.494-.341a.946.946 0 0 0-.271.08c-.391.2-.724.141-1.059-.151-.319-.28-.508-.264-.826.024-.3.271-.618.344-1.007.232-.445-.127-.547-.068-.766.344-.136.255-.336.34-.62.269-.101-.026-.204-.046-.345-.076.183.422.096.776-.102 1.12a2.747 2.747 0 0 0-.178.398c-.13.344-.079.67.116.986zm9.794 23.685c.762-.672 1.6-1.173 2.472-1.613.868-.437 1.756-.834 2.61-1.238-.445-.085-.499-.13-.72-.582-.343-.707-.687-1.414-1.04-2.117-.043-.084-.143-.189-.224-.196-.511-.046-.985.057-1.38.413-.45.405-.717.92-.846 1.499-.19.852-.344 1.712-.53 2.565-.092.416-.221.824-.342 1.269zM31.094 14.52c-.888.813-1.917.688-2.633.354.087-.218.155-.437.03-.661-.167.041-.321.08-.476.117-.683.162-1.364.03-2.046-.02-.4-.028-.785.038-1.14.238-.905.514-1.06 1.808-.298 2.487.215.19.33.197.56.031.1-.072.197-.152.303-.215.36-.212.643-.183.958.091.094.082.184.168.281.244.17.132.356.14.527.018.272-.195.53-.288.78.044.28-.46.683-.706 1.15-.868.275-.095.553-.187.817-.31.302-.14.608-.286.88-.476.333-.232.447-.711.307-1.074zm-1.438 33.094c.189-.24.388-.473.565-.722.387-.546.815-1.072 1.133-1.657.578-1.068.76-2.255.897-3.448.076-.668.2-1.328.525-1.927.403-.741.958-1.313 1.833-1.45.296-.047.606-.008.929-.008-.017-.062-.02-.091-.033-.115-.33-.624-.659-1.25-.996-1.87a.308.308 0 0 0-.183-.129c-.642-.154-1.281-.14-1.882.146-1.015.485-1.655 1.314-2.031 2.353-.309.854-.408 1.744-.367 2.647.037.816.115 1.63.13 2.446.025 1.266-.129 2.512-.52 3.734zm-.105-8.663a7.283 7.283 0 0 1 .818-1.927c.458-.752 1.11-1.246 1.966-1.46.123-.031.25-.043.391-.066l-.116-.238c-.316-.651-.59-1.312-.636-2.051a3.452 3.452 0 0 0-.192-1.006 1706.79 1706.79 0 0 0-3.68-9.545c-.043-.109-.151-.207-.252-.275-.218-.145-.45-.267-.677-.397-.05-.028-.102-.06-.157-.07-.417-.079-.835-.151-1.27-.228-.183.318-.08.694.306.866.235.106.495.155.763.235.03.64.066 1.294.084 1.95.005.207.085.332.273.393.144.047.29.084.435.125l.047.055c-.036.012-.073.02-.108.036-.282.12-.315.344-.295.623.056.764.087 1.53.128 2.294.076 1.427.15 2.855.232 4.282.013.231.025.472.095.69.482 1.505.98 3.005 1.47 4.508.125.38.238.763.375 1.206zm14.07-5.642c.013-.096.022-.136.023-.176.001-.314-.161-.556-.356-.778-.996-1.132-2.152-2.051-3.553-2.637-.804-.336-1.632-.475-2.5-.278-1.287.294-2.377 1.485-2.108 2.97.014.074-.03.183-.084.24-.213.218-.348.47-.37.772-.017.222.017.438.216.627.114-.66.459-1.08 1.055-1.285.082.283.068.509-.218.692a.759.759 0 0 0-.3.454c-.05.264-.014.544-.014.864l.74-.425c.145.645-.15 1.22-.132 1.832.391-.16.674.077.985.193-.165.297-.597.35-.618.768.407-.15 1.118.04 1.138.304H36.374c.018.302.131.393.369.295.22-.09.42-.042.631.025-.148.28-.165.297-.434.297-.2 0-.268.134-.252.285.065.61.145 1.02 1.003.815.141-.034.28-.078.42-.12.213-.067.424-.136.685-.22-.207.291-.357.564-.565.783-.374.393-.451.8-.22 1.296.121.257.17.548.255.839a25.874 25.874 0 0 1 4.846-1.345c-.243-.525-.485-1.03-.713-1.54-.3-.673-.59-1.349-.882-2.024-.08-.184.02-.468.171-.478.72-.048 1.072-.566 1.442-1.092-.254-.158-.413-.02-.59.103-.076.052-.214.08-.29.046-.058-.026-.064-.17-.087-.263-.006-.025.018-.057.016-.085-.008-.083.002-.22-.036-.236a.386.386 0 0 0-.284.006c-.4.189-.569.159-.902-.124-.5-.425-1.008-.841-1.525-1.245a2.614 2.614 0 0 0-1.736-.557c-.345.012-.686.106-1.03.15-.102.012-.256.018-.306-.04-.15-.174-.26-.381-.382-.572.202.021.407.099.575.05 1.162-.335 2.294-.212 3.42.158.219.072.425.136.475.407.013.072.08.139.132.199.363.416.806.719 1.334.878.403.121.79.058 1.161-.198l-1.123-.993.607-.766 1.062 1.13zM31.59 50.69c-.26-.108-.52-.213-.778-.326-.07-.032-.128-.09-.224-.161 2.065-3.589 5.028-6.159 8.752-7.935-.79-.126-4.005 1.475-5.588 2.677-1.696 1.287-2.824 3.025-3.977 4.803-.203-.178-.408-.33-.58-.514-1.322-1.417-2.207-3.088-2.81-4.917-.575-1.743-.865-3.537-.938-5.368-.11-2.72.159-5.389 1.051-7.976.016-.048.035-.1.034-.148-.02-.553-.042-1.106-.065-1.674h-.617a1.56 1.56 0 0 1-1.42-.954.585.585 0 0 0-.23-.257c-.354-.207-.512-.714-.31-1.138.084-.178.11-.338.047-.522-.028-.081-.036-.17-.047-.257-.035-.28-.06-.524-.376-.696a.92.92 0 0 1-.47-.863c.006-.132.066-.262.102-.393-.493-.136-.588-.35-.385-.912-.66-.35-1.07-.902-1.252-1.624-.173-.683-.077-1.347.162-1.996.09-.246.184-.492.293-.73.125-.276.18-.553.08-.853.249-.177.482-.136.73.038.201-.224.4-.446.614-.687a3.003 3.003 0 0 1-.423-1.249c-.135-1.425.81-2.255 1.81-2.547.668-.195 1.338-.142 2.016-.038.383.059.782.064 1.17.039.318-.021.593-.191.802-.442.323.1.565.467.59.89.018.305.019.308.326.29.605-.035 1.025-.377 1.37-.838.039-.051.07-.109.122-.19.469.254.766.626.85 1.147.17 1.05-.317 1.91-1.302 2.314-.384.157-.78.288-1.16.45-.243.104-.472.24-.533.536-.046.222.035.3.263.28.157-.014.325-.021.474.02.282.077.354.294.204.541-.116.192-.107.386-.03.588.142.374.314.741.412 1.127.167.652.067 1.295-.234 1.892-.166.33-.392.629-.585.946-.036.06-.072.152-.052.209.256.735.523 1.466.797 2.223a9.215 9.215 0 0 1 3.542-1.617c1.273-.284 2.556-.32 3.873-.175l.21-1.096c.072-.372.132-.747.221-1.114.025-.1.139-.176.211-.263.074.08.188.15.214.243.216.78.419 1.562.618 2.346.036.142.1.213.247.257 1.53.455 2.84 1.272 3.944 2.421.03.031.065.057.113.099l1.27-1.039.862-.708c.04-.032.08-.073.125-.086.073-.02.163-.045.223-.017.038.017.044.126.044.194 0 .056-.028.112-.048.167-.371 1.012-.741 2.024-1.118 3.035a.374.374 0 0 0 .03.344c.27.507.524 1.024.783 1.538.035.07.066.142.107.23l1.628-.6 1.946-.725c.14-.053.279-.09.403.036v.088c-.07.09-.135.187-.212.272-.953 1.065-1.907 2.13-2.865 3.191-.096.106-.131.197-.097.347.535 2.397.646 4.82.443 7.262-.03.353-.08.705-.12 1.058-.073.006-.115.012-.158.013a15.26 15.26 0 0 0-3.759.513c-3.055.804-5.724 2.294-7.973 4.516-1.12 1.108-2.035 2.383-2.88 3.708-.16.25-.312.504-.468.757h-.044z" fill="#191344"/>
        <path d="m35.627 32.23.927-.687-.357-.814c-.386.445-.675.885-.57 1.501m4.521-1.614-.404 1.05 1.71.866.54-.764c-.621-.387-1.22-.76-1.846-1.152M37.61 34.62a1.306 1.306 0 0 1 1.103-.03c.16.074.78-.036.898-.164.021-.023.026-.061.04-.096-.809-.631-1.654-.944-2.625-.4-.09.05-.19.137-.215.227-.04.144-.027.293.167.367a.665.665 0 0 1 .28.236c.132.185.273.178.449.07l-.097-.21m-.487-3.207c.678-.09 1.336-.15 2.003.072l.09-.518c.112-.657.114-.663-.538-.797-.59-.121-1.172-.103-1.733.153-.134.061-.166.131-.11.271.103.264.189.534.288.82m6.5 1.897-1.063-1.13-.607.767 1.123.993c-.37.256-.758.32-1.16.198a2.842 2.842 0 0 1-1.335-.878c-.053-.06-.119-.127-.132-.199-.05-.271-.256-.335-.475-.407-1.126-.37-2.258-.493-3.42-.158-.168.049-.373-.029-.575-.05.123.19.233.398.382.572.05.058.203.052.305.04.345-.044.686-.138 1.031-.15.638-.021 1.23.16 1.736.557.517.404 1.025.82 1.525 1.245.333.283.502.312.902.124a.386.386 0 0 1 .284-.006c.038.016.029.153.036.236.002.028-.022.06-.016.085.023.093.03.237.086.263.077.035.215.006.29-.046.178-.123.337-.261.592-.103-.37.526-.723 1.044-1.443 1.092-.15.01-.25.294-.17.478.292.675.582 1.351.881 2.023.228.511.47 1.016.713 1.541-1.65.288-3.254.734-4.846 1.345-.085-.291-.134-.582-.254-.84-.232-.495-.155-.902.219-1.295.208-.219.358-.492.565-.782-.26.083-.472.152-.685.218-.14.043-.279.087-.42.12-.858.206-.938-.204-1.003-.815-.016-.15.052-.284.253-.284.268 0 .285-.017.433-.297-.21-.067-.41-.116-.631-.025-.237.098-.351.007-.37-.295h1.152c-.02-.264-.73-.455-1.137-.304.02-.418.452-.471.617-.767-.311-.117-.594-.354-.985-.194-.018-.613.277-1.187.132-1.832-.257.148-.468.27-.74.425 0-.32-.036-.6.014-.864a.759.759 0 0 1 .3-.454c.286-.183.3-.41.218-.692-.596.205-.94.625-1.056 1.285-.198-.19-.232-.405-.216-.627.023-.302.158-.555.37-.773.055-.056.099-.165.085-.239-.27-1.485.821-2.676 2.107-2.97.869-.197 1.697-.058 2.501.278 1.4.586 2.557 1.505 3.553 2.637.195.222.357.464.356.778 0 .04-.01.08-.023.176M29.55 38.952c-.136-.443-.25-.826-.373-1.206-.49-1.503-.989-3.003-1.47-4.508-.07-.218-.083-.459-.096-.69-.081-1.427-.156-2.855-.232-4.282-.041-.765-.072-1.53-.128-2.294-.02-.28.013-.502.295-.623.035-.015.072-.024.108-.036l-.047-.055c-.145-.041-.291-.078-.434-.125-.189-.06-.269-.186-.274-.393-.018-.656-.055-1.31-.083-1.95-.27-.08-.53-.13-.764-.234-.385-.173-.489-.549-.306-.868.435.078.853.15 1.27.228.055.01.107.043.157.071.227.13.46.252.677.397.1.068.209.166.251.275 1.235 3.179 2.466 6.359 3.681 9.545.12.315.171.667.192 1.006.046.74.32 1.4.636 2.051l.116.238c-.14.023-.268.035-.391.065-.857.215-1.508.709-1.966 1.46a7.284 7.284 0 0 0-.818 1.928M29.656 47.615c.391-1.222.545-2.468.52-3.734-.015-.816-.093-1.63-.13-2.446-.04-.903.058-1.793.367-2.647.376-1.04 1.016-1.868 2.031-2.353.6-.287 1.24-.3 1.882-.146.068.017.15.07.183.128.337.621.666 1.247.996 1.871.013.024.016.053.033.115-.323 0-.633-.039-.93.008-.874.137-1.429.709-1.832 1.45-.325.599-.449 1.26-.525 1.927-.136 1.193-.32 2.38-.897 3.448-.318.585-.746 1.111-1.133 1.657-.177.25-.376.482-.565.722M31.094 14.52c.14.364.026.843-.307 1.075-.272.19-.578.336-.88.477-.264.122-.542.214-.817.31-.467.161-.87.406-1.15.867-.25-.332-.508-.239-.78-.044-.171.123-.357.114-.527-.018-.097-.076-.187-.162-.28-.244-.316-.274-.598-.303-.959-.09-.106.062-.203.142-.303.214-.23.166-.345.16-.56-.031-.763-.68-.607-1.973.299-2.486.354-.201.74-.267 1.14-.238.681.048 1.362.18 2.045.019l.477-.117c.124.225.056.443-.031.66.717.335 1.745.46 2.633-.353" fill="#FEFEFE"/>
        <path d="M32.337 44.792c.121-.445.25-.853.341-1.269.187-.853.341-1.713.53-2.565.13-.58.396-1.094.846-1.499.396-.356.87-.459 1.38-.413.082.007.182.112.224.196.354.703.698 1.41 1.042 2.117.22.452.274.497.72.582-.855.404-1.743.8-2.61 1.238-.873.44-1.71.941-2.473 1.613M22.543 21.107c-.195-.316-.246-.643-.116-.986.052-.135.106-.273.178-.398.198-.344.285-.698.102-1.12.14.03.244.05.346.076.283.072.483-.014.619-.269.219-.412.32-.471.766-.344.389.112.707.04 1.007-.232.318-.288.507-.303.826-.024.335.292.668.351 1.059.152a.95.95 0 0 1 .271-.081c.303-.052.441.038.494.341.075.432.135.62.757.47l.261-.064c.016.018.026.025.025.028-.163.478.032.896.216 1.318.159.364.126.737.035 1.156-.034-.07-.056-.098-.062-.13-.078-.45-.334-.785-.682-1.06-.524-.414-1.136-.619-1.785-.716-.963-.143-1.92-.129-2.851.196-.383.133-.732.327-1.015.624-.282.297-.435.65-.45 1.063M39.525 28.834l-1.954-.176.808-6.035.049-.005 1.097 6.216M25.797 24.01c.843.568 1.204 1.368 1.047 2.393-.025.164-.028.294.115.43.171.162.123.368-.015.567-.114-.05-.225-.097-.335-.148-.55-.253-1.09-.2-1.623.051-.183.087-.281.043-.277-.16.003-.13.07-.259.11-.387.036-.11.11-.22.107-.327-.016-.516-.06-1.032-.076-1.549a.36.36 0 0 1 .13-.26c.18-.133.387-.228.573-.355.09-.061.153-.159.244-.256M42.897 30.797l-1.525-1.106 3.784-3.9.065.049-2.324 4.957M43.85 35.805c.021.468.03.882.064 1.293.012.154.056.315.125.454.385.783.782 1.56 1.174 2.341.045.09.08.184.137.316-.373 0-.718.006-1.063-.006-.06-.002-.144-.068-.175-.127a217.03 217.03 0 0 1-1.317-2.585c-.14-.278-.1-.554.086-.803.254-.342.571-.615.968-.883M44.664 33.402l-.725-1.627 4.484-1.988.026.042-3.785 3.573M32.058 25.857l3.837 3.481c-.47.327-.86.71-1.113 1.273l-2.763-4.713.039-.04M24.284 23.612c-.152.013-.306.016-.455.042-.118.022-.187-.01-.202-.126-.023-.177-.037-.356-.056-.55l.29-.031c0-.016.006-.031.002-.044-.119-.375-.119-.375.227-.56.445-.24.798-.353 1.086-.352.137.424.092.534-.32.835.15 0 .302-.004.453.001.127.004.274-.022.294.175.022.23-.082.434-.256.475-.07.017-.143.02-.223.03.014.096.052.193.033.276-.023.102-.07.245-.149.281-.375.175-.654.429-.787.852-.23-.195-.346-.428-.422-.68-.016-.051.035-.134.072-.19.11-.164.228-.32.343-.48l.07.046" fill="#FEFEFE"/>
        <path d="M24.31 21.626c-.089-.424.028-.715.354-.935.647-.436 1.914-.41 2.54.05.312.23.429.503.388.954a2.405 2.405 0 0 0-1.64-.627c-.603 0-1.179.078-1.643.558M34.248 32.786c-.074.224-.159.405-.19.596-.03.19-.006.388-.006.622-.399-.275-.77-.53-1.137-.786a.138.138 0 0 1-.056-.087c-.032-.34-.06-.68-.092-1.057l1.48.712" fill="#FEFEFE"/>
        <path d="m40.148 30.616-.405 1.05 1.71.866.54-.764-1.845-1.152m-3.123 3.313c-.09.05-.19.137-.215.227-.04.144-.027.293.167.367a.666.666 0 0 1 .28.236c.132.185.273.178.449.07l-.097-.21a1.306 1.306 0 0 1 1.103-.03c.16.074.78-.036.898-.164.021-.023.026-.061.04-.096-.809-.631-1.654-.944-2.625-.4m.097-2.517c.678-.09 1.336-.15 2.003.072l.09-.518c.113-.657.114-.663-.538-.797-.59-.121-1.172-.103-1.733.153-.134.061-.166.131-.11.271.103.264.189.534.288.82m-1.495.817.927-.687-.357-.814c-.386.445-.675.885-.57 1.501" fill="#191344"/>
        <g fill="#191344" fill-rule="nonzero">
            <path d="M10.83 64.894v-.363l.375-.024.12-.12v-3.206l-.08-.091-.415-.025v-.363h2.132v.363l-.417.025-.107.091v3.283h1.061l.074-.107.088-.78h.62v1.317zM14.618 64.894v-.363l.436-.024.076-.12v-3.224l-.076-.073-.436-.046v-.342h2.016v.18l.864 2.618.857-2.624v-.174h2.023v.342l-.467.046-.076.085v3.213l.076.119.467.024v.363h-2.023v-.363l.387-.024.055-.12v-3.224h-.012l-1.223 3.731h-.632l-1.226-3.731h-.012v3.225l.076.119.412.024v.363zM23.082 62.783h2.157v.357l-.393.03-.1.086v1.424c-.249.098-.503.17-.762.219a4.41 4.41 0 0 1-.8.071c-.7 0-1.265-.2-1.694-.6-.43-.401-.644-.926-.644-1.575 0-.653.219-1.176.656-1.568.437-.393 1.018-.589 1.742-.589.234 0 .475.019.723.057.248.037.508.094.778.169v1.138h-.57l-.144-.757-.113-.1c-.09-.02-.16-.035-.213-.043a.968.968 0 0 0-.147-.012c-.48 0-.855.152-1.125.457-.27.305-.406.727-.406 1.266 0 .515.14.927.422 1.236.282.31.658.464 1.128.464h.1v-1.257l-.106-.086-.489-.03v-.357zM27.754 64.894v-.363l.451-.024.098-.12v-3.206l-.098-.091-.451-.025v-.363h2.23v.363l-.46.025-.102.091v3.207l.101.119.46.024v.363zM30.461 64.894v-.333l.324-.03.07-.08v-2.056h-.44v-.308l1.12-.36h.363v.406c.293-.152.528-.258.705-.317a1.51 1.51 0 0 1 .47-.089c.311 0 .54.091.686.273.147.182.22.47.22.862v1.59l.067.079.339.03v.333h-1.751v-.333l.244-.03.076-.08v-1.333c0-.27-.05-.457-.148-.56-.099-.105-.27-.156-.514-.156-.11 0-.192.001-.246.004a1.892 1.892 0 0 0-.148.014v2.032l.08.079.262.03v.333h-1.779zM37.483 61.883v.955h-.448l-.083-.494-.082-.086a1.3 1.3 0 0 0-.238-.085.916.916 0 0 0-.217-.028.595.595 0 0 0-.347.09.28.28 0 0 0-.129.24c0 .177.188.334.562.473.122.044.216.081.283.11.328.134.551.266.67.396.12.13.179.296.179.497 0 .29-.137.532-.41.73-.274.197-.619.295-1.033.295-.198 0-.408-.015-.63-.045a6.57 6.57 0 0 1-.7-.138V63.75h.448l.076.57.07.08c.11.053.22.092.328.117.11.026.218.038.328.038a.543.543 0 0 0 .34-.097.314.314 0 0 0 .127-.263c0-.158-.146-.3-.44-.424l-.146-.064c-.453-.2-.75-.368-.887-.508a.69.69 0 0 1-.208-.505c0-.29.128-.526.383-.707.255-.181.592-.272 1.011-.272.159 0 .336.014.533.041.196.028.416.07.66.127zM39.157 61.727h.375v1.812c0 .297.045.495.134.594.09.098.26.148.51.148a3.434 3.434 0 0 0 .354-.019l.003-1.867h-.394v-.308l1.086-.36h.351v2.719l.061.085.37.024v.339h-1.474v-.345c-.246.147-.46.25-.643.31a1.75 1.75 0 0 1-.55.09.886.886 0 0 1-.426-.1.775.775 0 0 1-.3-.288.882.882 0 0 1-.106-.273 2.384 2.384 0 0 1-.032-.456V62.396h-.387v-.309l1.068-.36zM42.41 64.894v-.333l.345-.03.07-.08v-2.056h-.47v-.308l1.15-.36h.364l-.058.711c.132-.144.268-.274.409-.389.14-.115.283-.214.43-.297.02 0 .05-.002.091-.006.041-.004.07-.007.089-.007.085 0 .161.01.227.03.066.019.126.049.179.09l-.174 1.205h-.446a.65.65 0 0 0-.228-.318.648.648 0 0 0-.376-.1 1.912 1.912 0 0 0-.143.006v1.8l.08.079.469.03v.333h-2.007zM47.672 64.238v-.937c-.336.043-.575.112-.719.208a.465.465 0 0 0-.215.412c0 .13.044.235.132.316a.49.49 0 0 0 .344.12.81.81 0 0 0 .21-.03c.076-.02.158-.05.248-.089zm0 .305c-.224.145-.43.253-.618.325a1.462 1.462 0 0 1-.52.108c-.268 0-.488-.08-.657-.24a.818.818 0 0 1-.255-.623c0-.191.053-.363.16-.516a.876.876 0 0 1 .426-.326c.142-.053.339-.112.59-.177.251-.065.547-.133.886-.204v-.183c0-.202-.059-.354-.177-.458-.118-.104-.29-.156-.518-.156h-.098v.65h-.744c-.139 0-.236-.02-.292-.058-.056-.038-.084-.103-.084-.195 0-.205.155-.385.464-.538.31-.154.692-.23 1.147-.23.277 0 .513.035.708.106a.978.978 0 0 1 .454.317c.066.084.112.18.14.292.03.11.044.29.044.538v1.489l.067.073.344.04v.317h-1.382l-.085-.35zM49.529 64.894v-.333l.323-.03.07-.08v-2.056h-.44v-.308l1.12-.36h.364v.406c.292-.152.527-.258.704-.317a1.51 1.51 0 0 1 .47-.089c.311 0 .54.091.686.273.147.182.22.47.22.862v1.59l.067.079.339.03v.333H51.7v-.333l.244-.03.076-.08v-1.333c0-.27-.05-.457-.148-.56-.099-.105-.27-.156-.514-.156-.11 0-.192.001-.246.004a1.892 1.892 0 0 0-.147.014v2.032l.079.079.262.03v.333H49.53zM56.925 64.595c-.262.122-.503.21-.723.265-.22.055-.437.083-.652.083-.51 0-.917-.143-1.22-.429-.301-.286-.452-.667-.452-1.145 0-.49.168-.887.503-1.189.336-.302.776-.453 1.321-.453.356 0 .645.074.867.221.221.148.332.339.332.572 0 .151-.053.274-.16.37a.6.6 0 0 1-.417.143.861.861 0 0 1-.251-.037 1.073 1.073 0 0 1-.246-.112v-.827a.784.784 0 0 0-.596.352c-.142.209-.212.489-.212.84 0 .332.086.6.259.806a.84.84 0 0 0 .674.308c.114 0 .245-.024.392-.072.148-.047.341-.132.581-.254v.558zM59.487 62.957c0-.29-.039-.502-.116-.638a.383.383 0 0 0-.357-.204.459.459 0 0 0-.409.206c-.091.137-.137.34-.137.611v.025h1.019zm1.095 1.055v.577a3.253 3.253 0 0 1-1.525.354c-.521 0-.934-.145-1.24-.435-.307-.29-.46-.68-.46-1.17 0-.49.158-.884.473-1.182.316-.298.732-.447 1.251-.447.482 0 .856.136 1.121.409.266.272.398.657.398 1.153v.08h-2.153c.006.308.09.553.254.731.164.18.382.269.655.269.211 0 .418-.028.619-.084.201-.056.404-.14.607-.255z"/>
        </g>
    </g>
</svg>
