<svg width="71" height="71" viewBox="0 0 71 71" xmlns="http://www.w3.org/2000/svg">
    <g fill="none" fill-rule="evenodd">
        <path d="m42.137 57.849-1.544-2.552h-.937v4.291h.814v-2.752l1.667 2.752h.814v-4.291h-.814v2.552zm-4.108 1.74h.976v-4.292h-.976v4.291zm-3.456-2.551H33.27v-1.741h-.977v4.291h.977v-1.74h1.302v1.74h.975v-4.291h-.975v1.741zm-11.064 2.55h.975v-4.291h-.975v4.291zm5.247-4.291h-.935l-.895 1.58-.936-1.58h-1.097l1.463 2.471v1.82h.976v-1.82l1.058-1.822.366-.65zm1.099 2.552h-.448l.448-1.378.488 1.378h-.488zm0-2.552h-.407l-1.058 3.2-.366 1.091h.813l.327-.97h1.382l.366.97h1.017l-1.466-4.291h-.608zm-7.932 1.741a.731.731 0 0 1-.447.122h-.732v-.972h.691c.244 0 .408.042.529.08.121.082.163.203.163.405a.426.426 0 0 1-.204.365zm.977.366c.121-.203.203-.406.203-.65 0-.283-.04-.485-.123-.687-.08-.202-.243-.324-.407-.445a1.363 1.363 0 0 0-.61-.243 2 2 0 0 0-.528-.082h-1.668v4.291h.977V57.97h.691l.692 1.62h1.017l-.733-1.82a1.14 1.14 0 0 0 .49-.365zm41.2-.933c.083-.12.163-.202.245-.283.122-.08.244-.121.407-.162.162 0 .243.04.366.083.081.04.162.12.244.2.04.122.122.204.162.325 0 .12.04.244.04.364l.937-.12a3.58 3.58 0 0 0-.203-.69c-.083-.202-.163-.364-.325-.525a1.717 1.717 0 0 0-.53-.326c-.163-.08-.408-.12-.69-.12-.327 0-.612.04-.856.162-.202.121-.406.284-.57.527-.163.203-.243.404-.323.687a3.016 3.016 0 0 0-.124.85c0 .283.04.568.124.85.08.245.2.487.364.69.123.201.327.404.57.486.245.12.53.202.814.162.283 0 .487-.043.69-.123.205-.08.367-.161.53-.324a1.49 1.49 0 0 0 .326-.485c.121-.202.161-.406.203-.647l-.896-.123c0 .123-.04.202-.08.324 0 .082-.083.203-.123.285-.082.08-.122.121-.244.202-.08.04-.203.04-.325.04a.742.742 0 0 1-.448-.12c-.122-.083-.202-.163-.244-.286a1.892 1.892 0 0 1-.162-.445c-.04-.16-.04-.364-.04-.525 0-.163 0-.324.04-.488.04-.161.08-.323.12-.445zm-2.561 1.378-1.505-2.552h-.977v4.291h.813v-2.752l1.709 2.752h.814v-4.291h-.854v2.552zm5.408 1.74h2.848v-.809h-1.87v-.931h1.503v-.811h-1.504v-.93h1.871v-.811h-2.848v4.291zm-10.208-1.74h-.448l.448-1.378.447 1.378h-.447zm0-2.552h-.406l-1.465 4.291h.853l.327-.97h1.383l.365.97h1.016l-1.503-4.291h-.57zm-6.914 2.834c0 .082-.04.162-.04.243 0 .123-.042.164-.122.243-.041.042-.122.123-.205.123a.818.818 0 0 1-.366.08.767.767 0 0 1-.324-.08c-.123-.04-.204-.08-.245-.163a.676.676 0 0 1-.123-.242v-3.038h-1.015v2.714c0 .242.04.445.08.648.04.201.122.364.244.525.123.121.285.243.488.324.203.123.49.163.815.163.324 0 .57-.04.773-.122.2-.08.366-.202.488-.323a.991.991 0 0 0 .284-.486c.08-.163.08-.366.08-.567v-2.876h-.812v2.834zm-3.377-.809c-.162-.121-.325-.162-.487-.242-.163-.042-.367-.122-.528-.122a.739.739 0 0 0-.286-.08c-.081-.042-.203-.042-.284-.081-.122-.082-.205-.124-.205-.204a.257.257 0 0 1 0-.243c.042-.081.083-.162.205-.201a.774.774 0 0 1 .325-.082c.203.042.325.082.447.163.08.039.163.16.244.322l.854-.202c-.121-.404-.285-.648-.569-.85a1.93 1.93 0 0 0-.976-.242c-.203 0-.407.039-.57.08a2.846 2.846 0 0 0-.487.242c-.164.122-.245.244-.367.406-.08.163-.121.364-.121.566 0 .284.08.486.162.649.122.16.245.282.407.405.204.08.366.162.57.2.203.043.365.083.528.123.163.04.325.082.405.163.125.039.206.121.206.243a.423.423 0 0 1-.206.364c-.16.04-.324.081-.568.081-.406.04-.691-.163-.813-.567l-.894.203c.04.201.121.404.244.567.121.121.243.282.366.364.162.122.324.202.528.241.163.043.366.043.61.043.203 0 .406 0 .652-.082.202-.04.364-.122.528-.244a1.87 1.87 0 0 0 .406-.404c.081-.161.122-.363.122-.608 0-.241-.041-.444-.122-.607-.08-.12-.203-.282-.326-.364zm6.996-.284a.82.82 0 0 1-.448.122h-.771v-.972h.732c.203 0 .366.042.487.08.124.082.162.203.162.405 0 .163-.038.285-.162.365zm.936.366c.122-.203.204-.406.204-.65.04-.283 0-.485-.122-.687-.082-.202-.203-.324-.408-.445a1.41 1.41 0 0 0-.57-.243c-.202-.042-.364-.082-.569-.082h-1.667v4.291h.977V57.97h.69l.691 1.62h1.059l-.774-1.82c.204-.083.368-.204.489-.365zm-46.774-.366H6.304v-1.741h-.975v4.291h.975v-1.74h1.302v1.74h.977v-4.291h-.977v1.741zm8.419 1.135-.894-2.876h-1.017l1.384 4.291h.894l1.382-4.291h-.894l-.855 2.876zm-6.833 1.415h2.888v-.808h-1.91v-.931h1.544v-.811H10.17v-.93h1.911v-.811H9.192v4.291zm-7.401-3.44h1.057v3.44h.976v-3.44h1.058v-.851H1.79v.852zm16.392 3.44h.975v-4.291h-.975v4.291zm30.829-6.437v-4.817c0-.73-.244-1.215-.774-1.58-.447-.363-1.137-.485-1.952-.485-.61 0-1.26.122-1.952.363-.57.244-1.018.446-1.26.65v.728c.12 0 .325.039.569.12l.121.041a2.192 2.192 0 0 0-.488.567 2.12 2.12 0 0 0-.202.933v3.48h1.667v-4.534c0-.364.122-.648.366-.849.244-.245.608-.325.977-.325.447 0 .771.122 1.017.364.162.203.242.446.242.81v4.534h1.669zm3.903.082c.205-.082.367-.163.49-.284.325-.243.569-.607.811-1.094l.083 1.296h1.464v-6.76h-1.668v3.765c0 .525-.121.89-.365 1.255-.246.283-.49.485-.815.567h-.243c-.367 0-.692-.123-.854-.445-.164-.243-.204-.526-.204-.932v-4.21h-1.667v4.696c0 .688.244 1.215.69 1.66.45.364.977.568 1.627.568.244 0 .449-.042.651-.082zM7.647 44.609H2.239l-.489 1.012h5.897v-1.012zm6.63 0h-5.41l-.488 1.012h5.897v-1.012zm53.89 1.782v4.332c0 .443-.04.769-.203.971-.162.284-.488.405-.935.405-.488 0-.854-.121-1.056-.364-.245-.202-.326-.445-.326-.728v-.081c0-.082 0-.123.04-.123.04-.363.203-.567.488-.687.163-.123.408-.123.772-.123v-.933c-.364 0-.691-.078-.974-.201-.368-.162-.53-.404-.53-.688v-.122a.6.6 0 0 1 .204-.484c.122-.122.326-.122.528-.122.203 0 .488.04.772.202l.285-1.013c-.243-.12-.447-.241-.731-.283-.326-.04-.611-.04-.937-.04-.529 0-.894.122-1.22.404-.365.285-.529.73-.529 1.217 0 .444.04.767.204 1.011.164.364.407.567.733.688-.205.12-.326.244-.448.364a1.466 1.466 0 0 0-.448 1.054c0 .808.327 1.375.896 1.741.528.363 1.301.566 2.237.566 1.016 0 1.749-.243 2.236-.648.407-.404.651-.971.651-1.742v-4.573h-1.708zM28.39 53.354h.244c.49 0 .895-.04 1.22-.121a2.557 2.557 0 0 0 1.098-.567c.407-.404.61-1.012.61-1.782v-7.327h-1.666v7.407c0 .083 0 .123-.041.202-.04.285-.122.488-.366.65-.204.162-.53.243-.896.243h-.203c-.326-.04-.61-.123-.814-.243-.203-.204-.324-.446-.324-.852v-4.573h-1.668v4.493c0 .81.244 1.378.61 1.782.449.445 1.18.649 2.196.688zm31.888-8.017c.327.203.69.284 1.056.284h3.336v-1.054H62.19c-.326 0-.57-.04-.855-.201-.283-.163-.446-.324-.487-.485l-1.18.808c.04.204.244.446.61.648zm-14.074 0c.327.203.692.284 1.098.284h3.295v-1.054h-2.44c-.325 0-.61-.04-.894-.201-.245-.163-.408-.324-.489-.485l-1.139.808c.041.204.205.446.569.648zm13.95 2.106c.45 0 .774.122.978.364.163.203.284.446.284.81v4.534h1.668v-4.817c0-.73-.285-1.215-.773-1.58-.488-.363-1.139-.485-1.993-.485-.569 0-1.22.122-1.913.363-.609.244-1.015.446-1.301.65v.728c.123 0 .286.039.489.039.082.042.123.082.244.122a1.27 1.27 0 0 0-.488.567 2.09 2.09 0 0 0-.245.933v2.55h-.365v.93h2.073v-4.534c0-.364.123-.648.367-.849.244-.245.57-.325.976-.325zm-20.7 1.052c.325.243.65.364.975.364h1.587v-1.255h-1.098c-.245 0-.489-.08-.65-.283a.479.479 0 0 1-.204-.365l-1.221.85c.122.243.284.487.61.689zm-25.38 1.538a1.714 1.714 0 0 0-.733-.605c-.284-.161-.772-.284-1.465-.446-1.057-.202-1.626-.487-1.626-.811 0-.202.122-.364.244-.485.204-.12.489-.203.935-.203.326 0 .61.082.815.203.16.12.284.363.325.567l1.545-.243a2.33 2.33 0 0 0-.975-1.337 3.372 3.372 0 0 0-1.71-.445c-.854 0-1.545.203-2.034.648-.446.406-.691.971-.691 1.7 0 .283.082.608.245.852.243.283.488.525.814.688.202.12.812.283 1.87.526.691.161 1.057.405 1.057.728 0 .242-.121.446-.407.608-.16.08-.446.121-.772.121-.448 0-.813-.08-1.1-.244-.283-.12-.446-.363-.527-.689l-1.545.285c0 .161.04.365.163.608.202.363.447.647.853.85.529.324 1.22.445 2.115.445.854 0 1.587-.203 2.115-.606.53-.406.813-.973.813-1.701 0-.366-.122-.688-.324-1.014zm8.988 1.014c-.162-.121-.245-.285-.245-.405l-1.22.81c.082.283.286.526.61.77.286.2.61.323.977.323h1.588V51.29h-1.1a.83.83 0 0 1-.61-.243zM4.312 52.22c-.366 0-.691-.203-.977-.527-.243-.324-.365-.647-.365-.971l-1.545.203c.202.728.528 1.336 1.015 1.78.53.445 1.18.688 1.994.688 1.058 0 1.91-.324 2.52-1.012.57-.647.856-1.456.856-2.47 0-1.053-.245-1.863-.813-2.552-.61-.728-1.505-1.091-2.644-1.091-.732 0-1.423.242-1.993.687a2.832 2.832 0 0 0-1.057 1.782l1.545.163c.082-.406.203-.73.529-.971.244-.244.61-.407 1.016-.407.61 0 1.058.245 1.302.73.244.364.366.89.366 1.497 0 .69-.081 1.214-.286 1.62-.283.566-.772.851-1.463.851zm16.676-1.257v-4.573h-1.709v4.332c0 .443-.04.769-.203.971-.162.284-.488.405-.935.405-.488 0-.814-.121-1.059-.364-.243-.202-.323-.445-.323-.728v-.081c0-.082 0-.123.039-.123.04-.363.205-.567.489-.687.163-.123.406-.123.772-.123v-.933c-.366 0-.691-.078-.977-.201-.365-.162-.528-.404-.528-.688v-.122c0-.242.082-.363.205-.484.121-.122.323-.122.528-.122.204 0 .487.04.772.202l.285-1.013a2.023 2.023 0 0 0-.732-.283c-.285-.04-.61-.04-.936-.04-.529 0-.895.122-1.22.404-.325.285-.529.73-.529 1.217 0 .444.08.767.204 1.011.162.364.406.567.732.688-.203.12-.326.244-.447.364-.285.282-.408.649-.408 1.054 0 .808.285 1.375.855 1.741.53.363 1.302.566 2.278.566s1.708-.243 2.196-.648c.407-.404.65-.971.65-1.742zm21.028 1.581V51.29h-1.098a1 1 0 0 1-.65-.243c-.124-.121-.204-.285-.204-.405l-1.221.81c.122.283.284.526.61.77.326.2.65.323.976.323h1.587zM23.02 47.321a.486.486 0 0 1-.204-.365l-1.22.85c.082.243.286.487.61.689.286.243.61.364.977.364h1.588v-1.255h-1.1c-.285 0-.488-.08-.65-.283zm15.008 2.712c-.244-.283-.447-.486-.731-.605-.285-.161-.773-.284-1.466-.446-1.057-.202-1.626-.487-1.626-.811 0-.202.124-.364.243-.485.205-.12.49-.203.936-.203.326 0 .61.082.814.203.163.12.285.363.326.567l1.545-.243a2.329 2.329 0 0 0-.975-1.337 3.265 3.265 0 0 0-1.71-.445c-.853 0-1.546.203-2.032.648-.449.406-.693.971-.693 1.7 0 .283.082.608.284.852.204.283.448.525.774.688.204.12.855.283 1.871.526.692.161 1.058.405 1.058.728 0 .242-.122.446-.408.608-.162.08-.446.121-.772.121-.448 0-.813-.08-1.098-.244-.285-.12-.447-.363-.53-.689l-1.545.285c0 .161.041.365.164.608.202.363.486.647.854.85.527.324 1.26.445 2.115.445.854 0 1.586-.203 2.115-.606.528-.406.813-.973.813-1.701 0-.366-.122-.688-.326-1.014zM27.063 11.508H44.56c2.885 0 5.227 2.359 5.227 5.208v17.456c0 2.852-2.342 5.206-5.227 5.206H27.063c-2.885 0-5.226-2.354-5.226-5.206V16.716c0-2.85 2.34-5.208 5.226-5.208" fill="#204791"/>
        <path d="m41.322 23.407-2.268 3.511 1.322 2.024-2.292 3.511h-4.565l-2.271-3.51 1.325-2.025-2.269-3.51-3.62 5.534 4.564 6.997h9.128l4.565-6.997-3.619-5.535zm-7.403 7.279h3.785V26.02l2.672-4.074-1.915-2.922-.757 1.177-.378-.587.758-1.154-2.272-3.513-2.293 3.513.78 1.154-.38.587-.778-1.177-1.893 2.922 2.671 4.074v4.665z" fill="#F6B917"/>
    </g>
</svg>
