<svg width="71" height="71" viewBox="0 0 71 71" xmlns="http://www.w3.org/2000/svg" xmlns:xlink="http://www.w3.org/1999/xlink">
    <defs>
        <path id="im00dyc87a" d="M0 27.394h65.02V0H0z"/>
    </defs>
    <g fill="none" fill-rule="evenodd">
        <path fill="#034594" d="M6.385 39.73h4.785v-1.057H6.385z"/>
        <g transform="translate(3.84 19.6)">
            <path d="M5.694 20.882v.869H1.218v1.393h4.476v.886a.428.428 0 0 0-.277-.086H2.012c-.32 0-.8.182-.8.778v2.137c0 .326.26.535.675.535h2.54V26.17H3.424c-.29 0-.269-.161-.269-.333v-.536s-.065-.215.414-.215h1.718c.163 0 .3.055.407.198v2.11h1.972v-6.512H5.694zM15.625 24.031h-.905v-2.28H12.85v2.28h-.638c-.17 0-.34.011-.441.177-.129.222-.739 1.234-.739 1.234v-3.001c0-.372-.007-.69-.327-.69H8.495v1.393H9.1c.267 0 .24.269.24.505v3.745h1.988s.82-1.54.912-1.74c.066-.143.109-.145.244-.145h.366v1.885h1.871v-1.885h.905v-1.478zM31.442 24.031h-.904v-2.28h-1.873v2.28h-.636c-.17 0-.344.011-.442.177-.13.222-.737 1.234-.737 1.234v-3.001c0-.372-.01-.69-.329-.69h-2.21v1.393h.605c.265 0 .238.269.238.505v3.745h1.99s.82-1.54.912-1.74c.068-.143.109-.145.245-.145h.364v1.885h1.873v-1.885h.904v-1.478zM20.841 20.247v-1.465h1.84v.555s-.044.214.172.214h3.712v1.203h-5.246c-.336 0-.478-.266-.478-.507" fill="#034594"/>
            <mask id="bz9hb3uyyb" fill="#fff">
                <use xlink:href="#im00dyc87a"/>
            </mask>
            <path fill="#034594" mask="url(#bz9hb3uyyb)" d="M23.31 18.952h1.709v-1.913h-1.71zM21.527 21.751v3.692s-.608-1.014-.739-1.235c-.101-.169-.27-.177-.441-.177h-.634v-1.568c0-.608-.125-.733-.355-.733H16.83v1.414h.778c.184 0 .222.112.222.485v.402h-.9v1.478h.9v1.885h1.882v-1.885h.362c.135 0 .156-.012.245.146.106.19.908 1.739.908 1.739h1.99V21.75h-1.69zM37.895 21.717H33.66c-.58 0-1.144.483-1.144 1.427v4.25h2.59s.518-1.802.636-2.22c.117-.415.393-.342.552-.342h.247v-1.196h-1.264c-.218 0-.409.165-.512.543-.1.38-.462 1.34-.462 1.34v-1.973c0-.402.114-.452.462-.452h1.92s.396-.056.396.434v3.866h1.992v-4.25c0-1.137-.596-1.427-1.178-1.427M44.805 21.751h-2.184v1.393h.779c.151 0 .224.047.224.28v2.024c0 .2-.026.48-.28.48h-.685l-1.09-4.175H39.61l1.486 5.595h3.806c.658 0 .69-.396.69-.706 0-.307-.074-3.042-.074-3.62 0-.58.04-1.271-.713-1.271M53.968 17.551V4.738l7.29 6.41-7.29 6.403zm-.043-13.91-7.553 6.661h-1.267l8.83-7.778 8.26 7.235h2.826L53.925 0l-11.1 9.764v1.404h2.568l8.532 7.497 7.538-6.64h1.263l-8.805 7.753-8.273-7.21H42.82l11.107 9.72 11.093-9.78v-1.34h-2.563l-8.533-7.526zM11.218 13.728c0 .515-.138.983-.412 1.403-.274.42-.663.778-1.166 1.073-.503.296-1.107.525-1.81.687-.703.162-1.483.243-2.341.243-3.66 0-5.489-1.389-5.489-4.168v-.412h3.413c0 .916.103 1.565.31 1.947.32.524.908.786 1.766.786 1.475 0 2.213-.478 2.213-1.434 0-.541-.326-1.007-.978-1.398-.057-.042-.266-.14-.626-.294-.36-.154-.866-.364-1.518-.63a25.912 25.912 0 0 1-1.913-.88 9.86 9.86 0 0 1-1.226-.73C.526 9.232.069 8.442.069 7.552c0-1.056.52-1.85 1.56-2.384.95-.49 2.236-.736 3.86-.736 3.533 0 5.3 1.327 5.3 3.981H7.427c0-1.43-.646-2.146-1.938-2.146-1.27 0-1.904.366-1.904 1.098 0 .499.309.935.926 1.31l2.058.91c.835.375 1.518.7 2.05.974.532.275.93.508 1.192.699.938.682 1.407 1.506 1.407 2.47M26.037 8.799c0-.699.07-1.68.207-2.945L22.59 16.822h-2.145L16.792 5.854c.08.632.137 1.192.172 1.678.034.487.051.909.051 1.267v8.023h-3.413V4.756h5.472l2.144 6.8c.057.192.117.427.18.706.063.278.122.605.18.979l.24-1.685 2.144-6.8h5.489v12.066h-3.414V8.799z"/>
            <path d="m36.844 12.068-1.184 1.31v3.444h-3.413V4.755h3.413v5.504c.069-.191.217-.456.446-.793s.55-.755.96-1.254l2.762-3.457h3.877l-4.546 5.167 4.751 6.9h-3.859l-3.207-4.754z" fill="#034594" mask="url(#bz9hb3uyyb)"/>
        </g>
    </g>
</svg>
