<svg width="71" height="71" viewBox="0 0 71 71" xmlns="http://www.w3.org/2000/svg" xmlns:xlink="http://www.w3.org/1999/xlink">
    <defs>
        <path id="fl13lcbs6a" d="M0 56.649h49.75V0H0z"/>
    </defs>
    <g fill="none" fill-rule="evenodd">
        <path fill="#211E1F" d="M23.807 53.334h-.023l-1.961-6.267h-2.655v8.27h1.58v-6.796l.03-.026 2.228 6.823h1.578l2.233-6.823h.026v6.823h1.585v-8.271h-2.654z"/>
        <g transform="translate(10.678 7.227)">
            <path d="M22.806 42.151c0-.901.731-1.144 1.302-1.144.573 0 1.155.127 1.672.353l.157-1.36a6.16 6.16 0 0 0-1.974-.3c-1.457 0-2.89.68-2.89 2.523 0 2.74 3.625 2.086 3.625 3.66 0 .747-.84 1.065-1.47 1.065-.652 0-1.303-.203-1.87-.507l-.156 1.491c.817.202 1.222.32 2.12.32 1.667 0 3.105-.686 3.105-2.498 0-2.77-3.62-2.167-3.62-3.603" fill="#211E1F"/>
            <mask id="0lm3dhhf0b" fill="#fff">
                <use xlink:href="#fl13lcbs6a"/>
            </mask>
            <path fill="#211E1F" mask="url(#0lm3dhhf0b)" d="M29.762 48.111h1.654v-8.27h-1.654zM38.013 44.777h1.661v1.99c-.209.048-.449.092-1.038.092-1.593 0-2.753-1.206-2.753-2.862 0-1.69 1.16-2.867 2.81-2.867 1.054 0 1.586.203 2.05.505l.323.212.131-1.702-.16-.06c-.642-.219-1.195-.407-2.4-.407-2.592 0-4.407 1.758-4.407 4.278 0 2.608 1.767 4.35 4.4 4.35.956 0 1.769-.115 2.486-.356l.145-.06v-4.499h-3.248v1.386zM0 56.579h.693v-2.97H0zM1.942 55.374c0 .126.015.236.048.334.036.1.08.18.14.247a.591.591 0 0 0 .21.155.76.76 0 0 0 .273.054.692.692 0 0 0 .317-.071.63.63 0 0 0 .224-.216c.062-.09.102-.205.135-.337.03-.134.047-.284.047-.452 0-.065-.008-.135-.01-.213-.008-.077-.021-.153-.034-.231a1.6 1.6 0 0 0-.073-.227.631.631 0 0 0-.33-.328.703.703 0 0 0-.286-.053c-.071 0-.147.01-.232.03-.083.02-.176.051-.265.095a1.574 1.574 0 0 0-.545.444l-.332-.333c.113-.144.232-.261.353-.353.122-.094.243-.17.366-.226.12-.055.24-.097.362-.119a1.55 1.55 0 0 1 .337-.034c.232 0 .431.034.601.113.171.074.316.176.428.307.12.133.196.292.257.479.058.186.089.389.089.613 0 .262-.037.495-.111.698a1.46 1.46 0 0 1-.3.498 1.277 1.277 0 0 1-.448.3 1.537 1.537 0 0 1-.55.098c-.19 0-.367-.032-.523-.09a1.121 1.121 0 0 1-.422-.283 1.315 1.315 0 0 1-.285-.491 2.09 2.09 0 0 1-.105-.715v-.072c.004-.028.004-.062.013-.105h1.305v.484h-.654zM3.897 52.18H2.735a.808.808 0 0 0-.132.014.396.396 0 0 0-.117.05.252.252 0 0 0-.115.221c0 .026.002.063.02.103a.27.27 0 0 0 .052.114.905.905 0 0 1 .226-.137c.04-.012.083-.025.12-.03a.633.633 0 0 1 .117-.012c.085 0 .164.017.239.04a.688.688 0 0 1 .23.13c.01-.006.02-.024.03-.046a.213.213 0 0 0 .014-.084V52.5a.22.22 0 0 0-.03-.123h.429c.002.012.01.03.015.046a.46.46 0 0 1 .01.09v.096a.532.532 0 0 1-.037.172.543.543 0 0 1-.23.244c-.054.028-.104.057-.164.073l-.03.001c-.01.008-.013.008-.019.008l-.014-.01s-.012-.01-.013-.015c-.018-.027-.04-.054-.064-.086-.027-.025-.053-.057-.09-.08a.607.607 0 0 0-.12-.065.648.648 0 0 0-.164-.022.38.38 0 0 0-.109.014.452.452 0 0 0-.112.042.38.38 0 0 0-.116.075.581.581 0 0 0-.107.112c-.007.01-.01.013-.01.015-.004.01-.008.01-.008.01l-.014.002-.031-.001a.63.63 0 0 1-.174-.078.5.5 0 0 1-.14-.127.702.702 0 0 1-.096-.186.822.822 0 0 1-.033-.257.58.58 0 0 1 .065-.288.556.556 0 0 1 .18-.198.914.914 0 0 1 .272-.11c.11-.023.224-.034.348-.034H4.05l-.153.36zM5.423 55.384a.795.795 0 0 0 .215.544c.07.076.14.128.225.174a.63.63 0 0 0 .266.062.503.503 0 0 0 .235-.056.406.406 0 0 0 .154-.165.86.86 0 0 0 .086-.251c.017-.096.027-.2.027-.316V53.61h.693v1.7c0 .18-.016.332-.045.469-.03.133-.067.25-.12.347a.989.989 0 0 1-.179.246.896.896 0 0 1-.453.24 1.096 1.096 0 0 1-.543-.02 1.222 1.222 0 0 1-.637-.484c0 .033-.003.072-.004.116-.005.04-.01.084-.01.123 0 .049-.005.087-.007.13a1.04 1.04 0 0 0-.006.1h-.642l.011-.198c.01-.1.018-.203.028-.312.007-.112.008-.23.008-.359v-1.256c0-.091-.001-.168-.004-.243a1.912 1.912 0 0 0-.022-.214c-.004-.065-.016-.134-.023-.198a2.392 2.392 0 0 1-.03-.187h.701c.02.084.039.165.044.23.007.068.018.133.02.181l.012.165v1.198zM9.241 56.579h.69v-2.97h-.69zM11.18 55.374c0 .126.02.236.054.334a.64.64 0 0 0 .347.402.723.723 0 0 0 .586-.017.626.626 0 0 0 .225-.216.963.963 0 0 0 .136-.337c.026-.134.044-.284.044-.452 0-.065-.004-.135-.008-.213a1.564 1.564 0 0 0-.107-.458.545.545 0 0 0-.13-.191.669.669 0 0 0-.49-.19c-.068 0-.141.01-.229.03-.085.02-.172.051-.263.095-.09.045-.182.1-.277.174a1.71 1.71 0 0 0-.269.27l-.331-.333c.112-.144.229-.261.354-.353a1.65 1.65 0 0 1 1.063-.38c.232 0 .428.035.602.114.173.074.315.176.427.307.116.133.198.292.258.479.058.186.087.389.087.613 0 .262-.038.495-.11.698-.07.195-.172.367-.302.498a1.21 1.21 0 0 1-.446.3 1.54 1.54 0 0 1-.553.098 1.56 1.56 0 0 1-.525-.09 1.163 1.163 0 0 1-.42-.283 1.445 1.445 0 0 1-.286-.491c-.066-.2-.1-.44-.1-.715 0-.013 0-.037.003-.072 0-.028 0-.062.007-.105h1.305v.484h-.652zM15.579 56.577v-1.47c-.079 0-.161.004-.252.008-.088.008-.18.017-.265.035a1.332 1.332 0 0 0-.483.17.477.477 0 0 0-.224.389.5.5 0 0 0 .04.18c.03.054.066.104.103.146.046.041.09.073.147.091a.406.406 0 0 0 .164.038.933.933 0 0 0 .139-.01c.043-.006.08-.021.12-.033l.147.39c-.09.025-.173.051-.256.068a1.293 1.293 0 0 1-.674-.046 1.103 1.103 0 0 1-.326-.192.913.913 0 0 1-.21-.272.797.797 0 0 1-.07-.33.84.84 0 0 1 .137-.483c.09-.133.22-.243.383-.327.17-.086.364-.15.594-.187.235-.04.491-.065.772-.069v-.09l-.002-.093c-.01-.042-.014-.083-.03-.126a.453.453 0 0 0-.063-.122.416.416 0 0 0-.107-.111.586.586 0 0 0-.168-.079.878.878 0 0 0-.238-.03c-.148 0-.3.024-.465.075-.16.051-.336.132-.525.246l-.213-.413c.099-.064.204-.116.302-.162.104-.05.206-.088.32-.125.106-.035.219-.06.338-.077.113-.02.239-.027.37-.027.072 0 .14.003.2.01a.98.98 0 0 1 .18.047.75.75 0 0 1 .21.142.29.29 0 0 0-.01-.068c-.003-.023-.003-.045-.003-.071v-.312h.648c-.007.055-.007.128-.012.213-.008.08-.01.171-.014.268l-.01.283c-.004.097-.004.18-.004.255v2.271h-.69zM19.13 56.577h-.692v-2.802c0-.08.007-.157.018-.23a1.518 1.518 0 0 1 .236-.548 1.501 1.501 0 0 1-.167-.074 1.636 1.636 0 0 1-.178-.092l-.182-.096a8.187 8.187 0 0 0-.173-.097l-.153-.094a2.268 2.268 0 0 1-.127-.078l.233-.443c.07.051.141.102.21.148.077.049.15.097.233.143.077.052.165.096.253.144l.282.139c.031-.046.064-.094.108-.146a3.6 3.6 0 0 1 .12-.155c.043-.052.079-.102.129-.15.039-.047.074-.089.11-.129l.367.344c-.044.052-.09.105-.146.159-.048.055-.093.116-.145.18a2.76 2.76 0 0 0-.13.204 3.785 3.785 0 0 0-.11.241 2.003 2.003 0 0 0-.095.62v2.812zM20.485 55.374c0 .126.018.236.047.334a.674.674 0 0 0 .35.402c.08.03.174.054.27.054a.666.666 0 0 0 .315-.071.602.602 0 0 0 .226-.216c.06-.09.103-.205.134-.337.03-.134.042-.284.042-.452a3.92 3.92 0 0 0-.006-.213 1.638 1.638 0 0 0-.032-.231 1.738 1.738 0 0 0-.071-.227.613.613 0 0 0-.13-.191.589.589 0 0 0-.201-.137.683.683 0 0 0-.285-.053.97.97 0 0 0-.233.03 1.365 1.365 0 0 0-.539.27 1.506 1.506 0 0 0-.271.269l-.33-.333a1.953 1.953 0 0 1 .722-.579c.118-.055.238-.097.358-.119.118-.026.23-.034.332-.034.234 0 .435.034.606.113.171.074.314.176.428.307.115.133.2.292.259.479.06.186.083.389.083.613 0 .262-.04.495-.106.698a1.494 1.494 0 0 1-.306.498c-.126.133-.27.231-.443.3a1.553 1.553 0 0 1-.552.098c-.19 0-.364-.032-.526-.09a1.223 1.223 0 0 1-.423-.283 1.385 1.385 0 0 1-.28-.491c-.07-.2-.107-.44-.107-.715 0-.013 0-.037.004-.072 0-.028.004-.062.007-.105h1.311v.484h-.653zM25.134 54.92h.908v-.548a.458.458 0 0 0-.03-.146.422.422 0 0 0-.09-.113.578.578 0 0 0-.315-.092c-.084 0-.171.013-.257.033-.09.022-.177.05-.257.084-.086.04-.168.076-.243.117a2.526 2.526 0 0 0-.19.122l-.21-.434c.06-.04.136-.089.222-.14.082-.046.178-.087.275-.127.104-.041.206-.077.316-.102.11-.026.22-.038.33-.038.172 0 .333.02.476.059a.95.95 0 0 1 .359.18.703.703 0 0 1 .226.287c.054.12.08.257.08.413v2.102h-.692v-1.171h-.908v-.486zM24.94 52.61h1.182v-.526h.68v.945h-2.04zM29.662 55.529c0 .041 0 .085.01.132.01.048.02.097.04.142.016.05.037.093.07.137a.48.48 0 0 0 .279.193.683.683 0 0 0 .217.031c.08 0 .16-.01.223-.031a.483.483 0 0 0 .279-.193.559.559 0 0 0 .074-.137 1.12 1.12 0 0 0 .04-.142c.005-.047.01-.09.01-.132v-3.19h.694v3.046c0 .1-.01.202-.028.302a1.234 1.234 0 0 1-.09.298 1.039 1.039 0 0 1-.414.473 1.304 1.304 0 0 1-.339.138 1.77 1.77 0 0 1-.449.053c-.165 0-.313-.018-.444-.053a1.34 1.34 0 0 1-.339-.138 1.06 1.06 0 0 1-.412-.473 1.559 1.559 0 0 1-.118-.6v-.933c0-.091 0-.168-.01-.243a2.225 2.225 0 0 0-.042-.411 9.74 9.74 0 0 0-.033-.188h.702c.021.07.034.136.044.201.01.069.016.132.026.189.002.062.006.128.01.186v1.343zM32.408 55.878c.082.065.16.12.233.158.074.04.14.066.205.085.064.015.12.027.174.034.054.005.097.006.13.006a.711.711 0 0 0 .205-.03.386.386 0 0 0 .135-.08.305.305 0 0 0 .08-.115c.023-.041.023-.083.023-.129a.297.297 0 0 0-.04-.153.387.387 0 0 0-.103-.122.985.985 0 0 0-.156-.095c-.064-.026-.127-.052-.19-.08a2.146 2.146 0 0 1-.372-.164 1.31 1.31 0 0 1-.273-.209.82.82 0 0 1-.17-.264.824.824 0 0 1 .017-.676c.054-.108.13-.2.228-.27.097-.076.21-.13.344-.175.13-.04.272-.057.434-.057.089 0 .176.006.258.024.093.018.176.034.253.065.082.026.158.055.227.085.066.033.123.06.174.083l-.205.438c-.024-.01-.059-.03-.104-.055a1.515 1.515 0 0 0-.172-.073 2.11 2.11 0 0 0-.217-.063c-.08-.012-.16-.025-.25-.025a.695.695 0 0 0-.172.025.389.389 0 0 0-.127.071.327.327 0 0 0-.073.103.314.314 0 0 0-.025.115c0 .049.011.098.035.14.027.045.06.08.106.117.045.033.098.068.164.104.06.031.133.062.213.092.143.062.27.122.376.182.106.061.198.126.268.198a.827.827 0 0 1 .158.244.818.818 0 0 1 .057.317.883.883 0 0 1-.277.645c-.1.086-.216.15-.36.203-.146.043-.316.07-.512.07a.953.953 0 0 1-.243-.027 1.075 1.075 0 0 1-.25-.064 1.548 1.548 0 0 1-.469-.276l.263-.402zM36.39 56.023a1.393 1.393 0 0 1-.24.075 4.825 4.825 0 0 1-.583.11c-.1.011-.194.016-.28.02-.206 0-.358-.033-.459-.11a.342.342 0 0 1-.135-.321l.001-.079c.008-.03.014-.064.027-.108.014-.041.029-.093.06-.151.024-.057.06-.122.11-.198l.57.181a1.846 1.846 0 0 0-.076.113.193.193 0 0 0-.028.093v.026c.005.01.005.023.016.03a.095.095 0 0 0 .037.025c.016.004.036.01.066.01.05 0 .106-.006.171-.01.067-.007.133-.02.206-.03a3.425 3.425 0 0 0 .438-.102l.099.426zm0-1.488a1.877 1.877 0 0 1-.24.07c-.09.025-.186.047-.285.065a2.38 2.38 0 0 1-.298.046c-.1.012-.194.019-.28.02-.206.004-.358-.035-.459-.111a.333.333 0 0 1-.135-.32l.001-.076c.008-.028.014-.068.027-.112.014-.041.029-.088.06-.144a.855.855 0 0 1 .11-.198l.57.176a1.506 1.506 0 0 0-.076.115.196.196 0 0 0-.028.095v.025c.005.012.005.02.016.028.004.008.018.016.037.023a.212.212 0 0 0 .066.007 2.056 2.056 0 0 0 .377-.035c.072-.008.15-.027.222-.043.077-.018.154-.038.215-.062l.1.43zM37.106 56.577v-1.685a.53.53 0 0 0-.011-.097.303.303 0 0 0-.131-.203.294.294 0 0 0-.141-.052l-.1-.374c.176-.137.34-.254.492-.335a2.61 2.61 0 0 1 .427-.188c.132-.047.26-.073.375-.086.117-.012.23-.018.33-.018.179 0 .332.018.462.049.137.035.246.082.34.139a.92.92 0 0 1 .365.46c.037.09.06.182.074.274.013.09.02.188.02.28v1.836h-.692v-1.919c0-.04-.003-.08-.01-.126a.596.596 0 0 0-.087-.28.684.684 0 0 0-.1-.12.707.707 0 0 0-.404-.115c-.158 0-.312.027-.458.076a1.92 1.92 0 0 0-.406.191c.117.058.21.147.266.256a.97.97 0 0 1 .08.41v1.627h-.691zM39.824 53.029h-1.578c-.166-.007-.292-.049-.373-.13-.083-.078-.12-.196-.12-.348v-.275h.582v.215c0 .029.008.052.012.067.007.017.02.028.029.039a.136.136 0 0 0 .049.013c.022 0 .047.006.074.008h1.505l-.18.41zM40.343 54.448c0-.087 0-.164-.005-.24a2.326 2.326 0 0 0-.02-.214l-.023-.197-.035-.187h.706c.017.07.032.136.04.201a3.074 3.074 0 0 1 .032.375v1.19c.004.116.012.22.029.316a.78.78 0 0 0 .082.25.44.44 0 0 0 .154.166.551.551 0 0 0 .501-.01c.086-.042.16-.1.23-.174a.85.85 0 0 0 .213-.583V53.61h.697v2.159c0 .06 0 .123.002.174 0 .055.005.108.005.167.006.058.009.128.016.198.006.071.01.16.016.27h-.635c-.004-.045-.008-.087-.008-.12a.644.644 0 0 1-.009-.11.799.799 0 0 1-.007-.107c0-.04 0-.083-.006-.133-.05.072-.106.143-.17.204a1.124 1.124 0 0 1-.485.282 1.151 1.151 0 0 1-.538.017 1.036 1.036 0 0 1-.444-.232.99.99 0 0 1-.175-.238c-.046-.09-.086-.2-.116-.325a1.868 1.868 0 0 1-.047-.44v-.928zM43.918 54.892a.522.522 0 0 0-.01-.098.476.476 0 0 0-.04-.106.344.344 0 0 0-.085-.096.367.367 0 0 0-.15-.052l-.097-.374c.174-.137.336-.254.485-.333.152-.083.297-.145.425-.19.132-.047.256-.073.372-.086.112-.012.224-.018.325-.018.177 0 .33.018.458.049.132.035.245.083.334.138a.806.806 0 0 1 .226.207c.06.08.108.164.139.253.031.09.056.178.068.277.01.089.018.186.018.279v1.835h-.69v-1.919c0-.04-.003-.08-.01-.126a.616.616 0 0 0-.024-.14.642.642 0 0 0-.055-.14.538.538 0 0 0-.1-.12.648.648 0 0 0-.395-.115 1.31 1.31 0 0 0-.444.076 1.891 1.891 0 0 0-.407.191.56.56 0 0 1 .267.256.95.95 0 0 1 .082.413v.875c0 .134-.015.244-.048.34a.667.667 0 0 1-.137.245.612.612 0 0 1-.205.146.797.797 0 0 1-.262.052c-.017 0-.04 0-.081-.005-.042-.003-.083-.01-.128-.014a1.105 1.105 0 0 1-.14-.023.552.552 0 0 1-.123-.025l.107-.418c.052.015.099.034.13.035.033.007.064.007.09.007.03-.002.046-.007.06-.027a.122.122 0 0 0 .033-.048c.006-.024.012-.042.012-.064v-1.137zM46.606 53.029h-1.579c-.167-.007-.292-.049-.376-.13-.08-.078-.123-.196-.123-.348v-.275h.59v.215c0 .029.006.052.01.067a.076.076 0 0 0 .025.039.136.136 0 0 0 .053.013c.021 0 .047.006.078.008h1.498l-.176.41zM48.397 56.164a.922.922 0 0 0 .322-.054.533.533 0 0 0 .203-.135.53.53 0 0 0 .107-.188.898.898 0 0 0 .029-.208v-1.97h.693v1.905c0 .096-.007.195-.026.288a.99.99 0 0 1-.27.503 1.232 1.232 0 0 1-.603.298 2.193 2.193 0 0 1-.455.043c-.086 0-.18-.004-.276-.025a1.647 1.647 0 0 1-.306-.067 2.646 2.646 0 0 1-.281-.122 1.766 1.766 0 0 1-.24-.174.854.854 0 0 1-.16-.235.676.676 0 0 1-.069-.298.752.752 0 0 1 .151-.458c.05-.06.105-.117.168-.166.056-.05.126-.095.193-.134a.764.764 0 0 1-.191-.101.748.748 0 0 1-.278-.334.657.657 0 0 1 .037-.546.747.747 0 0 1 .226-.231.923.923 0 0 1 .325-.148 1.69 1.69 0 0 1 .415-.05h.028l.037.001h.065l.138.476c-.036-.005-.063-.005-.083-.008-.022-.005-.037-.005-.047-.005-.011 0-.016-.004-.016-.004h-.018a.632.632 0 0 0-.318.092.29.29 0 0 0-.093.1.228.228 0 0 0-.041.13c0 .053.007.103.027.148a.29.29 0 0 0 .09.106.44.44 0 0 0 .136.073c.054.017.11.027.18.027.014 0 .041 0 .07-.003a.457.457 0 0 0 .113-.024l.139.394a3.02 3.02 0 0 0-.185.055c-.06.018-.118.044-.174.07a2.188 2.188 0 0 0-.154.086.504.504 0 0 0-.125.103.338.338 0 0 0-.084.133.342.342 0 0 0-.033.158c0 .088.021.163.052.223a.689.689 0 0 0 .154.158c.057.045.127.07.202.087a.827.827 0 0 0 .226.031"/>
            <path d="M10.357 16.935c1.453-1.795 3.15-3.662 5.32-5.737a63.285 63.285 0 0 1 5.965-5.105c2.063-1.55 4.697-1.606 6.725-.015 1.873 1.413 3.797 3.032 5.967 5.12 2.167 2.071 3.867 3.926 5.328 5.724 1.714 2.112 1.714 4.343-.004 6.452a63.977 63.977 0 0 1-5.327 5.732c-2.171 2.084-4.09 3.695-5.96 5.099-2.074 1.558-4.655 1.555-6.721 0-1.868-1.404-3.802-3.03-5.965-5.104-2.167-2.073-3.856-3.928-5.309-5.727-1.618-1.973-1.677-4.492-.02-6.439" fill="#1B1464" mask="url(#0lm3dhhf0b)"/>
            <path d="M8.842 20.574c.19 1.001.658 1.85 1.439 2.807 1.459 1.792 3.237 3.647 5.404 5.72a63.977 63.977 0 0 0 5.965 5.107c.873.657 1.853 1.044 2.822 1.136-1.99-.479-4.897-3.532-3.358-9.06 1.47-5.258 3.84-9.09 5.022-11.448l.036-.066c2.416-4.53-.989-6.066-3.65-3.8 1.888-2.606 6.214-6.85 7.718-8.41 1.491-1.557.43-3.153-2.557-2.34-6.136 1.844-13.771 7.612-17.326 14.408-1.196 2.257-1.704 4.23-1.515 5.946" fill="#E01F26" mask="url(#0lm3dhhf0b)"/>
        </g>
    </g>
</svg>
