<svg width="71" height="71" viewBox="0 0 71 71" xmlns="http://www.w3.org/2000/svg" xmlns:xlink="http://www.w3.org/1999/xlink">
    <defs>
        <linearGradient x1="50.063%" y1="100.249%" x2="50.063%" y2="-.052%" id="i1iq2b64mc">
            <stop stop-color="#741113" offset="0%"/>
            <stop stop-color="#DC1E33" offset="100%"/>
        </linearGradient>
        <linearGradient x1="50.136%" y1="100.18%" x2="50.136%" y2="-.13%" id="qk0ki9czxd">
            <stop stop-color="#CCC" offset="0%"/>
            <stop stop-color="#A6A6A6" offset="8.791%"/>
            <stop stop-color="#262626" offset="40%"/>
            <stop stop-color="#E6E6E6" offset="50%"/>
            <stop stop-color="#BFBFBF" offset="100%"/>
        </linearGradient>
        <linearGradient x1="50.147%" y1="100.126%" x2="50.147%" y2="-.07%" id="3jkjwivcoe">
            <stop stop-color="#404040" offset="0%"/>
            <stop stop-color="#999" offset="27.47%"/>
            <stop stop-color="#E6E6E6" offset="50%"/>
            <stop stop-color="#999" offset="86.26%"/>
            <stop stop-color="#262626" offset="100%"/>
        </linearGradient>
        <path id="to5we3lusa" d="M0 56.296h37.95V0H0z"/>
    </defs>
    <g fill="none" fill-rule="evenodd">
        <path fill="#231915" d="m37.359 45.99-2.197 5.614-2.196-5.613h-1.56v6.678h.987V46.83l2.29 5.839h.962l2.287-5.839v5.839h.989v-6.678z"/>
        <g transform="translate(17.163 6.097)">
            <path d="M.612 45.543a5.086 5.086 0 0 0 2.069.467c.832 0 1.674-.327 1.674-1.128 0-.672-.67-1.036-1.512-1.35l-.605-.235c-.809-.32-1.603-.8-1.603-1.7 0-1.274 1.436-1.801 2.734-1.801.685 0 1.25.08 1.876.258l-.077.728a5.347 5.347 0 0 0-1.78-.318c-.826 0-1.593.328-1.593 1.022 0 .55.556.849 1.311 1.142l.588.229c.986.37 1.845.879 1.845 1.878 0 1.291-1.246 1.944-2.792 1.944-.65 0-1.608-.156-2.198-.358l.063-.778zM24.305 43.22h1.064c.98 0 1.58-.514 1.58-1.394 0-.879-.667-1.251-1.58-1.251h-1.064v2.645zm-1.086 3.352v-6.677h2.08c1.463 0 2.794.43 2.794 1.922 0 1.552-1.32 2.092-2.872 2.092h-.916v2.663H23.22zM32.196 45.966c1.6 0 2.235-1.485 2.235-2.726 0-1.244-.624-2.726-2.235-2.726-1.576 0-2.233 1.509-2.233 2.726 0 1.215.634 2.726 2.233 2.726m-3.39-2.726c0-1.87 1.141-3.449 3.39-3.449 2.293 0 3.39 1.504 3.39 3.449 0 1.944-1.162 3.447-3.39 3.447-2.226 0-3.39-1.58-3.39-3.447M9.701 45.966c1.6 0 2.235-1.485 2.235-2.726 0-1.244-.623-2.726-2.235-2.726-1.575 0-2.232 1.509-2.232 2.726 0 1.215.634 2.726 2.232 2.726M6.312 43.24c0-1.87 1.142-3.449 3.39-3.449 2.293 0 3.39 1.504 3.39 3.449 0 1.944-1.164 3.447-3.39 3.447-2.227 0-3.39-1.58-3.39-3.447" fill="#231915"/>
            <path d="M35.586 49.619H4.553A14.88 14.88 0 0 1 0 56.296h35.586v-6.677z" fill="#CB1337"/>
            <mask id="eiyt6bvvtb" fill="#fff">
                <use xlink:href="#to5we3lusa"/>
            </mask>
            <path fill="#FFF" mask="url(#eiyt6bvvtb)" d="M6.648 54.572h.565v-3.23h-.565zM7.882 51.343h.598l1.474 2.379h.009v-2.38h.538v3.23h-.597l-1.47-2.375h-.013v2.375h-.539zM11.541 53.495c0 .124.021.23.063.317a.57.57 0 0 0 .177.215.747.747 0 0 0 .26.122 1.26 1.26 0 0 0 .635-.005.637.637 0 0 0 .213-.11.402.402 0 0 0 .118-.156.47.47 0 0 0 .036-.18c0-.123-.028-.214-.084-.273a.483.483 0 0 0-.183-.124 3.867 3.867 0 0 0-.4-.12c-.153-.038-.34-.086-.563-.147a1.21 1.21 0 0 1-.347-.142.827.827 0 0 1-.219-.197.694.694 0 0 1-.115-.23.93.93 0 0 1-.034-.25.84.84 0 0 1 .37-.719c.112-.078.239-.136.38-.174a1.695 1.695 0 0 1 .907.009c.15.044.281.11.394.197a.968.968 0 0 1 .27.323c.065.128.099.277.099.446h-.566c-.015-.208-.086-.355-.212-.441a.846.846 0 0 0-.484-.13 1.03 1.03 0 0 0-.204.021.638.638 0 0 0-.19.068.415.415 0 0 0-.142.13.348.348 0 0 0-.057.202c0 .115.036.205.107.27.07.065.163.113.278.147l.142.038.278.075.301.079c.098.025.168.044.21.056a.944.944 0 0 1 .276.136.816.816 0 0 1 .314.434.875.875 0 0 1 .04.254c0 .18-.038.335-.112.463a.94.94 0 0 1-.291.315 1.27 1.27 0 0 1-.412.178 1.97 1.97 0 0 1-.99-.011 1.214 1.214 0 0 1-.426-.208 1.016 1.016 0 0 1-.289-.36 1.197 1.197 0 0 1-.113-.518h.565zM14.065 51.343h.565v1.881c0 .109.005.219.016.33a.75.75 0 0 0 .09.301c.05.089.125.162.226.22.102.057.244.085.428.085s.326-.028.427-.086a.577.577 0 0 0 .226-.219c.05-.089.08-.19.09-.3a3.55 3.55 0 0 0 .017-.331v-1.881h.565v2.066c0 .209-.032.39-.095.543a1.037 1.037 0 0 1-.27.387 1.116 1.116 0 0 1-.418.233 1.804 1.804 0 0 1-.542.077c-.2 0-.38-.026-.543-.077a1.121 1.121 0 0 1-.418-.233 1.042 1.042 0 0 1-.27-.387 1.422 1.422 0 0 1-.094-.543v-2.066zM17.931 52.812h.928c.18 0 .318-.043.411-.129.094-.086.14-.214.14-.386a.6.6 0 0 0-.045-.251.368.368 0 0 0-.124-.152.458.458 0 0 0-.181-.072 1.21 1.21 0 0 0-.21-.018h-.919v1.008zm-.565-1.47h1.542c.356 0 .623.077.8.23.179.155.268.37.268.643a.938.938 0 0 1-.068.382.83.83 0 0 1-.158.245.615.615 0 0 1-.18.133 1.459 1.459 0 0 1-.128.054v.01c.048.006.1.02.156.045a.46.46 0 0 1 .156.115.629.629 0 0 1 .12.206.91.91 0 0 1 .048.317c0 .19.014.362.042.518.03.155.074.266.134.332h-.606a.523.523 0 0 1-.075-.23 2.66 2.66 0 0 1-.011-.245 2.35 2.35 0 0 0-.027-.382.674.674 0 0 0-.1-.267.423.423 0 0 0-.197-.156.864.864 0 0 0-.318-.05h-.833v1.33h-.565v-3.23zM21.215 53.287h.986l-.484-1.388h-.014l-.488 1.388zm.199-1.945h.601l1.244 3.23h-.606l-.303-.855h-1.289l-.303.855h-.583l1.239-3.23zM23.544 51.343h.597l1.475 2.379h.009v-2.38h.538v3.23h-.597l-1.47-2.375h-.014v2.375h-.538zM29.012 52.37a1.156 1.156 0 0 0-.1-.259.715.715 0 0 0-.395-.337.922.922 0 0 0-.31-.047.905.905 0 0 0-.446.104.878.878 0 0 0-.305.278 1.252 1.252 0 0 0-.174.396 1.823 1.823 0 0 0 0 .904c.038.148.096.28.174.396.079.116.18.21.305.278.126.07.274.104.446.104a.744.744 0 0 0 .584-.246.854.854 0 0 0 .162-.27 1.28 1.28 0 0 0 .077-.33h.552c-.012.194-.054.37-.125.53a1.27 1.27 0 0 1-.712.683 1.47 1.47 0 0 1-.538.095c-.241 0-.458-.045-.65-.134a1.426 1.426 0 0 1-.485-.364 1.624 1.624 0 0 1-.306-.538 1.993 1.993 0 0 1-.106-.656c0-.229.035-.446.106-.651.071-.205.173-.385.306-.538a1.451 1.451 0 0 1 1.135-.502c.18 0 .351.024.51.074.16.05.302.122.424.217a1.127 1.127 0 0 1 .436.812h-.565zM30.097 51.343h2.325v.488h-1.76v.846h1.629v.461h-1.628v.945h1.79v.489h-2.356z"/>
        </g>
        <g fill-rule="nonzero">
            <path d="M14.377 5.834c7.988 0 14.378 6.459 14.378 14.308 0 7.95-6.49 14.308-14.377 14.308C6.39 34.45 0 27.992 0 20.142S6.39 5.834 14.377 5.834z" fill="url(#i1iq2b64mc)" transform="translate(20.775 6.097)"/>
            <path d="M46.077 35.523c1.092-1.289 1.885-2.677 2.48-4.263-1.984 1.586-4.563 2.478-7.242 2.478-6.45 0-11.808-5.253-11.808-11.795 0-4.263 2.282-7.93 5.656-10.012-1.687 0-3.275.297-4.763.793-2.084 2.478-3.374 5.75-3.374 9.219 0 7.93 6.45 14.274 14.289 14.274 1.587.099 3.274-.1 4.762-.694z" fill="#680508" opacity=".5"/>
            <path d="M0 14.308c0 7.949 6.49 14.308 14.377 14.308 7.988 0 14.378-6.458 14.378-14.308C28.755 6.359 22.265 0 14.378 0 6.49 0 0 6.36 0 14.308zm27.157 0c0 6.955-5.69 12.619-12.68 12.619-6.989 0-12.68-5.664-12.68-12.619S7.488 1.689 14.477 1.689c6.99 0 12.68 5.664 12.68 12.619z" fill="url(#qk0ki9czxd)" transform="translate(26.61 6.097)"/>
            <path d="M1.298 14.308c0 7.253 5.89 13.016 13.08 13.016 7.188 0 13.079-5.862 13.079-13.016s-5.89-13.016-13.08-13.016c-7.188 0-13.079 5.862-13.079 13.016zm24.96 0c0 6.558-5.29 11.824-11.88 11.824-6.49 0-11.882-5.266-11.882-11.824S7.788 2.484 14.377 2.484c6.59 0 11.882 5.366 11.882 11.824z" fill="url(#3jkjwivcoe)" transform="translate(26.61 6.097)"/>
        </g>
    </g>
</svg>
