<svg width="71" height="71" viewBox="0 0 71 71" xmlns="http://www.w3.org/2000/svg" xmlns:xlink="http://www.w3.org/1999/xlink">
    <defs>
        <path id="cahefv329a" d="M0 38.172h70.218V0H0z"/>
    </defs>
    <g transform="translate(.355 14.94)" fill="none" fill-rule="evenodd">
        <path d="M47.318 0v7.222l2.625-3.127c.491-.585.893-1.688.893-2.446V0h-3.518z" fill="#1DB9EC"/>
        <path d="m49.943 10.707-2.625-3.13v14.76h3.518v-9.18c0-.768-.402-1.866-.893-2.45zM19.38 22.337h3.516V7.748h-3.516v14.59zm22.506-8.455c0 .784-.573 2.347-2.517 2.347h-2.794v-3.477c0-1.232 1.136-2.263 2.417-2.263h.456c1.894 0 2.438 1.67 2.438 2.458v.935zm-2.63-6.453c-3.592 0-6.17 2.362-6.201 5.292v9.333l-5.882-7.01L33.29 7.75h-4.441l-4.528 5.39a3.013 3.013 0 0 0 0 3.814l4.528 5.384h7.758v-4.15c.304.407 1.523 1.104 2.731 1.104h.12c2.844 0 5.915-2.055 5.915-5.221v-1.32c0-2.94-2.626-5.322-6.116-5.322zM8.398 38.139l-.66-1.179-.389.462v.717h-.487v-2.434h.487v.686c0 .091-.004.314-.008.388.035-.056.125-.17.192-.247l.682-.827h.588l-.712.838.896 1.596h-.59zM10.414 36.17H9.78v.633h.633c.228 0 .349-.108.349-.32 0-.218-.131-.312-.35-.312zm.287 1.969-.435-.88H9.78v.88h-.488v-2.435h1.131c.46 0 .841.252.841.77 0 .366-.158.594-.464.716l.464.949h-.564zM12.642 38.172c-.587 0-.982-.393-.982-1.104v-1.364h.487v1.356c0 .393.187.638.495.638.31 0 .504-.237.504-.63v-1.364h.489v1.356c0 .708-.373 1.112-.993 1.112M15.697 38.139l-.892-1.33c-.059-.092-.14-.216-.17-.277 0 .091.007.397.007.532v1.075h-.481v-2.434h.465l.863 1.281c.061.096.139.213.168.276l-.003-.532v-1.025h.48v2.434h-.437zM17.618 38.172c-.638 0-1.063-.483-1.063-1.254 0-.74.443-1.257 1.077-1.257.503 0 .764.232.923.612l-.464.188c-.089-.177-.203-.314-.464-.314-.365 0-.573.32-.573.77 0 .451.211.78.578.78.33 0 .447-.157.473-.368h-.384v-.456h.875v.323c0 .623-.415.976-.978.976M20.046 36.18v1.959h-.487V36.18h-.7v-.477h1.886v.477zM22.576 38.139v-1.025h-.997v1.025h-.487v-2.434h.487v.927h.997v-.927h.489v2.434zM24.684 36.69c-.05-.143-.096-.293-.123-.38-.023.087-.074.237-.12.38l-.157.44h.556l-.156-.44zm.514 1.449-.192-.547h-.89l-.192.547h-.52l.929-2.435h.475l.928 2.435h-.538z" fill="#2A598D"/>
        <mask id="atz8bjfjtb" fill="#fff">
            <use xlink:href="#cahefv329a"/>
        </mask>
        <path fill="#2A598D" mask="url(#atz8bjfjtb)" d="M26.088 38.139h.49v-2.435h-.49zM30.06 36.17h-.562v.633h.57c.227 0 .348-.108.348-.32 0-.21-.142-.312-.356-.312m-.023 1.103h-.539v.865h-.483v-2.435h1.063c.46 0 .838.252.838.77 0 .562-.377.8-.88.8M32.17 36.69a7.299 7.299 0 0 1-.123-.38c-.024.087-.076.237-.123.38l-.156.44h.556l-.154-.44zm.513 1.449-.193-.547h-.888l-.194.547h-.52l.932-2.435h.474l.927 2.435h-.538zM35.095 38.139l-.895-1.33c-.057-.092-.138-.216-.167-.277l.003.532v1.075h-.48v-2.434h.466l.866 1.281c.057.096.137.213.17.276 0-.089-.007-.394-.007-.532v-1.025h.48v2.434h-.436zM36.091 38.139h.486v-2.435h-.486zM38.538 36.41a.462.462 0 0 0-.443-.263c-.366 0-.573.32-.573.77 0 .44.21.773.575.773.218 0 .35-.092.477-.31l.41.245c-.165.347-.459.547-.903.547-.633 0-1.065-.483-1.065-1.254 0-.74.45-1.257 1.084-1.257.46 0 .741.225.89.542l-.452.207zM40.84 38.139v-1.025h-.994v1.025h-.492v-2.434h.492v.927h.995v-.927h.488v2.434zM43.765 38.139h.485v-2.435h-.485zM46.354 38.139l-.898-1.33c-.057-.092-.136-.216-.17-.277 0 .091.01.397.01.532v1.075h-.48v-2.434h.465l.863 1.281c.06.096.141.213.17.276 0-.089-.006-.394-.006-.532v-1.025h.481v2.434h-.435zM48.115 38.172c-.402 0-.757-.167-.946-.44l.355-.31a.784.784 0 0 0 .621.276c.29 0 .423-.08.423-.263 0-.16-.08-.228-.542-.332-.447-.106-.763-.246-.763-.724 0-.445.394-.718.87-.718.38 0 .658.147.891.388l-.354.337c-.158-.156-.333-.252-.555-.252-.26 0-.348.114-.348.22 0 .156.105.203.492.295.384.09.814.223.814.75 0 .464-.29.773-.958.773M50.439 38.172c-.59 0-.987-.393-.987-1.104v-1.364h.486v1.356c0 .393.188.638.5.638.308 0 .5-.237.5-.63v-1.364h.489v1.356c0 .708-.371 1.112-.988 1.112M53.076 36.17h-.634v.633h.634c.227 0 .349-.108.349-.32 0-.218-.132-.312-.35-.312zm.293 1.969-.44-.88h-.487v.88h-.49v-2.435h1.135c.46 0 .842.252.842.77 0 .366-.158.594-.469.716l.469.949h-.56zM55.492 36.69c-.045-.143-.097-.293-.121-.38a5.745 5.745 0 0 1-.124.38l-.151.44h.556l-.16-.44zm.516 1.449-.19-.547h-.893l-.189.547h-.524l.933-2.435h.478l.922 2.435h-.537zM58.422 38.139l-.895-1.33a3.283 3.283 0 0 1-.167-.277l.003.532v1.075h-.48v-2.434h.467l.862 1.281c.059.096.14.213.172.276 0-.089-.008-.394-.008-.532v-1.025h.481v2.434h-.435zM60.794 36.41a.457.457 0 0 0-.44-.263c-.372 0-.578.32-.578.77 0 .44.212.773.578.773.218 0 .348-.092.478-.31l.41.245c-.166.347-.459.547-.902.547-.635 0-1.066-.483-1.066-1.254 0-.74.446-1.257 1.084-1.257.463 0 .737.225.892.542l-.456.207zM61.613 38.139v-2.434h1.692v.473H62.1v.421h.698v.474H62.1v.587h1.255v.479zM2.782 32.894v-3.09a.593.593 0 0 0-.083-.325.642.642 0 0 0-.211-.204 1.002 1.002 0 0 0-.29-.118 1.465 1.465 0 0 0-.627 0 .893.893 0 0 0-.292.118.695.695 0 0 0-.212.204.61.61 0 0 0-.081.324v3.09H0v-3.146c0-.268.06-.487.181-.664.123-.186.277-.334.464-.443.188-.111.389-.19.608-.237.224-.05.433-.072.628-.072.204 0 .419.022.638.072.223.048.423.126.606.237.187.11.34.257.458.443.122.177.181.396.181.664v3.147h-.982zM8.03 31.426c0 .276-.051.51-.152.7a1.381 1.381 0 0 1-.42.477 1.812 1.812 0 0 1-.6.27 3.074 3.074 0 0 1-.709.082c-.39 0-.722-.039-.994-.11a2.781 2.781 0 0 1-.706-.288v-.884c.252.177.519.305.801.383.277.08.541.119.786.119.118 0 .238-.013.361-.035a1.18 1.18 0 0 0 .333-.106.68.68 0 0 0 .241-.21.557.557 0 0 0 .091-.323.556.556 0 0 0-.207-.458c-.141-.11-.371-.183-.686-.226a6.805 6.805 0 0 1-.645-.104 2.19 2.19 0 0 1-.571-.196 1.153 1.153 0 0 1-.402-.353c-.109-.15-.156-.343-.156-.584 0-.191.044-.362.137-.517.094-.152.22-.282.38-.392.156-.112.338-.193.548-.25.208-.06.431-.09.665-.09.227 0 .434.015.614.048.182.028.346.065.485.105.142.045.262.091.36.143.104.055.187.106.252.154v.85a1.26 1.26 0 0 0-.307-.213 2.682 2.682 0 0 0-.399-.16 3.1 3.1 0 0 0-.42-.103 2.25 2.25 0 0 0-.401-.036c-.288 0-.518.042-.684.13-.168.086-.249.187-.249.317 0 .077.03.132.089.178.062.048.14.087.241.113.099.031.21.052.33.07l.361.056c.232.034.447.08.646.14.2.07.371.155.518.266.147.115.263.257.344.426.085.165.125.37.125.611M17.931 32.894v-3.11c0-.225-.052-.388-.156-.492-.103-.106-.257-.159-.45-.159-.17 0-.334.033-.482.091-.143.065-.27.137-.375.225a1.14 1.14 0 0 0-.248.303.62.62 0 0 0-.092.298v2.844h-.984V28.41h.984v.46c.075-.065.155-.122.25-.188a1.729 1.729 0 0 1 .647-.283c.125-.034.253-.046.389-.046.22 0 .419.026.605.083.18.055.337.14.47.258.13.115.233.263.31.446.075.186.114.399.114.656v3.098h-.982zM28.523 32.894h-.94l-.898-2.938-.903 2.938h-.938l-1.023-4.484h.959l.642 3.05.86-2.816-.08-.234h.824l.922 3.05.641-3.05h.956zM31.545 32.894v-3.16a.54.54 0 0 0-.2-.445c-.136-.111-.352-.17-.655-.17-.184 0-.361.021-.53.063-.174.042-.325.1-.464.176v-.805c.141-.069.306-.126.494-.163.19-.04.397-.06.616-.06.325 0 .6.042.821.12.223.079.399.18.534.314.133.13.23.288.284.46.058.174.083.357.083.548v3.122h-.983zM36.087 32.894v-.465a2.474 2.474 0 0 1-.25.195 1.728 1.728 0 0 1-.3.169c-.107.051-.224.09-.348.118-.125.03-.255.044-.39.044-.222 0-.418-.028-.6-.08a1.235 1.235 0 0 1-.475-.257 1.089 1.089 0 0 1-.31-.453 1.653 1.653 0 0 1-.116-.655v-3.1h.99v3.122c0 .224.052.39.151.495.1.1.249.155.45.155.171 0 .332-.031.481-.092a1.34 1.34 0 0 0 .382-.226c.105-.091.186-.19.247-.298a.677.677 0 0 0 .088-.315v-2.84h.979v4.483h-.98zM45.53 32.23c-.112.18-.252.327-.431.436-.18.111-.381.187-.608.235a3.28 3.28 0 0 1-1.325 0 1.918 1.918 0 0 1-.61-.235 1.366 1.366 0 0 1-.447-.435c-.117-.18-.173-.405-.173-.67v-3.15h.989v3.095c0 .128.025.235.083.325a.724.724 0 0 0 .21.21c.087.05.185.086.287.114a1.543 1.543 0 0 0 .628 0c.104-.028.205-.063.29-.114a.783.783 0 0 0 .22-.21.625.625 0 0 0 .083-.325v-4.098h.976v4.153c0 .265-.057.49-.172.67M49.948 31.426c0 .276-.05.51-.155.7a1.34 1.34 0 0 1-.417.477 1.844 1.844 0 0 1-.6.27c-.23.054-.467.082-.713.082-.388 0-.722-.039-.99-.11a2.775 2.775 0 0 1-.706-.288v-.884c.255.177.518.305.8.383.279.08.545.119.786.119.118 0 .24-.013.362-.035.126-.021.234-.057.333-.106a.68.68 0 0 0 .245-.21.562.562 0 0 0 .086-.323.55.55 0 0 0-.205-.458c-.143-.11-.369-.183-.688-.226a6.884 6.884 0 0 1-.646-.104 2.125 2.125 0 0 1-.564-.196 1.131 1.131 0 0 1-.41-.353c-.102-.15-.155-.343-.155-.584 0-.191.045-.362.138-.517.092-.152.222-.282.377-.392a1.74 1.74 0 0 1 .549-.25c.214-.06.433-.09.666-.09.23 0 .434.015.616.048.181.028.345.065.483.105.143.045.264.091.365.143.1.055.182.106.252.154v.85a1.342 1.342 0 0 0-.314-.213 3.001 3.001 0 0 0-.815-.263 2.257 2.257 0 0 0-.4-.036c-.29 0-.516.042-.687.13-.166.086-.251.187-.251.317 0 .077.033.132.092.178.061.048.143.087.241.113.098.031.207.052.33.07.122.02.244.038.362.056.231.034.448.08.648.14.194.07.364.155.517.266a1.2 1.2 0 0 1 .34.426c.085.165.128.37.128.611M55.5 32.894v-3.09a.606.606 0 0 0-.082-.325.636.636 0 0 0-.214-.204.923.923 0 0 0-.29-.118 1.425 1.425 0 0 0-.625 0 .879.879 0 0 0-.29.118.681.681 0 0 0-.214.204.65.65 0 0 0-.086.324v3.09h-.983v-3.146c0-.268.058-.487.185-.664.12-.186.274-.334.465-.443.184-.111.387-.19.609-.237a2.843 2.843 0 0 1 1.264 0c.219.048.425.126.608.237.183.11.335.257.456.443.12.177.18.396.18.664v3.147H55.5zM60.038 32.894v-.465a3.164 3.164 0 0 1-.247.195c-.09.064-.193.121-.3.169a1.822 1.822 0 0 1-.737.162c-.221 0-.424-.028-.604-.08a1.27 1.27 0 0 1-.473-.257 1.135 1.135 0 0 1-.313-.453c-.07-.181-.11-.4-.11-.655v-3.1h.984v3.122c0 .224.05.39.156.495.1.1.247.155.448.155.174 0 .333-.031.481-.092a1.28 1.28 0 0 0 .379-.226c.105-.091.19-.19.244-.298a.673.673 0 0 0 .092-.315v-2.84h.983v4.483h-.983zM41.18 30.192a1.741 1.741 0 0 0-.616-.854 1.639 1.639 0 0 0-.41-.23l1.043-.698h-1.36l-.903.836c.493.143.84.341 1.045.604.212.256.314.574.314.956 0 .232-.04.435-.121.613a1.281 1.281 0 0 1-.794.697 1.637 1.637 0 0 1-.557.066V28.41h-.984v4.42c.525.106.998.137 1.42.098.424-.038.785-.145 1.083-.32.3-.18.53-.416.691-.717.164-.3.244-.665.244-1.085 0-.226-.032-.43-.095-.614M65.548 29.083a1.39 1.39 0 0 0-.453-.443 2.003 2.003 0 0 0-.606-.237 2.802 2.802 0 0 0-1.264 0 2.034 2.034 0 0 0-.613.237 1.41 1.41 0 0 0-.464.443c-.127.177-.181.396-.181.665v2.43h-.525v.716h1.509v-3.09a.63.63 0 0 1 .083-.325.736.736 0 0 1 .214-.204.918.918 0 0 1 .288-.118 1.456 1.456 0 0 1 .63 0c.105.025.2.063.288.118a.578.578 0 0 1 .3.528v3.09h.978v-3.145c0-.269-.06-.488-.184-.665M6.32 33.348v.667h.53v.73h.986v-1.397zM22.413 28.41v3.717h-.774c-.134.005-.27 0-.405-.008a1.263 1.263 0 0 1-.368-.085.707.707 0 0 1-.27-.21.586.586 0 0 1-.103-.368c0-.127.031-.248.097-.35a.786.786 0 0 1 .263-.25c.115-.065.252-.113.411-.143.111-.023.238-.032.365-.032h.194l-.001-.683h-.472a1.283 1.283 0 0 1-.512-.078.512.512 0 0 1-.199-.145.362.362 0 0 1-.077-.233c0-.087.03-.157.091-.222a.606.606 0 0 1 .233-.163c.102-.034.214-.054.342-.056.124 0 .255.015.387.047v-.769a3.254 3.254 0 0 0-.791-.014c-.246.035-.46.093-.641.188-.186.096-.33.224-.44.38-.108.165-.16.369-.16.585 0 .119.02.233.066.331.05.102.106.192.18.264.071.078.151.137.241.185.09.05.177.082.265.094a1.49 1.49 0 0 0-.283.138 1.151 1.151 0 0 0-.536.98c0 .294.052.519.159.703.111.183.249.327.43.425.174.107.376.172.603.208.226.037.46.05.701.048h1.982V28.41h-.978zM69.236 28.41v3.717h-.775c-.132.005-.267 0-.404-.008a1.294 1.294 0 0 1-.366-.085.674.674 0 0 1-.265-.21.57.57 0 0 1-.106-.368c0-.127.03-.248.097-.35a.77.77 0 0 1 .262-.25c.115-.065.249-.113.408-.143.116-.023.236-.032.367-.032h.192v-.683h-.472a1.32 1.32 0 0 1-.514-.078.545.545 0 0 1-.197-.145.36.36 0 0 1-.072-.233.3.3 0 0 1 .088-.222.564.564 0 0 1 .234-.163c.097-.034.209-.054.339-.056.123 0 .254.015.388.047v-.769c-.28-.04-.541-.04-.79-.014a2.021 2.021 0 0 0-.646.188 1.193 1.193 0 0 0-.436.38 1.07 1.07 0 0 0-.162.585c0 .119.022.233.07.331a.946.946 0 0 0 .684.543c-.09.034-.183.076-.281.138a1.2 1.2 0 0 0-.463.56c-.051.122-.077.259-.077.42 0 .294.055.519.164.703.108.183.247.327.421.425.18.107.38.172.61.208.225.037.456.05.7.048h1.983V28.41h-.98zM13.144 25.976H11.65l-.514.606h1.807c.355.024.534.133.534.31 0 .102-.052.216-.15.343-.188.247-.281.529-.281.723v4.936h.982l-.005-4.841c0-.291.149-.517.236-.66.139-.233.232-.381.232-.63 0-.526-.448-.787-1.347-.787M11.978 29.508a1.757 1.757 0 0 0-.451-.703c-.2-.18-.445-.31-.74-.38a3.339 3.339 0 0 0-1.02-.087v.785c.267 0 .483.032.661.093.176.065.317.154.425.272.107.123.185.273.23.448.043.177.065.393.065.625 0 .273-.029.532-.1.723a1.259 1.259 0 0 1-.285.48c-.122.131-.263.235-.422.292-.159.06-.275.084-.53.098l-.586-3.816-.786.939.6 3.632c.536.064.932.06 1.329-.014.397-.073.727-.212.989-.417.257-.203.451-.464.582-.788a3.11 3.11 0 0 0 .194-1.14c0-.406-.054-.754-.155-1.042M33.88 27.253l-.512.609h3.698v-.61zM57.838 27.253h-2.364v-.442h-.99v1.05h2.845zM66.882 27.253h-2.356v-.442h-.993v1.05h2.845zM52.205 29.322h-.788v-.394h-.982v1.038h1.23zM52.205 31.684h-.788v-.393h-.982v1.036h1.23z"/>
    </g>
</svg>
