<svg width="71" height="71" viewBox="0 0 71 71" xmlns="http://www.w3.org/2000/svg" xmlns:xlink="http://www.w3.org/1999/xlink">
    <defs>
        <path id="w6rusa9j1a" d="M0 49.391h49.391V0H0z"/>
    </defs>
    <g fill="none" fill-rule="evenodd">
        <path fill="#00A44F" d="M10.804 60.196h49.392V10.804H10.804z"/>
        <g transform="translate(10.804 10.804)">
            <path d="M17.662 35.202c-.289 0-.521-.077-.7-.232-.176-.154-.265-.377-.265-.67v-1.486h.474v1.44c0 .174.04.309.12.4.08.092.203.137.371.137.168 0 .292-.045.372-.136.08-.092.12-.227.12-.402V31.68h.474V34.3c0 .293-.09.516-.27.67-.179.155-.412.232-.696.232M20.795 34.464c0 .098-.02.19-.058.278a.692.692 0 0 1-.173.234.847.847 0 0 1-.29.164c-.116.04-.253.062-.41.062-.218 0-.397-.033-.54-.097a1.466 1.466 0 0 1-.425-.307l.293-.316c.102.101.2.177.296.228a.78.78 0 0 0 .366.076c.175 0 .296-.031.365-.094a.297.297 0 0 0 .103-.228.224.224 0 0 0-.106-.202.763.763 0 0 0-.24-.096l-.187-.041a1.648 1.648 0 0 1-.559-.22c-.134-.09-.202-.235-.202-.43 0-.19.07-.354.208-.488.138-.135.346-.202.623-.202.168 0 .32.028.457.082.136.055.273.136.41.246l-.316.298a1.208 1.208 0 0 0-.264-.16.71.71 0 0 0-.287-.056c-.132 0-.227.026-.284.082a.267.267 0 0 0-.084.198c0 .063.032.11.1.144.065.033.155.065.268.096l.217.053c.097.024.19.053.278.087.088.036.164.08.231.132a.548.548 0 0 1 .155.196.654.654 0 0 1 .055.281M21.41 34.242a.636.636 0 0 0 .022.15c.012.036.027.055.047.055h.615v.41h-.662a.476.476 0 0 1-.158-.03.361.361 0 0 1-.146-.103.611.611 0 0 1-.108-.19.93.93 0 0 1-.05-.292h.44zm0-1.141a.639.639 0 0 0 .022.15c.012.036.027.054.047.054h.615v.41h-.662a.476.476 0 0 1-.158-.029.355.355 0 0 1-.146-.102.618.618 0 0 1-.108-.19.924.924 0 0 1-.05-.293h.44zM23.028 33.689v1.498h-.47v-1.393l-.226-.316c.136-.226.296-.396.481-.509.186-.113.405-.17.66-.17.354 0 .62.081.795.243.175.162.263.394.263.694v1.451h-.468v-1.416c0-.203-.052-.346-.155-.43-.103-.085-.25-.126-.442-.126a.85.85 0 0 0-.585.246l.147.228zM28.905 31.905c0 .145.026.217.077.217h1.123v.369H28.93a.688.688 0 0 1-.164-.02.32.32 0 0 1-.146-.085.512.512 0 0 1-.109-.18.858.858 0 0 1-.043-.3h.438zM23.817 31.905c0 .145.025.217.076.217h1.124v.369H23.84a.687.687 0 0 1-.164-.02.32.32 0 0 1-.147-.085.505.505 0 0 1-.108-.18.85.85 0 0 1-.044-.3h.44zM30.994 34.098c-.2.008-.343.042-.43.103a.275.275 0 0 0-.132.237c0 .094.052.172.154.237a.776.776 0 0 0 .413.097c.223 0 .372-.056.448-.167a.743.743 0 0 0 .114-.43v-1.382h.48v1.381c0 .156-.019.298-.056.425a.79.79 0 0 1-.178.322.803.803 0 0 1-.322.201c-.133.047-.295.07-.486.07-.222 0-.401-.03-.538-.09a.874.874 0 0 1-.316-.22.652.652 0 0 1-.146-.257.812.812 0 0 1-.036-.21c0-.098.02-.19.059-.276.039-.085.1-.161.182-.228a.511.511 0 0 1-.173-.196.712.712 0 0 1-.068-.254c0-.184.057-.341.17-.472.113-.13.28-.196.498-.196h.363v.422h-.316c-.094 0-.159.02-.194.061-.035.041-.052.104-.052.19 0 .079.044.138.131.179.088.04.231.063.43.067v.386zM26.474 35.162v-.698a1.881 1.881 0 0 1-.632.513 2.09 2.09 0 0 1-.445.16 2.312 2.312 0 0 1-.536.059v-2.394h.516v1.876a1.507 1.507 0 0 0 .737-.388c.106-.1.193-.216.26-.344a.888.888 0 0 0 .1-.418v-.726h.513v2.36h-.513zM29.37 33.028c-.173-.162-.437-.243-.792-.243-.254 0-.473.056-.658.17a1.457 1.457 0 0 0-.483.509l.222.316v.743c0 .023 0 .05-.003.079a.145.145 0 0 1-.03.079.19.19 0 0 1-.087.059.491.491 0 0 1-.184.017v.415h.082c.058 0 .128-.005.207-.017a.639.639 0 0 0 .229-.08.53.53 0 0 0 .184-.178.59.59 0 0 0 .076-.322v-.918l-.152-.222a.723.723 0 0 1 .287-.185.971.971 0 0 1 .304-.05c.191 0 .337.042.438.126.102.084.153.227.153.43v1.416h.474v-1.451c-.004-.3-.093-.53-.266-.693M36.17 18.194c0 6.179-5.008 11.181-11.192 11.181-6.18 0-11.178-5.002-11.178-11.18 0-6.188 4.998-11.19 11.178-11.19 6.184 0 11.192 5.002 11.192 11.19" fill="#FFF"/>
            <path d="M35.419 18.185c0-1.417-.284-2.769-.797-4h-.002a10.434 10.434 0 0 0-9.636-6.423c-4.335 0-8.057 2.648-9.63 6.42l-.003-.001a10.365 10.365 0 0 0-.8 4.004v.012c0 1.419.285 2.772.8 4.004l.002-.001c1.574 3.771 5.296 6.42 9.631 6.42 4.343 0 8.064-2.65 9.636-6.424l.002.002c.513-1.232.797-2.583.797-4.001v-.012" fill="#FBED1D"/>
            <path d="M33.746 23.834c.334-.519.63-1.063.869-1.64a19.804 19.804 0 0 1-4.697-3.483 19.73 19.73 0 0 1-4.929-8.17 19.751 19.751 0 0 1-4.929 8.17 19.832 19.832 0 0 1-4.706 3.488c.24.574.535 1.118.867 1.635h17.525z" fill="#FFCA05"/>
            <path d="m24.987 12.616-.003-2.069a19.74 19.74 0 0 1-4.925 8.164 19.854 19.854 0 0 1-4.707 3.488c7.908-3.517 9.635-9.583 9.635-9.583" fill="#F5EC6E"/>
            <path d="m24.982 12.616.002-2.069c.92 2.987 2.564 5.8 4.927 8.164a19.838 19.838 0 0 0 4.706 3.488c-7.908-3.517-9.635-9.583-9.635-9.583" fill="#F9A533"/>
            <path d="M16.692 24.518a10.42 10.42 0 0 0 8.294 4.102c3.383 0 6.39-1.608 8.295-4.102H16.692z" fill="#4AC6E9"/>
            <path d="M16.692 24.518c1.908 1.887 4.914 3.103 8.294 3.103 3.383 0 6.39-1.216 8.295-3.103H16.692z" fill="#70CCE9"/>
            <path d="M16.79 41.499c-.479.019-.824.101-1.035.247-.212.146-.317.336-.317.571 0 .226.124.416.373.572.25.154.58.232.994.232.537 0 .895-.134 1.079-.402.183-.268.276-.614.276-1.037v-3.328h1.155v3.328c0 .376-.044.717-.134 1.022-.09.306-.232.564-.43.776a1.91 1.91 0 0 1-.775.486c-.32.113-.71.17-1.17.17-.537 0-.97-.073-1.299-.218-.328-.146-.583-.323-.76-.53a1.595 1.595 0 0 1-.353-.62 2.016 2.016 0 0 1-.085-.507c0-.235.047-.456.14-.663.095-.207.24-.39.44-.551a1.226 1.226 0 0 1-.418-.472 1.728 1.728 0 0 1-.162-.613c0-.442.136-.82.409-1.136.273-.314.672-.472 1.2-.472h.873v1.016h-.761c-.226 0-.38.049-.465.148-.085.098-.127.252-.127.458 0 .188.105.331.317.43.211.1.556.153 1.036.163v.93zM20.874 42.537c.15.188.331.334.542.437.211.104.41.154.598.154.393 0 .683-.126.87-.38.188-.252.282-.565.282-.941v-1.153c0-.356-.089-.66-.267-.912-.178-.255-.473-.381-.885-.381-.235 0-.46.073-.676.218a1.55 1.55 0 0 0-.52.626l-.984-.492c.226-.431.532-.767.921-1.005a2.36 2.36 0 0 1 1.259-.358c.72 0 1.278.21 1.673.632.392.421.59.98.59 1.672v1.167c0 .31-.045.605-.134.886a2.07 2.07 0 0 1-.408.738 1.96 1.96 0 0 1-.703.506c-.286.126-.625.19-1.018.19-.338 0-.682-.082-1.034-.247-.351-.163-.654-.4-.906-.71l.8-.647zM25.976 42.537c.15.188.331.334.542.437.21.104.41.154.597.154.394 0 .684-.126.871-.38.187-.252.283-.565.283-.941v-1.153c0-.356-.09-.66-.268-.912-.178-.255-.474-.381-.886-.381-.234 0-.46.073-.674.218a1.545 1.545 0 0 0-.52.626l-.985-.492a2.52 2.52 0 0 1 .92-1.005 2.36 2.36 0 0 1 1.26-.358c.72 0 1.279.21 1.672.632.393.421.59.98.59 1.672v1.167c0 .31-.045.605-.133.886a2.07 2.07 0 0 1-.408.738c-.183.211-.417.38-.703.506s-.625.19-1.019.19c-.337 0-.681-.082-1.033-.247a2.551 2.551 0 0 1-.907-.71l.8-.647z" fill="#FFF"/>
            <mask id="01j6caqx4b" fill="#fff">
                <use xlink:href="#w6rusa9j1a"/>
            </mask>
            <path fill="#FFF" mask="url(#01j6caqx4b)" d="M19.82 37.351h4.203v-.885h-4.202zM27.305 35.947c0 .345.06.52.182.52h2.699v.884H27.36c-.13 0-.261-.016-.393-.048a.754.754 0 0 1-.352-.204 1.219 1.219 0 0 1-.259-.429c-.071-.183-.106-.424-.106-.723h1.055zM12.466 44.129V39.61a3.288 3.288 0 0 0-.926.326 3.716 3.716 0 0 0-.851.608c-.255.242-.462.52-.625.829-.162.31-.243.646-.243 1.007v1.749H8.58V38.36h1.242v1.757a4.493 4.493 0 0 1 1.518-1.229c.32-.161.678-.29 1.072-.385a5.508 5.508 0 0 1 1.291-.143v5.769h-1.236zM43.095 44.137v-1.769a4.566 4.566 0 0 1-1.529 1.24 4.952 4.952 0 0 1-1.076.387 5.512 5.512 0 0 1-1.297.142v-5.79h1.248v4.536a3.676 3.676 0 0 0 1.783-.937c.256-.243.465-.52.628-.832.163-.31.243-.648.243-1.01v-1.757h1.24v5.79h-1.24zM44.737 37.116h-.85c-.149 0-.258.03-.33.09-.072.06-.107.157-.107.29v.139h-1.28v-.394c0-.125.02-.243.058-.354a.75.75 0 0 1 .183-.286.925.925 0 0 1 .313-.194c.124-.049.271-.073.441-.073h1.572v.782zM37.187 38.39v4.533a2.86 2.86 0 0 1-.688-.22 2.819 2.819 0 0 1-.67-.427 2.384 2.384 0 0 1-.51-.605 1.47 1.47 0 0 1-.202-.763v-.413c0-.685-.222-1.225-.663-1.62-.281-.244-.652-.408-1.112-.492l-.69.69-.705-.69a3.424 3.424 0 0 0-.606.19 1.887 1.887 0 0 0-.98 1 2.334 2.334 0 0 0-.175.922v2.03c0 .487.132.877.394 1.167.263.292.662.438 1.198.438h.62v-1.015h-.522c-.216 0-.361-.049-.436-.147-.075-.098-.113-.252-.113-.458v-1.902c0-.234.035-.441.106-.62a.987.987 0 0 1 .302-.422l.508.507a.562.562 0 0 0 .416.155.562.562 0 0 0 .415-.155l.52-.507c.273.225.41.573.41 1.042v3.522h1.113v-1.221c.16.156.346.307.553.454.21.147.447.277.713.392.265.115.565.207.9.275.335.07.71.099 1.128.09v-5.73h-1.224zM6.897 38.362c.022-.293.058-.545.106-.756.048-.21.105-.386.174-.529.068-.142.147-.267.238-.374.09-.106.19-.203.3-.291.11-.088.232-.182.363-.282v-.956h-.443c-.203.097-.4.172-.59.221-.19.05-.363.086-.517.107-.154.02-.285.032-.392.033l-.22.001a2.664 2.664 0 0 1-.528-.046 3.414 3.414 0 0 1-.43-.107c-.021-.007-.043-.018-.065-.025-.308-.125-.568-.302-.568-.302v1.064a2.739 2.739 0 0 0 .546.188 3.375 3.375 0 0 0 .633.093c.09.005.167.007.233.006l.157-.002a2.625 2.625 0 0 0 .337-.024c.074-.008.148-.02.224-.033a1.72 1.72 0 0 0 .209-.05l.007.019a4.16 4.16 0 0 0-.403.423 2.22 2.22 0 0 0-.438.852 3.29 3.29 0 0 0-.087.504c-.02.182-.03.384-.034.606-.003.222-.005.472-.005.748v.04h-.001v3.102c0 .444.102.812.304 1.102.204.29.566.435 1.089.435h.68v-1.044h-.565c-.164 0-.263-.046-.297-.138a1.016 1.016 0 0 1-.05-.34v-3.118h-.002v-.072c0-.41.011-.763.035-1.055"/>
        </g>
    </g>
</svg>
