<svg width="71" height="71" viewBox="0 0 71 71" xmlns="http://www.w3.org/2000/svg" xmlns:xlink="http://www.w3.org/1999/xlink">
    <defs>
        <path id="53dzga6p1a" d="M0 57.779h48.018V0H0z"/>
    </defs>
    <g transform="translate(11.57 6.69)" fill="none" fill-rule="evenodd">
        <path d="M4.258 57.716H2.214c-1.302.016-1.952-.464-1.952-1.44 0-.302.093-.566.283-.79.157-.18.344-.305.563-.377a.925.925 0 0 1-.519-.301.847.847 0 0 1-.259-.603c0-.39.159-.695.473-.91.292-.202.676-.303 1.151-.303.157 0 .312.012.469.035v.801a1.608 1.608 0 0 0-.377-.045c-.467 0-.701.148-.701.443 0 .356.305.512.912.467l.348.72c-.395-.032-.716.024-.96.172-.245.147-.369.354-.369.62 0 .503.39.743 1.173.72l.794-.022v-3.866h1.015v4.679zM4.256 52.466h-3.8l.348-.63h3.452zM4.965 50.316l-.32.568h-1.98v-.234c0-.18-.09-.27-.267-.27h-.257l.313-.59h.599c.35 0 .526.14.526.419v.107h1.386zM8.814 56.29c0 .992-.512 1.489-1.536 1.489-.485 0-.926-.178-1.323-.533v.48H4.94v-4.672h1.015v2.965c0 .224.12.44.362.653.242.21.532.316.866.316.413 0 .618-.226.618-.678v-3.255h1.013v3.235z" fill="#1695D4"/>
        <path d="M11.176 51.534a.634.634 0 0 0-.325.582v5.594H9.836v-5.503c0-.231.125-.433.375-.604 0-.088-.084-.131-.248-.131l-.418.319a1.73 1.73 0 0 0-.319-.21 2.896 2.896 0 0 0-.965-.303l.542-.554c.347.058.596.155.754.291l.394-.256c.276-.039.542.01.796.142.286.149.429.36.429.633M16.003 57.688H14.99v-3.826l-.757-.022c-.395-.015-.732.137-1.013.456-.281.32-.421.688-.421 1.106 0 .469.124.838.373 1.112.25.274.605.41 1.064.41.133 0 .27-.01.41-.033v.797a5.726 5.726 0 0 1-.54.027c-.753 0-1.34-.22-1.756-.659-.377-.414-.565-.966-.565-1.654 0-.67.234-1.234.704-1.696.47-.461 1.066-.689 1.792-.682l1.722.023v4.64zM16.794 51.837l-.354.629h-2.202v-.256c0-.2-.1-.3-.302-.3h-.28l.349-.64h.655c.388 0 .582.154.582.46v.107h1.552z" fill="#1695D4"/>
        <mask id="glhyhmcjdb" fill="#fff">
            <use xlink:href="#53dzga6p1a"/>
        </mask>
        <path fill="#1695D4" mask="url(#glhyhmcjdb)" d="M19.864 57.716h1.014v-4.662h-1.014zM25.669 56.29c0 .992-.513 1.489-1.537 1.489-.485 0-.926-.178-1.324-.533v.48h-1.014v-4.672h1.014v2.965c0 .224.12.44.363.653.243.21.531.316.866.316.411 0 .617-.226.617-.678v-3.255h1.015v3.235zM25.67 52.446l-3.8.02.347-.63h1.439v-.607h.655v.608h.348v-.608h1.01zM24.669 50.884h1.014v-.953H24.67zM30.653 55.393c0 .796-.219 1.41-.657 1.835-.395.366-.918.549-1.563.549-.64 0-1.158-.184-1.554-.554-.446-.43-.669-1.049-.669-1.853 0-.278.023-.517.07-.716h1.784v.792h-.838c.006.499.12.88.342 1.143.22.265.508.398.865.398.37 0 .662-.138.88-.414.218-.276.327-.672.327-1.19 0-.514-.111-.91-.336-1.186a1.076 1.076 0 0 0-.88-.414c-.483 0-.814.198-.993.593h-1.09c.156-.471.435-.827.833-1.064.357-.214.774-.32 1.25-.32.647 0 1.169.192 1.567.573.44.422.662 1.032.662 1.828M35.275 57.716H34.26v-3.241a.609.609 0 0 0-.31-.553 1.182 1.182 0 0 0-.637-.159c-.462 0-.79.139-.983.417l.509.352c-.27.14-.406.374-.406.701v2.483h-1.482v-.744h.468V55.26c0-.28.137-.48.41-.597l-.632-.381c.125-.451.41-.793.856-1.024.356-.19.776-.284 1.26-.284.527 0 .97.112 1.328.341.422.26.633.647.633 1.154v3.248zM36.586 51.837l-.348.629h-3.213v-1.074h1.02v.445zM39.78 57.716h-2.044c-1.302.016-1.952-.464-1.952-1.44 0-.302.094-.566.283-.79.156-.18.344-.305.563-.377a.922.922 0 0 1-.518-.301.843.843 0 0 1-.26-.603c0-.39.158-.695.473-.91.292-.202.675-.303 1.152-.303.157 0 .312.012.468.035v.801a1.615 1.615 0 0 0-.376-.045c-.469 0-.702.148-.702.443 0 .356.303.512.913.467l.347.72c-.395-.032-.714.024-.961.172-.246.147-.368.354-.368.62 0 .503.39.743 1.173.72l.795-.022v-3.866h1.014v4.679zM44.338 56.29c0 .992-.513 1.489-1.538 1.489-.484 0-.926-.178-1.324-.533v.48h-1.014v-4.672h1.014v2.965c0 .224.121.44.362.653.244.21.533.316.867.316.411 0 .617-.226.617-.678v-3.255h1.016v3.235zM47.645 57.716h-1.013V54.42c0-.425-.294-.638-.88-.638-.372 0-.71.083-1.014.246v-.811c.295-.15.673-.226 1.134-.226 1.183 0 1.773.497 1.773 1.49v3.234z"/>
        <path fill="#0794D2" mask="url(#glhyhmcjdb)" d="M.267 47.72h47.484V.267H.267z"/>
        <path d="M.534 47.453h46.95V.533H.534v46.92zM47.751 0H0v47.986h48.018V0h-.267z" fill="#FEFEFE" mask="url(#glhyhmcjdb)"/>
        <path fill="#ED3124" mask="url(#glhyhmcjdb)" d="M3.665 34.439h41.011v-.536H3.665z"/>
        <path fill="#1D4C7E" mask="url(#glhyhmcjdb)" d="M3.658 38.278V35.83h.443l.653 2.066.636-2.066h.458v2.448h-.326v-1.941l-.625 1.941h-.294l-.617-1.912-.009 1.912zM6.167 37.576V35.83h.308v1.753c0 .167.064.282.177.39.115.095.247.131.408.131.142 0 .28-.036.383-.13a.488.488 0 0 0 .184-.39V35.83h.326v1.746a.68.68 0 0 1-.286.572c-.174.146-.384.197-.626.197-.222 0-.414-.045-.571-.175-.188-.146-.282-.34-.303-.594M9.28 36.258l-.389 1.02h.714l-.326-1.02zm-1.026 2.02.825-2.448h.377l.846 2.448H9.95l-.252-.702h-.874l-.216.702h-.353zM10.537 38.278V35.83h.37l1.144 2v-2h.294v2.448l-.344.016-1.168-1.97v1.954zM27.846 38.278V35.83h.361l1.146 2v-2h.3v2.448l-.348.016-1.17-1.97v1.954zM12.626 36.916c.047-.326.154-.586.324-.78.201-.232.483-.334.848-.334.241 0 .46.064.635.217a.648.648 0 0 1 .272.543h-.283a.54.54 0 0 0-.205-.304.66.66 0 0 0-.439-.174.848.848 0 0 0-.584.224c-.176.173-.265.42-.265.747 0 .282.043.507.153.665.129.219.347.326.638.326.099 0 .2-.008.298-.055a.691.691 0 0 0 .305-.22.75.75 0 0 0 .15-.471v-.043h-.732v-.29h.999v1.311h-.224l-.042-.287a1.48 1.48 0 0 1-.39.264c-.141.052-.286.09-.424.09-.29 0-.53-.11-.724-.327-.203-.24-.31-.55-.31-.935v-.167zM18.232 38.242V36.06h-.772v-.26h1.825v.26h-.726v2.18zM19.564 38.242v-2.44h.287v1.02h1.18v-1.02h.29v2.44h-.29v-1.108h-1.18v1.108zM22.672 36.215l-.373 1.027h.7l-.327-1.027zm-1.015 2.027.82-2.44h.375l.846 2.44h-.348l-.261-.703h-.869l-.22.703h-.343zM23.957 38.242h.301v-2.44h-.301zM27.053 38.294h.3v-2.448h-.3zM29.918 37.481h.305c0 .19.058.34.187.451.123.1.276.144.444.144.144 0 .259-.037.37-.102a.352.352 0 0 0 .2-.283v-.042c0-.195-.13-.326-.37-.392a17.027 17.027 0 0 0-.695-.187c-.247-.11-.368-.298-.368-.573l.013-.065c0-.189.073-.333.22-.457.135-.114.346-.174.613-.174.246 0 .446.06.605.174.15.124.23.283.23.506v.045h-.297v-.03a.36.36 0 0 0-.166-.318.638.638 0 0 0-.386-.117.739.739 0 0 0-.363.095.394.394 0 0 0-.159.319c.021.146.153.262.395.326l.664.196c.24.108.382.296.405.542v.03a.67.67 0 0 1-.29.579c-.182.13-.386.187-.638.187-.253 0-.468-.057-.635-.203-.198-.137-.29-.353-.29-.622l.006-.029zM32.043 37.562v-1.74h.311v1.747c0 .167.062.29.18.39.108.095.247.13.398.13.154 0 .288-.035.384-.13a.466.466 0 0 0 .184-.39v-1.747h.328v1.74c0 .238-.097.43-.285.57-.174.146-.371.204-.618.204a.871.871 0 0 1-.58-.188c-.179-.13-.28-.326-.302-.586M34.44 36.105v.818h.782l.038.009c.09 0 .177-.05.243-.13a.432.432 0 0 0 .112-.284.405.405 0 0 0-.11-.283c-.072-.085-.195-.13-.35-.13h-.715zm-.302 2.165v-2.448h1.158c.175 0 .31.051.419.168.114.109.183.268.205.462 0 .132-.007.234-.044.312a.663.663 0 0 1-.278.298c.088.043.161.1.197.18.05.094.078.233.078.414v.16c0 .094.003.158.025.23a.24.24 0 0 0 .105.144v.08h-.37c-.035-.086-.057-.231-.057-.44-.01-.19-.019-.32-.046-.398-.05-.118-.161-.196-.329-.225h-.76v1.063h-.303zM37.296 36.243l-.362 1.022h.696l-.334-1.022zm-1.013 2.027.825-2.448h.371l.852 2.448h-.348l-.265-.708h-.864l-.22.708h-.35zM38.572 38.27v-2.448h.362l1.147 1.993v-1.993h.301v2.448l-.348.008-1.162-1.97v1.962zM40.634 37.083c0-.21.025-.398.098-.579.07-.211.176-.376.312-.493a.936.936 0 0 1 .63-.21c.116 0 .232.014.332.06a.71.71 0 0 1 .342.238c.13.13.202.311.247.522h-.311a.781.781 0 0 0-.236-.392.575.575 0 0 0-.373-.145c-.188 0-.346.078-.496.24-.144.173-.22.413-.22.71 0 .331.067.585.214.773a.566.566 0 0 0 .472.247.66.66 0 0 0 .463-.189c.14-.129.221-.289.221-.485h.316a1.153 1.153 0 0 1-.291.658.816.816 0 0 1-.655.298h-.049c-.326 0-.587-.123-.772-.369-.16-.23-.244-.522-.244-.884M42.917 38.27v-2.448h1.598v.261h-1.296v.798h1.252v.29h-1.252v.82h1.345v.279z"/>
        <path fill="#FEFEFE" mask="url(#glhyhmcjdb)" d="m32.073 25.115-.624.445v.848l.432.44h2.487l.641-.515-.668-.51h-1.637v-.272zM31.914 27.243l-1.966.728v3.125h-.243l-.439.778.44.78h.944l-.007-.018.019.018.714-.714v-3.25l.528-.368.532.368v3.25l.71.714.712-.714v-3.969zM37.568 27.233l.728.727v3.956l-1.996.738-1.986-.738-.001-1.908.42-.418-.42-.407V27.96l.731-.727.728.727v.915l.717.715-.717.72v.924l.528.374.541-.374V27.96zM10.538 27.243l-.72.709v3.979l1.954.723 1.985-.723v-4.646l-.735-.715-.732.715v3.93l-.518.37-.52-.37v-3.263zM23.69 32.654l.716-.719V27.96l-1.95-.737-1.969.737v3.975l.716.72.72-.72v-3.259l.528-.37.528.37v3.26zM14.224 31.03h2.453v.9l.717.724.722-.723v-2.327h-2.457v-1.036l1.739.667.72-.34v-.948l-1.94-.704-1.954.708zM19.297 27.223l-.717.724v.953l.717.725.721-.716v-.962zM22.628 25.077l-.626.447v.85l.435.442h2.494l.64-.517-.662-.517h-1.644v-.269zM25.599 27.223l-.72.728v3.98l.717.723 1.777-1.16v.437l.716.723.721-.723v-3.98l-.71-.728-.727.728v1.995l-1.061.62v-2.615zM19.297 30.268l-.717.714v.958l.717.725.721-.71v-.973z"/>
        <path fill="#1D4C7E" mask="url(#glhyhmcjdb)" d="m36.582 22.997 1.157-1.136v-6.2l-1.144-1.145-2.813 1.648v-.503l-1.15-1.145-1.14 1.145v6.2l1.142 1.145 1.148-1.145v-3.044l1.666-.99v4.034zM12.658 14.515l-1.128 1.17v4.054l-1.685-.986v-3.068l-1.139-1.17-1.133 1.17v3.098h-.47L6.419 20l.684 1.231h.47v.625l1.133 1.137 1.139-1.137v-.643l2.813 1.78 1.14-1.137v-6.171zM22.648 17.3l-1.138 1.14v3.501l3.1 1.052 3.132-1.052v-6.256l-1.134-1.147-1.143 1.147v5.092l-.845.673-.84-.673v-2.336zM4.571 14.534l-1.15 1.15v6.177l1.15 1.161 1.144-1.16v-6.177zM43.552 14.515l1.142 1.146v6.2l-3.127 1.16-3.116-1.16v-2.988l.65-.654-.65-.644v-1.914l1.138-1.146 1.146 1.146v1.435l1.122 1.123-1.122 1.128v1.442l.832.593.843-.593v-5.128zM17.638 14.502l-3.13 1.079v1.914l1.112.398 1.175-.398v-.772l.87-.588.865.588v4.054l-.865.573-.87-.573v-1.388l-1.148-1.141-1.14 1.145v2.548l3.142 1.052 3.164-1.132v-6.284zM13.798 13.857v-2.5l-.582-.56-.584.56-.573-.56-.578.56v.685l-.796-.316-3.127 1.028v1.103z"/>
        <path fill="#1D4C7E" mask="url(#glhyhmcjdb)" d="M29.167 11.555h-3.344l-1.165 1.147 1.16 1.145h2.639v8.015l1.145 1.135 1.143-1.135v-8.71z"/>
    </g>
</svg>
