<svg width="71" height="71" viewBox="0 0 71 71" xmlns="http://www.w3.org/2000/svg" xmlns:xlink="http://www.w3.org/1999/xlink">
    <defs>
        <path id="he1ebjffza" d="M0 0h62.865v6.67H0z"/>
    </defs>
    <g fill="none" fill-rule="evenodd">
        <g transform="translate(2.596 32.238)">
            <mask id="tu8dt9jc0b" fill="#fff">
                <use xlink:href="#he1ebjffza"/>
            </mask>
            <path d="M9.086 1.193V0H1.705C.57 0 0 .583 0 1.524v3.621C0 6.088.571 6.67 1.705 6.67h7.381V5.48H1.288V1.193h7.798zm4.93 1.532V0h-1.262v6.67h1.261V3.9h6.716v2.77h1.256V0h-1.256v2.725h-6.716zM34.2 0v5.479H27.58V0h-1.256v5.145c0 .943.569 1.524 1.703 1.524h5.727c1.13 0 1.706-.581 1.706-1.524V0h-1.259zm13.327 6.67c1.239 0 1.811-.516 1.811-1.4v-.783c0-.246-.084-.36-.267-.513l-.8-.686.8-.686c.183-.151.267-.266.267-.513v-.687C49.34.516 48.767 0 47.53 0h-7.736v6.67h7.735zm-6.48-3.916h7.005v-1.62h-7.004v1.62zm0 2.781h7.005V3.87h-7.004v1.666zm20.01 1.134c1.237 0 1.807-.515 1.807-1.399v-.783c0-.246-.082-.36-.265-.513l-.8-.686.8-.686c.183-.151.265-.266.265-.513v-.687c0-.886-.57-1.402-1.808-1.402h-7.736v6.67h7.736zM54.58 2.754h7v-1.62h-7v1.62zm0 2.781h6.999V3.87h-7v1.666z" fill="#211E1F" mask="url(#tu8dt9jc0b)"/>
        </g>
        <path d="M68.444 32.758a.79.79 0 0 1-.8.779.788.788 0 0 1-.794-.78c0-.43.356-.776.795-.776.442 0 .8.346.8.777z" stroke="#211E1F" stroke-width=".5"/>
        <path d="m67.41 32.722.193-.008c.201-.008.326-.09.32-.2-.007-.125-.147-.174-.346-.166a1.236 1.236 0 0 0-.185.021l.017.353zm-.212-.432c.095-.018.232-.032.361-.038.202-.01.333.01.426.059.077.04.121.105.125.181.006.128-.111.217-.262.26v.005a.284.284 0 0 1 .224.187c.054.132.096.224.126.261l-.195.008a.934.934 0 0 1-.109-.227c-.05-.132-.131-.18-.302-.175l-.178.009.02.42-.189.01-.047-.96z" fill="#211E1F"/>
    </g>
</svg>
