<svg width="71" height="71" viewBox="0 0 71 71" xmlns="http://www.w3.org/2000/svg" xmlns:xlink="http://www.w3.org/1999/xlink">
    <defs>
        <path id="qjvt1853oa" d="M0 0h10.228v6.832H0z"/>
        <path id="5a6uc2fhac" d="M0 0h10.228v6.832H0z"/>
    </defs>
    <g fill="none" fill-rule="evenodd">
        <path d="M16.294 30.273H14.77l.808-2.63.716 2.63zm-2.314 2.902.521-1.729h2.052l.485 1.729h1.907l-1.893-6.596c-.108-.388-.346-.572-.758-.572H13.6v.626h.228c.28 0 .432.107.432.323 0 .138-.032.256-.14.58l-1.892 5.639h1.751zM21.32 33.175v-6.619c0-.345-.208-.549-.541-.549h-1.667v.626h.11c.28 0 .4.116.4.397v6.145h1.698zM24.319 33.175v-6.619c0-.345-.207-.549-.542-.549H22.11v.626h.11c.28 0 .398.116.398.397v6.145h1.7zM27.165 26.662c0-.482-.357-.771-.973-.771-.605 0-.974.289-.974.771 0 .488.37.777.974.777.616 0 .973-.29.973-.777zm-.033 6.513v-4.824c0-.344-.205-.547-.54-.547h-1.644v.61h.097c.28 0 .402.131.402.408v4.353h1.685zM30.783 30.596v1.042c-.282.29-.626.465-.92.465-.302 0-.41-.152-.41-.55 0-.396.085-.579.389-.698.226-.098.518-.183.94-.26zm-2.284-1.257c.564-.269 1.18-.418 1.668-.418.451 0 .616.162.616.634v.117c-.695.108-.907.152-1.296.24-.23.05-.435.114-.642.202-.68.267-1.003.795-1.003 1.6 0 1.02.442 1.516 1.36 1.516.336 0 .64-.066.91-.172.238-.106.378-.193.724-.463v.075c0 .335.174.505.509.505h1.547v-.58h-.077c-.29 0-.399-.13-.399-.47v-2.56c0-1.365-.476-1.837-1.85-1.837-.443 0-.875.052-1.297.15-.424.096-.64.182-1.148.431l.378 1.03zM35.56 33.175v-3.63c.281-.314.572-.452.907-.452.359 0 .444.138.444.677v3.405h1.687v-3.654c0-.848-.065-1.115-.336-1.407-.227-.247-.571-.375-1.016-.375-.661 0-1.124.2-1.752.784v-.214c0-.335-.174-.505-.519-.505h-1.6v.61h.097c.281 0 .4.131.4.408v4.353h1.687zM43.716 32.05h-2.353l2.248-3.141v-1.105h-3.528c-.398 0-.584.183-.584.58v.978h.628v-.098c0-.247.13-.365.399-.365h1.213l-2.271 3.169v1.107h4.248v-1.126zM53.467 33.277v-5.929c0-.473-.156-.632-.638-.632h-1.39v.653h.084l.151.01c.052 0 .104.033.147.075.065.073.084.148.084.305v5.518h1.562zm.7 0h1.545v-4.476c0-.455-.168-.631-.635-.631h-.91v5.107zm-2.95 0V28.17h-.921c-.456 0-.638.176-.638.631v4.476h1.559zm6.033-2.978c0 2.662-1.929 4.602-4.56 4.602-2.638 0-4.56-1.94-4.56-4.602 0-2.655 1.922-4.596 4.56-4.596 2.631 0 4.56 1.941 4.56 4.596zm1.125 0c0-3.235-2.43-5.647-5.685-5.647-3.253 0-5.693 2.412-5.693 5.647 0 3.241 2.44 5.654 5.693 5.654 3.254 0 5.685-2.413 5.685-5.654zM29.95 38.207v3.761c0 .858-.048 1.712-.916 2.36-.727.552-1.872.747-2.883.747-1.018 0-2.158-.195-2.887-.746-.866-.649-.91-1.503-.91-2.361v-3.76h2.26v3.69c0 .872.081 1.826 1.537 1.826 1.454 0 1.536-.954 1.536-1.826v-3.69h2.263zM33.656 43.595h.793c1.484 0 2.921-.578 2.921-1.91 0-1.225-1.297-1.915-2.9-1.915h-.814v3.825zm-2.26-5.33h3.537c2.665 0 4.773 1.474 4.773 3.394 0 1.92-2.118 3.441-4.773 3.441h-3.538v-6.834zM46.303 40.836v-2.585h2.257v6.846h-2.257v-2.901h-3.159v2.901h-2.266v-6.846h2.266v2.585z" fill="#005496"/>
        <g transform="translate(4.235 38.244)">
            <mask id="8hhdpgs8xb" fill="#fff">
                <use xlink:href="#qjvt1853oa"/>
            </mask>
            <path d="m4.259 3.654.855-1.479.859 1.48H4.259zm3.548 3.178h2.421L5.866 0H4.358L0 6.832h2.423l.93-1.61h3.522l.932 1.61z" fill="#005496" mask="url(#8hhdpgs8xb)"/>
        </g>
        <path fill="#005496" d="M49.488 38.244h2.554l1.947 2.67 1.952-2.67h2.475l-3.374 4.165v2.67H52.78l-.003-2.66z"/>
        <g transform="translate(56.537 38.244)">
            <mask id="465ow6e09d" fill="#fff">
                <use xlink:href="#5a6uc2fhac"/>
            </mask>
            <path d="m4.257 3.654.858-1.479.854 1.48H4.257zm3.551 3.178h2.42L5.866 0H4.36L0 6.832h2.417l.935-1.61h3.519l.937 1.61z" fill="#005496" mask="url(#465ow6e09d)"/>
        </g>
        <path fill="#005496" d="M12.363 38.244h2.552l1.95 2.67 1.946-2.67h2.478l-3.373 4.165v2.67h-2.261l-.006-2.66z"/>
    </g>
</svg>
