<svg width="260" height="270" viewBox="0 0 260 270" xmlns="http://www.w3.org/2000/svg" xmlns:xlink="http://www.w3.org/1999/xlink">
    <defs>
        <path id="3tjb2fys6a" d="M0 0h260v270H0z"/>
    </defs>
    <g fill="none" fill-rule="evenodd">
        <mask id="wzk4p28uxb" fill="#fff">
            <use xlink:href="#3tjb2fys6a"/>
        </mask>
        <path d="M241.368 111.316c0 67.079-53.834 121.584-120.655 122.668l-2.029.016C50.928 234-4 179.072-4 111.316v-.14h63.614v.083c0 40.152 32.55 72.702 72.702 72.702 39.75 0 72.05-31.902 72.692-71.5l.01-1.202v-.083h36.35v.14zM223.193 2C240.76 2 255 16.24 255 33.807v.072c0 17.391-13.957 31.522-31.281 31.803l-.526.004c-17.567 0-31.807-14.24-31.807-31.807v-.072C191.386 16.24 205.626 2 223.193 2zM75.518 2c17.566 0 31.807 14.24 31.807 31.807v.072c0 17.391-13.958 31.522-31.281 31.803l-.526.004c-17.567 0-31.807-14.24-31.807-31.807v-.072C43.71 16.24 57.95 2 75.518 2z" fill="#2F8779" mask="url(#wzk4p28uxb)"/>
    </g>
</svg>
