<svg width="32" height="32" viewBox="0 0 32 32" xmlns="http://www.w3.org/2000/svg">
    <g fill="none" fill-rule="evenodd">
        <path d="M0 0h32v32H0z"/>
        <g transform="translate(4 4)" fill-rule="nonzero">
            <circle fill="#FFD05B" cx="12" cy="12" r="12"/>
            <path d="M10.667 11.305a.667.667 0 0 1-.633-.456c-.135-.399-.679-1.544-1.367-1.544-.708 0-1.259 1.218-1.368 1.544a.666.666 0 1 1-1.264-.422c.083-.251.869-2.456 2.632-2.456 1.764 0 2.549 2.205 2.633 2.456a.666.666 0 0 1-.633.878zM17.333 11.305a.666.666 0 0 1-.632-.456c-.135-.399-.679-1.544-1.368-1.544-.708 0-1.259 1.218-1.368 1.544a.667.667 0 0 1-1.265-.422c.084-.251.87-2.456 2.633-2.456 1.762 0 2.548 2.205 2.632 2.456a.666.666 0 0 1-.632.878zM16.913 14.064a.274.274 0 0 0-.334-.014c-.02.014-2.064 1.45-4.58 1.45-2.507 0-4.558-1.436-4.578-1.45a.276.276 0 0 0-.334.014.241.241 0 0 0-.05.314C7.105 14.486 8.731 17 12 17c3.27 0 4.895-2.514 4.962-2.622a.24.24 0 0 0-.049-.314z" fill="#664500"/>
            <path d="M23.417 2.18A2.042 2.042 0 0 0 19.715.991a2.042 2.042 0 0 0-3.647 1.651c.285 1.762 2.243 3.621 3.647 4.132 1.404-.511 3.363-2.37 3.646-4.131a2.02 2.02 0 0 0 .056-.465zM8.139 18.939a2.213 2.213 0 0 0-4.011-1.287 2.213 2.213 0 0 0-3.951 1.79c.307 1.908 2.429 3.922 3.95 4.475 1.522-.552 3.644-2.566 3.951-4.475.039-.163.06-.33.06-.503zM24.965 17.418a1.532 1.532 0 0 0-2.778-.891 1.532 1.532 0 0 0-2.737 1.24c.213 1.321 1.683 2.716 2.737 3.099 1.054-.383 2.524-1.778 2.736-3.1.027-.112.042-.228.042-.348z" fill="#EB5748"/>
        </g>
    </g>
</svg>
