<svg width="32" height="32" viewBox="0 0 32 32" xmlns="http://www.w3.org/2000/svg" xmlns:xlink="http://www.w3.org/1999/xlink">
    <defs>
        <linearGradient x1="28.66%" y1="20.095%" x2="58.249%" y2="77.619%" id="8bjtaw0l8c">
            <stop stop-color="#FFDFCF" offset="0%"/>
            <stop stop-color="#FFA78F" offset="100%"/>
        </linearGradient>
        <path id="qk3y4bf2va" d="M0 0h28v28H0z"/>
    </defs>
    <g fill="none" fill-rule="evenodd">
        <g transform="translate(2 2)">
            <mask id="p7jag82h3b" fill="#fff">
                <use xlink:href="#qk3y4bf2va"/>
            </mask>
            <g mask="url(#p7jag82h3b)">
                <path d="M20.373 20.444c.552 0 1.037-.383 1.154-.91.167-.719-.397-1.41-1.154-1.41-.77 0-1.322.707-1.16 1.399.12.538.606.921 1.16.921z" fill="#FFF" fill-rule="nonzero"/>
                <path d="M15.368 18.369c.15.87.933 1.435 1.839 1.435h23.637c.635 0 1.155-.509 1.155-1.13V16.65c0-1.919-1.589-3.474-3.55-3.474a.814.814 0 0 1-.66-.332c-2.277-3.1-2.391-3.273-2.461-3.327A1.619 1.619 0 0 0 34.133 9h-7.566c-.433 0-.85.169-1.161.478l-1.083 1.083-3.333 3.333-.245.032-3.316.5c-.545.223-.995.555-1.25 1.115l-.35 1.49s-.65.294-.461 1.338z" fill="#29A8A5"/>
                <path d="M15.831 17.031h1.317c.17 0 .322-.103.381-.259l.266-.696a.4.4 0 0 0-.381-.537h-1.237l-.346 1.492z" fill="#FFF"/>
                <path d="M17.787 20.343c.252 1.139 1.29 1.99 2.525 1.99 1.232 0 2.27-.851 2.521-1.99.36-1.547-.86-3.068-2.52-3.068-1.67 0-2.884 1.525-2.526 3.068z" fill="#1D1D1D" fill-rule="nonzero"/>
                <path d="M20.312 20.964c.648 0 1.183-.521 1.183-1.162 0-.638-.53-1.158-1.183-1.158-.77 0-1.322.707-1.16 1.398.12.539.606.922 1.16.922zM23.417 13.927h11.316c.728 0 1.257-.679 1.064-1.367l-.341-1.218a1.57 1.57 0 0 0-1.52-1.134h-7.564a.483.483 0 0 0-.33.13l-2.956 2.785c-.31.291-.098.804.331.804z" fill="#FFF"/>
            </g>
        </g>
        <g transform="translate(3 6.333)">
            <path d="M0 8.76c0-.869.605-1.597 1.419-1.789a.348.348 0 0 1 .425.34v2.9c0 .222-.208.39-.425.338A1.84 1.84 0 0 1 0 8.76z" fill="#FFD6AF"/>
            <path d="M13.333 1.798A1.84 1.84 0 0 0 11.915.01a.348.348 0 0 0-.426.34v2.9c0 .222.208.39.426.338a1.84 1.84 0 0 0 1.418-1.789z" fill="url(#8bjtaw0l8c)" fill-rule="nonzero" transform="translate(0 6.962)"/>
            <path d="M13.333 8.76a1.84 1.84 0 0 0-1.418-1.789.348.348 0 0 0-.426.34v2.9c0 .222.208.39.426.338a1.84 1.84 0 0 0 1.418-1.789z" fill="#FFD6AF"/>
            <path d="M12.726 20H.606a.546.546 0 0 1-.546-.545v-1.18c0-2.87 2.335-5.198 5.215-5.198h2.783c2.88 0 5.215 2.327 5.215 5.198v1.18a.546.546 0 0 1-.547.545z" fill="#096B65"/>
            <ellipse fill="#FFD6AF" cx="6.667" cy="8.76" rx="5.302" ry="5.739"/>
            <g fill="#1D1D1D" fill-rule="nonzero">
                <path d="M4.302 9.808a.774.774 0 0 1-.775-.772v-.397c0-.426.347-.772.775-.772.428 0 .775.346.775.772v.397a.774.774 0 0 1-.775.772zM9.031 9.808a.774.774 0 0 1-.775-.772v-.397c0-.426.347-.772.775-.772.428 0 .775.346.775.772v.397a.774.774 0 0 1-.775.772z"/>
            </g>
            <g fill="#1D1D1D" fill-rule="nonzero">
                <path d="M12.863 6.044c-.768 1.744-3.638 2.173-6.411.96-2.773-1.214-4.398-3.612-3.63-5.355C3.59-.094 6.461-.524 9.233.69c2.773 1.214 4.398 3.611 3.63 5.354z"/>
                <ellipse cx="2.141" cy="5.032" rx="2.141" ry="2.787"/>
            </g>
        </g>
    </g>
</svg>
