<svg width="32" height="32" viewBox="0 0 32 32" xmlns="http://www.w3.org/2000/svg" xmlns:xlink="http://www.w3.org/1999/xlink">
    <defs>
        <filter x="-103.1%" y="-68.7%" width="306.2%" height="374.9%" filterUnits="objectBoundingBox" id="gzbr3beuea">
            <feOffset dy="1" in="SourceAlpha" result="shadowOffsetOuter1"/>
            <feGaussianBlur stdDeviation=".5" in="shadowOffsetOuter1" result="shadowBlurOuter1"/>
            <feColorMatrix values="0 0 0 0 0 0 0 0 0 0 0 0 0 0 0 0 0 0 0.223154775 0" in="shadowBlurOuter1"/>
        </filter>
        <path d="M2.425 7.83H1.141a.396.396 0 0 1-.371-.252l-.26-.68a.39.39 0 0 1 .372-.523h1.206l.337 1.455z" id="xwyrn19zpb"/>
    </defs>
    <g fill="none" fill-rule="evenodd">
        <path d="M13 3h12v18H11V5a2 2 0 0 1 2-2z" fill="#29A8A5"/>
        <path d="M20.696 11.032c0 .592-.182 1.054-.546 1.386-.364.332-.894.522-1.59.57v1.008h-1.236V13H15.5V6.04h1.824v-.984h1.236v1.02c.632.072 1.112.266 1.44.582.328.316.492.738.492 1.266 0 .352-.072.656-.216.912-.144.256-.36.452-.648.588.36.136.628.336.804.6.176.264.264.6.264 1.008zm-3.72-2.112h1.008c.344 0 .602-.06.774-.18.172-.12.258-.34.258-.66s-.086-.54-.258-.66c-.172-.12-.43-.18-.774-.18h-1.008v1.68zm1.212 2.88c.344 0 .602-.068.774-.204.172-.136.258-.356.258-.66 0-.304-.086-.52-.258-.648-.172-.128-.43-.192-.774-.192h-1.212V11.8h1.212z" fill="#FFF" fill-rule="nonzero"/>
        <path d="M25 3a2 2 0 0 1 2 2v3h-2V3z" fill="#088B86"/>
        <g>
            <path d="M7.914 27.158c.538 0 1.011-.373 1.125-.888.162-.7-.387-1.373-1.125-1.373-.75 0-1.29.688-1.132 1.363.117.525.592.898 1.132.898z" fill="#FFF" fill-rule="nonzero"/>
            <path d="M3.034 25.134c.146.849.91 1.4 1.792 1.4h23.047c.62 0 1.126-.496 1.126-1.103V23.46c0-1.87-1.55-3.388-3.46-3.388a.794.794 0 0 1-.645-.323c-2.22-3.022-2.331-3.191-2.4-3.244A1.579 1.579 0 0 0 21.33 16h-7.377a1.6 1.6 0 0 0-1.132.466l-1.056 1.056-3.25 3.25-.238.031-3.234.488c-.53.217-.97.54-1.219 1.087l-.34 1.452s-.635.286-.45 1.304z" fill="#096B65"/>
            <g fill-rule="nonzero" transform="matrix(-1 0 0 1 5.91 16)">
                <use fill="#000" filter="url(#gzbr3beuea)" xlink:href="#xwyrn19zpb"/>
                <use fill="#FFF" xlink:href="#xwyrn19zpb"/>
            </g>
            <path d="M21.395 26.532c0 1.362 1.128 2.466 2.52 2.466 1.388 0 2.516-1.104 2.516-2.466 0-1.359-1.128-2.463-2.516-2.463-1.392 0-2.52 1.104-2.52 2.463z" fill="#1D1D1D" fill-rule="nonzero"/>
            <path d="M23.915 27.683c.538 0 1.012-.374 1.126-.889.162-.7-.388-1.373-1.126-1.373-.75 0-1.289.689-1.131 1.363.116.525.59.899 1.131.899z" fill="#FFF"/>
            <path d="M5.392 27.06C5.638 28.17 6.65 29 7.854 29c1.202 0 2.213-.83 2.459-1.94.35-1.51-.84-2.992-2.459-2.992-1.628 0-2.81 1.487-2.462 2.992z" fill="#1D1D1D" fill-rule="nonzero"/>
            <path d="M7.854 27.665c.632 0 1.154-.509 1.154-1.133 0-.622-.518-1.129-1.154-1.129-.75 0-1.289.689-1.131 1.363.116.525.591.899 1.131.899zM10.882 20.803h11.033c.71 0 1.225-.661 1.037-1.332l-.333-1.187a1.531 1.531 0 0 0-1.48-1.106h-7.376a.47.47 0 0 0-.323.127l-2.88 2.715c-.303.284-.097.783.322.783z" fill="#FFF"/>
            <path fill="#096B65" d="M17.991 16.707h-1v5h1z"/>
            <g fill="#29A8A5">
                <path d="M14.995 22.943h1.627c.19 0 .342-.223.342-.5 0-.276-.153-.5-.342-.5h-1.627c-.189 0-.342.224-.342.5 0 .277.153.5.342.5zM20.07 22.943h1.627c.189 0 .342-.223.342-.5 0-.276-.153-.5-.342-.5H20.07c-.19 0-.342.224-.342.5 0 .277.153.5.342.5z"/>
            </g>
            <path d="M27.635 23.66v.987c0 .175.146.318.325.318H29v-1.623h-1.04a.322.322 0 0 0-.325.319z" fill="#29A8A5"/>
        </g>
    </g>
</svg>
