<svg width="32" height="32" viewBox="0 0 32 32" xmlns="http://www.w3.org/2000/svg">
    <g transform="translate(5 5)" fill="none" fill-rule="evenodd">
        <path d="M17.329 5.493h-2.043V3.379a.861.861 0 0 0-.857-.863H7.571a.861.861 0 0 0-.857.863v2.114H4.67V3.379c0-1.61 1.301-2.92 2.9-2.92h6.858c1.599 0 2.9 1.31 2.9 2.92v2.114z" fill="#1D1D1D" fill-rule="nonzero"/>
        <path d="M17.329 5.493V3.379c0-.029-.002-.057-.003-.086L14.515.463C14.486.46 14.458.46 14.429.46h-.574v2.056h.574c.473 0 .857.387.857.863v2.114h2.043z" fill="#1D1D1D" fill-rule="nonzero"/>
        <rect fill="#096B65" y="4" width="22" height="18" rx="3"/>
        <g transform="translate(5 7)">
            <circle fill="#FFF" cx="6" cy="6" r="6"/>
            <path fill="#F46A60" d="M4.75 2h2.5v8h-2.5z"/>
            <path fill="#F46A60" d="M2 7.25v-2.5h8v2.5z"/>
        </g>
        <rect fill="#29A8A5" x="7" width="8" height="3" rx="1.5"/>
    </g>
</svg>
