<svg width="32" height="32" viewBox="0 0 32 32" xmlns="http://www.w3.org/2000/svg">
    <defs>
        <linearGradient x1="37.79%" y1="27.859%" x2="52.568%" y2="55.114%" id="7orhdeaewa">
            <stop stop-color="#E6EEFF" offset="0%"/>
            <stop stop-color="#BAC8FA" offset="100%"/>
        </linearGradient>
        <linearGradient x1="31.368%" y1="30.807%" x2="53.019%" y2="53.419%" id="yc2031l4lb">
            <stop stop-color="#E6EEFF" offset="0%"/>
            <stop stop-color="#BAC8FA" offset="100%"/>
        </linearGradient>
        <linearGradient x1="50%" y1="28.379%" x2="50%" y2="69.032%" id="j8bx235imc">
            <stop stop-color="#5A5A5A" offset="0%"/>
            <stop stop-color="#444" offset="100%"/>
        </linearGradient>
        <linearGradient x1="50%" y1="28.379%" x2="50%" y2="69.032%" id="4sygov3l9d">
            <stop stop-color="#5A5A5A" offset="0%"/>
            <stop stop-color="#444" offset="100%"/>
        </linearGradient>
    </defs>
    <g fill="none" fill-rule="evenodd">
        <path d="M0 0h32v32H0z"/>
        <g fill-rule="nonzero" transform="translate(4 1)">
            <path d="M20.84 12.54c-2.947-1.117-5.897-1.013-8.84.306v.48-.48c-2.945-1.32-5.896-1.422-8.84-.306-.446.169-.74.602-.74 1.084v10.621a.62.62 0 0 0 .83.59c2.662-.988 5.33-.98 7.996.027a2.132 2.132 0 0 0 1.508 0c2.663-1.005 5.331-1.015 7.997-.028a.62.62 0 0 0 .829-.589V13.624c0-.482-.294-.915-.74-1.084z" fill="#99AAB5"/>
            <path d="M12 21.963v2.067c-2.624-1.176-5.253-1.277-7.876-.305a.557.557 0 0 1-.746-.53v-2.067c0 .39.383.664.746.53 2.623-.972 5.252-.871 7.876.305z" fill="url(#7orhdeaewa)"/>
            <path d="M20.622 21.128v2.067c0 .39-.383.664-.746.53-2.625-.973-5.254-.87-7.876.305v-2.067c2.622-1.176 5.25-1.278 7.876-.306a.557.557 0 0 0 .746-.53z" fill="url(#yc2031l4lb)"/>
            <path d="M19.876 23.155c-2.625-.972-5.254-.87-7.876.306-2.624-1.176-5.253-1.278-7.876-.306a.557.557 0 0 1-.746-.53v.57c0 .39.383.664.746.53 2.623-.972 5.252-.871 7.876.305 2.622-1.176 5.25-1.278 7.876-.305a.557.557 0 0 0 .746-.53v-.57c0 .39-.383.665-.746.53z" fill="url(#j8bx235imc)"/>
            <path d="M3.378 12.837v9.34c0 .39.384.663.746.53 2.623-.973 5.252-.872 7.876.305V12.137c-2.651-1.188-5.306-1.28-7.956-.276a1.041 1.041 0 0 0-.666.976zM12 12.137v10.875c2.622-1.176 5.25-1.279 7.876-.306a.558.558 0 0 0 .746-.53v-9.339c0-.433-.265-.823-.666-.976-2.652-1.004-5.307-.911-7.956.276z" fill="#F9F9F9"/>
            <path d="M5.099 17.628a9.807 9.807 0 0 1 3.619-.293.42.42 0 0 0 .462-.42V13.32a.42.42 0 0 0-.367-.42 9.838 9.838 0 0 0-3.94.346.423.423 0 0 0-.302.407v3.567c0 .28.261.48.528.408zM4.517 20.05a.368.368 0 0 1-.112-.715 10.269 10.269 0 0 1 6.412-.051c.19.06.298.265.238.459a.362.362 0 0 1-.453.241 9.564 9.564 0 0 0-5.972.047.36.36 0 0 1-.113.019zM4.517 21.581a.368.368 0 0 1-.112-.715 10.268 10.268 0 0 1 6.412-.05c.19.06.298.265.238.458a.362.362 0 0 1-.453.242 9.563 9.563 0 0 0-5.972.047.359.359 0 0 1-.113.018zM16.98 19.163a.366.366 0 0 1-.365.367 9.738 9.738 0 0 0-3.025.501.363.363 0 0 1-.457-.235.368.368 0 0 1 .232-.462 10.45 10.45 0 0 1 3.254-.538c.2 0 .36.165.36.367zM16.98 20.694a.366.366 0 0 1-.365.367 9.757 9.757 0 0 0-3.025.502.363.363 0 0 1-.457-.235.368.368 0 0 1 .232-.462 10.472 10.472 0 0 1 3.254-.539c.2 0 .36.165.36.367zM13.477 16.954a.368.368 0 0 1-.112-.715 10.27 10.27 0 0 1 6.412-.051c.191.06.298.265.239.459a.362.362 0 0 1-.454.241 9.565 9.565 0 0 0-5.972.047.356.356 0 0 1-.113.019zM13.477 13.858a.368.368 0 0 1-.112-.715 10.268 10.268 0 0 1 6.412-.05c.191.06.298.265.239.458a.362.362 0 0 1-.454.241 9.564 9.564 0 0 0-5.972.048.358.358 0 0 1-.113.018zM13.477 15.39a.368.368 0 0 1-.112-.715 10.313 10.313 0 0 1 4.4-.48.366.366 0 0 1 .32.406.363.363 0 0 1-.4.324 9.597 9.597 0 0 0-4.095.446.358.358 0 0 1-.113.019zM19.73 17.352a10.248 10.248 0 0 0-1.654-.342.49.49 0 0 0-.548.488v3.457a.49.49 0 0 0 .434.489c.514.055 1.027.152 1.54.29a.42.42 0 0 0 .53-.408V17.76a.422.422 0 0 0-.301-.407z" fill="#EBEBEB"/>
            <path d="M18.423 6.494C18.423 2.908 15.548 0 12 0 8.46 0 5.594 2.884 5.577 6.463a6.51 6.51 0 0 0 2.117 4.85 4.836 4.836 0 0 1 1.558 3.573h5.496c0-1.372.584-2.672 1.586-3.598a6.51 6.51 0 0 0 2.09-4.794z" fill="#FFDF7D"/>
            <ellipse fill="url(#4sygov3l9d)" cx="12" cy="17.843" rx="1.891" ry="1.912"/>
            <path d="M14.294 17.894H9.706a.938.938 0 0 1-.933-.943c0-.52.418-.943.933-.943h4.588c.515 0 .933.422.933.943 0 .52-.418.943-.933.943z" fill="#99AAB5"/>
            <path d="M14.294 16.008H9.706a.938.938 0 0 1-.933-.943c0-.521.418-.943.933-.943h4.588c.515 0 .933.422.933.943 0 .52-.418.943-.933.943z" fill="#99AAB5"/>
            <path d="M20.771 6.275c0-.384.354-.696.792-.696h1.645c.438 0 .792.312.792.696 0 .383-.354.695-.792.695h-1.645c-.438 0-.792-.312-.792-.695zM20.232 4.483a.637.637 0 0 1 0-.983l1.164-1.022a.871.871 0 0 1 1.119 0c.31.272.31.712 0 .983l-1.164 1.022a.871.871 0 0 1-1.12 0zM20.232 8.066a.871.871 0 0 1 1.12 0l1.163 1.022c.31.271.31.711 0 .983a.871.871 0 0 1-1.12 0l-1.163-1.022a.637.637 0 0 1 0-.983zM3.229 6.275c0-.384-.355-.696-.792-.696H.792c-.438 0-.792.312-.792.696 0 .383.354.695.792.695h1.645c.437 0 .792-.312.792-.695zM3.768 4.483a.637.637 0 0 0 0-.983L2.604 2.478a.871.871 0 0 0-1.119 0 .637.637 0 0 0 0 .983l1.164 1.022c.309.272.81.272 1.12 0zM3.768 8.066a.871.871 0 0 0-1.12 0L1.486 9.088a.637.637 0 0 0 0 .983c.31.271.81.271 1.12 0l1.163-1.022a.637.637 0 0 0 0-.983z" fill="#FFDF7D"/>
        </g>
    </g>
</svg>
