<svg width="32" height="32" viewBox="0 0 32 32" xmlns="http://www.w3.org/2000/svg" xmlns:xlink="http://www.w3.org/1999/xlink">
    <defs>
        <filter x="-103.1%" y="-68.7%" width="306.2%" height="374.9%" filterUnits="objectBoundingBox" id="z869jsx1ba">
            <feOffset dy="1" in="SourceAlpha" result="shadowOffsetOuter1"/>
            <feGaussianBlur stdDeviation=".5" in="shadowOffsetOuter1" result="shadowBlurOuter1"/>
            <feColorMatrix values="0 0 0 0 0 0 0 0 0 0 0 0 0 0 0 0 0 0 0.223154775 0" in="shadowBlurOuter1"/>
        </filter>
        <path d="M2.425 7.83H1.141a.396.396 0 0 1-.371-.252l-.26-.68a.39.39 0 0 1 .372-.523h1.206l.337 1.455z" id="lhphjs0u2b"/>
    </defs>
    <g fill="none" fill-rule="evenodd">
        <path d="M7.914 27.158c.538 0 1.011-.373 1.125-.888.162-.7-.387-1.373-1.125-1.373-.75 0-1.29.688-1.132 1.363.117.525.592.898 1.132.898z" fill="#FFF" fill-rule="nonzero"/>
        <path d="M3.034 25.134c.146.849.91 1.4 1.792 1.4h23.047c.62 0 1.126-.496 1.126-1.103V23.46c0-1.87-1.55-3.388-3.46-3.388a.794.794 0 0 1-.645-.323c-2.22-3.022-2.331-3.191-2.4-3.244A1.579 1.579 0 0 0 21.33 16h-7.377a1.6 1.6 0 0 0-1.132.466l-1.056 1.056-3.25 3.25-.238.031-3.234.488c-.53.217-.97.54-1.219 1.087l-.34 1.452s-.635.286-.45 1.304z" fill="#096B65"/>
        <g fill-rule="nonzero" transform="matrix(-1 0 0 1 5.91 16)">
            <use fill="#000" filter="url(#z869jsx1ba)" xlink:href="#lhphjs0u2b"/>
            <use fill="#FFF" xlink:href="#lhphjs0u2b"/>
        </g>
        <path d="M21.395 26.532c0 1.362 1.128 2.466 2.52 2.466 1.388 0 2.516-1.104 2.516-2.466 0-1.359-1.128-2.463-2.516-2.463-1.392 0-2.52 1.104-2.52 2.463z" fill="#1D1D1D" fill-rule="nonzero"/>
        <path d="M23.915 27.683c.538 0 1.012-.374 1.126-.889.162-.7-.388-1.373-1.126-1.373-.75 0-1.289.689-1.131 1.363.116.525.59.899 1.131.899z" fill="#FFF"/>
        <path d="M5.392 27.06C5.638 28.17 6.65 29 7.854 29c1.202 0 2.213-.83 2.459-1.94.35-1.51-.84-2.992-2.459-2.992-1.628 0-2.81 1.487-2.462 2.992z" fill="#1D1D1D" fill-rule="nonzero"/>
        <path d="M7.854 27.665c.632 0 1.154-.509 1.154-1.133 0-.622-.518-1.129-1.154-1.129-.75 0-1.289.689-1.131 1.363.116.525.591.899 1.131.899zM10.882 20.803h11.033c.71 0 1.225-.661 1.037-1.332l-.333-1.187a1.531 1.531 0 0 0-1.48-1.106h-7.376a.47.47 0 0 0-.323.127l-2.88 2.715c-.303.284-.097.783.322.783z" fill="#FFF"/>
        <path fill="#096B65" d="M18.372 16.707h-.465v4.683h.465"/>
        <g fill="#29A8A5">
            <path d="M14.995 22.943h1.627c.19 0 .342-.223.342-.5 0-.276-.153-.5-.342-.5h-1.627c-.189 0-.342.224-.342.5 0 .277.153.5.342.5zM20.07 22.943h1.627c.189 0 .342-.223.342-.5 0-.276-.153-.5-.342-.5H20.07c-.19 0-.342.224-.342.5 0 .277.153.5.342.5z"/>
        </g>
        <path d="M27.635 23.66v.987c0 .175.146.318.325.318H29v-1.623h-1.04a.322.322 0 0 0-.325.319z" fill="#29A8A5"/>
        <g>
            <path d="M21 21c-1.87 0-3.628-.785-4.95-2.21-1.322-1.426-2.05-3.32-2.05-5.336 0-2.016.728-3.911 2.05-5.336l4.115-4.964c.14-.15.35-.195.533-.114a.53.53 0 0 1 .302.487v4.437l2.302-1.955a.465.465 0 0 1 .692 0l1.956 2.109c1.322 1.425 2.05 3.32 2.05 5.336 0 2.015-.728 3.91-2.05 5.336C24.628 20.215 22.87 21 21 21z" fill="#F46A60"/>
            <path d="M18.47 19.823c-1.378-1.567-1.206-4.025 0-5.683l1.747-2.489c.126-.143.315-.897.48-.82.164.078.271.972.271 1.174v1.655l.947-.578a.415.415 0 0 1 .311-.146c.117 0 .229.053.311.146l.93 1.057c1.377 1.567 1.377 4.117 0 5.684-.668.759-1.555 1.177-2.499 1.177-.944 0-1.83-.418-2.498-1.177z" fill="#FAE0BA"/>
        </g>
    </g>
</svg>
