<svg width="32" height="32" viewBox="0 0 32 32" xmlns="http://www.w3.org/2000/svg" xmlns:xlink="http://www.w3.org/1999/xlink">
    <defs>
        <path id="34wvpaxbma" d="M0 0h28v28H0z"/>
        <path d="M2.84 9.183H1.336a.464.464 0 0 1-.435-.296l-.303-.796a.456.456 0 0 1 .435-.615h1.412l.395 1.707z" id="2msia8wlyd"/>
        <filter x="-88%" y="-58.6%" width="276.1%" height="334.4%" filterUnits="objectBoundingBox" id="52wfo88vbc">
            <feOffset dy="1" in="SourceAlpha" result="shadowOffsetOuter1"/>
            <feGaussianBlur stdDeviation=".5" in="shadowOffsetOuter1" result="shadowBlurOuter1"/>
            <feColorMatrix values="0 0 0 0 0 0 0 0 0 0 0 0 0 0 0 0 0 0 0.223154775 0" in="shadowBlurOuter1"/>
        </filter>
    </defs>
    <g transform="translate(2 2)" fill="none" fill-rule="evenodd">
        <mask id="nrzz9uu4yb" fill="#fff">
            <use xlink:href="#34wvpaxbma"/>
        </mask>
        <g mask="url(#nrzz9uu4yb)">
            <path d="M7.356 16.752a1.35 1.35 0 0 1-1.318-1.042c-.19-.82.454-1.61 1.318-1.61.879 0 1.51.808 1.325 1.598a1.356 1.356 0 0 1-1.325 1.054z" fill="#FFF" fill-rule="nonzero"/>
            <path d="M13.07 14.379c-.171.995-1.065 1.641-2.099 1.641h-26.985c-.725 0-1.319-.582-1.319-1.293v-2.313c0-2.194 1.815-3.973 4.053-3.973a.929.929 0 0 0 .754-.379c2.6-3.544 2.73-3.742 2.81-3.805.349-.379.843-.59 1.363-.59H.285c.495 0 .97.192 1.325.547L2.847 5.45l3.805 3.811.28.037 3.785.572c.622.255 1.136.635 1.427 1.275l.4 1.703s.742.336.526 1.53z" fill="#29A8A5"/>
            <g fill-rule="nonzero" transform="translate(9.701 3.667)">
                <use fill="#000" filter="url(#52wfo88vbc)" xlink:href="#2msia8wlyd"/>
                <use fill="#FFF" xlink:href="#2msia8wlyd"/>
            </g>
            <path d="M10.308 16.637c-.288 1.301-1.471 2.275-2.883 2.275-1.406 0-2.59-.974-2.878-2.275-.41-1.77.982-3.509 2.878-3.509 1.907 0 3.292 1.745 2.883 3.509z" fill="#1D1D1D" fill-rule="nonzero"/>
            <path d="M7.426 17.346c-.74 0-1.351-.596-1.351-1.328 0-.73.606-1.324 1.35-1.324.88 0 1.51.808 1.325 1.598a1.356 1.356 0 0 1-1.324 1.054zM3.88 9.3H-9.036c-.832 0-1.435-.776-1.215-1.562l.39-1.393a1.793 1.793 0 0 1 1.734-1.297H.507a.55.55 0 0 1 .378.15L4.259 8.38c.353.333.112.919-.378.919z" fill="#FFF"/>
        </g>
        <g mask="url(#nrzz9uu4yb)">
            <path d="M14.96 11.439s.15 2.898 1.345 5.104h7.176c1.194-2.206 1.345-5.104 1.345-5.104H14.96z" fill="#FFD6AF"/>
            <path d="M27.886 25.515c-.19-1.297-.908-4.04-3.614-6.016a.27.27 0 0 1-.042-.386c.307-.361.863-1.166.922-2.315.013-.264-.185-.484-.427-.484h-9.663c-.243 0-.44.22-.427.484a3.912 3.912 0 0 0 .922 2.315.27.27 0 0 1-.043.386c-2.706 1.975-3.423 4.72-3.613 6.016-.057.385.214.734.572.734h14.84c.358 0 .63-.349.573-.734z" fill="#096B65"/>
            <path d="M19.893 11.439H14.96s.061 1.183.417 2.614c1.47.635 3.002.828 3.538.878a.363.363 0 0 0 .321-.14l.474-.738a.232.232 0 0 1 .366 0l.474.739a.363.363 0 0 0 .32.14c.537-.051 2.069-.244 3.539-.88a15.39 15.39 0 0 0 .417-2.613h-4.933z" fill="#1D1D1D" fill-rule="nonzero"/>
            <path d="M17.297 12.949c.324.12 1.064.382 1.614.488.067.013.12.06.139.126a.177.177 0 0 1-.065.191c-.177.128-.578.374-1.08.397a.485.485 0 0 1-.255-.056c-.196-.106-.539-.384-.53-1.025a.131.131 0 0 1 .177-.121zM22.49 12.949c-.325.12-1.065.382-1.615.488a.177.177 0 0 0-.074.317c.177.128.578.374 1.08.397a.485.485 0 0 0 .255-.056c.196-.106.54-.384.53-1.025a.131.131 0 0 0-.177-.121z" fill="#FFF"/>
            <path d="M20.996 5.667h-2.06c-2.361 0-4.283 1.804-4.283 4.023v.45c0 .142.123.257.275.257h10.077c.152 0 .275-.115.275-.258v-.45c0-2.218-1.922-4.022-4.284-4.022z" fill="#29A8A5"/>
            <path d="M25.158 9.395h-10.53c-.502 0-.91.383-.91.855v.737c0 .472.408.854.91.854h10.53c.502 0 .91-.382.91-.854v-.737c0-.472-.408-.855-.91-.855z" fill="#096B65"/>
        </g>
    </g>
</svg>
