<svg width="32" height="32" viewBox="0 0 32 32" xmlns="http://www.w3.org/2000/svg">
    <defs>
        <linearGradient x1="28.66%" y1="20.095%" x2="58.249%" y2="77.619%" id="wk97kxxwka">
            <stop stop-color="#FFDFCF" offset="0%"/>
            <stop stop-color="#FFA78F" offset="100%"/>
        </linearGradient>
    </defs>
    <g fill="none" fill-rule="evenodd">
        <path d="M10 11.884c0-.782.545-1.438 1.277-1.61a.313.313 0 0 1 .383.305v2.61c0 .2-.187.351-.383.305A1.656 1.656 0 0 1 10 11.884z" fill="#FFD6AF"/>
        <path d="M12 1.619c0-.783-.545-1.438-1.277-1.61a.313.313 0 0 0-.383.305v2.61c0 .2.187.35.383.305A1.656 1.656 0 0 0 12 1.619z" fill="url(#wk97kxxwka)" fill-rule="nonzero" transform="translate(10 10.266)"/>
        <path d="M22 11.884c0-.782-.545-1.438-1.277-1.61a.313.313 0 0 0-.383.305v2.61c0 .2.187.351.383.305A1.656 1.656 0 0 0 22 11.884z" fill="#FFD6AF"/>
        <path d="M21.151 18.063h-7.727l-3.94.214A4.46 4.46 0 0 0 6.4 22.516v4.78c0 .39.315.704.702.704h10.922l7.576-2.513v-2.971a4.456 4.456 0 0 0-4.449-4.453z" fill="#096B65"/>
        <path d="M21.151 18.063H16V28h2.024l7.576-2.513v-2.971a4.456 4.456 0 0 0-4.449-4.453z" fill="#096B65"/>
        <path d="M13.424 15.555v3.679a2.577 2.577 0 1 0 5.152 0v-3.679h-5.152zM18.341 28h-5.15a2.11 2.11 0 0 1-2.108-2.11 2.11 2.11 0 0 1 2.107-2.109h5.151c.388 0 .703.315.703.703v2.813a.703.703 0 0 1-.703.703z" fill="#FFD6AF"/>
        <path d="M13.424 18.063H10.85c-.476 0-.934.075-1.365.214L18.024 28h6.874a.703.703 0 0 0 .702-.703v-1.81l-12.176-7.424z" fill="#82CCCC"/>
        <path d="m16.928 8.116-5.845 2.07v3.086A4.925 4.925 0 0 0 16 18.194a4.925 4.925 0 0 0 4.917-4.922v-3.093l-3.99-2.063z" fill="#FFD6AF"/>
        <g transform="matrix(-1 0 0 1 21.748 4)" fill="#1D1D1D" fill-rule="nonzero">
            <path d="M11.577 5.44c-.691 1.569-3.275 1.955-5.77.863C3.31 5.211 1.849 3.053 2.54 1.484 3.231-.085 5.815-.47 8.31.621c2.495 1.092 3.958 3.25 3.267 4.819z"/>
            <ellipse cx="1.927" cy="4.529" rx="1.927" ry="2.508"/>
        </g>
        <g fill="#1D1D1D" fill-rule="nonzero">
            <path d="M13.872 13.958a.697.697 0 0 1-.698-.695v-.357a.697.697 0 0 1 1.396 0v.357a.697.697 0 0 1-.698.695zM18.128 13.958a.697.697 0 0 1-.698-.695v-.357a.697.697 0 0 1 1.396 0v.357a.697.697 0 0 1-.698.695z"/>
        </g>
    </g>
</svg>
