<svg width="32" height="32" viewBox="0 0 32 32" xmlns="http://www.w3.org/2000/svg">
    <g fill="none" fill-rule="evenodd">
        <g fill="#29A8A5">
            <path d="M6 4h20a2 2 0 0 1 2 2v1H4V6a2 2 0 0 1 2-2zM4 25h24v1a2 2 0 0 1-2 2H6a2 2 0 0 1-2-2v-1z"/>
            <path d="M4 6h1.846v20H4zM7.692 6h1.846v20H7.692zM11.385 6h1.846v20h-1.846zM15.077 6h1.846v20h-1.846zM18.769 6h1.846v20h-1.846zM22.462 6h1.846v20h-1.846zM26.154 6H28v20h-1.846z"/>
        </g>
        <path fill="#E1F2F3" d="M15.077 10h1.846v5h-1.846z"/>
        <path d="M16 9a3.75 3.75 0 0 1 3.75 3.75v2.145h-7.5V12.75A3.75 3.75 0 0 1 16 9zm0 1.637c-1.208 0-2.188.98-2.188 2.188v1.415h4.376v-1.415c0-1.208-.98-2.188-2.188-2.188z" fill="#1D1D1D" fill-rule="nonzero"/>
        <g transform="translate(10 14.158)">
            <rect fill="#096B65" width="12" height="8.842" rx="1.516"/>
            <ellipse fill="#FFF" cx="6" cy="4.421" rx="1.313" ry="1.289"/>
        </g>
    </g>
</svg>
