<svg width="32" height="32" viewBox="0 0 32 32" xmlns="http://www.w3.org/2000/svg" xmlns:xlink="http://www.w3.org/1999/xlink">
    <defs>
        <path id="gut50hb7oa" d="M0 0h30v18H0z"/>
        <path d="M2.84 9.183H1.336a.464.464 0 0 1-.435-.296l-.303-.796a.456.456 0 0 1 .435-.615h1.412l.395 1.707z" id="2ecun8z9qd"/>
        <path d="M2.84 9.183H1.336a.464.464 0 0 1-.435-.296l-.303-.796a.456.456 0 0 1 .435-.615h1.412l.395 1.707z" id="dkpbe9kpyf"/>
        <filter x="-88%" y="-58.6%" width="276.1%" height="334.4%" filterUnits="objectBoundingBox" id="ua9jyox4yc">
            <feOffset dy="1" in="SourceAlpha" result="shadowOffsetOuter1"/>
            <feGaussianBlur stdDeviation=".5" in="shadowOffsetOuter1" result="shadowBlurOuter1"/>
            <feColorMatrix values="0 0 0 0 0 0 0 0 0 0 0 0 0 0 0 0 0 0 0.223154775 0" in="shadowBlurOuter1"/>
        </filter>
        <filter x="-88%" y="-58.6%" width="276.1%" height="334.4%" filterUnits="objectBoundingBox" id="a9ei2t5wje">
            <feOffset dy="1" in="SourceAlpha" result="shadowOffsetOuter1"/>
            <feGaussianBlur stdDeviation=".5" in="shadowOffsetOuter1" result="shadowBlurOuter1"/>
            <feColorMatrix values="0 0 0 0 0 0 0 0 0 0 0 0 0 0 0 0 0 0 0.223154775 0" in="shadowBlurOuter1"/>
        </filter>
    </defs>
    <g transform="translate(1 8)" fill="none" fill-rule="evenodd">
        <mask id="u38qnmbylb" fill="#fff">
            <use xlink:href="#gut50hb7oa"/>
        </mask>
        <g mask="url(#u38qnmbylb)">
            <path d="M20.753 14.086a1.35 1.35 0 0 0 1.318-1.042c.19-.821-.454-1.61-1.318-1.61-.878 0-1.509.807-1.324 1.598a1.356 1.356 0 0 0 1.324 1.054z" fill="#FFF" fill-rule="nonzero"/>
            <path d="M15.04 11.712c.17.995 1.065 1.641 2.098 1.641h26.985c.726 0 1.32-.581 1.32-1.293V9.747c0-2.194-1.815-3.972-4.053-3.972a.929.929 0 0 1-.755-.38c-2.599-3.544-2.73-3.742-2.81-3.804A1.847 1.847 0 0 0 36.463 1h-8.637c-.495 0-.97.193-1.326.547l-1.237 1.237-3.805 3.811-.279.038-3.786.572c-.621.255-1.135.634-1.427 1.274l-.4 1.704s-.741.335-.526 1.53z" fill="#096B65"/>
            <g fill-rule="nonzero" transform="matrix(-1 0 0 1 18.408 1)">
                <use fill="#000" filter="url(#ua9jyox4yc)" xlink:href="#2ecun8z9qd"/>
                <use fill="#FFF" xlink:href="#2ecun8z9qd"/>
            </g>
            <path d="M17.801 13.97c.288 1.302 1.472 2.276 2.883 2.276 1.407 0 2.59-.974 2.878-2.276.41-1.77-.982-3.509-2.878-3.509-1.906 0-3.292 1.745-2.883 3.51z" fill="#1D1D1D" fill-rule="nonzero"/>
            <path d="M20.684 14.68c.74 0 1.35-.596 1.35-1.328 0-.73-.606-1.325-1.35-1.325-.879 0-1.51.808-1.325 1.599a1.356 1.356 0 0 0 1.325 1.054zM24.229 6.633h12.918c.831 0 1.435-.776 1.215-1.562l-.39-1.393a1.793 1.793 0 0 0-1.734-1.296h-8.636a.55.55 0 0 0-.378.149l-3.373 3.183c-.354.333-.113.92.378.92z" fill="#FFF"/>
            <path d="M29.045 8.97h1.905c.221 0 .4-.224.4-.5s-.179-.5-.4-.5h-1.905c-.221 0-.4.224-.4.5s.179.5.4.5z" fill="#29A8A5"/>
        </g>
        <g mask="url(#u38qnmbylb)">
            <path d="M9.69 14.086a1.35 1.35 0 0 1-1.318-1.042c-.19-.821.454-1.61 1.318-1.61.878 0 1.509.807 1.324 1.598a1.356 1.356 0 0 1-1.324 1.054z" fill="#FFF" fill-rule="nonzero"/>
            <path d="M15.404 11.712c-.172.995-1.066 1.641-2.1 1.641H-13.68c-.726 0-1.32-.581-1.32-1.293V9.747c0-2.194 1.815-3.972 4.053-3.972a.929.929 0 0 0 .755-.38c2.599-3.544 2.73-3.742 2.81-3.804C-7.035 1.21-6.54 1-6.02 1h8.637c.495 0 .97.193 1.326.547L5.18 2.784l3.806 3.811.279.038 3.786.572c.621.255 1.135.634 1.427 1.274l.4 1.704s.741.335.526 1.53z" fill="#29A8A5"/>
            <g fill-rule="nonzero" transform="translate(12.035 1)">
                <use fill="#000" filter="url(#a9ei2t5wje)" xlink:href="#dkpbe9kpyf"/>
                <use fill="#FFF" xlink:href="#dkpbe9kpyf"/>
            </g>
            <path d="M12.642 13.97c-.288 1.302-1.472 2.276-2.883 2.276-1.407 0-2.59-.974-2.878-2.276-.41-1.77.982-3.509 2.878-3.509 1.906 0 3.292 1.745 2.883 3.51z" fill="#1D1D1D" fill-rule="nonzero"/>
            <path d="M9.76 14.68c-.74 0-1.352-.596-1.352-1.328 0-.73.606-1.325 1.351-1.325.879 0 1.51.808 1.325 1.599a1.356 1.356 0 0 1-1.325 1.054zM6.214 6.633H-6.704c-.831 0-1.435-.776-1.215-1.562l.39-1.393a1.793 1.793 0 0 1 1.734-1.296H2.84a.55.55 0 0 1 .378.149l3.374 3.183c.353.333.113.92-.378.92z" fill="#FFF"/>
        </g>
        <rect fill="#EE9132" mask="url(#u38qnmbylb)" x="14.667" y="1" width="1.333" height="4" rx=".667"/>
        <path d="M19.333 2.333c.369 0 .667.299.667.667v2.667a.667.667 0 1 1-1.333 0V3c0-.368.298-.667.666-.667z" fill="#EE9132" mask="url(#u38qnmbylb)" transform="rotate(45 19.333 4.333)"/>
        <path d="M11.333 2.333c.369 0 .667.299.667.667v2.667a.667.667 0 1 1-1.333 0V3c0-.368.298-.667.666-.667z" fill="#EE9132" mask="url(#u38qnmbylb)" transform="scale(-1 1) rotate(45 0 -23.028)"/>
    </g>
</svg>
