<?xml version="1.0" encoding="UTF-8"?>
<svg width="24px" height="24px" viewBox="0 0 24 24" version="1.1" xmlns="http://www.w3.org/2000/svg" xmlns:xlink="http://www.w3.org/1999/xlink">
    <title>icon/24/green/right-active</title>
    <g id="icon/24/green/right-active" stroke="none" stroke-width="1" fill="none" fill-rule="evenodd">
        <circle id="Oval" fill="#1DA578" cx="12" cy="12" r="12"></circle>
        <path d="M17.4901961,7 C18.1399428,7 18.6666667,7.51659452 18.6666667,8.15384615 C18.6666667,8.50320467 18.5083584,8.81629936 18.25826,9.02789116 L10.5230591,16.6163743 L10.4868334,16.6542401 L10.4443335,16.6936035 L10.4353013,16.7027306 C10.2266975,16.8874972 9.95027398,17 9.64705882,17 C9.29487724,17 8.97883924,16.8482269 8.76323242,16.607732 L5.67279651,13.5780405 L5.63643159,13.5423148 C5.44804208,13.3377225 5.33333333,13.0666149 5.33333333,12.7692308 C5.33333333,12.1319791 5.86005716,11.6153846 6.50980392,11.6153846 C6.76970263,11.6153846 7.00991766,11.6980397 7.20461217,11.83801 L7.2959487,11.9107478 L9.64533333,14.216 L16.6055055,7.39323304 C16.7946461,7.18178794 17.0613342,7.03872535 17.3620066,7.00677061 L17.4901961,7 Z" id="Combined-Shape" fill="#FFFFFF"></path>
    </g>
</svg>