<svg width="24" height="24" viewBox="0 0 24 24" xmlns="http://www.w3.org/2000/svg">
    <path d="M3.337 5.122c-.15.267-.199.53-.162.782-.158.612-1.166 5.334 4.27 10.595 5.518 5.34 10.074 4.267 10.739 3.923.25.027.508-.035.766-.19.516-.305 1.405-1.067 1.751-1.5.492-.612.35-1.048-.23-1.442l-4.124-2.824c-.412-.28-.963-.18-1.235.198l-1.072 1.518a.687.687 0 0 0-.118.302c-.144.083-1.515.768-4.066-1.78-2.62-2.618-2.877-3.898-2.586-4.68l.278-.128 1.48-1.12c.372-.281.451-.838.157-1.243L6.228 3.502c-.411-.563-.851-.693-1.447-.181-.421.36-1.153 1.275-1.444 1.801" stroke="#3E3E3E" fill="none" fill-rule="evenodd" stroke-linecap="round" stroke-linejoin="round"/>
</svg>
