<svg width="24" height="24" viewBox="0 0 24 24" xmlns="http://www.w3.org/2000/svg">
    <g stroke="#3E3E3E" fill="none" fill-rule="evenodd">
        <path d="M11.999 1.002c.247-.002.493.086.688.262 1.885 1.794 4.07 2.7 6.897 2.855.518.028.983.252 1.32.596.334.34.543.798.55 1.3.005.264.012.5.022.725.052 2.661.126 5.953-1 8.943a11.079 11.079 0 0 1-2.716 4.144c-1.349 1.29-3.11 2.317-5.23 3.06-3.164-.74-4.94-1.762-6.295-3.058a11.062 11.062 0 0 1-2.715-4.142c-1.122-2.982-1.048-6.268-.997-8.908.012-.266.019-.502.023-.763.007-.503.216-.96.55-1.3a2.001 2.001 0 0 1 1.32-.597c2.833-.155 5.02-1.064 6.892-2.85.2-.176.446-.266.69-.267z"/>
        <path stroke-linecap="round" stroke-linejoin="round" d="m7.5 12.384 2.558 2.558L16.5 8.5"/>
    </g>
</svg>
