<svg width="24" height="24" viewBox="0 0 24 24" xmlns="http://www.w3.org/2000/svg">
    <g stroke="#3E3E3E" fill="none" fill-rule="evenodd" stroke-linecap="round" stroke-linejoin="round">
        <path d="M5.846 6V3"/>
        <rect x="2" y="9" width="20" height="12" rx="2"/>
        <path d="M12 6V3M18.154 6V3M22 15.75h-.77a3.117 3.117 0 0 1-2.175-.879 2.963 2.963 0 0 1-.901-2.121c0 .796-.324 1.559-.901 2.121a3.117 3.117 0 0 1-2.176.879 3.118 3.118 0 0 1-2.176-.879A2.963 2.963 0 0 1 12 12.75c0 .796-.324 1.559-.901 2.121a3.118 3.118 0 0 1-2.176.879 3.118 3.118 0 0 1-2.176-.879 2.963 2.963 0 0 1-.9-2.121c0 .796-.325 1.559-.902 2.121a3.118 3.118 0 0 1-2.176.879H2"/>
    </g>
</svg>
