<svg width="320" height="34" viewBox="0 0 320 34" xmlns="http://www.w3.org/2000/svg" xmlns:xlink="http://www.w3.org/1999/xlink">
    <defs>
        <linearGradient x1="0%" y1="50%" x2="100%" y2="50%" id="zrtpz65sgb">
            <stop stop-color="#F46A60" offset="0%"/>
            <stop stop-color="#EE761D" offset="100%"/>
        </linearGradient>
        <path d="M16 0h225.162a24 24 0 0 1 21.464 13.263L273 34H0V16C0 7.163 7.163 0 16 0z" id="os9mmde2sa"/>
    </defs>
    <g fill="none" fill-rule="evenodd">
        <use fill="url(#zrtpz65sgb)" xlink:href="#os9mmde2sa"/>
        <path d="M68.732 14.43c.169 0 .341.042.517.127.177.084.334.199.472.345.138.145.25.31.334.494a.932.932 0 0 1 .08.552c0 .077-.02.207-.058.391l-.138.655c-.053.253-.122.526-.206.817-.085.291-.173.583-.265.874-.107.353-.215.717-.322 1.093-.107.375-.222.762-.345 1.161.26.184.475.475.644.874.169.399.253.782.253 1.15.092.843-.02 1.618-.333 2.323a4.236 4.236 0 0 1-1.438 1.748.811.811 0 0 1-.46.138 1.12 1.12 0 0 1-.621-.195c-.2-.13-.368-.296-.506-.495a2.494 2.494 0 0 1-.437-1.253 7.65 7.65 0 0 1 .069-1.53c0-.16.022-.36.066-.604l.038-.19a4.08 4.08 0 0 0 .103-.793c-.46.322-.87.621-1.23.897s-.702.579-1.024.909c-.322.33-.636.709-.943 1.138-.307.43-.636.966-.989 1.61-.153.291-.353.437-.598.437a.78.78 0 0 1-.495-.196 1.756 1.756 0 0 1-.413-.494c-.116-.2-.2-.406-.254-.621a1.052 1.052 0 0 1 .012-.598c.291-.828.544-1.694.759-2.599.215-.905.43-1.771.644-2.599l.195-.77a16.1 16.1 0 0 0 .219-.978c.061-.322.092-.602.092-.84 0-.237-.061-.356-.184-.356-.077 0-.184.058-.322.172a4.447 4.447 0 0 0-.529.564c-.23.276-.46.414-.69.414-.26 0-.475-.138-.644-.414-.169-.276-.192-.59-.069-.943.184-.475.49-.912.92-1.311.43-.399.95-.598 1.564-.598.353 0 .648.073.886.219.237.145.425.333.563.563.138.23.238.49.299.782.061.291.1.583.115.874.046.89-.008 1.664-.161 2.323-.153.66-.314 1.319-.483 1.978.307-.23.579-.43.817-.598.237-.169.475-.318.712-.449.238-.13.491-.245.76-.345.268-.1.594-.195.977-.287a22.927 22.927 0 0 0 .667-2.495 22.927 22.927 0 0 1 .667-2.495c.061-.216.153-.365.276-.45a.752.752 0 0 1 .437-.126zm-7.364-5.786c.192 0 .38.056.564.168a1.35 1.35 0 0 1 .648.996.775.775 0 0 1-.156.564c-.512.72-1.112 1.4-1.8 2.04a78.456 78.456 0 0 0-2.04 1.968l-2.28 2.28c.304.256.584.52.84.792s.448.648.576 1.128c.176.608.228 1.276.156 2.004a6.422 6.422 0 0 1-.516 2.004 8.016 8.016 0 0 1-.792 1.512c-.32.48-.696.912-1.128 1.296-.432.384-.912.7-1.44.948a4.876 4.876 0 0 1-1.704.444c-1.44 0-2.544-.528-3.312-1.584-.416-.624-.616-1.268-.6-1.932.016-.664.16-1.356.432-2.076.256-.624.54-1.24.852-1.848.312-.608.604-1.216.876-1.824a1.97 1.97 0 0 0 .144-.372l.096-.372-.048.048c-.176.08-.316.172-.42.276a1.417 1.417 0 0 0-.276.42.597.597 0 0 1-.432.192.833.833 0 0 1-.48-.168 1.478 1.478 0 0 1-.396-.408 1.368 1.368 0 0 1-.204-.516.653.653 0 0 1 .096-.492 6.038 6.038 0 0 1 1.128-1.2 3.229 3.229 0 0 1 1.512-.72c.432 0 .78.144 1.044.432.264.288.436.608.516.96.096.352.132.712.108 1.08-.024.368-.08.732-.168 1.092-.088.36-.192.712-.312 1.056-.12.344-.228.668-.324.972-.08.256-.184.524-.312.804a27.1 27.1 0 0 1-.408.852c-.144.288-.276.584-.396.888-.12.304-.212.616-.276.936-.096.432-.036.744.18.936.216.192.5.288.852.288s.648-.056.888-.168c.448-.16.84-.44 1.176-.84.336-.4.64-.816.912-1.248.272-.448.492-.98.66-1.596.168-.616.18-1.196.036-1.74a1.454 1.454 0 0 0-.312-.552c-.144-.16-.3-.304-.468-.432a12.08 12.08 0 0 0-.516-.372 3.16 3.16 0 0 1-.456-.372c-.16-.176-.256-.416-.288-.72-.048-.32.52-.952 1.704-1.896.384-.32.74-.664 1.068-1.032.328-.368.668-.728 1.02-1.08a39.283 39.283 0 0 0 1.764-1.884 12.507 12.507 0 0 1 1.908-1.764.865.865 0 0 1 .504-.168zM52.719 8.1c.129 0 .257.036.385.108a.835.835 0 0 1 .3.269.64.64 0 0 1 .105.358c0 .132-.058.264-.173.395a.505.505 0 0 1-.087.251 3.736 3.736 0 0 1-.193.287c-.07.096-.125.191-.163.287-.039.096-.039.18 0 .251.038.06.102.09.192.09.18 0 .453-.087.819-.26.366-.174.748-.37 1.146-.592a16.51 16.51 0 0 0 1.098-.664c.334-.221.565-.38.694-.475a.747.747 0 0 1 .462-.162c.18 0 .357.057.53.17.173.115.308.252.405.413a.967.967 0 0 1 .144.503c0 .173-.077.32-.231.44-.308.226-.665.477-1.07.753-.404.275-.828.529-1.27.762a9.64 9.64 0 0 1-1.34.583c-.45.155-.88.233-1.29.233a2.293 2.293 0 0 1-1.156-.52c-.321-.275-.527-.652-.617-1.13-.064-.419-.01-.795.164-1.13.173-.335.37-.64.587-.915a.65.65 0 0 1 .56-.305zm2.5-3.109c-.043-.088-.096-.143-.16-.166a.767.767 0 0 0-.246-.033c-.143 0-.289.022-.438.067-.15.044-.267.088-.353.132a.092.092 0 0 0-.043.011.092.092 0 0 1-.042.011.43.43 0 0 1-.332-.154.85.85 0 0 1-.192-.365.93.93 0 0 1-.01-.42.462.462 0 0 1 .234-.32c.4-.236.798-.354 1.197-.354.285 0 .56.074.823.221.264.147.474.376.631.685.228.457.27.928.128 1.414a21.32 21.32 0 0 0 1.358-.309 5.324 5.324 0 0 1 1.357-.177H59.558a.51.51 0 0 1 .193.044c.171.03.31.126.417.288.107.162.174.331.203.508a.799.799 0 0 1-.064.486c-.071.148-.207.221-.406.221a5.38 5.38 0 0 0-1.026.1c-.342.066-.685.136-1.027.21-.342.073-.684.143-1.026.21a5.38 5.38 0 0 1-1.026.099c-.242 0-.477-.022-.705-.066a.675.675 0 0 1-.385-.133.828.828 0 0 1-.288-.342.883.883 0 0 1-.075-.453.717.717 0 0 1 .213-.442 6.73 6.73 0 0 1 .171-.166c.086-.081.171-.166.257-.254.085-.089.153-.185.203-.288.05-.103.06-.191.032-.265zm23.426 20.711c0-.198.027-.387.081-.567l3.078-11.934a15.41 15.41 0 0 1-1.769 1.147c-.656.37-1.084.554-1.282.554-.252 0-.535-.081-.85-.243a3.414 3.414 0 0 1-.81-.567c-.225-.216-.338-.396-.338-.54 0-.054.009-.09.027-.108.18-.234.653-.626 1.418-1.175a98.996 98.996 0 0 1 2.983-2.038c1.188-.792 1.89-1.269 2.106-1.431a.952.952 0 0 1 .54-.162c.414 0 .806.171 1.175.513.368.342.553.738.553 1.188 0 .018.013.067.04.149a1 1 0 0 1 .041.31c0 .036-.018.162-.054.378-.27 1.494-.752 3.623-1.445 6.385a431.223 431.223 0 0 0-1.174 4.739c-.396 1.512-.621 2.403-.675 2.673-.144.63-.365 1.116-.662 1.458-.296.342-.778.513-1.444.513-.54 0-.931-.09-1.174-.27-.244-.18-.365-.504-.365-.972zm15.435.755c-.234 0-.45-.099-.648-.297a1.655 1.655 0 0 1-.419-.689A1.233 1.233 0 0 1 93 24.73c.072-.234.261-.387.567-.459.45-.108.923-.274 1.418-.5.495-.224.922-.49 1.282-.796a6.245 6.245 0 0 0 .918-.999 2.01 2.01 0 0 0 .31-.621.717.717 0 0 0-.067-.594.83.83 0 0 0-.27-.297 2.685 2.685 0 0 0-.418-.243c-.153-.072-.302-.14-.446-.203a8.24 8.24 0 0 1-.378-.175 3.683 3.683 0 0 1-1.026-.729 3.364 3.364 0 0 1-.702-.999c-.252-.558-.306-1.111-.162-1.66a4.333 4.333 0 0 1 .81-1.58 7.754 7.754 0 0 1 1.458-1.404 12.153 12.153 0 0 1 3.605-1.863c.585-.18 1.084-.27 1.498-.27.162 0 .261.009.297.027h.054a.53.53 0 0 1 .486.27c.108.18.162.387.162.621 0 .234-.05.454-.148.661a.688.688 0 0 1-.473.392c-.234.054-.549.175-.945.364-.396.19-.805.419-1.228.689-.424.27-.838.563-1.243.877a4.957 4.957 0 0 0-.971.973c-.244.333-.374.652-.392.958-.018.306.144.576.486.81.432.288.85.599 1.255.931.406.334.739.698 1 1.094.26.396.422.828.486 1.296.063.468-.032.972-.284 1.512a5.093 5.093 0 0 1-.999 1.418 7.658 7.658 0 0 1-1.458 1.16 7.649 7.649 0 0 1-1.701.784 5.609 5.609 0 0 1-1.701.283zm10.543-8.589a.66.66 0 0 1-.504.24.716.716 0 0 1-.444-.156 1.155 1.155 0 0 1-.324-.384 1.283 1.283 0 0 1-.144-.48.701.701 0 0 1 .12-.468c.272-.368.564-.74.876-1.116a7.68 7.68 0 0 1 1.02-1.02 5.179 5.179 0 0 1 1.2-.744 3.388 3.388 0 0 1 1.392-.288c.544 0 1.044.136 1.5.408.456.272.788.704.996 1.296.128.336.176.804.144 1.404-.032.6-.12 1.264-.264 1.992a27.12 27.12 0 0 1-.552 2.256c-.224.776-.46 1.516-.708 2.22a28.54 28.54 0 0 1-.732 1.884c-.24.552-.456.956-.648 1.212a.547.547 0 0 1-.504.288.818.818 0 0 1-.42-.12 1.615 1.615 0 0 1-.636-.72.964.964 0 0 1-.096-.384c.128-.72.288-1.44.48-2.16.192-.72.388-1.44.588-2.16l.6-2.16c.2-.72.372-1.44.516-2.16.032-.304.036-.536.012-.696-.024-.16-.116-.24-.276-.24-.16 0-.456.12-.888.36a4.33 4.33 0 0 0-1.224.876c-.352.36-.712.7-1.08 1.02zm10.982 2.508a8.447 8.447 0 0 1 1.368-1.449 4.686 4.686 0 0 1 1.737-.92c.03 0 .058-.004.08-.012a.255.255 0 0 1 .081-.011c.245 0 .452.08.621.241.169.162.28.35.334.564a.957.957 0 0 1-.046.621c-.085.2-.257.337-.518.414a2.657 2.657 0 0 0-1.104.586 5.64 5.64 0 0 0-.874.978c-.26.368-.495.751-.702 1.15-.206.399-.41.774-.609 1.127-.123.215-.272.456-.448.725a6.257 6.257 0 0 1-.587.758 3.76 3.76 0 0 1-.678.599 1.313 1.313 0 0 1-.748.241c-.353 0-.69-.161-1.012-.483-.307-.2-.529-.502-.667-.909a4.452 4.452 0 0 1-.218-1.368 10.82 10.82 0 0 1 .103-1.61c.077-.567.18-1.115.31-1.644.13-.53.273-1.016.426-1.461.153-.445.291-.797.414-1.058.583-1.18 1.33-2.116 2.243-2.806.912-.69 2.05-1.035 3.415-1.035 1.012.061 1.84.326 2.484.793a4.875 4.875 0 0 1 1.506 1.771c.36.713.583 1.507.667 2.381.085.874.062 1.756-.069 2.645-.13.89-.356 1.744-.678 2.564-.322.82-.705 1.522-1.15 2.105a.7.7 0 0 1-.575.299c-.184 0-.36-.05-.529-.15-.169-.1-.31-.226-.425-.379a1.147 1.147 0 0 1-.219-.506.885.885 0 0 1 .092-.552c.184-.337.387-.782.61-1.334.222-.552.413-1.146.575-1.783.16-.636.276-1.284.344-1.943.07-.66.039-1.261-.092-1.805-.13-.545-.379-.993-.747-1.346-.368-.353-.905-.544-1.61-.575-.92 0-1.69.253-2.311.759s-1.131 1.173-1.53 2.001a9.36 9.36 0 0 0-.448.943c-.162.383-.307.794-.438 1.23-.13.438-.233.882-.31 1.335-.077.452-.1.87-.069 1.253a6.9 6.9 0 0 0 .587-.747 30.367 30.367 0 0 0 1.103-1.714c.146-.245.25-.406.311-.483zm10.66-2.185a.632.632 0 0 1-.483.23.686.686 0 0 1-.425-.15c-.13-.1-.234-.222-.311-.367a1.23 1.23 0 0 1-.138-.46.672.672 0 0 1 .115-.449c.26-.353.54-.71.84-1.07a7.36 7.36 0 0 1 .977-.977 4.963 4.963 0 0 1 1.15-.713 3.247 3.247 0 0 1 1.334-.276c.521 0 1 .13 1.438.391.436.26.755.675.954 1.242.123.322.169.77.138 1.345a13.67 13.67 0 0 1-.253 1.91 25.99 25.99 0 0 1-.529 2.162 38.76 38.76 0 0 1-.679 2.127 27.351 27.351 0 0 1-.701 1.806c-.23.529-.437.916-.621 1.161a.524.524 0 0 1-.483.276.784.784 0 0 1-.403-.115 1.548 1.548 0 0 1-.61-.69.924.924 0 0 1-.091-.368c.123-.69.276-1.38.46-2.07s.372-1.38.563-2.07l.576-2.07c.191-.69.356-1.38.494-2.07.03-.291.035-.514.012-.667-.024-.153-.112-.23-.265-.23-.153 0-.437.115-.851.345a4.149 4.149 0 0 0-1.173.84 17.6 17.6 0 0 1-1.035.977zm9.969-3.121a.41.41 0 0 0-.3-.125c-.2 0-.408.092-.625.275-.217.183-.4.35-.55.5a.6.6 0 0 1-.35.125.615.615 0 0 1-.425-.188 1.072 1.072 0 0 1-.288-.45 1.516 1.516 0 0 1-.075-.55.669.669 0 0 1 .188-.462c.167-.183.363-.37.588-.563.225-.191.462-.362.712-.512.25-.15.512-.275.787-.375.276-.1.538-.15.788-.15.3 0 .58.075.838.225.258.15.479.417.662.8.133.267.2.746.2 1.438 0 .691-.025 1.462-.075 2.312a49.732 49.732 0 0 1-.275 2.637 69.577 69.577 0 0 1-.35 2.388c.083-.15.17-.287.262-.412s.171-.246.238-.363c.583-1.05 1.096-2.1 1.537-3.15.442-1.05.88-2.1 1.313-3.15.133-.35.383-.525.75-.525.333 0 .662.133.988.4.325.267.512.567.562.9.017.05.03.263.037.638.009.375.021.837.038 1.387.017.55.042 1.133.075 1.75.033.617.08 1.192.137 1.725.059.533.138.975.238 1.325.1.35.225.525.375.525.133 0 .275-.158.425-.475.383-.75.696-1.537.938-2.362a28.31 28.31 0 0 0 .612-2.513 96 96 0 0 0 .463-2.537c.141-.842.304-1.655.487-2.438.067-.317.242-.475.525-.475a.99.99 0 0 1 .463.125c.158.083.304.196.437.338.133.141.246.295.338.462.091.167.137.333.137.5-.033.367-.096.9-.188 1.6-.091.7-.208 1.47-.35 2.313-.141.841-.32 1.704-.537 2.587a19.878 19.878 0 0 1-.75 2.425c-.283.733-.604 1.342-.963 1.825-.358.483-.762.75-1.212.8a1.112 1.112 0 0 1-.213.025h-.212c-.55 0-1.025-.137-1.425-.412-.4-.276-.738-.621-1.013-1.038a5.765 5.765 0 0 1-.662-1.387 11.157 11.157 0 0 1-.375-1.438c-.117.233-.23.467-.338.7-.108.233-.229.467-.362.7-.15.3-.33.63-.537.988a6.084 6.084 0 0 1-.713.987c-.267.3-.567.554-.9.762-.333.209-.7.313-1.1.313a2.37 2.37 0 0 1-.575-.075c-.433-.117-.737-.413-.912-.887-.175-.476-.271-1.055-.288-1.738-.017-.683.02-1.42.113-2.213.091-.791.195-1.566.312-2.325.117-.758.217-1.45.3-2.075.083-.625.108-1.104.075-1.437zm4.575-4.6c-.133.083-.242.125-.325.125-.167 0-.317-.075-.45-.225a1.34 1.34 0 0 1-.287-.537 1.495 1.495 0 0 1-.038-.638.805.805 0 0 1 .3-.525 5.788 5.788 0 0 1 3.55-1.175 6.76 6.76 0 0 1 2.688.562 6.94 6.94 0 0 1 2.312 1.613c.217.217.375.496.475.838.1.341 0 .662-.3.962a.848.848 0 0 1-.625.25c-.333 0-.65-.158-.95-.475-.483-.533-1.017-.908-1.6-1.125a5.13 5.13 0 0 0-1.8-.325c-.5 0-.996.058-1.487.175a8.2 8.2 0 0 0-1.463.5zm12.971 3.834c.153-.322.376-.483.667-.483.307 0 .575.127.805.38.23.252.299.54.207.862a163.97 163.97 0 0 0-1.714 5.198 117.103 117.103 0 0 0-1.483 5.198c-.061.215-.176.364-.345.448a1.168 1.168 0 0 1-.529.127c-.43 0-.725-.153-.886-.46a2.192 2.192 0 0 1-.241-1.035c.46-1.763.989-3.485 1.587-5.164.598-1.678 1.242-3.369 1.932-5.071zm16.416-3.948c.224 0 .448.072.672.216.224.144.404.312.54.504s.216.392.24.6a.514.514 0 0 1-.228.504c-.4.384-.792.696-1.176.936-.384.24-.776.512-1.176.816l-1.344 1.344c.496.736.82 1.596.972 2.58.152.984.168 1.984.048 3a12.62 12.62 0 0 1-.708 2.94c-.352.944-.784 1.744-1.296 2.4-.128.224-.328.336-.6.336-.176 0-.356-.052-.54-.156a1.527 1.527 0 0 1-.468-.408 1.332 1.332 0 0 1-.252-.552.817.817 0 0 1 .108-.588c.192-.352.404-.824.636-1.416.232-.592.436-1.228.612-1.908.176-.68.3-1.372.372-2.076.072-.704.04-1.34-.096-1.908a2.825 2.825 0 0 0-.792-1.416c-.392-.376-.964-.58-1.716-.612-.976 0-1.804.264-2.484.792-.68.528-1.212 1.232-1.596 2.112a6.79 6.79 0 0 0-.492.996c-.168.408-.32.844-.456 1.308-.136.464-.244.94-.324 1.428-.08.488-.104.932-.072 1.332.192-.224.396-.496.612-.816.216-.32.424-.636.624-.948.2-.312.38-.596.54-.852.16-.256.272-.416.336-.48a6.647 6.647 0 0 1 1.428-1.572 5.226 5.226 0 0 1 1.884-.972l.045-.003.04-.009a.266.266 0 0 1 .083-.012.89.89 0 0 1 .672.276c.176.184.292.396.348.636.056.24.04.464-.048.672-.088.208-.276.336-.564.384a3.457 3.457 0 0 0-1.176.672 6.371 6.371 0 0 0-.948 1.02c-.28.376-.532.776-.756 1.2a61.04 61.04 0 0 0-.624 1.212c-.144.224-.312.48-.504.768-.192.288-.4.556-.624.804-.224.248-.464.46-.72.636-.256.176-.52.264-.792.264-.352 0-.704-.176-1.056-.528-.32-.192-.556-.5-.708-.924a4.976 4.976 0 0 1-.264-1.464c-.024-.552.004-1.136.084-1.752.08-.616.188-1.208.324-1.776.136-.568.288-1.088.456-1.56.168-.472.332-.836.492-1.092.592-1.296 1.376-2.304 2.352-3.024.976-.72 2.208-1.08 3.696-1.08a5.472 5.472 0 0 1 2.136.552 21.431 21.431 0 0 1 1.836-1.764 15.313 15.313 0 0 1 2.076-1.5.978.978 0 0 1 .336-.072zm13.47 2.364c.317 0 .625.137.925.412.3.276.45.63.45 1.063 0 .383-.042.842-.125 1.375-.083.533-.2 1.108-.35 1.725.2.1.367.258.5.475.133.217.213.442.238.675.024.233-.013.446-.113.637-.1.192-.283.313-.55.363-.233.067-.492.15-.775.25a24.643 24.643 0 0 1-1.25 3.075c-.467.95-.933 1.658-1.4 2.125-.5.5-1.054.858-1.662 1.075a5.807 5.807 0 0 1-1.963.325c-.717 0-1.458-.017-2.225-.05a9.84 9.84 0 0 1-2.225-.35c-.8-.2-1.317-.608-1.55-1.225-.233-.617-.25-1.283-.05-2 .217-.6.442-1.204.675-1.813.233-.608.454-1.22.662-1.837.209-.617.392-1.238.55-1.863.159-.625.263-1.254.313-1.887a3.284 3.284 0 0 0-.5.313c-.167.124-.333.27-.5.437-.183.283-.4.425-.65.425a.713.713 0 0 1-.463-.175 1.232 1.232 0 0 1-.337-.45 1.433 1.433 0 0 1-.125-.6c0-.217.058-.417.175-.6.3-.617.733-1.075 1.3-1.375.567-.3 1.208-.45 1.925-.45.15 0 .308.046.475.137a1.988 1.988 0 0 1 .787.788.989.989 0 0 1 .138.475c.05.817.02 1.62-.088 2.413-.108.791-.262 1.579-.462 2.362-.2.783-.417 1.567-.65 2.35-.233.783-.45 1.575-.65 2.375.483.1.996.158 1.537.175.542.017 1.055.025 1.538.025.7-.05 1.33-.375 1.887-.975.559-.6 1.063-1.35 1.513-2.25-.35.05-.7.075-1.05.075-.3 0-.617-.025-.95-.075a2.515 2.515 0 0 1-1.275-.725 1.82 1.82 0 0 1-.525-1.3c.1-.5.292-.946.575-1.337.283-.392.592-.705.925-.938.217-.117.4-.175.55-.175.15 0 .287.067.412.2.126.133.217.296.276.488a1.8 1.8 0 0 1 .075.6.94.94 0 0 1-.213.562.536.536 0 0 0-.1.125.43.43 0 0 0-.1.275c.317 0 .625-.042.925-.125.3-.083.6-.175.9-.275l.197-.075.19-.075c.126-.05.255-.1.388-.15.267-.817.483-1.592.65-2.325.167-.733.292-1.342.375-1.825.05-.317.154-.542.313-.675a.812.812 0 0 1 .537-.2z" stroke="#FFF" stroke-width=".2" fill="#FFF" fill-rule="nonzero"/>
        <g fill-rule="nonzero">
            <path d="M29 28.5c-2.404 0-4.664-1.003-6.364-2.824-1.7-1.821-2.636-4.243-2.636-6.819 0-2.575.936-4.997 2.636-6.818l5.29-6.342c.18-.192.45-.25.686-.146.235.105.388.35.388.623v5.668l2.96-2.497a.6.6 0 0 1 .89 0l2.514 2.694C37.064 13.86 38 16.282 38 18.857c0 2.576-.936 4.998-2.636 6.819-1.7 1.821-3.96 2.824-6.364 2.824z" fill="#FACE34"/>
            <path d="M25.747 26.996c-1.771-2.002-1.55-5.143 0-7.262l2.247-3.18c.162-.182.405-1.146.616-1.047.211.099.35 1.241.35 1.5v2.114l1.217-.738a.535.535 0 0 1 .4-.187c.15 0 .294.067.4.187l1.195 1.35c1.77 2.003 1.77 5.26 0 7.263-.858.97-2 1.504-3.213 1.504s-2.354-.534-3.212-1.504z" fill="#FFFCE7"/>
        </g>
    </g>
</svg>
