<svg width="320" height="34" viewBox="0 0 320 34" xmlns="http://www.w3.org/2000/svg" xmlns:xlink="http://www.w3.org/1999/xlink">
    <defs>
        <path d="M16 0h196.765a24 24 0 0 1 21.713 13.777L244 34H0V16C0 7.163 7.163 0 16 0z" id="vajfv17rda"/>
    </defs>
    <g fill="none" fill-rule="evenodd">
        <use fill="#333" xlink:href="#vajfv17rda"/>
        <g fill-rule="nonzero">
            <path d="M26.043 7.477c.655-.035.9.12 1.258.599.319.426.464.96.525 1.528l.019.216.014.195c.084 1.206-.178 2.103-.653 3.067l4.216-.295a1.837 1.837 0 0 1 1.966 1.693c.033.47-.115.926-.416 1.289.321.303.534.721.567 1.194a1.823 1.823 0 0 1-.773 1.616c.182.26.297.57.32.908a1.823 1.823 0 0 1-.772 1.616c.181.26.296.57.32.908a1.837 1.837 0 0 1-1.711 1.95l-1.855.13c-.449.031-.877.065-1.29.098-.374.03-.738.059-1.094.084-2.298.16-4.279.156-6.732-.853a.582.582 0 0 1-.36-.497l-.521-7.441a.582.582 0 0 1 .288-.543c.156-.091.327-.188.509-.291.52-.295 1.168-.662 1.805-1.098 2.12-1.449 3.164-3.04 3.188-4.862.01-.632.54-1.174 1.182-1.21z" fill="#FFEED6"/>
            <path d="m14.283 14.06 5.394-.377a.884.884 0 0 1 .944.82l.61 8.733a1.415 1.415 0 0 1-1.312 1.51l-4.865.34a.884.884 0 0 1-.944-.82l-.647-9.262a.884.884 0 0 1 .82-.943z" fill="#1DA578"/>
            <path d="m17.492 21.37.025-.002a.884.884 0 0 1 .944.82l.185 2.647-1.79.125-.185-2.646a.884.884 0 0 1 .82-.944z" fill="#B6E4D4"/>
        </g>
        <path d="m22.506 7.815-.003.001H22.5c-.16.08-.346.124-.526.171-.486.129-.745.374-.827.716-.065.268-.122.536-.182.805-.01.048-.014.099-.065.14H20.9l-.001.001h-.001a.179.179 0 0 1-.093-.004c-.059-.023-.061-.088-.062-.108-.01-.177-.187-.649-.363-.91a.87.87 0 0 0-.326-.318 1.33 1.33 0 0 0-.461-.143c-.181-.025-.36-.055-.54-.084-.047-.008-.095-.019-.103-.057-.01-.046.038-.07.089-.086.149-.05.296-.103.45-.143.528-.136.774-.412.852-.775.054-.253.111-.505.169-.757.012-.05.006-.109.093-.137l.003-.001h.005l.001.001c.09.017.093.077.111.125.104.265.197.532.309.795.076.18.203.327.392.43.217.117.477.144.477.144l.244.036c.11.016.164.023.237.042.046.013.086.026.114.037l.009.003h.002v.001l.002.001c.016.01.018.025.019.03 0 0 .004.031-.022.044M35.353 13.18c.081-.073.085-.161.1-.246.087-.47.17-.938.263-1.406.12-.596.504-1.022 1.231-1.24.203-.06.41-.117.602-.2l.187-.092c.045-.024.039-.078.038-.08a.083.083 0 0 0-.01-.033l-.017-.019-.012-.006a1.854 1.854 0 0 0-.18-.068c-.11-.035-.19-.049-.356-.078l-.367-.065s-.39-.051-.718-.26a1.472 1.472 0 0 1-.594-.757c-.17-.461-.314-.93-.474-1.395-.023-.07-.03-.154-.11-.198l-.057-.021c-.011-.002-.013-.002-.015 0-.13.047-.12.15-.137.238-.084.44-.166.88-.244 1.32-.113.636-.478 1.115-1.268 1.346-.23.067-.451.16-.674.243-.077.029-.148.07-.133.15.013.067.085.087.156.1.27.054.54.11.811.156.273.046.504.133.695.256.256.166.375.356.493.559.267.461.539 1.289.556 1.598.002.034.006.15.095.19a.233.233 0 0 0 .139.009z" fill="#FDE975"/>
        <g fill="#C9FBE4" fill-rule="nonzero">
            <path d="m45.218 13.797-.411.453a4.16 4.16 0 0 0-.41.543c-.163.206-.356.31-.578.31a.656.656 0 0 1-.377-.122.966.966 0 0 1-.289-.31 1.136 1.136 0 0 1-.144-.42.869.869 0 0 1 .056-.454 5.58 5.58 0 0 1 .4-.775c.177-.296.38-.576.61-.842.229-.265.48-.49.754-.675.274-.184.544-.277.81-.277.193 0 .381.056.566.166.185.111.366.3.544.565.163.266.259.583.289.952.03.369.03.753 0 1.151.207-.325.436-.657.688-.996.251-.34.525-.65.82-.93.297-.28.615-.513.955-.697a2.69 2.69 0 0 1 1.088-.321h.2c.577 0 1.035.177 1.376.531.34.354.588.782.743 1.284.156.502.24 1.03.255 1.583a8.715 8.715 0 0 1-.066 1.45 45.085 45.085 0 0 1-.588 3.51 40.025 40.025 0 0 1-.9 3.509c-.088.31-.317.464-.687.464-.178 0-.355-.036-.533-.11a1.826 1.826 0 0 1-.477-.288 1.1 1.1 0 0 1-.31-.41.679.679 0 0 1-.012-.498c.163-1.018.355-2.022.577-3.01.222-.99.422-1.993.6-3.012.029-.162.066-.376.11-.642a4.7 4.7 0 0 0 .067-.775c0-.25-.04-.468-.122-.653a.436.436 0 0 0-.5-.266.155.155 0 0 1-.066.012c-.296.25-.559.53-.788.84-.23.31-.444.632-.644.964-.2.332-.384.671-.555 1.018-.17.347-.344.683-.521 1.008-.415.767-.77 1.524-1.066 2.269a52.328 52.328 0 0 1-.954 2.247c-.148.354-.407.532-.777.532-.163 0-.325-.041-.488-.122a1.653 1.653 0 0 1-.433-.31 1.17 1.17 0 0 1-.277-.432.851.851 0 0 1-.023-.51.82.82 0 0 0 .034-.143.82.82 0 0 1 .033-.144l-.067-.044c.03-.089.067-.177.111-.266.045-.088.082-.17.111-.243.134-.502.27-1.034.411-1.594.14-.561.27-1.13.388-1.705.119-.576.219-1.152.3-1.727.081-.576.137-1.122.167-1.638zM62.211 12.19c.054-.19.136-.323.245-.398a.67.67 0 0 1 .388-.112c.15 0 .303.037.46.112.156.075.296.177.418.306.123.129.221.274.296.437a.824.824 0 0 1 .072.49c0 .067-.017.183-.051.346l-.123.58a10.28 10.28 0 0 1-.184.723c-.075.258-.153.516-.235.774-.095.312-.19.635-.285.968-.096.332-.198.675-.307 1.028.232.163.422.421.572.774.15.353.225.693.225 1.019.081.747-.017 1.432-.296 2.057a3.754 3.754 0 0 1-1.277 1.548.722.722 0 0 1-.408.122.995.995 0 0 1-.551-.173 1.62 1.62 0 0 1-.45-.438c-.231-.34-.36-.71-.388-1.11-.027-.4-.006-.852.062-1.355 0-.176.03-.41.092-.702.06-.292.091-.526.091-.703-.408.285-.772.55-1.092.794-.32.245-.623.513-.909.805a8.565 8.565 0 0 0-.837 1.008c-.272.38-.565.856-.878 1.426-.136.258-.313.387-.53.387a.694.694 0 0 1-.44-.173 1.556 1.556 0 0 1-.367-.438 2.128 2.128 0 0 1-.225-.55.93.93 0 0 1 .01-.53c.259-.733.483-1.5.674-2.301.19-.801.381-1.569.572-2.302.04-.163.098-.39.173-.682.075-.292.14-.58.194-.866.055-.285.082-.533.082-.743 0-.21-.054-.316-.163-.316-.068 0-.164.05-.286.153-.123.102-.28.268-.47.499-.204.244-.408.366-.612.366-.232 0-.422-.122-.572-.366-.15-.245-.17-.523-.061-.835.163-.421.435-.808.816-1.161a1.97 1.97 0 0 1 1.389-.53c.313 0 .575.065.786.194.211.129.378.295.5.499.123.203.211.434.266.692.054.258.088.516.102.774.04.788-.007 1.473-.143 2.057a81.99 81.99 0 0 1-.429 1.752c.272-.204.514-.38.725-.53.211-.149.422-.281.633-.397.211-.115.436-.217.674-.305a7.69 7.69 0 0 1 .868-.255 20.265 20.265 0 0 0 .592-2.21 20.265 20.265 0 0 1 .592-2.21zM67.897 14.022a3.268 3.268 0 0 0-.776.591c-.15.23-.326.346-.53.346a.52.52 0 0 1-.348-.142.977.977 0 0 1-.255-.357 1.333 1.333 0 0 1-.102-.478.926.926 0 0 1 .112-.49 2.66 2.66 0 0 1 1.042-1.079c.435-.244.94-.366 1.51-.366.246 0 .467.101.664.305.198.204.297.428.297.672.054.68.04 1.341-.041 1.986a18.2 18.2 0 0 1-.347 1.915 45.03 45.03 0 0 1-.49 1.884 28.089 28.089 0 0 0-.47 1.915c.218.027.487.05.806.07.32.021.647.042.98.062.334.02.654.034.96.04.307.008.562.01.766.01.286-.04.555-.233.807-.58.251-.346.486-.794.704-1.344.218-.55.419-1.181.602-1.894.184-.713.351-1.457.5-2.23.15-.775.287-1.549.41-2.323a241.83 241.83 0 0 0 .601-4.012l.174-1.222c.04-.258.126-.442.255-.55a.664.664 0 0 1 .44-.163c.244 0 .486.112.724.336.238.224.358.506.358.845 0 .38-.045.947-.133 1.701a51.637 51.637 0 0 1-.368 2.526c-.156.93-.34 1.904-.551 2.923a43.883 43.883 0 0 1-.694 2.882c-.252.903-.521 1.7-.807 2.393-.286.693-.572 1.181-.858 1.467a3.63 3.63 0 0 1-1.306.855c-.477.177-1 .265-1.573.265-.571 0-1.16-.017-1.766-.051a8.951 8.951 0 0 1-1.766-.275 1.984 1.984 0 0 1-.786-.387 1.788 1.788 0 0 1-.48-.611 1.744 1.744 0 0 1-.164-.754c0-.271.048-.543.143-.815.164-.475.34-.953.531-1.436.19-.482.368-.967.531-1.456a22.9 22.9 0 0 0 .44-1.477c.128-.495.214-.994.254-1.497zM78.036 23.107c-.177 0-.34-.075-.49-.224a1.248 1.248 0 0 1-.317-.52.928.928 0 0 1-.01-.56c.054-.176.197-.292.429-.346.34-.082.698-.207 1.072-.377.374-.17.698-.37.97-.6a4.718 4.718 0 0 0 .694-.754c.109-.15.187-.306.235-.469a.54.54 0 0 0-.051-.448.627.627 0 0 0-.204-.224 2.032 2.032 0 0 0-.317-.183 13.521 13.521 0 0 0-.337-.153 6.24 6.24 0 0 1-.286-.133 2.785 2.785 0 0 1-.776-.55 2.538 2.538 0 0 1-.53-.753 1.83 1.83 0 0 1-.123-1.253c.109-.414.313-.811.613-1.191s.667-.734 1.102-1.06a9.195 9.195 0 0 1 2.726-1.405c.443-.136.82-.204 1.134-.204.122 0 .197.007.224.02h.041c.163 0 .286.069.368.204a.891.891 0 0 1 .122.469c0 .176-.037.343-.112.499a.52.52 0 0 1-.358.295c-.177.041-.415.133-.714.275-.3.143-.61.316-.93.52-.32.203-.632.424-.939.662a3.744 3.744 0 0 0-.735.733c-.184.251-.282.492-.296.723-.013.23.109.434.368.611.326.217.643.451.95.703.305.25.557.526.755.825.197.298.32.624.367.977.048.353-.024.734-.214 1.141-.177.38-.429.737-.756 1.07a5.789 5.789 0 0 1-1.102.875 5.791 5.791 0 0 1-1.287.59c-.449.143-.878.215-1.286.215zM89.361 13.676a.143.143 0 0 0 .062-.01.09.09 0 0 1 .04-.01c.164 0 .307.064.43.193a1.084 1.084 0 0 1 .286.927.444.444 0 0 1-.246.346 8.545 8.545 0 0 0-.868.479 14.69 14.69 0 0 1-.898.52 6.15 6.15 0 0 1-.95.407 3.215 3.215 0 0 1-1.02.163c-.287 0-.559-.102-.817-.306a1.347 1.347 0 0 1-.49-.835c0-.15.027-.309.081-.479a4.297 4.297 0 0 1 .48-.998c.102-.156.208-.288.316-.397a.376.376 0 0 1 .327-.183c.095 0 .19.03.286.091.095.062.177.14.245.235a.895.895 0 0 1 .143.305.506.506 0 0 1 0 .285l-.061.184a.94.94 0 0 0-.082.387c.082-.082.249-.194.5-.336.252-.143.524-.282.817-.418.293-.136.572-.258.837-.367.266-.108.46-.17.582-.183zm-.592 4.889a.227.227 0 0 0 .072-.01.227.227 0 0 1 .071-.01c.204 0 .371.064.5.193.13.129.218.275.266.438a.82.82 0 0 1 0 .478.518.518 0 0 1-.317.336 8.545 8.545 0 0 0-.868.479 19.79 19.79 0 0 1-.878.52 6.709 6.709 0 0 1-.898.417 2.671 2.671 0 0 1-.95.173c-.367 0-.677-.105-.929-.316-.251-.21-.377-.492-.377-.845 0-.285.088-.611.265-.978.177-.366.381-.658.613-.875a.376.376 0 0 1 .326-.184c.082 0 .16.03.235.092.075.061.14.14.194.234a.979.979 0 0 1 .112.295.53.53 0 0 1-.01.275.616.616 0 0 1-.02.184 3.971 3.971 0 0 0-.041.183.64.64 0 0 1-.082.204 5.08 5.08 0 0 0 .644-.316c.224-.129.452-.255.684-.377.231-.122.466-.237.704-.346.238-.109.466-.19.684-.244z"/>
            <g stroke="#C9FBE4" stroke-width=".5">
                <path d="M92.33 22.394c-.136.34-.367.509-.694.509a.68.68 0 0 1-.48-.204c-.143-.135-.214-.34-.214-.61 0-.38.078-.897.234-1.549.157-.652.371-1.354.644-2.108.272-.754.592-1.514.96-2.281.367-.767.762-1.463 1.184-2.088.422-.625.86-1.134 1.317-1.528.456-.393.908-.59 1.358-.59.53 0 .953.21 1.266.631.313.421.548.957.704 1.61.157.651.245 1.37.266 2.158a21.61 21.61 0 0 1-.327 4.37c-.116.617-.235 1.076-.357 1.374a.575.575 0 0 1-.286.306.947.947 0 0 1-.388.081c-.34 0-.596-.108-.766-.326-.17-.217-.255-.488-.255-.814.109-1.141.187-2.22.235-3.239.047-1.018.071-2.091.071-3.218-.027-.353-.065-.577-.112-.672-.048-.095-.106-.143-.174-.143a.251.251 0 0 0-.092.02.251.251 0 0 1-.092.02c-.19.19-.415.496-.673.917-.26.421-.525.9-.797 1.436a44.84 44.84 0 0 0-.817 1.701 64.352 64.352 0 0 0-.755 1.721c-.232.55-.432 1.05-.603 1.497-.17.449-.289.788-.357 1.019zM96.17 6.66c.143-.224.332-.337.566-.337.13 0 .26.04.391.12a.88.88 0 0 1 .303.297c.072.12.108.252.108.397a.697.697 0 0 1-.176.437c0 .08-.03.172-.088.278a4.18 4.18 0 0 1-.196.318 1.488 1.488 0 0 0-.166.317c-.039.106-.039.199 0 .278.04.067.104.1.196.1.182 0 .459-.096.83-.288.372-.192.76-.41 1.163-.656a18.134 18.134 0 0 0 1.818-1.26c.144-.12.3-.18.47-.18.182 0 .361.064.537.19.176.125.313.277.41.456.098.179.147.364.147.556a.614.614 0 0 1-.234.487c-.313.251-.675.53-1.085.834-.41.304-.84.585-1.29.844-.45.258-.903.473-1.359.645a3.707 3.707 0 0 1-1.31.258 2.242 2.242 0 0 1-1.172-.576c-.326-.304-.535-.721-.626-1.25-.065-.464-.01-.881.166-1.252.176-.37.375-.708.596-1.012zM108.288 12.19c.054-.19.136-.323.245-.398a.67.67 0 0 1 .388-.112c.15 0 .302.037.459.112.157.075.296.177.419.306.122.129.22.274.296.437a.824.824 0 0 1 .071.49c0 .067-.017.183-.05.346l-.123.58a10.28 10.28 0 0 1-.184.723c-.075.258-.153.516-.235.774-.095.312-.19.635-.286.968-.095.332-.197.675-.306 1.028.231.163.422.421.572.774.15.353.224.693.224 1.019.082.747-.017 1.432-.296 2.057a3.754 3.754 0 0 1-1.276 1.548.722.722 0 0 1-.408.122.995.995 0 0 1-.552-.173 1.62 1.62 0 0 1-.449-.438c-.231-.34-.36-.71-.388-1.11-.027-.4-.007-.852.061-1.355 0-.176.03-.41.092-.702.061-.292.092-.526.092-.703-.408.285-.773.55-1.092.794-.32.245-.623.513-.91.805a8.565 8.565 0 0 0-.836 1.008c-.273.38-.565.856-.878 1.426-.136.258-.313.387-.531.387a.694.694 0 0 1-.44-.173 1.556 1.556 0 0 1-.367-.438 2.128 2.128 0 0 1-.224-.55.93.93 0 0 1 .01-.53c.258-.733.483-1.5.674-2.301.19-.801.38-1.569.571-2.302l.174-.682c.075-.292.14-.58.194-.866.054-.285.082-.533.082-.743 0-.21-.055-.316-.164-.316-.068 0-.163.05-.286.153-.122.102-.279.268-.47.499-.203.244-.408.366-.612.366-.231 0-.422-.122-.572-.366-.15-.245-.17-.523-.06-.835.162-.421.435-.808.816-1.161a1.97 1.97 0 0 1 1.388-.53c.314 0 .576.065.787.194.21.129.377.295.5.499.122.203.21.434.265.692.055.258.089.516.102.774.041.788-.006 1.473-.143 2.057-.136.584-.279 1.168-.428 1.752.272-.204.514-.38.725-.53.21-.149.422-.281.633-.397.21-.115.435-.217.673-.305a7.69 7.69 0 0 1 .868-.255 20.265 20.265 0 0 0 .592-2.21 20.265 20.265 0 0 1 .592-2.21z"/>
            </g>
            <path d="M123.567 8.572a.667.667 0 0 1 .356-.111c.133 0 .262.037.388.11.126.074.226.17.3.288a.91.91 0 0 1 .133.399c.015.147-.037.302-.156.465a3.52 3.52 0 0 1-.477.476c-.23.2-.47.402-.721.609-.252.206-.496.41-.733.608-.236.2-.407.358-.51.476.488.488.65 1.255.488 2.303-.148 1.033-.362 1.948-.643 2.745a26.536 26.536 0 0 1-.9 2.325c-.332.753-.61 1.44-.832 2.059-.325.9-.77 1.35-1.331 1.35-.119 0-.245-.022-.378-.066-.74-.25-.976-.841-.71-1.771.252-.96.377-1.572.377-1.838 0-.132-.003-.287-.01-.465a2.455 2.455 0 0 0-.078-.52 1.043 1.043 0 0 0-.222-.432.532.532 0 0 0-.422-.177c-.326 0-.636.085-.932.255-.296.17-.57.376-.822.62-.251.243-.48.509-.688.797-.207.288-.392.557-.554.808-.296.428-.555.849-.777 1.262a8.63 8.63 0 0 0-.577 1.35c-.045.178-.097.362-.156.554-.059.192-.137.365-.233.52-.096.155-.218.28-.366.377a1 1 0 0 1-.555.143c-.488-.059-.732-.494-.732-1.306 0-.413.081-.889.244-1.428.163-.538.38-1.088.655-1.65.273-.56.603-1.106.987-1.638.385-.53.796-1.007 1.232-1.428.437-.42.899-.76 1.387-1.018.489-.258.977-.387 1.465-.387.414 0 .855.096 1.32.287.467.192.848.436 1.144.731.163-.295.303-.568.422-.82.118-.25.214-.49.288-.719.074-.228.122-.465.144-.708a5.77 5.77 0 0 0 .011-.808c-.059-.576-.443-.864-1.154-.864-.932 0-1.786.207-2.563.62a6.428 6.428 0 0 0-1.942 1.55.437.437 0 0 1-.178.144.567.567 0 0 1-.2.033c-.4 0-.714-.07-.943-.21-.23-.14-.344-.447-.344-.919 0-.148.096-.34.289-.576.31-.428.684-.804 1.12-1.129a7.395 7.395 0 0 1 1.432-.83 8.136 8.136 0 0 1 1.62-.52 8.188 8.188 0 0 1 1.687-.177c.459 0 .821.036 1.088.11.207.074.329.118.366.133.037.015.07.022.1.022h.066c.178-.103.381-.24.61-.41.23-.17.467-.35.711-.542l.721-.564c.237-.185.466-.35.688-.498zM115.19 26.972c.011-.556.1-1.067.266-1.533.166-.466.371-.928.615-1.384.102-.192.23-.283.385-.275.092.005.181.045.269.12a.883.883 0 0 1 .212.274.968.968 0 0 1 .098.357.673.673 0 0 1-.06.357c-.297.606-.474 1.186-.531 1.74a.453.453 0 0 1-.039.22.453.453 0 0 0-.039.218l.313-.475c.124-.255.228-.498.313-.728.086-.23.17-.452.255-.666.094-.214.19-.427.288-.64.098-.213.208-.431.33-.654.1-.17.232-.25.397-.241a.477.477 0 0 1 .249.094.878.878 0 0 1 .344.501.683.683 0 0 1 .004.32c-.05.248-.098.475-.146.68a6.34 6.34 0 0 1-.168.597 7.126 7.126 0 0 1-.53 1.217c-.103.19-.21.395-.322.613a4.67 4.67 0 0 1-.368.603 1.787 1.787 0 0 1-.449.443.901.901 0 0 1-.564.15 1.018 1.018 0 0 1-.572-.218 1.283 1.283 0 0 1-.34-.451 2.103 2.103 0 0 1-.169-.59 4.353 4.353 0 0 1-.041-.65zM130.304 15.419l.043-.17c.014-.071.024-.152.032-.245.007-.092.024-.194.053-.308.085-.467.114-.878.085-1.232-.028-.355-.156-.532-.383-.532-.157 0-.348.092-.576.276a.858.858 0 0 1-.99-.063 1.147 1.147 0 0 1-.363-.479 1.095 1.095 0 0 1-.064-.605c.036-.213.153-.397.352-.553.483-.397.987-.595 1.513-.595.696 0 1.292.376 1.79 1.126.355.539.575 1.113.66 1.722a6.36 6.36 0 0 1-.021 1.87 9.133 9.133 0 0 1-.522 1.913c-.249.638-.54 1.254-.874 1.85a17.837 17.837 0 0 1-1.065 1.679c-.377.524-.735.984-1.076 1.381-.17.184-.355.276-.554.276a1.01 1.01 0 0 1-.671-.265 2.18 2.18 0 0 1-.48-.564 30.754 30.754 0 0 1-1.939-3.868 14.985 14.985 0 0 1-1.065-4.166c-.029-.326.053-.563.245-.712.192-.148.408-.223.65-.223.241 0 .465.064.67.191.207.128.338.326.395.596a36.68 36.68 0 0 0 .82 3.028c.306.957.693 1.903 1.162 2.838.554-.553 1.058-1.389 1.512-2.508.114-.284.21-.528.288-.734.078-.205.146-.379.203-.52.07-.156.127-.29.17-.404zM89.361 13.676a.143.143 0 0 0 .062-.01.09.09 0 0 1 .04-.01c.164 0 .307.064.43.193a1.084 1.084 0 0 1 .286.927.444.444 0 0 1-.246.346 8.545 8.545 0 0 0-.868.479 14.69 14.69 0 0 1-.898.52 6.15 6.15 0 0 1-.95.407 3.215 3.215 0 0 1-1.02.163c-.287 0-.559-.102-.817-.306a1.347 1.347 0 0 1-.49-.835c0-.15.027-.309.081-.479a4.297 4.297 0 0 1 .48-.998c.102-.156.208-.288.316-.397a.376.376 0 0 1 .327-.183c.095 0 .19.03.286.091.095.062.177.14.245.235a.895.895 0 0 1 .143.305.506.506 0 0 1 0 .285l-.061.184a.94.94 0 0 0-.082.387c.082-.082.249-.194.5-.336.252-.143.524-.282.817-.418.293-.136.572-.258.837-.367.266-.108.46-.17.582-.183zm-.592 4.889a.227.227 0 0 0 .072-.01.227.227 0 0 1 .071-.01c.204 0 .371.064.5.193.13.129.218.275.266.438a.82.82 0 0 1 0 .478.518.518 0 0 1-.317.336 8.545 8.545 0 0 0-.868.479 19.79 19.79 0 0 1-.878.52 6.709 6.709 0 0 1-.898.417 2.671 2.671 0 0 1-.95.173c-.367 0-.677-.105-.929-.316-.251-.21-.377-.492-.377-.845 0-.285.088-.611.265-.978.177-.366.381-.658.613-.875a.376.376 0 0 1 .326-.184c.082 0 .16.03.235.092.075.061.14.14.194.234a.979.979 0 0 1 .112.295.53.53 0 0 1-.01.275.616.616 0 0 1-.02.184 3.971 3.971 0 0 0-.041.183.64.64 0 0 1-.082.204 5.08 5.08 0 0 0 .644-.316c.224-.129.452-.255.684-.377.231-.122.466-.237.704-.346.238-.109.466-.19.684-.244zM92.33 22.394c-.136.34-.367.509-.694.509a.68.68 0 0 1-.48-.204c-.143-.135-.214-.34-.214-.61 0-.38.078-.897.234-1.549.157-.652.371-1.354.644-2.108.272-.754.592-1.514.96-2.281.367-.767.762-1.463 1.184-2.088.422-.625.86-1.134 1.317-1.528.456-.393.908-.59 1.358-.59.53 0 .953.21 1.266.631.313.421.548.957.704 1.61.157.651.245 1.37.266 2.158a21.61 21.61 0 0 1-.327 4.37c-.116.617-.235 1.076-.357 1.374a.575.575 0 0 1-.286.306.947.947 0 0 1-.388.081c-.34 0-.596-.108-.766-.326-.17-.217-.255-.488-.255-.814.109-1.141.187-2.22.235-3.239.047-1.018.071-2.091.071-3.218-.027-.353-.065-.577-.112-.672-.048-.095-.106-.143-.174-.143a.251.251 0 0 0-.092.02.251.251 0 0 1-.092.02c-.19.19-.415.496-.673.917-.26.421-.525.9-.797 1.436a44.84 44.84 0 0 0-.817 1.701 64.352 64.352 0 0 0-.755 1.721c-.232.55-.432 1.05-.603 1.497-.17.448-.289.788-.357 1.019zM96.17 6.66c.143-.224.332-.337.566-.337.13 0 .26.04.391.12a.88.88 0 0 1 .303.297c.072.12.108.252.108.397a.697.697 0 0 1-.176.437c0 .08-.03.172-.088.278a4.18 4.18 0 0 1-.196.318 1.488 1.488 0 0 0-.166.317c-.039.106-.039.199 0 .278.04.067.104.1.196.1.182 0 .459-.096.83-.288.372-.192.76-.41 1.163-.656a18.134 18.134 0 0 0 1.818-1.26c.144-.12.3-.18.47-.18.182 0 .361.064.537.19.176.125.313.277.41.456.098.179.147.364.147.556a.614.614 0 0 1-.234.487c-.313.251-.675.53-1.085.834-.41.304-.84.585-1.29.844-.45.258-.903.473-1.359.645a3.707 3.707 0 0 1-1.31.258 2.242 2.242 0 0 1-1.172-.576c-.326-.304-.535-.721-.626-1.25-.065-.464-.01-.881.166-1.252.176-.37.375-.708.596-1.012zM108.288 12.19c.054-.19.136-.323.245-.398a.67.67 0 0 1 .388-.112c.15 0 .302.037.459.112.157.075.296.177.419.306.122.129.22.274.296.437a.824.824 0 0 1 .071.49c0 .067-.017.183-.05.346l-.123.58a10.28 10.28 0 0 1-.184.723c-.075.258-.153.516-.235.774-.095.312-.19.635-.286.968-.095.332-.197.675-.306 1.028.231.163.422.421.572.774.15.353.224.693.224 1.019.082.747-.017 1.432-.296 2.057a3.754 3.754 0 0 1-1.276 1.548.722.722 0 0 1-.408.122.995.995 0 0 1-.552-.173 1.62 1.62 0 0 1-.449-.438c-.231-.34-.36-.71-.388-1.11-.027-.4-.007-.852.061-1.355 0-.176.03-.41.092-.702.061-.292.092-.526.092-.703-.408.285-.773.55-1.092.794-.32.245-.623.513-.91.805a8.565 8.565 0 0 0-.836 1.008c-.273.38-.565.856-.878 1.426-.136.258-.313.387-.531.387a.694.694 0 0 1-.44-.173 1.556 1.556 0 0 1-.367-.438 2.128 2.128 0 0 1-.224-.55.93.93 0 0 1 .01-.53c.258-.733.483-1.5.674-2.301.19-.801.38-1.569.571-2.302l.174-.682c.075-.292.14-.58.194-.866.054-.285.082-.533.082-.743 0-.21-.055-.316-.164-.316-.068 0-.163.05-.286.153-.122.102-.279.268-.47.499-.203.244-.408.366-.612.366-.231 0-.422-.122-.572-.366-.15-.245-.17-.523-.06-.835.162-.421.435-.808.816-1.161a1.97 1.97 0 0 1 1.388-.53c.314 0 .576.065.787.194.21.129.377.295.5.499.122.203.21.434.265.692.055.258.089.516.102.774.041.788-.006 1.473-.143 2.057a81.99 81.99 0 0 1-.428 1.752c.272-.204.514-.38.725-.53.21-.149.422-.281.633-.397.21-.115.435-.217.673-.305a7.69 7.69 0 0 1 .868-.255 20.265 20.265 0 0 0 .592-2.21 20.265 20.265 0 0 1 .592-2.21z"/>
            <path d="M123.567 8.572a.667.667 0 0 1 .356-.111c.133 0 .262.037.388.11.126.074.226.17.3.288a.91.91 0 0 1 .133.399c.015.147-.037.302-.156.465a3.52 3.52 0 0 1-.477.476c-.23.2-.47.402-.721.609-.252.206-.496.41-.733.608-.236.2-.407.358-.51.476.488.488.65 1.255.488 2.303-.148 1.033-.362 1.948-.643 2.745a26.536 26.536 0 0 1-.9 2.325c-.332.753-.61 1.44-.832 2.059-.325.9-.77 1.35-1.331 1.35-.119 0-.245-.022-.378-.066-.74-.25-.976-.841-.71-1.771.252-.96.377-1.572.377-1.838 0-.132-.003-.287-.01-.465a2.455 2.455 0 0 0-.078-.52 1.043 1.043 0 0 0-.222-.432.532.532 0 0 0-.422-.177c-.326 0-.636.085-.932.255-.296.17-.57.376-.822.62-.251.243-.48.509-.688.797-.207.288-.392.557-.554.808-.296.428-.555.849-.777 1.262a8.63 8.63 0 0 0-.577 1.35c-.045.178-.097.362-.156.554-.059.192-.137.365-.233.52-.096.155-.218.28-.366.377a1 1 0 0 1-.555.143c-.488-.059-.732-.494-.732-1.306 0-.413.081-.889.244-1.428.163-.538.38-1.088.655-1.65.273-.56.603-1.106.987-1.638.385-.53.796-1.007 1.232-1.428.437-.42.899-.76 1.387-1.018.489-.258.977-.387 1.465-.387.414 0 .855.096 1.32.287.467.192.848.436 1.144.731.163-.295.303-.568.422-.82.118-.25.214-.49.288-.719.074-.228.122-.465.144-.708a5.77 5.77 0 0 0 .011-.808c-.059-.576-.443-.864-1.154-.864-.932 0-1.786.207-2.563.62a6.428 6.428 0 0 0-1.942 1.55.437.437 0 0 1-.178.144.567.567 0 0 1-.2.033c-.4 0-.714-.07-.943-.21-.23-.14-.344-.447-.344-.919 0-.148.096-.34.289-.576.31-.428.684-.804 1.12-1.129a7.395 7.395 0 0 1 1.432-.83 8.136 8.136 0 0 1 1.62-.52 8.188 8.188 0 0 1 1.687-.177c.459 0 .821.036 1.088.11.207.074.329.118.366.133.037.015.07.022.1.022h.066c.178-.103.381-.24.61-.41.23-.17.467-.35.711-.542l.721-.564c.237-.185.466-.35.688-.498zM115.19 26.972c.011-.556.1-1.067.266-1.533.166-.466.371-.928.615-1.384.102-.192.23-.283.385-.275.092.005.181.045.269.12a.883.883 0 0 1 .212.274.968.968 0 0 1 .098.357.673.673 0 0 1-.06.357c-.297.606-.474 1.186-.531 1.74a.453.453 0 0 1-.039.22.453.453 0 0 0-.039.218l.313-.475c.124-.255.228-.498.313-.728.086-.23.17-.452.255-.666.094-.214.19-.427.288-.64.098-.213.208-.431.33-.654.1-.17.232-.25.397-.241a.477.477 0 0 1 .249.094.878.878 0 0 1 .344.501.683.683 0 0 1 .004.32c-.05.248-.098.475-.146.68a6.34 6.34 0 0 1-.168.597 7.126 7.126 0 0 1-.53 1.217c-.103.19-.21.395-.322.613a4.67 4.67 0 0 1-.368.603 1.787 1.787 0 0 1-.449.443.901.901 0 0 1-.564.15 1.018 1.018 0 0 1-.572-.218 1.283 1.283 0 0 1-.34-.451 2.103 2.103 0 0 1-.169-.59 4.353 4.353 0 0 1-.041-.65zM130.304 15.419l.043-.17c.014-.071.024-.152.032-.245.007-.092.024-.194.053-.308.085-.467.114-.878.085-1.232-.028-.355-.156-.532-.383-.532-.157 0-.348.092-.576.276a.858.858 0 0 1-.99-.063 1.147 1.147 0 0 1-.363-.479 1.095 1.095 0 0 1-.064-.605c.036-.213.153-.397.352-.553.483-.397.987-.595 1.513-.595.696 0 1.292.376 1.79 1.126.355.539.575 1.113.66 1.722a6.36 6.36 0 0 1-.021 1.87 9.133 9.133 0 0 1-.522 1.913c-.249.638-.54 1.254-.874 1.85a17.837 17.837 0 0 1-1.065 1.679c-.377.524-.735.984-1.076 1.381-.17.184-.355.276-.554.276a1.01 1.01 0 0 1-.671-.265 2.18 2.18 0 0 1-.48-.564 30.754 30.754 0 0 1-1.939-3.868 14.985 14.985 0 0 1-1.065-4.166c-.029-.326.053-.563.245-.712.192-.148.408-.223.65-.223.241 0 .465.064.67.191.207.128.338.326.395.596a36.68 36.68 0 0 0 .82 3.028c.306.957.693 1.903 1.162 2.838.554-.553 1.058-1.389 1.512-2.508.114-.284.21-.528.288-.734.078-.205.146-.379.203-.52.07-.156.127-.29.17-.404zM138.126 23.162c-.192 0-.37-.082-.533-.244a1.357 1.357 0 0 1-.344-.564 1.009 1.009 0 0 1-.01-.61c.058-.191.214-.317.465-.376.37-.088.759-.225 1.166-.41a4.478 4.478 0 0 0 1.054-.652 5.128 5.128 0 0 0 .754-.82c.119-.162.204-.332.256-.509a.587.587 0 0 0-.056-.487.681.681 0 0 0-.222-.243 2.208 2.208 0 0 0-.344-.2 14.697 14.697 0 0 0-.366-.166 6.781 6.781 0 0 1-.31-.144 3.028 3.028 0 0 1-.844-.597 2.759 2.759 0 0 1-.577-.82c-.207-.457-.252-.911-.133-1.361.118-.45.34-.882.665-1.295a6.367 6.367 0 0 1 1.199-1.152 9.995 9.995 0 0 1 2.963-1.527c.48-.148.892-.222 1.232-.222.133 0 .214.008.244.022h.044c.178 0 .311.074.4.222a.969.969 0 0 1 .133.51c0 .191-.04.372-.122.542a.565.565 0 0 1-.388.32 4.081 4.081 0 0 0-.777.3 9.463 9.463 0 0 0-1.01.564 13.45 13.45 0 0 0-1.021.72 4.07 4.07 0 0 0-.8.797c-.199.273-.306.535-.32.786-.016.25.117.472.399.664.355.236.699.49 1.032.764.333.273.606.572.82.896.215.325.349.68.4 1.063.052.384-.026.797-.233 1.24-.192.413-.466.8-.82 1.162a6.292 6.292 0 0 1-1.2.952c-.443.273-.91.487-1.398.642a4.621 4.621 0 0 1-1.398.233zM146.394 15.896a.562.562 0 0 1-.428.204.61.61 0 0 1-.378-.132.98.98 0 0 1-.276-.326 1.087 1.087 0 0 1-.122-.408.594.594 0 0 1 .102-.397c.231-.312.48-.628.745-.947.265-.32.555-.608.868-.866a4.408 4.408 0 0 1 1.02-.631 2.889 2.889 0 0 1 1.185-.245c.463 0 .888.116 1.276.347.388.23.67.597.848 1.1.109.285.15.682.122 1.191-.027.51-.102 1.073-.224 1.69a22.97 22.97 0 0 1-.47 1.915c-.19.659-.391 1.287-.602 1.884-.211.598-.419 1.13-.623 1.6-.204.468-.388.81-.551 1.028a.466.466 0 0 1-.43.244.697.697 0 0 1-.357-.101 1.37 1.37 0 0 1-.541-.611.817.817 0 0 1-.081-.326c.108-.611.245-1.222.408-1.834.163-.61.33-1.222.5-1.833l.51-1.833c.17-.61.317-1.222.44-1.833.027-.258.03-.455.01-.59-.02-.137-.099-.204-.235-.204-.136 0-.388.101-.755.305-.395.19-.742.438-1.042.744-.3.305-.606.594-.919.865z"/>
            <path d="M146.394 15.896a.562.562 0 0 1-.428.204.61.61 0 0 1-.378-.132.98.98 0 0 1-.276-.326 1.087 1.087 0 0 1-.122-.408.594.594 0 0 1 .102-.397c.231-.312.48-.628.745-.947.265-.32.555-.608.868-.866a4.408 4.408 0 0 1 1.02-.631 2.889 2.889 0 0 1 1.185-.245c.463 0 .888.116 1.276.347.388.23.67.597.848 1.1.109.285.15.682.122 1.191-.027.51-.102 1.073-.224 1.69a22.97 22.97 0 0 1-.47 1.915c-.19.659-.391 1.287-.602 1.884-.211.598-.419 1.13-.623 1.6-.204.468-.388.81-.551 1.028a.466.466 0 0 1-.43.244.697.697 0 0 1-.357-.101 1.37 1.37 0 0 1-.541-.611.817.817 0 0 1-.081-.326c.108-.611.245-1.222.408-1.834.163-.61.33-1.222.5-1.833l.51-1.833c.17-.61.317-1.222.44-1.833.027-.258.03-.455.01-.59-.02-.137-.099-.204-.235-.204-.136 0-.388.101-.755.305-.395.19-.742.438-1.042.744-.3.305-.606.594-.919.865zM156.104 17.831a7.488 7.488 0 0 1 1.215-1.283c.456-.38.97-.652 1.542-.815a.227.227 0 0 0 .071-.01.227.227 0 0 1 .072-.01.77.77 0 0 1 .551.214c.15.142.249.309.296.499a.846.846 0 0 1-.04.55c-.075.176-.229.299-.46.366a2.36 2.36 0 0 0-.98.52 5 5 0 0 0-.776.865 8.676 8.676 0 0 0-.623 1.019c-.184.353-.364.686-.541.998-.109.19-.242.404-.398.642-.157.237-.33.461-.52.672-.192.21-.392.387-.603.53a1.167 1.167 0 0 1-.664.213c-.313 0-.613-.142-.898-.428-.273-.176-.47-.444-.593-.804a3.934 3.934 0 0 1-.194-1.212 9.558 9.558 0 0 1 .092-1.426c.068-.502.16-.988.276-1.456.116-.469.242-.9.378-1.294.136-.393.258-.706.367-.937.518-1.045 1.181-1.873 1.991-2.485.81-.61 1.821-.916 3.033-.916.898.054 1.633.288 2.205.703a4.32 4.32 0 0 1 1.337 1.568c.32.631.518 1.334.592 2.108a9.66 9.66 0 0 1-.06 2.343 10.25 10.25 0 0 1-.603 2.27c-.286.727-.626 1.348-1.021 1.864a.621.621 0 0 1-.51.265.912.912 0 0 1-.47-.132c-.15-.089-.276-.2-.378-.336a1.015 1.015 0 0 1-.194-.448.782.782 0 0 1 .082-.49c.163-.298.343-.692.54-1.18.198-.49.368-1.016.511-1.58.143-.563.245-1.136.307-1.72a4.722 4.722 0 0 0-.082-1.6 2.372 2.372 0 0 0-.664-1.19c-.326-.313-.803-.483-1.43-.51-.816 0-1.5.224-2.051.672-.552.448-1.004 1.039-1.358 1.772a8.28 8.28 0 0 0-.398.835c-.143.34-.273.703-.388 1.09-.116.387-.208.78-.276 1.181-.068.4-.088.771-.061 1.11.163-.176.337-.397.52-.662a26.887 26.887 0 0 0 .98-1.517c.13-.217.222-.36.276-.428zM165.263 15.896a.562.562 0 0 1-.429.204.61.61 0 0 1-.378-.132.98.98 0 0 1-.275-.326 1.087 1.087 0 0 1-.123-.408.594.594 0 0 1 .102-.397c.232-.312.48-.628.746-.947.265-.32.554-.608.868-.866a4.408 4.408 0 0 1 1.02-.631 2.889 2.889 0 0 1 1.185-.245c.463 0 .888.116 1.276.347.388.23.67.597.847 1.1.11.285.15.682.123 1.191-.027.51-.102 1.073-.225 1.69a22.97 22.97 0 0 1-.47 1.915c-.19.659-.39 1.287-.602 1.884-.21.598-.418 1.13-.622 1.6-.205.468-.388.81-.552 1.028a.466.466 0 0 1-.429.244.697.697 0 0 1-.357-.101 1.37 1.37 0 0 1-.541-.611.817.817 0 0 1-.082-.326c.11-.611.245-1.222.409-1.834.163-.61.33-1.222.5-1.833l.51-1.833c.17-.61.317-1.222.44-1.833.027-.258.03-.455.01-.59-.02-.137-.099-.204-.235-.204-.136 0-.388.101-.756.305-.394.19-.742.438-1.041.744-.3.305-.606.594-.919.865z"/>
            <path d="M165.263 15.896a.562.562 0 0 1-.429.204.61.61 0 0 1-.378-.132.98.98 0 0 1-.275-.326 1.087 1.087 0 0 1-.123-.408.594.594 0 0 1 .102-.397c.232-.312.48-.628.746-.947.265-.32.554-.608.868-.866a4.408 4.408 0 0 1 1.02-.631 2.889 2.889 0 0 1 1.185-.245c.463 0 .888.116 1.276.347.388.23.67.597.847 1.1.11.285.15.682.123 1.191-.027.51-.102 1.073-.225 1.69a22.97 22.97 0 0 1-.47 1.915c-.19.659-.39 1.287-.602 1.884-.21.598-.418 1.13-.622 1.6-.205.468-.388.81-.552 1.028a.466.466 0 0 1-.429.244.697.697 0 0 1-.357-.101 1.37 1.37 0 0 1-.541-.611.817.817 0 0 1-.082-.326c.11-.611.245-1.222.409-1.834.163-.61.33-1.222.5-1.833l.51-1.833c.17-.61.317-1.222.44-1.833.027-.258.03-.455.01-.59-.02-.137-.099-.204-.235-.204-.136 0-.388.101-.756.305-.394.19-.742.438-1.041.744-.3.305-.606.594-.919.865zM156.104 17.831a7.488 7.488 0 0 1 1.215-1.283c.456-.38.97-.652 1.542-.815a.227.227 0 0 0 .071-.01.227.227 0 0 1 .072-.01.77.77 0 0 1 .551.214c.15.142.249.309.296.499a.846.846 0 0 1-.04.55c-.075.176-.229.299-.46.366a2.36 2.36 0 0 0-.98.52 5 5 0 0 0-.776.865 8.676 8.676 0 0 0-.623 1.019c-.184.353-.364.686-.541.998-.109.19-.242.404-.398.642-.157.237-.33.461-.52.672-.192.21-.392.387-.603.53a1.167 1.167 0 0 1-.664.213c-.313 0-.613-.142-.898-.428-.273-.176-.47-.444-.593-.804a3.934 3.934 0 0 1-.194-1.212 9.558 9.558 0 0 1 .092-1.426c.068-.502.16-.988.276-1.456.116-.469.242-.9.378-1.294.136-.393.258-.706.367-.937.518-1.045 1.181-1.873 1.991-2.485.81-.61 1.821-.916 3.033-.916.898.054 1.633.288 2.205.703a4.32 4.32 0 0 1 1.337 1.568c.32.631.518 1.334.592 2.108a9.66 9.66 0 0 1-.06 2.343 10.25 10.25 0 0 1-.603 2.27c-.286.727-.626 1.348-1.021 1.864a.621.621 0 0 1-.51.265.912.912 0 0 1-.47-.132c-.15-.089-.276-.2-.378-.336a1.015 1.015 0 0 1-.194-.448.782.782 0 0 1 .082-.49c.163-.298.343-.692.54-1.18.198-.49.368-1.016.511-1.58.143-.563.245-1.136.307-1.72a4.722 4.722 0 0 0-.082-1.6 2.372 2.372 0 0 0-.664-1.19c-.326-.313-.803-.483-1.43-.51-.816 0-1.5.224-2.051.672-.552.448-1.004 1.039-1.358 1.772a8.28 8.28 0 0 0-.398.835c-.143.34-.273.703-.388 1.09-.116.387-.208.78-.276 1.181-.068.4-.088.771-.061 1.11.163-.176.337-.397.52-.662a26.887 26.887 0 0 0 .98-1.517c.13-.217.222-.36.276-.428zM175.8 17.427a8.14 8.14 0 0 1 1.32-1.394 4.526 4.526 0 0 1 1.676-.886c.03 0 .055-.004.077-.011a.246.246 0 0 1 .078-.011c.237 0 .436.077.6.232.162.155.27.336.321.543a.92.92 0 0 1-.044.598c-.082.191-.248.324-.5.398-.4.103-.754.292-1.065.565-.31.273-.592.586-.844.94a9.43 9.43 0 0 0-.677 1.108c-.2.383-.395.745-.588 1.084-.118.207-.262.44-.433.698-.17.258-.358.502-.565.73-.208.23-.426.421-.655.576-.23.155-.47.233-.722.233-.34 0-.665-.155-.976-.465-.296-.192-.51-.484-.644-.875a4.276 4.276 0 0 1-.21-1.317c-.008-.487.025-1.004.1-1.55.073-.546.173-1.074.299-1.583.126-.51.262-.978.41-1.406.148-.428.282-.767.4-1.018.562-1.137 1.284-2.037 2.164-2.701.88-.665 1.98-.997 3.296-.997.977.06 1.776.314 2.397.764a4.696 4.696 0 0 1 1.454 1.705c.348.686.562 1.45.643 2.291a10.5 10.5 0 0 1-.066 2.546 11.14 11.14 0 0 1-.655 2.469c-.31.79-.68 1.465-1.11 2.026a.675.675 0 0 1-.554.288.991.991 0 0 1-.511-.144 1.393 1.393 0 0 1-.41-.366 1.103 1.103 0 0 1-.211-.487.85.85 0 0 1 .088-.531c.178-.325.374-.753.589-1.284.214-.531.399-1.103.554-1.716.156-.612.267-1.236.333-1.87.067-.635.037-1.215-.088-1.739a2.578 2.578 0 0 0-.722-1.295c-.355-.34-.873-.524-1.553-.553-.888 0-1.632.243-2.231.73-.6.487-1.091 1.13-1.476 1.926a9 9 0 0 0-.433.908c-.155.37-.296.764-.422 1.185-.125.42-.225.848-.3 1.284a4.889 4.889 0 0 0-.066 1.206c.178-.192.366-.431.566-.72a29.225 29.225 0 0 0 1.066-1.649c.14-.236.24-.39.3-.465zM180.315 7.125c-.088-.106-.232-.145-.432-.117-.144.02-.288.06-.432.12-.145.06-.258.115-.338.165a.105.105 0 0 0-.042.016.105.105 0 0 1-.042.016.466.466 0 0 1-.352-.09.728.728 0 0 1-.3-.659.418.418 0 0 1 .196-.314 2.628 2.628 0 0 1 1.16-.478c.285-.04.57-.015.853.078.283.092.523.262.719.511.285.369.386.776.303 1.223.447-.142.89-.296 1.326-.463a6.145 6.145 0 0 1 1.342-.346l.258-.036.171-.024a.582.582 0 0 1 .2.011.66.66 0 0 1 .443.195c.134.126.227.265.277.416a.627.627 0 0 1-.004.435c-.053.14-.18.223-.38.251a6.229 6.229 0 0 0-1.02.232c-.335.106-.67.216-1.004.329-.335.112-.67.222-1.005.328a6.229 6.229 0 0 1-1.02.232 4.284 4.284 0 0 1-.716.041.752.752 0 0 1-.403-.062.77.77 0 0 1-.332-.26.695.695 0 0 1-.132-.386.606.606 0 0 1 .16-.418 6.5 6.5 0 0 1 .152-.17 7.99 7.99 0 0 0 .226-.259.99.99 0 0 0 .169-.28c.037-.098.037-.177 0-.237zM187.56 13.272a14.43 14.43 0 0 0-.938.468c-.099.099-.22.149-.362.149a.444.444 0 0 1-.34-.17 1.01 1.01 0 0 1-.214-.394 1.143 1.143 0 0 1-.032-.467.564.564 0 0 1 .181-.372c.284-.255.597-.464.938-.627.34-.163.675-.245 1.001-.245.27 0 .533.068.789.202.255.135.483.358.682.67.156.227.266.482.33.765.064.283.1.577.106.882.007.305-.003.61-.032.914-.028.305-.056.584-.085.84-.07.425-.156.864-.256 1.317.2.071.412.174.64.308.227.135.454.284.681.447a5.988 5.988 0 0 1 1.108 1.03.555.555 0 0 1 .086.118c.028.05.064.102.106.159.043-.241.114-.567.213-.978.1-.41.217-.853.352-1.328a135.575 135.575 0 0 1 .852-2.88c.135-.44.252-.825.352-1.158.1-.333.17-.564.213-.691.142-.34.376-.51.703-.51.17 0 .337.035.5.106.164.07.31.166.438.287.127.12.227.258.298.414a.772.772 0 0 1 .064.468 124.776 124.776 0 0 1-.96 4.113 49.985 49.985 0 0 1-1.214 4.049c-.113.311-.277.56-.49.743a1.105 1.105 0 0 1-.745.277c-.185 0-.341-.029-.47-.085a2.045 2.045 0 0 1-.596-.34 3.169 3.169 0 0 1-.458-.468c-.135-.17-.266-.347-.394-.531a7.484 7.484 0 0 0-.405-.532 10.55 10.55 0 0 0-.682-.701 1.975 1.975 0 0 0-.788-.468 16.99 16.99 0 0 0-.192.436c-.057.135-.12.28-.192.436-.128.269-.273.556-.437.86a5.802 5.802 0 0 1-.564.861c-.213.27-.458.493-.735.67a1.685 1.685 0 0 1-.927.266c-.313 0-.575-.093-.788-.277a1.328 1.328 0 0 1-.427-.68 4.322 4.322 0 0 1-.096-1.456c.05-.503.185-.974.405-1.413.22-.44.522-.822.906-1.148.383-.326.852-.538 1.406-.638a.403.403 0 0 1 .128-.02.238.238 0 0 0 .107-.022 3.9 3.9 0 0 0 .223-.606 17.247 17.247 0 0 0 .405-1.668c.05-.27.075-.475.075-.617 0-.24-.018-.428-.054-.563-.035-.134-.174-.202-.415-.202zM200.566 17.831a7.489 7.489 0 0 1 1.215-1.283c.456-.38.97-.652 1.541-.815a.227.227 0 0 0 .072-.01.227.227 0 0 1 .071-.01.77.77 0 0 1 .552.214c.15.142.248.309.296.499a.846.846 0 0 1-.041.55c-.075.176-.228.299-.46.366a2.36 2.36 0 0 0-.98.52 5 5 0 0 0-.776.865 8.676 8.676 0 0 0-.622 1.019c-.184.353-.364.686-.541.998-.11.19-.242.404-.399.642-.156.237-.33.461-.52.672-.19.21-.392.387-.603.53a1.167 1.167 0 0 1-.663.213c-.313 0-.613-.142-.899-.428-.272-.176-.47-.444-.592-.804a3.934 3.934 0 0 1-.194-1.212 9.558 9.558 0 0 1 .092-1.426c.068-.502.16-.988.276-1.456.115-.469.241-.9.377-1.294.136-.393.259-.706.368-.937.517-1.045 1.18-1.873 1.99-2.485.81-.61 1.822-.916 3.033-.916.899.054 1.634.288 2.205.703a4.32 4.32 0 0 1 1.338 1.568c.32.631.517 1.334.592 2.108a9.66 9.66 0 0 1-.061 2.343 10.25 10.25 0 0 1-.603 2.27c-.285.727-.626 1.348-1.02 1.864a.621.621 0 0 1-.511.265.912.912 0 0 1-.47-.132c-.15-.089-.275-.2-.377-.336a1.015 1.015 0 0 1-.194-.448.782.782 0 0 1 .081-.49c.164-.298.344-.692.541-1.18.198-.49.368-1.016.51-1.58.144-.563.246-1.136.307-1.72a4.722 4.722 0 0 0-.082-1.6 2.372 2.372 0 0 0-.663-1.19c-.327-.313-.803-.483-1.43-.51-.816 0-1.5.224-2.052.672-.551.448-1.004 1.039-1.358 1.772a8.28 8.28 0 0 0-.398.835c-.143.34-.272.703-.388 1.09-.115.387-.207.78-.275 1.181-.068.4-.089.771-.062 1.11.164-.176.337-.397.521-.662a26.887 26.887 0 0 0 .98-1.517c.13-.217.221-.36.276-.428zM207.042 10.387c-.183.145-.367.2-.553.166a.541.541 0 0 1-.46-.583c.002-.143.037-.383.106-.721.069-.338.157-.676.265-1.013.108-.336.237-.628.386-.874.149-.246.31-.348.483-.304.226.065.4.189.521.372.121.182.157.352.108.51-.04.17-.094.34-.162.505a6.169 6.169 0 0 0-.176.485c-.074.236-.143.48-.208.729a2.76 2.76 0 0 1-.31.728z"/>
            <path d="M207.042 10.387c-.183.145-.367.2-.553.166a.541.541 0 0 1-.46-.583c.002-.143.037-.383.106-.721.069-.338.157-.676.265-1.013.108-.336.237-.628.386-.874.149-.246.31-.348.483-.304.226.065.4.189.521.372.121.182.157.352.108.51-.04.17-.094.34-.162.505a6.169 6.169 0 0 0-.176.485c-.074.236-.143.48-.208.729a2.76 2.76 0 0 1-.31.728zM210.03 15.896a.562.562 0 0 1-.429.204.61.61 0 0 1-.378-.132.98.98 0 0 1-.275-.326 1.087 1.087 0 0 1-.123-.408.594.594 0 0 1 .102-.397c.232-.312.48-.628.746-.947.265-.32.554-.608.867-.866a4.408 4.408 0 0 1 1.021-.631 2.889 2.889 0 0 1 1.185-.245c.463 0 .888.116 1.276.347.388.23.67.597.847 1.1.11.285.15.682.123 1.191-.027.51-.102 1.073-.225 1.69a22.97 22.97 0 0 1-.47 1.915c-.19.659-.39 1.287-.602 1.884-.21.598-.418 1.13-.623 1.6-.204.468-.388.81-.55 1.028a.466.466 0 0 1-.43.244.697.697 0 0 1-.357-.101 1.37 1.37 0 0 1-.541-.611.817.817 0 0 1-.082-.326c.109-.611.245-1.222.409-1.834.163-.61.33-1.222.5-1.833l.51-1.833c.17-.61.317-1.222.44-1.833.027-.258.03-.455.01-.59-.02-.137-.1-.204-.235-.204-.136 0-.388.101-.756.305-.395.19-.742.438-1.041.744-.3.305-.606.594-.92.865zM179.493 23.72a1.763 1.763 0 0 0-.622.077c-.212.066-.357.18-.426.34l-.094.2-.178.366c-.057.115-.113.221-.166.32-.135.248-.269.484-.402.708l-.136.226-.293.465-.382.602-.144.23c-.095.15-.132.288-.107.413a.503.503 0 0 0 .204.306c.101.076.226.136.375.18.146.044.293.07.44.078.376.02.685-.043.927-.189a3.72 3.72 0 0 0 .702-.774c.197-.29.37-.592.516-.91.146-.315.274-.637.381-.965l.298-.908c.117-.22.055-.425-.179-.562a1.547 1.547 0 0 0-.714-.203zm-.009.177c.242.013.453.073.633.179.153.09.184.191.106.34l-.303.922c-.106.321-.23.637-.374.946-.143.308-.31.603-.502.885-.19.278-.41.522-.658.73-.198.118-.472.173-.814.155a1.688 1.688 0 0 1-.399-.07 1.03 1.03 0 0 1-.32-.153.327.327 0 0 1-.136-.2c-.015-.073.01-.168.084-.284l.405-.643.12-.186a22.974 22.974 0 0 0 .701-1.164l.219-.403.175-.347.186-.395c.048-.11.15-.191.317-.243.18-.056.366-.079.56-.069zM138.126 23.162c-.192 0-.37-.082-.533-.244a1.357 1.357 0 0 1-.344-.564 1.009 1.009 0 0 1-.01-.61c.058-.191.214-.317.465-.376.37-.088.759-.225 1.166-.41a4.478 4.478 0 0 0 1.054-.652 5.128 5.128 0 0 0 .754-.82c.119-.162.204-.332.256-.509a.587.587 0 0 0-.056-.487.681.681 0 0 0-.222-.243 2.208 2.208 0 0 0-.344-.2 14.697 14.697 0 0 0-.366-.166 6.781 6.781 0 0 1-.31-.144 3.028 3.028 0 0 1-.844-.597 2.759 2.759 0 0 1-.577-.82c-.207-.457-.252-.911-.133-1.361.118-.45.34-.882.665-1.295a6.367 6.367 0 0 1 1.199-1.152 9.995 9.995 0 0 1 2.963-1.527c.48-.148.892-.222 1.232-.222.133 0 .214.008.244.022h.044c.178 0 .311.074.4.222a.969.969 0 0 1 .133.51c0 .191-.04.372-.122.542a.565.565 0 0 1-.388.32 4.081 4.081 0 0 0-.777.3 9.463 9.463 0 0 0-1.01.564 13.45 13.45 0 0 0-1.021.72 4.07 4.07 0 0 0-.8.797c-.199.273-.306.535-.32.786-.016.25.117.472.399.664.355.236.699.49 1.032.764.333.273.606.572.82.896.215.325.349.68.4 1.063.052.384-.026.797-.233 1.24-.192.413-.466.8-.82 1.162a6.292 6.292 0 0 1-1.2.952c-.443.273-.91.487-1.398.642a4.621 4.621 0 0 1-1.398.233zM175.8 17.427a8.14 8.14 0 0 1 1.32-1.394 4.526 4.526 0 0 1 1.676-.886c.03 0 .055-.004.077-.011a.246.246 0 0 1 .078-.011c.237 0 .436.077.6.232.162.155.27.336.321.543a.92.92 0 0 1-.044.598c-.082.191-.248.324-.5.398-.4.103-.754.292-1.065.565-.31.273-.592.586-.844.94a9.43 9.43 0 0 0-.677 1.108c-.2.383-.395.745-.588 1.084-.118.207-.262.44-.433.698-.17.258-.358.502-.565.73-.208.23-.426.421-.655.576-.23.155-.47.233-.722.233-.34 0-.665-.155-.976-.465-.296-.192-.51-.484-.644-.875a4.276 4.276 0 0 1-.21-1.317c-.008-.487.025-1.004.1-1.55.073-.546.173-1.074.299-1.583.126-.51.262-.978.41-1.406.148-.428.282-.767.4-1.018.562-1.137 1.284-2.037 2.164-2.701.88-.665 1.98-.997 3.296-.997.977.06 1.776.314 2.397.764a4.696 4.696 0 0 1 1.454 1.705c.348.686.562 1.45.643 2.291a10.5 10.5 0 0 1-.066 2.546 11.14 11.14 0 0 1-.655 2.469c-.31.79-.68 1.465-1.11 2.026a.675.675 0 0 1-.554.288.991.991 0 0 1-.511-.144 1.393 1.393 0 0 1-.41-.366 1.103 1.103 0 0 1-.211-.487.85.85 0 0 1 .088-.531c.178-.325.374-.753.589-1.284.214-.531.399-1.103.554-1.716.156-.612.267-1.236.333-1.87.067-.635.037-1.215-.088-1.739a2.578 2.578 0 0 0-.722-1.295c-.355-.34-.873-.524-1.553-.553-.888 0-1.632.243-2.231.73-.6.487-1.091 1.13-1.476 1.926a9 9 0 0 0-.433.908c-.155.37-.296.764-.422 1.185-.125.42-.225.848-.3 1.284a4.889 4.889 0 0 0-.066 1.206c.178-.192.366-.431.566-.72a29.225 29.225 0 0 0 1.066-1.649c.14-.236.24-.39.3-.465zM180.315 7.125c-.088-.106-.232-.145-.432-.117-.144.02-.288.06-.432.12-.145.06-.258.115-.338.165a.105.105 0 0 0-.042.016.105.105 0 0 1-.042.016.466.466 0 0 1-.352-.09.728.728 0 0 1-.3-.659.418.418 0 0 1 .196-.314 2.628 2.628 0 0 1 1.16-.478c.285-.04.57-.015.853.078.283.092.523.262.719.511.285.369.386.776.303 1.223.447-.142.89-.296 1.326-.463a6.145 6.145 0 0 1 1.342-.346l.258-.036.171-.024a.582.582 0 0 1 .2.011.66.66 0 0 1 .443.195c.134.126.227.265.277.416a.627.627 0 0 1-.004.435c-.053.14-.18.223-.38.251a6.229 6.229 0 0 0-1.02.232c-.335.106-.67.216-1.004.329-.335.112-.67.222-1.005.328a6.229 6.229 0 0 1-1.02.232 4.284 4.284 0 0 1-.716.041.752.752 0 0 1-.403-.062.77.77 0 0 1-.332-.26.695.695 0 0 1-.132-.386.606.606 0 0 1 .16-.418 6.5 6.5 0 0 1 .152-.17 7.99 7.99 0 0 0 .226-.259.99.99 0 0 0 .169-.28c.037-.098.037-.177 0-.237zM187.56 13.272a14.43 14.43 0 0 0-.938.468c-.099.099-.22.149-.362.149a.444.444 0 0 1-.34-.17 1.01 1.01 0 0 1-.214-.394 1.143 1.143 0 0 1-.032-.467.564.564 0 0 1 .181-.372c.284-.255.597-.464.938-.627.34-.163.675-.245 1.001-.245.27 0 .533.068.789.202.255.135.483.358.682.67.156.227.266.482.33.765.064.283.1.577.106.882.007.305-.003.61-.032.914-.028.305-.056.584-.085.84-.07.425-.156.864-.256 1.317.2.071.412.174.64.308.227.135.454.284.681.447a5.988 5.988 0 0 1 1.108 1.03.555.555 0 0 1 .086.118c.028.05.064.102.106.159.043-.241.114-.567.213-.978.1-.41.217-.853.352-1.328a135.575 135.575 0 0 1 .852-2.88c.135-.44.252-.825.352-1.158.1-.333.17-.564.213-.691.142-.34.376-.51.703-.51.17 0 .337.035.5.106.164.07.31.166.438.287.127.12.227.258.298.414a.772.772 0 0 1 .064.468 124.776 124.776 0 0 1-.96 4.113 49.985 49.985 0 0 1-1.214 4.049c-.113.311-.277.56-.49.743a1.105 1.105 0 0 1-.745.277c-.185 0-.341-.029-.47-.085a2.045 2.045 0 0 1-.596-.34 3.169 3.169 0 0 1-.458-.468c-.135-.17-.266-.347-.394-.531a7.484 7.484 0 0 0-.405-.532 10.55 10.55 0 0 0-.682-.701 1.975 1.975 0 0 0-.788-.468 16.99 16.99 0 0 0-.192.436c-.057.135-.12.28-.192.436-.128.269-.273.556-.437.86a5.802 5.802 0 0 1-.564.861c-.213.27-.458.493-.735.67a1.685 1.685 0 0 1-.927.266c-.313 0-.575-.093-.788-.277a1.328 1.328 0 0 1-.427-.68 4.322 4.322 0 0 1-.096-1.456c.05-.503.185-.974.405-1.413.22-.44.522-.822.906-1.148.383-.326.852-.538 1.406-.638a.403.403 0 0 1 .128-.02.238.238 0 0 0 .107-.022 3.9 3.9 0 0 0 .223-.606 17.247 17.247 0 0 0 .405-1.668c.05-.27.075-.475.075-.617 0-.24-.018-.428-.054-.563-.035-.134-.174-.202-.415-.202zM200.566 17.831a7.489 7.489 0 0 1 1.215-1.283c.456-.38.97-.652 1.541-.815a.227.227 0 0 0 .072-.01.227.227 0 0 1 .071-.01.77.77 0 0 1 .552.214c.15.142.248.309.296.499a.846.846 0 0 1-.041.55c-.075.176-.228.299-.46.366a2.36 2.36 0 0 0-.98.52 5 5 0 0 0-.776.865 8.676 8.676 0 0 0-.622 1.019c-.184.353-.364.686-.541.998-.11.19-.242.404-.399.642-.156.237-.33.461-.52.672-.19.21-.392.387-.603.53a1.167 1.167 0 0 1-.663.213c-.313 0-.613-.142-.899-.428-.272-.176-.47-.444-.592-.804a3.934 3.934 0 0 1-.194-1.212 9.558 9.558 0 0 1 .092-1.426c.068-.502.16-.988.276-1.456.115-.469.241-.9.377-1.294.136-.393.259-.706.368-.937.517-1.045 1.18-1.873 1.99-2.485.81-.61 1.822-.916 3.033-.916.899.054 1.634.288 2.205.703a4.32 4.32 0 0 1 1.338 1.568c.32.631.517 1.334.592 2.108a9.66 9.66 0 0 1-.061 2.343 10.25 10.25 0 0 1-.603 2.27c-.285.727-.626 1.348-1.02 1.864a.621.621 0 0 1-.511.265.912.912 0 0 1-.47-.132c-.15-.089-.275-.2-.377-.336a1.015 1.015 0 0 1-.194-.448.782.782 0 0 1 .081-.49c.164-.298.344-.692.541-1.18.198-.49.368-1.016.51-1.58.144-.563.246-1.136.307-1.72a4.722 4.722 0 0 0-.082-1.6 2.372 2.372 0 0 0-.663-1.19c-.327-.313-.803-.483-1.43-.51-.816 0-1.5.224-2.052.672-.551.448-1.004 1.039-1.358 1.772a8.28 8.28 0 0 0-.398.835c-.143.34-.272.703-.388 1.09-.115.387-.207.78-.275 1.181-.068.4-.089.771-.062 1.11.164-.176.337-.397.521-.662a26.887 26.887 0 0 0 .98-1.517c.13-.217.221-.36.276-.428z"/>
            <path d="M210.03 15.896a.562.562 0 0 1-.429.204.61.61 0 0 1-.378-.132.98.98 0 0 1-.275-.326 1.087 1.087 0 0 1-.123-.408.594.594 0 0 1 .102-.397c.232-.312.48-.628.746-.947.265-.32.554-.608.867-.866a4.408 4.408 0 0 1 1.021-.631 2.889 2.889 0 0 1 1.185-.245c.463 0 .888.116 1.276.347.388.23.67.597.847 1.1.11.285.15.682.123 1.191-.027.51-.102 1.073-.225 1.69a22.97 22.97 0 0 1-.47 1.915c-.19.659-.39 1.287-.602 1.884-.21.598-.418 1.13-.623 1.6-.204.468-.388.81-.55 1.028a.466.466 0 0 1-.43.244.697.697 0 0 1-.357-.101 1.37 1.37 0 0 1-.541-.611.817.817 0 0 1-.082-.326c.109-.611.245-1.222.409-1.834.163-.61.33-1.222.5-1.833l.51-1.833c.17-.61.317-1.222.44-1.833.027-.258.03-.455.01-.59-.02-.137-.1-.204-.235-.204-.136 0-.388.101-.756.305-.395.19-.742.438-1.041.744-.3.305-.606.594-.92.865zM180.302 24.457c-.092.281-.19.584-.298.908a8.9 8.9 0 0 1-.377.956 6.25 6.25 0 0 1-.51.897c-.194.286-.42.535-.674.748-.226.136-.518.195-.876.176a1.778 1.778 0 0 1-.42-.073 1.116 1.116 0 0 1-.347-.166.415.415 0 0 1-.17-.253c-.02-.1.011-.216.095-.35.197-.315.372-.591.525-.83a20.216 20.216 0 0 0 .834-1.405c.136-.249.283-.546.442-.893.059-.135.183-.232.372-.29.19-.06.386-.084.591-.073.256.013.48.077.674.19.193.114.24.266.14.458zM50.102 24.335c-.215 0-.421.036-.617.109-.209.077-.347.198-.408.362l-.083.205-.159.375a20.121 20.121 0 0 1-.513 1.056l-.125.232-.268.48-.35.621a85.47 85.47 0 0 0-.131.237c-.087.155-.117.295-.085.419.031.12.105.22.22.295.104.07.232.123.383.16.148.036.296.054.444.054.376 0 .681-.078.915-.237.26-.24.477-.507.66-.81.183-.299.339-.61.469-.935.13-.323.24-.65.33-.984l.25-.922c.105-.227.032-.427-.208-.552a1.547 1.547 0 0 0-.724-.165zm0 .177c.243 0 .456.049.642.145.157.082.194.182.124.335l-.255.936a8.808 8.808 0 0 1-.324.965 6.159 6.159 0 0 1-.455.909 3.559 3.559 0 0 1-.62.763c-.19.129-.462.198-.804.198-.134 0-.268-.016-.402-.05a1.03 1.03 0 0 1-.327-.134.327.327 0 0 1-.146-.193c-.02-.073.001-.169.068-.288l.371-.664.11-.192a22.973 22.973 0 0 0 .64-1.2l.197-.413.156-.356.166-.403c.042-.114.14-.2.304-.26.176-.065.36-.098.555-.098z"/>
            <path d="m50.948 25.029-.25.922c-.09.33-.198.655-.326.974-.129.32-.283.628-.462.923-.18.295-.391.556-.635.782-.217.148-.506.222-.865.222-.14 0-.282-.018-.423-.052a1.117 1.117 0 0 1-.356-.148.415.415 0 0 1-.182-.243c-.026-.099 0-.217.077-.354.179-.325.34-.61.48-.857a20.21 20.21 0 0 0 .76-1.446c.122-.256.253-.56.394-.915.051-.138.17-.241.356-.31.186-.069.381-.103.586-.103.257 0 .484.051.683.155.199.103.253.253.163.45zM45.218 13.797l-.411.453a4.16 4.16 0 0 0-.41.543c-.163.206-.356.31-.578.31a.656.656 0 0 1-.377-.122.966.966 0 0 1-.289-.31 1.136 1.136 0 0 1-.144-.42.869.869 0 0 1 .056-.454 5.58 5.58 0 0 1 .4-.775c.177-.296.38-.576.61-.842.229-.265.48-.49.754-.675.274-.184.544-.277.81-.277.193 0 .381.056.566.166.185.111.366.3.544.565.163.266.259.583.289.952.03.369.03.753 0 1.151.207-.325.436-.657.688-.996.251-.34.525-.65.82-.93.297-.28.615-.513.955-.697a2.69 2.69 0 0 1 1.088-.321h.2c.577 0 1.035.177 1.376.531.34.354.588.782.743 1.284.156.502.24 1.03.255 1.583a8.715 8.715 0 0 1-.066 1.45 45.085 45.085 0 0 1-.588 3.51 40.025 40.025 0 0 1-.9 3.509c-.088.31-.317.464-.687.464-.178 0-.355-.036-.533-.11a1.826 1.826 0 0 1-.477-.288 1.1 1.1 0 0 1-.31-.41.679.679 0 0 1-.012-.498c.163-1.018.355-2.022.577-3.01.222-.99.422-1.993.6-3.012.029-.162.066-.376.11-.642a4.7 4.7 0 0 0 .067-.775c0-.25-.04-.468-.122-.653a.436.436 0 0 0-.5-.266.155.155 0 0 1-.066.012c-.296.25-.559.53-.788.84-.23.31-.444.632-.644.964-.2.332-.384.671-.555 1.018-.17.347-.344.683-.521 1.008-.415.767-.77 1.524-1.066 2.269a52.328 52.328 0 0 1-.954 2.247c-.148.354-.407.532-.777.532-.163 0-.325-.041-.488-.122a1.653 1.653 0 0 1-.433-.31 1.17 1.17 0 0 1-.277-.432.851.851 0 0 1-.023-.51.82.82 0 0 0 .034-.143.82.82 0 0 1 .033-.144l-.067-.044c.03-.089.067-.177.111-.266.045-.088.082-.17.111-.243.134-.502.27-1.034.411-1.594.14-.561.27-1.13.388-1.705.119-.576.219-1.152.3-1.727.081-.576.137-1.122.167-1.638zM62.211 12.19c.054-.19.136-.323.245-.398a.67.67 0 0 1 .388-.112c.15 0 .303.037.46.112.156.075.296.177.418.306.123.129.221.274.296.437a.824.824 0 0 1 .072.49c0 .067-.017.183-.051.346l-.123.58a10.28 10.28 0 0 1-.184.723c-.075.258-.153.516-.235.774-.095.312-.19.635-.285.968-.096.332-.198.675-.307 1.028.232.163.422.421.572.774.15.353.225.693.225 1.019.081.747-.017 1.432-.296 2.057a3.754 3.754 0 0 1-1.277 1.548.722.722 0 0 1-.408.122.995.995 0 0 1-.551-.173 1.62 1.62 0 0 1-.45-.438c-.231-.34-.36-.71-.388-1.11-.027-.4-.006-.852.062-1.355 0-.176.03-.41.092-.702.06-.292.091-.526.091-.703-.408.285-.772.55-1.092.794-.32.245-.623.513-.909.805a8.565 8.565 0 0 0-.837 1.008c-.272.38-.565.856-.878 1.426-.136.258-.313.387-.53.387a.694.694 0 0 1-.44-.173 1.556 1.556 0 0 1-.367-.438 2.128 2.128 0 0 1-.225-.55.93.93 0 0 1 .01-.53c.259-.733.483-1.5.674-2.301.19-.801.381-1.569.572-2.302.04-.163.098-.39.173-.682.075-.292.14-.58.194-.866.055-.285.082-.533.082-.743 0-.21-.054-.316-.163-.316-.068 0-.164.05-.286.153-.123.102-.28.268-.47.499-.204.244-.408.366-.612.366-.232 0-.422-.122-.572-.366-.15-.245-.17-.523-.061-.835.163-.421.435-.808.816-1.161a1.97 1.97 0 0 1 1.389-.53c.313 0 .575.065.786.194.211.129.378.295.5.499.123.203.211.434.266.692.054.258.088.516.102.774.04.788-.007 1.473-.143 2.057a81.99 81.99 0 0 1-.429 1.752c.272-.204.514-.38.725-.53.211-.149.422-.281.633-.397.211-.115.436-.217.674-.305a7.69 7.69 0 0 1 .868-.255 20.265 20.265 0 0 0 .592-2.21 20.265 20.265 0 0 1 .592-2.21zM67.897 14.022a3.268 3.268 0 0 0-.776.591c-.15.23-.326.346-.53.346a.52.52 0 0 1-.348-.142.977.977 0 0 1-.255-.357 1.333 1.333 0 0 1-.102-.478.926.926 0 0 1 .112-.49 2.66 2.66 0 0 1 1.042-1.079c.435-.244.94-.366 1.51-.366.246 0 .467.101.664.305.198.204.297.428.297.672.054.68.04 1.341-.041 1.986a18.2 18.2 0 0 1-.347 1.915 45.03 45.03 0 0 1-.49 1.884 28.089 28.089 0 0 0-.47 1.915c.218.027.487.05.806.07.32.021.647.042.98.062.334.02.654.034.96.04.307.008.562.01.766.01.286-.04.555-.233.807-.58.251-.346.486-.794.704-1.344.218-.55.419-1.181.602-1.894.184-.713.351-1.457.5-2.23.15-.775.287-1.549.41-2.323a241.83 241.83 0 0 0 .601-4.012l.174-1.222c.04-.258.126-.442.255-.55a.664.664 0 0 1 .44-.163c.244 0 .486.112.724.336.238.224.358.506.358.845 0 .38-.045.947-.133 1.701a51.637 51.637 0 0 1-.368 2.526c-.156.93-.34 1.904-.551 2.923a43.883 43.883 0 0 1-.694 2.882c-.252.903-.521 1.7-.807 2.393-.286.693-.572 1.181-.858 1.467a3.63 3.63 0 0 1-1.306.855c-.477.177-1 .265-1.573.265-.571 0-1.16-.017-1.766-.051a8.951 8.951 0 0 1-1.766-.275 1.984 1.984 0 0 1-.786-.387 1.788 1.788 0 0 1-.48-.611 1.744 1.744 0 0 1-.164-.754c0-.271.048-.543.143-.815.164-.475.34-.953.531-1.436.19-.482.368-.967.531-1.456a22.9 22.9 0 0 0 .44-1.477c.128-.495.214-.994.254-1.497zM77.858 23.107c-.177 0-.34-.075-.49-.224a1.248 1.248 0 0 1-.316-.52.928.928 0 0 1-.01-.56c.054-.176.197-.292.428-.346.34-.082.698-.207 1.072-.377.375-.17.698-.37.97-.6a4.718 4.718 0 0 0 .695-.754c.108-.15.187-.306.234-.469a.54.54 0 0 0-.05-.448.627.627 0 0 0-.205-.224 2.032 2.032 0 0 0-.316-.183 13.521 13.521 0 0 0-.337-.153 6.239 6.239 0 0 1-.286-.133 2.785 2.785 0 0 1-.776-.55 2.538 2.538 0 0 1-.531-.753 1.83 1.83 0 0 1-.123-1.253c.11-.414.314-.811.613-1.191.3-.38.667-.734 1.103-1.06a9.195 9.195 0 0 1 2.726-1.405c.442-.136.82-.204 1.133-.204.122 0 .197.007.225.02h.04c.164 0 .286.069.368.204a.891.891 0 0 1 .122.469c0 .176-.037.343-.112.499a.52.52 0 0 1-.357.295c-.177.041-.415.133-.715.275-.3.143-.609.316-.929.52-.32.203-.633.424-.94.662a3.744 3.744 0 0 0-.734.733c-.184.251-.283.492-.296.723-.014.23.108.434.367.611.327.217.643.451.95.703.306.25.558.526.755.825.198.298.32.624.368.977.047.353-.024.734-.215 1.141-.177.38-.429.737-.755 1.07a5.789 5.789 0 0 1-1.103.875 5.791 5.791 0 0 1-1.286.59c-.45.143-.878.215-1.287.215z"/>
        </g>
    </g>
</svg>
