<svg width="222" height="64" viewBox="0 0 222 64" xmlns="http://www.w3.org/2000/svg">
    <g fill="none" fill-rule="evenodd">
        <g fill="#F1EFE3" fill-rule="nonzero">
            <path d="M89.091 52.113c0 .681-.232 1.247-.698 1.697-.466.45-1.176.675-2.131.675h-1.573v3.416H83.62v-8.183h2.642c.924 0 1.626.223 2.107.67.482.446.722 1.021.722 1.725zm-2.83 1.491c.596 0 1.034-.129 1.316-.387.282-.258.423-.626.423-1.104 0-1.01-.58-1.514-1.738-1.514h-1.573v3.005h1.573zM92.824 58.007a3.294 3.294 0 0 1-1.638-.41 2.925 2.925 0 0 1-1.15-1.169c-.278-.505-.417-1.09-.417-1.755 0-.658.142-1.239.428-1.744a2.953 2.953 0 0 1 1.168-1.162 3.389 3.389 0 0 1 1.656-.405c.61 0 1.162.135 1.655.405.493.27.883.656 1.168 1.157.286.5.429 1.084.429 1.749s-.147 1.25-.44 1.755c-.294.505-.691.894-1.192 1.168-.501.274-1.057.411-1.667.411zm0-.94c.383 0 .743-.09 1.08-.27.336-.18.608-.45.816-.81.207-.36.31-.798.31-1.314 0-.517-.1-.955-.304-1.315a1.999 1.999 0 0 0-.799-.804 2.227 2.227 0 0 0-1.068-.264c-.391 0-.75.088-1.074.264a1.937 1.937 0 0 0-.781.804c-.196.36-.294.798-.294 1.315 0 .524.096.966.288 1.327.192.36.448.628.77.804.32.176.672.264 1.056.264zM105.969 51.468 103.96 57.9h-1.103l-1.55-5.107-1.55 5.107h-1.104l-2.019-6.433h1.092l1.48 5.4 1.596-5.4h1.092l1.561 5.412 1.456-5.412zM112.762 54.438c0 .204-.012.419-.035.646h-5.142c.039.634.256 1.129.651 1.485.395.356.875.534 1.438.534.462 0 .848-.108 1.157-.323a1.71 1.71 0 0 0 .651-.863h1.151a2.766 2.766 0 0 1-1.033 1.509c-.517.387-1.159.581-1.926.581-.61 0-1.156-.137-1.637-.41a2.909 2.909 0 0 1-1.133-1.169c-.274-.505-.411-1.09-.411-1.755 0-.665.133-1.249.399-1.75.266-.5.64-.886 1.121-1.156.481-.27 1.035-.405 1.661-.405.61 0 1.151.133 1.62.4.47.265.832.631 1.087 1.097.254.466.381.992.381 1.579zm-1.103-.223c0-.407-.09-.757-.27-1.05a1.756 1.756 0 0 0-.734-.67 2.289 2.289 0 0 0-1.028-.229c-.54 0-1 .172-1.38.517-.379.344-.596.821-.65 1.432h4.062zM115.106 52.513a2.05 2.05 0 0 1 .804-.857c.348-.204.773-.306 1.274-.306v1.104h-.282c-1.197 0-1.796.65-1.796 1.949V57.9h-1.068v-6.433h1.068v1.045zM123.887 54.438c0 .204-.012.419-.036.646h-5.142c.04.634.256 1.129.652 1.485.395.356.874.534 1.438.534.462 0 .847-.108 1.156-.323a1.71 1.71 0 0 0 .652-.863h1.15a2.766 2.766 0 0 1-1.033 1.509c-.516.387-1.158.581-1.925.581-.61 0-1.156-.137-1.638-.41a2.909 2.909 0 0 1-1.133-1.169c-.274-.505-.41-1.09-.41-1.755 0-.665.132-1.249.398-1.75.267-.5.64-.886 1.122-1.156.481-.27 1.035-.405 1.661-.405.61 0 1.15.133 1.62.4.47.265.832.631 1.086 1.097.254.466.382.992.382 1.579zm-1.104-.223c0-.407-.09-.757-.27-1.05a1.756 1.756 0 0 0-.734-.67 2.289 2.289 0 0 0-1.027-.229c-.54 0-1 .172-1.38.517-.38.344-.596.821-.651 1.432h4.062zM124.763 54.661c0-.657.133-1.235.4-1.732a2.896 2.896 0 0 1 1.097-1.156c.466-.274.988-.411 1.567-.411.501 0 .967.115 1.397.346.43.231.76.535.986.91v-3.404h1.08V57.9h-1.08v-1.209a2.5 2.5 0 0 1-.939.945c-.415.247-.9.37-1.456.37-.57 0-1.09-.14-1.555-.423a2.95 2.95 0 0 1-1.098-1.185c-.266-.51-.4-1.088-.4-1.738zm5.447.012c0-.485-.097-.908-.293-1.268a2.073 2.073 0 0 0-.793-.828 2.159 2.159 0 0 0-1.097-.287c-.4 0-.763.093-1.092.281-.329.188-.591.462-.787.822-.195.36-.293.783-.293 1.268 0 .493.098.922.293 1.286.196.364.458.641.787.833.329.192.693.288 1.092.288.399 0 .765-.096 1.097-.288.333-.192.597-.47.793-.833.196-.364.293-.789.293-1.274zM137.035 52.665c.219-.383.54-.696.963-.939a2.848 2.848 0 0 1 1.444-.364c.579 0 1.1.137 1.561.411.462.274.826.66 1.092 1.156.266.497.4 1.075.4 1.732 0 .65-.134 1.229-.4 1.738a2.95 2.95 0 0 1-1.098 1.185 2.947 2.947 0 0 1-1.555.423c-.556 0-1.043-.121-1.462-.364a2.476 2.476 0 0 1-.945-.927V57.9h-1.069v-8.687h1.069v3.451zm4.367 1.996c0-.485-.098-.908-.293-1.268a2.032 2.032 0 0 0-.793-.822 2.194 2.194 0 0 0-1.097-.281 2.103 2.103 0 0 0-1.884 1.121c-.2.364-.3.784-.3 1.262 0 .485.1.91.3 1.274a2.103 2.103 0 0 0 1.884 1.12c.399 0 .765-.095 1.097-.287.333-.192.597-.47.793-.833.195-.364.293-.793.293-1.286zM149.217 51.468l-3.874 9.462h-1.104l1.268-3.099-2.594-6.363h1.185l2.02 5.212 1.995-5.212z"/>
        </g>
        <g fill="#F1EFE3">
            <path d="M9.606 17.61a8.538 8.538 0 0 0 17.077 0h4.269c0 7.958-6.451 14.41-14.409 14.41-7.957 0-14.408-6.452-14.408-14.41zM28.817 4.803a3.736 3.736 0 1 1 0 7.471 3.736 3.736 0 0 1 0-7.471zm-17.343 0a3.736 3.736 0 1 1 0 7.471 3.736 3.736 0 0 1 0-7.471zM41.625 32.02V4.802h5.337l-.001 7.873a8.272 8.272 0 0 1 13.342 6.536v12.807h-5.337V20.012a4.002 4.002 0 0 0-8-.2l-.004.2v12.007h-5.337zm31.886-4.403a5.852 5.852 0 0 0 4.165-1.734h5.821a10.81 10.81 0 0 1-9.986 6.67c-5.968 0-10.807-4.838-10.807-10.807 0-5.968 4.839-10.806 10.807-10.806s10.806 4.838 10.806 10.806c0 .778-.082 1.537-.238 2.268H68.095a5.872 5.872 0 0 0 5.416 3.603zm0-11.74a5.872 5.872 0 0 0-5.416 3.601h10.832a5.872 5.872 0 0 0-5.416-3.602zm66.707-4.937c5.968 0 10.806 4.838 10.806 10.806 0 5.969-4.838 10.807-10.806 10.807-5.969 0-10.807-4.838-10.807-10.807 0-5.968 4.838-10.806 10.807-10.806zm0 4.936a5.87 5.87 0 1 0 0 11.74 5.87 5.87 0 0 0 0-11.74zm23.213-4.936c5.969 0 10.807 4.838 10.807 10.806 0 5.969-4.838 10.807-10.807 10.807-5.968 0-10.806-4.838-10.806-10.807 0-5.968 4.838-10.806 10.806-10.806zm0 4.936a5.87 5.87 0 1 0 0 11.74 5.87 5.87 0 0 0 0-11.74zm33.754-11.073v27.216h-5.336v-1.46c-1.657 1.255-3.683 1.994-5.87 1.994-5.6 0-10.14-4.838-10.14-10.807 0-5.968 4.54-10.806 10.14-10.806 2.187 0 4.213.738 5.87 1.994V4.803h5.336zM186.78 15.876c-3.168 0-5.737 2.628-5.737 5.87s2.569 5.87 5.737 5.87 5.737-2.628 5.737-5.87-2.569-5.87-5.737-5.87zm-70.976-4.936c2.307 0 4.434.81 6.137 2.177v-1.643h5.336V27.75h-.002l.002.146c0 5.452-2.683 12.196-10.448 12.39l-.346.005c-5.235 0-8.714-2.135-10.437-6.406l-.115-.294h5.569c1.411 1.33 3.017 1.996 4.816 1.996 3.153.007 5.073-1.856 5.762-5.588-1.727 1.432-3.905 2.287-6.274 2.287-5.6 0-10.14-4.778-10.14-10.673 0-5.895 4.54-10.673 10.14-10.673zm.534 4.803a5.87 5.87 0 1 0 0 11.74 5.87 5.87 0 0 0 0-11.74zm-26.15-4.27 4.543 11.773 5.01-11.772h5.603L93.763 38.69H88.16l3.633-8.539-7.209-18.677h5.603zm114.47 0 4.542 11.773 5.01-11.772h5.603l-11.58 27.216h-5.604l3.634-8.539-7.21-18.677h5.604z"/>
        </g>
        <path d="M162.217 48.029c2.356 0 3.872 1.136 3.953 1.19.352.244.867.677.948.812v.027l.027.027c.27.27.487.514.677.73l.108.163-2.464 4.707 1.733 1.759-.19.216c-1.272 1.434-2.626 2.489-4.007 3.138-1.028.568-2.193.839-3.357.839-2.328 0-3.845-1.11-3.953-1.19l-.92-.812-.055-.054-.06-.063c-.13-.138-.438-.467-.59-.64l-.108-.163 2.437-4.707-1.814-1.813.19-.216c1.272-1.434 2.626-2.49 4.007-3.139 1.137-.54 2.301-.811 3.438-.811zm1.49 6.25s-1.057 2.19-3.006 3.895c-1.218 1.082-2.816 1.975-4.711 2.056h-.081c.132.1 5.114 3.782 10.965-2.732zm-7.176.243-2.193 4.193.163.2c.348.404.816.824 1.164 1.126 1.814-.325 3.032-.568 4.522-1.948-.786-.352-2.194-1.38-3.656-3.571zm9.501-5.034c-.13-.099-5.111-3.807-10.963 2.734l3.168 3.193c.071-.144 1.121-2.222 3.006-3.87 1.218-1.081 2.815-1.974 4.71-2.055h.082zm.382.272c-2.789 0-4.224 1.407-4.684 1.894.785.352 2.22 1.299 3.71 3.544l2.192-4.193-.17-.198a15.06 15.06 0 0 0-1.048-1.047z" fill="#F1EFE3" fill-rule="nonzero"/>
        <g fill="#F1EFE3" fill-rule="nonzero">
            <path d="M212.334 54.116c-.054.135-.135.298-.19.514-.107.379-.189.758-.216 1.11-.027.703.136 1.244.488 1.595.487.487 1.353.758 2.626.785 2.545.054 4.143-1.055 4.738-3.3.109-.38.163-.731.163-1.029.027-.622-.163-1.109-.488-1.46-.487-.515-1.353-.785-2.599-.785-1.137 0-2.139.243-2.897.65-.623.35-1.083.757-1.327 1.27h2.058c.108-.189.298-.378.542-.513a2.274 2.274 0 0 1 1.19-.352c.515 0 .894.135 1.138.379.217.216.325.54.325.974 0 .27-.054.595-.163.947-.243.865-.568 1.488-1.001 1.812-.325.27-.786.406-1.354.406-.515 0-.894-.108-1.11-.352-.19-.19-.271-.433-.271-.757 0-.135.081-.406.135-.622l.082-.244h.595l.271-1h-2.735v-.028zM168.797 58.039h1.814l1.76-6.412h-1.842zM190.972 51.627c-.758 0-1.408.298-2.004.866-.596.595-1.056 1.434-1.327 2.462-.054.216-.108.433-.135.595-.027.19-.054.379-.054.54-.027.65.135 1.164.46 1.489.352.352.894.46 1.625.46h1.3l.27-1.055c-.569 0-1.002-.136-1.245-.406-.217-.217-.298-.487-.298-.866 0-.108.027-.243.054-.379.027-.135.054-.27.081-.432.244-1.001.623-1.65 1.11-1.948.054-.027.081-.027.136-.027.08 0 .162.054.162.054l.542.46c.108.108.27.216.324.216.109 0 .271-.108.352-.135l1.3-.785-1.435 5.303h1.841l1.706-6.412h-2.112l-.84.541c-.026.027-.243.162-.351.162h-.027c-.027 0-.082 0-.136-.054l-.622-.46s-.163-.135-.38-.162c-.108-.027-.243-.027-.27-.027h-.027zM181.008 51.627l-1.002 3.652c-.135.433-.217.812-.217 1.19-.027.569.082.975.325 1.245.271.27.704.433 1.3.433 1.029 0 1.868-.379 2.572-1.11l.298-.297-.38 1.353h1.815c.108-.325.352-1.299.677-2.38l1.11-4.032h-1.841l-.948 3.274c-.108.297-.162.405-.19.46v.054c-.487.892-1.164 1.434-1.84 1.434-.298 0-.57-.082-.732-.271a.792.792 0 0 1-.19-.595 6.65 6.65 0 0 1 .163-.893l.948-3.436h-1.868v-.081zM207.921 50.437h5.334l.19-.785h-3.656l.325-1.19h-.541c-1.138.054-1.679.162-1.787.19l-.163.54h.65l-.352 1.245zM201.423 53.034h.135l-1.354 5.005h1.95l1.733-6.412h-3.276c-1.138 0-2.41.054-3.385.92-.596.514-.975 1.217-1.3 2.38a2.656 2.656 0 0 0-.135.596c-.027.216-.027.46-.054.595-.027.622.135 1.11.46 1.434.352.379.975.514 1.787.487h1.11l.325-1.082c-.65 0-1.137-.163-1.435-.487a.986.986 0 0 1-.298-.812c0-.108.028-.243.055-.379.027-.135.054-.27.08-.433.136-.514.515-1.46 1.436-1.758 0 0 .135-.054.244-.054h1.922zM196.089 50.437l.325-1.164-1.814-.108c-2.14.081-4.17.244-4.549.298l-.244.974h6.282zM176.378 56.66c-.054.107-.163.188-.27.188a.403.403 0 0 1-.245-.108v-.027c-.027-.027-.054-.081-.08-.135-.19-.406-1.165-2.949-1.355-3.517h-1.814l1.652 4.41c.027.054.162.54.731.54h2.924l1.733-6.411h-2.789l-.27.974h.92l-1.137 4.085zM180.006 50.437l.325-1.164-1.814-.108c-2.14.081-4.17.244-4.549.298l-.244.974h6.282zM211.306 52.195c-.434-.433-1.3-.65-2.654-.65-1.164 0-2.085.19-2.816.569-.65.325-1.056.785-1.272 1.353h2.084c.109-.298.325-.514.65-.704.298-.162.65-.216 1.056-.216.542 0 .92.108 1.11.325.136.135.19.297.19.486 0 .082 0 .163-.027.217l-.054.216c0 .027-.027.054-.054.163-.028.054-.028.108-.028.135v.054H206.784c-.406 0-.785.054-1.137.162-.352.109-.677.244-.92.433-.272.19-.488.406-.65.65-.163.243-.299.487-.353.757-.162.676-.054 1.163.325 1.515.352.298.84.406 2.329.406h.298l.297-1.001c0 .027-.406 0-.433 0-.135 0-.298-.027-.406-.108-.325-.163-.433-.514-.352-.866.054-.216.19-.379.406-.541.217-.135.488-.217.785-.217h2.194l-.732 2.733h1.923l1.218-4.572c.027-.081.027-.136.027-.19 0-.054.027-.135.027-.189.028-.406-.08-.703-.324-.92z"/>
        </g>
        <g fill="#F1EFE3" fill-rule="nonzero">
            <path d="M219.482 57.552c0 .027 0 .054-.027.081 0 .027-.027.027-.054.054s-.054.027-.081.027h-.163c-.027 0-.054-.027-.08-.027l-.055-.054c0-.027-.027-.054-.027-.081h.081v.054c0 .027.027.027.027.054.027 0 .027.027.054.027h.109c.027 0 .027 0 .054-.027.027 0 .027-.027.027-.027v-.108l-.027-.027c-.027 0-.027-.027-.054-.027s-.054 0-.081-.027c-.028 0-.055-.027-.082-.027-.027 0-.054-.027-.054-.027-.027 0-.027-.028-.027-.055s-.027-.054-.027-.08c0-.028 0-.055.027-.055 0-.027.027-.027.054-.054.027 0 .027-.027.054-.027h.162c.028 0 .055.027.055.027.027.027.027.027.027.054s0 .054.027.081h-.081v-.054c0-.027-.027-.027-.027-.027s-.027-.027-.054-.027h-.109c-.027 0-.027 0-.054.027l-.027.027v.108s0 .027.027.027c0 0 .027 0 .054.028.027 0 .027 0 .055.027h.054c.027 0 .027 0 .054.027.027 0 .027 0 .054.027.027 0 .027.027.027.027s.027.027.027.054c.081-.054.081-.027.081 0zM220.051 57.2l-.162.487h-.055l-.19-.487v.487h-.08v-.568h.108l.19.487.162-.487h.108v.568h-.081z"/>
        </g>
    </g>
</svg>
