<svg width="32" height="32" viewBox="0 0 32 32" xmlns="http://www.w3.org/2000/svg">
    <g fill="none" fill-rule="evenodd">
        <circle cx="16" cy="16" r="16" fill="#36B38A"/>
        <g transform="translate(7.75 7)">
            <rect fill="#FFF" width="13.75" height="15.583" rx="1.833"/>
            <g transform="translate(2.75 2.75)" fill="#36B38A">
                <rect width="6.417" height="1.375" rx=".688"/>
                <rect y="2.75" width="6.417" height="1.375" rx=".688"/>
                <rect y="5.5" width="3.667" height="1.375" rx=".688"/>
            </g>
        </g>
        <path d="M26.073 17.318v-.009a11.716 11.716 0 0 1-.01-.341 1.155 1.155 0 0 0-1.075-1.143c-1.237-.07-2.195-.483-3.013-1.297l-.007-.007a.678.678 0 0 0-.936 0l-.007.007c-.818.814-1.776 1.227-3.013 1.298a1.155 1.155 0 0 0-1.074 1.142c-.002.123-.005.235-.01.341v.02c-.025 1.29-.055 2.895.47 4.352a5.554 5.554 0 0 0 1.301 2.07c.654.652 1.51 1.17 2.545 1.538a.774.774 0 0 0 .512 0c1.034-.37 1.89-.887 2.543-1.54a5.562 5.562 0 0 0 1.3-2.07c.527-1.461.498-3.069.474-4.361z" fill="#FFF"/>
        <g transform="translate(18.842 17.267)" fill="#36B38A">
            <rect transform="rotate(45 1.458 3.023)" x=".083" y="2.336" width="2.75" height="1.375" rx=".688"/>
            <rect transform="rotate(-45 3.298 2.107)" x="1.007" y="1.419" width="4.583" height="1.375" rx=".688"/>
        </g>
        <path d="M20.502 13.99c-.692.689-1.475 1.026-2.533 1.087a1.905 1.905 0 0 0-1.781 1.88l-.004.165-.006.189-.009.691c-.009 1.748.104 2.767.524 3.933a6.304 6.304 0 0 0 1.477 2.347c.736.734 1.688 1.309 2.823 1.713a1.523 1.523 0 0 0 1.016 0c1.133-.405 2.084-.98 2.82-1.714a6.312 6.312 0 0 0 1.475-2.347c.396-1.097.52-2.063.527-3.625l-.003-.658a59.062 59.062 0 0 0-.006-.356l-.01-.339a1.905 1.905 0 0 0-1.78-1.88c-1.06-.06-1.843-.398-2.535-1.087a1.434 1.434 0 0 0-1.863-.113l-.132.114zm.86 1.252.138-.132-.045-.042c.94.937 2.072 1.425 3.49 1.506a.405.405 0 0 1 .368.404l.006.25c0 .039.002.077.004.115l.008.664c.007 1.566-.091 2.459-.437 3.418-.253.698-.63 1.3-1.125 1.794-.508.506-1.165.926-1.961 1.248l-.312.115c-.935-.333-1.696-.793-2.267-1.362a4.805 4.805 0 0 1-1.125-1.794c-.321-.891-.428-1.726-.435-3.11l.003-.63.006-.358.007-.223.003-.126a.405.405 0 0 1 .367-.405c1.323-.075 2.396-.505 3.307-1.332z" fill="#36B38A" fill-rule="nonzero"/>
    </g>
</svg>
