<svg width="147" height="17" viewBox="0 0 147 17" xmlns="http://www.w3.org/2000/svg">
    <g fill-rule="nonzero" fill="none">
        <g fill="#707070">
            <path d="M6.592 6.084c0 .696-.238 1.274-.714 1.734-.476.46-1.202.69-2.178.69H2.092V12H1V3.636h2.7c.944 0 1.662.228 2.154.684.492.456.738 1.044.738 1.764zM3.7 7.608c.608 0 1.056-.132 1.344-.396.288-.264.432-.64.432-1.128 0-1.032-.592-1.548-1.776-1.548H2.092v3.072H3.7zM10.432 12.108c-.616 0-1.174-.14-1.674-.42a2.99 2.99 0 0 1-1.176-1.194c-.284-.516-.426-1.114-.426-1.794 0-.672.146-1.266.438-1.782.292-.516.69-.912 1.194-1.188a3.464 3.464 0 0 1 1.692-.414c.624 0 1.188.138 1.692.414.504.276.902.67 1.194 1.182.292.512.438 1.108.438 1.788 0 .68-.15 1.278-.45 1.794-.3.516-.706.914-1.218 1.194-.512.28-1.08.42-1.704.42zm0-.96c.392 0 .76-.092 1.104-.276a2.1 2.1 0 0 0 .834-.828c.212-.368.318-.816.318-1.344 0-.528-.104-.976-.312-1.344a2.043 2.043 0 0 0-.816-.822c-.336-.18-.7-.27-1.092-.27-.4 0-.766.09-1.098.27a1.98 1.98 0 0 0-.798.822c-.2.368-.3.816-.3 1.344 0 .536.098.988.294 1.356.196.368.458.642.786.822.328.18.688.27 1.08.27zM23.804 5.424 21.752 12h-1.128L19.04 6.78 17.456 12h-1.128l-2.064-6.576h1.116l1.512 5.52 1.632-5.52h1.116l1.596 5.532 1.488-5.532zM30.684 8.46c0 .208-.012.428-.036.66h-5.256c.04.648.262 1.154.666 1.518.404.364.894.546 1.47.546.472 0 .866-.11 1.182-.33.316-.22.538-.514.666-.882h1.176a2.827 2.827 0 0 1-1.056 1.542c-.528.396-1.184.594-1.968.594-.624 0-1.182-.14-1.674-.42a2.973 2.973 0 0 1-1.158-1.194c-.28-.516-.42-1.114-.42-1.794 0-.68.136-1.276.408-1.788A2.864 2.864 0 0 1 25.83 5.73c.492-.276 1.058-.414 1.698-.414.624 0 1.176.136 1.656.408.48.272.85.646 1.11 1.122.26.476.39 1.014.39 1.614zm-1.128-.228c0-.416-.092-.774-.276-1.074a1.795 1.795 0 0 0-.75-.684 2.34 2.34 0 0 0-1.05-.234c-.552 0-1.022.176-1.41.528-.388.352-.61.84-.666 1.464h4.152zM33.016 6.492c.192-.376.466-.668.822-.876.356-.208.79-.312 1.302-.312v1.128h-.288c-1.224 0-1.836.664-1.836 1.992V12h-1.092V5.424h1.092v1.068zM42.2 8.46c0 .208-.012.428-.036.66h-5.256c.04.648.262 1.154.666 1.518.404.364.894.546 1.47.546.472 0 .866-.11 1.182-.33.316-.22.538-.514.666-.882h1.176a2.827 2.827 0 0 1-1.056 1.542c-.528.396-1.184.594-1.968.594-.624 0-1.182-.14-1.674-.42a2.973 2.973 0 0 1-1.158-1.194c-.28-.516-.42-1.114-.42-1.794 0-.68.136-1.276.408-1.788a2.864 2.864 0 0 1 1.146-1.182c.492-.276 1.058-.414 1.698-.414.624 0 1.176.136 1.656.408.48.272.85.646 1.11 1.122.26.476.39 1.014.39 1.614zm-1.128-.228c0-.416-.092-.774-.276-1.074a1.795 1.795 0 0 0-.75-.684 2.34 2.34 0 0 0-1.05-.234c-.552 0-1.022.176-1.41.528-.388.352-.61.84-.666 1.464h4.152zM43.032 8.688c0-.672.136-1.262.408-1.77a2.96 2.96 0 0 1 1.122-1.182 3.1 3.1 0 0 1 1.602-.42c.512 0 .988.118 1.428.354.44.236.776.546 1.008.93V3.12h1.104V12H48.6v-1.236a2.555 2.555 0 0 1-.96.966c-.424.252-.92.378-1.488.378a3.012 3.012 0 0 1-1.59-.432 3.016 3.016 0 0 1-1.122-1.212c-.272-.52-.408-1.112-.408-1.776zM48.6 8.7c0-.496-.1-.928-.3-1.296-.2-.368-.47-.65-.81-.846a2.207 2.207 0 0 0-1.122-.294c-.408 0-.78.096-1.116.288a2.09 2.09 0 0 0-.804.84c-.2.368-.3.8-.3 1.296 0 .504.1.942.3 1.314.2.372.468.656.804.852.336.196.708.294 1.116.294.408 0 .782-.098 1.122-.294.34-.196.61-.48.81-.852.2-.372.3-.806.3-1.302zM55.448 6.648c.224-.392.552-.712.984-.96a2.911 2.911 0 0 1 1.476-.372c.592 0 1.124.14 1.596.42.472.28.844.674 1.116 1.182.272.508.408 1.098.408 1.77 0 .664-.136 1.256-.408 1.776-.272.52-.646.924-1.122 1.212a3.012 3.012 0 0 1-1.59.432c-.568 0-1.066-.124-1.494-.372a2.53 2.53 0 0 1-.966-.948V12h-1.092V3.12h1.092v3.528zm4.464 2.04c0-.496-.1-.928-.3-1.296-.2-.368-.47-.648-.81-.84a2.242 2.242 0 0 0-1.122-.288 2.15 2.15 0 0 0-1.926 1.146c-.204.372-.306.802-.306 1.29 0 .496.102.93.306 1.302a2.15 2.15 0 0 0 1.926 1.146c.408 0 .782-.098 1.122-.294.34-.196.61-.48.81-.852.2-.372.3-.81.3-1.314zM67.932 5.424l-3.96 9.672h-1.128l1.296-3.168-2.652-6.504H62.7l2.064 5.328 2.04-5.328z"/>
        </g>
        <path d="M78.258 16c-2.603 0-4.3-1.223-4.42-1.312l-1.03-.895-.03-.03-.03-.03c-.03-.03-.515-.536-.727-.775l-.121-.179 2.725-5.189-2.029-1.998.212-.238c1.423-1.58 2.937-2.744 4.482-3.46C78.56 1.299 79.863 1 81.135 1c2.634 0 4.33 1.252 4.42 1.312.394.269.97.746 1.06.895v.03l.03.03c.303.298.546.566.757.805l.122.178-2.756 5.19 1.938 1.938-.212.238c-1.423 1.58-2.937 2.744-4.481 3.46-1.15.626-2.453.924-3.755.924z" fill="#FFF"/>
        <path d="m82.8 7.859 3.543 3.549c-6.551 7.188-12.127 3.113-12.26 3.013l-.003-.002h.09c2.12-.089 3.907-1.073 5.27-2.266 1.975-1.703 3.13-3.846 3.33-4.233l.027-.054.003-.007zm-8.024.298c1.635 2.416 3.21 3.549 4.088 3.936-1.665 1.521-3.028 1.79-5.056 2.148-.39-.333-.913-.796-1.302-1.241l-.182-.22 2.452-4.623zm67.46-3.28c1.393 0 2.362.298 2.907.865.363.387.575.924.545 1.61 0 .328-.06.716-.182 1.133-.666 2.475-2.452 3.698-5.298 3.638-1.423-.03-2.392-.328-2.937-.865-.394-.387-.576-.984-.545-1.759.03-.388.12-.805.242-1.223a2.85 2.85 0 0 1 .162-.448l.05-.118v.03h3.058l-.303 1.103h-.666l-.09.268c-.061.239-.152.537-.152.686 0 .358.09.626.303.835.242.269.666.388 1.241.388.636 0 1.15-.15 1.514-.447.484-.358.848-1.044 1.12-1.998.121-.388.182-.746.182-1.044 0-.477-.121-.835-.363-1.074-.273-.268-.697-.417-1.272-.417-.485 0-.939.149-1.332.387-.227.125-.412.29-.538.463l-.068.104h-2.301c.272-.567.787-1.014 1.484-1.402.847-.447 1.968-.715 3.24-.715zm-40.09.09.002.059h2.09l-1.06 3.787c-.061.239-.152.656-.182.984-.03.239.06.477.212.656.181.209.484.298.817.298.707 0 1.413-.52 1.947-1.388l.112-.192v-.06c.027-.052.076-.15.17-.393l.042-.114 1.06-3.608h2.059l-1.242 4.443c-.339 1.114-.599 2.123-.73 2.544l-.027.08h-2.028l.424-1.49-.333.328c-.788.805-1.726 1.222-2.877 1.222-.666 0-1.15-.179-1.453-.477-.273-.298-.394-.745-.364-1.372 0-.348.064-.695.172-1.078l.07-.234 1.12-3.995zm30.916-.09c1.514 0 2.483.238 2.967.715.273.239.394.567.364 1.014 0 .06-.03.15-.03.21 0 .039 0 .079-.01.127l-.02.08-1.363 5.04h-2.15l.817-3.011h-2.452c-.333 0-.636.09-.878.238-.243.18-.394.358-.454.597-.091.387.03.775.393.954.121.09.303.12.454.12.03 0 .485.03.485 0l-.288.953-.04.131-.005.019h-.333c-1.666 0-2.21-.12-2.604-.448-.424-.387-.545-.924-.364-1.67.06-.298.212-.566.394-.835.182-.268.424-.507.727-.715.272-.21.636-.358 1.03-.478.314-.095.648-.152 1.002-.171l.269-.007H134v-.06c0-.03 0-.09.03-.15.024-.095.048-.133.057-.16l.003-.018.061-.239c.03-.06.03-.149.03-.238a.713.713 0 0 0-.212-.537c-.212-.239-.635-.358-1.241-.358-.454 0-.848.06-1.18.239-.312.179-.535.38-.668.64l-.06.135h-2.331c.242-.626.696-1.103 1.423-1.491.818-.418 1.847-.626 3.149-.626zm-5.329.09-1.938 7.067h-2.18l1.514-5.517h-2.301a.906.906 0 0 0-.273.06c-1.029.328-1.453 1.371-1.604 1.938-.03.179-.06.328-.091.477-.03.15-.06.298-.06.418-.03.357.09.656.332.894.3.322.772.5 1.393.532l.212.005-.363 1.193h-1.242c-.908.03-1.604-.12-1.998-.537-.363-.358-.545-.895-.515-1.58.03-.15.03-.418.06-.657.031-.208.061-.417.152-.656.364-1.282.787-2.057 1.454-2.624 1.026-.898 2.346-1.004 3.559-1.013H127.733zm-14.38 0c.057 0 .174.005.27.029.182.022.33.112.392.155l.032.024.697.507c.045.045.09.056.123.059H114.925c.104 0 .297-.109.369-.16l.025-.018.939-.597h2.361l-1.907 7.068h-2.06l1.606-5.845-1.454.865c-.09.03-.272.149-.393.149-.05 0-.185-.083-.299-.18l-.065-.059-.605-.507s-.091-.06-.182-.06c-.06 0-.09 0-.151.03-.545.328-.97 1.044-1.242 2.148-.03.178-.06.328-.09.477-.03.149-.061.298-.061.417 0 .418.09.716.333.954.242.266.652.413 1.186.442l.207.006-.303 1.163h-1.453c-.818 0-1.423-.12-1.817-.507-.363-.358-.545-.925-.515-1.64 0-.18.03-.388.06-.597.031-.179.092-.417.152-.656.303-1.133.818-2.057 1.484-2.714.61-.574 1.272-.897 2.03-.947l.21-.007h.062zm-20.864 0-1.968 7.067h-2.029l1.938-7.068h2.06zm52.472 6.053c.03 0 .06.045.06.045.031.046.031.046.031.091 0 .046 0 .091.03.137h-.09v-.091c0-.046-.03-.046-.03-.046s-.03-.045-.061-.045h-.121c-.03 0-.03 0-.06.045l-.031.046v.182s0 .045.03.045c0 0 .03 0 .06.045.031 0 .031 0 .061.046h.06c.031 0 .031 0 .061.045.03 0 .03 0 .06.046.031 0 .031.045.031.045s.03.046.03.091c.091-.09.091-.045.091 0 0 .046 0 .091-.03.137 0 .045-.03.045-.06.09-.03.046-.061.046-.091.046h-.182c-.03 0-.06-.046-.09-.046l-.061-.09-.03-.137h.09v.091c0 .046.03.046.03.091.03 0 .03.045.061.045h.121c.03 0 .03 0 .06-.045.03 0 .03-.045.03-.045v-.182l-.03-.046c-.03 0-.03-.045-.06-.045s-.06 0-.09-.046c-.031 0-.061-.045-.092-.045-.03 0-.06-.046-.06-.046-.03 0-.03-.045-.03-.09l-.03-.137c0-.045 0-.09.03-.09 0-.046.03-.046.06-.092.03 0 .03-.045.06-.045h.182zm-44.327-6.084-1.938 7.068h-3.27c-.587 0-.76-.457-.808-.575l-.01-.021-1.846-4.861h2.028c.091.268.343.936.618 1.648l.186.476c.31.792.61 1.54.71 1.752l.046.075.045.075v.03c.06.059.182.119.273.119a.345.345 0 0 0 .26-.142l.042-.067 1.272-4.503h-1.03l.303-1.074h3.119zm44.751 6.084.212.818.182-.818h.121v.954h-.09l-.001-.817-.182.817h-.06l-.212-.817v.817h-.09v-.954h.12zM85.402 2.579l.002.002h-.09c-2.12.089-3.907 1.073-5.27 2.266-2.111 1.82-3.285 4.116-3.357 4.257l-.003.007-3.543-3.519c6.551-7.188 12.127-3.113 12.26-3.013zm.426.33c.318.287.798.733 1.197 1.18l.166.191-2.453 4.623c-1.665-2.476-3.27-3.52-4.148-3.907.515-.537 2.12-2.087 5.238-2.087zm48.87-1.462-.364 1.312h4.087l-.212.865h-5.964l.393-1.372h-.727l.182-.596c.114-.028.653-.134 1.768-.197l.23-.012h.606zm-17.35.776 2.028.119-.363 1.282h-7.025l.273-1.073c.424-.06 2.695-.239 5.087-.328zm-17.986 0 2.029.119-.363 1.282h-7.025l.273-1.073c.424-.06 2.694-.239 5.086-.328z" fill="#707070"/>
    </g>
</svg>
