<svg width="40" height="40" viewBox="0 0 40 40" xmlns="http://www.w3.org/2000/svg">
    <g transform="translate(2 2)" fill-rule="nonzero" fill="none">
        <circle fill="#4CC764" cx="18" cy="18" r="18"/>
        <path d="M30.004 16.954c0-5.378-5.389-9.754-12.015-9.754-6.627 0-12.015 4.376-12.015 9.754 0 4.815 4.275 8.854 10.046 9.618.394.09.922.26 1.058.597.123.303.078.776.033 1.091 0 0-.146.844-.169 1.024-.056.303-.236 1.192 1.047.652 1.282-.54 6.918-4.072 9.438-6.975 1.744-1.923 2.577-3.858 2.577-6.007z" fill="#FFF"/>
        <g fill="#4CC764">
            <path d="M26.01 20.059a.226.226 0 0 0 .225-.225v-.855a.226.226 0 0 0-.225-.225h-2.295v-.889h2.295a.226.226 0 0 0 .225-.225v-.855a.226.226 0 0 0-.225-.225h-2.295v-.889h2.295a.226.226 0 0 0 .225-.225v-.855a.226.226 0 0 0-.225-.225h-3.375a.226.226 0 0 0-.225.225v5.232c0 .123.101.224.225.224h3.375v.012zM13.522 20.059a.226.226 0 0 0 .225-.225v-.855a.226.226 0 0 0-.225-.225h-2.295V14.59a.226.226 0 0 0-.225-.225h-.855a.226.226 0 0 0-.225.225v5.243c0 .123.102.225.225.225h3.375zM15.547 14.355h-.855a.226.226 0 0 0-.225.225v5.243c0 .123.102.224.225.224h.855a.226.226 0 0 0 .225-.224V14.58c.012-.124-.09-.225-.225-.225zM21.352 14.355h-.855a.226.226 0 0 0-.224.225v3.116l-2.397-3.24c0-.011-.011-.011-.022-.022l-.011-.011-.012-.012h-.011l-.011-.011h-.012s-.01 0-.01-.011h-.012s-.011 0-.011-.011H16.83a.226.226 0 0 0-.225.225v5.242c0 .124.101.225.225.225h.855a.226.226 0 0 0 .225-.225v-3.116l2.407 3.24a.136.136 0 0 0 .057.056l.011.011H20.441c.023 0 .034.011.056.011h.844a.226.226 0 0 0 .225-.224V14.58a.21.21 0 0 0-.213-.225z"/>
        </g>
    </g>
</svg>
