<svg width="132" height="36" viewBox="0 0 132 36" xmlns="http://www.w3.org/2000/svg">
    <g fill="none" fill-rule="evenodd">
        <path d="M5.428 15.579a5.053 5.053 0 0 0 5.052 5.053h.015a5.053 5.053 0 0 0 5.053-5.053h2.53a8.526 8.526 0 0 1-8.527 8.526h-.025A8.526 8.526 0 0 1 1 15.58z" fill="#1DA578"/>
        <path d="M16.81 8h.006a2.21 2.21 0 0 1 0 4.421h-.007a2.21 2.21 0 1 1 0-4.421zM6.53 8h.007a2.21 2.21 0 0 1 0 4.421H6.53a2.21 2.21 0 1 1 0-4.421zM24.403 24.105V8h3.162v4.66a4.902 4.902 0 0 1 7.907 3.873v7.572h-3.163v-7.102a2.372 2.372 0 0 0-4.738-.162l-.006.162v7.102h-3.162zM43.299 21.5a3.47 3.47 0 0 0 2.469-1.026h3.449a6.406 6.406 0 0 1-5.918 3.947 6.4 6.4 0 0 1-6.404-6.395 6.4 6.4 0 0 1 6.404-6.394 6.4 6.4 0 0 1 6.263 7.736h-9.473A3.48 3.48 0 0 0 43.3 21.5zm0-6.947a3.48 3.48 0 0 0-3.21 2.13h6.42a3.48 3.48 0 0 0-3.21-2.13zm39.532-2.921a6.4 6.4 0 0 1 6.404 6.394 6.4 6.4 0 0 1-6.404 6.395 6.4 6.4 0 0 1-6.404-6.395 6.4 6.4 0 0 1 6.404-6.394zm0 2.92a3.476 3.476 0 0 0-3.48 3.474 3.476 3.476 0 0 0 3.48 3.474 3.476 3.476 0 0 0 3.479-3.474 3.476 3.476 0 0 0-3.48-3.473zm13.757-2.92a6.4 6.4 0 0 1 6.404 6.394 6.4 6.4 0 0 1-6.404 6.395 6.4 6.4 0 0 1-6.404-6.395 6.4 6.4 0 0 1 6.404-6.394zm0 2.92a3.476 3.476 0 0 0-3.479 3.474 3.476 3.476 0 0 0 3.479 3.474 3.476 3.476 0 0 0 3.479-3.474 3.476 3.476 0 0 0-3.48-3.473zM116.59 8v16.105h-3.163v-.864a5.74 5.74 0 0 1-3.479 1.18c-3.318 0-6.008-2.863-6.008-6.395 0-3.531 2.69-6.394 6.008-6.394a5.74 5.74 0 0 1 3.48 1.18V8h3.162zm-6.167 6.553c-1.878 0-3.4 1.555-3.4 3.473 0 1.919 1.522 3.474 3.4 3.474 1.877 0 3.4-1.555 3.4-3.474 0-1.918-1.523-3.473-3.4-3.473zm-42.062-2.921c1.367 0 2.627.48 3.637 1.288v-.973h3.163v9.632h-.002l.002.086c0 3.21-1.574 7.176-6.12 7.33l-.277.005c-3.07 0-5.122-1.238-6.154-3.713l-.1-.252h3.3c.837.788 1.788 1.181 2.855 1.181 1.86.004 2.997-1.089 3.41-3.28l.002-.025-.208.164a5.788 5.788 0 0 1-3.508 1.188c-3.318 0-6.009-2.828-6.009-6.316s2.69-6.315 6.01-6.315zm.316 2.842a3.476 3.476 0 0 0-3.478 3.473 3.476 3.476 0 0 0 3.478 3.474 3.476 3.476 0 0 0 3.48-3.474 3.476 3.476 0 0 0-3.48-3.473zm-15.496-2.527 2.692 6.966 2.969-6.966h3.32l-6.862 16.106h-3.32L54.132 23l-4.272-11.053h3.32zm67.836 0 2.693 6.966 2.968-6.966H130l-6.863 16.106h-3.32L121.97 23l-4.272-11.053h3.32z" fill="#2A2D2D"/>
    </g>
</svg>
