<svg width="24" height="24" viewBox="0 0 24 24" xmlns="http://www.w3.org/2000/svg">
    <g fill="none" fill-rule="evenodd">
        <circle fill="#FFF" cx="12" cy="12" r="12"/>
        <path d="M17.49 7c.65 0 1.177.517 1.177 1.154 0 .35-.159.662-.409.874l-7.735 7.588-.036.038-.043.04-.009.009a1.185 1.185 0 0 1-.788.297c-.352 0-.668-.152-.884-.392l-3.09-3.03-.037-.036a1.137 1.137 0 0 1-.303-.773c0-.637.527-1.154 1.177-1.154.26 0 .5.083.695.223l.09.073 2.35 2.305 6.96-6.823c.19-.211.456-.354.757-.386L17.49 7z" fill="#1DA578"/>
    </g>
</svg>
