<?xml version="1.0" encoding="UTF-8"?>
<svg width="24px" height="24px" viewBox="0 0 24 24" version="1.1" xmlns="http://www.w3.org/2000/svg" xmlns:xlink="http://www.w3.org/1999/xlink">
    <title>9BC9BCA7-8592-4862-99FC-072514DEAE12</title>
    <g id="Member-/-Login-/-Submenu" stroke="none" stroke-width="1" fill="none" fill-rule="evenodd">
        <g id="member_myins_detail_ntlinstallment-_default_pc" transform="translate(-1092.000000, -832.000000)" fill="#3E3E3E">
            <g id="Group-5" transform="translate(630.000000, 251.000000)">
                <g id="icon/24/grey/down-small" transform="translate(462.000000, 581.000000)">
                    <path d="M14.5,6 C15.0522847,6 15.5,6.44771525 15.5,7 C15.5,7.25305033 15.4060083,7.48414772 15.2510322,7.66028485 L15.2504272,7.66084798 L15.2403306,7.67225365 C15.2187386,7.69601807 15.1960181,7.7187386 15.1722537,7.74033059 L10.911,12.002 L15.1985438,16.284432 C15.3845337,16.4660243 15.5,16.7195279 15.5,17 C15.5,17.5522847 15.0522847,18 14.5,18 C14.2151981,18 13.9582039,17.8809412 13.7760737,17.6898799 L8.80145623,12.715568 C8.79571383,12.7099613 8.79003866,12.7042862 8.78443204,12.6985438 L8.74865723,12.6629944 C8.59434944,12.4850263 8.5,12.2535314 8.5,12 C8.5,11.7803048 8.57084623,11.5771567 8.69093883,11.4121555 L8.76849365,11.3173014 L8.78443204,11.3014562 C8.79003866,11.2957138 8.79571383,11.2900387 8.80145623,11.284432 L13.8214111,6.26385498 C14.0009374,6.10016541 14.2387712,6 14.5,6 Z" id="Combined-Shape-Copy" transform="translate(12.000000, 12.000000) rotate(-90.000000) translate(-12.000000, -12.000000) "></path>
                </g>
            </g>
        </g>
    </g>
</svg>