<svg width="24" height="24" viewBox="0 0 24 24" xmlns="http://www.w3.org/2000/svg">
    <path d="M4.748 4.01c.586-.515 1.017-.384 1.421.18l2.903 4.048c.289.406.211.965-.154 1.247L7.465 10.61l-.273.129c-.285.785-.033 2.07 2.54 4.698 2.504 2.558 3.85 1.87 3.99 1.786a.699.699 0 0 1 .117-.302l1.052-1.524a.874.874 0 0 1 1.213-.199l4.05 2.835c.567.395.708.833.225 1.447-.34.435-1.213 1.2-1.72 1.506a1.175 1.175 0 0 1-.752.19c-.652.346-5.126 1.424-10.543-3.937C2.027 11.957 3.016 7.217 3.172 6.602a1.24 1.24 0 0 1 .159-.785C3.616 5.29 4.335 4.37 4.748 4.01zm13.984.557c1.674 1.597 2.428 3.989 2.24 7.114a.877.877 0 0 1-.869.832h-.054c-.48 0-.844-.45-.815-.941.154-2.569-.413-4.487-1.69-5.706-2.054-1.961-5.302-1.55-5.338-1.548a.874.874 0 0 1-.975-.766.888.888 0 0 1 .75-1c.164-.02 4.102-.515 6.751 2.015zM16.21 7.596c.719.784.987 1.857.799 3.19a.88.88 0 0 1-.862.764l-.125-.01a.884.884 0 0 1-.736-1.007c.107-.77-.007-1.346-.341-1.715-.536-.59-1.6-.66-1.966-.627a.887.887 0 0 1-.93-.824.884.884 0 0 1 .8-.952c.218-.01 2.16-.132 3.361 1.181z" fill="#FFF" fill-rule="evenodd"/>
</svg>
