<svg width="64" height="64" viewBox="0 0 64 64" xmlns="http://www.w3.org/2000/svg">
    <g fill="none" fill-rule="evenodd">
        <circle fill="#888" fill-rule="nonzero" cx="32" cy="32" r="32"/>
        <g transform="translate(16.5 17.833)" fill="#FFF">
            <path d="m3.515 1.562 10 4.445A2.5 2.5 0 0 1 15 8.29v20.362a2.5 2.5 0 0 1-3.515 2.285l-10-4.445A2.5 2.5 0 0 1 0 24.21V3.847a2.5 2.5 0 0 1 3.515-2.285z"/>
            <rect x="17.667" y="12.337" width="14" height="3" rx="1.5"/>
            <rect transform="rotate(-45 30.596 11.348)" x="29.096" y="6.348" width="3" height="10" rx="1.5"/>
            <rect transform="rotate(-135 30.596 16.318)" x="29.096" y="11.318" width="3" height="10" rx="1.5"/>
            <path d="M18.688.833C21.069.833 23 2.773 23 5.167v3.666h-3V5.262c0-.733-.547-1.337-1.251-1.42l-.166-.009H4.417c-.727 0-1.326.552-1.407 1.262L3 5.262v17.143c0 .732.547 1.336 1.251 1.419l.166.01h14.166c.727 0 1.326-.552 1.407-1.263l.01-.166v-3.572h3V22.5c0 2.393-1.93 4.333-4.313 4.333H4.313C1.932 26.833 0 24.893 0 22.5V5.167C0 2.773 1.93.833 4.313.833h14.375z"/>
        </g>
    </g>
</svg>
