<svg width="144" height="144" viewBox="0 0 144 144" xmlns="http://www.w3.org/2000/svg">
    <g fill="none" fill-rule="evenodd">
        <path d="M35.453 36.9c14.83-14.966 10.581-24.342 20.729-31.274 15.612-10.657 44.746-1.49 61.93 13.172 21.053 17.962 31.912 50.748 19.543 80.415-13.174 31.591-47.842 47.992-78.78 43.048C31.251 137.844 4.09 116.01 1.373 89.83 1.08 86.988-.22 71.649 8.905 58.416c7.546-10.922 14.799-9.656 26.548-21.517z" fill="#E1F4EE"/>
        <path d="M36.5 143.623h63.841c2.748 0 4.698-2.228 4.35-4.983L88.971 14.114c-.349-2.748-2.856-4.984-5.612-4.984l-60.637-.714c-6.958 0-7.902 2.942-7.554 5.69l15.72 124.534c.349 2.755 2.864 4.983 5.612 4.983z" fill="#88D4B9"/>
        <path d="M40.339 143.623h63.841c2.748 0 4.699-2.235 4.35-4.999L92.818 13.702c-.349-2.755-2.856-4.999-5.612-4.999H23.365c-2.748 0-4.699 2.236-4.35 5l15.72 124.93c.348 2.755 2.856 4.99 5.604 4.99z" fill="#FFF" fill-rule="nonzero"/>
        <path d="M33.001 32.253a2.76 2.76 0 0 1-2.755-2.763A2.76 2.76 0 0 1 33 26.727a2.76 2.76 0 0 1 2.756 2.763A2.756 2.756 0 0 1 33 32.253zm0-5.014a2.25 2.25 0 0 0-2.244 2.251A2.25 2.25 0 0 0 33 31.741a2.25 2.25 0 0 0 2.245-2.25 2.25 2.25 0 0 0-2.245-2.252z" fill="#FFF" fill-rule="nonzero"/>
        <path d="M104.9 138.803 89.892 19.516c-.078-.637-.658-1.157-1.293-1.157H24.41c-.634 0-1.083.52-1.006 1.157l15.009 119.287c.077.636.658 1.156 1.292 1.156h64.19c.635-.007 1.084-.52 1.006-1.156z" fill="#B6E4D4"/>
        <g transform="translate(98.89 5.675)">
            <circle fill="#FFF" cx="13.091" cy="13.091" r="13.091"/>
            <path d="M20.312 14.833 18.9 13.69a5.95 5.95 0 0 0 .034-.6 5.77 5.77 0 0 0-.034-.6l1.414-1.143a.733.733 0 0 0 .167-.913l-1.469-2.629a.67.67 0 0 0-.85-.315l-1.666.692a5.67 5.67 0 0 0-1-.601l-.254-1.829a.688.688 0 0 0-.678-.61h-2.945a.686.686 0 0 0-.677.605l-.254 1.835a5.845 5.845 0 0 0-.999.601l-1.67-.694a.683.683 0 0 0-.844.31l-1.47 2.633a.729.729 0 0 0 .166.917l1.412 1.143a5.963 5.963 0 0 0-.033.599c0 .182.011.376.033.6L5.87 14.834a.733.733 0 0 0-.167.913l1.469 2.629a.67.67 0 0 0 .85.316L9.687 18c.319.237.653.439 1 .6l.253 1.828c.042.349.333.611.679.611h2.944a.687.687 0 0 0 .678-.604l.255-1.835c.335-.157.664-.355.998-.601l1.671.694a.668.668 0 0 0 .843-.31l1.475-2.643a.732.732 0 0 0-.172-.907zm-7.22.907c-1.413 0-2.561-1.188-2.561-2.65 0-1.46 1.148-2.648 2.56-2.648 1.413 0 2.561 1.188 2.561 2.649s-1.148 2.65-2.56 2.65z" fill="#19976C"/>
        </g>
        <g transform="translate(4.88 21.571)">
            <circle fill="#FFF" cx="17.766" cy="17.766" r="17.766"/>
            <path d="M15.745 6.613c1.14-1.088 2.903-1.088 4.066.023l.229.224c1.155 1.09 2.47 1.628 4.23 1.73l.19.017c1.891.207 3.34 1.837 3.367 3.775 0 .073.002.143.004.211l.013.39.008.482.009.825v.771c-.003.374-.01.729-.02 1.07l-.027.66c-.098 1.929-.366 3.383-.935 4.99-.612 1.726-1.546 3.24-2.774 4.49-1.384 1.406-3.168 2.506-5.293 3.28a3.09 3.09 0 0 1-1.046.184 3.054 3.054 0 0 1-1.043-.184c-2.127-.772-3.914-1.872-5.298-3.278-1.23-1.249-2.164-2.763-2.775-4.49-.6-1.691-.863-3.214-.947-5.306l-.02-.68a49.697 49.697 0 0 1-.011-.724V14.3l.003-.405.013-.854.009-.256.01-.403c.028-2.004 1.573-3.677 3.557-3.792l.306-.023c1.708-.154 2.989-.753 4.139-1.92z" fill="#19976C" fill-rule="nonzero"/>
            <g transform="translate(13.278 12.623)" fill="#FFF">
                <ellipse cx="4.488" cy="2" rx="1.995" ry="2"/>
                <path d="M4.488 4.95C1.4 4.95.418 6.06.418 6.06a1.235 1.235 0 0 0-.41.88l.005.463c.005.33.285.597.608.597h7.734a.607.607 0 0 0 .608-.597l.006-.464c.004-.3-.168-.698-.411-.878 0 0-.98-1.111-4.07-1.111z"/>
            </g>
        </g>
        <g fill="#B6E4D4">
            <path d="M59.618 12.501v.026c.926.064 1.718.45 1.838.918.124.511-.604.926-1.633.926-.121 0-.241-.005-.358-.016H52.69c-.111.01-.227.016-.348.016-1.03 0-1.966-.415-2.105-.926-.124-.512.604-.927 1.633-.927.09 0 .18.003.268.01V12.5h7.48z"/>
        </g>
        <g>
            <path d="M76.449 14.532a10.82 10.82 0 0 1 2.322.97c8.166 4.626 3.026 15.345 6.927 22.285 3.344 5.953 1.571 10.65-2.887 15.369-2.577 2.732-5 4.998-5.79 8.817-.456 2.205-.557 4.479-1.137 6.652C73.035 79.36 60.589 82.698 50.883 80.37c-4.343-1.04-8.39-3.244-11.68-6.272-3.793-3.5-8.607-9.5-4.381-14.499 1.37-1.614 3.274-2.678 5.209-3.54 3.36-1.505 9.133-3.05 10.225-7.164.82-3.097-1.548-6.341.162-9.345 1.34-2.352 4.35-3.066 5.79-5.364 1.246-1.98.967-4.525.921-6.87-.248-12.977 11.254-15.112 19.32-12.783zM42.328 140.48s1.584-7.865 3.55-14.447c3.173-10.611 9.32-30.491 9.32-30.491h32.988s10.05 23.475 12.441 44.937h-58.3z" fill="#1D1D1D"/>
            <path d="M138.053 38.5c-.449-2.794-.642-3.748-.968-4.874-.332-1.149-.99-1.894-1.95-2.204-1.37-.45-3.003.116-3.84.497.163-.746.334-1.615.442-2.22.108-.582.317-3.214-.689-4.495-.449-.574-1.486-1.187-2.283-.675-.697.45-.604 1.219-.496 2.189.124 1.079.294 2.546-.503 4.355-.325.737-.604 1.18-.89 1.653-.333.543-.681 1.102-1.115 2.134-.758 1.824-.642 4.89-.642 5.03.31 6.117-1.618 13.956-5.147 20.965-3.205 6.358-7.168 10.813-9.869 11.092-2.16.218-5.271-4.028-8.274-8.142-2.67-3.656-5.194-7.102-7.245-7.785a.26.26 0 0 0-.317.14l-7.152 15.935c-.031.062-.031-.795 0-.733.015.038 1.795 3.365 5.596 7.354 3.197 3.354 8.468 9.012 15.93 9.012.742 0 1.516-.04 2.306-.117 5.519-.559 10.031-3.19 13.414-7.816 2.693-3.687 4.682-8.64 5.898-14.725 1.888-9.407 1.339-18.675 1.223-20.344a19.261 19.261 0 0 0 2.747-.342c1.974-.388 2.423-.8 3.112-1.568.805-.877 1.037-2.32.712-4.315z" fill="#FFD6AF"/>
            <path d="M41.819 77.916s-2.833-19.086 1.347-21.873c.216-.147 3.026.838 5.232 3.555 2.082 2.57 2.477 9.252 2.477 9.252l-.782 11.015-8.274-1.949z" fill="#005A34"/>
            <path d="M45.503 60.273c-3.669 1.568-10.968 33.788-11.122 33.594-4.652-5.744-11.65-17.24-11.65-17.24-.696-2.141-1.377-4.64-2.113-5.696-1.037-1.467-2.252-2.748-4.187-3.967-.99-.62-3.019-1.824-4.574-2.243-1.556-.42-.875 2.592.518 3.128s2.47 1.521 2.082 1.785c-.263.187-1.006.986-2.422.645-1.595-.38-2.648-1.887-2.609-3.532a5.24 5.24 0 0 1 .093-.854c.372-1.715-.433-3.5-2.043-4.191-.759-.326-1.672-.49-2.748-.311-1.703.28-2.106 9.982 4.373 13.102 1.34.645 6.858 1.786 7.996 3.354.75 1.04 1.362 2.367 1.695 3.143 2.128 13.25 5.86 26.694 16.394 28.184 10.542 1.49 15.681-28.921 15.681-28.921l-5.364-19.98z" fill="#FFD6AF"/>
            <path d="M93.853 90.704c.198-1.827.734-2.776.664-4.414l1.019-10.035-.054-20.833c-18.244-2.135-52.309.629-52.309.629 2.679.62 3.8 12.403 5.573 20.523 0 0 2.98 7.334 2.764 15.53-.217 8.198 13.466 7.813 21.968 7.813 9.976 0 19.184 1.78 20.375-9.213z" fill="#19976C"/>
            <path d="M67.037 41.264 65.365 54.08l-6.309.955s2.415 7.692 10.76 8.259c8.35.566 12.298-5.286 12.763-8.375l-5.937-.839-1.006-12.435-8.6-.38z" fill="#FFD6AF"/>
            <path d="M79.978 31.577c-.333-.085-.696.031-1.03.295-.007-.07-.007-.147-.015-.217v-7.74c-8.715 6.35-10.333 2.29-15.836 4.107 0 0-.062 3.594-.078 3.85-.332-.264-.689-.38-1.021-.295-.852.21-1.223 1.63-.844 3.16.371 1.482 1.865 3.127 2.732 3.042 1.332 3.904 4.01 7.265 7.106 7.265s5.774-3.36 7.105-7.265c.867.085 2.361-1.56 2.733-3.043.371-1.537-.008-2.95-.852-3.159z" fill="#FFD6AF"/>
            <path d="M69.25 42.747c-.015 0-.03 0-.054-.008l-2.748-.559a4.442 4.442 0 0 1-3.87-4.23l-.077-1.972a.249.249 0 0 1 .247-.264c.147-.008.264.101.264.249l.077 1.971a3.921 3.921 0 0 0 3.429 3.741h.015l2.756.56c.14.03.224.162.201.302a.236.236 0 0 1-.24.21z" fill="#1DA578"/>
            <path d="M70.713 43.104a1.159 1.159 0 0 0-.418-1.576c-.55-.326-1.262-.155-1.579.396a1.159 1.159 0 0 0 .418 1.576 1.15 1.15 0 0 0 1.58-.396zM63.128 30.234a.712.712 0 0 0-.767-.652 2.364 2.364 0 0 0-2.16 2.554l.31 3.78a2.362 2.362 0 0 0 2.547 2.166.713.713 0 0 0 .65-.769l-.58-7.079z" fill="#1DA578"/>
            <path d="M62.857 38.346a2.629 2.629 0 0 1-2.609-2.414l-.31-3.78a2.622 2.622 0 0 1 .612-1.91 2.57 2.57 0 0 1 1.78-.916.976.976 0 0 1 .705.225 1 1 0 0 1 .34.66l.573 7.079a.983.983 0 0 1-.224.706.996.996 0 0 1-.658.342c-.062.008-.132.008-.21.008zm-.434-8.508h-.038a2.106 2.106 0 0 0-1.432.738 2.098 2.098 0 0 0-.496 1.537l.31 3.78a2.108 2.108 0 0 0 2.268 1.933.46.46 0 0 0 .31-.156.47.47 0 0 0 .108-.334l-.573-7.078a.462.462 0 0 0-.155-.311.514.514 0 0 0-.302-.109z" fill="#000" fill-rule="nonzero"/>
            <path d="M78.608 30.234a.712.712 0 0 1 .766-.652 2.364 2.364 0 0 1 2.16 2.554l-.31 3.78a2.362 2.362 0 0 1-2.546 2.166.713.713 0 0 1-.65-.769l.58-7.079z" fill="#1DA578"/>
            <path d="M78.879 38.346c-.07 0-.14 0-.217-.008a.964.964 0 0 1-.658-.342.94.94 0 0 1-.224-.706l.573-7.08a.968.968 0 0 1 .34-.659.933.933 0 0 1 .705-.225 2.63 2.63 0 0 1 2.4 2.833l-.31 3.78a2.628 2.628 0 0 1-2.609 2.407zm.441-8.508a.46.46 0 0 0-.294.109.432.432 0 0 0-.155.31l-.572 7.08a.47.47 0 0 0 .108.333.43.43 0 0 0 .31.156 2.113 2.113 0 0 0 2.267-1.933l.31-3.78a2.11 2.11 0 0 0-1.927-2.275h-.047z" fill="#000" fill-rule="nonzero"/>
            <path d="M79.792 27.27a.258.258 0 0 1-.255-.257v-.737c0-4.533-3.677-8.22-8.197-8.22h-1.022c-4.52 0-8.197 3.687-8.197 8.22 0 .14-.116.256-.255.256a.258.258 0 0 1-.255-.256c0-4.813 3.908-8.733 8.707-8.733h1.022c4.799 0 8.708 3.92 8.708 8.733v.737c0 .14-.116.256-.256.256z" fill="#1DA578"/>
            <g fill="#D2A274">
                <path d="M134.274 43.135c-.015 0-.038 0-.054-.008-1.788-.411-2.833-1.506-2.794-2.919l.008-.201c.038-1.064.077-2.391-.782-4.991-.488-1.483.619-2.585 1.277-2.958a.253.253 0 0 1 .348.093c.07.125.023.28-.093.35-.062.039-1.524.9-1.045 2.352.89 2.685.844 4.121.805 5.17l-.007.193c-.047 1.661 1.656 2.236 2.391 2.406.14.031.225.171.194.31a.256.256 0 0 1-.248.203z"/>
            </g>
        </g>
    </g>
</svg>
