<svg width="56" height="56" viewBox="0 0 56 56" xmlns="http://www.w3.org/2000/svg">
    <g fill="none" fill-rule="evenodd">
        <circle fill="#606BBB" cx="28" cy="28" r="28"/>
        <g transform="translate(10 13)">
            <rect fill="#FFF" fill-rule="nonzero" x="10" width="22" height="27" rx="3"/>
            <g transform="translate(14 15)" fill="#606BBB">
                <rect width="14" height="1.5" rx=".75"/>
                <rect y="3.5" width="14" height="1.5" rx=".75"/>
                <rect y="7" width="14" height="1.5" rx=".75"/>
            </g>
            <path d="M24.99 5.442v-.007a8.988 8.988 0 0 1-.008-.28c-.008-.496-.42-.906-.938-.934-1.08-.058-1.915-.395-2.63-1.062l-.005-.006a.62.62 0 0 0-.817 0l-.007.006c-.713.667-1.55 1.004-2.63 1.062-.517.028-.93.438-.937.934a8.887 8.887 0 0 1-.008.28v.016c-.022 1.055-.048 2.369.41 3.56a4.515 4.515 0 0 0 1.136 1.694c.57.534 1.318.957 2.22 1.259a.71.71 0 0 0 .448 0c.902-.303 1.648-.726 2.218-1.26.501-.468.883-1.038 1.135-1.694.46-1.195.435-2.51.414-3.568z" fill="#606BBB"/>
            <g fill="#FFF">
                <path d="m20.072 7.217.765.714a.527.527 0 0 1 .002.77.6.6 0 0 1-.82.002l-.766-.714a.527.527 0 0 1-.002-.77.6.6 0 0 1 .82-.002z"/>
                <path d="m20.107 7.997 2.044-1.916a.574.574 0 0 1 .785 0 .504.504 0 0 1 0 .735l-2.044 1.916a.574.574 0 0 1-.785 0 .504.504 0 0 1 0-.735z"/>
            </g>
            <circle fill="#606BBB" cx="10" cy="22" r="10"/>
            <g transform="translate(2 14)">
                <circle fill="#FFF" fill-rule="nonzero" cx="8" cy="8" r="8"/>
                <rect fill="#606BBB" x="7" y="8" width="5.5" height="2" rx="1"/>
                <rect fill="#606BBB" x="7" y="2.5" width="2" height="7" rx="1"/>
            </g>
        </g>
    </g>
</svg>
