<svg width="140" height="80" viewBox="0 0 140 80" xmlns="http://www.w3.org/2000/svg">
    <g fill="none" fill-rule="evenodd">
        <g transform="translate(112)" fill-rule="nonzero">
            <circle fill="#888" cx="12" cy="12" r="12"/>
            <path d="M8.5 12c0-1.6.3-2.8.8-3.7C9.8 7.4 10.7 7 12 7c1.3 0 2.2.4 2.7 1.3s.8 2.1.8 3.7-.3 2.8-.8 3.7c-.5.9-1.4 1.3-2.7 1.3-1.3 0-2.2-.4-2.7-1.3s-.8-2.2-.8-3.7zm5.5 0c0-.7 0-1.3-.1-1.9-.1-.5-.3-.9-.6-1.2-.3-.3-.7-.5-1.3-.5-.6 0-1 .2-1.3.5-.3.3-.5.7-.6 1.2 0 .5-.1 1.1-.1 1.9 0 .8 0 1.4.1 1.9s.3.9.6 1.2c.3.3.7.5 1.3.5.6 0 1-.2 1.3-.5.3-.3.5-.7.6-1.2.1-.5.1-1.2.1-1.9z" fill="#EBEBEB"/>
        </g>
        <path d="M47.8 4c1.1 0 2.1.4 2.8 1.2l8.8 8.8H99c4.4 0 8 3.6 8 8v50c0 4.4-3.6 8-8 8H21c-2.2 0-4-1.8-4-4V12c0-4.4 3.6-8 8-8h22.8z" fill="#C9C9C9" fill-rule="nonzero"/>
        <path d="M36.4 24H110c4.4 0 8 3.6 8 8 0 .6-.1 1.2-.2 1.8l-9.3 40c-.8 3.6-4.1 6.2-7.8 6.2H19.5c-1.1 0-2-.9-2-2 0-.2 0-.3.1-.5l11-47.4c.8-3.5 4-6.1 7.8-6.1z" fill="#EBEBEB" fill-rule="nonzero"/>
        <path d="M91.5 42.512c-.3 3.4 2.2 6.2 5.6 6.2 3.4 0 6.4-2.8 6.7-6.2v-.1h3.2v.2c-.5 5.8-5.6 10.4-11.3 10.4-5.7 0-10-4.7-9.5-10.4v-.2l5.3.1z" fill="#888" fill-rule="nonzero"/>
        <path d="M106.3 33c1.5 0 2.6 1.2 2.5 2.7v.1c-.1 1.5-1.4 2.7-2.9 2.7s-2.6-1.2-2.5-2.7v-.1c.1-1.5 1.4-2.7 2.9-2.7zM93.7 33c1.5 0 2.6 1.2 2.5 2.7v.1c-.1 1.5-1.4 2.7-2.9 2.7s-2.6-1.2-2.5-2.7v-.1c.1-1.5 1.4-2.7 2.9-2.7z" fill="#2C2C2C"/>
    </g>
</svg>
