<svg width="24" height="24" viewBox="0 0 24 24" xmlns="http://www.w3.org/2000/svg">
    <g transform="translate(3 2)" fill="none" fill-rule="evenodd">
        <rect fill="#096B65" width="18" height="20" rx="2"/>
        <g transform="translate(4 12.5)" fill="#FFF">
            <rect width="10" height="1.5" rx=".75"/>
            <rect y="3" width="10" height="1.5" rx=".75"/>
        </g>
        <path d="M12.492 4.17v-.006a8.116 8.116 0 0 1-.008-.248.859.859 0 0 0-.82-.83c-.945-.052-1.676-.352-2.301-.945l-.005-.005a.537.537 0 0 0-.715 0l-.006.005c-.624.593-1.356.893-2.3.944a.859.859 0 0 0-.821.83c-.001.09-.004.172-.007.25v.014c-.02.938-.042 2.105.36 3.165.22.582.554 1.089.992 1.505.5.474 1.153.85 1.944 1.119a.614.614 0 0 0 .39 0c.79-.27 1.443-.646 1.942-1.12.438-.416.772-.923.993-1.506.403-1.062.38-2.232.362-3.171z" fill="#29A8A5"/>
        <g fill="#FFF">
            <path d="m8.242 5.45.658.624a.545.545 0 0 1 .002.789.601.601 0 0 1-.828.002l-.659-.623a.545.545 0 0 1-.002-.79.601.601 0 0 1 .83-.001z"/>
            <path d="m8.203 6.252 1.674-1.589a.583.583 0 0 1 .804.002.529.529 0 0 1-.002.765L9.005 7.02a.583.583 0 0 1-.804-.002.529.529 0 0 1 .002-.765z"/>
        </g>
    </g>
</svg>
