<svg width="36" height="26" viewBox="0 0 36 26" xmlns="http://www.w3.org/2000/svg">
    <g fill="#1A1F71" fill-rule="nonzero">
        <path d="M11.145 10.175 8.54 16.783 7.47 11.16c-.131-.635-.612-.985-1.16-.985H2.067L2 10.46c.875.196 1.86.503 2.472.831.372.197.481.372.59.853l1.992 7.725H9.7l4.069-9.694h-2.625zM14.842 10.175l-2.057 9.694h2.494l2.079-9.694zM20.64 12.867c0-.35.35-.723 1.071-.81.35-.044 1.357-.088 2.472.438l.438-2.057c-.613-.22-1.378-.438-2.34-.438-2.495 0-4.223 1.313-4.245 3.217-.022 1.4 1.247 2.166 2.188 2.625.984.482 1.312.766 1.29 1.204 0 .656-.787.94-1.487.94-1.27.023-1.991-.35-2.582-.612l-.46 2.123c.592.262 1.664.503 2.78.503 2.625 0 4.353-1.291 4.353-3.326.044-2.538-3.5-2.67-3.479-3.807M27.903 16.433l1.334-3.632.744 3.632h-2.078zm.94-6.258c-.481 0-.897.285-1.072.7l-3.763 8.972h2.626l.525-1.444h3.216l.306 1.444H33l-2.013-9.694h-2.144v.022z"/>
    </g>
</svg>
