<svg width="36" height="26" viewBox="0 0 36 26" xmlns="http://www.w3.org/2000/svg">
    <g fill-rule="nonzero" fill="none">
        <path fill="#FF5F00" d="M18.008 9.497h6.782v11.005h-6.782z"/>
        <path d="M18.706 15a6.97 6.97 0 0 1 2.69-5.501 7.077 7.077 0 0 0-9.527.754 6.965 6.965 0 0 0 0 9.496 7.077 7.077 0 0 0 9.528.755A6.97 6.97 0 0 1 18.707 15z" fill="#EB001B"/>
        <path d="M32.121 19.338v-.226h.098v-.047h-.233v.047h.092v.226h.043zm.452 0v-.273h-.07l-.082.195-.082-.195h-.07v.273h.05v-.207l.076.177h.053l.076-.177v.207h.05zM32.795 15c0 2.68-1.54 5.124-3.966 6.295a7.082 7.082 0 0 1-7.432-.793 6.982 6.982 0 0 0 2.691-5.503 6.982 6.982 0 0 0-2.691-5.502 7.082 7.082 0 0 1 7.432-.793 6.995 6.995 0 0 1 3.966 6.294V15z" fill="#F79E1B"/>
    </g>
</svg>
