<svg width="64" height="64" viewBox="0 0 64 64" xmlns="http://www.w3.org/2000/svg">
    <g fill="none" fill-rule="evenodd">
        <g transform="translate(31 6)">
            <path d="M7.049 11.607a7.937 7.937 0 0 0 7.936 7.937h.238a7.937 7.937 0 0 0 7.937-7.937h4.027C27.188 19.004 21.191 25 13.796 25h-.402C5.996 25 0 19.004 0 11.607z" fill="#1DA578"/>
            <rect fill="#2A2D2D" x="21.75" width="7.25" height="7.143" rx="3.571"/>
            <rect fill="#2A2D2D" x="5.438" width="7.25" height="7.143" rx="3.571"/>
        </g>
        <g transform="translate(5 25)">
            <path d="M1 23h8v7.5A1.5 1.5 0 0 1 7.5 32h-5A1.5 1.5 0 0 1 1 30.5V23zM33 23h8v7.5a1.5 1.5 0 0 1-1.5 1.5h-5a1.5 1.5 0 0 1-1.5-1.5V23z" stroke="#1D1D1D" fill="#1D1D1D"/>
            <path d="M4.033 7.39a.855.855 0 0 0-.92-.497l-2.341.41A.912.912 0 0 0 0 8.209v.453c0 .436.307.802.728.898l3.314.75.772-1.177-.78-1.743zM41.462 7.303l-2.341-.4a.844.844 0 0 0-.92.496L37.42 9.15l.78 1.177 3.306-.767a.917.917 0 0 0 .728-.898V8.21a.904.904 0 0 0-.772-.906z" stroke="#1D1D1D" fill="#FFF"/>
            <path d="m39.853 12.604-2.373-3.67-.238-.366-2.01-4.802c-.662-1.586-2.074-2.72-3.75-2.99A66.909 66.909 0 0 0 21.004.002a66.797 66.797 0 0 0-10.47.776 4.937 4.937 0 0 0-3.757 2.989L4.775 8.568l-.238.366-2.373 3.67A7.312 7.312 0 0 0 1 16.56v7.932c0 2.675 1.835 4.227 4.542 4.227h30.915c2.708 0 4.542-1.56 4.542-4.227V16.56a7.148 7.148 0 0 0-1.146-3.956z" stroke="#1D1D1D" fill="#FFF"/>
            <rect fill="#1D1D1D" x="4" y="24" width="34" height="1" rx=".5"/>
            <g fill="#1DA578">
                <path d="M4.864 15s3.567.225 4.05.372c.482.148 2.331 3.725 2.331 3.725l-6.022-.866a1.368 1.368 0 0 1-1.122-1.04 3.176 3.176 0 0 1-.097-.952c.08-.832.342-1.239.86-1.239zM37.145 15s-3.568.225-4.05.372c-.482.148-2.332 3.725-2.332 3.725l6.023-.866c.543-.078.99-.494 1.122-1.04.079-.311.114-.632.088-.952-.07-.832-.333-1.239-.85-1.239zM13.912 19.626l-1.797-3.872s6.33.563 8.89.563c2.56 0 8.888-.563 8.888-.563l-1.797 3.872-7.135.416-7.049-.416z"/>
            </g>
            <path d="M35.202 3.354C34.693 2.04 33.628 1.119 32.338.9A67.296 67.296 0 0 0 21 .001a67.605 67.605 0 0 0-8.044.445l-.342.041c-.997.125-1.994.26-2.962.425-1.28.217-2.355 1.138-2.854 2.452L5 8h32l-1.798-4.646z" stroke="#1D1D1D" fill="#1DA578"/>
            <path d="m39.845 12.601-2.372-3.669-.238-.366-2.011-4.8c-.661-1.587-2.072-2.72-3.748-2.99A66.895 66.895 0 0 0 21 .001c-3.5-.018-7.01.244-10.467.775a4.936 4.936 0 0 0-3.757 2.99l-2.002 4.8-.238.366-2.372 3.669A7.31 7.31 0 0 0 1 16.557v7.93c0 2.675 1.834 4.226 4.541 4.226H36.45c2.707 0 4.541-1.56 4.541-4.226v-7.93a7.147 7.147 0 0 0-1.146-3.956z" stroke="#1D1D1D"/>
        </g>
    </g>
</svg>
