<svg width="24" height="24" viewBox="0 0 24 24" xmlns="http://www.w3.org/2000/svg">
    <g fill="none" fill-rule="evenodd">
        <g transform="translate(0 10)">
            <path d="m23.893 6.378-2.25-3.889A.743.743 0 0 0 21 2.111h-5.25c-.414 0-.75.349-.75.778v7.778c0 .429.336.777.75.777h7.5c.414 0 .75-.348.75-.777v-3.89a.788.788 0 0 0-.107-.399z" fill="#096B65"/>
            <path d="M18.65 3.667h1.781a.25.25 0 0 1 .217.124l1.51 2.612a.25.25 0 0 1-.216.375H18.65a.25.25 0 0 1-.25-.25V3.917a.25.25 0 0 1 .25-.25z" fill="#F9F9F4"/>
            <path d="M4 9h20v2a1 1 0 0 1-1 1H5a1 1 0 0 1-1-1V9z" fill="#096B65"/>
            <g transform="translate(0 1.5)" fill="#29A8A5">
                <rect width="6" height="1.5" rx=".75"/>
                <rect x="1" y="2.5" width="6" height="1.5" rx=".75"/>
                <rect x="2" y="5" width="6" height="1.5" rx=".75"/>
            </g>
            <circle stroke="#096B65" stroke-width="1.5" fill="#F9F9F4" cx="8.75" cy="11.75" r="1.5"/>
            <circle stroke="#096B65" stroke-width="1.5" fill="#F9F9F4" cx="20.25" cy="11.75" r="1.5"/>
            <path d="M5 0h11a1 1 0 0 1 1 1v8H4V1a1 1 0 0 1 1-1z" fill="#29A8A5"/>
        </g>
        <path d="M10.5 0C6.915 0 4 2.691 4 6c0 4.159 5.867 9.623 6.117 9.854A.568.568 0 0 0 10.5 16a.568.568 0 0 0 .383-.146C11.133 15.623 17 10.159 17 6c0-3.309-2.915-6-6.5-6z" fill="#096B65"/>
        <path d="M10.5 8.858C9.12 8.858 8 7.775 8 6.43 8 5.09 9.12 4 10.5 4 11.88 4 13 5.089 13 6.43c0 1.345-1.119 2.428-2.5 2.428z" fill="#FFF"/>
    </g>
</svg>
