<svg width="24" height="24" viewBox="0 0 24 24" xmlns="http://www.w3.org/2000/svg">
    <g transform="translate(2 3.5)" fill="none" fill-rule="evenodd">
        <path d="m2.11.937 6 2.667c.54.24.89.778.89 1.37v12.218a1.5 1.5 0 0 1-2.11 1.37l-6-2.666a1.5 1.5 0 0 1-.89-1.37V2.307A1.5 1.5 0 0 1 2.11.938z" fill="#096B65"/>
        <rect fill="#29A8A5" x="11" y="7.5" width="8" height="2" rx="1"/>
        <rect fill="#29A8A5" transform="rotate(-45 18.028 7.128)" x="17.028" y="4.128" width="2" height="6" rx="1"/>
        <rect fill="#29A8A5" transform="rotate(-135 18.028 9.868)" x="17.028" y="6.868" width="2" height="6" rx="1"/>
        <path d="M11.375.5C12.825.5 14 1.694 14 3.167V5.5h-1.75V3.167a.884.884 0 0 0-.773-.883l-.102-.006h-8.75a.88.88 0 0 0-.87.785l-.005.104v10.666c0 .456.338.832.773.883l.102.006h8.75a.88.88 0 0 0 .87-.785l.005-.104V11.5H14v2.333c0 1.473-1.175 2.667-2.625 2.667h-8.75C1.175 16.5 0 15.306 0 13.833V3.167C0 1.694 1.175.5 2.625.5h8.75z" fill="#096B65"/>
    </g>
</svg>
