<svg width="24" height="24" viewBox="0 0 24 24" xmlns="http://www.w3.org/2000/svg">
    <g fill="none" fill-rule="evenodd">
        <path d="M11.991 2.251c.464-.003.927.167 1.294.515 1.228 1.222 2.643 1.823 4.466 1.927a2.59 2.59 0 0 1 1.741.818c.44.468.714 1.098.724 1.788.003.196.008.371.015.542.042 2.218.078 4.95-.818 7.434a9.846 9.846 0 0 1-2.304 3.664c-1.14 1.139-2.631 2.049-4.437 2.694-3.15-.644-4.643-1.553-5.784-2.692a9.833 9.833 0 0 1-2.304-3.663c-.893-2.474-.857-5.198-.816-7.394.008-.21.013-.387.016-.584.01-.69.284-1.321.724-1.79a2.59 2.59 0 0 1 1.741-.817c1.824-.104 3.238-.705 4.444-1.906a1.9 1.9 0 0 1 1.298-.536z" stroke="#29A8A5" stroke-width="1.5" fill="#096B65"/>
        <g transform="translate(8 7.5)" fill="#FFF">
            <ellipse cx="4" cy="1.75" rx="1.778" ry="1.75"/>
            <path d="M4 4.331c-2.753 0-3.627.972-3.627.972-.206.162-.37.513-.367.769l.006.39A.54.54 0 0 0 .554 7h6.892a.548.548 0 0 0 .542-.539l.006-.39c.003-.262-.15-.61-.367-.768 0 0-.874-.972-3.627-.972z"/>
        </g>
    </g>
</svg>
