<svg width="24" height="24" viewBox="0 0 24 24" xmlns="http://www.w3.org/2000/svg">
    <g transform="translate(2 5)" fill="none" fill-rule="evenodd">
        <rect fill="#29A8A5" x="3" y="3" width="18" height="12" rx="2"/>
        <rect fill="#096B65" width="18" height="12" rx="2"/>
        <path d="M11.422 6.806a1.373 1.373 0 0 0-.239-.444 1.516 1.516 0 0 0-.402-.347 1.74 1.74 0 0 0-.577-.211c.342-.11.587-.276.736-.498.149-.222.222-.475.222-.756 0-.34-.073-.616-.222-.826a1.489 1.489 0 0 0-.592-.489A2.83 2.83 0 0 0 9.493 3a6.96 6.96 0 0 0-.388-.037V2H7.819v.938H6.5V9.06h1.32V10h1.285v-.958a9.23 9.23 0 0 0 .507-.04c.359-.04.68-.12.96-.242.282-.121.506-.297.674-.526.168-.23.254-.537.254-.921a1.58 1.58 0 0 0-.078-.507zm-3.741-2.98h.562c.214 0 .415.004.606.017.19.012.359.044.505.1.147.055.263.14.346.255.084.116.126.278.126.486 0 .192-.046.343-.138.45a.829.829 0 0 1-.365.241c-.151.054-.321.086-.51.098-.188.012-.38.018-.572.018h-.562V3.825h.002zm2.288 3.931c-.11.121-.252.213-.428.274a2.26 2.26 0 0 1-.587.112 9.675 9.675 0 0 1-.636.021h-.635V6.31h.895c.204 0 .399.014.588.041.188.027.354.077.499.148a.876.876 0 0 1 .342.288c.084.12.125.277.125.465 0 .215-.054.384-.163.505z" fill="#FFF"/>
    </g>
</svg>
