<svg width="64" height="64" viewBox="0 0 64 64" xmlns="http://www.w3.org/2000/svg">
    <g transform="translate(5 6)" fill="none" fill-rule="evenodd">
        <path d="M54.967 8.954v-.026a34.521 34.521 0 0 1-.03-1.025 3.492 3.492 0 0 0-3.282-3.427c-3.78-.211-6.705-1.449-9.203-3.893l-.022-.02a2.099 2.099 0 0 0-2.86 0l-.02.02c-2.5 2.444-5.424 3.682-9.205 3.894a3.492 3.492 0 0 0-3.281 3.426c-.006.37-.015.706-.03 1.025l-.001.06c-.074 3.869-.165 8.684 1.44 13.054.883 2.404 2.22 4.493 3.972 6.21 1.997 1.956 4.613 3.509 7.774 4.615A2.397 2.397 0 0 0 41 33a2.353 2.353 0 0 0 .783-.134c3.157-1.108 5.77-2.661 7.765-4.617 1.753-1.718 3.09-3.807 3.973-6.211 1.61-4.384 1.52-9.208 1.446-13.084z" stroke="#1D1D1D" stroke-width=".933" fill="#FFF"/>
        <g fill="#1D1D1D" fill-rule="nonzero">
            <path d="M31.818 13.988 31 9.604h1.257l.232 1.544a20.669 20.669 0 0 1 .138 1.296h.026c.052-.197.098-.377.138-.54a12.754 12.754 0 0 1 .215-.78l.465-1.52h.784l.464 1.52a29.137 29.137 0 0 1 .22.78c.043.163.088.343.133.54h.026c.029-.293.053-.55.073-.772.02-.221.042-.396.065-.524l.241-1.544h1.249l-.81 4.384h-1.265l-.543-1.784a6.642 6.642 0 0 1-.133-.572c-.032-.173-.062-.35-.09-.532h-.035l-.065.352a6.216 6.216 0 0 1-.185.752l-.55 1.784h-1.232zM37.526 12.824h.11a.582.582 0 1 1 0 1.164h-.11a.582.582 0 1 1 0-1.164zM40.745 14.092c-.339 0-.679-.035-1.02-.104a3.82 3.82 0 0 1-.909-.296l.362-.952c.115.059.252.12.413.184.16.064.336.117.525.16.19.043.382.064.577.064.23 0 .403-.03.521-.092a.301.301 0 0 0 .177-.284.288.288 0 0 0-.117-.236 1.285 1.285 0 0 0-.34-.176 9.777 9.777 0 0 0-.534-.18 4.998 4.998 0 0 1-.783-.328 1.403 1.403 0 0 1-.504-.432 1.101 1.101 0 0 1-.176-.64c0-.293.08-.533.24-.72.162-.187.388-.327.681-.42a3.38 3.38 0 0 1 1.025-.14c.321 0 .61.024.87.072.257.048.458.11.602.184v.944a2.82 2.82 0 0 0-.383-.128 5.045 5.045 0 0 0-.508-.108 3.254 3.254 0 0 0-.521-.044c-.235 0-.413.03-.534.088-.12.059-.18.141-.18.248 0 .085.04.157.124.216.083.059.205.113.366.164.16.05.353.113.577.188.298.096.55.203.758.32.206.117.363.261.469.432.106.17.16.381.16.632 0 .24-.06.465-.177.676-.118.21-.318.381-.599.512-.281.13-.669.196-1.162.196zM43.713 12.824h.11a.582.582 0 1 1 0 1.164h-.11a.582.582 0 1 1 0-1.164zM47.05 14.092c-.747 0-1.288-.161-1.624-.484-.336-.323-.503-.79-.503-1.404v-2.6h1.291v2.664c0 .283.067.497.202.644.135.147.346.22.633.22.287 0 .498-.073.633-.22.135-.147.202-.361.202-.644V9.604h1.292v2.6c0 .613-.168 1.081-.504 1.404-.336.323-.877.484-1.623.484zM50.308 12.824h.11a.582.582 0 1 1 0 1.164h-.11a.582.582 0 1 1 0-1.164z"/>
        </g>
        <path stroke="#1DA578" stroke-width="1.5" stroke-linecap="round" stroke-linejoin="round" d="m38 19.833 1.864 1.846L44 17.5"/>
        <path d="M1 42h8v7.5A1.5 1.5 0 0 1 7.5 51h-5A1.5 1.5 0 0 1 1 49.5V42zM33 42h8v7.5a1.5 1.5 0 0 1-1.5 1.5h-5a1.5 1.5 0 0 1-1.5-1.5V42z" stroke="#1D1D1D" fill="#1D1D1D"/>
        <path d="M4.033 26.39a.855.855 0 0 0-.92-.497l-2.341.41a.912.912 0 0 0-.772.906v.453c0 .436.307.802.728.898l3.314.75.772-1.177-.78-1.743zM41.462 26.303l-2.341-.4a.844.844 0 0 0-.92.496l-.781 1.751.78 1.177 3.306-.767a.917.917 0 0 0 .728-.898v-.453a.904.904 0 0 0-.772-.906z" stroke="#1D1D1D" fill="#FFF"/>
        <path d="m39.853 31.604-2.373-3.67-.238-.366-2.01-4.802c-.662-1.586-2.074-2.72-3.75-2.99a66.909 66.909 0 0 0-10.478-.775 66.797 66.797 0 0 0-10.47.776 4.937 4.937 0 0 0-3.757 2.989l-2.002 4.802-.238.366-2.373 3.67A7.312 7.312 0 0 0 1 35.56v7.932c0 2.675 1.835 4.227 4.542 4.227h30.915c2.708 0 4.542-1.56 4.542-4.227V35.56a7.148 7.148 0 0 0-1.146-3.956z" stroke="#1D1D1D" fill="#FFF"/>
        <rect fill="#1D1D1D" x="4" y="43" width="34" height="1" rx=".5"/>
        <g fill="#1DA578">
            <path d="M4.864 34s3.567.225 4.05.372c.482.148 2.331 3.725 2.331 3.725l-6.022-.866a1.368 1.368 0 0 1-1.122-1.04 3.176 3.176 0 0 1-.097-.952c.08-.832.342-1.239.86-1.239zM37.145 34s-3.568.225-4.05.372c-.482.148-2.332 3.725-2.332 3.725l6.023-.866c.543-.078.99-.494 1.122-1.04.079-.311.114-.632.088-.952-.07-.832-.333-1.239-.85-1.239zM13.912 38.626l-1.797-3.872s6.33.563 8.89.563c2.56 0 8.888-.563 8.888-.563l-1.797 3.872-7.135.416-7.049-.416z"/>
        </g>
        <path d="M35.202 22.354c-.509-1.314-1.574-2.235-2.864-2.453a67.296 67.296 0 0 0-11.338-.9 67.605 67.605 0 0 0-8.044.445l-.342.041c-.997.125-1.994.26-2.962.425-1.28.217-2.355 1.138-2.854 2.452L5 27h32l-1.798-4.646z" stroke="#1D1D1D" fill="#1DA578"/>
        <path d="m39.845 31.601-2.372-3.669-.238-.366-2.011-4.8c-.661-1.587-2.072-2.72-3.748-2.99A66.895 66.895 0 0 0 21 19.001c-3.5-.018-7.01.244-10.467.775a4.936 4.936 0 0 0-3.757 2.99l-2.002 4.8-.238.366-2.372 3.669A7.31 7.31 0 0 0 1 35.557v7.93c0 2.675 1.834 4.226 4.541 4.226H36.45c2.707 0 4.541-1.56 4.541-4.226v-7.93a7.147 7.147 0 0 0-1.146-3.956z" stroke="#1D1D1D"/>
    </g>
</svg>
