<svg width="52" height="52" viewBox="0 0 52 52" xmlns="http://www.w3.org/2000/svg" xmlns:xlink="http://www.w3.org/1999/xlink">
    <defs>
        <path id="9pm1sap0fa" d="M.043.043H.13V.13H.043z"/>
        <path id="x2mbetwyuc" d="M.043.043H.13V.13H.043z"/>
        <path id="0btc6y2vve" d="M.026 36.808h40.266V0H.026z"/>
    </defs>
    <g fill="none" fill-rule="evenodd">
        <path fill="#21438E" d="M0 0h52v52H0z"/>
        <g transform="translate(5.824 7.592)">
            <path d="M30.188 10.13c0 5.592-4.476 10.128-10.003 10.128-5.528 0-10.005-4.536-10.005-10.127C10.18 4.534 14.657 0 20.185 0c5.527 0 10.003 4.534 10.003 10.13" fill="#B68446"/>
            <path d="M29.568 10.13c0 5.176-4.198 9.383-9.383 9.383-5.182 0-9.385-4.207-9.385-9.382 0-5.185 4.203-9.383 9.385-9.383a9.38 9.38 0 0 1 9.383 9.383" fill="#FFF"/>
            <path d="M29.073 10.13c0 4.97-3.978 8.997-8.888 8.997-4.909 0-8.893-4.026-8.893-8.996 0-4.977 3.984-9.007 8.893-9.007 4.91 0 8.888 4.03 8.888 9.007" fill="#E72429"/>
            <path d="M28.305 10.13c0 4.54-3.636 8.224-8.12 8.224-4.485 0-8.12-3.684-8.12-8.223 0-4.543 3.635-8.231 8.12-8.231 4.484 0 8.12 3.688 8.12 8.23" fill="#21438E"/>
            <path d="M24.226 6.714c0-.36.293-.643.654-.643.359 0 .649.284.649.643 0 .26-.152.48-.373.58l.01-.092c-.01-.018-.026-.029-.04-.042-.025-.02-.04-.025-.064-.017-.02-.023-.03-.051-.053-.073a.135.135 0 0 0-.085-.032c-.022.004-.044.02-.07.006-.034-.015-.042-.069-.073-.095a.145.145 0 0 0-.06-.034.16.16 0 0 0-.07-.015c-.019-.003-.045.008-.063.002-.035-.01-.041-.059-.062-.075a.147.147 0 0 0-.084-.04.16.16 0 0 0-.11.046l-.068.086a.696.696 0 0 1-.038-.205zm.94 7.202c-.141-.19-.121-.758-.368-.918-.234-.149-.503.016-.65.198-.587.08-1.83.839-1.964 1.153-.074.114-.142.321-.222.36.546-1.44-.605-3.163-.605-3.51 0-.55.59-.84.59-1.309.203.399.67.584 1.08.723-.238.507.239 1.05.201 1.461-.009.117-.065.209-.16.22-.125-.103-.186-.265-.347-.33.199-.141-.055-.448.11-.75-.035.007-.117.021-.169.067-.117.122-.041.298-.149.383-.052-.165-.088-.387.023-.561-.132-.082-.39-.528-.477-.662-.062.268-.074.642-.168.806.189.077.293.334.308.522-.13-.098-.175-.288-.45-.238.213.156.213.483.45.56-.089.145-.106.36-.177.446.11.026.211-.136.303-.19-.117.236-.018.445.145.612.066.063.075-.01.136.033.04.101-.014.187.011.295.04.2.42.2.41-.04 0-.113-.107-.055-.107-.233.16.064.635.02 1.032-1.032.236-.614.128-1.593-.198-1.989 0 0 .204-.19.282-.305.208-.315.346-.656.49-.996.093-.224.221-.44.328-.659a.279.279 0 0 1 .079-.134c.078-.083.16-.166.202-.284.005-.006.005-.01.01-.022l.003-.069a.887.887 0 1 0-1.157-.845c0 .164.045.31.123.446l-.112.145c-.004.03-.011.063-.011.1a.708.708 0 0 0 .033.237c.02.068.09.12.083.186a.751.751 0 0 1-.126.347c-.105.167-.276.294-.423.434-.25.221-.413.338-.496.441-.225-.309-.439-.5-.635-.603-.09-.048-.2-.056-.29-.093 0-.004.003-.008.003-.008l-.118-.022-.08-.017c-.074.102-.15.185-.23.263.078-.089.148-.188.195-.301-.192-.037-.39-.044-.58-.068.121-.22.658-.032.728-.264 0 0-.097-.02-.107-.02-.03-.006-.05-.019-.076-.028-.041-.021-.069-.03-.086-.073.008-.02.019-.044.034-.054.094-.004.102.073.165.106a.262.262 0 0 0 .095.01c.028.005.06 0 .09 0a.555.555 0 0 0 .167-.05.63.63 0 0 0 .145-.066.367.367 0 0 0 .11-.144c.014-.03.017-.04.04-.059a.15.15 0 0 1 .048-.03l.039-.034a.45.45 0 0 1 .088-.073c.044-.035.113-.074.131-.134-.087-.05-.292.08-.36 0a.634.634 0 0 0 .24-.433c-.048.023-.111.032-.132 0a.585.585 0 0 0 .165-.325c-.055.032-.116.022-.144-.018.14-.129.213-.415.213-.616-.24-.155-.368-.19-.619-.19 0-.053.006-.092.024-.12a1.05 1.05 0 0 0-.505-.036.161.161 0 0 1 0-.138c-.15-.024-.402-.01-.507.032-.019-.011-.019-.105.013-.146-.293-.03-.65.095-.803.312-.278.02-.414.178-.526.361-.182-.329-.795-.195-.652.217-.122.07-.143.27-.051.413a.172.172 0 0 1 .124-.071c.039.03.13.015.147.071.012.216.245.218.29.399-.151.058-.295.115-.47.146a.244.244 0 0 1-.165-.127c-.11.138-.103.263-.039.414-.18.262.095.556.384.395.046.218.159.443.27.563-.221-.077-.438-.269-.58-.441a.843.843 0 0 0 .13.417.897.897 0 0 1-.12-.146 1.86 1.86 0 0 1-.174-.474c-.027-.015-.109-.029-.128-.037-.383-.086-.872-.025-1.533.261.187-.399-.062-.795-.108-1.152-.041-.345.089-.65.268-.903.09.036.222.024.274.088-.052.15 0 .231-.037.343-.034.108-.19.183-.142.342.036.12.212.166.347.13.196-.059.087-.23.087-.416 0-.087.039-.321.09-.399.032-.052.097-.048.145-.088.023-.026.023-.075.052-.108.042-.05.11-.067.129-.09.03-.046.02-.147.055-.198.04-.08.086-.074.086-.15-.003-.12-.141-.155-.141-.25.283-.036.35-.281.481-.473.5.427.746-.284 1.198-.427.127-.045.23 0 .377-.073-.118-.096-.327-.125-.417-.202.623.015 1.22.21 1.7-.109a8.703 8.703 0 0 1-.999-.169c.494-.02 1.712-.017 1.867-.57-.247.152-.547.192-.869.195-.442.011-.802-.18-1.136-.177.236-.114.469-.26.54-.508-.11 0-.179.119-.306.168-.346.143-.9.065-1.318.157-.187.043-.303.155-.45.166.301-.114.836-.497.45-.849.028.119-.006.249-.57.477-.286.114-.578.213-.847.36-.705.392-.76 1.12-.41 1.309-.035.259.137.455.253.618-.148.101-.348.043-.505.09a.97.97 0 0 0-.436.274c-.066.056-.125.126-.184.184-.065.07-.105.167-.15.247-.13.226-.186.49-.294.728-.064.145-.11.295-.151.448a2.658 2.658 0 0 0-.065.974c.016.102.03.203.057.302l.105.274c-1.036.755-.979 2.748.054 2.748-.19.444.715.297.688-.072.063.083.453.176.51-.006a.56.56 0 0 1-.34-.238c-.152-.149-.376-.241-.912-.391-.179-.687.664-.74.65-1.318.27.093.77.037.994-.052-.03.254-.036.416.054.597.057.116.204.179.237.285.053.189-.058.389.11.577 0 .126-.57.652-.57.652-.693.664-1.62.37-2.262.37-1.132 0-1.535 1.132-.495 1.833.704.473 1.5.342 1.715.974.042.11.047.227.02.343.298 0 .222-.866.74-.866.295 0 .612.115.722.272.31.432-.801.222-1.03.45-.269.227-.112.774.344.649.046-.181.232-.32.47-.255-.314.197.196.511.36.274.015-.076-.035-.084-.035-.142.147-.147.33.045.502.015.183-.029.302-.224.287-.453.168.834.636 2.96 2.866 2.96 1.028 0 .859-1.02 1.625-1.02.276 0 .458-.055.708-.233.12-.121.232-.46.53-.481-.268-.229-.246-.069-.494 0-.19.058-.36-.024-.49.026-.094.032-.162.089-.265.147.076-.188.344-.281.537-.291.393-.138.264-.573.746-.616-.276-.25-.485-.06-.782.053-.12.052-.244.005-.371.026-.16.019-.222.11-.434.153.13-.153.178-.347.333-.459.103.03.638.03.517-.348-.166.214-.31-.158-.507-.078.041-.248.218-.765.545-.668.274.089-.034.792.448.741.073-.035-.01-.117.039-.162.254.46 1.104.082.79-.377-.177-.036-.352-.064-.445-.202z" fill="#FFF"/>
            <path d="m22.137 8.32-.035.027h.004l.034-.028.024-.03-.002-.008-.025.038.039.024v-.002l-.04-.022-.034.028.035-.028-.035-.026v.002l-.03.037.038.027.066-.066V8.29l-.042-.045-.032.05.035.025zm3.473 5.798.011-.049c-.18-.034-.343-.062-.421-.177-.06-.082-.093-.273-.134-.459-.043-.19-.1-.381-.24-.474a.411.411 0 0 0-.22-.064c-.203 0-.38.134-.492.274l.035.027-.006-.038c-.31.034-.766.247-1.172.488-.406.246-.75.502-.834.688l.047.015-.044-.02c-.034.056-.068.141-.103.21-.034.069-.075.123-.094.131l.019.04.041.017c.107-.279.152-.572.152-.86 0-.612-.193-1.216-.38-1.7-.09-.24-.19-.45-.259-.621-.068-.166-.111-.293-.111-.347 0-.258.137-.454.284-.66.145-.194.3-.395.303-.649h-.044l-.044.017c.217.427.702.61 1.113.75l.01-.044-.042-.019a.844.844 0 0 0-.07.327c.003.41.275.808.27 1.108v.045h.043-.044c-.009.106-.056.169-.118.173l.002.047.026-.037c-.11-.09-.178-.257-.355-.33l-.018.037.027.036c.078-.048.103-.136.1-.214 0-.104-.03-.218-.03-.33 0-.076.012-.144.051-.216l.04-.078-.085.013a.315.315 0 0 0-.194.076c-.066.073-.08.16-.09.23-.007.072-.02.122-.058.147l.031.036.042-.012a1.133 1.133 0 0 1-.047-.276c0-.088.016-.177.068-.25l.026-.04-.044-.025c-.049-.028-.15-.157-.24-.29-.09-.142-.178-.287-.225-.351l-.056-.095-.02.107c-.064.272-.078.651-.165.792l-.021.042.045.022c.156.063.26.308.277.486l.046-.005.029-.035c-.052-.039-.091-.098-.148-.152a.323.323 0 0 0-.246-.1l-.094.011-.107.017.09.06c.092.07.149.181.202.293.055.108.12.228.259.272l.015-.044-.037-.026c-.09.16-.116.375-.177.446l-.046.058.073.014.03.003c.068 0 .127-.045.178-.09a.782.782 0 0 1 .126-.103l-.02-.045-.043-.018a.528.528 0 0 0-.055.227c0 .163.09.314.21.435l.082.04.047-.01.02.007.019-.037-.04.015.01.07c0 .045-.01.092-.012.15l.008.07.045-.01-.045.01c.025.124.149.18.258.18a.28.28 0 0 0 .164-.047c.048-.042.079-.1.079-.173v-.002h-.019l.019.002v-.002h-.019l.019.002v-.011c.003-.07-.049-.11-.068-.124-.02-.022-.034-.022-.04-.108h-.045l.04.023.006-.023h-.046l.04.023-.04-.023-.017.04a.338.338 0 0 0 .125.024c.238 0 .63-.199.966-1.078a2.35 2.35 0 0 0 .13-.798c0-.485-.118-.974-.338-1.235l-.032.026.024.04.008-.005c.027-.026.212-.199.29-.315.206-.321.348-.662.49-1.002.094-.223.219-.439.327-.66.027-.055.04-.091.07-.126a.816.816 0 0 0 .218-.293l.006-.023v-.004l.022-.401v-.02l-.053-.056-.008-.008-.062-.014-.041-.062-.008-.013-.096-.035-.008-.006-.06.006-.053-.073-.004-.008-.069-.037h-.005l-.082-.023-.008-.003-.046.003-.044-.06-.009-.007-.093-.043h-.024a.225.225 0 0 0-.137.05l-.004.006-.34.452-.01.112v.025c0 .078.01.154.035.229.032.086.089.134.086.174v.012l.04-.012h-.04a.765.765 0 0 1-.121.322c-.102.157-.267.286-.416.426-.246.222-.411.334-.505.443l.038.031.032-.028c-.225-.312-.44-.502-.644-.613-.104-.055-.209-.063-.291-.102l-.022.047.047.013v-.006l.015-.047-.175-.035-.073-.015-.03-.01-.014.025c-.306.405-.607.62-1.1.62-.176 0-.384-.027-.625-.092a1.597 1.597 0 0 1-.885-.616l-.032.03.04-.02a1.91 1.91 0 0 1-.173-.465l-.002-.026-.155-.043h-.006a1.448 1.448 0 0 0-.342-.039c-.335 0-.73.09-1.216.306l.019.037.043.021a.757.757 0 0 0 .07-.335c0-.307-.149-.59-.175-.84-.006-.046-.006-.087-.006-.128 0-.276.114-.534.266-.75l-.038-.023-.016.04c.054.023.111.027.157.037.052.008.085.022.096.041l.037-.03-.04-.015a.397.397 0 0 0-.03.164l.002.099-.01.084c-.009.03-.044.071-.078.112-.04.054-.074.108-.074.184l.007.07c.039.127.171.173.295.176l.104-.016c.112-.026.157-.113.15-.195 0-.087-.03-.176-.03-.264 0-.069.05-.321.086-.373l.046-.033.09-.045.009-.01.053-.115-.038-.02.032.034.063-.044.069-.056-.035-.024.035.024.033-.111.024-.09.054-.06a.147.147 0 0 0 .04-.11c-.003-.081-.05-.129-.082-.165-.042-.039-.064-.062-.064-.084h-.04l.002.045a.497.497 0 0 0 .335-.2c.069-.093.124-.202.185-.295l-.04-.024-.026.039a.518.518 0 0 0 .334.142c.179-.005.322-.13.46-.254.14-.127.279-.266.44-.31.11-.04.222 0 .39-.079l.062-.027-.052-.05c-.138-.106-.356-.136-.419-.195l-.032.032v.043c.343.009.68.075 1 .075.253 0 .502-.04.724-.187l.111-.074-.133-.01a7.506 7.506 0 0 1-.992-.173l-.009.048.004.045c.242-.007.67-.011 1.064-.088.388-.067.75-.205.84-.513l.034-.114-.098.062c-.237.143-.532.188-.846.19h-.021c-.421 0-.772-.176-1.115-.176h-.013l.013.042.021.04c.236-.115.481-.27.564-.534l.018-.059h-.063c-.145.009-.218.131-.325.17-.327.136-.88.062-1.31.16-.205.047-.317.158-.444.16l.004.046.014.041c.121-.043.27-.129.395-.235.117-.108.22-.244.224-.396 0-.1-.05-.2-.15-.293l-.11-.097.036.14.003.041c0 .039-.012.082-.09.147-.075.062-.219.141-.46.237-.28.113-.576.212-.853.367-.44.242-.641.623-.641.93 0 .202.08.374.235.46l.022-.045-.04-.003-.008.079c0 .247.161.425.266.569l.034-.027-.027-.037c-.121.091-.31.037-.486.08a1.07 1.07 0 0 0-.46.283l.032.038-.031-.038c-.066.063-.126.13-.184.193-.074.078-.112.175-.156.256-.14.23-.197.494-.298.729a2.796 2.796 0 0 0-.15.457 2.724 2.724 0 0 0-.093.687 2.406 2.406 0 0 0 .085.612v.006l.1.27.045-.015-.032-.035c-.513.378-.764 1.049-.764 1.646 0 .31.07.602.212.82a.738.738 0 0 0 .638.36v-.043l-.041-.022a.29.29 0 0 0-.03.13c0 .072.035.135.09.166.05.034.116.047.187.047a.7.7 0 0 0 .343-.1c.099-.063.182-.156.182-.28v-.013h-.043l-.033.024a.267.267 0 0 0 .136.082c.067.022.14.04.208.04.1 0 .207-.031.244-.139l.018-.051-.055-.005a.544.544 0 0 1-.313-.222l-.001-.002v-.005c-.164-.16-.401-.251-.936-.4l-.01.043.044-.01a.71.71 0 0 1-.026-.173c0-.237.153-.378.327-.53.165-.15.348-.314.348-.592v-.01h-.006l.006.004v-.003h-.006l.006.003-.042-.007-.016.043c.107.034.235.05.371.05.246 0 .5-.043.657-.108l-.02-.037-.047-.01c-.007.105-.012.189-.012.275 0 .124.016.237.073.345a.53.53 0 0 0 .137.166.327.327 0 0 1 .096.12.424.424 0 0 1 .012.127c0 .048-.004.096-.004.152 0 .096.017.21.107.312l.04-.028h-.053c.008.004-.023.065-.073.127-.154.195-.478.495-.478.495-.353.34-.774.42-1.19.42-.368 0-.73-.062-1.038-.062-.351 0-.632.104-.833.272a.851.851 0 0 0-.312.655c0 .335.194.697.624.981.362.247.742.335 1.052.436.314.103.545.22.65.52.02.063.027.126.027.186 0 .043-.008.086-.014.132l-.014.051h.06c.096 0 .165-.07.21-.157.067-.13.114-.31.188-.457.075-.146.169-.245.341-.245.288-.004.593.114.685.247.038.052.044.087.044.106l-.02.046c-.06.06-.278.088-.496.102-.22.023-.44.04-.554.143l.034.03-.03-.035a.424.424 0 0 0-.142.328c0 .106.029.21.097.289a.385.385 0 0 0 .29.129.635.635 0 0 0 .141-.015l.024-.011.01-.026a.305.305 0 0 1 .304-.23c.03 0 .065 0 .108.015l.011-.05-.022-.034c-.084.047-.125.112-.124.181 0 .075.048.137.11.182.059.05.143.077.22.077a.255.255 0 0 0 .213-.104l.005-.013.002-.008.007-.033-.028-.084-.016-.039-.041.007.028.032.1-.046c.084 0 .203.074.333.08l.05-.008c.194-.026.323-.224.323-.45v-.046h-.045l-.046.009c.086.42.251 1.163.674 1.811.418.649 1.106 1.19 2.238 1.19.527 0 .765-.274.948-.532.186-.258.32-.492.677-.492.28.003.478-.058.738-.243l.004-.005.002-.001c.128-.138.233-.448.5-.461l.112-.007-.084-.076c-.108-.09-.177-.129-.25-.129-.052 0-.095.026-.132.049-.044.023-.088.053-.163.073-.045.007-.088.016-.136.016-.08 0-.155-.01-.226-.01a.311.311 0 0 0-.127.019c-.095.032-.169.095-.266.146l.017.042.039.015c.062-.162.313-.252.502-.26h.005l.005-.003c.214-.075.29-.235.366-.366.078-.127.141-.226.371-.25l.103-.013-.078-.064a.453.453 0 0 0-.31-.137c-.177.004-.332.11-.517.183a.294.294 0 0 1-.12.024c-.053 0-.113-.008-.178-.008l-.068.002c-.087.013-.147.049-.21.073a.975.975 0 0 1-.22.09l.006.04.037.027c.135-.162.184-.35.321-.45l-.025-.037-.018.041c.035.01.087.015.143.015a.67.67 0 0 0 .288-.056c.09-.04.168-.123.165-.247 0-.036 0-.076-.014-.115l-.026-.082-.052.068c-.038.044-.06.047-.076.047-.031.004-.087-.024-.14-.07-.054-.034-.118-.081-.198-.081l-.079.015.017.039.046.008a1.5 1.5 0 0 1 .138-.41c.072-.139.165-.236.278-.231l.066.008c.047.015.072.054.087.118.028.102.02.252.049.381a.332.332 0 0 0 .085.171c.042.052.113.073.2.073h.044l.011-.004h.006c.044-.017.064-.06.057-.09l-.006-.072v-.01l-.029-.031-.039.02a.45.45 0 0 0 .41.234c.258-.004.53-.172.535-.432a.433.433 0 0 0-.074-.227l-.01-.017-.02-.004-.012.05-.036.02c.04.063.064.124.064.178 0 .092-.056.178-.137.239a.545.545 0 0 1-.31.103.372.372 0 0 1-.336-.189l-.02-.043-.05.036-.029.073.015.072v.004h-.006l.016.045-.003-.045h-.042c-.09 0-.13-.03-.16-.08-.048-.074-.05-.215-.062-.344-.009-.07-.012-.134-.036-.19a.237.237 0 0 0-.136-.126l-.092-.012c-.166.002-.28.133-.36.276-.077.153-.13.327-.141.444l-.014.079.073-.032.042-.009c.04 0 .092.03.148.069.056.04.109.089.19.089.047 0 .098-.03.146-.089l-.04-.025-.038.013.013.088c0 .086-.048.133-.118.166a.553.553 0 0 1-.248.049.566.566 0 0 1-.115-.01l-.017-.01-.018.016c-.173.127-.219.328-.342.465l-.089.105.133-.03a.82.82 0 0 0 .248-.092.418.418 0 0 1 .178-.064l.056-.005c.057 0 .117.009.177.01a.385.385 0 0 0 .157-.028c.193-.082.346-.178.48-.174.083 0 .16.028.253.106l.028-.03-.005-.048a.513.513 0 0 0-.439.298c-.077.135-.136.258-.316.327l.014.039v-.044c-.21.012-.486.098-.58.314l-.049.115.114-.056c.108-.06.18-.114.256-.141l.098-.016c.063 0 .139.016.226.016a.63.63 0 0 0 .34-.104c.046-.026.07-.037.09-.037.035-.004.086.017.19.11l.026-.04v-.039c-.337.025-.451.391-.56.49l.03.03-.022-.04c-.25.182-.418.23-.685.23-.41 0-.57.278-.752.533-.184.25-.378.488-.873.49-1.102 0-1.756-.522-2.168-1.144-.411-.633-.57-1.368-.653-1.78l-.09.009v.042c0 .196-.107.342-.25.361l-.033.005c-.094.004-.208-.071-.333-.071a.217.217 0 0 0-.164.064l-.011.014v.019l.028.082.013.034-.002.017.044.009-.036-.026c-.036.048-.084.064-.142.064a.335.335 0 0 1-.165-.053c-.046-.037-.073-.08-.073-.112 0-.03.013-.065.077-.107l.09-.055-.101-.026a.662.662 0 0 0-.13-.017.41.41 0 0 0-.398.302l.047.01-.012-.04a.517.517 0 0 1-.117.015c-.194 0-.296-.158-.305-.33a.34.34 0 0 1 .12-.263h.004c.072-.079.341-.103.584-.122.123-.011.243-.025.338-.053a.296.296 0 0 0 .12-.06.16.16 0 0 0 .055-.116.353.353 0 0 0-.066-.157c-.128-.174-.449-.282-.758-.287a.415.415 0 0 0-.326.15c-.115.13-.165.315-.225.467a.626.626 0 0 1-.092.178c-.027.045-.056.067-.096.067v.047l.045.007a.695.695 0 0 0-.023-.362c-.114-.336-.387-.472-.701-.577-.32-.105-.69-.192-1.03-.425-.41-.275-.581-.61-.581-.908 0-.447.387-.837 1.05-.837.296 0 .66.063 1.038.063.428 0 .876-.086 1.252-.446 0 0 .14-.131.287-.283.069-.073.145-.15.198-.221.057-.072.093-.122.098-.183v-.016l-.012-.014c-.074-.082-.086-.162-.086-.254 0-.05.004-.104.004-.152a.77.77 0 0 0-.015-.156c-.023-.07-.075-.117-.118-.158a.747.747 0 0 1-.125-.133.723.723 0 0 1-.06-.31c0-.076.004-.164.015-.266l.01-.073-.076.028c-.126.058-.382.099-.617.099-.13 0-.255-.015-.34-.043l-.054-.022-.005.054-.002.022c0 .228-.152.366-.322.519-.169.155-.356.32-.356.603 0 .059.008.127.027.197l.009.021.022.009c.537.148.757.238.892.376l.035-.03-.042.021a.587.587 0 0 0 .378.263l.004-.045-.044-.012c-.013.045-.068.073-.155.073a.674.674 0 0 1-.176-.03.245.245 0 0 1-.1-.054l-.084-.105V11.188c0 .082-.052.15-.14.206a.601.601 0 0 1-.293.085.288.288 0 0 1-.14-.036c-.032-.021-.045-.04-.047-.089l.02-.092.03-.063h-.069a.645.645 0 0 1-.565-.316c-.128-.202-.19-.474-.19-.773-.004-.573.237-1.217.729-1.573l.026-.022-.117-.305-.042.015.045-.011a4.04 4.04 0 0 1-.063-.3 2.834 2.834 0 0 1 .22-1.396c.109-.245.163-.501.29-.724.046-.084.089-.176.143-.236.058-.06.12-.13.183-.18a.936.936 0 0 1 .418-.269c.137-.04.349.022.52-.09l.038-.032-.026-.037c-.11-.146-.255-.317-.251-.514l.008-.065.004-.033-.03-.015c-.12-.066-.19-.2-.19-.379 0-.267.181-.616.6-.85.261-.147.554-.244.84-.363.245-.097.392-.179.479-.252.093-.068.127-.146.127-.215l-.003-.06-.05.01-.03.033c.089.083.119.157.119.226 0 .112-.078.232-.193.328-.114.1-.255.183-.366.221l.02.084c.172-.012.283-.12.46-.162.407-.094.962-.019 1.325-.164.14-.06.21-.163.289-.163v-.045l-.044-.008c-.066.22-.286.361-.517.476l.033.085-.012-.045.003.045h.01l-.013-.045.003.045-.003-.027v.027h.003l-.003-.027v.027c.314 0 .67.178 1.115.181h.021c.326-.003.635-.052.888-.202l-.02-.041-.045-.015c-.064.248-.39.386-.771.454-.382.073-.804.076-1.05.082l-.01.093c.24.053.773.153 1.007.172l.001-.048-.021-.034c-.205.132-.434.17-.678.17-.309 0-.645-.064-1-.07l-.122-.004.094.081c.11.093.319.114.418.203l.027-.035-.02-.04c-.133.064-.224.028-.373.068-.19.063-.336.21-.474.33-.137.13-.267.233-.4.233-.082 0-.169-.033-.277-.126l-.038-.03-.027.041c-.063.099-.12.207-.185.288a.379.379 0 0 1-.272.166l-.037.003v.04c.002.075.05.113.082.147.038.032.061.063.061.103l-.014.044a.255.255 0 0 0-.07.082l-.031.118-.02.073v.008l.009.003-.008-.01v.007l.008.003-.008-.01-.041.03-.081.058-.004.006-.06.114.043.02-.036-.033-.059.031-.09.065c-.056.096-.1.327-.1.424 0 .11.036.198.03.264 0 .059-.006.08-.085.106l-.078.013c-.102 0-.196-.045-.205-.108l-.01-.046c0-.042.021-.08.058-.124.033-.043.07-.084.097-.148a.492.492 0 0 0 .011-.108l-.002-.1c0-.04.002-.079.02-.135l.01-.024-.018-.02c-.036-.045-.1-.057-.148-.07-.052-.013-.105-.017-.135-.03l-.036-.013-.022.026c-.162.226-.286.502-.286.803 0 .046.003.09.007.135.035.277.18.555.18.833a.754.754 0 0 1-.068.293l-.052.11.112-.044c.479-.209.862-.298 1.178-.298.114 0 .222.014.326.04l.01-.048-.015.048.13.034.013-.045-.046.011c.038.179.104.342.178.485v.002h.006c.172.247.465.523.93.648.246.065.457.098.648.098.522 0 .864-.243 1.173-.658l-.037-.026-.012.047s.03 0 .078.013l.125.024.006-.045-.047-.016v.003l-.013.043.041.018c.1.042.21.05.287.096.184.095.393.282.613.586l.037.047.036-.04c.081-.1.243-.216.494-.444.152-.136.317-.263.436-.438.06-.107.12-.23.133-.366v-.007h-.028.028-.028.028c-.008-.1-.082-.152-.09-.2a.62.62 0 0 1-.03-.203v-.017l-.046-.004.045.007.008-.087.325-.425-.036-.031.023.034.08-.034.006-.045-.018.041.074.035.052.066.014.017.082-.005.06.011.046.031.064.09.018.018.09-.007.052.021.049.067.012.014.064.017.017.012-.017.367-.008.022c-.035.1-.117.176-.2.262-.044.045-.059.095-.086.144-.098.218-.228.435-.32.664-.145.34-.283.674-.489.984a1.423 1.423 0 0 1-.164.196l-.08.078-.022.023-.007.005-.003.006h.01-.01.01-.01l.031.026-.02-.037-.01.01.03.027-.02-.037-.047.033.034.04c.192.223.316.703.316 1.173 0 .277-.042.548-.124.762-.332.864-.7 1.023-.884 1.021a.383.383 0 0 1-.09-.012l-.038-.014-.018.033-.006.022c-.002.1.038.155.067.173.03.032.038.02.042.063l.043-.004-.043-.003v.014c0 .087-.07.127-.155.127-.082 0-.156-.04-.173-.107l-.004-.05c0-.043.013-.093.013-.15l-.016-.1-.004-.016-.014-.008-.065-.02-.047.007-.018-.016c-.107-.111-.185-.234-.185-.367 0-.06.016-.118.048-.185l.068-.125-.126.062a.892.892 0 0 0-.145.125c-.052.037-.093.062-.12.062l-.013-.004-.007.045.033.032c.09-.115.107-.322.186-.453l.02-.05-.046-.018c-.105-.032-.152-.118-.212-.225-.052-.11-.112-.24-.227-.324l-.027.032.009.048.076-.009c.088 0 .138.033.188.078.041.047.084.107.148.16l.083.06-.01-.102c-.02-.198-.122-.465-.336-.564l-.016.045.04.02c.101-.184.111-.555.171-.814l-.043-.012-.037.026c.041.07.128.211.22.351.095.142.185.27.271.321l.023-.036-.036-.026a.52.52 0 0 0-.084.3c0 .104.027.212.054.303l.025.065.046-.046c.068-.055.08-.14.089-.206.009-.073.02-.136.066-.177l.134-.054v-.048l-.042-.015a.517.517 0 0 0-.06.258c0 .128.033.244.033.329-.004.066-.013.111-.065.144l-.066.045.077.034c.137.053.196.203.33.315l.017.013h.017c.125-.013.19-.131.204-.256V12.029c-.006-.342-.27-.734-.27-1.108 0-.099.019-.193.066-.292l.022-.045-.05-.013c-.411-.139-.867-.322-1.058-.706l-.086.025c0 .213-.133.395-.285.599-.147.2-.3.42-.3.71 0 .09.052.216.117.383.216.51.632 1.395.632 2.285 0 .28-.039.56-.141.827l-.042.111.105-.051a.448.448 0 0 0 .13-.174c.038-.071.072-.151.105-.207v-.005c.055-.132.397-.411.797-.642.394-.239.859-.45 1.14-.483l.015-.005.016-.017c.094-.12.257-.238.418-.238.054 0 .113.015.172.051.094.062.158.234.198.418.047.184.072.378.15.492.113.157.303.182.479.216l.005-.042-.036.022.036-.022z" fill="#B68446"/>
            <path d="m22.325 5.551.013-.038a1.1 1.1 0 0 0-.346-.059.693.693 0 0 0-.183.022l.014.039.037-.016-.012-.054.009-.047.028-.056-.06-.007c-.05-.012-.11-.012-.178-.012-.13 0-.269.012-.347.046l.013.04.027-.032-.018.017.022-.013-.004-.004-.018.017.022-.013-.002-.023.015-.072.048-.058-.076-.009-.093-.004c-.29.004-.6.127-.75.336l.037.024-.002-.043c-.299.02-.449.2-.56.385l.036.02.035-.02a.411.411 0 0 0-.368-.207.47.47 0 0 0-.263.082.3.3 0 0 0-.117.246c0 .039.005.083.021.132l.04-.018-.02-.035a.295.295 0 0 0-.132.257.43.43 0 0 0 .062.213l.034.054.036-.05a.124.124 0 0 1 .093-.055v-.041l-.02.034.097.03.029.017.04-.01h-.04c.005.129.08.198.148.246.07.052.12.09.143.163l.04-.01-.02-.04c-.15.055-.286.119-.462.145l.012.04.003-.04c-.063-.011-.094-.054-.133-.11l-.032-.052-.033.045a.422.422 0 0 0-.099.253c0 .07.02.138.055.212l.035-.02-.032-.022a.353.353 0 0 0-.072.196c0 .174.146.31.324.31a.347.347 0 0 0 .178-.05l-.014-.038-.041.011c.05.228.161.45.28.58l.031-.03.015-.036c-.208-.075-.428-.262-.56-.432l-.078-.095.004.123c.026.673.754 1.087 1.46 1.087.52 0 1.042-.226 1.272-.756l.02-.044-.05-.01c-.2-.036-.402-.04-.587-.066l-.005.04.04.02c.039-.082.19-.099.349-.105a.767.767 0 0 0 .224-.028c.07-.018.133-.061.154-.138l.015-.04-.15-.031-.072-.028-.014.038.019-.038c-.043-.022-.057-.022-.068-.053l-.037.018.034.019.037-.052-.034-.021v.039l.062.028a.188.188 0 0 0 .084.075l.003.003.1.012h.008l.096-.002a.565.565 0 0 0 .176-.046c.056-.019.102-.049.15-.074h.006a.393.393 0 0 0 .124-.165l-.04-.014.038.022.032-.052.045-.029v-.002l.037-.034-.025-.028.025.035.086-.077-.023-.031.023.031c.04-.031.124-.066.15-.155l.005-.03-.025-.017-.075-.014c-.086.002-.178.037-.235.037l-.04-.008-.033.022.029.033a.674.674 0 0 0 .25-.466v-.075l-.067.039-.047.017-.014-.005h-.007l-.002.005.009-.005h-.007l-.002.005.009-.005-.037.024.028.032a.68.68 0 0 0 .175-.349l.02-.09-.084.047-.048.017-.04-.023-.035.023.028.031c.16-.151.225-.436.228-.647v-.023l-.02-.01c-.236-.16-.388-.2-.642-.194v.038l.045-.004v-.026l.015-.064.034-.046-.057-.02-.013.04-.029-.026a.175.175 0 0 0-.034.116v.03l.003.045h.036c.25 0 .361.024.593.176l.025-.032h-.037c0 .192-.075.47-.202.588l-.027.02.017.032a.14.14 0 0 0 .112.054l.092-.024-.023-.036-.04-.007a.585.585 0 0 1-.154.306l-.019.018.015.031.089.042.096-.03-.02-.035h-.046c0 .1-.092.312-.217.396l-.035.03.025.033.105.04c.079 0 .176-.038.235-.038l.033.008.02-.036-.038-.01c-.006.036-.07.072-.121.11l-.086.075h-.002l-.038.034.027.033-.027-.04-.047.04-.004.001-.038.057-.006.008a.287.287 0 0 1-.104.127l.028.039-.021-.039a.596.596 0 0 1-.292.11l.001.046-.001-.046-.09.007-.09-.013-.004.04.014-.038-.056-.052a.165.165 0 0 0-.12-.059H21.798l-.046.074-.012.015.009.022c.019.062.071.081.103.093l.005.004.074.03h.008l.107.026.009-.045-.038-.011c-.014.045-.04.063-.1.082-.083.023-.21.019-.332.027-.116.02-.23.042-.294.147l-.026.051.057.007c.19.029.39.033.577.067l.008-.038-.035-.016c-.216.488-.698.7-1.195.705-.682 0-1.363-.401-1.38-1.011l-.042.003-.032.023c.144.183.364.373.6.459l.039-.069a1.233 1.233 0 0 1-.257-.54l-.013-.055-.044.029a.319.319 0 0 1-.147.032c-.136 0-.236-.097-.236-.222 0-.048.013-.095.05-.147l.016-.019-.01-.024a.426.426 0 0 1-.045-.176.33.33 0 0 1 .075-.199l-.03-.023-.038.023c.04.06.093.125.19.145h.015c.186-.03.336-.093.478-.145l.032-.017v-.037c-.032-.11-.113-.159-.174-.208-.063-.05-.11-.093-.12-.179v-.011c-.017-.052-.056-.067-.09-.075l-.077-.017-.01-.009h-.009a.211.211 0 0 0-.163.087l.039.025.03-.021a.345.345 0 0 1-.048-.171c0-.084.034-.15.091-.185l.03-.017-.012-.035-.018-.099c0-.08.034-.133.085-.183a.387.387 0 0 1 .212-.063c.121 0 .233.054.297.162l.034.063.037-.06c.114-.177.224-.323.49-.339l.025-.004.01-.016c.12-.176.416-.3.68-.3l.085.006.004-.041-.032-.024-.029.119.03.087.015.01.019-.01c.058-.023.194-.04.318-.04.06 0 .12.004.168.012l.008-.04-.04-.02-.017.088.018.087.013.034.034-.01a.7.7 0 0 1 .16-.018c.102 0 .224.02.326.057l.008-.044-.029-.025.03.025zM17.827 9.873c.113 0 .11.125.218.125.034-.186-.218-.33-.41-.23-.22.404-.466.636-.654.822a.87.87 0 0 1 .434.26c.172-.269.472-.41.722-.598-.22-.003-.384-.153-.344-.362l.034-.017zM16.424 10.432a.888.888 0 0 1 .006-.208c-.25-.25-.497-.168-.73.061.008.173.055.348.12.503.086-.323.428-.399.619-.248M18.88 9.536h.004zM18.97 9.877h.005-.006z" fill="#B68446"/>
            <g transform="translate(0 36.73)">
                <mask id="kdhexerceb" fill="#fff">
                    <use xlink:href="#9pm1sap0fa"/>
                </mask>
            </g>
            <g transform="translate(0 36.73)">
                <mask id="gdlgfw860d" fill="#fff">
                    <use xlink:href="#x2mbetwyuc"/>
                </mask>
            </g>
            <path d="M20.904 3.688c-.332-.191-.598-.22-.801-.155-.516.166-.555.295-.861.192.215.159.318.159.633.037.434-.178.648-.178 1.03-.074M18.53 4.217s.542.285 1.019.05c.446-.214.477-.303.78-.23-.155-.226-.356-.194-.648-.037-.28.155-.646.304-1.151.217M21.206 2.648c-.108.232-.32.54-.759.603-.48.069-.572-.026-.77.192.108-.23.276-.281.58-.298.3-.02.734-.161.949-.497M18.105 3.998a.516.516 0 0 1 .203-.629c.381-.252.64-.287.968-.416.303-.12.473-.284.54-.49 0 0 .027.434-.618.673-.91.338-.948.53-.827.937.039.144-.135.246-.266-.075M19.083 6.716c.085.068.137.192.226.228.128.046.29-.014.433 0-.233-.17-.402-.427-.823-.353.044.027.09.07.164.125M16.743 5.85c.094.267.4.466.651.36l.034-.057c.03-.068.066-.127.103-.195l.047-.07c-.135-.009-.56-.199-.5-.509-.197.159-.259.336-.335.472M24.093 7.824a1.077 1.077 0 0 1-.203.422c.341-.1.67.145.668.364l.234-.463c-.045-.265-.42-.435-.7-.323M22.317 10.314s.255.17.505.243c.078.037.78-.615.745-.766-.034-.145-.25-.45-.322-.515-.05-.136-1.004.823-.928 1.038M17.487 7.925c-.174.048-.643.327-.643.386 0 .385.234.907.531.965.094.017.333.017.55-.054-.287-.199-.522-.933-.438-1.297M22.96 12.251s.362.335.323.705c0 0 .25-.158.415-.453a.467.467 0 0 0-.479-.474s-.12.228-.26.222M23.821 13.646c.06.118.103.31.074.49.212-.326.41-.253.41-.253.098-.292-.176-.687-.176-.687v-.008c-.063.015-.127.038-.127.038a.534.534 0 0 1-.12.031c-.184.042-.505.215-.608.286.19.056.401.117.547.103M23.774 14.59h-.003l-.01-.01c-.007-.012-.145-.188-.44-.122l-.026.005-.003-.017c-.005-.01-.117-.258-.563-.168l-.01.004-.013-.01a.399.399 0 0 0-.399-.124.9.9 0 0 0-.123.173c.06.022.113.06.126.194.051-.067.123-.082.254-.086h.012l.011.013c0 .004.07.067.093.18a.524.524 0 0 1 .223-.086c.05 0 .139.093.14.213a.4.4 0 0 1 .232-.113c.062.071.123.186.102.273.068-.04.152-.118.308-.108l.01.046c.061.096.045.125.065.163.11.037.643.03.526-.343-.168.21-.314-.158-.512-.077M16.94 3.612l-.082-.157-.014.172-.17-.054.116.136-.168.075.18.014-.063.166.142-.112.085.159.015-.178.176.06-.116-.136.16-.08-.181-.015.063-.165zM18.733 5.995l-.033.09.076-.058.047.09.007-.1.092.03-.06-.078.086-.04-.1-.008.036-.092-.077.064-.04-.087-.013.099-.093-.03.061.069-.09.045zM18.885 5.575l-.049.135.112-.092.065.123.017-.139.135.046-.093-.11.13-.058-.145-.006.05-.139-.11.093-.064-.127-.014.144-.135-.047.091.106-.134.062zM17.326 4.51l-.045.126.106-.087.062.124.013-.136.136.04-.093-.099.133-.062-.144-.009.05-.126-.114.085-.06-.122-.012.138-.133-.044.088.106-.127.053zM16.153 3.718l.098-.266-.23.18-.123-.248-.026.278-.275-.089.187.211-.265.122.293.023-.104.265.23-.178.122.249.03-.277.274.085-.184-.212.266-.124zM18.963 6.316l-.025.071.064-.048.028.063.008-.071.08.024-.054-.054.074-.039-.078-.002.023-.076-.062.05-.034-.062-.005.071-.076-.026.048.058-.069.037zM16.5 4.637l-.07.173.148-.118.084.159.011-.176.176.062-.116-.142.17-.075-.187-.014.06-.17-.14.119-.083-.164-.018.179-.172-.054.12.131-.171.076zM20.723 6.686h-.125c.048-.161.029-.362-.034-.449l-.012-.021c.07 0 .17.326.17.47m-.507-.255c.038.238.212.36.407.36.065 0 .134.063.194.083.147.06.256-.051.394-.051-.111 0-.28.05-.374-.04a.267.267 0 0 1-.08-.168c-.148-.711-.597-.585-.54-.184" fill="#B68446"/>
            <path d="m20.245 6.062.03-.015a.287.287 0 0 1 .182-.032c.126.02.22.155.289.347.025.082.115.126.212.126.045 0 .1-.021.14-.044-.065.019-.188.001-.233-.052-.096-.091-.141-.412-.368-.487-.15-.044-.29.075-.272.142l.02.015zM19.678 6.378c0 .334.576.541.319.798-.044.04-.092-.014-.14-.016-.111.192-.56.054-.596.321.215-.053.467.102.636-.08.076-.02.09.033.162.017.11-.079.155-.234.376-.202-.229-.237-.19-.57-.495-.734 0-.287-.317-.235-.483-.348-.022.019-.08.139-.039.178.09.08.18-.011.26.066M21.792 12.167c.056-.237-.043-.386-.191-.386a.164.164 0 0 1-.043.106c-.088.093-1.226.127-1.636.04.031.18.026.324-.056.45.961.192 1.87-.019 1.926-.21M19.284 11.56a.545.545 0 0 0-.566.547c-.01.251.27.685-.013.948-.17.16-.54.152-.79.025.016.042.042.089.063.127a.705.705 0 0 0-.484-.032l.062.207-.292.011.062.312-.293.012.035.333-.23.027.085.384-.036.259.015.081.181-.12.198-.516c-.105.159.297-.783.805-.82.09.106.21.192.33.243.215.09.433.079.6-.025.226-.142.321-.457.278-.812-.033-.235-.211-.535-.203-.816 0-.15.17-.24.315-.177.098.05.145.18-.005.489l-.004.097c.015.04.046.072.085.095h.005l.01.013c.072.023.145.002.206-.068a.4.4 0 0 0 .082-.239c0-.32-.18-.577-.501-.585" fill="#B68446"/>
            <path d="M15.691 13.257c-.298-.115-.517-.28-.618-.455a.465.465 0 0 1-.067-.23c0-.15.082-.29.218-.354.027.065.063.13.107.188a.259.259 0 0 0-.033.13c0 .11.062.206.145.284.129.113.33.202.576.273.245.065.546.105.883.105l.066-.002c-.079.09-.151.188-.223.3l.004-.02a3.232 3.232 0 0 1-1.058-.22m1.847-.249a.51.51 0 0 0-.317-.03c-.108.007-.216.015-.319.015-.424 0-.786-.071-1.038-.166a1.121 1.121 0 0 1-.28-.161l-.065-.087.05.03c.122.086.272.166.713.218-.735-.123-1.05-.778-.91-1.12-.074.02-.088.04-.172.045a.506.506 0 0 0-.031.265l-.004-.005a.604.604 0 0 0-.366.56c0 .113.033.227.095.34.143.231.396.411.72.541.291.12.647.194 1.023.223-.059.105-.102.208-.116.282-.014.133.05.12.106.183l.122.077v-.046c-.087-.098.182-.753.789-1.164M23.753 16.04c-.198.245-.28.35-.436.463-.106.07-.163.097-.263.144a.548.548 0 0 0 .296-.077c.079-.05.273-.224.428-.381.142-.12.255-.166.412-.16.21.012 0-.032 0-.032l-.266-.033-.17.077zM22.301 7.042l-.068-.02a.78.78 0 0 0 .045-.529.806.806 0 0 0-.37-.485.79.79 0 0 0-.521-.097 5.802 5.802 0 0 0-.22-.14l.11-.037a.97.97 0 0 1 .735.095.974.974 0 0 1 .451.594c.076.298.014.6-.162.826-.036-.043-.04-.136 0-.207zm-.164-.013a.27.27 0 0 0-.147.103c-.012-.083-.005-.148.047-.213l-.057-.01a.502.502 0 0 0 .03-.348.503.503 0 0 0-.302-.338c-.061-.09-.139-.17-.225-.24a.723.723 0 0 1 .385.1.71.71 0 0 1 .331.43.709.709 0 0 1-.062.516zm-.252-.118c-.095.02-.188.073-.196.16-.046-.081.008-.165.063-.233.096-.117.105-.302.034-.476a.435.435 0 0 1 .139.221.424.424 0 0 1-.04.328zm-.2.937.012-.004.005.004h-.018zm.829-.735-.05.03a1.044 1.044 0 0 0-.413-1.381 1.034 1.034 0 0 0-.798-.111c-.058.017-.115.042-.173.066-.159-.099-.311-.202-.415-.332l.012-.122c-.216.095-.452.288-.485.426.221-.133 1.377.358 1.377.926 0 .046-.099.186-.092.237-.035-.032-.122-.146-.12-.198-.12.074-.207.336-.112.459.074.093.173.119.288.119-.239 0-.353.32-.525.443.05.013.147-.01.201-.024-.074.112-.274.185-.283.325.01-.098.316-.04.361-.053.047-.017.053-.08.104-.067l.08.067.07-.008-.018.06c0 .165.188.215.368.222V8.07l-.005-.074.021-.006.135-.065.104.022c.315-.01.477-.184.628-.364l-.088-.005-.08-.038c.051.002.122-.06.166-.087a2.54 2.54 0 0 0 .17-.088c.112-.065.203-.151.212-.285-.16.152-.447-.042-.64.033zM20.564 3.545c.124.033.322.044.44.044.026.073-.1.066-.1.066l-.05.015-.212-.062-.078-.063zM19.897 7.966c.129.07.301.1.471.1.14 0 .274-.022.386-.07l-.035-.081a.85.85 0 0 1-.35.066.977.977 0 0 1-.437-.09l-.035.075zM19.946 8.134c.131.068.3.1.467.1.135 0 .264-.02.373-.068l-.032-.075c-.096.035-.215.06-.34.06-.158 0-.315-.03-.427-.086l-.041.07zM19.987 8.31c.12.087.287.124.451.124.164 0 .33-.037.454-.095l-.038-.075a.977.977 0 0 1-.416.083c-.156 0-.305-.032-.4-.1l-.051.064zM22.195 12.154s-.158-.106-.256-.334c-.09-.224-.203-.283-.203-.283s.186-.025.26.042c.076.065.191.195.191.195s.012-.206-.118-.36a.738.738 0 0 0-.17-.152l.164-.778.435.63s-.048.217-.032.372c.011.051.047.164.047.164s.04-.014.054-.15a.314.314 0 0 1 .257-.286s-.09.208-.057.395c.041.187.063.366-.028.414 0 0-.347-.186-.544.13M22.482 12.95s.237-.091.546.063c0 0-.109-.006-.099.047.01.055.108.119.099.186 0 .076-.023.196-.172.196-.137 0-.276-.111-.239-.239.033-.134.006-.16-.008-.19l-.127-.062zM22.115 15.868c-.53 0-.994-.3-1.328-.603a2.06 2.06 0 0 1-.173-.18l-.013-.019c.13-.008.253-.019.359-.032.458.597 1.465.688 2.048.095.12.069.222.144.31.224-.433.377-.836.515-1.203.515zm-1.146-.106a.17.17 0 0 1-.2-.103.174.174 0 0 1 .032-.145c.083.065.168.123.25.176l-.082.072zm.538-.82c.378.208.648.205 1.001-.046.115.044.227.09.322.138-.568.42-1.154.463-1.663-.024.133-.023.243-.043.34-.069zm.515-.21c.1.035.198.065.288.097-.148.107-.38.12-.561.044a.944.944 0 0 0 .273-.14zm-2.375 1.148a4.411 4.411 0 0 1-.16-.423l-.021-.063a.259.259 0 0 1 .319.174.262.262 0 0 1-.138.312zm.854.438a.207.207 0 0 1 .253.134.207.207 0 0 1-.138.256c-.104.034-.219-.033-.253-.134a.208.208 0 0 1 .138-.256zm-.342-2.51s.16-.266.314-.266c0-.158.273-.316.273-.316s.257.192.257.316c.132 0 .31.255.31.255s-.168.268-.31.268c0 .156-.257.31-.257.31s-.273-.173-.273-.31c-.129 0-.314-.257-.314-.257zm-.063-.767c-.046-.019-.143-.125-.118-.232.06.004.12.004.181.012.03.115.163.177.17.18l.012.006.006-.006a.326.326 0 0 0 .154-.17l.028.004c.059 0 .12-.007.177-.007.018.093-.03.18-.134.232l-.065-.092c-.006.101-.166.21-.166.21s-.177-.109-.177-.21l-.068.073zm-.148 1.504a.177.177 0 0 1-.224-.116.178.178 0 0 1 .08-.203c.051.105.101.21.166.31l-.022.01zm.49-1.713a.237.237 0 0 1-.097.113.226.226 0 0 1-.119-.119c.07.002.146.002.216.006zm.509-.02c.041.112.18.156.185.161l.01.004.013-.009c.003-.002.123-.077.13-.2.057-.009.11-.022.172-.03.031.09.01.198-.084.27l-.073-.087c.004.097-.137.226-.137.226s-.177-.095-.19-.188l-.063.075c-.04-.016-.14-.101-.126-.208.055 0 .112-.007.163-.013zm.28-.031a.217.217 0 0 1-.092.135c-.03-.013-.102-.045-.124-.107.07-.01.144-.017.216-.028zm.42-.1c.06.121.244.168.27.168.026.075.045.158.045.158s-.238-.058-.26-.158l-.055.09a.218.218 0 0 1-.144-.215c.053-.01.098-.03.144-.044zm.201-.055a1.4 1.4 0 0 1 .05.164c-.046-.01-.15-.049-.19-.125.05-.014.095-.025.14-.039zm1.782 2.541a4.47 4.47 0 0 0-1.548-.637l-.019.038-.026-.073c-.453.375-1.279.392-1.599.381l-.067-.092a3.4 3.4 0 0 0 .555-.026c.047-.07.185-.234.283-.234 0 0-.007-.139.248-.324 0 0 .285.164.279.302 0 0 .056.002.108.024.07-.033.136-.068.185-.101l.013-.09.013-.124c-.232-.116-.232-.26-.232-.26-.1.028-.3-.214-.3-.214s.035-.07.101-.161c.06-.089.166-.1.166-.1-.01-.145.19-.297.213-.308a5.995 5.995 0 0 0-.135-.554h.004l-.004-.012-.016-.033-.013-.037a3.91 3.91 0 0 1-1.31.21c-.307 0-.581-.028-.774-.058-.091-.016-.176-.026-.227-.036a1.437 1.437 0 0 1-.11-.034l.004.06v.016h.002v.024s.074.024.19.043a.372.372 0 0 1-.157.22l.017.092c.002-.009.198-.159.219-.301.056.008.117.017.186.024.026.1-.007.185-.106.252-.04-.01-.08-.093-.08-.093.01.1-.189.256-.217.282.048.256.123.52.228.772l-.019-.007s-.106.112-.063.232c-.124.04-.187.294-.187.294s.212.157.32.126c.03.11.29.182.29.182s.027-.03.062-.078c.162.246.358.465.57.65l.003.08c-.11.034-.162.252-.162.252s.184.144.275.115c.034.096.258.159.258.159s.13-.142.116-.248l.039.02.01.04c.017.085.059.304.059.58 0 .31-.07.68-.242 1.031-.345-.14-.628-.385-.853-.662.071.042.155.07.214.056.036.128.33.204.33.204s.193-.211.151-.356c.128-.038.205-.33.205-.33s-.233-.18-.353-.14c-.036-.115-.322-.217-.322-.217s-.204.223-.16.367c-.09.03-.159.17-.19.256a3.279 3.279 0 0 1-.251-.405c.062-.088.15-.242.11-.362.163-.056.27-.43.27-.43s-.309-.238-.46-.191c-.031-.116-.276-.218-.374-.256a6.861 6.861 0 0 1-.095-1.163v-.127h-.079v.127c0 .1.002.246.007.413-.174-.461-.808-.398-1.169-.219.31.1.434.276.403.403 0 0 .546-.119.785.07.018.238.053.503.118.718 0 0 .102.455.365.97.26.516.684 1.102 1.332 1.355l.005-.022.158.077c.207-.398.26-.827.26-1.167 0-.22-.022-.41-.046-.528.083.037.17.073.262.095.02.097.052.309.052.578 0 .32-.052.717-.24 1.08l.156.063c.202-.396.256-.806.256-1.143 0-.231-.023-.414-.042-.537.048.01.105.017.158.024.007.017.026.06.033.137.04-.006.108-.038.158-.137l.07-.005c-.009.037-.05.153-.215.216.004.047.009.106.013.176 0 0 .168.06.283-.143 0 0-.031-.05-.097-.074.02.006.092.002.21-.203.338-.069.707-.256 1.072-.604l-.016-.017.022-.027.101-.186z" fill="#B68446"/>
            <path d="M20.737 14.043a.24.24 0 0 0 .24-.239.24.24 0 1 0-.48 0c0 .131.105.24.24.24M21.844 13.686a.187.187 0 0 0 .193.197l.043-.005c0-.122-.011-.248-.029-.382-.037 0-.2.012-.207.19M21.304 14.698c.123-.028.238-.06.342-.097a.214.214 0 0 0-.143-.056.204.204 0 0 0-.199.153M22.055 16.72a3.4 3.4 0 0 1-.018.274c.043-.007.103-.034.169-.127 0 0-.042-.117-.151-.146" fill="#B68446"/>
            <path d="M22.246 16.684a.19.19 0 0 0 .113-.066c-.097-.208-.304-.157-.304-.157.004.068.004.132 0 .192.055.014.165.061.22.219 0 0-.11.176-.246.187a1.01 1.01 0 0 1-.032.19.296.296 0 0 0 .286-.097c-.014-.046-.068-.093-.068-.093.092.015.248-.173.248-.173-.13-.204-.217-.202-.217-.202M22.146 17.524a.484.484 0 0 0 .116-.06c-.1-.22-.272-.179-.272-.179a1.77 1.77 0 0 1-.042.192c.05.01.154.047.198.21h-.095s0-.083-.13-.133c-.035.102-.07.15-.07.15.295.062.45-.026.45-.026-.068-.147-.155-.154-.155-.154M25.239 7.443l-.03.009.01-.147c.253-.116.381-.345.381-.626 0-.389-.322-.71-.715-.71a.716.716 0 0 0-.71.71c0 .079 0 .144.026.218l-.108.136a1.572 1.572 0 0 1-.046-.354.837.837 0 1 1 1.191.763m.788-1.111c-.004-.05.122 0 .16.047-.047-.269-.342-.316-.523-.244l-.063-.072c.115-.093.301-.15.453-.078-.16-.382-.362-.192-.4-.263-.012-.025.05-.074.133-.07-.181-.132-.463-.056-.586.143l-.082-.021c.013-.101.202-.282.365-.319-.412-.204-.514.045-.584.045-.037 0 .021-.13.072-.19-.275.044-.407.286-.413.497-.044.019-.056.023-.098.045a.778.778 0 0 1 .134-.493c-.48.087-.363.404-.427.404-.031 0-.053-.16-.024-.204-.185.093-.191.411-.05.633l-.05.1c-.138-.09-.196-.317-.179-.466-.247.247-.082.42-.129.471-.032.029-.069-.036-.082-.124-.095.24.07.489.3.573l.005.098a.691.691 0 0 1-.374-.24c0 .341.17.387.17.446 0 .025-.068.04-.114-.01a.37.37 0 0 0 .337.261l.021.005c-.026-.054.192-.371.318-.427l-.017-.062a.565.565 0 0 1 .093-.438c.11-.167.29-.26.49-.26.115 0 .234.03.327.094.268.181.34.552.16.82a.702.702 0 0 1-.247.21c.117.041.018.355-.006.38l.093-.033a.394.394 0 0 1-.16.358c.37-.032.366-.25.442-.278.058-.02.045.116.004.14.168-.037.183-.395.134-.523.002-.01.04-.035.062-.097a.687.687 0 0 1 .095.426c.31-.276.134-.504.185-.556.031-.03.1.097.1.172.12-.187.02-.486-.247-.585-.002-.04 0-.055-.007-.101.164.021.331.122.387.282.037-.47-.168-.414-.178-.496M20.608 9.156c-.08 0-.184-.016-.28-.033-.89-.127-1.401-.989-1.409-1.435l.116.03c.124.5.408.876.8 1.088.146.086.311.146.5.163.042.01.082.018.13.025a1.816 1.816 0 0 0 .603-.054c.435-.082.755-.29.912-.65l.128.033c-.183.528-.766.833-1.5.833zm.492.572-.01.007c-.079.07-.173.13-.268.174l-.003.007c-.095.04-.194.073-.296.094h-.002a2.172 2.172 0 0 1-.186.022v-.04l.028.015a.103.103 0 0 0 .11-.088c.012-.06-.03-.107-.083-.118-.055-.004-.108.033-.116.09l.007.04-.03-.012c-.059-.003-.105.035-.108.088l-.008.012a.518.518 0 0 1-.127-.026l-.095-.183-.18.09-.07-.04.015-.056c0-.05-.037-.088-.086-.1l.038-.077a.097.097 0 0 0-.065-.094l.012-.05c0-.054-.03-.095-.08-.102l.02-.066c0-.047-.025-.086-.068-.098l.017-.058a.096.096 0 0 0-.078-.096l.013-.053-.015-.054.067-.023c.107.036.134.155.268.175-.08.299.094.402.167.592.191-.097.525-.047.53-.327.142-.018.264.036.362 0a.337.337 0 0 0 .124.1l-.018.044v.02l-.03-.01c-.059-.01-.107.032-.116.088v.01l-.022-.004c-.055-.012-.104.03-.116.084v.017l-.034-.017a.102.102 0 0 0-.11.088.092.092 0 0 0 .08.114c.056.01.11-.03.112-.084v-.017l.04.014a.1.1 0 0 0 .115-.085v-.013l.022.006a.097.097 0 0 0 .112-.09v-.015l.034.01a.105.105 0 0 0 .114-.086v-.01c.048.016.102.027.15.046a2.159 2.159 0 0 1-.137.145zm-1.245.756c-.012.052.02.093.063.11a.115.115 0 0 0-.075.08c0 .054.029.097.07.114l-.055.08.004.05c-.045.007-.091.02-.138.023a.567.567 0 0 0-.175.08l-.062.049-.021-.069a.47.47 0 0 0-.12-.163c-.044-.05-.095-.093-.144-.145l-.009-.024.036.006a.103.103 0 0 0 .101-.104l-.005-.024c.052.004.102-.03.112-.08l-.015-.065.027.007c.055 0 .1-.052.1-.108l-.015-.049c.045 0 .088-.041.096-.09l.017.01.086.183.165-.081.007.001h.013l-.01.024a.115.115 0 0 0 .045.103c-.048 0-.091.03-.098.082zm-.794-1.557c.056.013.104.025.155.032l-.014.05c0 .054.033.093.08.104l-.018.046c0 .046.03.082.073.095l-.017.06c0 .05.038.093.08.1l-.023.068c0 .044.03.077.066.093l-.016.052c0 .05.039.095.09.101l-.02.018a1.233 1.233 0 0 1-.436-.82zm.016-1.204.006.006-.022-.006h.016zm3.327.624c-.382-.221-.871-.207-1.035-.207l-.05.005.01.023-.007.022h.047c.09 0 .278 0 .498.04-.028.049-.091.159-.17.238-.302.315-.939.501-1.543.295-.757-.254-.849-.806-.849-.806s.068.043-.093-.148c-.163-.196-.445-.17-.445-.17l.017.036a.616.616 0 0 0-.323.161c.064.1.24.2.42.23-.045.126.183.266.19.346.003.034-.117.148-.133.228-.019.093.003.148-.039.225-.028.031-.034.054-.034.104v.079c0 .06.034.111.082.141a.187.187 0 0 0-.063.145l.001.021v.029c0 .103.078.183.176.189l-.014.07.002.026-.002.027c0 .105.085.19.19.19l.024-.003v.059c0 .095.076.178.166.193l-.003.016.013.049a.101.101 0 0 0-.092.101l.017.056-.012-.004a.105.105 0 0 0-.119.08l.004.04h-.006c-.056 0-.1.044-.1.098l.013.045h-.009l-.008-.017a.36.36 0 0 1-.064-.17.807.807 0 0 0-.03.217l-.027.066.01.037-.023-.004a.104.104 0 0 0-.106.1l.003.015-.04-.01a.1.1 0 0 0-.098.1l.006.033-.056-.018a.1.1 0 0 0-.103.101v.004l-.062-.026a.107.107 0 0 0-.102.093l-.08-.039-.082.042-.08-.042-.022.005-.037-.096c-.118-.047-.435.294-.29.382.102.18.224.345.496.565-.18 0 .05.322-.186.322-.059 0 .038-.17-.066-.124a.568.568 0 0 0-.21.562l.1.157c.088-.36.415-.465.724-.364-.152-.388-.103-.682.063-.843a.785.785 0 0 1-.504-.394l.012-.012.083.043c.056 0 .094-.043.101-.097l.08.043c.057 0 .104-.045.104-.099l-.004-.002.065.016c.054 0 .101-.042.101-.096l-.004-.033.052.02a.103.103 0 0 0 .104-.103l-.005-.009.04.005c.05.004.09-.033.103-.078.087.185.256.326.297.537h.004c.15-.154.363-.186.532-.294l.08.051h.028l-.024.048a.107.107 0 0 0 .091.114l.044-.004-.01.029c-.01.056.031.108.09.12l.033-.008-.01.032c0 .053.028.107.09.116l.07-.018-.016.031a.098.098 0 0 0 .083.118l.063-.01c.01.042.036.077.089.084.038.006.078-.018.099-.056a.104.104 0 0 0 .08.067.097.097 0 0 0 .113-.088v-.003l.056.028a.107.107 0 0 0 .117-.09l-.003-.029.003.002a.099.099 0 0 0 .127-.066l.006-.042c.054.009.103-.031.106-.08v-.042a.104.104 0 0 0 .093-.099.096.096 0 0 0-.096-.097.098.098 0 0 0-.097.097l.004.022a.101.101 0 0 0-.098.087v.02c-.048-.004-.094.024-.105.071l-.008.05-.019-.006c-.056-.007-.107.03-.111.085v.005l-.058-.03a.117.117 0 0 0-.107.056l-.077-.064-.062.007c-.007-.04-.04-.073-.087-.082l-.066.018.012-.034c.01-.052-.03-.106-.087-.116h-.039l.01-.029c.01-.06-.03-.106-.086-.114h-.044l.01-.027c.011-.053-.03-.104-.088-.11h-.026l.017-.048-.037-.094a.65.65 0 0 0 .105-.234.325.325 0 0 1-.127.106l-.064-.071.055-.08c.009-.047-.02-.09-.059-.11.039-.01.06-.04.068-.082a.1.1 0 0 0-.047-.096.1.1 0 0 0 .101-.09v-.018c.045.002.083.006.136.006l.047.045c.085.06.205.035.26-.053l.018-.041.013-.004.018.013a.194.194 0 0 0 .26-.057l.035-.106.014-.008c.09.056.201.032.257-.058a.221.221 0 0 0 .026-.128l-.004-.074a.17.17 0 0 0 .177-.076.17.17 0 0 0 .022-.116l-.001-.056c.108-.098.226-.235.136-.412.138-.069.267-.133.363-.243.222.144.451-.052.659-.084-.004-.125-.09-.32-.186-.446h.006c.226.136.396.29.517.418.052.063.099.114.126.157l.034.039.012.017.04-.026s-.193-.379-.69-.668zM17.183 12.372a.219.219 0 0 0-.207-.227.224.224 0 0 0-.233.203.22.22 0 0 0 .211.235c.12.003.222-.09.229-.211" fill="#B68446"/>
            <path d="M18.052 12.052c-.052.09-.155.132-.27.093l.023-.106c-.074.061-.256.013-.256.013s-.029-.193.047-.256l-.098-.009c-.014-.04.003-.191.127-.232l.036.045.055.073c-.09.096-.043.25-.043.257l.007.011.005.004c.004.007.148.064.251-.015l.1.099.016.023zm-.155-.155c-.063.038-.148.02-.176.01-.01-.035-.024-.13.028-.186.038.048.085.104.148.176zm.302.165a2.587 2.587 0 0 1-.417-.45c-.04-.046-.058-.087-.07-.112l-.008-.02-.006-.007-.083.026.01.026c-.468.26-.693.226-1.195.18-.627-.057-.936-.05-.936-.05l.003.053c.035-.007.112-.013.229-.009l-.01.041a.214.214 0 1 0 .428 0l-.005-.015c.109.009.228.021.368.037 0 0-.144.213-.314.238 0 0 0 .137-.256.288 0 0-.237-.158-.243-.308 0 0-.122-.016-.191-.152.065.896.779 1.03 1.24 1.043h.106c-.076-.061-.172-.168-.164-.254-.139-.003-.313-.273-.313-.273s.17-.265.331-.26c.01-.157.293-.31.293-.31s.255.206.255.333c.13.009.305.277.305.277s-.185.264-.327.261c-.008.093-.098.181-.17.234l.768.045s-.087-.114-.045-.402c.038-.234.232-.392.3-.443l.059.051.058-.068z" fill="#B68446"/>
            <path d="M18.954 35.808a.117.117 0 0 0-.031-.082.107.107 0 0 0-.08-.03.1.1 0 0 0-.073.03.108.108 0 0 0-.033.082c0 .025.01.05.033.073.02.02.047.032.073.032.033 0 .06-.013.08-.032a.114.114 0 0 0 .031-.073zm.816.214h-.197v-.848a.265.265 0 0 0-.086-.203.298.298 0 0 0-.21-.08.305.305 0 0 0-.285.163c.104.022.174.068.213.145a.404.404 0 0 0-.114.08c-.03.033-.042.079-.042.134 0 .047.007.116.015.204.011.088.018.148.018.186a.25.25 0 0 1-.067.172.227.227 0 0 1-.172.07.23.23 0 0 1-.17-.07.234.234 0 0 1-.07-.172.23.23 0 0 1 .07-.168.228.228 0 0 1 .164-.07c.028 0 .042.002.05.009l-.02-.195c0-.076.038-.134.11-.173a.269.269 0 0 0-.195-.039.422.422 0 0 1 .146-.325.508.508 0 0 1 .344-.117c.152 0 .27.04.36.121a.43.43 0 0 1 .138.334v.842zM20.841 36.022h-.197v-.93a.176.176 0 0 0-.06-.142c-.04-.041-.095-.058-.163-.058a.235.235 0 0 0-.175.07.264.264 0 0 0-.07.18h-.19a.428.428 0 0 1 .124-.304.429.429 0 0 1 .31-.113c.118 0 .22.03.298.09.084.06.123.152.123.275v.932zM21.741 35.264a.088.088 0 0 0-.03-.072c-.016-.019-.04-.027-.07-.027a.095.095 0 0 0-.068.027.11.11 0 0 0-.025.072c0 .026.009.048.025.067.02.016.042.027.069.027.029 0 .053-.01.069-.027a.079.079 0 0 0 .03-.067zm.386.758h-.2v-.872c0-.077-.03-.14-.097-.19a.332.332 0 0 0-.212-.068.296.296 0 0 0-.228.098.325.325 0 0 0-.088.225.78.78 0 0 0 .016.116c.007.053.014.1.014.14v.09l.01-.07c.008-.039.013-.072.016-.097a.52.52 0 0 1 .1-.225c.053-.077.115-.114.188-.114.059 0 .108.02.151.058a.213.213 0 0 1 .063.151.184.184 0 0 1-.063.14.202.202 0 0 1-.151.064.208.208 0 0 1-.144-.056 1.946 1.946 0 0 0-.094.61h-.197v-.205c0-.1-.017-.21-.053-.328a1.073 1.073 0 0 1-.052-.276c0-.15.052-.267.16-.358a.543.543 0 0 1 .368-.13c.134 0 .246.034.337.102.104.082.156.19.156.33v.865zM23.083 35.808a.117.117 0 0 0-.034-.082.131.131 0 0 0-.086-.03.125.125 0 0 0-.085.03.115.115 0 0 0-.033.082c0 .025.013.05.033.073.025.02.051.032.085.032a.14.14 0 0 0 .086-.032c.02-.022.034-.048.034-.073zm.15 0a.217.217 0 0 1-.077.167.28.28 0 0 1-.193.07.276.276 0 0 1-.19-.07.22.22 0 0 1-.08-.172.22.22 0 0 1 .08-.172.284.284 0 0 1 .19-.07c.028 0 .043 0 .051.005v-.276c0-.035-.075-.066-.23-.1-.157-.033-.297-.059-.425-.081a.472.472 0 0 1 .103-.278c.063-.072.155-.106.274-.106.047 0 .116.01.2.03.087.02.147.027.186.027.038 0 .063-.021.064-.066l.173.04c-.043.13-.12.195-.232.195a.728.728 0 0 1-.179-.03.829.829 0 0 0-.176-.03c-.103 0-.16.038-.175.11.175.035.328.072.453.108.12.039.184.106.184.197v.502z" fill="#FFF"/>
            <path d="M22.855 34.389a.246.246 0 0 0-.029-.115c-.02-.03-.045-.05-.073-.05-.029 0-.052.02-.072.05a.252.252 0 0 0-.027.115c0 .05.01.083.027.122.02.028.043.044.072.044.028 0 .053-.016.073-.044a.273.273 0 0 0 .03-.122zm.674-.42c-.063.59-.256.885-.591.885-.132 0-.234-.04-.303-.133a.506.506 0 0 1-.106-.332.51.51 0 0 1 .067-.259c.044-.073.095-.106.159-.106.069 0 .125.033.167.106.04.079.063.162.063.259s-.018.17-.047.214c.226-.012.36-.226.395-.634h.196zM24.202 36.32a.07.07 0 0 0-.022-.05c-.014-.01-.03-.014-.05-.014-.026 0-.04.004-.054.015a.073.073 0 0 0-.019.049c0 .02.007.037.02.048a.069.069 0 0 0 .103 0 .063.063 0 0 0 .022-.048zm-.408-.86a.09.09 0 0 0-.03-.066.087.087 0 0 0-.063-.023.098.098 0 0 0-.065.023.083.083 0 0 0-.027.066c0 .025.006.049.027.065a.096.096 0 0 0 .065.027c.026 0 .049-.01.063-.027.02-.016.03-.04.03-.065zm.544.295c0 .196-.098.29-.298.29-.196 0-.296-.091-.296-.272v-.107c-.017.007-.031.007-.045.007a.209.209 0 0 1-.154-.06.22.22 0 0 1-.06-.153c0-.062.025-.115.069-.154.044-.04.1-.058.156-.058.063 0 .118.018.165.058a.19.19 0 0 1 .068.15v.309c0 .077.032.116.098.116.067 0 .101-.039.101-.116v-.459c0-.042-.098-.088-.298-.133a2.032 2.032 0 0 0-.395-.055.423.423 0 0 1 .146-.307.43.43 0 0 1 .272-.086c.038 0 .1.01.178.03.082.02.142.033.187.033.033 0 .052-.026.058-.077l.163.044c-.037.143-.115.218-.23.218a.589.589 0 0 1-.178-.04.61.61 0 0 0-.178-.041c-.033 0-.07.01-.11.026-.044.02-.071.037-.083.063.246.037.425.085.54.137.084.04.124.097.124.168v.469zm-.723.702a.24.24 0 0 0-.075-.017c-.08 0-.122.029-.122.087 0 .051.03.077.084.077.074 0 .113-.048.113-.147zm.723.084c0 .144-.067.211-.211.211h-.26l-.142-.19a.18.18 0 0 1-.069.132.187.187 0 0 1-.134.054.227.227 0 0 1-.167-.063.237.237 0 0 1-.059-.165.21.21 0 0 1 .065-.159.247.247 0 0 1 .18-.062c.041 0 .073.005.087.015a.2.2 0 0 1 .116-.162l.1.055c-.062.031-.097.092-.097.179l.156.21h.166c.069 0 .103-.018.103-.051v-.04h-.039a.2.2 0 0 1-.145-.057.164.164 0 0 1-.059-.128c0-.05.02-.09.06-.128a.208.208 0 0 1 .144-.055c.054 0 .1.02.145.055a.16.16 0 0 1 .06.128v.22zM25.292 35.808c0-.035-.025-.06-.057-.082a.265.265 0 0 0-.13-.03.236.236 0 0 0-.123.03c-.035.022-.059.047-.059.082 0 .025.024.05.059.073.033.02.076.032.124.032.049 0 .092-.013.129-.032.032-.022.057-.048.057-.073m.216-.005c0 .068-.04.126-.12.172a.512.512 0 0 1-.282.07.555.555 0 0 1-.303-.073c-.08-.05-.125-.11-.125-.187V34.75h.33v.817a.385.385 0 0 1 .098-.008c.11 0 .208.023.281.072.082.047.12.102.12.172" fill="#FFF"/>
            <path d="M25.574 34.967a.116.116 0 0 0-.032-.08.11.11 0 0 0-.078-.029.108.108 0 0 0-.076.03.116.116 0 0 0-.034.079c0 .028.012.055.034.077.021.018.047.03.076.03a.12.12 0 0 0 .078-.03.111.111 0 0 0 .032-.077zm.873.764c0 .21-.156.315-.462.315-.311 0-.466-.105-.466-.315v-.53c-.021.007-.039.007-.055.007a.221.221 0 0 1-.172-.072.236.236 0 0 1-.07-.174c0-.066.023-.122.07-.169a.244.244 0 0 1 .172-.068.246.246 0 0 1 .252.26v.75c0 .043.03.077.087.103.056.023.116.04.182.04.06 0 .12-.017.178-.04.056-.026.086-.06.086-.102v-1.498h.198v1.493z" fill="#FFF"/>
            <path d="M26.199 34.553a.097.097 0 0 0-.022-.065c-.017-.021-.036-.032-.06-.032-.023 0-.04.01-.058.032-.017.016-.023.042-.023.065 0 .026.006.046.023.067a.07.07 0 0 0 .059.024c.023 0 .042-.005.059-.024a.104.104 0 0 0 .022-.067m.114 0c0 .061-.02.107-.055.156a.176.176 0 0 1-.14.067c-.12 0-.263-.063-.422-.179a.285.285 0 0 0-.107.084.233.233 0 0 0-.064.117c-.134-.104-.201-.223-.201-.368 0-.108.04-.196.115-.258a.406.406 0 0 1 .265-.086h.253c.123 0 .186-.06.186-.186v-.102h.18v.097a.348.348 0 0 1-.1.267.362.362 0 0 1-.258.097h-.274a.173.173 0 0 0-.11.04.168.168 0 0 0-.051.12c0 .046.01.082.023.111a.207.207 0 0 1 .168-.11.759.759 0 0 0 .207.114.21.21 0 0 1 .06-.145.183.183 0 0 1 .13-.06.18.18 0 0 1 .14.065.253.253 0 0 1 .055.159M27.751 35.808c0-.03-.01-.056-.031-.077a.102.102 0 0 0-.077-.032c-.03 0-.055.009-.076.032a.1.1 0 0 0-.031.077.1.1 0 0 0 .031.076c.02.02.046.032.076.032a.116.116 0 0 0 .077-.032.102.102 0 0 0 .031-.076zm-.759-.841a.109.109 0 0 0-.033-.08.107.107 0 0 0-.076-.029.105.105 0 0 0-.076.03.112.112 0 0 0-.03.079c0 .028.008.055.03.077.02.018.048.03.076.03.03 0 .055-.012.076-.03a.104.104 0 0 0 .033-.077zm.836.452c0 .084-.021.142-.066.177.081.044.122.115.122.212 0 .066-.02.121-.07.167a.228.228 0 0 1-.169.07.22.22 0 0 1-.16-.059.25.25 0 0 1-.077-.149 2.03 2.03 0 0 0-.149.079.403.403 0 0 0-.12.106h-.201v-.82a.264.264 0 0 1-.055.006.232.232 0 0 1-.172-.074.234.234 0 0 1-.068-.173c0-.065.021-.12.068-.168a.253.253 0 0 1 .172-.068.24.24 0 0 1 .18.072c.049.048.071.109.071.184v.811a1.05 1.05 0 0 1 .23-.113.586.586 0 0 0 .222-.136.22.22 0 0 0 .046-.149v-.644h.196v.669zM28.482 34.967a.117.117 0 0 0-.034-.08.098.098 0 0 0-.074-.029.111.111 0 0 0-.078.03.128.128 0 0 0-.031.079c0 .028.012.055.03.077a.12.12 0 0 0 .079.03c.03 0 .055-.012.074-.03a.113.113 0 0 0 .034-.077zm.668 1.055h-.198l-.318-.512-.322.512h-.193v-1.041c0-.072.026-.136.074-.184a.257.257 0 0 1 .18-.072c.067 0 .127.024.172.072a.235.235 0 0 1 0 .341.226.226 0 0 1-.171.07c-.031 0-.052 0-.06-.002v.545l.253-.393h.128l.257.394V34.75h.198v1.273zM28.734 36.424a.14.14 0 0 0-.033-.093c-.022-.019-.047-.037-.079-.037-.028 0-.056.018-.074.037a.129.129 0 0 0-.039.093.13.13 0 0 0 .039.094.092.092 0 0 0 .074.045c.032 0 .057-.017.079-.045a.141.141 0 0 0 .033-.094zm.637.407c0 .11-.04.186-.117.241a.42.42 0 0 1-.258.073.433.433 0 0 1-.24-.067.231.231 0 0 1-.112-.208v-.149h-.028a.203.203 0 0 1-.17-.081.296.296 0 0 1-.075-.2c0-.082.025-.149.075-.209a.214.214 0 0 1 .175-.086c.067 0 .127.028.18.078.052.05.076.12.076.21v.437c0 .04.044.07.125.07.088 0 .13-.03.13-.07v-.68h.239v.641z" fill="#FFF"/>
            <path d="M28.858 34.226a.13.13 0 0 0-.031-.086c-.018-.029-.042-.037-.074-.037-.025 0-.049.008-.063.037-.023.022-.031.05-.031.086 0 .034.008.064.03.087.015.031.04.042.064.042a.077.077 0 0 0 .074-.042.143.143 0 0 0 .031-.087zm.651-.202c-.024.173-.06.314-.103.431a.804.804 0 0 1-.179.274.61.61 0 0 1-.25.146 1.07 1.07 0 0 1-.333.043h-.124v-.191a.167.167 0 0 0 .127-.066.377.377 0 0 0 .071-.127.215.215 0 0 1-.15-.108.35.35 0 0 1-.059-.207c0-.09.03-.16.076-.218a.234.234 0 0 1 .174-.083c.078 0 .136.032.184.086.04.064.061.14.061.234a.693.693 0 0 1-.053.271.59.59 0 0 1-.112.193.468.468 0 0 0 .315-.229.872.872 0 0 0 .126-.45h.229zM29.844 35.808a.104.104 0 0 0-.035-.077.094.094 0 0 0-.076-.032.102.102 0 0 0-.08.032.107.107 0 0 0-.032.077c0 .03.012.053.033.076.022.02.047.032.079.032.03 0 .056-.012.076-.032a.104.104 0 0 0 .035-.076zm.563.214h-.198v-.848a.27.27 0 0 0-.08-.203.293.293 0 0 0-.217-.08.327.327 0 0 0-.293.163c.102.02.175.068.217.145-.108.065-.165.138-.165.228v.147a.157.157 0 0 1 .062-.008c.066 0 .123.022.17.069a.224.224 0 0 1 .068.168.238.238 0 0 1-.068.172.241.241 0 0 1-.175.07.237.237 0 0 1-.181-.073.255.255 0 0 1-.074-.187v-.372c0-.086.042-.158.133-.207a.27.27 0 0 0-.199-.039.423.423 0 0 1 .155-.325.514.514 0 0 1 .345-.117.53.53 0 0 1 .368.12.438.438 0 0 1 .132.335v.842z" fill="#FFF"/>
            <path d="M30.2 34.656a.489.489 0 0 0-.117-.236.278.278 0 0 0-.217-.109.295.295 0 0 0-.198.07.355.355 0 0 0-.108.197.513.513 0 0 1 .174-.022c.157 0 .31.03.466.1zm.202.298c-.262-.136-.504-.204-.724-.204-.1 0-.199.011-.303.034.027-.451.183-.681.466-.681.032 0 .062.005.09.013v-.162h.14v.212a.46.46 0 0 1 .134.136v-.348h.191v.93l.006.07zM31.09 35.38a.104.104 0 0 0-.033-.076c-.02-.024-.044-.032-.077-.032a.096.096 0 0 0-.075.032.11.11 0 0 0-.031.076c0 .032.012.056.031.076a.106.106 0 0 0 .075.033.101.101 0 0 0 .077-.033.096.096 0 0 0 .034-.076zm.562.351a.262.262 0 0 1-.15.249.645.645 0 0 1-.311.066.624.624 0 0 1-.308-.066.266.266 0 0 1-.145-.249v-.319c0-.077.021-.14.065-.191.041-.054.1-.078.179-.078.07 0 .13.022.174.065.048.047.07.104.07.172a.226.226 0 0 1-.07.168.23.23 0 0 1-.22.066v.097c0 .113.086.166.257.166.174 0 .262-.055.262-.17v-.612a.166.166 0 0 0-.1-.156.376.376 0 0 0-.204-.047c-.201 0-.31.054-.326.155h-.195c.032-.213.195-.32.507-.322a.69.69 0 0 1 .348.077c.11.07.167.17.167.307v.622zM32.963 34.967a.12.12 0 0 0-.032-.08.103.103 0 0 0-.077-.029.103.103 0 0 0-.076.03.107.107 0 0 0-.032.079c0 .028.01.055.032.077.02.018.047.03.076.03a.112.112 0 0 0 .077-.03.116.116 0 0 0 .032-.077zm-.769 0a.115.115 0 0 0-.029-.08.107.107 0 0 0-.075-.029.11.11 0 0 0-.078.03.118.118 0 0 0 0 .157.12.12 0 0 0 .078.028.117.117 0 0 0 .075-.029.11.11 0 0 0 .03-.077zm.856 1.055h-.2v-.71c0-.057-.01-.085-.034-.085-.018 0-.042.028-.071.079l-.417.716h-.185v-.82c-.02.006-.04.006-.053.006a.222.222 0 0 1-.174-.072.24.24 0 0 1-.069-.175c0-.065.024-.12.07-.168a.245.245 0 0 1 .173-.068c.071 0 .129.024.18.072a.254.254 0 0 1 .072.184v.475c0 .054-.014.17-.04.34a.972.972 0 0 1 .097-.255l.175-.3c.038-.064.074-.098.1-.11a.273.273 0 0 1-.062-.164c0-.07.024-.127.069-.174a.247.247 0 0 1 .173-.068c.072 0 .123.024.173.068a.23.23 0 0 1 .068.174c0 .07-.029.128-.087.183a.376.376 0 0 1 .042.172v.7zM33.127 36.44a.141.141 0 0 0-.04-.098c-.033-.02-.065-.04-.106-.04a.205.205 0 0 0-.102.04.122.122 0 0 0-.043.098c0 .038.011.072.043.1.03.029.07.047.102.047.041 0 .073-.018.106-.047a.143.143 0 0 0 .04-.1zm.188.705h-.32v-.384h-.02a.314.314 0 0 1-.229-.093.281.281 0 0 1-.092-.212c0-.085.03-.156.092-.22a.327.327 0 0 1 .233-.09.36.36 0 0 1 .231.081c.071.053.105.128.105.227v.691z" fill="#FFF"/>
            <path d="M32.757 34.226a.133.133 0 0 0-.029-.086c-.022-.029-.041-.037-.072-.037-.028 0-.048.008-.067.037-.02.022-.027.05-.027.086 0 .034.007.064.027.087.019.031.04.042.067.042.031 0 .05-.01.072-.042a.146.146 0 0 0 .029-.087zm.656-.202c-.026.173-.06.314-.106.431a.773.773 0 0 1-.177.274.616.616 0 0 1-.253.146 1.068 1.068 0 0 1-.331.043h-.126v-.191a.176.176 0 0 0 .13-.066.38.38 0 0 0 .069-.127.218.218 0 0 1-.152-.108.364.364 0 0 1-.054-.207c0-.09.025-.16.073-.218a.232.232 0 0 1 .177-.083c.073 0 .136.032.178.086.045.064.07.14.07.234s-.021.182-.057.271a.647.647 0 0 1-.113.193.474.474 0 0 0 .316-.229.88.88 0 0 0 .126-.45h.23zM34.354 35.808a.119.119 0 0 0-.031-.077.1.1 0 0 0-.073-.032c-.034 0-.06.009-.08.032a.103.103 0 0 0-.033.077c0 .03.01.053.032.076.02.02.047.032.081.032.025 0 .05-.012.073-.032a.119.119 0 0 0 .031-.076zm-.76-.841a.12.12 0 0 0-.03-.08.115.115 0 0 0-.078-.029.107.107 0 0 0-.078.03.127.127 0 0 0-.03.079c0 .028.012.055.03.077.022.018.048.03.078.03a.126.126 0 0 0 .078-.03c.02-.022.03-.05.03-.077zm.84.452c0 .084-.027.142-.07.177a.227.227 0 0 1 .124.212.231.231 0 0 1-.07.167.224.224 0 0 1-.168.07.223.223 0 0 1-.162-.059.236.236 0 0 1-.078-.149 2.543 2.543 0 0 0-.148.079.395.395 0 0 0-.12.106h-.203v-.82a.265.265 0 0 1-.053.006.221.221 0 0 1-.172-.074.238.238 0 0 1 .172-.41c.073 0 .132.026.181.073a.25.25 0 0 1 .07.184v.811c.036-.027.11-.066.231-.113a.59.59 0 0 0 .221-.136c.03-.033.046-.081.046-.149v-.644h.198v.669zM35.343 35.808c0-.035-.01-.06-.033-.082a.11.11 0 0 0-.08-.03.112.112 0 0 0-.08.03.108.108 0 0 0-.032.082c0 .025.01.05.032.073a.116.116 0 0 0 .16 0 .098.098 0 0 0 .033-.073m-.536-1.52a.092.092 0 0 0-.028-.067.117.117 0 0 0-.076-.033.103.103 0 0 0-.073.033c-.024.017-.029.04-.029.066 0 .032.005.056.03.072.02.02.043.028.072.028a.11.11 0 0 0 .076-.028.098.098 0 0 0 .028-.072m.675 1.516a.225.225 0 0 1-.073.172.257.257 0 0 1-.182.07.27.27 0 0 1-.191-.073.26.26 0 0 1-.075-.187v-1.199a.46.46 0 0 1 .061-.192.501.501 0 0 0 .057-.18.13.13 0 0 0-.05-.11.216.216 0 0 0-.13-.046c-.074 0-.13.014-.165.041a.19.19 0 0 1 .14.057.198.198 0 0 1 .046.131c0 .059-.02.107-.064.147a.208.208 0 0 1-.153.064.208.208 0 0 1-.16-.065.238.238 0 0 1-.06-.158c0-.119.042-.206.123-.268a.448.448 0 0 1 .29-.087c.1 0 .183.026.256.073.083.055.124.13.124.216a.604.604 0 0 1-.055.204.543.543 0 0 0-.054.197v.957c.012-.006.033-.006.06-.006.07 0 .131.024.182.07.05.047.073.102.073.172M36.6 34.967a.105.105 0 0 0-.036-.08.096.096 0 0 0-.073-.029.1.1 0 0 0-.076.03.113.113 0 0 0-.032.079c0 .028.01.055.032.077.02.018.045.03.076.03.03 0 .055-.012.073-.03a.102.102 0 0 0 .035-.077zm-.765 0a.113.113 0 0 0-.033-.08.101.101 0 0 0-.075-.029c-.033 0-.058.009-.077.03a.112.112 0 0 0 0 .156c.02.018.044.03.077.03a.11.11 0 0 0 .075-.03.109.109 0 0 0 .033-.077zm.85 1.055h-.198v-.71c0-.057-.01-.085-.035-.085-.017 0-.04.028-.072.079l-.415.716h-.186v-.82c-.022.006-.038.006-.052.006a.227.227 0 0 1-.174-.072.23.23 0 0 1-.07-.175c0-.065.022-.12.07-.168a.25.25 0 0 1 .174-.068c.071 0 .131.024.177.072a.252.252 0 0 1 .073.184v.475c0 .054-.012.17-.038.34.024-.094.054-.176.095-.255l.176-.3c.04-.064.07-.098.101-.11a.268.268 0 0 1-.06-.164.233.233 0 0 1 .24-.242c.067 0 .124.024.17.068a.24.24 0 0 1-.019.357.377.377 0 0 1 .043.172v.7zM37.97 36.354a.095.095 0 0 0-.028-.069.11.11 0 0 0-.073-.028.1.1 0 0 0-.073.028.102.102 0 0 0-.024.069c0 .028.008.051.024.075.02.019.042.028.073.028.027 0 .053-.01.073-.028a.115.115 0 0 0 .028-.075zm.534-.203c0 .156-.035.28-.105.374-.079.103-.197.157-.36.157a.451.451 0 0 1-.267-.082.284.284 0 0 1-.127-.242c0-.065.023-.116.065-.161a.212.212 0 0 1 .16-.064c.063 0 .112.02.156.066.042.045.06.1.06.164 0 .083-.033.135-.099.157.032.007.053.007.065.007.176 0 .271-.126.281-.376h.171zm-1.132-.343a.096.096 0 0 0-.03-.077c-.018-.023-.046-.032-.076-.032s-.055.009-.075.032a.103.103 0 0 0 0 .152.104.104 0 0 0 .152 0 .096.096 0 0 0 .03-.075zm1.114-.086c0 .105-.04.188-.125.244a.42.42 0 0 1-.269.08.41.41 0 0 1-.27-.08.284.284 0 0 1-.117-.244v-.545c0-.085-.023-.154-.077-.202a.254.254 0 0 0-.193-.079c-.131 0-.222.054-.278.158.092.02.163.065.21.145-.107.06-.16.136-.16.23v.15c.012-.012.033-.013.059-.013a.23.23 0 0 1 .234.238.238.238 0 0 1-.24.242.24.24 0 0 1-.18-.074.244.244 0 0 1-.072-.183v-.37c0-.093.042-.164.133-.213a.276.276 0 0 0-.197-.039.442.442 0 0 1 .146-.325.486.486 0 0 1 .335-.117c.144 0 .257.04.347.12a.434.434 0 0 1 .134.335v.571c0 .044.016.076.054.097a.326.326 0 0 0 .27 0c.04-.02.059-.053.059-.097V34.75h.197v.973z" fill="#FFF"/>
            <mask id="sksxs29qif" fill="#fff">
                <use xlink:href="#0btc6y2vve"/>
            </mask>
            <path fill="#FFF" mask="url(#sksxs29qif)" d="M38.29 34.542h.197v-.453h-.198z"/>
            <path fill="#E72429" mask="url(#sksxs29qif)" d="M.026 32.619h40.266v-3.783H.026z"/>
            <path d="M2.174 31.301h.122c.122 0 .224-.011.304-.033a.69.69 0 0 0 .224-.117.518.518 0 0 0 .202-.422.522.522 0 0 0-.2-.428c-.117-.1-.298-.148-.53-.148h-.122v1.148zm-.276.225v-1.599h.382c.182 0 .328.016.434.049.112.03.216.084.311.159.184.148.28.347.28.594a.714.714 0 0 1-.296.594c-.1.075-.2.13-.305.156a1.466 1.466 0 0 1-.43.047h-.376zM4.719 30.551h.783v-.624h.274v1.6h-.274v-.748h-.783v.747h-.274v-1.599h.274zM7.054 31.526h.274v-1.599h-.274zM8.833 30.652h.105c.254 0 .379-.086.379-.254 0-.166-.13-.25-.392-.25h-.092v.504zm0 .225v.65h-.27v-1.6h.308c.153 0 .268.007.347.028.08.02.147.054.205.105a.43.43 0 0 1 .159.343.413.413 0 0 1-.168.346c-.113.086-.26.128-.45.128h-.131zM11.409 30.912l-.272-.546-.28.546h.552zm.114.227h-.78l-.204.387h-.295l.9-1.699.866 1.7h-.298l-.189-.388zM13.171 30.838l-.595-.91h.316l.417.638.415-.639h.314l-.593.91v.69h-.274zM15.76 30.912l-.268-.546-.282.546h.55zm.113.227h-.777l-.203.387H14.6l.899-1.699.866 1.7h-.299l-.192-.388zM18.782 31.526h.274v-1.599h-.274zM20.217 31.526V29.82l1.323 1.22v-1.113h.277v1.697l-1.328-1.22v1.122zM24.001 30.166l-.22.116a.37.37 0 0 0-.12-.127.32.32 0 0 0-.15-.033.3.3 0 0 0-.193.06.169.169 0 0 0-.075.14c0 .076.068.139.197.188l.182.063a.765.765 0 0 1 .323.194.4.4 0 0 1 .105.278c0 .148-.058.27-.169.365a.61.61 0 0 1-.418.146.61.61 0 0 1-.39-.125.532.532 0 0 1-.188-.349l.276-.054c.014.099.033.16.065.198.058.07.138.104.248.104a.296.296 0 0 0 .212-.078.24.24 0 0 0 .087-.191.217.217 0 0 0-.017-.087.146.146 0 0 0-.045-.069.417.417 0 0 0-.083-.062.722.722 0 0 0-.115-.054l-.178-.065c-.246-.09-.371-.228-.371-.404 0-.12.052-.223.155-.3a.62.62 0 0 1 .393-.126c.21 0 .374.092.49.272M25.377 29.927v.963c0 .136.026.238.074.3a.39.39 0 0 0 .323.14.39.39 0 0 0 .325-.14c.048-.06.075-.162.075-.3v-.963h.273v1.029a.54.54 0 0 1-.18.418.704.704 0 0 1-.493.182.714.714 0 0 1-.494-.182.555.555 0 0 1-.178-.418v-1.029h.275zM27.881 30.662h.087c.258 0 .388-.089.388-.264 0-.163-.126-.245-.379-.245h-.096v.509zm.339.184.564.68h-.335l-.518-.654h-.05v.654h-.274v-1.599h.319c.24 0 .417.04.523.12a.416.416 0 0 1 .175.351.429.429 0 0 1-.108.291.536.536 0 0 1-.296.157zM30.667 30.912l-.272-.546-.283.546h.555zm.11.227h-.78l-.202.387h-.294l.897-1.699.869 1.7h-.3l-.19-.388zM32.217 31.526V29.82l1.325 1.22v-1.113h.274v1.697l-1.325-1.22v1.122zM36.334 30.014v.284a.815.815 0 0 0-.49-.176.658.658 0 0 0-.472.179.545.545 0 0 0-.195.428c0 .168.062.31.195.427a.673.673 0 0 0 .471.174.69.69 0 0 0 .246-.04l.116-.058c.043-.025.083-.05.129-.086v.293a1.125 1.125 0 0 1-.494.116.963.963 0 0 1-.663-.24.736.736 0 0 1-.277-.581c0-.205.08-.386.228-.544a.982.982 0 0 1 .733-.296c.162 0 .322.04.473.12M38.408 30.153h-.729v.383h.706v.228h-.706v.537h.729v.225h-1.006v-1.599h1.006zM4.475 24.126c-.188-.162-.45-.226-.782-.188a.786.786 0 0 0-.23.067.845.845 0 0 0-.232.173.874.874 0 0 0-.188.321l-.634 1.675V24.51c0-.195-.07-.348-.214-.45a.826.826 0 0 0-.464-.133c-.224 0-.392.062-.51.183a.589.589 0 0 0-.17.405c0 .085.025.164.038.204a.48.48 0 0 0 .43.301h.03a.322.322 0 0 0 .16-.05c.057-.04.11-.086.103-.152-.012-.04-.046-.09-.111-.09a.124.124 0 0 0-.04.007h-.024c-.027 0-.05-.006-.072-.011a.152.152 0 0 1-.095-.105c-.018-.049-.004-.112.034-.166a.234.234 0 0 1 .183-.093c.072 0 .122.014.15.048a.144.144 0 0 1 .046.107l.005 2.907v.079l.081.007s.023.002.059.002c.237 0 .409-.082.467-.235l1.053-2.697a.255.255 0 0 1 .136-.15.532.532 0 0 1 .182-.04c.112 0 .19.027.247.08a.26.26 0 0 1 .08.194v2.579c0 .016.002.086.07.155.074.073.193.114.36.114h.09v-2.848c0-.22-.08-.402-.238-.536M1.975 22.577c.095-.098.3-.25.46-.303.165-.057.346-.085.537-.085.541 0 1.216.401 1.248.78-1.014-.52-2.166-.383-2.245-.392m2.71.762c0-.231-.201-1.52-1.765-1.52-.141 0-.287.016-.423.05-.455.114-.85.405-1.06.776-.01.02-.058.11-.013.188.02.032.057.073.139.073.085.005.175.005.26.005.146.002.292.006.435.013.791.033 1.474.166 2.088.406 0 0 .34.16.34.009M9.37 23.921h-.086c-.431 0-.437.257-.437.27v1.983l-.744-1.976c-.028-.07-.117-.273-.271-.273-.163 0-.244.219-.257.256l-.78 2V24.51c0-.197-.072-.348-.218-.45a.825.825 0 0 0-.459-.133c-.225 0-.396.062-.512.185a.58.58 0 0 0-.172.403c0 .079.024.155.04.204.057.151.225.301.43.301h.029a.354.354 0 0 0 .156-.048c.042-.025.113-.078.106-.148a.11.11 0 0 0-.11-.095.14.14 0 0 0-.04.006h-.024a.252.252 0 0 1-.07-.011.163.163 0 0 1-.098-.103.213.213 0 0 1 .035-.168.24.24 0 0 1 .187-.093c.066 0 .115.014.147.048a.143.143 0 0 1 .047.107l.005 2.907.003.079.078.007s.022.002.058.002c.236 0 .406-.082.47-.235l.949-2.521.934 2.53c.012.026.127.226.518.226h.086v-2.848H9.37l.001-.74zM17.485 22.167H17.4c-.166 0-.289.037-.36.113a.21.21 0 0 0-.073.152v4.615h-1.59v-2.543a.521.521 0 0 0-.218-.45.797.797 0 0 0-.462-.138c-.221 0-.394.064-.509.186a.578.578 0 0 0-.17.405c0 .087.026.164.039.206.064.157.242.315.46.297a.327.327 0 0 0 .159-.05c.053-.036.105-.082.1-.148 0-.015-.024-.107-.152-.087a.22.22 0 0 1-.093-.011.152.152 0 0 1-.095-.102c-.017-.052-.002-.113.034-.167a.238.238 0 0 1 .185-.098c.072 0 .12.018.15.051.032.03.046.07.046.11l.006 2.783c0 .037-.015.052-.019.053l-.218.16h2.863l.003-5.337zM22.48 24.272c-.022 0-.082 0-.166.15a.633.633 0 0 1-.136.16c-.2.179-.574.229-.776.089-.053-.038-.086-.101-.047-.164.025-.036.11-.079.193-.079.017 0 .031 0 .047.008.047.012.084.031.096.06.005.011.007.024.005.045-.003.016-.012.06.015.098l.043.04h.043c.07 0 .13-.079.13-.079a.233.233 0 0 0 .053-.133c.018-.171-.144-.313-.301-.355a.774.774 0 0 0-.192-.03.673.673 0 0 0-.386.124.461.461 0 0 0-.188.376c-.023.32.281.505.594.542.033.005.072.006.11.009h.036c.153 0 .31-.026.46-.082.298-.11.487-.355.483-.624-.002-.143-.091-.155-.116-.155M26.147 22.361c-.022 0-.084 0-.174.143a.652.652 0 0 1-.132.161c-.289.252-.835.292-1.06.3h-.117c-.302 0-.507-.04-.634-.132-.052-.036-.087-.096-.047-.155.027-.04.108-.082.195-.082.015 0 .032.002.043.005.047.011.083.035.097.064a.07.07 0 0 1 .005.042c-.002.017-.01.058.015.096 0 0 .033.042.086.042.067 0 .125-.071.131-.08a.242.242 0 0 0 .053-.13c.017-.173-.146-.314-.304-.355a.653.653 0 0 0-.188-.029c-.23 0-.422.104-.52.28a.481.481 0 0 0 .021.488c.134.21.405.294.65.354.152.033.308.04.444.042h.036c.607 0 1.507-.288 1.507-.906 0-.14-.091-.148-.107-.148M34.648 22.361c-.022 0-.084 0-.171.143a.677.677 0 0 1-.136.161c-.287.252-.835.292-1.057.3h-.117c-.304 0-.51-.04-.634-.132-.051-.036-.087-.096-.049-.155.027-.04.11-.082.197-.082.016 0 .03.002.045.005.044.011.081.035.096.064.003.01.009.02.003.042 0 .017-.01.058.02.096 0 0 .027.042.083.042.066 0 .124-.071.13-.08a.274.274 0 0 0 .05-.13c.018-.173-.139-.314-.3-.355a.645.645 0 0 0-.188-.029c-.232 0-.426.104-.52.28a.466.466 0 0 0 .022.488c.132.21.403.294.648.354.15.033.31.04.442.042h.037c.61 0 1.51-.288 1.51-.906 0-.14-.093-.148-.111-.148M22.48 26.41c-.022 0-.082 0-.166.15a.596.596 0 0 1-.136.158c-.202.178-.574.228-.776.086-.053-.036-.086-.1-.047-.158.025-.038.106-.079.193-.079.017 0 .031.003.047.006.025.007.076.023.096.059a.09.09 0 0 1 .005.043c-.003.017-.012.063.015.101l.039.04h.047c.059 0 .115-.06.13-.078a.243.243 0 0 0 .053-.132c.018-.173-.144-.314-.301-.36-.052-.01-.12-.026-.192-.026a.663.663 0 0 0-.386.123.455.455 0 0 0-.188.375c-.023.321.281.506.59.542a.796.796 0 0 0 .112.009h.002a1.274 1.274 0 0 0 .496-.085c.298-.107.487-.353.483-.62-.002-.144-.091-.155-.116-.155M20.35 24.098l-.078.001-.01.082c-.005.08-.097.129-.174.129a.17.17 0 0 1-.118-.046c-.206-.192-.411-.348-.767-.348-.994 0-1.203.92-1.203.93l-.016.078 1.528.471v1.078l-.007.463a.147.147 0 0 1-.049.111c-.027.03-.077.047-.144.047a.227.227 0 0 1-.187-.095.202.202 0 0 1-.034-.168.16.16 0 0 1 .095-.102.263.263 0 0 1 .072-.01l.027.001c.012 0 .024.003.033.003.07 0 .108-.05.111-.091.012-.073-.07-.13-.105-.153a.38.38 0 0 0-.153-.046c-.222-.018-.402.144-.462.302a.773.773 0 0 0-.036.201c0 .148.056.284.17.407.115.12.287.182.511.182a.82.82 0 0 0 .462-.133c.142-.101.214-.252.214-.453v-1.574c0-.27-.244-.36-.26-.368l-1.13-.326a.707.707 0 0 1 .573-.284c.189 0 .288.068.415.154.07.05.138.096.227.138.08.035.171.056.266.056a.456.456 0 0 0 .308-.107c.07-.07.12-.18.12-.278 0-.073-.056-.252-.199-.252M13.011 24.047a.242.242 0 0 0-.07.157v2.856H11.15v-1.018c0-.116.04-.238.512-.238.195 0 .331-.049.407-.137a.234.234 0 0 0 .053-.19l-.01-.073h-.478c-.496 0-.518-.37-.52-.412l.009-.462c0-.041.013-.08.045-.114.027-.03.076-.047.148-.047a.24.24 0 0 1 .185.096c.04.055.05.117.036.168a.166.166 0 0 1-.1.103.273.273 0 0 1-.07.008h-.03c-.01 0-.017-.003-.03-.003-.071 0-.109.049-.112.095-.008.064.052.117.104.149a.39.39 0 0 0 .157.048.47.47 0 0 0 .456-.303.574.574 0 0 0 .042-.2.572.572 0 0 0-.17-.404c-.117-.124-.288-.186-.51-.186a.832.832 0 0 0-.466.135c-.14.099-.211.25-.211.45v.635c.008.12.06.311.199.421a.433.433 0 0 0-.2.38v1.34c-.002.042-.016.053-.019.056l-.214.16h.406l2.69-.003.004-3.58h-.09c-.164 0-.287.04-.36.113M38.369 23.934c-.166 0-.288.04-.362.113a.249.249 0 0 0-.069.157v2.856h-1.792v-1.018c0-.117.04-.238.512-.238.196 0 .328-.049.403-.137.075-.086.063-.18.058-.19l-.012-.073h-.48c-.492 0-.515-.37-.515-.412l.005-.462c0-.041.016-.08.046-.111.03-.032.079-.05.148-.05.075 0 .14.039.183.096.038.055.053.117.038.166-.019.052-.05.088-.097.105a.268.268 0 0 1-.073.008h-.028c-.01 0-.02-.003-.031-.003a.11.11 0 0 0-.114.095c0 .017-.006.074.109.149a.327.327 0 0 0 .154.048.475.475 0 0 0 .457-.298.604.604 0 0 0 .041-.205.585.585 0 0 0-.17-.404c-.118-.124-.288-.186-.51-.186a.826.826 0 0 0-.465.135c-.145.099-.214.25-.214.45v.635c.006.12.06.311.197.42a.435.435 0 0 0-.2.381v1.345c0 .02-.005.041-.013.051l-.222.16h.41l2.692-.003v-3.58h-.086zM29.892 27.136a.154.154 0 0 1-.063-.011c-.039-.006-.103-.03-.13-.079a.251.251 0 0 1-.008-.061.12.12 0 0 0-.014-.107c-.013-.01-.02-.02-.036-.029.083-.011.16-.02.225-.021l.025.001c.132.002.206.02.221.033.036.024.048.04.048.092 0 .093-.13.182-.268.182m.526-.634a.752.752 0 0 0-.273-.097v-2.49h-.091c-.425 0-.43.255-.43.266v2.254c-.548.092-1.281.377-1.527.471 0 0-.11.04-.126.04v-2.479c0-.199-.074-.35-.215-.446a.788.788 0 0 0-.462-.137c-.224 0-.395.062-.509.184a.581.581 0 0 0-.17.405c0 .084.024.164.04.2.056.153.22.302.43.302h.03a.393.393 0 0 0 .152-.044c.054-.034.11-.084.104-.153-.007-.054-.057-.105-.146-.088H27.2a.147.147 0 0 1-.07-.011.152.152 0 0 1-.099-.1.201.201 0 0 1 .037-.17.221.221 0 0 1 .186-.094c.067 0 .115.015.146.049a.142.142 0 0 1 .047.11l.003 2.573v.252c-.003.015-.007.028-.015.035l-.22.162h.414a.921.921 0 0 0 .293-.052c.013-.004.917-.416 1.568-.562-.02.02-.038.04-.043.04a.286.286 0 0 0-.058.148c-.019.2.161.363.345.41.08.02.158.034.224.034a.762.762 0 0 0 .452-.14.527.527 0 0 0 .225-.452.465.465 0 0 0-.217-.42M25.509 24.126a1.687 1.687 0 0 0-.917-.229c-.877.034-1.259.518-1.398.827a1.096 1.096 0 0 0-.077.295c0 .028-.005.044.002.076.004.017.036.038.067.038.338-.026.525.117.525.117-.306.123-.376.324-.376.595v1.663h.089c.428 0 .434-.26.434-.274v-1.382c0-.322.562-.628.562-.628s-.155-.314-.656-.389c0 0-.008 0-.01-.01l.01-.014c.08-.114.31-.402.828-.428.862-.047 1.056.635 1.056.76v2.091c0 .014.003.274.43.274h.088l.004-.755v-1.37c.06-.84-.628-1.235-.661-1.257M34.01 24.128a1.662 1.662 0 0 0-.917-.226c-.87.029-1.252.506-1.395.816v.001c0 .005-.002.006-.002.006l-.034.098c-.024.074-.04.156-.046.197-.003.013-.003.019-.003.031a.2.2 0 0 0 .007.044c.004.02.034.043.068.04.042-.002.08-.005.12-.002h.015c.028.005.059.005.086.01h.007a.47.47 0 0 1 .086.02c.138.033.209.09.209.09l-.003-.004a.031.031 0 0 1 .006.004c-.305.123-.378.324-.378.599v1.082a.15.15 0 0 1-.048.112c-.028.031-.076.048-.147.048a.232.232 0 0 1-.186-.098.187.187 0 0 1-.032-.167.163.163 0 0 1 .1-.109.228.228 0 0 1 .068-.01l.025.001c.01 0 .022.007.034.007.073 0 .11-.052.11-.097.007-.05-.025-.101-.103-.154a.392.392 0 0 0-.156-.047.47.47 0 0 0-.455.303.545.545 0 0 0-.041.211c0 .147.058.286.17.41.115.125.286.189.508.189a.76.76 0 0 0 .182-.022.79.79 0 0 0 .288-.112c.216-.142.206-.324.206-.324v-1.217c0-.323.563-.629.563-.629s-.154-.316-.653-.393c0 0-.007.004-.015-.01 0 0 .004-.002.015-.015.074-.111.311-.398.824-.425.864-.049 1.057.633 1.057.76v2.093c0 .01.003.272.433.272h.088v-2.126c.06-.841-.627-1.237-.661-1.257" fill="#FFF" mask="url(#sksxs29qif)"/>
        </g>
    </g>
</svg>
