<svg width="25" height="25" viewBox="0 0 25 25" xmlns="http://www.w3.org/2000/svg">
    <g fill-rule="nonzero" fill="none">
        <path d="m6.959 5.392 1.9 1.895a1.335 1.335 0 0 1-.002-1.892 1.344 1.344 0 0 1 1.897-.002l2.881 2.874 1.545 1.54a1.781 1.781 0 0 1 .042-2.564.887.887 0 0 1 1.223.042l3.028 3.02c2.554 2.546 2.788 6.695.357 9.358a6.713 6.713 0 0 1-9.71.234l-5.692-5.676a1.385 1.385 0 0 1-.102-1.893 1.343 1.343 0 0 1 1.947-.053l-1.79-1.785a1.386 1.386 0 0 1-.104-1.893 1.343 1.343 0 0 1 1.947-.052L5.115 7.337a1.386 1.386 0 0 1-.103-1.893 1.343 1.343 0 0 1 1.947-.052z" fill="#EF9645"/>
        <path d="m8.868 7.888 4.435 4.422a.42.42 0 0 0 .707-.185.417.417 0 0 0-.114-.406L9.46 7.297a.42.42 0 0 0-.588.005.417.417 0 0 0-.005.586zM15.19 10.408l2.54 2.532a.42.42 0 0 0 .578-.015.417.417 0 0 0 .013-.576l-2.54-2.532a.42.42 0 0 0-.707.184.417.417 0 0 0 .114.407h.001z" fill="#D9A600"/>
        <path d="m9.43 5.534 1.9 1.894a1.335 1.335 0 0 1-.002-1.892 1.344 1.344 0 0 1 1.897-.001l2.882 2.873 1.544 1.54a1.78 1.78 0 0 1 .042-2.563.886.886 0 0 1 1.222.042l1.267 1.26 1.763 1.76c2.554 2.545 2.79 6.694.358 9.357a6.712 6.712 0 0 1-9.71.234L6.9 14.363a1.385 1.385 0 0 1-.106-1.893 1.343 1.343 0 0 1 1.947-.052l-1.79-1.786a1.385 1.385 0 0 1-.104-1.893 1.342 1.342 0 0 1 1.947-.052L7.585 7.48a1.386 1.386 0 0 1-.104-1.893 1.344 1.344 0 0 1 1.95-.052z" fill="#FFDB5E"/>
        <path d="m11.34 8.029 4.434 4.424a.42.42 0 0 0 .593 0 .417.417 0 0 0 0-.591l-4.435-4.424a.42.42 0 0 0-.707.184.417.417 0 0 0 .115.406v.001zM8.753 13.018l3.228 3.218a.42.42 0 0 0 .587-.005.417.417 0 0 0 .005-.586l-3.227-3.218a.42.42 0 0 0-.593 0 .417.417 0 0 0 0 .59zM8.807 9.287l5.071 5.058a.42.42 0 0 0 .588-.005.417.417 0 0 0 .005-.586L9.4 8.696a.42.42 0 0 0-.707.185.417.417 0 0 0 .115.406zM16.794 9.496l2.54 2.534a.42.42 0 0 0 .593 0 .417.417 0 0 0 0-.592l-2.54-2.533a.42.42 0 0 0-.707.185.417.417 0 0 0 .115.406z" fill="#EBB300"/>
        <g fill="#777">
            <path d="M.59 1.408A.64.64 0 0 1 1.684.956l2.274 2.272a.64.64 0 0 1-.906.905L.779 1.86a.637.637 0 0 1-.187-.453zM0 5.724a.64.64 0 0 1 .852-.604l1.776.622a.64.64 0 1 1-.422 1.207L.429 6.328A.64.64 0 0 1 0 5.724zM4.911.82A.64.64 0 0 1 6.156.605l.564 1.596a.64.64 0 0 1-1.208.426l-.564-1.596A.64.64 0 0 1 4.91.82z"/>
        </g>
        <g fill="#777">
            <path d="M19.732 5.093a.641.641 0 0 1-.8-.873l1.358-2.915a.64.64 0 1 1 1.16.543l-1.358 2.914a.635.635 0 0 1-.36.331zM16.856 4.983a.642.642 0 0 1-.859-.595l-.024-1.881a.64.64 0 1 1 1.28-.016l.024 1.881a.64.64 0 0 1-.42.61zM21.815 7.114a.64.64 0 0 1-.626-1.097l1.306-1.076a.641.641 0 0 1 .814.99l-1.307 1.076a.64.64 0 0 1-.187.107z"/>
        </g>
    </g>
</svg>
