<svg width="56" height="56" viewBox="0 0 56 56" xmlns="http://www.w3.org/2000/svg" xmlns:xlink="http://www.w3.org/1999/xlink">
    <defs>
        <circle id="swnmu32nga" cx="28" cy="28" r="28"/>
    </defs>
    <g fill="none" fill-rule="evenodd">
        <g>
            <mask id="bq607vdsqb" fill="#fff">
                <use xlink:href="#swnmu32nga"/>
            </mask>
            <use fill="#1DA578" xlink:href="#swnmu32nga"/>
            <path d="M28-4H-3v21.9L28 28V-4z" fill="#DCDCDC" mask="url(#bq607vdsqb)"/>
        </g>
        <path d="M28 52c13.255 0 24-10.745 24-24S41.255 4 28 4 4 14.745 4 28s10.745 24 24 24z" fill="#FFF"/>
        <g fill="#3E3E3E" fill-rule="nonzero">
            <path d="M15.02 27.728c-1.003-.533-1.504-1.37-1.504-2.512a2.9 2.9 0 0 1 .448-1.576c.299-.475.752-.853 1.36-1.136.608-.283 1.355-.424 2.24-.424.885 0 1.63.141 2.232.424.603.283 1.053.661 1.352 1.136a2.9 2.9 0 0 1 .448 1.576c0 .576-.136 1.077-.408 1.504a2.893 2.893 0 0 1-1.096 1.008c.576.277 1.019.659 1.328 1.144.31.485.464 1.053.464 1.704 0 .757-.192 1.41-.576 1.96-.384.55-.904.968-1.56 1.256-.656.288-1.384.432-2.184.432-.8 0-1.528-.144-2.184-.432a3.643 3.643 0 0 1-1.56-1.256c-.384-.55-.576-1.203-.576-1.96 0-.661.155-1.235.464-1.72.31-.485.747-.861 1.312-1.128zm3.92-2.096c0-.437-.125-.776-.376-1.016-.25-.24-.584-.36-1-.36-.416 0-.75.123-1 .368s-.376.587-.376 1.024c0 .416.128.744.384.984s.587.36.992.36.736-.123.992-.368.384-.576.384-.992zm-1.376 3.28c-.501 0-.907.136-1.216.408-.31.272-.464.648-.464 1.128 0 .448.152.816.456 1.104.304.288.712.432 1.224.432s.915-.144 1.208-.432c.293-.288.44-.656.44-1.104 0-.47-.152-.843-.456-1.12-.304-.277-.701-.416-1.192-.416zM23.468 28c0-1.835.355-3.28 1.064-4.336.71-1.056 1.853-1.584 3.432-1.584s2.723.528 3.432 1.584c.71 1.056 1.064 2.501 1.064 4.336 0 1.856-.355 3.312-1.064 4.368-.71 1.056-1.853 1.584-3.432 1.584s-2.723-.528-3.432-1.584c-.71-1.056-1.064-2.512-1.064-4.368zm6.304 0c0-1.077-.117-1.907-.352-2.488s-.72-.872-1.456-.872-1.221.29-1.456.872c-.235.581-.352 1.41-.352 2.488 0 .725.043 1.325.128 1.8.085.475.259.859.52 1.152.261.293.648.44 1.16.44.512 0 .899-.147 1.16-.44.261-.293.435-.677.52-1.152.085-.475.128-1.075.128-1.8zM33.552 27.448c0-.648.186-1.148.558-1.5.372-.352.854-.528 1.446-.528s1.072.176 1.44.528c.368.352.552.852.552 1.5s-.184 1.148-.552 1.5c-.368.352-.848.528-1.44.528s-1.074-.176-1.446-.528c-.372-.352-.558-.852-.558-1.5zm8.148-1.896L37.08 34H35.1l4.62-8.448h1.98zm-6.156 1.068c-.384 0-.576.276-.576.828 0 .544.192.816.576.816a.513.513 0 0 0 .432-.204c.104-.136.156-.34.156-.612 0-.552-.196-.828-.588-.828zm3.72 5.484c0-.648.184-1.148.552-1.5.368-.352.848-.528 1.44-.528s1.072.176 1.44.528c.368.352.552.852.552 1.5s-.184 1.148-.552 1.5c-.368.352-.848.528-1.44.528s-1.072-.176-1.44-.528c-.368-.352-.552-.852-.552-1.5zm1.98-.828a.497.497 0 0 0-.426.204c-.1.136-.15.344-.15.624 0 .544.192.816.576.816a.513.513 0 0 0 .432-.204c.104-.136.156-.34.156-.612 0-.272-.052-.478-.156-.618a.508.508 0 0 0-.432-.21z"/>
        </g>
    </g>
</svg>
