<svg width="52" height="52" viewBox="0 0 52 52" xmlns="http://www.w3.org/2000/svg">
    <g fill-rule="nonzero" fill="none">
        <path fill="#EA2127" d="M46.8 47.667H5.2l1.692-3.649H46.8z"/>
        <path d="M8.497 46.618v-1.551h.39c.174 0 .347 0 .434.042.13.042.217.083.304.167.173.126.26.336.26.587 0 .252-.087.42-.304.588-.087.083-.217.125-.303.167-.087.042-.26.042-.434.042h-.347v-.042zm.303-.21h.13c.13 0 .217 0 .304-.041.087-.042.174-.042.217-.126.13-.126.217-.252.217-.42 0-.167-.087-.293-.217-.419-.13-.084-.304-.126-.52-.126H8.8v1.133zM11.316 45.696h.781v-.63h.26v1.552h-.26v-.713h-.78v.713h-.26v-1.551h.26zM13.659 45.067h1v1.552h-1zM15.437 45.99v.628h-.26v-1.551h.304c.173 0 .26 0 .347.042.086 0 .13.042.217.083.086.084.173.21.173.336a.377.377 0 0 1-.173.335.75.75 0 0 1-.434.126h-.174zm0-.21h.087c.26 0 .39-.084.39-.252 0-.168-.13-.252-.39-.252h-.087v.504zM18.127 46.24h-.781l-.217.378h-.304l.911-1.635.868 1.635H18.3l-.173-.377zm-.13-.209-.26-.545-.26.545h.52zM19.732 45.947l-.564-.88h.304l.433.629.39-.63h.304l-.564.881v.671h-.303zM22.465 46.24h-.781l-.217.378h-.304l.911-1.635.868 1.635h-.304l-.173-.377zm-.13-.209-.26-.545-.261.545h.52zM25.371 45.067h1v1.552h-1zM26.803 46.618v-1.635l1.3 1.174v-1.09h.261v1.635l-1.301-1.174v1.09zM30.576 45.318l-.216.126-.13-.126c-.044 0-.087-.042-.13-.042-.087 0-.13 0-.174.042-.044.042-.087.084-.087.126 0 .084.087.126.217.168l.173.042c.13.042.26.126.304.168.087.083.087.167.087.251a.377.377 0 0 1-.174.336.75.75 0 0 1-.433.125c-.174 0-.304-.042-.39-.125-.088-.084-.174-.21-.174-.336l.26-.042c0 .084.043.168.043.21.044.084.13.084.26.084a.337.337 0 0 0 .217-.084.314.314 0 0 0 .087-.168v-.084c0-.042-.043-.042-.043-.084-.044 0-.044-.042-.087-.042s-.087-.041-.13-.041l-.174-.042c-.26-.084-.39-.21-.39-.378 0-.126.043-.21.173-.293.087-.084.217-.126.39-.126.218.084.391.168.521.335M31.921 45.067v.922c0 .126.044.21.087.294a.4.4 0 0 0 .304.126c.13 0 .26-.042.303-.126.044-.042.087-.168.087-.294v-.922h.26v1.006a.53.53 0 0 1-.173.42c-.13.125-.304.167-.477.167-.174 0-.347-.042-.478-.168a.53.53 0 0 1-.173-.419v-1.006h.26zM34.784 45.947l.564.671h-.347l-.52-.629h-.044v.63h-.26v-1.552h.304c.26 0 .433.042.52.125.13.084.174.21.174.336 0 .126-.044.21-.087.294a.477.477 0 0 1-.304.125m-.347-.167h.087c.26 0 .39-.084.39-.252 0-.168-.13-.252-.39-.252h-.087v.504zM37.3 46.24h-.78l-.218.378h-.26l.911-1.635.868 1.635h-.304l-.217-.377zm-.087-.209-.26-.545-.26.545h.52zM38.775 46.618v-1.635l1.301 1.174v-1.09h.26v1.635l-1.3-1.174v1.09zM42.853 45.15v.294a.738.738 0 0 0-.478-.168c-.173 0-.347.042-.477.168a.53.53 0 0 0-.173.42.53.53 0 0 0 .173.419c.13.126.304.168.477.168.087 0 .174 0 .26-.042.044 0 .087-.042.13-.042.044-.042.088-.042.13-.084v.293a1.015 1.015 0 0 1-.476.126.899.899 0 0 1-.65-.251c-.174-.168-.261-.336-.261-.546 0-.21.087-.377.217-.545.173-.168.433-.293.737-.293.087 0 .26 0 .39.084M44.935 45.276h-.738v.378h.694v.251h-.694v.504h.738v.21h-.998v-1.552h.998z" fill="#FFF"/>
        <g fill="#224290">
            <path d="M11.056 39.49c-.173-.168-.434-.21-.78-.168-.087 0-.13.041-.218.083-.086.042-.173.084-.216.168a.67.67 0 0 0-.174.294l-.65 1.635V39.91a.51.51 0 0 0-.218-.42.897.897 0 0 0-.477-.126c-.217 0-.39.042-.52.168a.504.504 0 0 0-.174.378c0 .083.044.167.044.21a.488.488 0 0 0 .433.293h.044c.043 0 .086 0 .173-.042.044-.042.13-.084.087-.126 0-.042-.043-.084-.13-.084h-.174c-.043 0-.086-.084-.086-.084 0-.042 0-.125.043-.167a.333.333 0 0 1 .173-.084c.087 0 .13 0 .13.042a.128.128 0 0 1 .044.084V42.844h.13c.217 0 .39-.084.477-.21l1.041-2.6c.044-.083.087-.125.13-.125.087-.042.13-.042.174-.042.13 0 .174.042.26.084a.314.314 0 0 1 .087.167v2.474s0 .084.087.168.173.126.347.126h.087v-2.768c.086-.335 0-.503-.174-.629M11.273 38.734c0-.21-.217-1.467-1.779-1.467-.13 0-.303 0-.433.042-.434.125-.868.377-1.041.754 0 0-.044.126 0 .168 0 .042.043.084.13.084h.694c.78.042 1.475.168 2.082.377 0 .042.347.168.347.042zm-2.69-.754c.087-.084.304-.252.478-.294.173-.042.347-.084.52-.084.52 0 1.215.378 1.258.755-1.04-.503-2.169-.377-2.255-.377zM15.958 39.28h-.087c-.434 0-.434.251-.434.251v1.93l-.737-1.888c-.043-.084-.13-.251-.26-.251-.174 0-.26.21-.26.251l-.781 1.93v-1.594a.459.459 0 0 0-.217-.42.897.897 0 0 0-.478-.126c-.216 0-.39.042-.52.168a.504.504 0 0 0-.174.378c0 .083.044.167.044.21a.488.488 0 0 0 .434.293h.043c.043 0 .13-.042.173-.042.044-.042.13-.084.087-.126 0-.042-.043-.084-.13-.084h-.13c-.043 0-.087-.084-.087-.084 0-.042 0-.125.044-.167a.333.333 0 0 1 .173-.084c.087 0 .13 0 .13.042a.128.128 0 0 1 .044.084V42.844h.13c.217 0 .39-.084.477-.21l.954-2.432.911 2.432c0 .042.13.21.52.21h.087v-2.768l.044-.796zM24.07 37.602h-.087c-.174 0-.304.042-.347.126-.087.084-.087.126-.087.168v4.445h-1.605v-2.432a.459.459 0 0 0-.217-.42.897.897 0 0 0-.477-.126c-.217 0-.39.042-.52.168a.504.504 0 0 0-.174.378c0 .083.043.167.043.21.044.167.26.293.478.293.043 0 .086 0 .173-.042.043-.042.087-.084.087-.126 0 0-.044-.084-.174-.084h-.086c-.044 0-.087-.042-.087-.084s0-.125.043-.167a.333.333 0 0 1 .174-.084c.086 0 .13 0 .13.042.043.042.043.084.043.125v2.726l-.217.168H23.983l.087-5.284zM29.058 39.615c-.043 0-.087 0-.173.126a.581.581 0 0 0-.13.168c-.217.167-.564.21-.781.083-.044-.041-.087-.083-.044-.167a.333.333 0 0 1 .174-.084h.043c.044 0 .087.042.087.042v.126l.043.042h.044c.087 0 .13-.084.13-.084.043-.042.043-.084.043-.126 0-.168-.13-.294-.303-.336-.044 0-.13-.042-.174-.042-.13 0-.26.042-.39.126-.174.126-.174.252-.174.378-.043.293.26.503.607.503h.174c.174 0 .304-.042.477-.084.304-.126.477-.335.477-.587-.043-.084-.13-.084-.13-.084M32.702 37.77s-.087 0-.174.126c-.043.042-.086.084-.13.167-.303.252-.824.294-1.04.294h-.13c-.305 0-.521-.042-.652-.126-.043-.042-.086-.084-.043-.168.043-.041.087-.083.174-.083h.043c.043 0 .087.042.087.042v.125s.043.042.086.042c.087 0 .13-.084.13-.084.044-.042.044-.083.044-.125 0-.168-.13-.294-.304-.336-.043 0-.13-.042-.173-.042-.217 0-.434.084-.52.252-.087.168-.087.335.043.461.13.21.39.294.65.336.13.041.304.041.434.041h.043c.608 0 1.519-.293 1.519-.88 0-.042-.087-.042-.087-.042M41.16 37.77c-.043 0-.086 0-.173.126a.581.581 0 0 0-.13.167c-.304.252-.824.294-1.04.294h-.131c-.304 0-.52-.042-.65-.126-.044-.042-.088-.084-.044-.168a.337.337 0 0 1 .217-.083h.043c.044 0 .087.042.087.042v.125s.043.042.087.042c.086 0 .13-.084.13-.084.043-.042.043-.083.043-.125 0-.168-.13-.294-.303-.336-.044 0-.13-.042-.174-.042-.217 0-.434.084-.52.252-.087.168-.087.335.043.461.13.21.39.294.65.336.13.041.304.041.434.041h.044c.607 0 1.518-.293 1.518-.88 0-.042-.087-.042-.13-.042M29.058 41.67c-.043 0-.087 0-.173.126a.581.581 0 0 0-.13.167c-.217.168-.564.21-.781.084-.044-.042-.087-.084-.044-.167.044-.042.087-.084.174-.084h.043c.044 0 .087.042.087.042v.125l.043.042h.044c.043 0 .13-.042.13-.083.043-.042.043-.084.043-.126 0-.168-.13-.294-.303-.336-.044 0-.13-.042-.174-.042-.13 0-.26.042-.39.126-.174.084-.174.252-.174.378-.043.293.26.503.607.503h.174c.13 0 .304-.042.434-.084.303-.084.477-.336.477-.587 0-.042-.087-.084-.087-.084M26.933 39.447h-.087v.084c0 .084-.087.126-.174.126-.043 0-.086 0-.13-.042-.217-.168-.39-.335-.78-.335-.998 0-1.215.88-1.215.88v.084l1.518.461v1.51c0 .042 0 .084-.043.126-.044.042-.087.042-.13.042-.087 0-.13-.042-.174-.084-.043-.042-.043-.126-.043-.168 0-.042.043-.084.086-.084h.174c.087 0 .087-.042.13-.084 0-.083-.087-.125-.087-.167-.043-.042-.086-.042-.173-.042a.535.535 0 0 0-.477.293c0 .042-.044.126-.044.21 0 .126.044.294.174.377.13.126.303.168.52.168a.897.897 0 0 0 .477-.126.51.51 0 0 0 .217-.419v-1.594c0-.251-.26-.335-.26-.335l-1.128-.336a.662.662 0 0 1 .564-.293c.174 0 .304.084.434.168.087.042.13.084.217.125.087.042.173.042.26.042.13 0 .217-.042.304-.083.087-.084.13-.168.13-.252-.087-.084-.13-.252-.26-.252M19.602 39.405c-.087.084-.087.126-.087.168v2.768h-1.779v-.965c0-.125.044-.21.52-.21.174 0 .348-.041.391-.125.087-.084.044-.168.044-.168v-.084h-.477c-.478 0-.521-.377-.521-.377v-.461c0-.042 0-.084.043-.126.044-.042.087-.042.13-.042.044 0 .13.042.174.084.043.042.043.125.043.167 0 .042-.043.084-.086.084h-.174c-.087 0-.087.042-.13.084 0 .042.043.126.087.126.043.042.13.042.173.042.217 0 .39-.126.434-.294 0-.042.043-.125.043-.21 0-.125-.043-.293-.173-.377-.13-.126-.304-.167-.52-.167a.897.897 0 0 0-.478.125.51.51 0 0 0-.217.42v.629c0 .126.044.293.217.42-.087.083-.217.167-.217.376v1.342l-.086.126h3.08v-3.438h-.087c-.174-.042-.26 0-.347.083M44.891 39.28c-.173 0-.303.042-.347.125-.043.084-.086.126-.086.168v2.768h-1.779v-.965c0-.125.043-.21.52-.21.217 0 .348-.041.391-.125.087-.084.043-.168.043-.168v-.084h-.477c-.477 0-.52-.377-.52-.377v-.461c0-.042 0-.084.043-.126.043-.042.087-.042.13-.042.087 0 .13.042.174.084.043.042.043.125.043.167 0 .042-.043.084-.087.084h-.173c-.087 0-.087.042-.13.084 0 0 0 .084.13.126.043.042.087.042.173.042.217 0 .39-.126.477-.294 0-.042.044-.125.044-.21 0-.125-.044-.293-.174-.377-.13-.126-.303-.167-.52-.167a.897.897 0 0 0-.477.125.51.51 0 0 0-.217.42v.629c0 .126.043.293.217.42-.087.083-.217.167-.217.376v1.342l-.217.168h3.08v-3.439h-.044v-.083zM36.953 41.754c-.087-.042-.173-.084-.26-.084v-2.39h-.087c-.434 0-.434.251-.434.251v2.18c-.564.085-1.258.378-1.518.462l-.13.042v-2.39a.459.459 0 0 0-.217-.42.897.897 0 0 0-.477-.125c-.217 0-.39.042-.52.167a.504.504 0 0 0-.174.378c0 .084.043.167.043.21.044.167.217.293.434.293h.043c.044 0 .087 0 .174-.042.043-.042.13-.084.087-.168 0-.042-.044-.084-.13-.084h-.131c-.043 0-.086-.083-.086-.083 0-.042 0-.126.043-.168a.333.333 0 0 1 .173-.084c.087 0 .13 0 .13.042.044.042.044.042.044.126v2.767l-.217.168h.39c.087 0 .217 0 .304-.042 0 0 .911-.42 1.562-.545l-.044.042c-.043.042-.043.084-.043.126 0 .21.174.335.347.377.087 0 .174.042.217.042a.75.75 0 0 0 .434-.126.51.51 0 0 0 .217-.419c.043-.252 0-.377-.174-.503zm-.52.629h-.044c-.043 0-.087-.042-.13-.084v-.126l-.043-.042c.086 0 .173 0 .217-.042h.043c.13 0 .217 0 .217.042.043.042.043.042.043.084-.043.084-.173.168-.303.168zM32.051 39.49c-.303-.168-.607-.252-.91-.21-.868.042-1.259.503-1.389.796a.758.758 0 0 0-.087.294v.084s.044.042.087.042c.347-.042.52.126.52.126-.303.125-.39.293-.39.587v1.593h.087c.434 0 .434-.251.434-.251v-1.342c0-.294.564-.587.564-.587s-.174-.294-.65-.378c.086-.126.303-.377.823-.42.868-.041 1.041.63 1.041.714v2.013s0 .251.434.251h.087v-2.055c.087-.88-.607-1.258-.65-1.258M40.553 39.49c-.303-.168-.607-.21-.91-.21-.868.042-1.258.503-1.389.796 0 .042-.043.042-.043.084-.043.084-.043.168-.043.21v.084s.043.042.086.042h.304c.13.042.217.084.217.084-.304.125-.39.293-.39.587v1.048c0 .042 0 .084-.044.126-.043.042-.087.042-.13.042-.087 0-.13-.042-.173-.084-.044-.042-.044-.126-.044-.168 0-.042.044-.084.087-.084h.173c.087 0 .13-.042.13-.084 0-.041-.043-.083-.086-.167-.044-.042-.087-.042-.174-.042-.217 0-.39.126-.433.293-.044.084-.044.126-.044.21 0 .126.044.294.174.377.13.126.303.168.52.168.044 0 .13 0 .174-.042a.477.477 0 0 0 .303-.126c.217-.125.217-.293.217-.293v-1.174c0-.294.564-.587.564-.587s-.173-.294-.65-.378c.086-.126.303-.377.824-.42.867-.041 1.04.63 1.04.714v2.013s0 .251.435.251h.086v-2.055c-.086-.838-.737-1.216-.78-1.216z"/>
        </g>
        <g>
            <path d="M42.467 20.15c0 9.231-7.344 16.683-16.467 16.683-9.123 0-16.467-7.452-16.467-16.683S16.877 3.467 26 3.467c9.123 0 16.467 7.452 16.467 16.683z" fill="#B88547"/>
            <path d="M41.465 20.15c0 8.453-6.898 15.46-15.465 15.46a15.43 15.43 0 0 1-15.465-15.46A15.43 15.43 0 0 1 26 4.69a15.43 15.43 0 0 1 15.465 15.46z" fill="#FFF"/>
            <path d="M40.575 20.15c0 8.12-6.564 14.793-14.575 14.793-8.01 0-14.575-6.563-14.575-14.793S17.989 5.357 26 5.357c8.122 0 14.575 6.563 14.575 14.793z" fill="#EA2127"/>
            <path d="M39.351 20.15c0 7.452-6.008 13.458-13.351 13.458-7.343 0-13.351-6.006-13.351-13.458S18.657 6.58 26 6.58c7.343 0 13.351 6.118 13.351 13.57z" fill="#224290"/>
            <path d="M34.233 26.378c-.222-.333-.222-1.223-.556-1.557-.334-.222-.779 0-1.113.334-1 .111-3.004 1.335-3.226 1.89-.111.223-.223.557-.334.557.89-2.336-1.001-5.228-1.001-5.784 0-.89 1.001-1.334 1.001-2.113.334.667 1.113 1.001 1.78 1.224-.445.778.445 1.78.334 2.446 0 .223-.111.334-.223.334-.222-.222-.333-.445-.556-.556.334-.222-.111-.779.223-1.223-.112 0-.223 0-.223.11-.222.223-.111.446-.222.668-.112-.222-.112-.667 0-.89-.223-.11-.668-.89-.78-1.112-.11.445-.11 1.001-.222 1.335.334.111.445.556.557.89-.223-.112-.334-.445-.78-.445.335.222.335.778.78.89-.112.222-.223.556-.334.778.222 0 .334-.222.445-.334-.223.334 0 .779.222 1.001.112.112.112 0 .223 0 .111.112 0 .334 0 .445.111.334.667.334.667-.111 0-.222-.222-.111-.222-.334.222.112 1.001 0 1.669-1.668.334-1.001.222-2.67-.334-3.225 0 0 .334-.334.445-.557.334-.556.556-1.112.779-1.668.111-.334.334-.667.556-1.112 0-.111.112-.111.112-.223.11-.11.222-.222.333-.444v-.112c.557-.222 1.002-.778 1.002-1.334 0-.779-.668-1.446-1.447-1.446s-1.446.667-1.446 1.446c0 .222.111.556.222.778l-.222.223v.556c0 .111.111.222.111.333a.85.85 0 0 1-.222.557l-.668.667c-.445.334-.668.556-.779.778-.334-.556-.667-.778-1.001-1-.111-.112-.334-.112-.445-.112h-.333c-.112.223-.223.334-.335.445.112-.111.223-.334.334-.445-.334-.111-.668-.111-1.001-.111.222-.334 1.112 0 1.224-.445h-.334c-.111 0-.111 0-.111-.111 0 0 0-.111.11-.111.112 0 .112.11.223.222h.222c.112 0 .223 0 .223-.111.112 0 .112-.111.223-.111l.222-.223s0-.111.112-.111h.11l.112-.111.111-.111c.112-.112.223-.112.223-.223-.111-.111-.445.111-.556 0 .222-.111.445-.556.445-.667h-.223a.85.85 0 0 0 .223-.556h-.223c.223-.223.334-.668.334-1.001-.445-.223-.556-.334-1.001-.334v-.222c-.223-.112-.557-.112-.78-.112v-.222h-.778v-.223c-.445 0-1.113.112-1.335.557-.445 0-.668.333-.89.556-.334-.556-1.335-.334-1.113.333-.222.112-.222.445-.111.668 0-.112.111-.112.222-.112.112 0 .223 0 .223.112 0 .333.445.333.445.667-.223.111-.445.222-.779.222a.24.24 0 0 1-.222-.222c-.223.222-.223.445-.112.667-.333.445.112.89.668.668.111.333.222.778.445.89-.334-.112-.668-.445-1.001-.78 0 .223.11.446.222.668l-.222-.222a5.421 5.421 0 0 1-.334-.779s-.223 0-.223-.111c-.667-.111-1.446 0-2.559.445.334-.667-.111-1.335-.222-1.89a1.644 1.644 0 0 1 .445-1.447c.111.111.334 0 .445.111-.111.223 0 .334-.111.557 0 .222-.334.333-.223.556.111.222.334.222.556.222.334-.111.112-.334.112-.667 0-.111.11-.556.11-.668 0-.11.112-.11.223-.11 0 0 0-.112.112-.223.11-.111.222-.111.222-.111 0-.112 0-.223.111-.334.112-.111.112-.111.112-.223 0-.222-.223-.222-.223-.444.445-.112.557-.445.779-.779.779.667 1.224-.445 2.003-.667.222-.112.334 0 .667-.112-.222-.11-.556-.222-.667-.333 1.001 0 2.002.333 2.781-.223-.334 0-1.224-.222-1.669-.222.78 0 2.782 0 3.116-.89a3.08 3.08 0 0 1-1.447.334c-.779 0-1.335-.334-1.891-.334.334-.222.779-.445.89-.89-.223 0-.334.223-.556.223-.557.222-1.447.111-2.114.222-.334.111-.445.223-.78.223.446-.223 1.336-.779.78-1.446 0 .222 0 .445-.89.778-.445.223-1.002.334-1.447.556-1.112.668-1.224 1.891-.667 2.114-.112.445.222.778.445 1-.223.112-.557.112-.78.112-.333.111-.555.222-.667.445l-.334.333c-.11.112-.222.223-.222.445-.223.334-.334.779-.445 1.224-.111.222-.223.445-.223.778-.11.556-.222 1.113-.11 1.557 0 .223 0 .334.11.445l.223.445c-1.669 1.224-1.558 4.56.111 4.56-.334.779 1.224.445 1.113-.11.111.11.779.333.89 0-.111 0-.445-.223-.556-.446-.223-.222-.668-.445-1.447-.667-.334-1.112 1.113-1.224 1.113-2.113.445.11 1.224.11 1.669-.112 0 .445-.112.668.11 1.001.112.223.335.334.335.445.111.334-.112.668.222 1.001 0 .223-.89 1.113-.89 1.113-1.112 1.112-2.67.556-3.671.556-1.892 0-2.56 1.89-.78 3.003 1.113.778 2.448.556 2.782 1.557.112.222.112.333 0 .556.445 0 .334-1.446 1.224-1.446.445 0 1.001.222 1.224.445.556.667-1.335.334-1.669.778-.445.334-.222 1.224.556 1.113.112-.334.334-.556.78-.445-.557.333.333.89.556.445 0-.112-.112-.112-.112-.223.223-.222.557.111.78 0 .333 0 .444-.333.444-.778.223 1.334 1.001 4.893 4.673 4.893 1.669 0 1.446-1.668 2.67-1.668a1.88 1.88 0 0 0 1.113-.334c.223-.222.334-.778.89-.778-.445-.334-.445-.111-.779 0s-.556 0-.779 0c-.11 0-.222.111-.445.222.112-.333.557-.445.89-.445.668-.222.446-.89 1.224-1-.445-.445-.778-.112-1.335.11-.222.112-.445 0-.556 0-.223 0-.334.223-.668.223.223-.222.334-.556.557-.778.222 0 1.001 0 .89-.557-.223.334-.557-.222-.78-.11.112-.446.335-1.224.891-1.113.445.111 0 1.335.779 1.223.111-.11 0-.222.111-.222.445.779 1.78.111 1.335-.667-.779.11-1.112.11-1.224-.112zm-1.557-11.9c0-.556.445-1.113 1.112-1.113.557 0 1.113.445 1.113 1.113 0 .445-.223.778-.668 1v-.11l-.11-.112h-.112s0-.111-.111-.111h-.223l-.111-.111s-.111 0-.111-.111h-.223c-.111 0-.111-.112-.111-.112l-.112-.11c-.11 0-.11 0-.222.11l-.111.112v-.445z" fill="#FFF"/>
            <g fill="#B88547">
                <path d="M34.9 26.712c-.222-.111-.555-.222-.667-.334-.11-.11-.11-.444-.222-.778-.111-.334-.111-.667-.445-.779-.111-.11-.223-.11-.334-.11-.334 0-.668.222-.779.444h.111v-.111c-.556.111-1.223.445-1.891.778-.668.445-1.224.779-1.335 1.113h.111-.111c-.111.11-.111.222-.223.333 0 .111-.11.223-.11.223v.11h.11c.223-.444.223-.889.223-1.445 0-1.001-.334-2.002-.668-2.78-.111-.445-.334-.78-.445-1.002-.111-.222-.222-.444-.222-.556 0-.445.222-.778.445-1.112.222-.334.445-.667.445-1.112h-.223c.334.667 1.113 1 1.78 1.223v-.11h-.11c-.112.222-.112.333-.112.555 0 .668.445 1.335.445 1.78v.111h.111-.111c0 .222-.111.222-.223.334v.11-.11c-.222-.112-.333-.445-.556-.556v.222c.111-.111.223-.222.111-.334v-.556c0-.111 0-.222.112-.333l.11-.112h-.11c-.112 0-.223 0-.334.112-.111.11-.111.222-.111.333 0 .111 0 .223-.112.223v.11h.112c0-.11-.112-.333-.112-.444 0-.111 0-.334.112-.445v-.111h-.112c-.11 0-.222-.223-.445-.445-.11-.222-.333-.445-.333-.556l-.112-.111v.222c-.111.445-.111 1.112-.222 1.335v.111h.111c.223.111.445.556.445.779h.111v-.112l-.222-.222c-.111-.111-.223-.111-.445-.111h-.334l.111.11c.111.112.223.335.334.446a.869.869 0 0 0 .445.445v-.112h-.111c-.111.223-.223.668-.334.779l-.111.111h.111c.111 0 .223-.111.334-.111l.222-.222v-.112h-.11c-.112.112-.112.223-.112.334 0 .222.111.556.334.667l.11.112h.112v-.112h-.111v.445h.111-.111c0 .223.222.334.445.334.111 0 .222 0 .222-.111.112-.112.112-.112.112-.334 0-.111-.112-.222-.112-.222s-.11 0-.11-.223h-.112.111-.111.111-.111v.111h.222c.445 0 1.002-.333 1.558-1.78.111-.333.223-.889.223-1.334 0-.778-.223-1.557-.557-2.002v.111s.334-.333.445-.556c.334-.556.557-1.112.78-1.668.11-.334.333-.667.555-1.112 0-.112.112-.112.112-.223.111-.111.222-.222.334-.445v-.667l-.112-.111h-.111l-.111-.111-.112-.112h-.11l-.112-.11-.111-.112h-.222l-.112-.111-.111-.112c-.112 0-.223 0-.223.112l-.556.778v.223c0 .11 0 .222.111.333 0 .112.111.223.111.334h.112-.112c0 .222-.11.334-.222.556l-.668.667c-.445.334-.667.557-.779.779h.112c-.334-.556-.78-.779-1.113-1.001-.222-.111-.334-.111-.445-.222v.11h.111v-.11l-.334-.112h-.11c-.557.668-1.002 1.001-1.781 1.001-.334 0-.668 0-1.001-.11-.78-.223-1.224-.668-1.447-1.002h.112a5.421 5.421 0 0 1-.334-.778l-.223-.112c-.222 0-.334-.11-.556-.11-.556 0-1.224.11-2.003.555v.111h.112c.11-.222.11-.333.11-.556 0-.556-.222-1-.333-1.334v-.223c0-.445.223-.89.445-1.223h-.111v.111c.111 0 .222 0 .222.111.112 0 .112 0 .112.111h.11-.11v.445s-.112.112-.112.223c-.111.111-.111.222-.111.333v.112c.111.222.334.333.445.333h.223c.222 0 .222-.222.222-.333v-.445c0-.111.111-.556.111-.668h.112l.11-.11.112-.223h-.111l.111-.111.111-.112h-.11.11v-.333l.112-.112s.11-.11.11-.222c0-.111-.11-.222-.11-.222l-.112-.112h-.11v.112a.612.612 0 0 0 .555-.334c.112-.111.223-.334.334-.445h-.111v.111c.223.111.334.223.556.223.334 0 .557-.223.78-.445.222-.223.444-.445.778-.556.222-.112.334 0 .668-.112h.11l-.11-.11c-.223-.223-.557-.223-.668-.334v.11c.556 0 1.113.112 1.669.112.445 0 .779-.111 1.224-.334l.222-.11h-.222c-.334 0-1.224-.223-1.67-.335v.222c.446 0 1.113 0 1.781-.11.668-.112 1.224-.334 1.335-.89l.111-.223-.11.112c-.335.222-.89.333-1.336.333-.668 0-1.224-.333-1.78-.333v.222c.334-.222.779-.445.89-.89v-.11h-.111c-.223 0-.334.222-.557.333-.556.222-1.446.111-2.114.222-.333.111-.556.223-.778.223v.222l.667-.334c.223-.222.334-.444.334-.667 0-.111-.111-.334-.223-.445l-.222-.111.111.222v.112c0 .11 0 .11-.111.222-.111.111-.334.223-.779.445s-1.001.334-1.446.556c-.668.445-1.002 1.001-1.002 1.557 0 .334.112.668.334.779v-.111h-.111v.11c0 .446.222.668.445.89h.111v-.11c-.222.11-.556.11-.779.11-.333.112-.556.223-.779.445v.112-.112c-.11.112-.222.223-.333.334-.112.111-.223.334-.223.445-.222.334-.334.779-.445 1.223-.111.223-.222.445-.222.779-.112.334-.112.779-.112 1.112v.445c0 .223.112.334.112.556l.11.445h.112v-.111c-.89.667-1.224 1.668-1.224 2.67 0 .555.111 1 .334 1.334.223.334.556.556 1.001.556v-.111h-.11v.222c0 .111.11.223.11.223.112.11.223.11.334.11.223 0 .445-.11.556-.11.112-.112.334-.223.334-.445h-.111c0 .111.111.111.223.111.11 0 .222.111.333.111.112 0 .334 0 .445-.222v-.111h-.11c-.112 0-.446-.112-.557-.334-.223-.223-.668-.445-1.558-.667v.11h.111v-.333c0-.445.223-.667.557-.89.222-.222.556-.556.556-1h-.111v.11c.222.112.334.112.556.112.445 0 .779-.111 1.113-.223v-.11h-.112v.444c0 .222 0 .445.112.556.11.111.11.223.222.223.111.11.111.11.111.222v.445c0 .111 0 .334.223.556h.111-.111s0 .111-.111.222c-.223.334-.78.779-.78.779-.555.556-1.223.667-2.002.667-.556 0-1.224-.11-1.669-.11-.556 0-1.001.222-1.335.444-.334.334-.556.667-.556 1.112 0 .556.334 1.112 1.001 1.557.556.445 1.224.556 1.78.668.557.222.89.333 1.113.89v.666h.111c.111 0 .223-.11.334-.222.111-.222.223-.556.334-.778.111-.223.222-.445.556-.445.445 0 1.001.222 1.113.445.11.111.11.111.11.222v.111c-.11.112-.444.112-.778.223-.334 0-.667.111-.89.222h.111v-.11a.85.85 0 0 0-.222.555c0 .223 0 .334.111.445.111.111.334.223.445.223h.223c0-.223.222-.334.445-.334h.222v-.223c-.111.112-.222.223-.222.334 0 .111.11.223.222.334.111.111.223.111.334.111.111 0 .222 0 .334-.222v-.222h-.112l.112-.112c.111 0 .334.111.556.111h.111c.334 0 .557-.334.557-.778v-.112h-.222c.11.668.444 1.891 1.112 3.003.667 1.113 1.78 2.002 3.671 2.002.89 0 1.224-.445 1.558-.89.334-.444.556-.778 1.113-.778.445 0 .778-.111 1.223-.445.223-.222.334-.778.78-.778h.222l-.111-.112c-.223-.11-.334-.222-.445-.222-.112 0-.112 0-.223.111-.111 0-.111.111-.223.111h-.778c-.112 0-.223.112-.445.223v.111h.11c.112-.222.557-.445.78-.445.333-.111.445-.334.556-.556.111-.222.223-.334.556-.445h.223l-.111-.111c-.223-.111-.334-.223-.557-.223-.334 0-.556.223-.89.334h-.667c-.112 0-.223.111-.334.111-.111 0-.223.112-.334.112v.11h.111c.223-.222.334-.555.557-.778v-.111.111h.222c.111 0 .334 0 .445-.111.111-.111.223-.222.223-.445v-.334l-.112.112-.11.11s-.112 0-.223-.11c-.112-.112-.223-.112-.334-.112h-.111v.112h.11c0-.223.112-.445.223-.668.112-.222.223-.333.445-.333h.112c.11 0 .11.11.11.222 0 .223 0 .445.112.667 0 .112.111.223.111.334.112.111.223.111.334.111h.112c.11 0 .11-.11.11-.11v-.112h-.11c.11.222.445.334.667.334.445 0 .89-.334.89-.668.111-.333.111-.556-.111-.556v.334c0 .111-.111.333-.223.445a.85.85 0 0 1-.556.222.612.612 0 0 1-.556-.334v-.11l-.111.11v.334-.111h-.112c-.111 0-.222 0-.222-.111-.112-.112-.112-.334-.112-.556 0-.112 0-.223-.11-.334 0-.111-.112-.111-.223-.223h-.112c-.222 0-.445.223-.556.445-.111.223-.222.556-.222.779v.111h.222c.111 0 .111 0 .223.111.11.112.222.112.333.112.112 0 .112 0 .223-.112h-.223v.112a.24.24 0 0 1-.222.222c-.111.111-.334.111-.445.111h-.223c-.333.223-.333.556-.556.779l-.111.222h.222c.223 0 .334-.111.445-.111.112 0 .223-.111.334-.111h.668c.333-.111.556-.334.779-.334.11 0 .222 0 .445.223v-.112c-.445 0-.557.223-.668.445-.111.223-.223.445-.556.556v.112-.112c-.334 0-.78.112-1.002.556l-.11.223.222-.111c.222-.112.333-.223.445-.223h.667c.111 0 .223-.111.334-.111.111 0 .111-.111.111-.111.112 0 .112 0 .334.222v-.222c-.556 0-.779.667-.89.778v-.11c-.445.333-.668.333-1.113.333-.667 0-.89.445-1.224.89-.333.444-.667.778-1.446.778-1.78 0-2.893-.89-3.56-1.89-.668-1.002-.89-2.225-1.113-2.892h-.111v.11c0 .334-.223.557-.445.557h-.111c-.112 0-.334-.111-.557-.111-.111 0-.222 0-.222.11v.223h.11-.11c-.112.112-.112.112-.223.112s-.222 0-.222-.112c-.112-.11-.112-.11-.112-.222 0 0 0-.111.112-.223l.11-.11h-.444c-.334 0-.556.222-.668.444h.112v-.111h-.223c-.334 0-.445-.223-.556-.556 0-.111.111-.334.222-.445.112-.111.557-.223 1.002-.223.222 0 .445 0 .556-.11.111 0 .111 0 .222-.112 0 0 .112-.111.112-.222 0-.112 0-.112-.112-.223-.222-.334-.778-.445-1.223-.445a.85.85 0 0 0-.557.223c-.222.222-.222.556-.334.778 0 .111-.11.223-.11.334 0 .111-.112.111-.112.111v.111h.111v-.222c0-.111 0-.223-.111-.334-.223-.556-.668-.778-1.113-1-.556-.223-1.112-.334-1.669-.668-.667-.445-1-1.001-1-1.446 0-.779.667-1.335 1.78-1.335.444 0 1.112.112 1.668.112.668 0 1.447-.112 2.003-.779l.445-.445.334-.334c.11-.11.11-.222.11-.333-.11-.111-.11-.223-.11-.445v-.445a.24.24 0 0 0-.223-.222l-.222-.223c-.112-.222-.112-.334-.112-.556v-.556h-.11c-.223.111-.668.111-1.002.111-.223 0-.445 0-.557-.111h-.11v.111c0 .334-.223.556-.557.89-.223.222-.556.556-.556 1v.335c.89.222 1.223.444 1.446.667h.111-.111c.111.222.445.445.668.445v-.111h-.112c0 .11-.111.11-.222.11h-.334c-.111 0-.111-.11-.111-.11l-.112-.223v.223c0 .11-.11.222-.222.333-.111.111-.334.111-.445.111-.111 0-.223 0-.223-.11l-.11-.112v-.222h-.112c-.445 0-.668-.223-.89-.557-.223-.333-.334-.778-.334-1.223 0-.89.445-2.002 1.224-2.558l-.223-.556h-.11.11c0-.111-.11-.334-.11-.445v-.445c0-.334 0-.779.11-1.112.112-.223.112-.445.223-.779.222-.445.222-.778.445-1.223.111-.111.111-.334.222-.334l.334-.334c.223-.222.445-.333.668-.444.222-.112.556 0 .89-.112h.111v-.11c-.222-.223-.445-.557-.445-.89v-.112c-.222-.111-.334-.334-.334-.667 0-.445.334-1.001 1.002-1.446.445-.223.89-.445 1.335-.556.445-.111.667-.334.779-.445.11-.111.222-.223.222-.334v-.111h-.111c.111.111.222.222.222.334 0 .222-.11.333-.333.556-.223.111-.445.333-.557.333v.112c.334 0 .445-.223.78-.223.667-.111 1.557 0 2.224-.222.223-.111.334-.223.445-.223v-.11h-.11c-.112.333-.446.555-.891.778v.11-.11.11-.11.11c.556 0 1.113.335 1.78.335a3.08 3.08 0 0 0 1.447-.334v-.111h-.112c-.11.445-.667.667-1.224.778-.667.111-1.335.111-1.78.111v.112c.445.11 1.224.222 1.67.333v-.222a1.88 1.88 0 0 1-1.113.334c-.557 0-1.113-.112-1.67-.112h-.222l.111.112c.223.11.557.222.668.333v-.222c-.223.111-.334 0-.668.111-.333.111-.556.334-.778.556-.223.223-.445.334-.668.334-.111 0-.334 0-.445-.223h-.111v.112c-.112.11-.223.333-.334.444-.111.112-.223.223-.445.223h-.111v.111c0 .111.11.223.11.223.112 0 .112.11.112.222v.111l-.111.111v.334h-.111l-.112.111-.11.223h.11-.222l-.111.111c-.112.111-.112.556-.112.667 0 .223.112.334 0 .445 0 .111 0 .111-.11.223h-.112c-.223 0-.334-.112-.334-.223v-.111c0-.111 0-.111.111-.222 0-.112.112-.112.112-.223v-.556c-.112-.111-.112-.111-.223-.111h-.334c-.222.333-.445.778-.445 1.334v.223c.111.445.334.89.334 1.335 0 .11 0 .333-.111.444l-.112.223.223-.111c.779-.334 1.446-.445 1.891-.445.223 0 .334 0 .557.111v-.111.111h.222v-.111h-.111c.111.333.223.556.334.778.334.445.779.89 1.557 1.113.445.11.78.11 1.113.11.89 0 1.446-.444 1.891-1.111h-.11v.11h.333v-.11h-.111v.11h.111c.111.112.334.112.445.112.334.111.668.445 1.001 1.001l.112.111.11-.111c.112-.111.446-.334.78-.779.222-.222.556-.444.667-.667.112-.222.223-.334.223-.556 0-.111-.111-.222-.111-.334v-.333h-.112.112v-.112l.556-.667h-.111v.111l.11-.11v-.112.111l.112.111.111.112h.334l.111.11h.223l.111.112h.112v.556c-.112.111-.223.334-.334.445-.112.111-.112.111-.112.222-.11.334-.333.668-.556 1.113-.222.556-.445 1.112-.779 1.668-.11.111-.222.222-.222.334l-.111.11v-.222h-.112l.112.112c.333.333.556 1.112.556 1.89 0 .445-.111.89-.223 1.224-.556 1.446-1.112 1.668-1.446 1.668h-.223c0 .111.112.223.112.334 0 0 .11 0 .11.111h.112-.111a.24.24 0 0 1-.223.223c-.11 0-.222-.112-.333-.223v-.444h-.222c-.223-.223-.335-.334-.335-.557 0-.111 0-.222.112-.334l.11-.222-.222.111-.222.223c-.111.11-.111.11-.223.11v.112c.112-.222.223-.556.334-.778v-.112h-.111c-.223 0-.223-.222-.334-.333-.111-.223-.223-.445-.334-.556v.11h.111c.112 0 .223 0 .334.112.112.111.112.222.223.222l.111.112v-.223c0-.333-.222-.778-.556-.89v.112h.111c.111-.334.223-.89.334-1.335h-.223c.112.111.223.334.334.556.111.223.334.445.445.556v-.111h-.111c-.111.111-.111.334-.111.445 0 .222 0 .334.11.445v.111l.112-.111c.111-.111.111-.223.111-.334 0-.111 0-.222.112-.334l.222-.11v-.112h-.111c-.111.111-.111.334-.111.445v.556c0 .111 0 .222-.112.222l-.11.112.11.11c.223.112.334.335.557.557.222 0 .333-.222.333-.445v-.111c0-.556-.445-1.224-.445-1.78 0-.11 0-.333.112-.445v-.11h-.112c-.667-.223-1.446-.557-1.78-1.113h-.111c0 .334-.223.667-.445 1.001-.223.334-.445.667-.445 1.112 0 .111.111.334.222.668.334.89 1.002 2.335 1.002 3.781 0 .445-.112.89-.223 1.335l-.111.222.222-.111c.112-.111.112-.222.223-.334.111-.11.111-.222.223-.333.11-.223.667-.668 1.335-1.001.667-.445 1.446-.779 1.891-.779.111-.222.445-.445.668-.445.11 0 .222 0 .333.111.112.112.223.334.334.668.112.333.112.667.223.778.779.779 1.112.89 1.335.89zm-5.673-9.565v-.111.111z"/>
                <path d="M29.56 12.587c-.11-.111-.333-.111-.556-.111h-.334v.11h.112v-.332h-.446c-.222 0-.445 0-.556.11v.112-.112l.111-.11h-.222c-.445 0-1.001.222-1.224.555h.111v-.11c-.445 0-.779.333-.89.666h.223a.612.612 0 0 0-.557-.333c-.11 0-.333 0-.445.111-.11.111-.222.222-.222.445v.222h.111v-.11c-.111.11-.222.222-.222.444 0 .111 0 .222.11.334l.112.11.111-.11.112-.112v-.11.11h.222-.334c0 .223.112.334.223.445.111.112.222.112.222.223h.112v-.111c-.223.11-.445.222-.78.222v.111-.111c-.11 0-.11-.111-.222-.222v-.112.112c-.11.11-.11.333-.11.444 0 .112 0 .223.11.334h.112c-.112.111-.112.223-.112.334 0 .333.223.556.557.556.11 0 .222 0 .333-.111v-.112h-.11c.11.334.222.779.444 1.001v-.11c-.334-.112-.667-.446-.89-.668l-.111-.111v.222c0 1.112 1.224 1.78 2.448 1.78.89 0 1.669-.334 2.114-1.224v-.111h-.112c-.333-.111-.667-.111-1.001-.111v.111h.111c.111-.111.334-.111.557-.222h.333a.24.24 0 0 0 .223-.223v-.111h-.333v.111-.111c-.112 0-.112 0-.112-.111h-.111.11l.112-.112h-.111v.112h.111l.111.11h.222c.112 0 .223 0 .335-.11.11 0 .222-.112.222-.112.111-.11.111-.222.223-.222h-.112.112v-.111h.11l.112-.111v.11l.111-.11a.24.24 0 0 0 .223-.223h-.111c-.112 0-.334.111-.334.111h-.111c.222-.222.445-.556.445-.778v-.111l-.112.11h-.222c.111-.222.222-.333.334-.555v-.112l-.112.112h-.333c.222-.223.333-.668.333-1.113-.333-.222-.667-.333-1-.333v.111h.11v-.556h.112-.112c-.11 0-.11.111-.11.111v.111h.11c.445 0 .557 0 1.002.334h-.112c0 .334-.11.779-.333 1.001 0 .111.11.111.222.111h.111v-.111h-.11c0 .222-.112.334-.223.556l.11.111h.112v-.11h-.111c0 .11-.111.555-.334.666h-.111l.222.112c.112 0 .334-.112.334-.112v-.11h-.111c0 .11-.111.11-.223.222l-.11.11-.112.112v-.111l-.111.111-.112.111a.24.24 0 0 1-.222.223v.111-.111c-.111 0-.111.111-.223.111-.11 0-.222 0-.222.111v.111-.11h-.223v.11-.11l-.111-.112s-.111-.111-.223-.111l-.11.111c0 .111.11.111.222.111h.334v-.111h-.112c0 .111-.111.111-.111.111h-.556c-.223 0-.334.111-.445.223v.11h.11c.335 0 .668 0 1.002.112v-.111h-.111c-.334.778-1.113 1.112-2.003 1.112-1.112 0-2.225-.667-2.225-1.668h-.111c.222.333.556.667 1.001.778l.111-.11c-.222-.223-.333-.557-.445-.89V15.7h-.333c-.223 0-.334-.111-.334-.334 0-.11 0-.11.111-.222 0-.111-.111-.222-.111-.334 0-.11 0-.222.111-.333h-.111c.111.11.111.222.334.222.333 0 .556-.111.778-.222v-.112c0-.222-.222-.222-.333-.333-.112-.111-.223-.111-.223-.334 0-.111-.111-.111-.111-.111h-.111c-.112 0-.223.111-.223.111h.111c0-.111-.11-.222-.11-.334 0-.11.11-.222.11-.333v-.223c0-.11 0-.222.112-.333.11-.112.222-.112.333-.112.223 0 .334.112.445.223l.112.111.111-.111c.222-.334.334-.556.779-.556.222-.334.667-.445 1.112-.445h.112v-.111.333c.11 0 .333-.11.556-.11h.222v-.112h-.11v.222h.333c.556.779.779.779 1.001.779zM22.106 19.705c.222 0 .222.223.334.223.11-.334-.334-.557-.668-.334-.334.667-.779 1-1.113 1.335.334.11.446.222.668.444.334-.444.779-.667 1.224-1-.223 0-.556-.334-.445-.668zM19.88 20.595v-.334c-.444-.445-.778-.222-1.223.111 0 .334.111.557.222.779a.648.648 0 0 1 1.002-.445M27.224 9.584c-.556-.334-1.001-.334-1.335-.223-.89.223-.89.445-1.447.334.334.223.557.223 1.002.111.779-.445 1.112-.445 1.78-.222zM23.33 10.362s.89.445 1.669.112c.778-.334.778-.445 1.335-.334-.223-.334-.557-.334-1.113-.111a2.129 2.129 0 0 1-1.891.333zM27.669 7.804c-.223.334-.556.89-1.224 1.001-.779.112-.89 0-1.224.334.223-.334.445-.445 1.002-.445.445-.111 1.112-.334 1.446-.89zM22.55 10.029c-.11-.334 0-.779.335-1.001.667-.445 1.001-.445 1.557-.668.445-.222.78-.444.89-.778 0 0 0 .667-1 1.112-1.447.556-1.559.89-1.336 1.557.111.111-.223.334-.445-.222z"/>
                <path d="M24.22 14.478c.111.11.222.333.334.333.222.112.445 0 .667 0-.334-.333-.667-.667-1.335-.556.111.111.223.223.334.223zM20.326 13.143c.11.445.667.779 1.112.556v-.111c0-.111.112-.223.223-.334l.111-.111c-.222 0-.89-.334-.779-.89-.445.334-.556.668-.667.89zM32.453 16.368c0 .223-.222.557-.334.668.557-.111 1.113.222 1.113.556l.334-.779c0-.333-.668-.667-1.113-.445zM29.56 20.484s.445.333.78.445c.11.11 1.334-1.001 1.223-1.224 0-.222-.445-.778-.556-.89 0-.333-1.558 1.224-1.447 1.669zM21.55 16.48c-.334.11-1.113.556-1.113.667 0 .667.334 1.446.89 1.557.111 0 .556 0 .89-.111-.334-.334-.779-1.446-.667-2.113zM30.562 23.598s.556.556.556 1.112c0 0 .445-.222.668-.778a.76.76 0 0 0-.78-.779c0 .111-.222.445-.444.445zM32.008 25.934c.111.222.223.556.111.778.334-.556.668-.445.668-.445.111-.445-.334-1.112-.334-1.112-.111 0-.222.111-.222.111h-.223c-.334.111-.779.334-1.001.445.445.111.779.223 1.001.223zM31.897 27.49s-.223-.333-.779-.222c0 0-.223-.445-.89-.222 0 0-.223-.334-.668-.223-.11.112-.11.223-.222.334.111 0 .222.111.222.334.112-.112.223-.112.445-.112 0 0 .112.112.112.334.11-.111.222-.111.333-.111.112 0 .223.111.223.334.111-.112.222-.112.334-.223.111.111.222.334.222.445.112-.111.223-.222.557-.222v.11a.344.344 0 0 1 .11.223c.223.111 1.002 0 .89-.556-.333.223-.555-.334-.89-.222zM20.66 9.473l-.112-.334v.334l-.334-.112.223.223-.223.111h.223l-.111.334.222-.223.223.223v-.223l.222.112-.111-.223.223-.111-.334-.111.111-.223zM23.664 13.365l-.112.112.112-.112.11.223v-.223l.223.112-.111-.223h.111-.222l.111-.222-.111.111-.111-.111v.111h-.112l.112.111-.223.111zM23.886 12.698l-.111.223.222-.223.112.223v-.223l.222.111-.111-.222.222-.111h-.222v-.223l-.111.111-.112-.222v.334l-.222-.112.111.112-.222.11zM21.327 10.919l-.111.222.222-.222.112.222v-.222l.222.11-.111-.222.222-.11h-.333l.11-.223-.11.222-.112-.222-.111.222-.222-.111.222.222-.222.112zM19.436 9.584l.11-.445-.333.334-.222-.445-.112.445-.445-.112.334.334-.445.223h.556l-.222.444.334-.222.222.334.111-.445.445.111-.333-.334.445-.222zM23.997 13.81v.223l.112-.111v.11-.11h.11v-.112h.112-.111v-.11h-.111v-.112l-.112.111h-.111l.111.111h-.111zM19.992 11.141l-.111.222.222-.11.111.222v-.334l.334.111-.222-.222.333-.111h-.333l.11-.334-.222.222-.11-.222-.112.222-.223-.11.223.222-.334.11zM26.111 13.896c0 .297.334.445.557.445.11 0 .222.149.222.149.223.148.334 0 .556 0h-.556c-.111 0-.111-.149-.111-.149-.223-1.04-.779-.89-.668-.445zm.668.445h-.223c.112-.148 0-.445 0-.594.112-.148.223.297.223.594z"/>
                <path d="M26.111 13.477c.112-.112.223-.112.334-.112.223 0 .334.223.445.557 0 .11.223.222.334.222.111 0 .111 0 .222-.111-.11 0-.333 0-.333-.111-.112-.112-.223-.668-.557-.779-.222 0-.445.222-.445.334zM25.221 13.922c0 .556 1.002.89.556 1.334-.11.111-.11 0-.222 0-.223.334-.89.111-1.001.556.333-.11.778.223 1.001-.11h.222c.223-.112.223-.335.668-.335-.334-.333-.334-.89-.779-1.223 0-.445-.556-.334-.779-.556 0 0-.11.222-.11.334.11.11.333-.112.444 0zM28.67 23.487c.112-.445-.111-.668-.334-.668 0 .112 0 .112-.11.223-.112.111-2.003.222-2.671.111 0 .334 0 .556-.111.779 1.669.222 3.115-.112 3.226-.445z"/>
                <path d="M24.554 22.486c-.557 0-.89.445-.89.89 0 .444.445 1.112 0 1.557-.334.222-.89.222-1.336 0 0 .11.112.11.112.222-.334-.111-.557-.111-.78 0l.112.334h-.445l.111.556h-.445l.112.556h-.334l.111.667-.111.445v.111l.334-.222.333-.89c-.222.223.445-1.335 1.335-1.335.112.223.334.334.557.445.334.112.667.112 1.001 0 .334-.222.556-.778.445-1.334 0-.334-.334-.89-.334-1.335 0-.222.334-.445.557-.334.11.112.222.334 0 .779v.111c0 .111.11.111.11.111.112 0 .223 0 .335-.11.111-.112.111-.223.111-.446-.223-.333-.445-.778-1.001-.778zM21.66 24.821c-.222-.11-.444-.11-.555 0h-.557c-.667 0-1.335-.11-1.669-.222-.222-.111-.334-.223-.445-.223l-.111-.11h.111c.223.11.445.222 1.224.333-1.224-.223-1.669-1.335-1.446-1.89-.112 0-.112.11-.334.11a.338.338 0 0 0 0 .445c-.334.111-.556.556-.556.89 0 .222 0 .334.11.556.223.334.668.667 1.225.89.445.222 1.112.334 1.669.334-.112.222-.223.333-.223.444 0 .223.111.223.223.334l.222.111v-.11c-.334-.112.111-1.224 1.113-1.892zm-3.003.445c-.445-.222-.89-.445-1.002-.778-.11-.112-.11-.223-.11-.334 0-.222.11-.445.333-.556 0 .111.111.222.222.334v.222c0 .222.112.334.223.445.222.222.556.334 1.001.445.445.111.89.222 1.447.222h.111c-.111.111-.223.334-.334.445-.779-.111-1.446-.222-1.891-.445zM31.897 29.826c-.334.445-.445.556-.668.779l-.445.222c.111 0 .334 0 .445-.11.112-.112.445-.335.668-.668.222-.223.445-.223.667-.223.334 0 0 0 0 0h-.667zM29.894 15.145c.111-.334.111-.779 0-1.223-.111-.445-.445-.779-.779-1.001-.445-.223-.89-.334-1.335-.223-.111 0-.222.111-.334.111-.222-.11-.556-.333-.667-.556v-.222c-.334.111-.779.445-.779.667.334-.222 2.225.556 2.225 1.557 0 .111-.111.334-.111.334-.111 0-.223-.223-.223-.334-.222.111-.333.556-.222.779.111.111.334.222.445.222-.445 0-.556.556-.89.779h.334c-.112.222-.445.333-.445.556 0-.111.556-.111.556-.111.111 0 .111-.112.222-.112l.112.112h.111v.11c0 .223.334.335.556.335v-.334l.223-.111h.222c.557 0 .78-.334 1.002-.556h-.112l-.11-.112c.11 0 .222-.11.222-.11.11 0 .222-.112.333-.112.223-.111.334-.223.334-.445-.111.222-.667-.111-.89 0zm-1.112-.334c-.112 0-.334.112-.334.223-.112-.111 0-.223.111-.334.111-.222.223-.445.111-.778.112.11.223.222.223.333 0 .223 0 .445-.111.556zm.445.223a.24.24 0 0 0-.223.222c0-.111 0-.222.111-.333h-.11c.11-.112.11-.334 0-.557-.112-.222-.223-.444-.446-.556-.111-.11-.223-.333-.334-.445.223 0 .445 0 .668.112.222.11.445.445.556.667 0 .334-.111.667-.222.89zm.222 0h-.111c.111-.223.111-.556.111-.89-.111-.334-.334-.667-.556-.779-.223-.11-.557-.222-.89-.11-.112-.112-.223-.112-.334-.223l.222-.111c.445-.112.89 0 1.224.11.334.223.668.557.78 1.002.11.445 0 1-.223 1.334-.223 0-.223-.222-.223-.333zM26.668 9.361c.222 0 .556.112.667.112 0 .11-.111.11-.111.11h-.111l-.334-.11-.111-.112zM25.555 16.59c.222.112.445.112.779.112.222 0 .445 0 .667-.111l-.11-.111c-.112.11-.335.11-.557.11-.223 0-.557 0-.668-.11l-.111.11zM25.666 16.813c.223.112.445.112.779.112.223 0 .445 0 .668-.112v-.11c-.112.11-.334.11-.557.11-.222 0-.556 0-.667-.11l-.223.11zM25.666 17.147c.223.111.445.222.779.222.223 0 .556-.11.779-.11l-.111-.112c-.112.111-.445.111-.668.111-.222 0-.556-.111-.779-.111zM29.338 23.487s-.223-.223-.445-.556c-.111-.334-.334-.445-.334-.445s.334 0 .445.11l.334.335s0-.334-.223-.557c-.11-.11-.222-.222-.333-.222l.222-1.223.668 1s-.112.334 0 .668c0 .111.11.222.11.222s.112 0 .112-.222c0-.223.111-.445.445-.445 0 0-.111.334-.111.667.111.334.111.556 0 .668 0-.223-.556-.556-.89 0zM29.783 24.71s.334-.111.89.111c0 0-.223 0-.111.112 0 .11.222.222.111.333 0 .111 0 .334-.334.334a.479.479 0 0 1-.445-.445v-.334l-.111-.11z"/>
                <path d="M31.674 28.38c-.89-.556-1.78-.89-2.559-1v.11-.11c-.779.667-2.114.667-2.67.667l-.111-.111h.89c.111-.112.334-.334.445-.334 0 0 0-.223.445-.556 0 0 .445.222.445.445h.223c.11 0 .222-.112.333-.223v-.333c-.333-.223-.333-.445-.333-.445-.112 0-.446-.334-.446-.334l.223-.222c.111-.112.223-.112.223-.112 0-.222.333-.445.333-.556-.11-.333-.222-.778-.222-.89v-.11c-.779.222-1.447.333-2.114.333-.556 0-1.002 0-1.224-.111-.111 0-.334 0-.334-.112H25v.112s.11 0 .333.11c-.11.223-.11.335-.222.335v.11s.334-.222.334-.444h.333c0 .111 0 .334-.222.445-.111 0-.111-.111-.111-.111 0 .11-.334.444-.334.444.111.445.222.89.334 1.224 0 0-.223.222-.112.334-.222.11-.333.444-.333.444s.333.223.556.223c0 .222.445.334.445.334l.111-.112c.223.445.557.779.89 1.113v.11c-.222.112-.222.446-.222.446s.334.222.445.222c.111.111.445.223.445.223s.222-.223.222-.445h.112v.11c0 .112.111.557.111 1.002 0 .556-.111 1.112-.445 1.668-.556-.222-1.001-.667-1.446-1.112.11.111.222.111.333.111.112.223.557.334.557.334s.333-.334.222-.556c.223-.111.334-.556.334-.556s-.334-.334-.556-.223c-.112-.222-.557-.333-.557-.333s-.333.333-.222.556c-.111 0-.223.333-.334.445-.111-.223-.334-.445-.445-.668.111-.111.222-.445.222-.556.223-.111.446-.667.446-.667s-.557-.445-.78-.334c0-.222-.444-.334-.667-.445-.111-.667-.111-1.557-.111-1.89v-.223h-.111v.89c-.334-.779-1.336-.668-1.892-.334.556.111.668.445.668.667 0 0 .89-.222 1.335.112 0 .445.111.778.222 1.223 0 0 .223.779.557 1.557.445.89 1.112 1.78 2.225 2.225l.222.11a4.236 4.236 0 0 0 .445-1.89c0-.334 0-.667-.11-.89.11.112.333.112.444.112 0 .11.112.556.112 1 0 .557-.112 1.224-.446 1.78l.223.111a4.236 4.236 0 0 0 .445-1.89c0-.334 0-.668-.111-.89h.222v.222a.24.24 0 0 0 .223-.222h.111c0 .111-.111.222-.334.333v.334s.223.111.445-.222c0 0 0-.112-.11-.112 0 0 .11 0 .333-.333.556-.111 1.112-.445 1.78-1.001l.111-.668zm-2.892-4.115s0 .111.11.223c-.11 0-.222-.112-.333-.223h.223zm-.334 0c.111.223.445.223.445.223 0 .11.111.222.111.222s-.445-.111-.445-.222l-.111.11c-.112 0-.223-.11-.223-.333 0 .111.111.111.223 0zm-.668.223c0 .11-.111.222-.111.222s-.223-.111-.223-.222h.334zm-.556 0c.111.222.334.222.334.222s.222-.111.222-.334h.334c0 .112 0 .334-.111.445l-.112-.11c0 .11-.222.333-.222.333s-.334-.111-.334-.334l-.111.111c-.111 0-.223-.11-.223-.333.112.11.223.11.223 0zm-.779.11c0 .112-.111.112-.111.223l-.223-.222h.334zm-.779 2.781c-.111 0-.334 0-.334-.222 0-.111 0-.222.112-.334 0 .223.111.334.222.556zm.223-2.446c-.112 0-.223-.223-.223-.334H26c0 .222.223.334.223.334s.222-.112.222-.223h.334c0 .111 0 .334-.223.334l-.111-.111c0 .11-.222.333-.222.333s-.334-.222-.334-.333zM26 26.156s.223-.445.556-.445c0-.222.445-.556.445-.556s.445.334.445.556c.223 0 .557.445.557.445s-.223.445-.557.445c0 .222-.445.556-.445.556s-.445-.334-.445-.556c-.222 0-.556-.445-.556-.445zm.556 4.115c.223 0 .334 0 .445.223 0 .222 0 .333-.222.445-.223 0-.334 0-.445-.223-.111-.222 0-.334.222-.445zm-1.446-.667c-.111-.223-.223-.556-.223-.667v-.112c.223-.11.445.112.557.334 0 .111-.112.334-.334.445zm3.894-1.89c.111.11.334.11.445.11-.222.223-.667.223-.89.112l.445-.223zm-.779.333c.668.333 1.113.333 1.67-.111.222.11.333.11.555.222-.89.667-1.891.779-2.781 0 .222 0 .334-.111.556-.111zm-.89 1.334c-.111 0-.334 0-.334-.222v-.222c.112.11.223.222.445.333l-.11.111zm1.892.223c-.89 0-1.67-.445-2.226-1.001l-.333-.334h.556c.779 1.001 2.448 1.112 3.338.111.222.112.333.223.556.334-.668.667-1.335.89-1.891.89z"/>
                <path d="M26.89 26.6a.479.479 0 0 0 .445-.444.479.479 0 0 0-.445-.445.479.479 0 0 0-.445.445c.111.222.223.445.445.445zM28.782 25.934c0 .222.11.333.333.333h.112V25.6c-.223.111-.445.111-.445.334zM27.891 27.602c.223 0 .445-.111.557-.111-.112-.112-.112-.112-.223-.112-.222 0-.334.112-.334.223zM29.115 30.939v.444c.112 0 .223-.11.334-.222-.111 0-.222-.111-.334-.222z"/>
                <path d="M29.45 30.939c.11 0 .222-.112.222-.112-.112-.333-.445-.222-.445-.222v.334c.11 0 .222.11.333.333 0 0-.222.334-.445.334v.334c.334.11.445-.112.445-.112 0-.11-.11-.11-.11-.11.11 0 .444-.335.444-.335-.334-.444-.445-.444-.445-.444z"/>
                <path d="M29.227 32.273c.11 0 .222-.111.222-.111-.111-.334-.445-.334-.445-.334 0 .112 0 .223-.111.334.111 0 .222.111.334.334h-.112s0-.112-.222-.223l-.111.223c.445.11.778 0 .778 0-.222-.223-.333-.223-.333-.223zM35.568 13.922c0-.112.223 0 .223.11-.111-.444-.556-.555-.89-.444l-.111-.111c.222-.112.445-.223.778-.112-.222-.667-.556-.333-.667-.444 0 0 .111-.112.222-.112-.333-.222-.778-.11-1 .223h-.112c0-.111.334-.445.556-.556-.667-.334-.89.11-1.001.11-.111 0 0-.222.111-.333-.445.111-.668.445-.668.779-.11 0-.11 0-.11.111 0-.222.11-.667.222-.779-.78.112-.557.668-.668.668 0 0-.111-.223 0-.334-.334.111-.334.667-.111 1.001l-.111.111c-.223-.11-.334-.556-.334-.778-.445.445-.111.667-.223.778 0 0-.11-.11-.11-.222-.112.445.11.778.444.89v.11c-.222 0-.445-.222-.667-.444 0 .556.333.667.333.779 0 0-.11.11-.222 0 .111.222.222.444.556.444 0-.11.334-.556.556-.667v-.111c0-.223 0-.556.112-.667.222-.223.445-.445.779-.445.222 0 .333 0 .556.11.445.335.556.89.222 1.336-.11.11-.333.333-.445.333.223.111 0 .556 0 .668h.112c0 .333-.112.556-.223.556.556 0 .556-.445.779-.445.111 0 .111.222 0 .222.222-.111.334-.667.222-.89l.112-.11c.11.222.222.444.11.667.557-.445.223-.779.335-.89 0 0 .11.111.11.333.223-.333 0-.778-.444-1v-.112c.222 0 .556.223.667.445.446-.778.112-.667 0-.778zm-1.223 1.78v-.223c.445-.223.667-.556.667-1.001 0-.668-.556-1.113-1.224-1.113-.667 0-1.224.557-1.224 1.113v.333l-.222.223c0-.111-.111-.445-.111-.556 0-.779.667-1.335 1.335-1.335.779 0 1.335.667 1.335 1.335.222.556-.111 1-.556 1.223zM29.672 17.147c-.668-.334-1.447-.334-1.67-.334h-.11.11c.112 0 .446 0 .78.112 0 .11-.112.222-.334.444-.445.557-1.558.779-2.56.445-1.223-.445-1.446-1.334-1.446-1.334s.112.11-.11-.223c-.223-.333-.78-.333-.78-.333v.11c-.222 0-.334.112-.556.223.111.111.445.334.668.334-.112.222.333.445.333.556 0 .111-.222.222-.222.334 0 .11 0 .222-.111.333v.334c0 .111 0 .222.11.222-.11.112-.11.112-.11.223 0 .222.11.334.333.334v.11c0 .223.112.334.334.334 0 .112.111.334.223.334v.111c-.112 0-.112.112-.112.112v.11c-.11 0-.222 0-.222.112v.111c-.111 0-.111.111-.111.111v.112c-.112-.112-.112-.223-.112-.334v.556c-.111 0-.222.111-.222.111h-.111c-.112 0-.112.112-.112.112h-.111c-.111 0-.223.11-.223.11h-.11c-.112 0-.112.112-.223.112l-.112-.111-.11.111-.112-.111-.111-.111c-.223-.112-.668.444-.445.667.222.334.333.556.778.89-.333 0 .112.556-.333.556-.112 0 .11-.334-.112-.223-.222.112-.445.556-.333.89l.11.223c.112-.557.668-.779 1.225-.557-.223-.667-.223-1.112.111-1.334-.334-.111-.668-.334-.779-.668l.111.112c.112 0 .112-.112.223-.112l.111.112c.111 0 .223-.112.223-.112h.111c.111 0 .223-.11.223-.11h.11a.24.24 0 0 0 .223-.223h.112c.11 0 .11 0 .222-.111.111.333.445.556.445.89.223-.223.556-.334.89-.446l.111.112v.11c0 .112.112.223.112.223H26c0 .112 0 .223.111.223h.112c0 .111 0 .222.11.222h.112c0 .111 0 .223.111.223h.112c0 .11.11.11.11.11.112 0 .112 0 .112-.11l.111.11c.112 0 .223 0 .223-.11h.111c.111 0 .223 0 .223-.112.11 0 .222 0 .222-.11v-.112c.111 0 .223 0 .223-.111v-.111c.111 0 .111-.112.111-.112 0-.11-.111-.11-.111-.11-.112 0-.112.11-.112.11-.11 0-.11.112-.11.112-.112 0-.112 0-.223.11v.112c-.112 0-.223 0-.223.111h-.111c-.111 0-.111 0-.223.111l-.11-.11h-.112c0-.112-.111-.112-.111-.112h-.112v-.111c0-.111 0-.223-.111-.223h-.111c0-.11 0-.222-.111-.222H26c0-.111 0-.223-.111-.223v-.11l-.112-.112c.112-.111.112-.222.223-.334 0 .112-.111.112-.223.223l-.11-.111.11-.112c0-.11 0-.11-.11-.222.11 0 .11-.111.11-.111 0-.112 0-.112-.11-.112.11 0 .11-.11.11-.11H26l.111.11c.112.112.334.112.445-.11v-.112c.112.111.334 0 .445-.111l.112-.223c.11.112.333 0 .445-.11v-.335c.11 0 .222 0 .333-.11v-.334c.223-.112.334-.334.223-.668.222-.111.445-.222.556-.445.334.223.78-.11 1.113-.11.111.11 0-.223-.111-.557l.778.779c.112.11.112.222.223.222l.111.111h.111c-.11 0-.445-.556-1.223-1.112zm-5.452 1.001h.222v.111c0 .111 0 .111.112.223v.11c0 .112 0 .112.11.112v.111c0 .112.112.112.112.112v.11c0 .112 0 .112.111.112v.111c0 .111.112.111.112.111-.557-.222-.78-.667-.78-1.223zm1.224 2.558c0 .111 0 .111.111.223l-.111.11c0 .112 0 .112.111.223l-.111.111v.112h-.223c-.111 0-.222.11-.334.11l-.11.112v-.111a.24.24 0 0 0-.223-.223c-.112-.11-.112-.11-.223-.222h.111a.24.24 0 0 0 .223-.222c.111 0 .222 0 .222-.112v-.11c.112 0 .112-.112.112-.223v-.112c.11 0 .11-.11.11-.11l.112.333.223-.111c0 .11 0 .11.111.222 0-.111-.111-.111-.111 0zm2.114-1.223c-.112.11-.334.222-.445.333-.112.112-.334.112-.445.112h-.334v-.112c.111 0 .222 0 .222-.11 0-.112 0-.223-.111-.223s-.222 0-.222.11v.112c-.112 0-.223.111-.223.111h-.223l-.11-.333-.335.11-.11-.11v-.112c0-.11-.112-.11-.112-.11l.111-.112c0-.111 0-.111-.111-.111v-.111c0-.112 0-.112-.111-.112v-.11c0-.112 0-.112-.112-.112v-.111c0-.112 0-.112-.11-.112v-.222h.11c.223.111.223.222.445.334-.11.445.112.667.223 1 .334-.11.89-.11.89-.555.223 0 .445.11.556 0 .112.11.112.11.223.11v.112c-.111 0-.223 0-.223.111-.11 0-.222 0-.222.111h-.111c-.112 0-.223.112-.223.112 0 .11 0 .222.111.222.112 0 .223 0 .223-.111h.111c.111 0 .223 0 .223-.111.11 0 .222 0 .222-.112h.111c.112 0 .223 0 .223-.11.111 0 .222 0 .222.11-.222-.11-.333 0-.333.112zm-.89-1.001h-.445c-1.447-.223-2.337-1.669-2.337-2.336h.223c.222.779.667 1.446 1.335 1.78.222.11.556.222.779.222h.445c.222 0 .556 0 .778-.111.668-.111 1.224-.445 1.447-1.112l.222.11c-.222 1.002-1.224 1.447-2.447 1.447zM21.105 23.82c0-.222-.112-.333-.334-.333-.223 0-.334.11-.334.333 0 .223.111.334.334.334.111 0 .334-.111.334-.334z"/>
                <path d="M22.773 23.264c-.333-.333-.556-.556-.667-.778-.111-.112-.111-.112-.111-.223h-.112c-.778.445-1.112.334-2.002.334-1.002-.111-1.558-.111-1.558-.111v.11h.334v.112c0 .223.111.334.334.334.222 0 .333-.111.333-.334.223 0 .334 0 .557.111 0 0-.223.334-.557.445 0 0 0 .223-.445.445 0 0-.445-.222-.445-.556 0 0-.222 0-.334-.222.112 1.445 1.336 1.668 2.003 1.668h.223c-.112-.111-.334-.223-.223-.445-.222 0-.556-.445-.556-.445s.334-.445.556-.445c0-.222.445-.556.445-.556s.445.334.445.556c.223 0 .557.445.557.445s-.334.445-.557.445c0 .111-.111.334-.334.334.668 0 1.224.11 1.224.11s-.11-.222-.11-.666c.11-.334.333-.668.444-.779l.111.111h.445zm-.556-.222c-.111.111-.222 0-.334 0v-.334c.223.111.223.223.334.334zm.334.222c-.111.111-.223.223-.445.111v-.222c-.111.111-.445 0-.445 0s0-.334.111-.445h-.111c0-.111 0-.334.222-.334l.112.112.11.11c-.11.112-.11.446-.11.446s.222.111.445 0l.11.222z"/>
            </g>
        </g>
    </g>
</svg>
