<svg width="112" height="48" viewBox="0 0 112 48" xmlns="http://www.w3.org/2000/svg">
    <g fill="none" fill-rule="evenodd">
        <path fill="#FFF" d="M0 0h112v48H0z"/>
        <path d="M50.925 23.916h-3.9v-.63c.755 0 .839-.252.839-.84v-8.232c0-1.428-1.384-2.058-2.768-2.058s-2.768.63-2.768 2.058v3.612c.168-.42.839-1.134 1.216-1.428.42-.336.923-.63 1.594-.63.923 0 1.384.504 1.384 1.092 0 .504-.42.84-.839.924-.713.126-.839-.588-1.384-.588-1.09 0-2.013 1.806-2.013 2.52v2.814c0 .588.084.84.839.84V24h-3.9v-.63c.755 0 .839-.252.839-.84v-8.148c0-1.89 2.39-2.94 4.99-2.94s4.99 1.008 4.99 2.94v8.106c0 .588.085.84.84.84v.588h.041zm29.064-.84c0 .546-.42 1.008-.923 1.008a.994.994 0 0 1-1.007-1.008c0-.546.42-.924 1.049-.924.42 0 .88.462.88.924zm-14.385 1.008c-.965 0-1.468-.546-1.468-1.134 0-.504.42-.84.88-.966.588-.084.798.336 1.133.546l-.042-6.384c0-.714 1.342-.63 1.258-1.092-.084-.378-1.384-.336-1.384-.336 0-2.058 2.558-3.276 5.075-3.276 2.558 0 4.99.966 4.99 3.276v7.728c0 .588.084.84.84.84v.63h-3.901v-.63c.755 0 .839-.252.839-.84v-8.064c0-1.302-.965-2.226-2.768-2.226-1.804 0-2.768.924-2.768 2.226v7.35c-.21 2.52-2.684 2.352-2.684 2.352zM53.442 12.828c-.336.168-.545.63-1.133.546-.46-.084-.88-.42-.88-.924 0-.546.461-1.05 1.342-1.092 0 0 2.935-.378 2.852 2.646l.041 7.308c0 1.428 1.343 2.058 2.768 2.058 1.426 0 2.768-.63 2.768-2.058V9.048c0-.588-.084-.84-.838-.84V7.62h3.9v.63c-.755 0-.839.252-.839.84v12.096c0 1.89-2.307 2.94-4.99 2.94-2.685 0-4.991-1.008-4.991-2.94v-8.358z" fill="#184E84" fill-rule="nonzero"/>
        <g fill="#184E84">
            <path d="M40.986 34.206v1.764h.336v-1.764c-.042-1.05-1.93-.924-1.93.084h.336s-.126.042-.126.21v1.47h.336V34.5s0-.21.167-.21h.21v-.21h-.67c.167-.588 1.341-.63 1.341.126zM43.167 35.928v-1.974c0-.42-.252-.546-.671-.546-.377 0-.587.252-.63.294v.168s.253-.294.588-.252c.294 0 .377.126.377.378v1.974h.336v-.042zM45.096 34.332c0-.126-.168-.21-.21-.21l-.922-.21c.084-.21.21-.294.797-.126 0 0 .419.126.545-.294 0-.084-.042-.084-.084-.042-.168.168-.545-.084-.88-.084-.462 0-.63.546-.672.63l.923.21c.084 0 .126.084.084.168v.84c0-.042-.084-.042-.168-.042-.503 0-.545.714.042.714.545 0 .503-.378.503-.42v-1.134h.042zm-.503 1.05c.126 0 .21.084.21.168s-.084.168-.168.21c-.084 0-.21-.084-.21-.168-.042-.126.042-.21.168-.21zM46.103 33.618c.125 0 .21.084.21.168s-.085.21-.168.21c-.126 0-.21-.084-.21-.168-.042-.126.042-.21.168-.21zm1.467 1.848c0 .168-.125.252-.293.252h-.671v-1.89c0-.042.042-.42-.503-.42-.588 0-.546.714-.042.714.042 0 .125 0 .167-.042v1.68h-.21v.21h1.469c.335 0 .46-.252.46-.42v-3.57h-.335l-.042 3.486zM49.793 34.332c0-.126-.168-.21-.21-.21l-.922-.21c.084-.21.21-.294.797-.126 0 0 .419.126.545-.294 0-.084-.042-.084-.084-.042-.168.168-.545-.084-.88-.084-.462 0-.63.546-.672.63l.923.21c.084 0 .126.084.084.168v.84c0-.042-.084-.042-.168-.042-.503 0-.545.714 0 .714s.503-.378.503-.42v-1.134h.084zm-.503 1.05c.126 0 .21.084.21.168s-.084.168-.168.21c-.084 0-.21-.084-.21-.168 0-.126.084-.21.168-.21zM50.925 33.618c-.46 0-.377.42-.377.42.042.294.503.336.503.336.504.042 1.007-.126 1.09-.756h-.25s0 .546-.672.546c0 0 .084-.084.042-.294 0-.168-.126-.252-.336-.252zm0 1.47c-.46 0-.377.42-.377.42.042.294.503.336.503.336.504.042 1.007-.126 1.09-.756h-.25s0 .546-.672.546c0 0 .084-.084.042-.294 0-.168-.126-.252-.336-.252zm0 .126c.126 0 .21.084.21.168s-.084.21-.21.21c-.083 0-.21-.084-.21-.168a.506.506 0 0 1 .21-.21zm0-1.47c.084 0 .21.084.21.168s-.084.21-.21.21c-.083 0-.21-.084-.21-.168s.085-.21.21-.21zM54.239 34.206v1.764h.335v-1.764c-.042-1.05-1.929-.924-1.929.084h.335s-.125.042-.125.21v1.47h.335V34.5s0-.21.168-.21h.21v-.21h-.713c.21-.588 1.384-.63 1.384.126zM56.042 33.408c-.587 0-.839.462-.839.462l.126.084c.042 0 .21-.336.713-.336s.587.294.587.336c0 0 .042.126.042.21v1.26c0 .504-.923.504-.923 0v-.756c.63.168.713-.63.168-.672a.472.472 0 0 0-.503.462v.882c0 .546.545.63.839.63.21 0 .796-.126.796-.63v-1.218c0-.252-.041-.336-.041-.336-.126-.042-.336-.378-.965-.378zm-.21.756c.126 0 .21.084.21.168s-.084.21-.168.21c-.126 0-.21-.084-.21-.168 0-.126.084-.21.168-.21zM57.971 33.576c.084 0 .21.084.21.168s-.084.21-.168.21-.21-.084-.21-.168c-.042-.084.042-.168.168-.21zm1.761-.168h-.377v2.016c0 .21-.126.294-.252.294h-.67v-1.89c0-.042.041-.42-.504-.42-.587 0-.545.714-.042.714.042 0 .126 0 .168-.042v1.68h-.21v.21h1.426c.336 0 .461-.126.461-.42v-2.142zM61.242 35.76h-.293v-1.428h-.336v1.428h-.168v.21h1.049c.461 0 .503-.21.503-.504v-1.05c0-.126-.126-.21-.21-.21l-1.174-.294c.084-.21.252-.252.88-.084 0 0 .504.168.63-.294.042-.084-.042-.084-.042-.042-.168.21-.713-.042-1.006-.042-.504 0-.63.504-.672.63l1.175.294c.084.042.084.084.084.168v1.008c-.126.126-.21.21-.42.21zM61.62 36.726v.462h.377v-.672c-.042-.252-.21-.378-.503-.336-.42.042-.42.63 0 .63.084-.042.084-.084.126-.084zm-.168-.126a.147.147 0 0 1 0-.294c.252 0 .252.294 0 .294zM63.884 34.332c0-.126-.167-.21-.21-.21l-.922-.21c.084-.21.21-.294.797-.126 0 0 .42.126.545-.294 0-.084-.042-.084-.084-.042-.168.168-.545-.084-.88-.084-.462 0-.63.546-.672.63l.923.21c.084 0 .126.084.084.168v.84c0-.042-.084-.042-.168-.042-.503 0-.545.714 0 .714s.503-.378.503-.42v-1.134h.084zm-.503 1.05c.126 0 .21.084.21.168s-.084.168-.168.21c-.084 0-.21-.084-.21-.168 0-.126.042-.21.168-.21zM66.107 34.206v1.764h.336v-1.764c-.042-1.05-1.93-.924-1.93.084h.336s-.126.042-.126.21v1.47h.336V34.5s0-.21.167-.21h.21v-.21h-.713c.21-.588 1.384-.63 1.384.126zM65.604 32.274c-.462-.042-.88.294-.965.672 0 0 .42-.084.923 0 .377.042 1.006.336 1.006.336 0-.63-.419-.966-.964-1.008zm.755.714s-.336-.168-.755-.21c-.252-.042-.671 0-.671 0a.714.714 0 0 1 .67-.252c.336.042.63.168.756.462zM68.959 34.164c0-.462-.378-.756-.965-.756-.503 0-.838.378-.88.588l.167.084a.886.886 0 0 1 .755-.42c.336 0 .587.21.587.462v1.47a.18.18 0 0 1-.167.168c-.126 0-.168-.084-.168-.168v-1.218c0-.21-.084-.378-.461-.378-.21 0-.378.126-.378.294 0 .21.126.378.378.378h.125v.84c0 .252.252.462.546.462.335 0 .545-.21.545-.462v-1.344h-.084zm-1.174 0c.125 0 .21.084.21.168s-.085.21-.168.21c-.126 0-.21-.084-.21-.168-.042-.126.042-.21.168-.21zM69.923 33.618c.126 0 .21.084.21.168s-.084.21-.168.21c-.125 0-.21-.084-.21-.168-.041-.126.043-.21.168-.21zm1.468 1.848c0 .168-.126.252-.293.252h-.671v-1.89c0-.042.042-.42-.504-.42-.587 0-.545.714-.042.714.042 0 .126 0 .168-.042v1.68h-.21v.21h1.468c.336 0 .462-.252.462-.42v-3.57h-.336l-.042 3.486zM73.614 34.332c0-.126-.168-.21-.21-.21l-.922-.21c.084-.21.21-.294.796-.126 0 0 .42.126.546-.294 0-.084-.042-.084-.084-.042-.168.168-.545-.084-.88-.084-.462 0-.63.546-.672.63l.923.21c.084 0 .126.084.084.168v.84c-.042-.042-.084-.042-.168-.042-.503 0-.545.714 0 .714s.503-.378.503-.42v-1.134h.084zm-.503 1.05c.126 0 .21.084.21.168s-.084.168-.168.21c-.084 0-.21-.084-.21-.168 0-.126.084-.21.168-.21zM74.746 33.618c-.461 0-.377.42-.377.42.042.294.503.336.503.336.503.042 1.007-.126 1.09-.756h-.251s0 .546-.671.546c0 0 .084-.084.042-.294 0-.168-.126-.252-.336-.252zm0 1.47c-.461 0-.377.42-.377.42.042.294.503.336.503.336.503.042 1.007-.126 1.09-.756h-.251s0 .546-.671.546c0 0 .084-.084.042-.294 0-.168-.126-.252-.336-.252zm0 .126c.126 0 .21.084.21.168s-.084.21-.21.21c-.084 0-.21-.084-.21-.168a.506.506 0 0 1 .21-.21zm0-1.47c.084 0 .21.084.21.168s-.084.21-.21.21c-.084 0-.21-.084-.21-.168s.084-.21.21-.21zM78.06 34.206v1.764h.335v-1.764c-.042-1.05-1.93-.924-1.93.084h.336s-.126.042-.126.21v1.47h.336V34.5s0-.21.168-.21h.21v-.21h-.714c.21-.588 1.384-.63 1.384.126zM77.892 32.358c-.42 0-.336.42-.336.42.042.294.461.294.461.294.462.084 1.09-.126 1.175-.798h-.252s0 .588-.67.588c0 0 .083-.084.041-.252-.084-.168-.21-.252-.42-.252zm0 .126c.084 0 .21.084.21.168s-.085.21-.168.21c-.126 0-.21-.084-.21-.168s.084-.168.168-.21zM81.037 35.802c-.21 0-.21-.336 0-.336.252 0 .252.336 0 .336zm-1.594-2.226c.084 0 .21.084.21.168s-.084.21-.168.21-.21-.084-.21-.168.084-.21.168-.21zm1.804-.168h-.378v1.806c-.67-.042-.922.336-.922.336v-1.764c0-.042.042-.42-.504-.42-.587 0-.545.756-.042.714.042 0 .126 0 .168-.042v1.806h.336s.21-.504.797-.504c0 0-.084.126-.042.294.042.168.167.252.335.252.461 0 .503-.588.126-.672l.084-.084v-1.722h.042zM82.253 35.256c-.503 0-.503.672 0 .672.21 0 .378-.126.378-.336v-1.176s0-.21.167-.21h.168v-.21h-.755c.168-.546 1.342-.63 1.342.126v1.764h.378V34.08c-.084-1.05-1.93-.924-1.93.084h.378s-.126.042-.126.21v.882zm-.042.168c.084 0 .21.084.21.168s-.084.21-.168.21c-.126 0-.21-.084-.21-.168 0-.126.084-.21.168-.21zM83.386 32.358c-.42 0-.336.42-.336.42.042.294.461.294.461.294.462.084 1.09-.126 1.175-.798h-.252s0 .588-.671.588c0 0 .084-.084.042-.252a.461.461 0 0 0-.42-.252zm0 .126c.083 0 .21.084.21.168s-.085.21-.169.21c-.125 0-.21-.084-.21-.168-.041-.084.043-.168.169-.21zM85.23 33.576c.085 0 .21.084.21.168s-.083.21-.167.21-.21-.084-.21-.168.084-.168.168-.21zm1.175-.168h-.335v1.89c0 .252-.126.462-.462.42-.251 0-.461-.168-.461-.378v-.462c0-.126.084-.294.252-.294h.167v-.21h-.21c-.167 0-.293-.168-.293-.336 0 0 .084.084.252.084.503 0 .503-.714 0-.714-.294 0-.462.168-.504.378-.083.168-.042.336 0 .504a.43.43 0 0 0 .252.21c-.084.042-.21.126-.252.378v.42c0 .42.378.672.84.672.46 0 .796-.294.796-.714v-1.848h-.042zM88.418 36.768c-.797-.588-.88-1.344-.88-2.184 0-.798.167-1.512.88-1.974l-.042-.084c-.839.504-1.3 1.218-1.3 2.1 0 1.092.587 1.806 1.258 2.226l.084-.084zM88.921 34.164c0-.252.294-.546.713-.546.378 0 .671.126.671.588v1.722h.378v-1.722c0-.588-.503-.798-1.049-.798-.461 0-.922.336-.922.756 0 .378.251.546.251.714v1.05h.336v-1.05c0-.042 0-.21.042-.252 0 0 .084.084.251.084.504.042.546-.672 0-.672-.419 0-.503.336-.545.504.084-.042-.126-.084-.126-.378zm.755 0c.126 0 .21.084.21.168s-.084.21-.168.21c-.126 0-.21-.084-.21-.168-.041-.126.042-.21.168-.21zM91.647 33.618c.126 0 .21.084.21.168s-.084.21-.168.21c-.126 0-.21-.084-.21-.168-.041-.126.043-.21.168-.21zm1.468 1.848c0 .168-.126.252-.293.252h-.671v-1.89c0-.042.042-.42-.504-.42-.587 0-.545.714-.042.714.042 0 .126 0 .168-.042v1.68h-.21v.21h1.468c.336 0 .462-.252.462-.42v-3.57h-.336l-.042 3.486zM94.373 35.256c-.503 0-.503.672 0 .672.21 0 .378-.126.378-.336v-1.176s0-.21.168-.21h.167v-.21h-.755c.168-.546 1.342-.63 1.342.126v1.764h.378V34.08c-.084-1.05-1.93-.924-1.93.084h.378s-.126.042-.126.21v.882zm0 .168c.084 0 .21.084.21.168s-.084.21-.168.21c-.126 0-.21-.084-.21-.168-.041-.126.042-.21.168-.21zM97.141 35.424a.287.287 0 0 0-.293.294c0 .126.125.294.293.294a.287.287 0 0 0 .294-.294.287.287 0 0 0-.294-.294zM98.064 36.852c.755-.42 1.258-1.218 1.258-2.058 0-1.428-1.048-2.184-1.258-2.268l-.042.084c.755.546.88 1.344.88 2.184 0 .798-.167 1.512-.88 1.974l.042.084z"/>
            <g>
                <path d="M40.986 28.746s-.251-.168-.67-.168c-.42 0-.798.252-.965.546l.125.084a.824.824 0 0 1 .713-.378c.462 0 .587.168.587.168-.041 0-.167.168-.46.168-.462 0-.756.294-.756.63v.882c0 .168.126.462.504.462.545 0 .46-.84-.168-.672v-.63c0-.21.168-.42.461-.42.294 0 .503.168.503.42v1.26h.336v-1.806c0-.21-.084-.336-.084-.336.252-.252.252-.588.252-.588h-.294c.042-.042.042.168-.084.378zm-.335.462s.125 0 .21-.084c0 0 .041.084.041.252 0-.042-.126-.126-.251-.168zm-.587 1.344c.125 0 .21.084.21.168s-.085.21-.169.21c-.125 0-.21-.084-.21-.168-.041-.126.043-.21.169-.21zM40.86 28.284c.546 0 .546-.798 0-.798-.545 0-.545.798 0 .798zm2.223 2.814v-1.974c0-.42-.252-.546-.713-.546-.377 0-.587.252-.629.294v.168s.252-.252.587-.252c.294 0 .378.126.378.378v1.932h.377zm-2.223-3.402c.084 0 .21.084.21.168s-.084.21-.168.21c-.126 0-.21-.084-.21-.168 0-.126.084-.21.168-.21zM45.6 30.93c-.21 0-.21-.336 0-.336.293 0 .293.336 0 .336zm-1.552-2.226c.084 0 .21.084.21.168s-.085.21-.168.21c-.084 0-.21-.084-.21-.168-.042-.084.042-.168.168-.21zm1.761-.126h-.377v1.806c-.671-.042-.923.336-.923.336v-1.764c0-.042.042-.42-.503-.42-.587 0-.545.756-.042.714.042 0 .126 0 .168-.042v1.806h.335s.21-.504.797-.504c0 0-.084.126-.042.294.042.168.168.252.335.252.462 0 .504-.588.126-.672l.084-.084v-1.722h.042zM45.348 27.486c-.42 0-.336.42-.336.42.042.294.462.294.462.294.46.084 1.09-.126 1.174-.798h-.294s0 .588-.67.588c0 0 .083-.084.041-.252a.38.38 0 0 0-.377-.252zm0 .168c.084 0 .21.084.21.168s-.084.21-.168.21c-.126 0-.21-.084-.21-.168-.042-.126.084-.21.168-.21zM48.116 29.334v1.764h.335v-1.764c-.042-1.05-1.929-.924-1.929.084h.336s-.126.042-.126.21v1.47h.335v-1.47s0-.21.168-.21h.21v-.21h-.671c.167-.588 1.342-.63 1.342.126zM50.506 28.998c0-.042.042-.42-.503-.42s-.545.714 0 .714c.042 0 .126 0 .168-.042v1.428l-1.049-.924v.252l1.049 1.05h.377c-.042.042-.042-2.058-.042-2.058zm-.461-.252c.126 0 .21.084.21.168s-.084.21-.168.21c-.126 0-.21-.084-.21-.168-.042-.126.042-.21.168-.21zM52.351 31.098v-1.974c0-.42-.251-.546-.67-.546-.378 0-.588.252-.63.294v.168s.252-.294.587-.252c.294 0 .378.126.378.378v1.974h.335v-.042zM54.91 30.93c-.21 0-.21-.336 0-.336.251 0 .251.336 0 .336zm-1.594-2.226c.084 0 .21.084.21.168s-.084.21-.168.21-.21-.084-.21-.168.084-.168.168-.21zm1.803-.126h-.377v1.806c-.671-.042-.923.336-.923.336v-1.764c0-.042.042-.42-.503-.42-.587 0-.545.756-.042.714.042 0 .126 0 .168-.042v1.806h.335s.21-.504.797-.504c0 0-.084.126-.042.294.042.168.168.252.336.252.461 0 .503-.588.125-.672l.084-.084v-1.722h.042zM55.916 29.292c0-.252.294-.546.713-.546.378 0 .671.126.671.588v1.722h.378v-1.722c0-.588-.504-.798-1.049-.798-.461 0-.923.336-.923.756 0 .378.252.546.252.714v1.05h.336v-1.05c0-.042 0-.21.042-.252 0 0 .083.084.251.084.503.042.545-.672 0-.672-.42 0-.503.336-.545.504.042 0-.126-.042-.126-.378zm.713 0c.126 0 .21.084.21.168s-.084.21-.168.21c-.126 0-.21-.084-.21-.168-.042-.084.084-.168.168-.21zM60.823 30.93c-.252 0-.252-.336 0-.336s.252.336 0 .336zm-1.887-.378c.084 0 .21.084.21.168s-.085.21-.168.21c-.084 0-.21-.084-.21-.168-.042-.084.042-.168.168-.21zm2.055-1.974h-.378v1.806c-.42 0-.587.252-.587.252v-1.344c-.042-1.05-1.803-.924-1.803.084h.335s-.126.042-.126.21v1.05c0 .168.084.504.504.462.545 0 .461-.84-.168-.672v-.882s0-.168.168-.168h.21v-.21h-.714c.168-.546 1.217-.63 1.259.126v1.764h.335s.126-.462.461-.504c0 0-.125.126-.042.294.042.168.168.252.336.252.461 0 .461-.588.084-.672 0 0 .084 0 .084-.084v-1.764h.042zM62.081 28.746c-.461 0-.377.42-.377.42.042.294.503.336.503.336.503.042 1.006-.126 1.09-.756h-.251s0 .546-.671.546c0 0 .083-.084.042-.294 0-.168-.126-.252-.336-.252zm0 1.47c-.461 0-.377.42-.377.42.042.294.503.336.503.336.503.042 1.006-.126 1.09-.756h-.251s0 .546-.671.546c0 0 .083-.084.042-.294 0-.126-.126-.252-.336-.252zm0 .168c.126 0 .21.084.21.168s-.084.21-.21.21c-.084 0-.21-.084-.21-.168.042-.126.126-.21.21-.21zm0-1.47c.084 0 .21.084.21.168s-.084.21-.21.21c-.084 0-.21-.084-.21-.168 0-.126.084-.21.21-.21zM65.394 29.334v1.764h.336v-1.764c-.042-1.05-1.93-.924-1.93.084h.336s-.126.042-.126.21v1.47h.336v-1.47s0-.21.167-.21h.21v-.21h-.713c.21-.588 1.384-.63 1.384.126zM67.659 29.46c0-.126-.168-.21-.21-.21l-.923-.21c.084-.21.21-.294.797-.126 0 0 .42.126.545-.294 0-.084-.041-.084-.083-.042-.168.168-.546-.084-.881-.084-.461 0-.63.546-.671.63l.923.21c.083 0 .125.084.083.168v.84c-.042-.042-.083-.042-.167-.042-.504 0-.546.714 0 .714.545 0 .503-.378.503-.42V29.46h.084zm-.503 1.05c.125 0 .21.084.21.168s-.085.168-.169.21c-.083 0-.21-.084-.21-.168s.085-.168.169-.21zM69.63 29.46c0-.126-.168-.21-.21-.21l-.922-.21c.083-.21.21-.294.796-.126 0 0 .42.126.546-.294 0-.084-.042-.084-.084-.042-.168.168-.546-.084-.881-.084-.461 0-.63.546-.671.63l.923.21c.083 0 .125.084.083.168v.84c0-.042-.083-.042-.167-.042-.504 0-.545.714 0 .714s.503-.378.503-.42V29.46h.084zm-.503 1.05c.125 0 .21.084.21.168s-.085.168-.168.21c-.084 0-.21-.084-.21-.168s.084-.168.168-.21zM70.804 30.804c0 .084-.084.084-.126.084-.125-.084-.125-.462.126-.42v.336zm-.168-2.058c.084 0 .21.084.21.168s-.084.21-.168.21c-.125 0-.21-.084-.21-.168-.041-.126.043-.21.168-.21zm1.72-.168h-.336v2.142c-.293-.336-.838-.462-.838-.462v-1.302c0-.042.042-.42-.504-.42-.587 0-.545.714-.042.714.042 0 .126 0 .168-.042v.966c-.587 0-.629.882 0 .882.378 0 .378-.21.378-.588 0 0 .545.084.838.588h.378v-2.478h-.042zM74.537 29.334v1.764h.335v-1.764c-.042-1.05-1.929-.924-1.929.084h.335s-.125.042-.125.21v1.47h.335v-1.47s0-.21.168-.21h.21v-.21h-.671c.167-.588 1.342-.63 1.342.126zM76.717 31.098v-1.974c0-.42-.251-.546-.67-.546-.378 0-.588.252-.63.294v.168s.252-.294.587-.252c.294 0 .378.126.378.378v1.974h.335v-.042zM78.647 29.46c0-.126-.168-.21-.21-.21l-.923-.21c.084-.21.21-.294.797-.126 0 0 .42.126.545-.294 0-.084-.042-.084-.084-.042-.167.168-.545-.084-.88-.084-.462 0-.63.546-.671.63l.922.21c.084 0 .126.084.084.168v.84c0-.042-.084-.042-.168-.042-.503 0-.545.714 0 .714.546 0 .504-.378.504-.42V29.46h.084zm-.504 1.05c.126 0 .21.084.21.168s-.084.168-.168.21c-.084 0-.21-.084-.21-.168s.084-.168.168-.21zM80.87 29.334v1.764h.335v-1.764c-.042-1.05-1.93-.924-1.93.084h.336s-.126.042-.126.21v1.47h.336v-1.47s0-.21.168-.21h.21v-.21h-.714c.21-.588 1.384-.63 1.384.126zM80.87 28.284c.544 0 .544-.798 0-.798-.546 0-.546.798 0 .798zm2.18 2.814v-1.974c0-.42-.252-.546-.713-.546-.377 0-.587.252-.629.294v.168s.252-.252.587-.252c.294 0 .378.126.378.378v1.932h.377zm-2.18-3.402c.083 0 .209.084.209.168s-.084.21-.168.21c-.126 0-.21-.084-.21-.168-.041-.126.042-.21.168-.21zM85.23 29.334v1.764h.336v-1.764c-.042-1.05-1.929-.924-1.929.084h.336s-.126.042-.126.21v1.47h.335v-1.47s0-.21.168-.21h.21v-.21h-.713c.21-.588 1.384-.63 1.384.126zM85.063 27.486c-.42 0-.335.42-.335.42.041.294.46.294.46.294.462.084 1.091-.126 1.175-.798h-.251s0 .588-.671.588c0 0 .083-.084.041-.252-.083-.126-.21-.252-.419-.252zm0 .168c.084 0 .21.084.21.168s-.084.21-.168.21c-.126 0-.21-.084-.21-.168 0-.126.084-.21.168-.21zM86.615 28.746c.084 0 .21.084.21.168s-.084.21-.168.21-.21-.084-.21-.168c0-.126.084-.21.168-.21zm1.803-.168h-.377v2.016c0 .21-.126.294-.252.294h-.671v-1.89c0-.042.042-.42-.503-.42-.587 0-.545.714-.042.714.042 0 .126 0 .168-.042v1.638h-.21v.21h1.426c.335 0 .461-.126.461-.42v-2.1zM89.592 28.578h-.335v2.1c0 .21.168.462.461.462.503 0 .503-.672 0-.672h-.084v-1.89h-.042zm1.133 0h-.336v2.1c0 .21.168.462.462.462.503 0 .46-.672 0-.672h-.084v-1.89h-.042zm-1.049 1.974c.126 0 .21.084.21.168s-.084.21-.168.21c-.126 0-.21-.084-.21-.168-.041-.084.042-.168.168-.21zm1.175.042c.083 0 .21.084.21.168s-.085.21-.169.21c-.083 0-.21-.084-.21-.168-.041-.126.043-.21.169-.21zM93.073 29.334s-.21-.21-.587-.21c-.461 0-.755.294-.755.63v.882c0 .168.126.462.503.462.546 0 .462-.84-.167-.672v-.672c0-.21.167-.42.461-.42.294 0 .503.168.503.42v1.302h.336v-1.848c.084-.714-1.3-1.05-1.93-.168l.126.084a.824.824 0 0 1 .713-.378c.42.042.84.126.797.588zm-.839 1.218c.126 0 .21.084.21.168s-.084.21-.168.21c-.125 0-.21-.084-.21-.168-.041-.084.043-.168.168-.21zM94.5 28.746c-.462 0-.378.42-.378.42.042.294.503.336.503.336.503.042 1.006-.126 1.09-.756h-.251s0 .546-.671.546c0 0 .084-.084.042-.294 0-.168-.126-.252-.336-.252zm0 1.47c-.462 0-.378.42-.378.42.042.294.503.336.503.336.503.042 1.006-.126 1.09-.756h-.251s0 .546-.671.546c0 0 .084-.084.042-.294 0-.126-.126-.252-.336-.252zm0 .168c.125 0 .209.084.209.168s-.084.21-.21.21c-.084 0-.21-.084-.21-.168.042-.126.126-.21.21-.21zm0-1.47c.083 0 .209.084.209.168s-.084.21-.21.21c-.084 0-.21-.084-.21-.168 0-.126.084-.21.21-.21zM97.812 28.746s-.251-.168-.67-.168c-.42 0-.798.252-.965.546l.125.084a.824.824 0 0 1 .713-.378c.462 0 .588.168.588.168-.042 0-.168.168-.462.168-.461 0-.755.294-.755.63v.882c0 .168.126.462.504.462.545 0 .46-.84-.168-.672v-.63c0-.21.168-.42.461-.42.294 0 .503.168.503.42v1.26h.336v-1.806c0-.21-.084-.336-.084-.336.252-.252.252-.588.252-.588h-.252c0-.042.042.168-.126.378zm-.335.462s.126 0 .21-.084c0 0 .041.084.041.252 0-.042-.084-.126-.251-.168zm-.587 1.344c.125 0 .21.084.21.168s-.085.21-.168.21c-.126 0-.21-.084-.21-.168-.042-.126.042-.21.168-.21zM97.854 28.284h.294l.042-.966h-.42zM100.203 28.998c0-.042.042-.42-.504-.42-.545 0-.545.714 0 .714.042 0 .126 0 .168-.042v1.428l-1.048-.924v.252l1.048 1.05h.378c-.042.042-.042-2.058-.042-2.058zm-.504-.252c.126 0 .21.084.21.168s-.084.21-.168.21c-.125 0-.21-.084-.21-.168-.041-.126.043-.21.168-.21zM101.377 28.578h-.336v2.1c0 .21.168.462.462.462.503 0 .503-.672 0-.672h-.084v-1.89h-.042zm.084 1.974c.126 0 .21.084.21.168s-.084.21-.168.21-.21-.084-.21-.168c-.042-.084.042-.21.168-.21zM103.81 28.746s-.252-.168-.672-.168c-.419 0-.796.252-.964.546l.126.084a.824.824 0 0 1 .713-.378c.46 0 .587.168.587.168-.042 0-.168.168-.462.168-.461 0-.755.294-.755.63v.882c0 .168.126.462.504.462.545 0 .461-.84-.168-.672v-.63c0-.21.168-.42.461-.42.294 0 .504.168.504.42v1.26h.335v-1.806c0-.21-.084-.336-.084-.336.252-.252.252-.588.252-.588h-.294c.042-.042.084.168-.084.378zm-.336.462s.126 0 .21-.084c0 0 .041.084.041.252 0-.042-.083-.126-.251-.168zm-.587 1.344c.126 0 .21.084.21.168s-.084.21-.168.21c-.126 0-.21-.084-.21-.168-.042-.126.042-.21.168-.21zM105.99 29.46c0-.126-.168-.21-.21-.21l-.922-.21c.084-.21.21-.294.797-.126 0 0 .419.126.545-.294 0-.084-.042-.084-.084-.042-.168.168-.545-.084-.88-.084-.462 0-.63.546-.672.63l.923.21c.084 0 .126.084.084.168v.84c0-.042-.084-.042-.168-.042-.503 0-.545.714 0 .714s.503-.378.503-.42V29.46h.084zm-.503 1.05c.126 0 .21.084.21.168s-.084.168-.168.21c-.084 0-.21-.084-.21-.168s.084-.168.168-.21zM105.193 27.402c-.461-.042-.88.294-.964.672 0 0 .42-.084.922 0 .378.042 1.007.336 1.007.336 0-.588-.42-.966-.965-1.008zm.755.756s-.335-.168-.755-.21c-.251-.042-.67 0-.67 0a.714.714 0 0 1 .67-.252c.336 0 .63.126.755.462zM107.248 30.804c0 .084-.084.084-.126.084-.125-.084-.125-.462.126-.42v.336zm-.167-2.058c.083 0 .21.084.21.168s-.085.21-.169.21c-.125 0-.21-.084-.21-.168-.041-.126.043-.21.169-.21zm1.719-.168h-.377v2.142c-.294-.336-.84-.462-.84-.462v-1.302c0-.042.043-.42-.502-.42-.588 0-.546.714-.042.714.042 0 .125 0 .167-.042v.966c-.587 0-.629.882 0 .882.378 0 .378-.21.378-.588 0 0 .545.084.839.588h.377v-2.478z"/>
            </g>
        </g>
        <path fill="#FFF" d="M3.2 24 18.885 7.2 34.528 24 18.885 40.8z"/>
        <path d="M4.248 24 18.885 8.334 33.479 24 18.885 39.666z" fill="#184E84"/>
        <path d="m18.885 39.288.587-15.33h-.42l-.167 15.33zm.964-15.33-1.006 15.33 1.426-15.33h-.42zm-.964 15.33-.965-15.33h-.461l1.426 15.33zm-.63-15.33.588 15.33-.168-15.33h-.42zm.63 15.33-1.804-15.33 1.804-15.162 1.803 15.162-1.803 15.33zm0-30.702L6.89 23.958h-.294L18.885 8.586 31.13 23.958h-.336L18.885 8.586l10.359 15.372h-.294L18.885 8.586l8.64 15.372h-.294L18.885 8.586l6.962 15.372h-.294L18.885 8.586l5.242 15.372h-.293l-4.95-15.372 3.566 15.372h-.294L18.885 8.586l-3.23 15.372h-.335l3.565-15.372-4.949 15.372h-.293l5.242-15.372-6.668 15.372h-.294l6.962-15.372-8.346 15.372h-.293l8.639-15.372L8.82 23.958h-.294L18.885 8.586z" fill="#EFD395" fill-rule="nonzero"/>
    </g>
</svg>
