<svg width="112" height="48" viewBox="0 0 112 48" xmlns="http://www.w3.org/2000/svg">
    <g fill="none" fill-rule="evenodd">
        <path fill="#FFF" d="M0 0h112v48H0z"/>
        <g transform="translate(43 29.4)">
            <path d="M18.78 7.06h-2.402c.007-.104.03-.222.068-.354a1.086 1.086 0 0 1 .572-.67c.156-.08.352-.12.588-.12.36 0 .629.097.806.291.176.194.3.479.369.853zm-2.402.936h3.88a3.796 3.796 0 0 0-.104-1.196 2.927 2.927 0 0 0-.474-1.02 2.387 2.387 0 0 0-.837-.712c-.34-.176-.738-.265-1.196-.265-.409 0-.782.073-1.118.219a2.643 2.643 0 0 0-.868.598c-.243.253-.43.553-.562.9a3.136 3.136 0 0 0-.197 1.122c0 .416.064.798.192 1.144.128.347.31.645.546.895.236.25.523.442.863.577.34.135.721.203 1.144.203.61 0 1.13-.139 1.56-.416.43-.278.749-.739.957-1.383h-1.3c-.049.166-.18.324-.395.473-.215.149-.472.223-.77.223-.416 0-.735-.107-.957-.322-.221-.215-.343-.562-.364-1.04zM23.605 9.057a1 1 0 0 1-.557-.146 1.14 1.14 0 0 1-.36-.374 1.585 1.585 0 0 1-.193-.515 3.01 3.01 0 0 1-.056-.577c0-.201.022-.394.066-.577.044-.184.115-.347.213-.49.098-.141.22-.254.365-.337.145-.083.32-.125.522-.125.237 0 .433.045.588.135.155.09.28.212.375.364.095.153.162.328.203.525.04.198.06.408.06.63 0 .194-.025.38-.075.556a1.49 1.49 0 0 1-.229.473c-.1.139-.23.25-.385.333a1.12 1.12 0 0 1-.537.125zm2.595.925V4.95h-1.368v.717h-.02c-.176-.312-.394-.533-.654-.665a1.983 1.983 0 0 0-.908-.198 2.07 2.07 0 0 0-.968.219c-.28.145-.515.341-.704.587-.19.246-.333.53-.431.853A3.432 3.432 0 0 0 21 7.466c0 .367.042.715.127 1.045.084.33.218.617.4.863.183.246.416.44.7.582.283.143.621.214 1.013.214.318 0 .62-.068.907-.203a1.44 1.44 0 0 0 .664-.63h.02v.708c.007.381-.082.697-.268.946-.186.25-.482.375-.887.375a1.39 1.39 0 0 1-.68-.162c-.195-.107-.327-.3-.394-.577h-1.43c.02.305.103.567.249.785.145.219.327.397.547.536.22.139.463.24.73.307.267.066.529.099.785.099.602 0 1.082-.084 1.44-.25.358-.166.632-.37.82-.608.19-.24.313-.498.37-.775a3.69 3.69 0 0 0 .087-.739zM29 4.217V3h-1.28v1.217H29zm-1.28.732v5.377H29V4.949h-1.28zM31.724 8.578H30.32c.014.36.095.66.244.9.15.24.34.432.572.577.233.146.498.25.796.312a4.576 4.576 0 0 0 1.815.005 2.28 2.28 0 0 0 .785-.306c.229-.146.414-.338.556-.578.143-.239.214-.535.214-.889 0-.25-.049-.46-.146-.629a1.333 1.333 0 0 0-.385-.426 2.07 2.07 0 0 0-.546-.276 6.239 6.239 0 0 0-.629-.177 24.926 24.926 0 0 0-.614-.135 4.745 4.745 0 0 1-.535-.14 1.122 1.122 0 0 1-.38-.203.405.405 0 0 1-.145-.323c0-.11.027-.199.083-.265a.546.546 0 0 1 .203-.15.903.903 0 0 1 .265-.068 2.55 2.55 0 0 1 .27-.016c.264 0 .492.05.687.151.194.1.301.293.322.577h1.404c-.028-.333-.113-.608-.255-.827a1.683 1.683 0 0 0-.535-.525 2.242 2.242 0 0 0-.734-.28 4.26 4.26 0 0 0-.847-.084c-.291 0-.576.026-.853.078a2.348 2.348 0 0 0-.749.27c-.222.129-.4.304-.535.526-.136.222-.203.506-.203.853 0 .235.048.435.145.598.097.163.226.298.385.405.16.108.342.194.546.26.205.066.414.123.63.172.526.11.937.222 1.232.333.294.11.442.277.442.499 0 .132-.031.24-.094.327a.71.71 0 0 1-.234.208c-.093.052-.197.09-.312.115a1.58 1.58 0 0 1-.749-.016 1.092 1.092 0 0 1-.358-.161.81.81 0 0 1-.354-.692zM38.026 4.949V3.337h-1.477v1.612h-.895v.988h.895v3.172c0 .27.045.489.135.655.09.166.213.295.37.385.155.09.335.15.54.182.205.031.421.047.65.047.146 0 .295-.004.447-.01.153-.008.291-.022.416-.042V9.182a2.644 2.644 0 0 1-.458.042c-.249 0-.415-.042-.499-.126-.083-.083-.124-.25-.124-.499V5.937h1.081v-.988h-1.081zM43.6 7.06h-2.403c.007-.104.03-.222.067-.354a1.086 1.086 0 0 1 .572-.67c.156-.08.352-.12.588-.12.36 0 .63.097.806.291.177.194.3.479.37.853zm-2.403.936h3.879a3.796 3.796 0 0 0-.104-1.196 2.927 2.927 0 0 0-.473-1.02 2.387 2.387 0 0 0-.837-.712c-.34-.176-.739-.265-1.196-.265-.41 0-.782.073-1.118.219a2.643 2.643 0 0 0-.869.598c-.242.253-.43.553-.561.9a3.136 3.136 0 0 0-.198 1.122c0 .416.064.798.192 1.144.129.347.31.645.546.895.236.25.524.442.864.577.34.135.72.203 1.144.203.61 0 1.13-.139 1.56-.416.43-.278.748-.739.956-1.383h-1.3c-.048.166-.18.324-.395.473-.215.149-.471.223-.77.223-.415 0-.734-.107-.956-.322-.222-.215-.343-.562-.364-1.04zM45.984 4.949v5.377h1.477V7.902c0-.242.024-.468.073-.676.048-.208.13-.39.244-.546.114-.156.265-.279.452-.369.188-.09.416-.135.687-.135a2.837 2.837 0 0 1 .53.052V4.855a1.152 1.152 0 0 0-.322-.052c-.187 0-.368.028-.541.083a1.982 1.982 0 0 0-.489.234 1.84 1.84 0 0 0-.686.827h-.021V4.95h-1.404zM53.68 7.06h-2.403c.007-.104.03-.222.067-.354a1.086 1.086 0 0 1 .572-.67c.156-.08.352-.12.588-.12.36 0 .63.097.806.291.177.194.3.479.37.853zm-2.403.936h3.879a3.796 3.796 0 0 0-.104-1.196 2.927 2.927 0 0 0-.473-1.02 2.387 2.387 0 0 0-.837-.712c-.34-.176-.739-.265-1.196-.265-.41 0-.782.073-1.118.219a2.643 2.643 0 0 0-.869.598c-.242.253-.43.553-.561.9a3.136 3.136 0 0 0-.198 1.122c0 .416.064.798.192 1.144.129.347.31.645.546.895.236.25.524.442.864.577.34.135.72.203 1.144.203.61 0 1.13-.139 1.56-.416.43-.278.748-.739.956-1.383h-1.3c-.048.166-.18.324-.395.473-.215.149-.471.223-.77.223-.415 0-.734-.107-.956-.322-.222-.215-.343-.562-.364-1.04zM59.766 7.622c0 .221-.021.436-.063.644-.041.208-.11.394-.208.557a1.106 1.106 0 0 1-.39.39 1.171 1.171 0 0 1-.608.145c-.229 0-.425-.05-.588-.15a1.297 1.297 0 0 1-.405-.396 1.704 1.704 0 0 1-.234-.556 2.738 2.738 0 0 1-.073-.624c0-.222.022-.435.067-.64a1.7 1.7 0 0 1 .219-.546c.1-.16.234-.287.4-.384a1.2 1.2 0 0 1 .614-.146c.242 0 .444.049.603.146.16.097.29.223.39.38.1.155.172.335.213.54.042.205.063.418.063.64zm.02 2.017v.687h1.404v-7.2h-1.476v2.478h-.021a1.585 1.585 0 0 0-.681-.598 2.114 2.114 0 0 0-.91-.203c-.396 0-.742.078-1.04.234a2.23 2.23 0 0 0-.744.619 2.717 2.717 0 0 0-.447.89c-.1.335-.151.684-.151 1.044 0 .375.05.735.15 1.082.101.347.25.653.448.92s.449.479.754.635c.305.156.659.234 1.06.234.354 0 .672-.064.952-.193.281-.128.508-.338.682-.629h.02zM6.107 4.485v1.988h1.586c.348 0 .608-.04.782-.12.307-.14.461-.419.461-.834 0-.448-.149-.75-.446-.903-.167-.087-.418-.13-.752-.13H6.107zM8.059 3.2c.518.01.916.074 1.195.19.28.118.516.29.71.518.16.187.287.395.38.622.094.228.14.487.14.779 0 .351-.088.697-.265 1.036-.177.34-.47.58-.877.72.34.138.582.333.724.586.142.252.213.638.213 1.157v.497c0 .338.014.567.04.688.04.19.134.33.281.421v.186H8.901a3.65 3.65 0 0 1-.165-1.034l-.01-.688c-.007-.472-.093-.787-.258-.944-.166-.157-.476-.236-.93-.236H6.107V10.6H4.6V3.2h3.46z" fill="#0166B2" fill-rule="nonzero"/>
            <circle stroke="#0166B2" stroke-width="1.12" cx="7" cy="7" r="6.44"/>
        </g>
        <g fill-rule="nonzero">
            <path d="m33.114 20.606.473-2.545c-4.551 1.701-9.742 3.294-15.746 5.073-4.418 1.309-7.91 2.542-10.636 3.625l-.005.031h6.39c2.407 0 9.696-.293 12.779-6.152l-.568 3.167v.029c2.616-1.083 5-2.13 7.313-3.228z" fill="#F9A61B"/>
            <path d="M56.501 15.998c-1.084 5.85-6.33 5.283-6.33 5.283l2.024-10.913c.586-.054 5.391-.218 4.306 5.63zM39.26 12.663c-.191 1.038-1.338 1.88-2.56 1.88h-2.347l.69-3.728 2.653-.006c1.052.125 1.741.902 1.564 1.854zm-18.015 3.335c-1.083 5.85-6.328 5.283-6.328 5.283l2.022-10.913c.585-.054 5.391-.218 4.306 5.63zM53.457 6.01C51.041 6.01 46.312 6 46.312 6l-.643 3.6a4.099 4.099 0 0 0-.093-.331 3.619 3.619 0 0 0-.408-.887c-.064-.1-.13-.198-.202-.29C44.024 6.803 42.34 6 40.27 6H29.148l-1.294 6.9c-.812-5.633-7.017-6.89-9.653-6.89-2.417 0-7.146-.009-7.146-.009l-3.848 20.76c2.724-1.084 6.217-2.317 10.635-3.626 6.003-1.78 11.195-3.372 15.745-5.073l.01-.049h.127l-.001-.002c7.749-2.908 13.625-6.144 18.441-11.187 0 0-2.062 3.253-7.323 7.113v-.001L44 18.472a5.499 5.499 0 0 0-.132-.314 3.133 3.133 0 0 0-.809-1.18 10.448 10.448 0 0 0-1.17-1.043 52.729 52.729 0 0 1-3 1.747c-.513.276-1.02.544-1.528.81.37.34.552.828.45 1.37-.191 1.04-1.339 1.88-2.56 1.88h-2.347l.21-1.135a157.142 157.142 0 0 1-7.312 3.228v-.028l-.536 2.993h11.33c.222 0 .505-.036.827-.102 2.286-.293 4.418-1.648 5.668-3.322l-.635 3.415h6.391c3.287 0 12.557-1.924 14.149-10.519C64.577 7.744 56.554 6.01 53.457 6.01z" fill="#57409A"/>
            <path d="M33.721 18.012h.001l2.524-.003a1.98 1.98 0 0 1 1.115.483c.506-.265 1.014-.534 1.528-.81a52.657 52.657 0 0 0 3-1.747 48.063 48.063 0 0 0 2.95-2v.004c5.262-3.862 7.325-7.114 7.325-7.114-4.816 5.042-10.692 8.277-18.443 11.187z" fill="#F9A61B"/>
        </g>
    </g>
</svg>
