<?xml version="1.0" encoding="UTF-8"?>
<svg xmlns="http://www.w3.org/2000/svg" width="176" height="51" viewBox="0 0 176 51">
  <g fill="none" fill-rule="evenodd">
    <g fill="#F1EFE3" fill-rule="nonzero">
      <path d="M37.318 41.505c0 .543-.185.993-.554 1.352-.37.358-.933.538-1.69.538h-1.247v2.722h-.847v-6.52h2.094c.733 0 1.29.177 1.671.533.382.355.573.814.573 1.375zm-2.244 1.188c.472 0 .82-.103 1.043-.309.223-.205.335-.499.335-.88 0-.804-.46-1.206-1.378-1.206h-1.247v2.395h1.247zM40.277 46.201a2.6 2.6 0 0 1-1.299-.327 2.325 2.325 0 0 1-.912-.93c-.22-.403-.33-.87-.33-1.4 0-.523.113-.987.34-1.389.226-.402.534-.71.925-.926.391-.215.829-.323 1.313-.323s.921.108 1.312.323c.391.215.7.522.926.921.227.4.34.864.34 1.394 0 .53-.116.997-.349 1.4a2.425 2.425 0 0 1-.945.93 2.698 2.698 0 0 1-1.321.327zm0-.748c.304 0 .59-.072.856-.215.267-.144.482-.359.647-.646.164-.287.246-.636.246-1.048 0-.411-.08-.76-.242-1.047a1.589 1.589 0 0 0-.633-.641c-.26-.14-.542-.21-.847-.21-.31 0-.594.07-.851.21a1.54 1.54 0 0 0-.62.64c-.154.288-.232.637-.232 1.048 0 .418.076.77.228 1.058.152.287.355.5.61.64.254.14.534.211.838.211zM50.698 40.99l-1.592 5.127h-.875l-1.228-4.07-1.229 4.07h-.875l-1.6-5.127h.865l1.173 4.304 1.265-4.304h.866l1.238 4.313 1.154-4.313zM56.084 43.357c0 .162-.01.334-.028.515h-4.077c.03.505.203.9.516 1.183.314.284.694.426 1.14.426.367 0 .672-.086.917-.257.246-.172.418-.401.517-.688h.912c-.136.493-.41.894-.819 1.202-.41.31-.918.463-1.526.463-.484 0-.917-.109-1.299-.327a2.312 2.312 0 0 1-.898-.93c-.217-.403-.326-.87-.326-1.4 0-.53.106-.994.317-1.394.21-.399.507-.706.889-.921.381-.215.82-.323 1.317-.323.484 0 .912.106 1.284.318.372.212.66.504.861.875.202.371.303.79.303 1.258zm-.875-.177c0-.325-.072-.604-.214-.838a1.395 1.395 0 0 0-.582-.533 1.807 1.807 0 0 0-.815-.182c-.428 0-.792.137-1.093.411-.301.275-.473.655-.517 1.142h3.22zM57.942 41.823a1.63 1.63 0 0 1 .637-.683c.276-.162.613-.243 1.01-.243v.88h-.223c-.95 0-1.424.517-1.424 1.552v2.788h-.847V40.99h.847v.833zM64.903 43.357c0 .162-.01.334-.028.515h-4.077c.031.505.204.9.517 1.183.313.284.693.426 1.14.426.366 0 .672-.086.917-.257.245-.172.417-.401.516-.688h.913c-.137.493-.41.894-.82 1.202-.409.31-.918.463-1.526.463-.484 0-.917-.109-1.298-.327a2.312 2.312 0 0 1-.899-.93c-.217-.403-.325-.87-.325-1.4 0-.53.105-.994.316-1.394.211-.399.507-.706.89-.921.38-.215.82-.323 1.316-.323.484 0 .912.106 1.285.318.372.212.659.504.86.875.202.371.303.79.303 1.258zm-.875-.177c0-.325-.071-.604-.214-.838a1.395 1.395 0 0 0-.582-.533 1.807 1.807 0 0 0-.814-.182c-.428 0-.793.137-1.094.411-.3.275-.473.655-.516 1.142h3.22zM65.598 43.535c0-.524.105-.984.316-1.38.211-.396.501-.703.87-.921.37-.219.784-.328 1.243-.328.397 0 .766.092 1.108.276.34.184.602.426.781.725v-2.713h.857v6.923h-.857v-.963a1.987 1.987 0 0 1-.744.753c-.329.196-.714.294-1.154.294-.453 0-.864-.112-1.234-.336-.369-.225-.659-.54-.87-.945a2.955 2.955 0 0 1-.316-1.385zm4.318.01c0-.387-.077-.724-.232-1.011a1.648 1.648 0 0 0-.628-.66 1.705 1.705 0 0 0-.87-.229c-.317 0-.606.075-.866.225-.261.15-.469.368-.624.655a2.093 2.093 0 0 0-.233 1.01c0 .393.078.734.233 1.025.155.29.363.511.624.664.26.153.549.229.865.229.317 0 .607-.076.87-.23a1.64 1.64 0 0 0 .629-.663 2.12 2.12 0 0 0 .232-1.016zM75.327 41.945c.174-.306.428-.555.763-.749.335-.193.717-.29 1.145-.29.46 0 .872.11 1.238.328.366.218.654.525.865.921.211.396.317.856.317 1.38 0 .518-.106.98-.317 1.385-.21.405-.5.72-.87.945-.37.224-.78.336-1.233.336a2.26 2.26 0 0 1-1.159-.29 1.968 1.968 0 0 1-.75-.739v.945h-.846v-6.923h.847v2.75zm3.462 1.59c0-.387-.077-.723-.232-1.01a1.616 1.616 0 0 0-.629-.655 1.732 1.732 0 0 0-.87-.225 1.672 1.672 0 0 0-1.494.893c-.158.29-.237.626-.237 1.006 0 .387.079.725.237 1.016a1.672 1.672 0 0 0 1.494.893c.316 0 .607-.076.87-.23a1.64 1.64 0 0 0 .629-.663c.155-.29.232-.632.232-1.025zM84.985 40.99l-3.072 7.541h-.875l1.006-2.47-2.057-5.07h.94l1.6 4.153 1.583-4.154z"></path>
    </g>
    <path d="M95.291 38.25c1.705 0 2.856.755 3.092.919l.042.03c.28.194.687.539.751.646v.022l.022.021c.215.216.386.41.537.583l.085.129-1.953 3.751 1.374 1.401-.15.173c-1.01 1.142-2.083 1.983-3.177 2.5a5.483 5.483 0 0 1-2.662.669c-1.846 0-3.048-.884-3.134-.949l-.73-.646-.021-.022-.022-.021a25.477 25.477 0 0 1-.515-.561l-.086-.13 1.932-3.75-1.438-1.445.15-.172c1.01-1.143 2.082-1.984 3.177-2.501.902-.431 1.825-.647 2.726-.647zm1.18 4.98s-.836 1.746-2.382 3.105c-.966.862-2.232 1.573-3.735 1.638h-.064l.011.009c.239.175 4.128 2.91 8.682-2.186zm-5.688.194-1.738 3.342c.279.366.73.776 1.052 1.056 1.438-.259 2.404-.453 3.584-1.552-.622-.28-1.738-1.1-2.898-2.846zm7.535-4.01s-3.993-3.104-8.694 2.178l2.515 2.537.028-.054c.164-.318.978-1.815 2.351-3.022.966-.863 2.233-1.574 3.735-1.639zm.3.216c-2.21 0-3.348 1.12-3.713 1.509.622.28 1.76 1.035 2.94 2.824l1.74-3.342a10.7 10.7 0 0 0-.967-.991z" fill="#F1EFE3" fill-rule="nonzero"></path>
    <g fill="#F1EFE3" fill-rule="nonzero">
      <path d="M135.024 43.1c-.043.108-.108.238-.15.41a4.58 4.58 0 0 0-.172.884c-.022.56.107.992.386 1.272.387.388 1.073.604 2.082.625 2.018.044 3.285-.84 3.757-2.63.086-.302.129-.582.129-.819.021-.496-.13-.884-.387-1.164-.386-.41-1.073-.625-2.06-.625-.902 0-1.696.194-2.297.517-.494.28-.859.604-1.052 1.013h1.631a1.13 1.13 0 0 1 .43-.41c.279-.172.6-.28.944-.28.408 0 .708.108.902.302.171.173.257.431.257.776 0 .216-.043.475-.129.755-.193.69-.45 1.186-.794 1.444-.257.216-.622.324-1.073.324-.408 0-.708-.087-.88-.28-.15-.151-.215-.345-.215-.604 0-.108.065-.324.107-.496l.065-.194h.472l.215-.798h-2.168v-.021zM100.507 46.227h1.439l1.395-5.11h-1.46zM118.088 41.117c-.602 0-1.117.237-1.589.69-.472.474-.837 1.143-1.052 1.962a6.869 6.869 0 0 0-.107.474c-.022.151-.043.302-.043.431-.021.518.107.928.365 1.186.279.28.708.367 1.288.367h1.03l.215-.841c-.45 0-.794-.108-.988-.323-.171-.173-.236-.389-.236-.69 0-.087.022-.194.043-.302.022-.108.043-.216.065-.345.193-.798.493-1.315.88-1.552.043-.022.064-.022.107-.022.064 0 .129.043.129.043l.43.367c.085.086.214.172.257.172.086 0 .214-.086.279-.108l1.03-.625-1.138 4.226h1.46l1.352-5.11h-1.674l-.665.431c-.022.022-.193.13-.28.13h-.02c-.022 0-.065 0-.108-.043l-.494-.367s-.129-.108-.3-.13c-.086-.02-.194-.02-.215-.02h-.021zM110.188 41.117l-.794 2.91c-.107.346-.172.647-.172.95-.021.452.065.775.258.991.215.216.558.345 1.03.345.816 0 1.481-.302 2.04-.884l.236-.237-.301 1.078h1.438c.086-.259.28-1.035.537-1.897l.88-3.213h-1.46l-.751 2.609c-.086.237-.129.323-.15.367v.043c-.387.711-.923 1.142-1.46 1.142-.236 0-.45-.064-.58-.215a.633.633 0 0 1-.15-.475c.022-.237.086-.539.13-.711l.75-2.738h-1.48v-.065zM131.525 40.169h4.229l.15-.625h-2.898l.258-.95h-.43c-.901.044-1.33.13-1.416.152l-.13.431h.516l-.28.992zM126.373 42.238h.108l-1.074 3.989h1.546l1.374-5.11h-2.598c-.901 0-1.91.043-2.683.733-.472.41-.773.97-1.03 1.897-.065.173-.086.324-.108.475-.021.172-.021.366-.043.474-.021.496.108.884.365 1.143.28.301.773.41 1.417.388h.88l.258-.863c-.515 0-.902-.129-1.138-.388a.788.788 0 0 1-.236-.646c0-.087.021-.194.043-.302.021-.108.043-.216.064-.345.108-.41.408-1.164 1.138-1.402 0 0 .107-.043.193-.043h1.524zM122.144 40.169l.258-.927-1.438-.087c-1.696.065-3.306.194-3.606.238l-.193.776h4.98zM106.518 45.127c-.043.086-.13.151-.215.151a.319.319 0 0 1-.193-.086v-.022a.472.472 0 0 1-.065-.107c-.15-.324-.923-2.35-1.073-2.803h-1.438l1.31 3.514c.02.043.128.431.579.431h2.318l1.374-5.11h-2.211l-.215.777h.73l-.901 3.255zM109.394 40.169l.258-.927-1.439-.087c-1.695.065-3.305.194-3.606.238l-.193.776h4.98zM134.208 41.57c-.343-.345-1.03-.517-2.104-.517-.923 0-1.652.15-2.232.452-.515.26-.837.626-1.009 1.078h1.653c.086-.237.258-.41.515-.56.236-.13.515-.173.837-.173.43 0 .73.087.88.259a.52.52 0 0 1 .15.388c0 .065 0 .13-.02.173l-.044.172c0 .022-.021.043-.043.13-.021.042-.021.086-.021.107v.043h-2.147c-.322 0-.622.043-.901.13-.28.086-.537.194-.73.345-.215.15-.386.323-.515.517s-.236.388-.28.604c-.128.539-.042.927.258 1.207.28.237.666.323 1.846.323h.236l.237-.797c0 .021-.322 0-.344 0a.557.557 0 0 1-.322-.087c-.257-.129-.343-.41-.279-.69.043-.172.15-.301.322-.43a1.17 1.17 0 0 1 .623-.173h1.738l-.58 2.177h1.525l.966-3.643c.021-.065.021-.108.021-.151s.022-.108.022-.151c.021-.323-.065-.56-.258-.733z"></path>
    </g>
    <g fill="#F1EFE3" fill-rule="nonzero">
      <path d="M140.733 46.18c0 .043 0 .086-.024.129 0 .043-.024.043-.048.086-.023.042-.047.042-.071.042h-.143c-.024 0-.048-.042-.071-.042l-.048-.086c0-.043-.024-.086-.024-.129h.072v.086c0 .043.023.043.023.086.024 0 .024.043.048.043h.095c.024 0 .024 0 .048-.043.024 0 .024-.043.024-.043v-.172l-.024-.043c-.024 0-.024-.043-.048-.043-.023 0-.047 0-.071-.043-.024 0-.048-.042-.072-.042-.023 0-.047-.043-.047-.043-.024 0-.024-.043-.024-.086s-.024-.086-.024-.129c0-.043 0-.086.024-.086 0-.042.024-.042.048-.085.023 0 .023-.043.047-.043h.143c.024 0 .048.043.048.043.024.043.024.043.024.085 0 .043 0 .086.023.13h-.071v-.087c0-.043-.024-.043-.024-.043s-.024-.042-.047-.042h-.096c-.024 0-.024 0-.047.042l-.024.043v.172s0 .043.024.043c0 0 .023 0 .047.043.024 0 .024 0 .048.043h.048c.023 0 .023 0 .047.042.024 0 .024 0 .048.043.024 0 .024.043.024.043s.023.043.023.086c.072-.086.072-.043.072 0zM141.233 45.622l-.143.773h-.048l-.166-.773v.773h-.072v-.901h.095l.167.772.143-.772h.095v.9h-.071z"></path>
    </g>
    <g fill="#F1EFE3">
      <path d="M7.615 14.068a6.77 6.77 0 0 0 13.539 0v-.035h3.384v.06c0 6.308-5.114 11.422-11.423 11.422-6.308 0-11.423-5.114-11.423-11.423v-.059h5.923zM22.846 3.827a2.962 2.962 0 0 1 2.962 2.962v.03a2.962 2.962 0 1 1-5.923 0v-.03a2.962 2.962 0 0 1 2.961-2.962zm-13.75 0a2.962 2.962 0 0 1 2.962 2.962v.03a2.962 2.962 0 1 1-5.923 0v-.03a2.962 2.962 0 0 1 2.961-2.962zM33 25.515V3.827h4.23v6.267a6.558 6.558 0 0 1 10.577 5.182v10.24h-4.23V15.93a3.173 3.173 0 1 0-6.346 0v9.584H33zm25.279-3.508c1.29 0 2.46-.528 3.302-1.382h4.615c-1.287 3.121-4.347 5.316-7.917 5.316-4.732 0-8.567-3.856-8.567-8.612s3.835-8.611 8.567-8.611c4.731 0 8.567 3.855 8.567 8.611 0 .62-.065 1.225-.189 1.807H53.985a4.655 4.655 0 0 0 4.294 2.871zm0-9.356a4.655 4.655 0 0 0-4.294 2.871h8.588a4.655 4.655 0 0 0-4.294-2.87zm52.884-3.933c4.732 0 8.568 3.855 8.568 8.611s-3.836 8.612-8.568 8.612c-4.731 0-8.567-3.856-8.567-8.612s3.836-8.611 8.567-8.611zm0 3.933c-2.57 0-4.653 2.095-4.653 4.678 0 2.584 2.083 4.678 4.653 4.678 2.57 0 4.654-2.094 4.654-4.678 0-2.583-2.083-4.678-4.654-4.678zm18.404-3.933c4.732 0 8.568 3.855 8.568 8.611s-3.836 8.612-8.568 8.612c-4.731 0-8.567-3.856-8.567-8.612s3.836-8.611 8.567-8.611zm0 3.933c-2.57 0-4.654 2.095-4.654 4.678 0 2.584 2.084 4.678 4.654 4.678s4.654-2.094 4.654-4.678c0-2.583-2.083-4.678-4.654-4.678zm26.76-8.824v21.688h-4.23v-1.164a7.645 7.645 0 0 1-4.655 1.59c-4.44 0-8.038-3.856-8.038-8.612s3.599-8.611 8.038-8.611c1.735 0 3.341.588 4.654 1.589v-6.48h4.23zm-8.25 8.824c-2.512 0-4.548 2.095-4.548 4.678 0 2.584 2.036 4.678 4.548 4.678s4.548-2.094 4.548-4.678c0-2.583-2.036-4.678-4.548-4.678zm-56.27-3.933c1.83 0 3.515.646 4.866 1.734V9.143h4.23V22.23c0 4.335-2.118 9.695-8.242 9.872l-.315.005c-4.244 0-7.033-1.78-8.365-5.34h4.414c1.12 1.061 2.392 1.591 3.819 1.591 2.5.006 4.022-1.479 4.568-4.454-1.37 1.143-3.097 1.824-4.974 1.824-4.44 0-8.039-3.808-8.039-8.505 0-4.697 3.6-8.505 8.039-8.505zm.424 3.827c-2.57 0-4.654 2.094-4.654 4.678 0 2.583 2.084 4.678 4.654 4.678s4.654-2.095 4.654-4.678c0-2.584-2.084-4.678-4.654-4.678zM71.5 9.143l3.602 9.38 3.971-9.38h4.442l-9.18 21.688h-4.443l2.88-6.805-5.714-14.883H71.5zm90.75 0 3.602 9.38 3.971-9.38h4.442l-9.18 21.688h-4.443l2.88-6.805-5.714-14.883h4.442z"></path>
    </g>
  </g>
</svg>
