<svg width="24" height="24" viewBox="0 0 24 24" xmlns="http://www.w3.org/2000/svg">
    <g fill="none" fill-rule="evenodd">
        <rect stroke="#3E3E3E" x=".5" y="4.5" width="23" height="15" rx="2"/>
        <g fill="#3E3E3E" fill-rule="nonzero">
            <path d="M2.745 13.868v-1.142c0-.273.057-.479.17-.617a.897.897 0 0 1 .461-.291l.007-.024-.703-.26v-.187c0-.199.061-.384.184-.554.122-.17.3-.307.536-.41.235-.103.519-.154.852-.154.305 0 .574.047.807.143.234.095.417.24.551.433.134.193.2.44.2.741v2.322h-.825v-2.263c0-.245-.069-.424-.206-.538-.138-.114-.32-.171-.546-.171-.224 0-.396.047-.517.141a.453.453 0 0 0-.19.35l.626.3-.064.38a.504.504 0 0 0-.377.165c-.094.105-.14.256-.14.453v1.183h-.826zM6.742 13.868v-1.142c0-.273.057-.479.17-.617a.897.897 0 0 1 .462-.291l.006-.024-.703-.26v-.187c0-.199.061-.384.184-.554.122-.17.3-.307.536-.41.235-.103.519-.154.852-.154.305 0 .574.047.807.143.234.095.417.24.551.433.134.193.2.44.2.741v2.322h-.825v-2.263c0-.245-.068-.424-.206-.538-.138-.114-.32-.171-.546-.171-.223 0-.396.047-.517.141a.453.453 0 0 0-.19.35l.626.3-.064.38a.504.504 0 0 0-.377.165c-.093.105-.14.256-.14.453v1.183h-.826zM14.312 13.868h-.908l-.871-1.418-.872 1.418h-.851l1.243-1.933-1.164-1.815h.877l.808 1.348.792-1.348h.856l-1.177 1.859z"/>
            <path d="M17.813 13.868h-.907l-.872-1.418-.871 1.418h-.851l1.243-1.933-1.164-1.815h.877l.807 1.348.792-1.348h.857l-1.177 1.859zM21.315 13.868h-.907l-.872-1.418-.872 1.418h-.85l1.243-1.933-1.164-1.815h.877l.807 1.348.792-1.348h.856l-1.176 1.859z"/>
        </g>
    </g>
</svg>
