<svg width="56" height="56" viewBox="0 0 56 56" xmlns="http://www.w3.org/2000/svg" xmlns:xlink="http://www.w3.org/1999/xlink">
    <defs>
        <circle id="62dwxuk4ga" cx="28" cy="28" r="28"/>
    </defs>
    <g fill="none" fill-rule="evenodd">
        <g>
            <mask id="437njrawcb" fill="#fff">
                <use xlink:href="#62dwxuk4ga"/>
            </mask>
            <use fill="#DCDCDC" xlink:href="#62dwxuk4ga"/>
            <path d="M28-4h31v54.966L28 28.3V-4z" fill="#1DA578" mask="url(#437njrawcb)"/>
        </g>
        <path d="M28 52c13.255 0 24-10.745 24-24S41.255 4 28 4 4 14.745 4 28s10.745 24 24 24z" fill="#FFF"/>
        <g fill="#3E3E3E" fill-rule="nonzero">
            <path d="M13.556 25.616c.043-1.141.416-2.021 1.12-2.64.704-.619 1.659-.928 2.864-.928.8 0 1.485.139 2.056.416.57.277 1.003.656 1.296 1.136.293.48.44 1.019.44 1.616 0 .704-.176 1.277-.528 1.72-.352.443-.763.744-1.232.904v.064c.608.203 1.088.539 1.44 1.008.352.47.528 1.072.528 1.808 0 .661-.152 1.245-.456 1.752-.304.507-.747.904-1.328 1.192-.581.288-1.272.432-2.072.432-1.28 0-2.301-.315-3.064-.944-.763-.63-1.165-1.579-1.208-2.848h2.656c.01.47.144.84.4 1.112.256.272.63.408 1.12.408.416 0 .739-.12.968-.36.23-.24.344-.557.344-.952 0-.512-.163-.883-.488-1.112-.325-.23-.845-.344-1.56-.344h-.512v-2.224h.512c.544 0 .984-.093 1.32-.28.336-.187.504-.52.504-1 0-.384-.107-.683-.32-.896-.213-.213-.507-.32-.88-.32-.405 0-.707.123-.904.368a1.65 1.65 0 0 0-.344.912h-2.672zM31.364 24.704h-4.992v2.208c.213-.235.512-.427.896-.576.384-.15.8-.224 1.248-.224.8 0 1.464.181 1.992.544.528.363.915.832 1.16 1.408.245.576.368 1.2.368 1.872 0 1.248-.352 2.237-1.056 2.968-.704.73-1.696 1.096-2.976 1.096-.853 0-1.595-.147-2.224-.44-.63-.293-1.115-.701-1.456-1.224-.341-.523-.528-1.125-.56-1.808h2.672c.064.33.219.605.464.824.245.219.581.328 1.008.328.501 0 .875-.16 1.12-.48.245-.32.368-.747.368-1.28 0-.523-.128-.923-.384-1.2-.256-.277-.63-.416-1.12-.416-.363 0-.661.088-.896.264-.235.176-.39.408-.464.696h-2.64v-6.96h7.472v2.4zM33.192 27.448c0-.648.186-1.148.558-1.5.372-.352.854-.528 1.446-.528s1.072.176 1.44.528c.368.352.552.852.552 1.5s-.184 1.148-.552 1.5c-.368.352-.848.528-1.44.528s-1.074-.176-1.446-.528c-.372-.352-.558-.852-.558-1.5zm8.148-1.896L36.72 34h-1.98l4.62-8.448h1.98zm-6.156 1.068c-.384 0-.576.276-.576.828 0 .544.192.816.576.816a.513.513 0 0 0 .432-.204c.104-.136.156-.34.156-.612 0-.552-.196-.828-.588-.828zm3.72 5.484c0-.648.184-1.148.552-1.5.368-.352.848-.528 1.44-.528s1.072.176 1.44.528c.368.352.552.852.552 1.5s-.184 1.148-.552 1.5c-.368.352-.848.528-1.44.528s-1.072-.176-1.44-.528c-.368-.352-.552-.852-.552-1.5zm1.98-.828a.497.497 0 0 0-.426.204c-.1.136-.15.344-.15.624 0 .544.192.816.576.816a.513.513 0 0 0 .432-.204c.104-.136.156-.34.156-.612 0-.272-.052-.478-.156-.618a.508.508 0 0 0-.432-.21z"/>
        </g>
    </g>
</svg>
