<svg width="24" height="24" viewBox="0 0 24 24" xmlns="http://www.w3.org/2000/svg">
    <g transform="translate(2 2)" fill-rule="nonzero" fill="none">
        <circle stroke="#13875D" stroke-width="2" cx="10" cy="10" r="9"/>
        <g transform="translate(6.875 5)" fill="#13875D">
            <path d="M3.042 0h-.093C1.953 0 0 .592 0 2.137c0 .334.036.407.119.542.18.292.514.279.788.291.724 0 .892-.211.978-.698.056-.31.25-.72 1.223-.72.189 0 1.25.044 1.25.888 0 .903-.659.943-1.315 1.114l-.126.057c-.674.18-.966.651-.966 1.713v-.046c0 .816-.053 1.066.669 1.066h.278c.736 0 .854-.17.854-.517.014-.278 0-.46.085-.587.055-.049.232-.13.348-.17.098-.034.183-.064.236-.088 1.162-.541 1.829-1.27 1.829-2.238C6.25 1.048 4.931 0 3.042 0z"/>
            <ellipse cx="2.859" cy="8.637" rx="1.361" ry="1.363"/>
        </g>
    </g>
</svg>
