<svg width="24" height="24" viewBox="0 0 24 24" xmlns="http://www.w3.org/2000/svg">
    <path d="M21.948 9.68a1.059 1.059 0 0 0-.915-.725l-5.773-.52-2.282-5.296A1.064 1.064 0 0 0 12 2.5c-.426 0-.81.251-.977.64L8.74 8.436l-5.773.52a1.061 1.061 0 0 0-.915.724c-.131.401-.01.842.311 1.12l4.364 3.793L5.44 20.21c-.094.413.067.84.413 1.088a1.067 1.067 0 0 0 1.168.05L12 18.4l4.977 2.95c.364.218.823.198 1.168-.05a1.05 1.05 0 0 0 .413-1.088l-1.286-5.618 4.363-3.793c.321-.278.444-.718.312-1.12z" fill="#000" fill-rule="nonzero" opacity=".7"/>
</svg>
