<svg width="40" height="40" viewBox="0 0 40 40" xmlns="http://www.w3.org/2000/svg">
    <g fill="none" fill-rule="evenodd">
        <path d="M10.494 19.157c0 5.676 4.6 10.277 10.277 10.277 5.678 0 10.28-4.601 10.28-10.277h5.139c0 9.578-7.765 17.343-17.344 17.343C9.265 36.5 1.5 28.735 1.5 19.157z" stroke="#1DA578"/>
        <path d="M38.982 7.061c-.072.821-.412 1.536-.875 2.198-.812 1.16-1.782 2.16-2.98 2.926-.41.26-.843.475-1.336.537-.382.048-.732-.063-1.076-.215a6.63 6.63 0 0 1-1.627-1.076 11.112 11.112 0 0 1-2.167-2.496 4.12 4.12 0 0 1-.681-2.226c0-.96.27-1.814.98-2.485.835-.79 2.022-.94 3.079-.417a3.58 3.58 0 0 1 1.213.99l.083.1a.095.095 0 0 0 .026.01c.122-.136.238-.28.367-.409a3.172 3.172 0 0 1 1.7-.94 2.628 2.628 0 0 1 2.774 1.2c.453.704.592 1.48.52 2.304zM18.104 7.061c-.072.821-.412 1.536-.875 2.198-.812 1.16-1.782 2.16-2.98 2.926-.41.26-.843.475-1.336.537-.382.048-.732-.063-1.076-.215a6.63 6.63 0 0 1-1.627-1.076 11.112 11.112 0 0 1-2.167-2.496 4.12 4.12 0 0 1-.681-2.226c0-.96.271-1.814.98-2.485.835-.79 2.022-.94 3.079-.417a3.58 3.58 0 0 1 1.214.99c.026.034.055.067.082.1a.095.095 0 0 0 .026.01c.122-.136.238-.28.367-.409a3.172 3.172 0 0 1 1.7-.94 2.628 2.628 0 0 1 2.774 1.2c.454.704.592 1.48.52 2.304z" fill="#F46060"/>
    </g>
</svg>
