<svg width="24" height="24" viewBox="0 0 24 24" xmlns="http://www.w3.org/2000/svg">
    <path d="M11.552 2.883c.611-.133.766-.085.896 0s.236.207.3.355l2.342 5.433 5.92.533a.816.816 0 0 1 .7.554.796.796 0 0 1-.238.853l-4.476 3.891 1.32 5.765a.797.797 0 0 1-.316.83.817.817 0 0 1-.895.038L12 18.109l-5.107 3.026a.816.816 0 0 1-1.178-.406.798.798 0 0 1-.031-.462l1.32-5.765-4.477-3.892a.799.799 0 0 1 .028-1.233.818.818 0 0 1 .434-.173l5.922-.533 2.341-5.431a.81.81 0 0 1 .3-.357z" fill-rule="nonzero" stroke="#000" stroke-width=".5" fill="none" opacity=".7"/>
</svg>
