<svg width="24" height="24" viewBox="0 0 24 24" xmlns="http://www.w3.org/2000/svg" xmlns:xlink="http://www.w3.org/1999/xlink">
    <defs>
        <path id="pdxflej2aa" d="M0 0h16v19H0z"/>
    </defs>
    <g fill="none" fill-rule="evenodd" opacity=".7">
        <g transform="translate(2 2.5)">
            <mask id="a5trtiebdb" fill="#fff">
                <use xlink:href="#pdxflej2aa"/>
            </mask>
            <path d="M19.948 7.18a1.059 1.059 0 0 0-.915-.725l-5.773-.52L10.978.64A1.064 1.064 0 0 0 10 0c-.426 0-.81.251-.977.64L6.74 5.936l-5.773.52a1.061 1.061 0 0 0-.915.724c-.131.401-.01.842.311 1.12l4.364 3.793L3.44 17.71c-.094.413.067.84.413 1.088a1.067 1.067 0 0 0 1.168.05L10 15.9l4.977 2.95c.364.218.823.198 1.168-.05a1.05 1.05 0 0 0 .413-1.088l-1.286-5.618L19.636 8.3c.321-.278.444-.718.312-1.12z" fill="#000" fill-rule="nonzero" mask="url(#a5trtiebdb)"/>
        </g>
        <path d="M11.552 2.883c.611-.133.766-.085.896 0s.236.207.3.355l2.342 5.433 5.92.533a.816.816 0 0 1 .7.554.796.796 0 0 1-.238.853l-4.476 3.891 1.32 5.765a.797.797 0 0 1-.316.83.817.817 0 0 1-.895.038L12 18.109l-5.107 3.026a.816.816 0 0 1-1.178-.406.798.798 0 0 1-.031-.462l1.32-5.765-4.477-3.892a.799.799 0 0 1 .028-1.233.818.818 0 0 1 .434-.173l5.922-.533 2.341-5.431a.81.81 0 0 1 .3-.357z" stroke="#000" stroke-width=".5"/>
    </g>
</svg>
