<svg width="24" height="24" viewBox="0 0 24 24" xmlns="http://www.w3.org/2000/svg">
    <path d="M22.445 9.558a1.113 1.113 0 0 0-.96-.763l-6.062-.547-2.397-5.575A1.117 1.117 0 0 0 12 2c-.447 0-.85.264-1.026.674L8.577 8.248l-6.062.547c-.446.041-.822.34-.96.763-.138.422-.01.886.326 1.178l4.582 3.993-1.351 5.914c-.099.435.07.885.434 1.146a1.119 1.119 0 0 0 1.226.053L12 18.736l5.226 3.106c.383.228.865.208 1.227-.053.364-.262.533-.712.434-1.146l-1.35-5.914 4.58-3.992c.338-.293.466-.756.328-1.18z" fill="#000" fill-rule="nonzero" opacity=".7"/>
</svg>
