<svg width="80" height="8" viewBox="0 0 80 8" xmlns="http://www.w3.org/2000/svg">
    <path d="M22.706 7.821c-.513 0-.975-.09-1.386-.27a2.275 2.275 0 0 1-.968-.764A1.942 1.942 0 0 1 20 5.632h1.342c.03.33.16.601.39.814.232.213.556.319.974.319.433 0 .77-.104 1.012-.313a1.02 1.02 0 0 0 .363-.809c0-.257-.075-.466-.226-.627a1.508 1.508 0 0 0-.56-.374 8.46 8.46 0 0 0-.93-.286 8.709 8.709 0 0 1-1.215-.401 2.009 2.009 0 0 1-.798-.633c-.22-.286-.33-.667-.33-1.144 0-.44.11-.825.33-1.155.22-.33.528-.583.924-.759C21.672.088 22.13 0 22.651 0c.74 0 1.348.185 1.82.555.474.37.736.879.787 1.524h-1.386c-.022-.279-.154-.517-.396-.715-.242-.198-.561-.297-.957-.297-.36 0-.653.092-.88.275-.227.183-.341.447-.341.792 0 .235.072.427.215.578.142.15.324.269.544.357.22.088.52.183.902.286.506.14.919.279 1.238.418.319.14.59.354.814.643.223.29.335.677.335 1.161 0 .389-.105.755-.314 1.1a2.262 2.262 0 0 1-.913.83c-.4.21-.87.314-1.413.314zM38.786.099 36.52 7.744h-1.419l-1.606-5.786-1.705 5.786-1.408.011L28.215.099h1.331l1.584 6.226L32.846.099h1.408l1.595 6.193L37.444.099h1.342zm4.288 0v7.645H41.82V.099h1.254zm8.996 2.277c0 .389-.092.755-.275 1.1-.183.345-.477.625-.88.841-.403.217-.92.325-1.551.325h-1.386v3.102h-1.254V.099h2.64c.587 0 1.084.1 1.49.302.407.202.712.475.913.82.202.345.303.73.303 1.155zm-2.706 1.243c.477 0 .832-.108 1.067-.325.235-.216.352-.522.352-.918 0-.836-.473-1.254-1.419-1.254h-1.386v2.497h1.386zm7.159-2.508v2.244h2.64v1.023h-2.64v2.343h2.97v1.023h-4.224V.088h4.224v1.023h-2.97z" fill="#B1AFA7" fill-rule="nonzero"/>
</svg>
