<svg width="25" height="24" viewBox="0 0 25 24" xmlns="http://www.w3.org/2000/svg">
    <path d="M10.804 21.5a6.82 6.82 0 0 1-4.817-1.968c-2.65-2.636-2.648-6.901 0-9.51l6.274-6.05a5.32 5.32 0 0 1 3.156-1.467l.05-.005.41.004c1.352 0 2.639.531 3.617 1.496A4.934 4.934 0 0 1 21 7.541a4.986 4.986 0 0 1-1.506 3.591l-5.642 5.428a3.376 3.376 0 0 1-2.408.987 3.447 3.447 0 0 1-2.435-.992 3.347 3.347 0 0 1 0-4.778l1.984-1.954a.936.936 0 0 1 1.31 0 .904.904 0 0 1 0 1.292l-1.982 1.954a1.538 1.538 0 0 0 0 2.193c.59.583 1.631.596 2.22.004l5.65-5.434c.616-.607.958-1.42.955-2.285a3.138 3.138 0 0 0-.958-2.252 3.287 3.287 0 0 0-2.319-.964l-.318-.003a3.45 3.45 0 0 0-1.994.951L7.29 11.321c-1.922 1.893-1.92 5.002.01 6.922a4.962 4.962 0 0 0 3.503 1.429c1.325 0 2.578-.51 3.526-1.435l2.61-2.573a.936.936 0 0 1 1.311 0 .904.904 0 0 1 0 1.292l-2.613 2.576a6.877 6.877 0 0 1-4.834 1.968" fill="#13875D" stroke="#13875D" stroke-width=".2" fill-rule="evenodd"/>
</svg>
