<svg width="32" height="32" viewBox="0 0 32 32" xmlns="http://www.w3.org/2000/svg">
    <g fill="none" fill-rule="evenodd">
        <g transform="translate(8 8)">
            <circle fill-opacity=".6" fill="#000" cx="8" cy="8" r="8"/>
            <path d="M5.119 4.333c.206 0 .394.08.534.21l5.776 5.775a.79.79 0 0 1 .015.015l.018.019a.786.786 0 0 1-1.106 1.113l-5.83-5.827a.786.786 0 0 1 .592-1.304z" fill="#FFF"/>
            <path d="M10.881 4.333a.786.786 0 0 1 .592 1.303l-5.828 5.831a.786.786 0 0 1-1.106-1.116l.016-.017a.79.79 0 0 1 .017-.017l5.775-5.775a.785.785 0 0 1 .534-.209z" fill="#FFF"/>
        </g>
    </g>
</svg>
