<svg width="24" height="24" viewBox="0 0 24 24" xmlns="http://www.w3.org/2000/svg">
    <g transform="translate(4 6)" fill-rule="nonzero" fill="none">
        <circle stroke="#13875D" cx="8" cy="8" r="7.5"/>
        <g transform="translate(5.5 4)" fill="#13875D">
            <path d="M2.433 0H2.36C1.562 0 0 .474 0 1.71c0 .267.029.325.095.433.144.234.411.223.631.233.579 0 .713-.17.782-.559.045-.247.2-.575.978-.575.151 0 1.001.034 1.001.71 0 .722-.528.755-1.052.891l-.102.046c-.538.144-.772.52-.772 1.37v-.037c0 .654-.043.853.535.853h.222c.589 0 .684-.136.684-.413.01-.223 0-.368.067-.47.045-.04.186-.104.279-.136.078-.027.146-.051.189-.07C4.467 3.553 5 2.969 5 2.195 5 .838 3.945 0 2.433 0z"/>
            <ellipse cx="2.287" cy="6.91" rx="1.089" ry="1.09"/>
        </g>
    </g>
</svg>
