<svg width="24" height="24" viewBox="0 0 24 24" xmlns="http://www.w3.org/2000/svg">
    <g stroke="#3E3E3E" fill="none" fill-rule="evenodd">
        <path d="M12 1.5c2.208 0 4.21.87 5.66 2.278C19.104 5.179 20 7.115 20 9.25c0 5.126-6.356 11.694-7.629 12.974C10.361 20.949 4 14.378 4 9.25c0-2.135.896-4.07 2.34-5.472A8.105 8.105 0 0 1 12 1.5z"/>
        <path d="M12 7.29c.643 0 1.224.267 1.646.697.425.435.687 1.035.687 1.697 0 .664-.261 1.264-.686 1.698a2.298 2.298 0 0 1-3.294 0 2.418 2.418 0 0 1-.686-1.698c0-.662.262-1.262.687-1.696A2.296 2.296 0 0 1 12 7.289z"/>
    </g>
</svg>
