<svg width="124" height="24" viewBox="0 0 124 24" xmlns="http://www.w3.org/2000/svg">
    <g fill-rule="nonzero" fill="none">
        <g fill="#3E3E3E">
            <path d="M7.02 12.788c0 .622-.225 1.112-.674 1.47-.45.358-1.075.537-1.875.537-.847 0-1.5-.112-1.963-.337V13.6c.303.13.634.233.993.308.36.075.696.112 1.009.112.534 0 .936-.103 1.206-.308.27-.205.405-.486.405-.844 0-.238-.049-.433-.146-.586-.098-.153-.262-.297-.491-.43-.23-.133-.577-.285-1.043-.454-.66-.241-1.132-.525-1.416-.852-.283-.327-.424-.75-.424-1.267 0-.557.209-1 .627-1.328.418-.33.97-.494 1.653-.494a4.78 4.78 0 0 1 1.968.4l-.279.772c-.612-.254-1.181-.38-1.709-.38-.423 0-.754.09-.993.273-.24.182-.36.438-.36.766 0 .235.047.43.14.584.093.155.242.295.45.422.206.127.53.272.973.435.53.195.926.385 1.187.569.26.184.452.395.576.635.124.239.186.524.186.856zM10.618 14.795c-.804 0-1.435-.243-1.892-.73-.457-.486-.686-1.156-.686-2.009 0-.86.213-1.544.64-2.053.426-.51 1.002-.764 1.728-.764.674 0 1.211.217 1.612.652.4.434.6 1.022.6 1.765v.532H8.948c.017.609.171 1.07.464 1.387.293.315.708.473 1.245.473.287 0 .558-.025.816-.075.257-.05.558-.15.903-.296v.772a4.253 4.253 0 0 1-.835.268c-.26.052-.568.078-.923.078zm-.22-4.839c-.42 0-.752.136-.996.406s-.389.646-.434 1.128h2.73c-.007-.502-.123-.883-.347-1.143-.225-.26-.542-.39-.953-.39zM16.126 14.795c-.772 0-1.372-.237-1.802-.71-.43-.474-.644-1.153-.644-2.039 0-.898.217-1.59.652-2.077.434-.487 1.053-.73 1.857-.73.26 0 .519.027.774.08.256.054.467.123.633.208l-.269.732c-.452-.17-.838-.254-1.157-.254-.54 0-.94.17-1.196.51-.258.34-.386.848-.386 1.522 0 .647.128 1.143.386 1.486.257.344.638.515 1.142.515.472 0 .936-.104 1.392-.312v.781c-.371.192-.832.288-1.382.288zM19.607 9.336v3.452c0 .433.097.755.29.965.195.21.495.315.902.315.55 0 .95-.153 1.201-.46.25-.305.376-.798.376-1.479V9.336h.884v5.362h-.723l-.127-.708h-.044c-.16.257-.386.455-.679.595-.292.14-.633.21-1.02.21-.645 0-1.13-.154-1.458-.464-.327-.309-.49-.804-.49-1.484v-3.51h.888zM27.459 9.239c.238 0 .448.02.63.058l-.108.81a2.593 2.593 0 0 0-.58-.068c-.284 0-.547.079-.79.235a1.596 1.596 0 0 0-.568.647c-.137.275-.205.58-.205.915v2.862h-.879V9.336h.723l.097.982h.04c.204-.355.447-.624.727-.806a1.64 1.64 0 0 1 .913-.273zM31.37 14.795c-.804 0-1.435-.243-1.892-.73-.457-.486-.686-1.156-.686-2.009 0-.86.213-1.544.64-2.053.426-.51 1.002-.764 1.728-.764.674 0 1.211.217 1.611.652.4.434.601 1.022.601 1.765v.532H29.7c.016.609.171 1.07.464 1.387.293.315.708.473 1.245.473.287 0 .558-.025.816-.075.257-.05.558-.15.903-.296v.772a4.253 4.253 0 0 1-.835.268c-.26.052-.568.078-.923.078zm-.22-4.839c-.42 0-.752.136-.996.406s-.389.646-.434 1.128h2.73c-.007-.502-.123-.883-.347-1.143-.225-.26-.542-.39-.953-.39zM36.629 14.795c-.697 0-1.237-.24-1.621-.722-.384-.482-.576-1.164-.576-2.046 0-.876.193-1.56.578-2.051.386-.492.929-.737 1.629-.737.72 0 1.272.263 1.66.79h.063a7.434 7.434 0 0 1-.039-.392 5.956 5.956 0 0 1-.024-.398V7.1h.879v7.598h-.708l-.132-.718h-.04c-.374.544-.93.815-1.67.815zm.142-.727c.533 0 .923-.146 1.169-.437.246-.292.369-.77.369-1.433v-.161c0-.746-.125-1.277-.374-1.595-.249-.317-.64-.476-1.174-.476-.453 0-.803.18-1.05.54-.247.36-.371.873-.371 1.54 0 .664.123 1.167.368 1.51.246.34.6.512 1.063.512zM46.019 9.248c.706 0 1.251.244 1.635.73.384.487.576 1.167.576 2.039 0 .885-.195 1.57-.585 2.053-.391.484-.933.725-1.626.725a2.29 2.29 0 0 1-.967-.195 1.692 1.692 0 0 1-.694-.581h-.068c-.1.39-.161.617-.18.679h-.63V7.1h.878v1.846c0 .368-.016.735-.048 1.103h.048c.362-.534.915-.8 1.66-.8zm-.147.728c-.54 0-.928.153-1.162.459-.234.306-.352.824-.352 1.553v.039c0 .732.12 1.255.36 1.57.239.314.63.47 1.174.47.481 0 .84-.176 1.076-.529.236-.353.354-.863.354-1.53 0-.678-.119-1.186-.356-1.524-.238-.339-.602-.508-1.094-.508zM48.792 9.336h.942l1.158 3.052c.244.664.393 1.15.449 1.46h.039c.03-.12.096-.346.2-.676.104-.33.192-.595.264-.794l1.089-3.042h.947l-2.31 6.104c-.224.592-.491 1.017-.8 1.274-.31.257-.692.386-1.148.386a3.24 3.24 0 0 1-.727-.083v-.698c.162.039.358.058.585.058.28 0 .518-.077.713-.232.196-.154.355-.393.479-.715l.278-.713-2.158-5.38z"/>
        </g>
        <g fill="#2E374D">
            <path d="M83.935 16.082c-2.358 0-4.158-1.496-4.158-4.158 0-2.662 1.89-4.196 4.272-4.196 2.383 0 4.145 1.521 4.145 4.158 0 2.637-1.926 4.196-4.259 4.196zm.038-6.376c-1.077 0-1.622.862-1.622 2.205 0 1.344.557 2.18 1.635 2.18 1.077 0 1.622-.836 1.622-2.192 0-1.357-.557-2.193-1.635-2.193zM98.969 11.227c0-.938-.406-1.268-1.065-1.268-.469.013-.925.19-1.267.507v5.375h-2.599v-4.614c0-.938-.418-1.268-1.077-1.268-.47 0-.913.165-1.268.47v5.412h-2.599l.013-7.935h2.599V8.92c.697-.723 1.47-1.166 2.497-1.154.989 0 1.825.47 2.205 1.407.723-.862 1.636-1.394 2.713-1.394 1.534 0 2.447 1.027 2.434 2.713l-.013 5.374h-2.598l.025-4.64zM104.179 6.904c-.95 0-1.534-.494-1.534-1.381 0-.926.596-1.395 1.534-1.395.938 0 1.534.47 1.534 1.407 0 .888-.57 1.37-1.534 1.37zm-1.293 1.014h2.599l-.013 7.936h-2.599l.013-7.936zM109.655 16.12c-1.078 0-2.497-.241-3.321-.697l.507-1.877a6.465 6.465 0 0 0 2.865.748c.71 0 1.064-.215 1.064-.633 0-.457-.443-.609-1.33-.812-1.826-.367-2.98-1.026-2.98-2.56 0-1.47 1.28-2.51 3.461-2.51 1.04 0 2.409.304 3.182.684l-.52 1.851c-.887-.456-1.952-.71-2.7-.71-.634 0-.963.203-.963.583 0 .419.481.596 1.343.774 1.838.405 2.954 1.014 2.941 2.585.013 1.408-1.23 2.574-3.55 2.574zM118.313 14.218c.862 0 1.774-.304 2.56-.76l.254 2.003c-.786.405-1.902.633-3.055.633-2.65 0-4.373-1.47-4.373-4.107 0-2.56 1.762-4.233 4.246-4.22 2.218 0 3.435 1.33 3.435 3.295 0 .418-.05 1.04-.165 1.382l-4.969.076v.038c.077 1.077.786 1.66 2.067 1.66zm.659-3.143c0-.938-.38-1.496-1.192-1.509-.887 0-1.432.773-1.52 1.66l2.712-.012v-.14z"/>
        </g>
        <path d="M73.262 5.624c-3.486-3.486-9.152-3.486-12.638 0-3.486 3.486-3.486 9.152 0 12.638 3.486 3.486 9.152 3.486 12.638 0 3.486-3.486 3.486-9.152 0-12.638zm-1.394 6.515-4.729 4.729a.283.283 0 0 1-.405 0l-4.728-4.729a.283.283 0 0 1 0-.405l4.728-4.728a.283.283 0 0 1 .405 0l4.729 4.728a.283.283 0 0 1 0 .405z" fill="#2176FF"/>
        <path d="M75.886 11.924c0-2.37-.938-4.652-2.611-6.325a3.626 3.626 0 0 0-5.134-.013l-1.395 1.382a.28.28 0 0 1 .19-.076.3.3 0 0 1 .203.088l6.11 6.123a3.626 3.626 0 0 1 0 5.134 8.893 8.893 0 0 0 2.637-6.313zM60.611 18.224a3.653 3.653 0 0 0 5.147.013s.57-.596 1.381-1.407c-.101.114-.291.114-.405.012l-.013-.012-4.703-4.703c-.063-.05-.088-.14-.088-.216 0-.076.025-.152.076-.203l-1.37 1.37a3.653 3.653 0 0 0-.025 5.146z" fill="#1A53F0"/>
    </g>
</svg>
