<svg width="32" height="32" viewBox="0 0 32 32" xmlns="http://www.w3.org/2000/svg">
    <g transform="translate(.4 .4)" fill-rule="nonzero" fill="none">
        <circle fill="#6F5F5E" cx="15.6" cy="15.6" r="15.6"/>
        <g fill="#FFD400">
            <path d="m12.617 17.184-.006-.004c-.607-.625-1.34-1.652-1.805-3.131 0 0-.02-.057-.048-.057-.03 0-.05.063-.05.063v-.004c-1.002 3.26-3.43 4.548-4.262 4.831-.046.017-.046.053-.042.074a9.855 9.855 0 0 0 1.858 3.093c.015.013.044.024.088 0 2.6-1.481 4.078-4.376 4.276-4.779a.07.07 0 0 0-.009-.086M18.515 17.184c.008-.002.008-.004.008-.004.607-.625 1.342-1.652 1.803-3.131 0 0 .021-.057.049-.057.029 0 .05.063.05.063v-.004c1.005 3.257 3.43 4.548 4.263 4.83.044.016.048.052.04.073a9.695 9.695 0 0 1-1.856 3.093c-.014.013-.046.023-.086 0-2.602-1.481-4.082-4.376-4.277-4.779-.023-.04-.002-.069.006-.084M20.276 24.07c-3.68-3.58-4.645-9.969-4.645-9.969s-.015-.111-.063-.111-.063.111-.063.111-.965 6.389-4.643 9.97c0 0-.037.033.003.058a9.742 9.742 0 0 0 4.64 1.207h.126a9.702 9.702 0 0 0 4.64-1.209c.04-.027.005-.056.005-.056M20.664 7.23c-.056-.03-.056.046-.056.046.004 1.152.16 7.511 4.604 9.453.042.019.055-.013.055-.023.042-.376.07-.754.07-1.14a9.764 9.764 0 0 0-4.673-8.337M10.474 7.23c.055-.03.055.046.055.046-.004 1.152-.16 7.511-4.605 9.453-.04.019-.053-.013-.055-.023a9.757 9.757 0 0 1 4.605-9.476M20.079 6.898A9.758 9.758 0 0 0 15.856 5.8c-.042 0-.036.05-.036.05 0 1.94.313 6.477 1.826 9.544.013.036.038.02.053.015.002-.002.004-.007.008-.007.149-.161 2.498-2.74 2.407-8.437-.006-.04-.027-.063-.035-.067M11.058 6.898a9.756 9.756 0 0 1 4.22-1.098c.04 0 .038.05.038.05 0 1.94-.312 6.477-1.83 9.544-.01.036-.04.02-.048.015-.004-.002-.004-.007-.01-.007-.152-.161-2.498-2.74-2.406-8.437.004-.04.023-.063.036-.067"/>
        </g>
    </g>
</svg>
