<svg width="32" height="32" viewBox="0 0 32 32" xmlns="http://www.w3.org/2000/svg">
    <g transform="translate(.4 .4)" fill="none" fill-rule="evenodd">
        <circle fill="#039" cx="15.6" cy="15.6" r="15.6"/>
        <path d="M22.842 15.505c-.185-.698-.452-1.216-.884-2.006-.142-.224-.323-.474-.486-.74-1.876-2.78-5.577-7.63-5.915-7.942 0 0-.023-.017-.043-.017a.089.089 0 0 0-.043.017c-.338.312-4.04 5.163-5.915 7.942-.163.267-.345.516-.487.74-.432.79-.698 1.308-.883 2.007-.23 1.009-.241 2.263-.033 3.294.19.908 1.05 1.831 1.916 2.522l1.325 1.052s3.702 2.668 4.047 2.838c0 0 .034.021.073.021.038 0 .07-.021.07-.021.346-.17 4.048-2.838 4.048-2.838l1.325-1.052c.866-.69 1.727-1.614 1.915-2.522.21-1.03.2-2.285-.03-3.294v-.001zm-8.488 6.962c-.026.039-.086.026-.129.022-.217-.152-.753-.54-.753-.54-.922-.683-1.853-1.314-2.737-2.015-1.357-1.492-1.22-2.982-.803-4.476.015-.098.06-.244.186-.27.384.563 1.195 1.724 1.195 1.724.789 1.134 1.748 2.156 2.654 3.221.622.572.37 1.53.387 2.334zm1.16-2.959c-.018 0-.047-.014-.075-.043-1.174-1.39-2.505-2.96-3.674-4.356-.21-.353-.426-.693-.45-1.147-.015-.357-.037-.685.256-1.129l.252-.366s2.394-3.364 3.654-4.958c0 0 .017-.022.037-.022.018 0 .035.022.035.022 1.259 1.594 3.653 4.958 3.653 4.958l.252.366c.293.445.27.772.255 1.129-.023.454-.238.794-.449 1.147-1.17 1.395-2.5 2.965-3.674 4.356-.028.03-.055.042-.071.043zm4.77.426c-.883.7-1.815 1.332-2.738 2.015 0 0-.535.388-.752.54-.044.004-.103.017-.13-.022.018-.804-.234-1.762.388-2.334.906-1.065 1.864-2.087 2.654-3.221 0 0 .81-1.16 1.194-1.724.126.026.171.172.186.27.418 1.494.555 2.985-.803 4.476z" fill="#FFF" fill-rule="nonzero"/>
    </g>
</svg>
