<svg width="32" height="32" viewBox="0 0 32 32" xmlns="http://www.w3.org/2000/svg">
    <g fill-rule="nonzero" fill="none">
        <path d="M20.924 26.579c.853 0 1.487.243 2.047.512-.122.073-.244.17-.39.243a3.702 3.702 0 0 0-1.657-.365c-.853 0-1.536.317-2.243.633-.804.366-1.633.756-2.754.756-1 0-1.78-.366-2.51-.707-.756-.341-1.463-.682-2.438-.682-.585 0-1.097.146-1.585.341a3.67 3.67 0 0 1-.414-.244c.61-.268 1.243-.487 1.999-.487 1.072 0 1.852.365 2.608.707.731.34 1.414.658 2.34.658 1.048 0 1.828-.366 2.584-.707.73-.317 1.51-.658 2.413-.658zm.024-.756c1.048 0 1.73.366 2.462.731.049.033.108.065.172.098l.096.049-.366.243c-.048-.024-.073-.024-.097-.048-.658-.342-1.292-.659-2.242-.659-.854 0-1.536.293-2.243.634-.804.366-1.633.756-2.754.756-1 0-1.78-.366-2.511-.707-.756-.341-1.463-.683-2.438-.683-.853 0-1.51.317-2.242.634-.016.017-.022.022-.03.024h-.019l-.365-.268c.073-.048.17-.073.243-.121.732-.317 1.487-.659 2.413-.659 1.073 0 1.853.342 2.609.707.73.342 1.413.659 2.34.659 1.048 0 1.828-.366 2.583-.707.707-.342 1.463-.683 2.39-.683zm0-.731c1.048 0 1.73.341 2.438.707.195.097.39.195.592.285l.31.13-.366.292a6.315 6.315 0 0 1-.707-.342c-.658-.34-1.292-.658-2.242-.658-.854 0-1.536.293-2.243.634-.804.366-1.633.756-2.754.756-1 0-1.78-.366-2.511-.707-.756-.341-1.463-.683-2.438-.683-.853 0-1.51.317-2.242.634-.146.065-.293.13-.446.195l-.237.097-.365-.292c.317-.098.585-.244.877-.366.732-.317 1.487-.658 2.413-.658 1.073 0 1.853.366 2.609.707.73.341 1.413.658 2.34.658 1.048 0 1.828-.365 2.583-.707.707-.34 1.463-.682 2.39-.682zm0-.756c1.048 0 1.73.366 2.438.683.463.244.926.487 1.535.61-.122.097-.244.218-.365.316a6.38 6.38 0 0 1-1.365-.56c-.659-.318-1.292-.634-2.243-.634-.853 0-1.536.316-2.242.633-.805.366-1.634.756-2.755.756-1 0-1.78-.366-2.51-.707-.756-.341-1.463-.682-2.438-.682-.853 0-1.511.316-2.242.633-.415.171-.853.366-1.317.512-.121-.097-.219-.22-.34-.317.56-.122 1.047-.34 1.51-.56.732-.317 1.487-.658 2.413-.658 1.073 0 1.853.365 2.609.706.73.342 1.413.659 2.34.659 1.048 0 1.828-.366 2.583-.707.707-.341 1.463-.683 2.39-.683zm0-.731c1.048 0 1.73.341 2.438.731.609.293 1.243.634 2.193.683-.097.122-.219.244-.34.365-.854-.122-1.439-.414-2.024-.707-.658-.34-1.292-.658-2.242-.658-.854 0-1.536.293-2.243.634-.804.366-1.633.756-2.754.756-1 0-1.78-.366-2.511-.707-.756-.341-1.463-.683-2.438-.683-.853 0-1.51.317-2.242.634-.585.268-1.194.536-1.95.658-.122-.097-.22-.22-.341-.341.804-.098 1.487-.39 2.12-.683.732-.316 1.487-.658 2.413-.658 1.073 0 1.853.366 2.609.707.73.341 1.413.658 2.34.658 1.048 0 1.828-.365 2.583-.707.707-.34 1.463-.682 2.39-.682zm0-.731c1.048 0 1.755.341 2.413.682.683.341 1.39.683 2.535.731.098 0 .22-.024.317-.024-.122.146-.22.293-.341.414-1.219 0-1.975-.365-2.681-.73-.659-.342-1.292-.659-2.243-.659-.853 0-1.536.317-2.242.634-.805.365-1.634.755-2.755.755-1 0-1.78-.365-2.51-.706-.756-.342-1.463-.683-2.438-.683-.853 0-1.511.317-2.242.634-.756.341-1.536.707-2.584.731l-.213-.262-.104-.128h.17c1.024 0 1.829-.366 2.584-.707.732-.317 1.487-.658 2.413-.658 1.073 0 1.853.366 2.609.707.73.341 1.413.658 2.34.658 1.048 0 1.828-.366 2.583-.707.707-.341 1.463-.682 2.39-.682z" fill="#927D73"/>
        <path d="M16 .4C7.396.4.4 7.396.4 16S7.396 31.6 16 31.6 31.6 24.604 31.6 16 24.604.4 16 .4zm0 28.714C8.76 29.114 2.886 23.239 2.886 16 2.886 8.76 8.761 2.886 16 2.886c7.24 0 13.114 5.875 13.114 13.114 0 7.24-5.875 13.114-13.114 13.114" fill="#ED1B2E"/>
        <path d="M23.313 12.027v3.242c0 .902-.074 1.95-1.122 2.73-1.292.926-3.217 1.998-4.046 2.876-.488.512-.731 1.17-.731 1.584v1.22h-.634v-4.754c0-.634.073-1.487.536-2.048.215-.26 1.203-.93 2.26-1.622l.49-.32c1.062-.69 2.086-1.341 2.369-1.568.268-.219.756-.73.853-1.218l.024-.122zm0-6.508v5.313c0 .951-.707 1.682-1.292 2.17-.263.218-1.25.848-2.299 1.528l-.486.315c-1.133.739-2.22 1.47-2.432 1.74-.463.56-.511 1.365-.487 1.999v5.07h-.61v-9.701c0-1.195.464-2.145 1.853-3.12.483-.34 1.138-.744 1.811-1.16l.506-.314c1.095-.682 2.14-1.362 2.485-1.817.536-.707.95-1.268.95-2.023zm-9.677 5.557c-1.268-.975-3.852-3.047-4.168-3.461-.317-.414-.976-1.146-.976-2.047v4.948c0 .707.342 1.974 1.56 2.876 1.22.902 2.95 2.194 3.486 2.73.512.512 1 1.462 1 2.803v4.777h.609v-9.481c.049-1.56-.244-2.17-1.511-3.145z" fill="#00A950"/>
    </g>
</svg>
