<svg width="32" height="32" viewBox="0 0 32 32" xmlns="http://www.w3.org/2000/svg">
    <g fill-rule="nonzero" fill="none">
        <path d="m31.585 14.4-5.73-6.916a5.697 5.697 0 0 0-3.501-1.794L8.497 4.81a1.614 1.614 0 0 0-1.4.542c-.351.4-.485.948-.359 1.467l.028.17-1.434.13c-.53.02-1.017.298-1.305.746a1.647 1.647 0 0 0-.142 1.505l.027.084-.611.115a1.63 1.63 0 0 0-1.229.869 1.65 1.65 0 0 0-.001 1.511l.42.963-1.352.515a1.638 1.638 0 0 0-1.064 1.075c-.159.511-.06 1.069.264 1.494l7.462 11.11a1.949 1.949 0 0 0 2.888.443L21.11 19.14l9.789-2.543c1.131-.297 1.443-1.284.685-2.197z" fill="#FFF"/>
        <path d="M.339 15.997a1.648 1.648 0 0 1-.264-1.494c.16-.512.559-.912 1.067-1.072l13.096-5.014a5.72 5.72 0 0 1 3.947.167l8.082 3.897c1.066.515 1.184 1.544.26 2.29L10.684 27.545a1.949 1.949 0 0 1-2.887-.443L.338 15.997z" fill="#CF3339" opacity=".3"/>
        <path d="M2.07 11.95a1.648 1.648 0 0 1 0-1.513A1.628 1.628 0 0 1 3.3 9.57l13.648-2.591a5.64 5.64 0 0 1 3.823.871l7.21 5.285c.952.697.886 1.732-.146 2.3l-17.67 9.737a1.923 1.923 0 0 1-1.582.145 1.94 1.94 0 0 1-1.156-1.097L2.07 11.95z" fill="#CF3339" opacity=".4"/>
        <path d="M3.885 9.367a1.648 1.648 0 0 1 .143-1.505 1.626 1.626 0 0 1 1.304-.747l13.833-1.234a5.653 5.653 0 0 1 3.723 1.244l6.675 5.971c.88.788.717 1.813-.36 2.276l-18.51 7.95A1.929 1.929 0 0 1 9.1 23.31a1.95 1.95 0 0 1-1.047-1.207L3.885 9.367z" fill="#CF3339" opacity=".5"/>
        <path d="M6.738 6.819a1.639 1.639 0 0 1 .359-1.467c.35-.4.873-.602 1.4-.541l13.857.878a5.68 5.68 0 0 1 3.501 1.794l5.73 6.915c.759.914.446 1.9-.688 2.196l-19.46 5.056a1.937 1.937 0 0 1-1.57-.254 1.962 1.962 0 0 1-.86-1.35L6.739 6.82z" fill="#CF3339"/>
        <g fill="#FFF">
            <path d="M10.893 10.427a.439.439 0 0 1 .135-.353.539.539 0 0 1 .36-.115.888.888 0 0 1 .277.041c.083.028.138.049.166.06v2.352c.132-.136.294-.303.495-.502l.608-.603a49.11 49.11 0 0 1 1.011-.962c.114-.099.233-.192.357-.279a.668.668 0 0 1 .387-.108.676.676 0 0 1 .409.115c.076.05.144.112.202.181-.027.028-.093.095-.202.199l-.395.376-.502.481-.544.516c-.18.168-.346.328-.498.481-.156.154-.28.275-.38.37.522.495 1.014 1 1.467 1.505.448.498.866 1.023 1.25 1.572H14.34a20.651 20.651 0 0 0-1.818-2.029 15.501 15.501 0 0 0-.699-.637v2.666h-.933v-5.327h.004zM17.738 10.883h-1.572a.403.403 0 0 1-.346-.111.41.41 0 0 1-.118-.345c0-.1.016-.2.048-.293.032-.087.056-.147.07-.174h4.487a.403.403 0 0 1 .346.11.41.41 0 0 1 .118.346.866.866 0 0 1-.045.293.69.69 0 0 1-.073.174h-1.98v4.877h-.935v-4.877zM25.515 15.37a2.238 2.238 0 0 1-.623.338c-.178.062-.361.11-.547.142a3.997 3.997 0 0 1-.717.059 3.056 3.056 0 0 1-1.101-.199 2.656 2.656 0 0 1-1.548-1.526 3.387 3.387 0 0 1-.232-1.3 3.491 3.491 0 0 1 .225-1.3c.136-.363.344-.693.613-.97.258-.26.567-.465.907-.6.353-.138.73-.208 1.108-.204.312-.006.624.028.928.102.203.05.396.133.571.247.12.077.219.18.291.303a.591.591 0 0 1 .083.258.566.566 0 0 1-.04.213.97.97 0 0 1-.225.32.615.615 0 0 1-.112.085 1.425 1.425 0 0 0-.218-.204 1.93 1.93 0 0 0-.324-.204 2.223 2.223 0 0 0-.422-.157 1.985 1.985 0 0 0-.513-.063 1.909 1.909 0 0 0-.748.147 1.62 1.62 0 0 0-.595.432c-.174.2-.31.432-.398.683-.101.292-.15.6-.146.91-.005.31.046.618.152.91a1.757 1.757 0 0 0 1.05 1.06c.25.091.513.137.779.135.29.006.577-.04.85-.136.184-.063.36-.148.523-.254l.416.77.013.002z"/>
        </g>
    </g>
</svg>
