<svg width="118" height="118" viewBox="0 0 118 118" xmlns="http://www.w3.org/2000/svg">
    <path d="M100.043 17.957v82.086H17.957V17.957h82.086zM63.021 81.693c-.747 0-1.446.198-2.091.595-.646.396-1.155.954-1.53 1.67l1.636.818c.218-.451.505-.798.864-1.04.357-.241.732-.363 1.121-.363.685 0 1.177.21 1.472.633.296.42.445.925.445 1.517v1.915c0 .625-.158 1.145-.47 1.566-.31.42-.792.63-1.447.63-.311 0-.644-.084-.993-.256a2.614 2.614 0 0 1-.9-.726l-1.33 1.075a4.24 4.24 0 0 0 1.505 1.18c.586.274 1.157.41 1.718.41.655 0 1.218-.106 1.693-.315.475-.21.864-.49 1.169-.84.304-.352.53-.76.679-1.228.145-.467.22-.958.22-1.472v-1.94c0-1.15-.327-2.079-.98-2.779-.654-.7-1.583-1.05-2.78-1.05zm-8.479 0c-.747 0-1.445.198-2.09.595-.648.396-1.156.954-1.532 1.67l1.636.818c.219-.451.506-.798.864-1.04.359-.241.733-.363 1.122-.363.685 0 1.175.21 1.471.633.297.42.446.925.446 1.517v1.915c0 .625-.158 1.145-.469 1.566-.311.42-.794.63-1.448.63-.311 0-.641-.084-.993-.256a2.604 2.604 0 0 1-.9-.726l-1.33 1.075c.42.516.922.909 1.505 1.18.585.274 1.158.41 1.718.41.654 0 1.218-.106 1.694-.315.475-.21.863-.49 1.167-.84.305-.352.53-.76.68-1.228a4.89 4.89 0 0 0 .22-1.472v-1.94c0-1.15-.327-2.079-.98-2.779-.656-.7-1.583-1.05-2.78-1.05zm30.627-.004h-2.074v9.623c.78 0 1.498-.078 2.155-.237a8.23 8.23 0 0 0 1.788-.642 7.588 7.588 0 0 0 1.442-.939 7.43 7.43 0 0 0 1.099-1.123v2.94h2.062V81.69H89.58v2.92c0 .6-.134 1.162-.404 1.677-.27.519-.618.98-1.042 1.384-.425.406-.9.744-1.425 1.015a5.584 5.584 0 0 1-1.54.542V81.69zm-39.307.011H44.41c-.875 0-1.54.262-1.993.785-.453.525-.68 1.153-.68 1.887.032.374.123.714.27 1.02.149.304.38.567.693.783-.33.268-.572.572-.728.916a2.632 2.632 0 0 0-.234 1.101c0 .22.047.5.14.844.094.345.29.688.588 1.031.294.344.717.637 1.263.88.547.241 1.266.362 2.157.362.765 0 1.414-.094 1.947-.282.53-.187.96-.456 1.289-.808.327-.352.564-.78.713-1.29a6.037 6.037 0 0 0 .223-1.698v-5.53h-1.92v5.53c0 .703-.155 1.277-.46 1.723-.304.446-.9.669-1.792.669-.687 0-1.238-.13-1.652-.386-.413-.26-.62-.576-.62-.95 0-.392.175-.708.527-.95.35-.242.925-.379 1.721-.41V85.38c-.796-.016-1.37-.106-1.721-.27-.352-.165-.527-.402-.527-.715 0-.343.07-.599.21-.762.141-.165.398-.246.774-.246h1.264V81.7zm27.507.047-1.146 1.147-1.172-1.147a5.691 5.691 0 0 0-1.007.317c-.312.133-.577.3-.796.503a3.137 3.137 0 0 0-.831 1.16 3.88 3.88 0 0 0-.292 1.532v3.372c0 .81.219 1.459.655 1.941.438.484 1.1.727 1.99.727h1.03v-1.686h-.866c-.36 0-.601-.081-.726-.245-.124-.164-.186-.418-.186-.76v-3.162c0-.39.058-.733.175-1.03a1.64 1.64 0 0 1 .502-.702l.844.842c.172.172.402.258.691.258.289 0 .519-.086.69-.258l.866-.842c.453.374.68.952.68 1.732V91.3h1.85V89.27c.267.259.574.51.919.755.348.244.743.46 1.185.65.44.192.94.346 1.497.459.555.115 1.18.163 1.874.149V81.76H79.76v7.534a4.754 4.754 0 0 1-1.144-.366 4.685 4.685 0 0 1-1.114-.71 3.962 3.962 0 0 1-.847-1.006 2.444 2.444 0 0 1-.336-1.268v-.685c0-1.14-.368-2.037-1.102-2.692-.467-.407-1.084-.68-1.849-.82zm-39.09-.036h-2.064v9.586h2.064v-2.906c0-.6.135-1.157.404-1.674a5.28 5.28 0 0 1 1.038-1.377c.424-.404.894-.74 1.414-1.01.52-.27 1.032-.45 1.539-.542v7.51h2.055V81.71c-.777 0-1.494.08-2.146.237a8.247 8.247 0 0 0-1.782.64 7.396 7.396 0 0 0-2.522 2.042v-2.92zm-9.135-5.492v1.768a4.552 4.552 0 0 0 .907.312 5.91 5.91 0 0 0 1.44.165l.262-.004a5.969 5.969 0 0 0 .932-.094 2.86 2.86 0 0 0 .347-.082l.012.03a6.914 6.914 0 0 0-.67.703 3.894 3.894 0 0 0-.45.685c-.118.232-.21.476-.278.732a5.467 5.467 0 0 0-.145.837c-.032.302-.05.638-.056 1.008-.005.369-.01.783-.01 1.242v5.222c0 .738.169 1.35.506 1.832.338.482.94.722 1.808.722h1.132v-1.734h-.94c-.272 0-.436-.077-.494-.23a1.69 1.69 0 0 1-.082-.566v-5.18l-.003-.121c0-.682.018-1.267.057-1.754.037-.487.097-.905.176-1.255a4.25 4.25 0 0 1 .29-.88c.112-.236.244-.444.395-.62.15-.177.317-.338.5-.485.182-.146.383-.302.602-.468v-1.59h-.736a5.404 5.404 0 0 1-.98.368 7.086 7.086 0 0 1-.86.177 5.394 5.394 0 0 1-.65.055 10.851 10.851 0 0 1-.68-.006 4.428 4.428 0 0 1-.564-.067 5.675 5.675 0 0 1-.715-.18l-.108-.04c-.512-.208-.945-.502-.945-.502zm67.164 2.123h-2.612a2 2 0 0 0-.734.122c-.207.08-.38.188-.52.322a1.247 1.247 0 0 0-.304.476c-.064.185-.098.38-.098.587v.655h2.129v-.229c0-.222.059-.383.178-.483.12-.1.301-.15.547-.15h1.414v-1.3zm-34.425.22h-6.985v1.471h6.985v-1.47zm5.453-.863h-1.752c0 .498.058.898.176 1.203.116.301.26.54.43.712.173.172.367.283.585.339.219.054.436.08.654.08h4.696v-1.47H63.64c-.203 0-.304-.29-.304-.864zm-12.375-5.255c-.46 0-.805.112-1.034.335-.23.224-.346.496-.346.813 0 .324.112.563.336.714.223.153.533.275.928.365l.311.068c.15.033.282.087.4.16a.373.373 0 0 1 .175.336c0 .15-.057.276-.171.38-.114.103-.316.154-.607.154-.247 0-.45-.041-.608-.125a2.13 2.13 0 0 1-.492-.38l-.486.525c.233.233.468.404.705.511.237.107.536.16.9.16.259 0 .486-.035.68-.101.195-.069.355-.16.482-.274a1.15 1.15 0 0 0 .287-.388c.064-.146.096-.3.096-.462 0-.181-.03-.337-.09-.467a.91.91 0 0 0-.259-.325 1.566 1.566 0 0 0-.384-.22 3.554 3.554 0 0 0-.462-.145l-.36-.088a2.528 2.528 0 0 1-.447-.16c-.111-.056-.166-.135-.166-.238 0-.13.047-.24.14-.33.095-.093.253-.137.472-.137.176 0 .335.03.477.092.144.062.288.15.439.268l.525-.496a2.696 2.696 0 0 0-.681-.409 2.04 2.04 0 0 0-.76-.136zm-2.045-1.838h-.788v4.279c0 .29-.067.514-.2.666-.133.152-.34.228-.618.228-.278 0-.484-.076-.617-.228-.133-.152-.199-.376-.199-.666v-2.393h-.788v2.47c0 .487.148.859.442 1.113.296.258.683.386 1.162.386.473 0 .86-.128 1.158-.386.298-.254.448-.626.448-1.113v-4.356zm11.216 1.866h-.858v3.979c.323 0 .62-.033.891-.097.271-.066.518-.155.74-.266a3.127 3.127 0 0 0 1.05-.853l.001 1.16h.853v-3.923h-.853v1.208c0 .248-.055.48-.167.693a2.168 2.168 0 0 1-.432.573 2.504 2.504 0 0 1-1.225.645v-3.119zm9.335-.014h-.603c-.363 0-.639.11-.827.326a1.154 1.154 0 0 0-.282.783c.013.156.05.297.112.422a.85.85 0 0 0 .287.327 1.066 1.066 0 0 0-.303.378 1.116 1.116 0 0 0-.096.458c0 .091.02.207.059.35.037.143.119.285.242.428.123.143.299.264.526.364.227.1.525.15.894.15.318 0 .587-.037.808-.115.22-.078.399-.19.535-.335.136-.147.234-.325.295-.535.063-.21.094-.446.094-.706v-2.295h-.798v2.295c0 .291-.063.531-.19.715-.126.186-.374.278-.744.278-.285 0-.513-.054-.686-.161-.17-.107-.257-.238-.257-.393 0-.163.073-.294.219-.394.146-.102.384-.158.715-.171v-.642c-.331-.006-.57-.044-.715-.111-.146-.07-.219-.167-.219-.297 0-.143.029-.248.088-.317.058-.067.166-.102.32-.102h.526v-.7zm-12.5.01c-.423 0-.787.094-1.095.282-.308.188-.575.47-.801.846l.377.525v2.316h.78v-2.49l-.244-.38c.142-.142.3-.246.473-.312.17-.064.337-.097.5-.097.318 0 .562.07.734.21.171.14.257.378.257.715v2.354h.778v-2.413c0-.498-.146-.883-.437-1.152-.291-.27-.733-.404-1.322-.404zm8.485-.024c-.422 0-.786.094-1.094.283-.309.187-.575.47-.802.845l.37.526v1.234c0 .04-.002.083-.006.132a.24.24 0 0 1-.049.13.317.317 0 0 1-.145.099.816.816 0 0 1-.306.029v.69h.136c.097 0 .213-.01.344-.03.134-.019.26-.062.38-.13a.881.881 0 0 0 .307-.298c.083-.129.126-.308.126-.534v-1.527l-.253-.369c.148-.15.308-.251.477-.307.168-.055.336-.082.505-.082.318 0 .561.069.73.209.168.14.253.377.253.715v2.353h.788V74c-.007-.498-.155-.882-.443-1.152-.289-.27-.728-.404-1.318-.404zm-11.914 2.422h-.73c.007.195.034.357.083.487.048.128.11.234.18.314a.6.6 0 0 0 .242.172.792.792 0 0 0 .264.048h1.1v-.681h-1.023c-.032 0-.058-.03-.077-.092a1.057 1.057 0 0 1-.04-.248zm0-1.897h-.73c.007.195.034.357.083.486.048.13.11.235.18.316a.59.59 0 0 0 .242.171.792.792 0 0 0 .264.048h1.1v-.68h-1.023c-.032 0-.058-.031-.077-.093a1.062 1.062 0 0 1-.04-.248zm4.002-1.987h-.73c0 .208.025.375.074.502a.84.84 0 0 0 .18.297.53.53 0 0 0 .243.14c.09.022.182.034.272.034h1.955v-.613h-1.868c-.084 0-.126-.119-.126-.36zm8.456 0h-.728c0 .208.023.375.072.502.049.126.108.225.18.297.072.07.153.117.243.14.09.022.182.034.273.034h1.955v-.613h-1.868c-.085 0-.127-.119-.127-.36zM59.47 29.6c-10.27 0-18.578 8.313-18.578 18.596 0 10.268 8.308 18.582 18.578 18.582 10.278 0 18.6-8.314 18.6-18.582 0-10.283-8.322-18.596-18.6-18.596zm13.8 29.106a17.31 17.31 0 0 1-13.787 6.816c-5.616 0-10.613-2.672-13.784-6.816zm-13.781-23.23a32.77 32.77 0 0 0 7.76 13.138l.431.44c2.365 2.366 5 4.294 7.806 5.79l-.206.474a17.53 17.53 0 0 1-1.238 2.25H44.916a17.363 17.363 0 0 1-1.441-2.717l.02-.01-.024.01a32.996 32.996 0 0 0 7.823-5.797 32.843 32.843 0 0 0 8.187-13.56z" fill="#F1EFE3" fill-rule="evenodd"/>
</svg>
