<svg width="118" height="118" viewBox="0 0 118 118" xmlns="http://www.w3.org/2000/svg">
    <g fill="none" fill-rule="evenodd">
        <path fill="#F1EFE3" d="M17.957 93.608h82.086V11.543H17.957z"/>
        <g fill="#F1EFE3">
            <path d="m59.09 53.147 1.51-1.119-.58-1.324c-.628.725-1.1 1.44-.93 2.443m7.363-2.627-.659 1.71 2.785 1.408c.274-.388.558-.79.88-1.243l-3.006-1.875m-4.134 6.517c.524-.282 1.265-.3 1.795-.051.261.122 1.271-.057 1.463-.265.035-.038.043-.1.066-.156-1.318-1.028-2.694-1.537-4.276-.652-.144.08-.308.224-.349.37-.066.234-.045.476.272.597.177.067.344.225.457.384.213.302.442.29.729.113l-.157-.34m-.793-5.221c1.104-.147 2.175-.246 3.26.117l.146-.843c.185-1.07.187-1.08-.874-1.298-.961-.197-1.909-.168-2.822.25-.218.099-.27.213-.18.44.168.43.308.87.47 1.334m10.583 3.09-1.73-1.839-.989 1.248c.61.54 1.21 1.07 1.83 1.616-.604.417-1.235.52-1.89.322-.86-.259-1.583-.752-2.174-1.43-.085-.097-.193-.205-.215-.323-.081-.441-.417-.545-.773-.662-1.834-.602-3.677-.803-5.569-.257-.274.079-.608-.048-.936-.081.2.31.379.647.622.93.082.095.331.085.497.064.56-.07 1.117-.224 1.678-.243 1.038-.035 2.002.261 2.827.906.842.658 1.67 1.335 2.484 2.027.542.46.816.51 1.47.202a.629.629 0 0 1 .46-.01c.063.026.047.25.059.385.004.046-.036.097-.025.139.037.151.047.385.14.427.124.057.35.01.473-.075.288-.2.547-.425.962-.167-.603.856-1.177 1.7-2.349 1.778-.244.017-.408.478-.278.777.476 1.1.948 2.2 1.436 3.295.371.832.764 1.654 1.16 2.508a42.141 42.141 0 0 0-7.89 2.189c-.14-.474-.218-.947-.414-1.366-.378-.807-.253-1.47.357-2.11.338-.356.583-.8.92-1.273-.425.136-.77.249-1.116.356-.227.07-.454.14-.684.196-1.397.334-1.528-.333-1.633-1.327-.026-.246.085-.463.411-.463.438 0 .465-.028.706-.484-.343-.109-.67-.189-1.028-.04-.386.158-.572.011-.601-.48h1.875c-.033-.431-1.19-.741-1.852-.495.032-.68.736-.768 1.005-1.25-.506-.19-.967-.575-1.603-.316-.03-.997.45-1.932.215-2.98l-1.205.69c0-.521-.06-.977.021-1.406.052-.273.257-.592.49-.74.466-.297.487-.665.354-1.126-.97.334-1.532 1.017-1.718 2.092-.324-.308-.38-.66-.352-1.02.037-.492.257-.903.603-1.259.089-.091.16-.269.137-.389-.438-2.417 1.337-4.357 3.432-4.834 1.414-.322 2.762-.096 4.072.451 2.28.954 4.164 2.45 5.785 4.294.318.36.582.755.58 1.266-.001.065-.017.13-.037.287M49.197 64.09c-.223-.722-.408-1.345-.61-1.963-.797-2.446-1.61-4.888-2.394-7.339-.114-.355-.133-.746-.155-1.123-.132-2.324-.254-4.647-.378-6.971-.067-1.245-.117-2.491-.208-3.734-.033-.455.02-.818.48-1.015.056-.024.117-.04.175-.059l-.075-.09c-.236-.066-.475-.126-.708-.202-.307-.1-.437-.303-.446-.64-.028-1.067-.089-2.133-.135-3.175-.438-.13-.861-.21-1.244-.381-.627-.281-.795-.893-.498-1.412.708.126 1.389.245 2.069.371.089.017.174.07.255.116.37.21.748.41 1.102.646.164.11.34.27.41.447 2.01 5.175 4.014 10.352 5.993 15.539.196.512.279 1.086.313 1.637.074 1.204.52 2.28 1.035 3.34l.19.387c-.23.037-.438.056-.638.107-1.395.349-2.455 1.153-3.2 2.376a11.855 11.855 0 0 0-1.333 3.138M49.367 78.194c.638-1.99.89-4.019.849-6.08-.026-1.328-.152-2.654-.212-3.981-.067-1.471.094-2.92.597-4.31.612-1.691 1.654-3.04 3.308-3.83.978-.467 2.018-.488 3.063-.237a.503.503 0 0 1 .298.208c.55 1.01 1.085 2.03 1.623 3.046.02.038.025.085.053.187-.526 0-1.03-.064-1.513.012-1.424.224-2.328 1.154-2.984 2.36-.53.976-.73 2.05-.855 3.139-.222 1.941-.52 3.874-1.462 5.612-.516.953-1.213 1.81-1.844 2.698-.288.406-.613.785-.92 1.176M51.71 24.318c.228.59.043 1.37-.5 1.75-.443.308-.94.546-1.433.774-.43.199-.883.35-1.33.504-.761.264-1.417.663-1.872 1.414-.408-.54-.829-.39-1.27-.073-.28.2-.583.186-.859-.03-.159-.123-.305-.263-.458-.396-.514-.446-.973-.494-1.56-.148-.173.102-.33.232-.494.35-.374.27-.562.26-.911-.051-1.243-1.105-.99-3.212.486-4.048.578-.327 1.205-.433 1.856-.387 1.11.08 2.218.295 3.331.032.252-.06.503-.124.777-.19.201.365.091.72-.051 1.075 1.167.544 2.842.748 4.288-.576"/>
            <path d="M53.733 73.597c.198-.725.409-1.388.557-2.065.303-1.389.555-2.789.863-4.176.21-.944.644-1.78 1.377-2.44.644-.58 1.416-.748 2.248-.673.132.012.295.183.364.32.576 1.143 1.136 2.295 1.696 3.446.359.736.447.809 1.172.948-1.392.656-2.838 1.303-4.25 2.015-1.42.715-2.785 1.532-4.027 2.625M37.786 35.04c-.318-.514-.4-1.046-.19-1.605.084-.221.173-.444.29-.649.322-.56.465-1.136.166-1.823.23.05.398.081.564.123.461.118.787-.022 1.007-.437.357-.67.523-.767 1.248-.56.633.182 1.152.064 1.64-.378.517-.469.825-.494 1.345-.04.545.477 1.087.573 1.724.248.135-.069.291-.106.442-.132.493-.083.718.063.804.556.122.702.22 1.01 1.232.764l.426-.103c.026.029.042.04.04.046-.265.778.052 1.458.352 2.145.259.593.206 1.2.058 1.882-.056-.114-.092-.16-.1-.211-.13-.732-.546-1.28-1.112-1.726-.853-.674-1.85-1.007-2.907-1.165-1.568-.234-3.125-.21-4.642.318-.624.217-1.193.532-1.653 1.017a2.579 2.579 0 0 0-.734 1.73M65.438 47.62l-3.182-.288 1.316-9.824.08-.01 1.786 10.121M43.084 39.764c1.373.926 1.96 2.228 1.705 3.897-.04.267-.045.479.187.699.28.265.201.6-.023.924-.186-.082-.368-.158-.547-.24-.895-.412-1.774-.326-2.643.083-.298.14-.457.07-.45-.26.004-.212.112-.422.18-.631.057-.18.178-.357.172-.532-.026-.841-.096-1.68-.123-2.521a.587.587 0 0 1 .21-.424c.294-.217.632-.372.934-.578.146-.1.25-.26.398-.417M70.93 50.815l-2.484-1.8 6.162-6.351.106.08-3.784 8.07M72.48 58.967c.036.762.052 1.435.105 2.105.02.251.092.513.203.739.628 1.275 1.275 2.541 1.913 3.812.073.146.131.3.223.513-.607 0-1.17.01-1.73-.01-.1-.003-.236-.11-.286-.206-.723-1.398-1.44-2.8-2.145-4.208-.227-.452-.161-.902.14-1.307.414-.557.93-1.001 1.578-1.438M73.807 55.055l-1.18-2.648 7.301-3.236.042.068-6.163 5.816M53.279 42.773l6.248 5.666c-.765.533-1.4 1.156-1.813 2.073l-4.498-7.673.063-.066M40.62 39.118c-.247.02-.497.025-.74.069-.193.034-.305-.016-.33-.206-.037-.289-.06-.58-.09-.895l.471-.051c.002-.026.01-.051.004-.072-.194-.61-.194-.61.37-.912.724-.388 1.3-.574 1.767-.572.223.69.15.87-.521 1.359.246 0 .492-.007.738.002.207.007.447-.036.478.285.036.374-.132.705-.416.774-.114.027-.233.03-.362.046.022.158.085.315.054.451-.038.167-.116.398-.243.458-.611.284-1.065.698-1.282 1.387-.375-.318-.563-.698-.687-1.106-.026-.085.056-.22.118-.31.178-.267.37-.523.558-.784l.113.077"/>
            <path d="M40.661 35.885c-.143-.69.047-1.165.578-1.523 1.053-.71 3.116-.668 4.136.083.508.374.699.818.631 1.552-.779-.684-1.663-1.02-2.67-1.02-.982-.001-1.919.127-2.675.908M56.846 54.053c-.12.364-.259.66-.309.97-.05.308-.01.63-.01 1.012-.65-.448-1.253-.861-1.853-1.28a.225.225 0 0 1-.09-.14c-.053-.554-.098-1.108-.15-1.722l2.412 1.16"/>
        </g>
        <path d="M18.712 106.322v-.59l.611-.04.194-.194v-5.22l-.13-.149-.675-.04v-.59h3.473v.59l-.681.04-.174.15v5.343h1.729l.12-.174.143-1.271h1.009v2.145h-5.619zm6.168 0v-.59l.71-.04.125-.194v-5.25l-.125-.119-.71-.074v-.557h3.284v.293l1.406 4.262 1.396-4.271v-.284h3.293v.557l-.76.074-.124.14v5.229l.124.194.76.04v.59h-3.293v-.59l.63-.04.09-.194v-5.25h-.02l-1.992 6.074h-1.028l-1.997-6.074h-.02v5.25l.124.194.67.04v.59H24.88zm13.784-3.436h3.512v.58l-.64.05-.165.14v2.319a6.692 6.692 0 0 1-1.24.355 7.182 7.182 0 0 1-1.303.117c-1.14 0-2.059-.327-2.757-.979-.7-.652-1.049-1.506-1.049-2.563 0-1.062.356-1.913 1.068-2.552.712-.64 1.658-.959 2.837-.959.381 0 .773.03 1.177.092.405.061.827.153 1.267.276v1.852h-.929l-.233-1.232-.184-.163a5.288 5.288 0 0 0-.348-.07 1.577 1.577 0 0 0-.238-.02c-.782 0-1.393.249-1.833.745-.44.497-.661 1.184-.661 2.061 0 .838.23 1.508.688 2.012.459.503 1.07.755 1.836.755h.164v-2.047l-.174-.139-.795-.05v-.58zm7.606 3.436v-.59l.736-.04.159-.194v-5.22l-.16-.149-.735-.04v-.59h3.632v.59l-.75.04-.164.15v5.219l.164.194.75.04v.59H46.27zm4.41 0v-.54l.526-.05.115-.13v-3.347h-.716v-.502l1.823-.586h.592v.66c.477-.248.859-.42 1.147-.516a2.46 2.46 0 0 1 .765-.144c.507 0 .88.148 1.118.445.238.296.358.764.358 1.403v2.587l.109.13.551.05v.54h-2.851v-.54l.397-.05.124-.13v-2.17c0-.44-.08-.745-.24-.914-.161-.169-.44-.253-.838-.253-.178 0-.312.002-.4.007a3.082 3.082 0 0 0-.24.023v3.307l.129.13.427.05v.54H50.68zm11.434-4.902v1.555h-.73l-.135-.805-.134-.139a2.118 2.118 0 0 0-.387-.139 1.492 1.492 0 0 0-.353-.044c-.239 0-.427.048-.566.146a.454.454 0 0 0-.21.39c0 .288.306.545.915.77.199.073.353.132.462.179.533.218.897.433 1.09.645.194.212.291.482.291.81 0 .47-.223.866-.668 1.187-.446.32-1.006.482-1.682.482-.321 0-.663-.025-1.026-.075a10.7 10.7 0 0 1-1.14-.223v-1.699h.73l.125.929.114.129c.179.086.357.15.534.191.177.041.355.062.534.062.232 0 .417-.053.554-.159a.511.511 0 0 0 .206-.427c0-.258-.238-.488-.715-.69l-.239-.105c-.738-.324-1.22-.6-1.445-.826a1.124 1.124 0 0 1-.338-.822c0-.474.208-.858.623-1.153.416-.294.965-.442 1.647-.442.259 0 .548.023.867.067.32.045.678.114 1.076.206zm2.725-.253h.611v2.95c0 .484.073.806.219.966.145.16.422.241.83.241a5.594 5.594 0 0 0 .575-.03l.005-3.04h-.64v-.5l1.768-.587h.571v4.425l.1.14.6.04v.55H67.08v-.56c-.4.238-.749.406-1.045.503a2.85 2.85 0 0 1-.897.147c-.258 0-.49-.055-.693-.164a1.262 1.262 0 0 1-.49-.467 1.436 1.436 0 0 1-.17-.444 3.88 3.88 0 0 1-.053-.743v-2.339h-.63v-.502l1.738-.586zm5.299 5.155v-.54l.56-.05.115-.13v-3.347h-.765v-.502l1.873-.586h.591l-.094 1.157c.215-.235.437-.446.665-.633.229-.187.463-.348.701-.484.033 0 .083-.003.149-.01a1.322 1.322 0 0 1 .514.037c.108.032.205.08.29.147l-.282 1.962h-.726c-.09-.236-.213-.408-.372-.517-.16-.11-.363-.164-.611-.164-.063 0-.111 0-.144.003a1.217 1.217 0 0 0-.09.007v2.93l.13.13.764.05v.54h-3.268zm8.567-1.067v-1.525c-.546.07-.936.182-1.17.338a.757.757 0 0 0-.35.67c0 .212.071.383.213.514.143.13.33.196.562.196.106 0 .22-.016.343-.05.122-.032.256-.08.402-.143zm0 .496c-.364.235-.7.412-1.006.53a2.38 2.38 0 0 1-.847.176c-.437 0-.794-.131-1.07-.393-.277-.261-.415-.6-.415-1.013 0-.311.087-.591.26-.84.174-.248.405-.425.693-.53.232-.087.553-.183.962-.289.409-.106.89-.217 1.443-.333v-.298c0-.327-.096-.576-.288-.745-.192-.168-.474-.253-.845-.253h-.159v1.058h-1.212c-.225 0-.383-.031-.474-.094-.091-.063-.137-.17-.137-.318 0-.335.252-.627.755-.877.504-.25 1.126-.375 1.868-.375.45 0 .835.058 1.153.174.318.116.564.288.74.517.106.135.182.293.228.474.047.18.07.473.07.876V105.623l.11.118.56.065v.516h-2.25l-.139-.57zm3.023.571v-.54l.527-.05.114-.13v-3.347h-.715v-.502l1.823-.586h.591v.66c.477-.248.86-.42 1.148-.516a2.46 2.46 0 0 1 .765-.144c.507 0 .88.148 1.118.445.238.296.357.764.357 1.403v2.587l.11.13.551.05v.54h-2.852v-.54l.398-.05.124-.13v-2.17c0-.44-.08-.745-.24-.914-.161-.169-.44-.253-.838-.253-.179 0-.312.002-.4.007a3.082 3.082 0 0 0-.24.023v3.307l.128.13.428.05v.54h-2.897zm12.045-.486a6.66 6.66 0 0 1-1.177.432c-.358.09-.712.134-1.063.134-.831 0-1.493-.233-1.985-.698-.492-.465-.738-1.087-.738-1.865 0-.798.274-1.443.82-1.934.547-.492 1.264-.738 2.151-.738.58 0 1.05.12 1.411.36s.542.55.542.931a.77.77 0 0 1-.261.601c-.174.156-.4.234-.678.234-.143 0-.28-.02-.41-.06a1.748 1.748 0 0 1-.4-.184v-1.345a1.276 1.276 0 0 0-.971.573c-.23.34-.346.796-.346 1.368 0 .54.141.977.423 1.312.281.334.647.501 1.098.501.185 0 .398-.039.638-.116.24-.078.556-.217.946-.415v.909zm4.171-2.667c0-.47-.063-.816-.189-1.038a.624.624 0 0 0-.58-.333c-.296 0-.517.112-.666.335-.15.224-.224.556-.224.996v.04h1.66zm1.784 1.718v.939c-.388.195-.785.34-1.193.434a5.71 5.71 0 0 1-1.291.142c-.848 0-1.521-.236-2.02-.708-.498-.472-.747-1.107-.747-1.904 0-.798.256-1.44.77-1.925.513-.485 1.192-.728 2.037-.728.784 0 1.393.222 1.825.666.432.444.649 1.07.649 1.877v.13H96.25c.01.503.148.9.415 1.191.267.292.622.437 1.066.437.344 0 .68-.045 1.008-.136.328-.091.658-.23.989-.415z" fill="#F1EFE3" fill-rule="nonzero"/>
        <g fill="#1D1D1D">
            <path d="m56.846 54.053-2.412-1.16c.052.614.097 1.168.15 1.721.004.05.047.111.09.141.6.419 1.203.832 1.853 1.28 0-.381-.04-.704.01-1.013.05-.31.189-.605.309-.969zM40.66 35.884c.756-.78 1.693-.908 2.676-.908 1.006.001 1.89.337 2.67 1.021.067-.734-.124-1.178-.632-1.552-1.02-.751-3.083-.792-4.136-.082-.531.357-.72.832-.578 1.521zm-.04 3.234-.114-.077c-.187.26-.38.517-.558.783-.062.092-.144.226-.118.31.124.41.312.79.687 1.107.217-.69.671-1.103 1.282-1.387.127-.06.205-.292.243-.458.03-.136-.032-.293-.054-.45.13-.017.248-.02.362-.047.284-.069.452-.4.416-.774-.03-.321-.271-.278-.478-.285-.246-.009-.492-.002-.738-.002.672-.49.744-.669.521-1.359-.468-.002-1.043.183-1.767.572-.564.302-.564.302-.37.912.006.02-.002.046-.004.072l-.471.052c.03.315.053.605.09.894.025.19.137.24.33.206.243-.044.493-.048.74-.07zm12.658 3.655a19.7 19.7 0 0 0-.063.066l4.498 7.673c.412-.917 1.048-1.54 1.813-2.073l-6.248-5.666zm20.528 12.282 6.163-5.816a12.953 12.953 0 0 0-.042-.068l-7.302 3.236 1.181 2.648zm-1.326 3.912c-.647.437-1.164.881-1.578 1.438-.301.405-.367.854-.14 1.307.704 1.408 1.422 2.81 2.146 4.208.049.095.185.203.284.206.562.02 1.124.01 1.731.01-.092-.214-.15-.367-.223-.513-.638-1.27-1.285-2.537-1.913-3.812a2.096 2.096 0 0 1-.203-.738c-.053-.67-.07-1.344-.104-2.106zm-1.551-8.152 3.784-8.07-.106-.081-6.162 6.35 2.484 1.8zm-27.846-11.05c-.147.157-.252.316-.398.416-.302.206-.64.361-.933.578a.587.587 0 0 0-.21.424c.026.84.096 1.68.122 2.52.006.176-.115.354-.173.532-.067.21-.175.42-.18.632-.006.33.153.4.451.26.869-.41 1.748-.495 2.643-.083.179.082.36.158.547.24.224-.323.303-.659.023-.924-.232-.22-.227-.432-.187-.699.255-1.669-.332-2.97-1.705-3.897zm22.354 7.854L63.652 37.5l-.08.009-1.316 9.824 3.182.287zM37.786 35.04a2.58 2.58 0 0 1 .734-1.73c.46-.485 1.029-.8 1.653-1.017 1.517-.529 3.074-.552 4.642-.318 1.058.158 2.054.491 2.907 1.165.566.447.983.994 1.111 1.726.009.05.045.097.1.211.15-.683.201-1.29-.057-1.882-.3-.687-.617-1.367-.352-2.145.002-.005-.014-.017-.04-.045l-.426.102c-1.012.247-1.11-.061-1.232-.764-.086-.493-.311-.64-.804-.556a1.54 1.54 0 0 0-.442.132c-.637.325-1.18.229-1.724-.248-.52-.454-.828-.429-1.345.04-.488.442-1.007.56-1.64.379-.725-.208-.891-.112-1.248.56-.22.414-.546.554-1.007.436-.166-.042-.335-.073-.564-.123.3.688.156 1.263-.166 1.823a4.472 4.472 0 0 0-.29.65c-.21.558-.128 1.09.19 1.604zm15.947 38.557c1.242-1.093 2.606-1.91 4.027-2.625 1.412-.712 2.858-1.359 4.25-2.015-.726-.14-.813-.212-1.172-.948-.56-1.151-1.12-2.303-1.696-3.446-.069-.137-.232-.308-.364-.32-.832-.075-1.604.094-2.248.673-.733.66-1.167 1.496-1.377 2.44-.308 1.387-.56 2.787-.863 4.176-.148.677-.36 1.34-.557 2.065zm-2.023-49.28c-1.446 1.325-3.121 1.12-4.288.577.143-.355.252-.71.05-1.076-.273.067-.524.131-.776.19-1.113.264-2.221.049-3.331-.03-.651-.047-1.278.06-1.856.386-1.475.836-1.729 2.943-.486 4.048.35.31.537.32.911.051.164-.118.32-.248.494-.35.587-.346 1.046-.298 1.56.148.153.133.3.273.458.397.276.215.579.229.858.029.442-.316.863-.468 1.27.073.456-.751 1.112-1.15 1.872-1.413.448-.156.901-.306 1.33-.505.493-.228.991-.466 1.434-.775.543-.378.728-1.159.5-1.75zm-2.343 53.877c.308-.391.633-.77.92-1.176.632-.889 1.329-1.745 1.845-2.698.942-1.738 1.24-3.67 1.462-5.612.124-1.088.326-2.163.855-3.139.656-1.206 1.56-2.136 2.984-2.36.482-.076.987-.012 1.513-.012-.028-.102-.033-.149-.053-.187-.538-1.017-1.073-2.035-1.623-3.046a.502.502 0 0 0-.298-.208c-1.045-.251-2.085-.23-3.064.237-1.653.79-2.695 2.139-3.307 3.83-.503 1.39-.664 2.839-.597 4.31.06 1.327.186 2.653.212 3.98.04 2.062-.21 4.092-.849 6.08zm-.17-14.105c.32-1.18.755-2.19 1.333-3.137.745-1.223 1.805-2.027 3.2-2.377.2-.05.408-.069.638-.106-.076-.155-.134-.27-.19-.387-.515-1.06-.96-2.136-1.035-3.34-.034-.551-.117-1.125-.313-1.637a2778.103 2778.103 0 0 0-5.994-15.539c-.068-.177-.245-.337-.41-.447-.353-.236-.731-.435-1.101-.647-.081-.046-.166-.098-.255-.115-.68-.127-1.361-.245-2.07-.37-.296.518-.128 1.13.499 1.41.382.172.806.252 1.244.382.046 1.042.107 2.108.135 3.174.009.338.14.542.446.64.233.076.472.137.708.204l.075.09c-.058.019-.119.034-.175.058-.46.197-.513.56-.48 1.015.091 1.243.141 2.489.208 3.734.124 2.323.245 4.647.378 6.97.022.378.041.77.155 1.124.785 2.45 1.597 4.893 2.395 7.34.202.617.386 1.24.609 1.961zm22.912-9.183c.02-.156.036-.222.036-.287.003-.51-.261-.905-.579-1.266-1.621-1.844-3.505-3.34-5.785-4.294-1.31-.547-2.658-.773-4.072-.451-2.095.477-3.87 2.417-3.431 4.834.021.12-.05.298-.138.39-.346.355-.566.766-.603 1.257-.028.361.028.713.352 1.02.186-1.074.747-1.757 1.718-2.091.133.46.111.829-.354 1.126a1.236 1.236 0 0 0-.49.74c-.08.429-.021.885-.021 1.407l1.205-.692c.235 1.05-.246 1.984-.215 2.981.636-.259 1.096.126 1.603.316-.269.482-.972.57-1.005 1.25.662-.246 1.819.064 1.852.494h-1.875c.03.492.215.64.6.48.36-.148.686-.068 1.03.04-.242.457-.27.485-.707.485-.326 0-.437.217-.411.463.105.994.236 1.661 1.633 1.327.23-.055.457-.126.684-.196.346-.107.69-.22 1.115-.356-.336.473-.581.917-.92 1.273-.609.64-.735 1.303-.356 2.11.196.419.274.892.414 1.366a42.141 42.141 0 0 1 7.89-2.189c-.396-.854-.789-1.676-1.16-2.508-.488-1.094-.96-2.196-1.436-3.295-.13-.299.033-.76.278-.777 1.173-.079 1.746-.922 2.349-1.778-.415-.258-.674-.033-.962.167-.124.085-.349.132-.473.075-.093-.042-.104-.276-.14-.427-.01-.042.029-.093.025-.139-.012-.135.004-.359-.059-.385a.628.628 0 0 0-.461.01c-.653.307-.927.259-1.469-.202a77.593 77.593 0 0 0-2.484-2.027c-.825-.645-1.789-.94-2.827-.906-.561.02-1.117.173-1.678.243-.166.021-.415.031-.497-.064-.243-.283-.422-.62-.622-.93.328.033.662.16.936.08 1.892-.545 3.735-.344 5.568.258.357.117.693.22.774.662.022.118.13.226.215.323.591.678 1.313 1.171 2.173 1.43.656.198 1.287.095 1.89-.322l-1.829-1.617.989-1.247 1.73 1.839zM52.516 83.197c-.423-.176-.848-.346-1.267-.531-.114-.05-.208-.147-.365-.262 3.362-5.841 8.188-10.026 14.251-12.917-1.286-.205-6.52 2.402-9.099 4.358-2.761 2.096-4.599 4.925-6.476 7.82-.33-.291-.664-.539-.943-.838-2.154-2.307-3.594-5.028-4.577-8.005-.937-2.837-1.408-5.757-1.528-8.738-.178-4.427.26-8.773 1.712-12.985.027-.078.058-.161.055-.241-.031-.9-.068-1.8-.105-2.724H43.17a2.54 2.54 0 0 1-2.312-1.554.953.953 0 0 0-.374-.418c-.578-.338-.835-1.163-.507-1.854.138-.29.181-.55.078-.848-.046-.133-.06-.278-.077-.42-.057-.455-.098-.852-.613-1.132-.483-.263-.793-.791-.765-1.405.01-.215.109-.426.167-.64-.803-.221-.957-.568-.627-1.484-1.076-.571-1.742-1.47-2.04-2.645-.281-1.112-.124-2.192.265-3.25.147-.4.3-.8.477-1.187.204-.449.293-.9.13-1.39.405-.287.785-.22 1.19.064l.999-1.118a4.887 4.887 0 0 1-.689-2.034c-.22-2.32 1.319-3.672 2.947-4.147 1.088-.317 2.178-.23 3.282-.062a8.85 8.85 0 0 0 1.906.063c.518-.034.966-.31 1.306-.718.526.161.92.759.961 1.447.03.497.03.503.532.474.984-.058 1.667-.615 2.23-1.364.063-.085.114-.178.2-.31.762.413 1.246 1.019 1.383 1.866.276 1.711-.517 3.11-2.121 3.768-.625.256-1.268.469-1.89.733-.395.169-.768.39-.867.872-.074.362.058.49.428.456.256-.024.53-.035.772.032.46.126.578.478.333.881-.19.313-.174.629-.05.957.232.61.512 1.207.672 1.835.271 1.062.11 2.108-.38 3.08-.271.537-.64 1.024-.953 1.54-.059.098-.118.247-.086.34.418 1.196.853 2.387 1.298 3.62a15.007 15.007 0 0 1 5.768-2.633c2.073-.462 4.162-.52 6.306-.284l.344-1.784c.116-.606.214-1.216.36-1.815.039-.161.224-.287.343-.428.12.13.305.244.347.396a183.01 183.01 0 0 1 1.008 3.819c.059.23.162.347.402.419 2.49.74 4.624 2.07 6.422 3.941.049.05.105.092.183.16l2.068-1.69c.469-.384.936-.77 1.405-1.153.064-.053.128-.12.203-.14.119-.033.266-.073.363-.029.062.029.072.206.072.317 0 .09-.046.182-.078.271-.605 1.648-1.208 3.297-1.82 4.941-.078.207-.059.361.047.56.441.826.854 1.668 1.276 2.504.057.114.108.232.174.375.898-.331 1.775-.654 2.65-.978 1.057-.392 2.114-.785 3.17-1.18.23-.085.454-.145.657.06v.142c-.115.148-.22.304-.346.444a1751.855 1751.855 0 0 1-4.665 5.194c-.156.173-.214.32-.159.566.872 3.9 1.053 7.846.721 11.821-.048.575-.13 1.147-.196 1.723-.116.01-.186.02-.256.02a24.854 24.854 0 0 0-6.12.836c-4.975 1.308-9.322 3.735-12.983 7.352-1.825 1.804-3.314 3.879-4.692 6.036-.26.406-.507.821-.76 1.232h-.072z"/>
            <path d="m66.453 50.52-.659 1.71 2.785 1.408.879-1.243-3.005-1.875m-5.086 5.393c-.144.08-.308.224-.349.37-.066.234-.045.476.272.597.177.067.344.225.457.384.213.302.442.29.729.113l-.157-.34c.525-.282 1.265-.3 1.795-.05.261.121 1.272-.058 1.463-.266.035-.038.043-.1.066-.156-1.318-1.028-2.694-1.537-4.276-.652m.159-4.097c1.104-.147 2.175-.246 3.26.117l.146-.843c.185-1.07.187-1.08-.874-1.298-.961-.197-1.909-.168-2.822.25-.218.1-.27.213-.18.44.168.43.308.87.47 1.334m-2.436 1.331 1.51-1.119-.58-1.324c-.629.725-1.1 1.44-.93 2.443"/>
        </g>
    </g>
</svg>
