<svg width="118" height="118" viewBox="0 0 118 118" xmlns="http://www.w3.org/2000/svg">
    <path d="M64.163 57.325h4.761L98.28 17.957h1.715v82.086H18.008V91.68h3.508c0-.288 1.847-3.023 2.261-3.507l.044-.049c.137-.136 1.64-2.146 3.24-4.297l.385-.518c1.8-2.423 3.592-4.85 3.592-4.85h12.127l1.404 4.858s-1.576 2.167-2.908 3.946l-.292.388a50.166 50.166 0 0 1-1.26 1.625l-2.156 2.254h5.864s.25-.45.701-1.352l.054-.108c.473-.909 1.951-2.847 1.951-2.847s.702 2.254.702 2.704c.15.451.3 1.653.3 1.653h5.813s.251-.45.702-1.352c.401-.852 2.155-2.805 2.155-2.805s.702 2.104.702 2.554c.15.451.3 1.653.3 1.653h7.417l-1.303-2.654c-.066-.177-.553-1.733-1.077-3.414l-.248-.801c-.58-1.868-1.13-3.648-1.13-3.648l1.854-2.804h12.278s.714 2.303 1.466 4.757l.26.852c.665 2.176 1.298 4.276 1.431 4.807.451 1.152.451 2.805.451 2.805h7.667c-1.152-.751-4.059-11.469-5.512-15.625 0 0-.819-2.738-1.697-5.721l-.196-.666c-.981-3.341-1.967-6.758-1.916-6.834-.079-.317-.158-.966-.215-1.51l-.045-.45c-.025-.265-.04-.444-.04-.444h-5.914a34.776 34.776 0 0 1-1.303 2.404c-.204.356-2.247 3.186-4.438 6.177l-.88 1.2c-1.833 2.495-3.61 4.889-4.354 5.844l-.45.45s0-.15-.151-.45c-.25-1.002-.852-2.955-.852-2.955s6.364-8.464 7.066-9.365c1.904-2.504 3.057-3.405 3.057-3.405h-6.064s0 1.201-.601 1.953c-.301.45-5.363 7.01-5.363 7.01s-1.603-5.959-1.904-6.86c-.3-1.052-.3-2.103-.3-2.103h-7.367c.3.3 1.152 2.554 1.152 2.554l3.608 11.468-2.154 2.805c0-.15-3.91-13.071-4.06-13.672-.3-.551-.45-3.105-.45-3.105h-6.365s-1.153 2.654-2.005 4.006c-.29.58-4.028 5.723-8.07 11.163l-.45.606-.67.902-.448.6-.447.598c-4.243 5.669-8.273 10.887-8.407 11.021l-.05.05v-71.22h75.796l-29.64 39.369zM53.288 78.659l.005.014.034.102c.219.644 1.28 3.771 1.415 4.04l-2.306 3.106-1.303-4.307zM71.63 66.24v.095c.004.336.036 1.375.3 2.259.251 1.052 1.855 6.11 1.855 6.11h-8.219s1.52-1.899 3.052-3.953l.34-.458c1.187-1.608 2.314-3.232 2.672-4.053zm-31.472 0c.1.15.1 1.352.301 2.354.25 1.052 1.854 6.11 1.854 6.11h-8.218s5.212-6.51 6.063-8.464z" fill="#F1EFE3" fill-rule="nonzero"/>
</svg>
