<svg width="118" height="118" viewBox="0 0 118 118" xmlns="http://www.w3.org/2000/svg">
    <g fill="#F1EFE3" fill-rule="evenodd">
        <path d="M59.051 16.674c-13.077 0-23.6 10.64-23.6 23.71 0 13.071 10.523 23.71 23.6 23.71 13.077 0 23.6-10.639 23.6-23.71 0-13.07-10.523-23.71-23.6-23.71zm0 45.597c-12.26 0-22.17-9.83-22.17-21.988 0-12.16 9.91-21.988 22.17-21.988 12.26 0 22.17 9.829 22.17 21.988 0 12.159-9.91 21.988-22.17 21.988z"/>
        <path d="M59.051 19.308c11.647 0 20.944 9.424 20.944 21.076 0 11.653-9.4 21.076-20.944 21.076-11.545 0-20.944-9.423-20.944-21.076 0-11.652 9.4-21.076 20.944-21.076zm.102 1.824c-10.523 0-19.105 8.613-19.105 19.252 0 10.64 8.582 19.252 19.105 19.252s19.105-8.613 19.105-19.252-8.582-19.252-19.105-19.252z"/>
        <path d="M54.045 40.08c.102-.405-.51-.81-.92-.506-.51.911-1.123 1.52-1.532 1.925.409.101.715.202 1.022.608.408-.608 1.123-.912 1.736-1.419-.51 0-.92-.405-.817-.81h.102c.102-.102.102.202.409.202zM51.082 25.59l-.102.406.306-.304.205.405v-.405l.408.101-.204-.304.307-.202h-.41l.205-.406-.408.203-.205-.304v.405l-.408-.101.306.304-.409.101zM55.782 30.758l.102.203v-.203l.204.102-.102-.203.204-.101h-.306l.102-.203-.204.101-.102-.202v.202h-.205l.102.102-.204.1h.307l-.103.204zM56.395 29.441l.102-.304-.204.203-.205-.304v.405l-.306-.101.204.202-.306.203h.306l-.102.304.306-.203.103.304.102-.405.306.101-.204-.202.306-.102zM52.002 27.212h.306l-.102.304.306-.203.103.304v-.304l.408.101-.306-.304.306-.1h-.306l.102-.305-.204.203-.205-.304v.304l-.306-.101.204.303zM48.732 25.895l-.204.608.51-.406.307.507.102-.608.613.203-.408-.507.613-.304h-.715l.204-.608-.51.405-.307-.608v.71l-.716-.203.511.405-.613.304zM56.395 31.366l.102-.202-.204.1v-.202l-.103.203h-.102l.102.101-.204.101h.204l-.102.102.205-.102.102.203v-.203l.204.102-.204-.203h.204zM50.367 27.313l-.409.203h.409l-.102.405.306-.304.205.405v-.405l.408.101-.204-.304.306-.202h-.408l.204-.405-.409.303-.204-.405v.405l-.409-.1zM59.97 31.884c.103 0 .307.103.41.103.306.102.51-.103.714-.103-.204 0-.51.103-.715-.102l-.204-.205c-.307-1.025-1.124-.82-1.022-.307.102.512.409.614.818.614zm.103-.102h-.205c.103-.205.103-.512-.102-.615.205-.102.307.41.307.615z"/>
        <path d="M59.255 30.86c.103-.102.307-.102.41-.102.306 0 .51.406.714.81a.563.563 0 0 0 .511.305c.102 0 .204 0 .307-.102-.103 0-.41 0-.511-.1-.205-.204-.307-.913-.818-1.115-.306-.102-.715.202-.613.304zM58.438 34c.204 0 .204.102.409 0 .306-.202.408-.506.92-.506-.512-.507-.41-1.317-1.125-1.723 0-.709-.715-.506-1.123-.81-.103 0-.205.304-.103.405.205.203.41 0 .613.203 0 .81 1.329 1.216.716 1.824-.103.101-.205 0-.307 0-.306.405-1.328.101-1.43.709.408-.101 1.021.304 1.43-.101zM60.38 35.42l-.103-.203c-.204.1-.51.202-.817.202-.409 0-.715-.101-1.022-.202l-.102.202c.306.203.715.203 1.124.203.408-.101.715-.101.92-.203z"/>
        <path d="m60.481 35.825-.102-.203c-.204.101-.51.101-.817.101-.409 0-.715-.101-1.022-.202l-.102.202c.307.203.715.203 1.124.203.409 0 .715 0 .92-.101zM59.664 36.23c-.409 0-.715-.102-.92-.203l-.102.101c.307.203.716.304 1.022.304.409 0 .817-.1 1.022-.202l-.102-.203c-.205.101-.511.203-.92.203zM60.38 49.503c.306 0 .612-.202.612-.607 0-.304-.204-.608-.613-.608-.306 0-.613.202-.613.608 0 .405.307.607.613.607zM62.218 50.72c-.204 0-.408.1-.51.405.306-.102.51-.102.817-.203-.102-.203-.205-.203-.307-.203zM63.853 56.09s-.102-.304-.307-.304v.608l.307-.304z"/>
        <path d="M63.955 55.684c.204 0 .307-.202.307-.202-.205-.507-.716-.406-.716-.406v.406c.103 0 .41.101.511.506 0 0-.306.406-.613.406 0 .304-.102.405-.102.405.409.101.715-.203.715-.203 0-.101-.204-.202-.204-.202.204 0 .613-.406.613-.406-.307-.304-.51-.304-.51-.304z"/>
        <path d="M72.844 31.467c0-.1.306 0 .408.102-.102-.608-.817-.71-1.226-.608l-.102-.203c.307-.202.715-.304 1.022-.202-.409-.912-.818-.406-.92-.608 0-.102.102-.203.307-.203-.409-.304-1.124-.101-1.43.304h-.205c0-.203.51-.71.817-.71-1.021-.506-1.226.102-1.328.102-.102 0 0-.304.205-.405-.613.101-.92.709-1.022 1.114-.102 0-.102.102-.204.102 0-.304.102-.912.306-1.115-1.124.203-.817.912-1.022.912-.102 0-.102-.405-.102-.507-.408.203-.408.912-.102 1.52l-.102.203c-.307-.203-.51-.71-.409-1.115-.613.608-.204 1.014-.306 1.115-.102.101-.205-.101-.205-.304-.204.608.205 1.114.716 1.317v.203c-.307-.102-.716-.304-.92-.608 0 .81.409.912.409 1.013 0 .101-.205.101-.307 0 .102.304.409.507.715.608V33.798c0 .203 0 .405.103.507.102.202.204.304.204.405h.102-.102c0 .203-.102.507-.307.71-.204.405-.613.708-1.021 1.012-.511.507-.92.71-1.124.912 0 0 0 .102.102.102 0 0 0-.102-.102-.102-.204-.202-.307-.405-.51-.608-.307-.304-.614-.506-.92-.709h-.103c-.408-.202-.817-.304-1.226-.405v-.101h.103c.102 0 .306-.102.306-.304h.102c.715 0 1.124-.406 1.533-.811h-.307l.102-.101.103-.102.204-.101c.102-.101.204-.101.306-.203.307-.101.511-.304.511-.709-.204.203-.613.101-.92.101.103-.202.205-.506.205-.709v-.101.101h-.102l-.102.101-.102-.1.102-.102c.204-.203.306-.406.306-.71v-.202l-.204.101h-.102s0 .101-.102.101l-.103-.1.103-.102h.102c.306-.405.408-.912.51-1.419v-.101c-.51-.304-.919-.405-1.43-.405v.101h-.102v-.101h.102v-.102l.102-.101h-1.123v.101h-.103v-.101h.103v-.203l.102-.101h-.512c-.306 0-.51 0-.714.101v.102l-.102.101v-.101h.102v-.203l.102-.101h-.409c-.51 0-.92.202-1.328.405v-.304c-.409.203-.92.608-1.022.912a1.226 1.226 0 0 0-.51.507l.102.1h-.205l.103-.1c-.205-.203-.511-.406-.818-.406-.204 0-.408.102-.613.203-.204.101-.306.304-.306.608v.203l.102-.102v.102h-.102v-.102c-.205.102-.205.304-.205.507 0 .202.103.304.103.506v.102c-.205-.102-.511-.102-.818-.102.102.102.205.203.409.304.204.203.306.406.51.507.307.101.716 0 1.022 0-.306-.203-.613-.608-1.021-.71l.102-.1c.102-.102.102-.102.204-.102v-.101.101l.205.101h.204-.102c0 .304.204.406.306.507l.307.304h.102v.101h-.102v-.1c-.307.1-.613.202-1.022.303v.101-.101c-.102 0-.204-.101-.306-.203l-.103-.1-.102.1c-.102.203-.204.406-.204.608 0 .102 0 .304.102.406h.102-.102v-.102c-.102.102-.102.304-.102.406 0 .1 0 .202.102.202h-.409c-.204-.101-.51-.101-.817-.101-.715 0-1.635.203-2.656.608v.101h-.102v-.101c.102 0 .102-.101.204-.101.102-.203.102-.406.102-.608 0-.71-.306-1.419-.409-1.926v-.304c0-.608.205-1.215.613-1.722h-.102v-.101l.102.1v.102c.103 0 .205 0 .307.102.102 0 .204 0 .204.1v-.1h.102l-.102.1v.71c0 .101-.102.203-.204.304-.102.101-.204.203-.204.405v.203c.102.304.408.405.715.405h.204c.307-.1.409-.304.307-.506 0-.203-.103-.406-.103-.608 0-.203.103-.71.205-.912l.102-.101.204-.102.102-.202-.102-.102h.102l.103-.101.204-.101.102-.304.102-.203.102-.101s.103-.102.103-.304c0-.203-.103-.304-.205-.406l-.102-.101h-.102v-.101h.102v.101c.307-.101.51-.203.715-.405.102-.203.307-.406.409-.608 0 0-.102 0-.102-.102l.102-.1.102.1s0 .102-.102.102c.204.202.51.304.715.304.409 0 .715-.304 1.124-.608.306-.304.613-.608 1.022-.71.306-.1.51 0 .92-.202l.101-.101h-.306a.784.784 0 0 0-.511-.203h-.409c-.102 0-.102-.101-.204-.101l.102-.102c.102.102.307.102.51.203.614.101 1.227.101 1.84.101s1.226-.101 1.737-.405l.306-.203h-.306c-.307 0-.92-.101-1.43-.202h-.92.102s.204 0 .204-.102c.205 0 .41.102.613.102.511 0 1.124-.102 1.635-.203.92-.203 1.737-.507 1.941-1.216l.102-.304-.204.101c-.51.304-1.226.406-2.043.406h-.102c-.818 0-1.533-.304-2.248-.406 0 0 .102-.1.204-.1.409-.204.715-.508.818-1.014v-.102h-.103c-.306 0-.51.304-.817.406-.817.304-2.043.101-3.065.405l.307-.304c.102-.203.204-.304.204-.507a1.09 1.09 0 0 0-.307-.709l-.306-.202.102.304v.1c0 .102 0 .204-.204.305-.205.101-.511.304-1.124.506-.613.304-1.328.507-2.043.811-1.022.608-1.533 1.419-1.533 2.128 0 .405.204.81.51 1.013v-.101h.103v.101h-.102v.102c0 .506.306.911.51 1.215h.103l.102.102-.102.304-.102-.102c-.307.102-.715.102-1.022.102-.409.101-.817.405-1.124.709-.204.101-.306.304-.408.405-.205.203-.307.406-.41.608-.306.507-.51 1.115-.714 1.723-.102.304-.307.71-.307 1.114-.102.507-.204 1.014-.204 1.622 0 .202 0 .506.102.709 0 .203.102.507.102.71l.205.607h.102l.102.101h-.102v-.1c-1.124.911-1.737 2.43-1.737 3.85 0 .709.204 1.418.51 1.925.307.506.818.81 1.329.81v-.101l.102.101v.102h-.102v.202c0 .203.102.304.204.406.102.1.307.1.409.1.306 0 .51-.1.817-.202.205-.101.307-.304.409-.506-.102 0-.102-.102-.204-.102l.102-.101h.102v.101s.102 0 .204.102c.205.1.307.1.511.1.204 0 .51-.1.613-.303v-.101h-.102c-.204 0-.613-.203-.715-.507-.409-.405-.92-.608-2.146-.912v.101h-.102v-.1h.102c0-.102-.102-.204-.102-.305 0-.507.409-.912.817-1.216.41-.304.716-.71.818-1.317h-.102v-.101h.102v.101c.204.101.51.101.715.101.51 0 1.022-.101 1.43-.202v-.203h.102v.101s-.102 0-.204.102v.506c0 .304 0 .507.204.81a1.4 1.4 0 0 0 .307.406c.102.101.204.203.204.304V41.397c0 .203 0 .406.205.71h.102l-.205-.507V41.5s-.102.101-.204.304c-.102.202-.409.405-.613.608-.204-.102-.715.405-.715.709-.817.608-1.737.81-2.554.81-.92 0-1.737-.1-2.452-.1-.818 0-1.533.202-1.941.607-.511.406-.716.912-.716 1.52 0 .81.41 1.621 1.43 2.33.818.609 1.738.811 2.453 1.014.715.202 1.328.506 1.532 1.216 0 .101.102.304.102.405v.405h.103c.204 0 .408-.202.51-.405.205-.304.307-.71.41-1.115.203-.304.408-.607.816-.607.716 0 1.43.303 1.635.607.102.102.102.203.102.203v.101c-.102.102-.613.203-1.124.203-.51.101-1.021.101-1.328.304l.102.101-.102-.1a1.09 1.09 0 0 0-.306.708c0 .203.102.507.204.71.204.202.409.304.715.304h.409v-.102c.102-.304.306-.506.715-.506 0-.102.102-.102.204-.203l.103.101v.102h-.205c-.306.304-.306.405-.306.506 0 .203.102.304.306.406a.784.784 0 0 0 .511.202.784.784 0 0 0 .51-.202v-.102l-.101-.202h-.102l-.103-.102h.103v.102l.204-.102c.204 0 .51.203.817.203h.102c.307 0 .511-.304.716-.608 0-.203-.103-.405-.103-.507v.102c0 .506-.204.81-.613.81h-.102c-.204 0-.51-.202-.817-.202-.102 0-.307 0-.409.101l.102.203v.1l.103.102h-.103c-.102.102-.204.102-.306.102-.102 0-.307-.102-.409-.102-.102-.101-.204-.202-.204-.304 0-.101 0-.202.204-.202l.205-.102-.103-.202h-.306c-.409 0-.817.304-.92.608h.103v.1h-.103v-.1h-.204c-.409 0-.715-.406-.715-.811 0-.203.102-.507.306-.608.205-.203.818-.203 1.329-.304.306 0 .613-.101.817-.101.102 0 .204-.102.306-.102l.103-.1c.306-.102 1.328-.204 1.736.202 0 .202 0 .405.103.608 0 .202.102.405.102.506v.102c0 .101 0 .202.102.304 0 0 .102.405.306 1.013.205.71.613 1.418 1.022 2.23 1.022 1.519 2.656 2.735 5.313 2.735 1.226 0 1.839-.608 2.247-1.216.41-.608.716-1.115 1.635-1.115.613 0 1.124-.101 1.737-.608.306-.304.51-1.013 1.226-1.114h.306l-.204-.203c-.204-.202-.409-.304-.613-.304-.102 0-.204.102-.306.102-.103.1-.205.1-.41.202h-.919c-.102 0-.102 0-.204.102h-.102.306c.205-.102.41-.102.511-.102.511-.202.715-.506.818-.81.204-.304.306-.507.92-.608h.203l-.204-.102a1.108 1.108 0 0 0-.715-.304c-.409 0-.817.304-1.226.406-.102 0-.204.1-.307.1h-.613c-.204 0-.306.102-.51.204-.103 0-.103.1-.205.1-.102.102-.102.204-.204.204l-.102-.102c.102 0 .102-.101.204-.101h.102c.205-.304.307-.608.511-.81h-.102v-.102l.102.101h.307c.204 0 .408 0 .715-.101.204-.101.408-.304.408-.608v-.304l-.204-.203-.102.203c-.102.101-.102.101-.204.101-.103 0-.205-.1-.307-.202a.784.784 0 0 0-.51-.203v.101h-.103v-.1h.204c.103-.204.103-.508.307-.812.204-.304.409-.506.613-.506h.204c.102 0 .205.101.205.304.102.202 0 .608.102.912 0 .202.102.304.204.405a.784.784 0 0 0 .51.203h.103c.102 0 .102-.102.102-.203l-.204-.203h.102l.102.102v.202c.205.203.511.304.818.304.613 0 1.226-.405 1.226-1.013 0-.203-.103-.304-.205-.507-.408-.1-.817-.1-1.021-.405-.103-.202-.205-.608-.307-1.114-.102-.406-.204-.912-.613-1.115-.204-.101-.306-.101-.51-.101-.512 0-.92.304-1.125.608h.103v.101l-.103-.101c-.715.101-1.736.608-2.656 1.114-.92.608-1.737 1.115-1.941 1.621h.102-.102c0 .102-.102.203-.102.304 0 .102 0 .102-.102.203v-.101c0-.102 0-.102.102-.203.102-.405.204-.912.204-1.317 0-1.419-.409-2.837-.92-3.952.103-.506-.102-.81-.408-.912-.102-.202-.204-.405-.204-.608-.205-.405-.307-.709-.307-.81 0-.608.307-1.014.715-1.52.307-.406.613-.81.715-1.216-.102-.101-.102-.203-.204-.304h.204v.304c.511.81 1.533 1.216 2.35 1.418v-.1h.102v.1h-.102c-.102.203-.102.406-.102.608 0 .912.613 1.926.613 2.635v.101l-.306.304c-.205-.203-.307-.405-.613-.608.102-.101.102-.202.102-.405s-.102-.507-.102-.81c0-.203 0-.305.102-.507l.102-.203h-.204c-.103 0-.307 0-.41.203-.203.202-.203.405-.203.506v.202c0 .102-.103.102-.103.102v-.101l.103-.101v-.406c0-.202 0-.405.204-.608l.102-.101-.102-.101c-.102-.102-.307-.406-.613-.71-.204-.304-.409-.709-.51-.81l-.103-.203v.203c-.102.608-.204 1.52-.409 1.824v.101h.102c.307.101.511.507.613.81l.103.102v.203l-.103-.102v-.202l-.102-.102c-.102-.101-.306-.202-.613-.202h-.408l.204.1c.204.204.306.406.51.71.103.203.205.507.512.608-.205.405-.205.81-.41.912l-.101.101h.306c.205 0 .307-.1.409-.202 0-.102 0-.203.102-.304h.102v.101c-.102 0-.204.101-.306.203v.202c0 .406.204.71.51 1.014l.205.101h.102V47.477c.102.304.307.405.613.405.102 0 .307 0 .409-.101.102-.101.204-.203.204-.405 0-.203-.102-.304-.204-.304 0 0-.102 0-.102-.102h-.103v-.101.101h.103c.51 0 1.532-.506 2.247-2.533.205-.506.307-1.216.307-1.824 0-1.114-.307-2.128-.715-2.837l-.103.102-.102-.102.102-.101s0 .101.103.101c.102-.101.51-.405.613-.71.51-.708.817-1.519 1.123-2.33.205-.506.511-1.013.818-1.52.102-.1.102-.202.204-.303.204-.203.409-.406.51-.71v-.101h.103c0 .405-.204.71-.409.81.92-.1.818-.607 1.022-.607.102 0 .102.304 0 .304.409-.102.409-.912.307-1.216 0 0 .102-.102.102-.203.102.304.306.608.204 1.013.715-.608.307-1.216.409-1.317.102-.101.204.203.204.405.307-.405 0-1.114-.613-1.418v-.203c.409 0 .817.304.92.71-.103-.811-.613-.71-.613-.913zM70.8 33.393l-.204-.102-.102-.101-.205-.101h-.102l-.102-.203-.204-.101-.205-.102h-.102l-.102-.1-.306-.102c-.103 0-.205.101-.307.101-.102-.304 0-.71.204-1.013.307-.405.716-.608 1.124-.608.307 0 .511.101.818.203.613.405.817 1.317.408 1.925-.102.101-.204.304-.408.405l-.205-.101zm-11.238 6.18c-.102 0-.204.102-.307.203v.102h-.102c-.102 0-.204.1-.204.202-.102 0-.204 0-.307-.101l-.204-.405-.409.304-.204-.102v-.101c0-.101-.102-.203-.204-.203l.102-.202c0-.102-.102-.203-.204-.203v-.101c0-.102-.103-.203-.205-.203v-.203c0-.101-.102-.202-.204-.202v-.102c0-.101-.102-.202-.204-.202v-.203l.204-.101c.204.101.306.405.613.405-.204.71.204.912.409 1.419.408-.203 1.226-.102 1.226-.811.306 0 .613.101.817 0 .102.101.204.203.306.203v.1h-.102c-.102 0-.204.102-.306.204h-.102c-.103 0-.205.1-.307.202h-.102c-.102 0-.204.102-.307.203 0 .101.103.203.205.304.102 0 .306-.101.306-.203h.102c.103 0 .205-.101.307-.202h.102c.102 0 .204-.102.307-.203h.102c.102 0 .204-.101.306-.203.102 0 .205.102.307.102l-.307.304c-.204.202-.408.304-.613.405-.204.101-.408.203-.715.203-.102 0-.306 0-.409.1v-.1h.103c.102 0 .204-.102.306-.203.102-.203 0-.304-.102-.405zM58.438 41.5c-.102 0-.102.101-.204.202 0 .102.102.203.204.304l-.102.203v.101c-.102 0-.204 0-.307.102-.102 0-.306.101-.408.202h-.205v-.202c-.102-.102-.204-.304-.306-.406l-.307-.304v-.1h.103c.102 0 .204-.102.204-.204v-.1c.102 0 .204-.102.306-.204v-.1h.103c.102 0 .204-.102.204-.204v-.1c.102 0 .204-.102.204-.204l.205.406.408-.203v.101c0 .102 0 .203.102.203-.102 0-.204.101-.204.203-.204.101-.102.202 0 .304zm-1.532-3.547v.102c0 .101.102.202.204.202v.102c0 .101.102.202.204.202l-.102.203c0 .101.102.203.204.203v.1c0 .102.103.204.205.204-.613-.507-.92-1.216-1.022-1.926.102 0 .204.102.409.102v.101c-.205.304-.205.405-.102.405zm3.167.102c-.205 0-.409 0-.613-.102-2.044-.304-3.27-2.229-3.27-3.242h.103v-.101.1l.204.102c0 .102.102.203.102.406 0 .1.102.202.102.304 0 .1 0 .1.102.202 0 .102.103.203.103.304l.102.101c.102.203.306.507.51.608v.102l.307.304c.102 0 .102.101.204.101.103.101.205.101.205.203.306.202.715.304 1.226.405.102 0 .204 0 .306.101h.409a4.13 4.13 0 0 0 1.532-.304c.716-.202 1.226-.608 1.533-1.317h.306c-.408 1.115-1.736 1.723-3.473 1.723zm-3.27-3.141.103.1c.102 0 .204.102.306.102.102 0 .204 0 .307-.101v-.101h.102v.1h-.102c.102.305.204.71.408.913.102.101.205.101.307.202v.102l-.102.101c-.103-.101-.205-.203-.205-.304-.408-.202-.715-.506-1.021-.81l-.103-.102c.103-.101 0-.101 0-.202 0 .1 0 0 0 0zm5.313.81h-.306.204c.102-.101.204-.101.409-.101 0 0 .102.101.204.101h-.51zm.715-4.154a.557.557 0 0 1 .307.506c.102.304 0 .507-.102.811-.205 0-.41.203-.511.405-.102-.202 0-.405.102-.506.409-.406.409-.81.204-1.216zm1.226 2.026c-.102-.101-.102-.304 0-.506h-.204c.204-.406.204-.81.102-1.216-.102-.507-.409-.912-.92-1.115-.408-.202-.817-.304-1.225-.202-.205-.102-.307-.203-.511-.304l.306-.102a2.075 2.075 0 0 1 1.737.203c.51.304.92.81 1.022 1.418.306.608.102 1.318-.307 1.824zm-1.021-2.735c.408.202.715.607.817 1.013.102.405.102.81-.102 1.216-.102 0-.205.101-.307.202 0-.202 0-.304.102-.506h-.102c.102-.203.102-.507.102-.81-.102-.406-.408-.609-.715-.811-.102-.203-.306-.406-.51-.608.102.1.408.202.715.304zm-1.533-1.824.102-.102.102.102v.101l-.204-.101.102.101.102.203c.103-.102.41-.102.716-.102h.306v-.101h.102v.101h-.102V29.644h.511c.204 0 .409 0 .613.101 0 0 0-.101.102-.101l.102.101v.101h-.102v.304h.102c.613 0 .818.102 1.328.406v-.102h.103c0 .406-.205 1.013-.511 1.317h-.102v.102c.102.101.204.101.306.101 0-.101 0-.101.102-.203h.102l.103.102-.307.101c-.102.203-.102.405-.306.608v.101l.204.102v-.102h.102v.102c0 .202-.102.304-.204.506h-.307l-.102.102c.307-.507.307-1.115.204-1.723-.204-.608-.613-1.114-1.123-1.52-.613-.304-1.226-.405-1.84-.304-.102 0-.306.102-.408.203-.307-.203-.613-.405-.817-.608.102-.203.51-.405.92-.405zM56.803 34c-.102-.304-.102-.406-.102-.507 0-.101 0-.203.102-.304l-.102-.101.102-.102.103.102s0 .101-.103.101c.103.101.205.203.307.203.409-.102.817-.203 1.124-.304h.102v-.102c-.102-.304-.307-.405-.409-.506-.102-.102-.306-.203-.306-.406 0-.1-.102-.202-.205-.202h-.204c-.102 0-.204 0-.306.101v.101h-.103l-.102-.1.102-.102c0-.102-.102-.203-.102-.304 0-.203.102-.304.205-.405h.102v-.304c0-.203.102-.304.204-.406.102-.101.307-.101.51-.101.307 0 .512.101.716.405l.102.102.102-.102c.205-.304.41-.506.716-.71.92 0 2.962 1.014 2.962 2.23 0 .101-.204.405-.204.507-.102-.102-.306-.304-.306-.507-.307.203-.511.81-.307 1.115.204.202.409.304.715.304-.613 0-.817.709-1.226 1.013.102 0 .307 0 .511-.101-.204.304-.613.405-.715.81 0-.202.715-.101.817-.101.102 0 .102-.203.205-.203l.204.203h.204v.203c-.204 0-.408.1-.613.304l-.102.1h.102c.409.102.818.102 1.226.102-.102.101-.204.203-.204.304l-.102.101c-.613.608-1.737 1.014-2.86.811-.205 0-.41-.101-.614-.101h-.102c-.102 0-.102 0-.102-.102-1.226-.405-1.635-1.215-1.84-1.62.307.303.716.607 1.125.81l.102-.203c-.205-.304-.511-.81-.613-1.216v-.101l-.102.101c-.103.102-.205.102-.307.102-.306 0-.51-.203-.51-.507 0-.101 0-.203.101-.405zm-4.801-4.763c.306-.304.613-.506 1.021-.608.307-.101.818.102 1.226-.202l.102-.102-.102-.1c-.306-.305-.613-.71-.613-1.217v-.304h-.102c-.306-.202-.409-.506-.409-.912 0-.608.41-1.418 1.43-2.026a15.79 15.79 0 0 1 1.942-.81c.613-.204.92-.406 1.124-.609l.306-.304c0-.101-.102-.101-.204-.202l.102-.102h.102v.304c.102.203.102.304.102.405 0 .304-.204.507-.408.811-.102.101-.102.101-.205.101-.102.102-.306.102-.408.203-.818.304-1.43.405-2.248 1.013-.51.406-.715 1.014-.51 1.52.306.71.714.507.612.203-.306-.912-.204-1.419 1.941-2.23.103 0 .205-.1.307-.1.306-.102.51-.203.817-.305.92-.202 2.248 0 3.167-.405.205-.101.307-.203.511-.304 0-.101.102-.101.102-.203h.103v.102c-.103 0-.103 0-.205.101 0 .101-.102.101-.102.203-.102.101-.102.202-.204.202l-.205.203c-.102.101-.306.203-.408.304a2.738 2.738 0 0 1-1.226.304c-.715 0-1.124.203-1.328.71.51-.507.715-.305 1.839-.406.306 0 .613-.203.817-.304.715 0 1.532.405 2.554.405h.102c.613 0 1.226-.101 1.737-.304.102-.101.102-.202.204-.304h.103v.102c-.103.101-.205.101-.307.101-.306.405-.92.608-1.635.81-.92.203-1.94.203-2.452.203-.204 0-.51 0-.715-.101-.408-.101-.817-.101-1.124 0-1.226.405-1.328.71-2.043.405.51.406.715.406 1.533.102 1.021-.406 1.532-.406 2.452-.203.51.101 1.328.304 1.94.304.103 0 .205-.101.307-.203l.102.102v.1h-.306c-.409.204-.817.204-1.328.204-.715 0-1.533-.102-2.35-.203h-.307c-.306 0-.51.101-.92.304-.612.405-1.532.71-2.758.507 0 0 1.226.709 2.452.1 1.022-.506 1.124-.708 1.84-.506.102 0 .306.102.408.102.102 0 .102 0 .204-.102v.102l-.51.202s-.103-.101-.205-.101c-.204.101-.408 0-.715.101-.409.102-.817.507-1.124.81-.306.305-.613.507-.92.507-.204 0-.408-.1-.612-.304l-.102-.1-.103.1c-.102.203-.306.507-.408.71-.205.202-.307.304-.613.405h-.102v.101c0 .203.102.304.204.304.102.102.102.102.102.203v.101l-.204.203-.102.304v.203h-.103l-.204.1-.102.204.102.1h-.102l-.102.102-.205.102c-.102.202-.204.81-.204 1.013 0 .304.102.506.102.608 0 .101 0 .202-.204.202h-.204c-.205 0-.511-.1-.511-.304v-.1c0-.102 0-.204.102-.305s.204-.203.204-.304v-.81c-.102-.102-.204-.102-.306-.203-.102 0-.205 0-.307-.101h-.102v.202c-.306-.101-1.022-.405-1.124-1.013 0-.101.102-.101.205-.203zm.306 13.071c.204.304.409.507.715.507 0 0 .102 0 .102-.101h.103v.101h-.205c-.102 0-.102.101-.306.101-.102 0-.307 0-.409-.101-.102 0-.204-.101-.204-.101l-.205-.203v.304c0 .203-.102.304-.306.507-.204.1-.51.202-.715.202-.102 0-.205 0-.307-.101-.102 0-.102-.101-.102-.203v-.202l.102-.102h-.204c-.613 0-1.022-.304-1.328-.709-.102-.101-.102-.203-.205-.405.307-.507.92-.71 1.329-.406v.102h.102c1.226.304 1.737.506 2.043.81zm-.409-4.154h-.102v.101c0 .507-.408.81-.715 1.216-.306.304-.613.608-.817 1.013-.511-.506-1.022-.405-1.533.102v-.304c0-1.317.511-2.837 1.737-3.648l.102-.101-.306-.71h-.102.102c-.102-.202-.102-.405-.102-.709v-.71c0-.506.102-1.012.204-1.519.102-.304.204-.71.306-1.013.205-.507.307-.912.511-1.419.307.507.818.81 1.328.71-.102.303-.204.607-.204 1.013v.304c.102.608.409 1.317.409 1.925 0 .203 0 .507-.205.71l-.102.1c-.51.203-1.226.71-1.226.811 0 .71.409 1.723.92 2.128h-.205zm3.065 3.85c.103-.202.205-.304.205-.405-.205-.304-.205-.507-.205-.71v-.81c-.102-.202-.204-.304-.306-.405l-.307-.304c-.102-.203-.102-.507-.102-.71v-.81l-.204.101c-.102.102-.307.102-.51.102-.614-.507-1.125-2.027-.92-2.837 1.123-.507 1.94-.71 2.656-.71h.204c-.204.102-.408.102-.613.304.102.203.613.507 1.022.507-.102.304.409.608.409.81 0 .102-.307.304-.307.507s0 .304-.102.507c.102.304.102.405.102.506v.203c0 .101.102.304.204.304-.102.101-.102.203-.102.304v.101c0 .203.205.406.409.406v.404c0 .204.204.406.409.406h.102v.102c0 .202.204.405.408.405v.101c-.102 0-.204.101-.204.203v.101c-.102 0-.306.101-.306.203v.101c-.103 0-.205.101-.205.203v.101c-.102-.101-.102-.304-.102-.405-.102.202-.102.304-.102.506l-.102.203v.101h-.102c-.103 0-.205.102-.205.203h-.102c-.102 0-.204.101-.204.203v.101h-.102c-.103 0-.205.101-.205.203l-.102-.102c-.102 0-.204.102-.204.203l-.409.101-.204.102-.205-.102.205-.202.408-.406zm-1.839 1.824.103.203c-.205.203-.103.608-.103.608s.307.101.613 0l.205.203v.1c-.102.203-.409.305-.613.203l.102-.202c-.204.101-.613 0-.613 0s-.102-.405.102-.608h-.204c0-.101 0-.405.306-.507 0-.101 0-.101.102 0zm.205.304a1.4 1.4 0 0 1 .306.406c-.102.1-.306 0-.408 0 0-.102 0-.304.102-.406zm-5.415 2.533c.306.304.817.507 1.328.608.613.203 1.328.203 2.043.203h.205c-.205.203-.409.405-.511.71-.92 0-1.84-.203-2.452-.507-.715-.304-1.226-.608-1.43-1.014-.103-.202-.205-.405-.205-.506 0-.304.205-.71.511-.81.102.1.102.303.204.404-.102.102-.102.203-.102.304 0 .203.205.406.409.608zm-.613 1.419c-.92-.608-1.328-1.419-1.328-2.128 0-.71.51-1.418 1.328-1.722-.102.202-.102.405-.102.506-.511.203-.818.71-.818 1.317 0 .304.103.507.205.811.306.507.92 1.013 1.737 1.317.715.304 1.532.406 2.452.507-.103.203-.205.507-.307.71v.1c-.204-.1-.409-.202-.715-.303-.715-.304-1.635-.507-2.452-1.115zm4.087 3.242.102-.101v.101h-.102zm10.523 2.432c.204.102.408.203.613.203 0 .202.102.71.102 1.317 0 .71-.102 1.621-.51 2.432-.205-.101-.41-.101-.614-.203.409-.912.51-1.824.51-2.634 0-.304 0-.81-.101-1.115zm-1.43-1.418-.41-.406c.307 0 .614 0 .818-.101 1.124 1.419 3.474 1.621 4.802.203.306.202.51.304.715.506-1.022.912-1.941 1.216-2.86 1.216-1.124 0-2.248-.71-3.066-1.418zm.612 1.013-.204.203c-.204.1-.409-.102-.51-.203 0-.101 0-.203.101-.304l.613.304zm-1.634-6.282c.102 0 .306-.102.408-.406h.511a.557.557 0 0 1-.306.507l-.102-.203c0 .203-.41.507-.41.507s-.51-.203-.51-.507l-.204.203c-.102 0-.307-.304-.307-.507h.409a.616.616 0 0 0 .51.406zm-.307-.406h.511c0 .102-.204.203-.204.304-.102-.101-.205-.101-.307-.304zm.613 1.723c0-.405.613-.71.613-.71s.613.406.613.71c.307 0 .715.608.715.608s-.408.608-.715.608c0 .405-.613.71-.613.71s-.613-.406-.613-.71c-.306 0-.715-.608-.715-.608s.307-.608.715-.608zM61.3 46.97c.102 0 .306-.202.408-.506.103 0 .307 0 .41-.102.101.203 0 .507-.205.608l-.205-.202c0 .202-.306.506-.306.506s-.409-.202-.409-.405l-.102.203c-.102 0-.306-.203-.306-.507h.408c0 .304.307.405.307.405zm-.307-.304c.205 0 .307 0 .511-.101 0 .203-.204.304-.204.304-.102 0-.205-.101-.307-.203zm-.204 4.56c.102-.203.409-.507.715-.507 0 0 0-.304.613-.709 0 0 .715.405.613.71 0 0 .102 0 .204.1.103-.1.205-.1.307-.202 0 .101 0 .101-.102.203-1.124.709-2.86.81-3.576.81l-.204-.202c.613-.203 1.021-.203 1.43-.203zm2.656-2.128c.102.203 0 .507 0 .71-.51-.305-.51-.608-.51-.608-.205.1-.716-.507-.716-.507l.205-.405c.102-.203.408-.203.408-.203 0-.304.409-.608.511-.71 0 .203.102.507.102.71a.616.616 0 0 0-.51.405c0 .406.204.608.51.608zm-.306-2.533c-.102 0-.307-.101-.409-.304.102 0 .204-.101.307-.101 0 .202 0 .304.102.405zm0 .203c0 .101.102.202.102.405-.102 0-.51-.101-.613-.405l-.102.202c-.102 0-.307-.202-.307-.506.102 0 .205-.102.307-.102.102.203.51.304.613.406zm-.409 4.66c.307-.1.51-.202.613-.303.204.101.51.101.715.202-.306.304-.92.304-1.328.102zm1.84.102c.306.101.51.203.714.304-1.328 1.013-2.758 1.115-3.882-.101.306-.102.613-.102.817-.203.818.608 1.533.608 2.35 0zm-6.744 2.33c-.102-.202-.204-.405-.204-.506v-.101c0-.102 0-.102-.102-.203 0-.101-.103-.203-.103-.304.307-.101.613.101.716.405.102.203-.103.507-.307.71zm8.99-.911c.307-.102.41-.102.614-.203.102-.101.306-.101.408-.101h.511c.102 0 .205 0 .409-.102.409-.202.817-.405 1.124-.405.102 0 .306 0 .408.101.103 0 .205 0 .205-.101v.101l-.102.102c-.103-.102-.103-.102-.205-.102-.408.102-.613.406-.817.608-.204.304-.307.608-.715.71v.202-.101c-.409 0-.92.203-1.226.506-.511.608-.613.811-1.022 1.115-.204.203-.409.203-.613.304.204 0 .409 0 .715-.203.205-.1.613-.506 1.022-.912.102 0 .102-.1.102-.1.102-.102.204-.102.409-.204.102 0 .306-.1.408-.1h.41c.101 0 .306 0 .408-.102.204-.101.306-.101.408-.203.103-.101.205-.101.205-.101.102 0 .102 0 .306.101h.205v.102l-.103.1c-.102-.1-.102-.1-.204-.1-.613.202-.817.81-1.124 1.114l.102.101-.102-.1c-.613.404-1.021.506-1.634.506-.92 0-1.329.608-1.737 1.216-.409.506-.818 1.013-1.737 1.114-.204-.304-.307-.304-.307-.304.103 0 .307-.101.307-.101-.204-.507-.613-.405-.613-.405 0 .202-.102.304-.102.405.102 0 .306.101.408.405h-.204c0-.101-.102-.202-.306-.202 0 .1-.103.202-.103.202-.204 0-.408 0-.51-.101.408-.912.51-1.723.51-2.533 0-.507-.102-1.014-.102-1.216.102 0 .205 0 .409.101 0 0 .102.101.102.304.102 0 .204-.101.409-.304h.204c0 .101-.102.405-.51.507v.405s.408.101.714-.304l-.204-.203s.204 0 .51-.506c.716-.101 1.431-.507 2.146-1.115l.205.102zm1.942-2.027c.102.101 0 .101 0 .101v-.1c0 .1-.102.1 0 0zm-.204-3.344c.204-.304.613-.506 1.021-.506.102 0 .307 0 .409.101.204.101.409.507.51 1.013.103.406.205.912.307 1.115.205.304.715.405 1.124.506h.102v.102h-.102c.102.101.102.304.102.405 0 .203-.102.405-.306.608-.205.101-.511.203-.715.203-.307 0-.613-.102-.818-.406v-.1l-.102.1h-.204V51.023v-.1h-.102c-.205 0-.307-.102-.41-.204-.101-.202-.101-.608-.101-.912 0-.202 0-.304-.102-.405l-.307-.304h-.102c.204-.506-.204-1.216-.204-1.52zm-2.759 1.216c.204-.101.51-.304.715-.405.409.101.818.203 1.226.203.102.304.205.709.205 1.114-.205.304-.307.71-.307 1.013-.102-.1-.409-.405-1.022-.304h-.102s-.306-.608-1.328-.405c0 0-.204-.304-.715-.304.204-.304.715-.608 1.328-.912zm-1.941 1.52s0-.101 0 0c.102 0 .204.101.204.304.102-.203.307-.203.613-.203 0 0 .205.203.205.406a.784.784 0 0 1 .51-.203c.103 0 .307.203.307.507.102-.102.204-.203.51-.304.103.202.307.405.205.608.204-.102.409-.304.715-.203v.101c.102.203.102.203.102.304-.102.102-.306.304-.306.406-1.226-.811-2.35-1.216-3.474-1.419.307-.101.409-.203.409-.304zm-1.533-5.877c-.204.203-2.86.304-3.882.102.102.405.102.709-.102 1.013 1.941.405 3.78.101 4.393-.304.102.202.204.405.204.71-1.021.404-2.145.506-3.065.506-.715 0-1.328-.102-1.839-.102-.204 0-.408-.1-.51-.1-.103 0-.307-.102-.307-.102v.202s.204.102.409.102c-.102.304-.205.405-.409.506v.203s.51-.405.51-.71c.103 0 .307 0 .41.102.102.203 0 .405-.205.608-.102 0-.204-.203-.204-.203 0 .203-.409.608-.51.71.101.608.306 1.216.51 1.823 0 0-.204.304-.102.507-.307.101-.409.71-.409.71s.51.405.715.303c.102.304.715.406.715.406s.103-.102.103-.203c.408.608.817 1.115 1.328 1.52v.203c-.307.1-.409.608-.409.608s.409.304.613.304c.102.202.613.405.613.405s.307-.304.307-.608h.102v.101c0 .203.102.71.102 1.317 0 .71-.204 1.622-.613 2.432-.817-.304-1.43-.912-2.043-1.52.204.102.408.203.51.102.103.304.818.506.818.506s.408-.506.306-.81c.307-.102.511-.81.511-.81s-.51-.406-.817-.305c-.102-.304-.715-.507-.715-.507s-.511.507-.41.811c-.203.101-.408.405-.408.608l-.613-.912c.102-.203.307-.608.307-.81.408-.102.613-1.014.613-1.014s-.715-.506-1.124-.405c-.102-.304-.613-.507-.817-.608 0-.203-.103-.405-.103-.507-.102-.81-.102-1.722-.102-2.229v-.405h-.204v1.317c-.409-1.013-1.737-.912-2.554-.608-.307-.101-.715-.202-1.022-.202-.306 0-.613.1-.715.303.306-.506 1.022-1.52 1.839-1.62.204.202.51.405.817.607.511.203 1.022.203 1.43-.101.511-.304.716-1.115.614-1.925-.103-.507-.511-1.216-.511-1.925 0-.304.408-.608.715-.406.204.102.306.406 0 1.115v.202c0 .102.102.203.204.203.205.101.307 0 .511-.203.102-.1.204-.304.204-.607 0-.71-.408-1.318-1.226-1.42-.715 0-1.328.609-1.328 1.318 0 .608.613 1.621 0 2.23-.408.405-1.226.405-1.839.1 0 .102.102.203.102.305-.51-.203-.817-.203-1.123-.102l.102.507h-.715l.102.71h-.715l.102.81-.511.101.204.81c-.102-.202-.204-.405-.408-.607-.205-.304.51-1.723 1.839-2.736-.307-.101-.613-.101-.716-.101h-.715a7.678 7.678 0 0 1-2.452-.406c-.306-.1-.51-.304-.613-.405l-.102-.203.102.102c.307.202.613.405 1.635.506-1.737-.304-2.452-1.722-2.146-2.533.205 0 .41-.101.716-.101h.102v.101c0 .304.204.507.51.507.307 0 .511-.203.511-.507H50.367s-.307.507-.715.608c0 0 0 .304-.613.71 0 0-.511-.406-.613-.71 0 0-.307 0-.409-.304.204 2.128 1.84 2.432 2.963 2.432h.204c-.204-.101-.408-.405-.408-.608-.307 0-.716-.608-.716-.608s.41-.608.818-.608c0-.405.715-.71.715-.71s.613.508.613.812c.306 0 .715.607.715.607s-.409.608-.817.608c0 .203-.205.406-.409.507.92.101 1.84.101 1.84.101s-.205-.304-.103-.912c.102-.506.51-.911.715-1.013l.102.102.102-.203-1.021-1.013c-.102-.102-.102-.203-.205-.203.103-.101.205-.101.307-.203.204.406.51.81 1.124 1.318-.409 0 .102.709-.409.709-.102 0 .102-.405-.204-.304-.307.202-.613.81-.511 1.317l.204.405c.205-.81 1.022-1.114 1.737-.81-.409-.912-.204-1.621.102-1.925-.51-.203-.92-.406-1.226-.912l.205.101c.102 0 .204-.101.204-.203l.204.102c.102 0 .205-.102.205-.203h.102c.102 0 .204-.101.204-.203v-.101h.102c.102 0 .205-.101.205-.203h.102c.102 0 .204-.101.204-.202.204.405.613.81.715 1.216.307-.406.818-.406 1.226-.71l.205.102h.102l-.102.101c0 .101.102.203.204.304h.102v.101c0 .102.102.203.204.304h.103v.102c0 .1.102.202.204.304h.204v.1c0 .102.102.305.205.305h.102c0 .101.102.203.204.203s.204 0 .204-.102c0 .102.103.102.205.203.102 0 .204-.101.306-.203l.102.102c.103 0 .205-.102.307-.203v-.101c.102 0 .306 0 .306-.203v-.101c.103 0 .205-.102.205-.203v-.101h.102c0 .1.102.304.204.405.511-.101.613.203.715.405zm-3.78 6.282c-.306.102-.51 0-.613-.202 0-.203 0-.406.205-.507.204.203.306.405.408.71zm1.226 4.155c.205-.102.511.101.613.304.102.304-.102.506-.306.608-.205.101-.511-.102-.613-.304 0-.304.102-.608.306-.608zm5.517-11.957v.102h-.102l.102-.102h-.102.102zm-1.839-1.824c.102.102.102.102.102.203l-.102-.203v.203-.203zm-.306 1.824v.102-.102zm.92 3.141c0-.1 0-.304.101-.405l.205-.304-.307.101-.306.304-.102.102c0 .101-.103.202-.103.202l-.102-.1v-.102s.102 0 .205-.102c.102-.304.204-.608.306-.81v-.101c.409-.406.817-.304 1.022-.203.306.101.408.304.613.608 0 0 .715.71.715 1.52-.204.101-.409.202-.613.202h-.307c-.306-.101-.613-.101-.817-.101h-.102c-.204-.203-.409-.507-.409-.81zm3.984-6.788c-.102.1-.205.304-.409.506l-.204.203-.102.101-.103.102.103.1c.408.507.715 1.622.715 2.737 0 .608-.102 1.317-.307 1.824-.204.405-.306.81-.51 1.114-.103-.507-.511-.912-.92-.912 0-.81-.613-1.722-.613-2.634 0-.203 0-.406.204-.71l.102-.1h-.102c-.102 0-.204-.102-.306-.102.51-.304 1.634-1.419 1.532-1.723-.102-.304-.613-1.013-.715-1.216-.204-.506-2.145 1.318-2.248 2.027a2.4 2.4 0 0 1-.817-.912l-.204.101c0 .507-.307.912-.715 1.419-.307.506-.716 1.013-.716 1.621v.101c-.102 0-.204.102-.204.203v.101c-.102 0-.204.102-.204.203-.102 0-.205.101-.205.203v.1c-.102 0-.204.102-.306.204l-.102-.102c-.102 0-.205 0-.205.102l-.204-.102h-.102c0-.101-.102-.202-.204-.202h-.205v-.102c0-.101-.102-.202-.204-.304h-.102v-.101c0-.101-.102-.203-.205-.304h-.102v-.101c0-.102-.102-.203-.204-.304h-.102v-.102l-.102-.202a.77.77 0 0 0 .204-.507c-.102.101-.204.203-.307.203l-.102-.203.102-.203c0-.1 0-.202-.102-.304.102 0 .102-.1.205-.202 0-.102 0-.203-.103-.203.103 0 .205-.101.205-.203h.306l.102.102c.205.101.511.101.613-.102v-.1c.205.1.511.1.613-.102l.103-.203c.204.102.51.102.613-.101.102-.101.102-.203.102-.304v-.203c.102 0 .306 0 .408-.202 0-.102.103-.203.103-.304v-.102c.306-.202.51-.506.306-1.013.307-.203.613-.304.817-.608.511.304 1.022-.101 1.533-.203 0-.304-.204-.709-.409-.912h.102c.41.203.92.71 1.43 1.419l.103.101.102-.101c.204-.203.613-.507 1.124-1.013.306-.304.613-.507.92-.912.612-.101 1.225.304 1.328.71 0 .1-.103.202-.103.303-.204 1.115-.51 1.925-1.021 2.635zm2.554-4.763c-.102.203-.307.406-.51.608-.103.102-.103.203-.205.304 0 .102-.102.102-.102.203-.205-.507-.92-.81-1.43-.608 0-.203-.205-.405-.205-.507-.102-.202-.102-.304-.102-.506h-.102.102v-.203l.715-1.013-.102-.102.102.102.204-.102v-.1.1l.102.102.103.202h.306l.102.102.102.202h.307l.102.203h.102l.409 1.013zm.409-.405v-.304c.613-.304.92-.81.92-1.419 0-.912-.716-1.62-1.636-1.62-.92 0-1.634.708-1.634 1.62 0 .203 0 .304.102.507l-.51.203c-.103-.203-.103-.608-.103-.81 0-1.115.92-1.926 1.941-1.926 1.124 0 1.941.912 1.941 1.925.102.81-.306 1.52-1.021 1.824z"/>
        <path d="M52.002 45.653c0-.304-.205-.507-.511-.507-.307 0-.511.203-.511.507s.204.507.51.507c.205 0 .512-.304.512-.507zM56.906 97.836c-.307 0-.613.101-.818.304-.204.203-.306.405-.306.71.204 0 .306 0 .408.1-.204.102-.306.203-.306.406v.405h-.102c-.102 0-.307.101-.409.203-.102.101-.204.202-.204.405s.102.304.204.405c.102.102.204.203.409.203.204 0 .306-.101.408-.203.103-.1.205-.202.205-.405v-.912c0-.101 0-.202.102-.304 0-.101.102-.101.306-.202a.563.563 0 0 0-.51-.304c.102-.203.408-.406.715-.406.204 0 .408.102.51.203a.77.77 0 0 1 .205.507v2.026h.51v-1.925c0-.304-.101-.608-.306-.81-.408-.305-.613-.406-1.021-.406zm-.818 2.736s-.102.101-.204.101-.102 0-.204-.101c-.103-.102-.103-.102-.103-.203 0-.101 0-.101.103-.203 0 0 .102-.1.204-.1s.102 0 .204.1c0 .102.102.102.102.203 0 .101 0 .203-.102.203zm3.576-2.736c-.306 0-.51.101-.715.304-.204.203-.307.405-.307.71h.41c0-.203.101-.305.203-.406.103-.101.205-.203.41-.203.203 0 .306 0 .408.102.102.1.102.202.102.304v2.127h.51v-2.229c0-.304-.101-.506-.306-.608-.204 0-.51-.101-.715-.101zm2.86 0c-.306 0-.612.101-.919.304-.204.203-.408.507-.408.81 0 .203 0 .406.102.608.102.304.102.507.102.811v.507h.51c0-.507.103-1.014.205-1.419.102.101.204.101.307.101.102 0 .204 0 .408-.202.102-.101.102-.203.102-.304 0-.101 0-.203-.102-.304-.102-.101-.204-.101-.408-.101-.205 0-.307.1-.41.304a.77.77 0 0 0-.203.506v.405-.81a.77.77 0 0 1 .204-.507.784.784 0 0 1 .51-.202c.205 0 .41 0 .512.202.204.102.204.304.204.406v2.026h.51v-2.026c0-.304-.101-.608-.408-.811-.306-.203-.51-.304-.817-.304zm-.204 1.115s.103-.102.205-.102.102 0 .204.102c.102 0 .102.1.102.202 0 .102 0 .102-.102.203 0 0-.102.101-.204.101s-.102 0-.205-.101c0 0-.102-.101-.102-.203.102-.101.102-.101.102-.202zm3.474-.912c-.102 0-.204 0-.409-.102-.204 0-.306-.101-.408-.101-.205 0-.409.101-.613.203-.102.202-.205.405-.205.608.307.1.613.1.92.202.306.102.51.102.51.203v.608h-.101c-.205 0-.307.101-.41.202-.101.102-.203.203-.203.406 0 .202.102.304.204.405.102.101.204.203.409.203.204 0 .306-.102.408-.203.102-.101.205-.203.205-.405v-1.216c0-.203-.103-.405-.41-.507-.306-.101-.612-.202-1.02-.202 0-.203.204-.304.408-.304.102 0 .204 0 .409.1.204 0 .306.102.408.102.205 0 .409-.202.511-.506l-.409-.102c0 .304-.102.406-.204.406zm0 2.33c0 .101 0 .101-.102.203-.102 0-.102.101-.204.101-.103 0-.103 0-.205-.101 0-.102-.102-.102-.102-.203 0-.101 0-.101.102-.203.102 0 .102-.1.205-.1.102 0 .102 0 .204.1 0 .102.102.203.102.203zm-.306-3.026c.817 0 1.226-.41 1.328-1.23h-.409c-.102.615-.409.923-.92.923.103-.103.103-.205.103-.308 0-.102-.102-.205-.102-.41-.103-.102-.205-.102-.41-.102-.101 0-.306 0-.408.102-.102.103-.204.205-.204.41s.102.308.204.513c.307.102.613.102.818.102zm-.511-.82s.102-.102.204-.102.102 0 .204.102c0 0 .103.103.103.205 0 .103 0 .103-.103.205 0 0-.102.103-.204.103s-.102 0-.204-.103c0-.102-.102-.102-.102-.205 0-.102 0-.102.102-.205zm3.678 1.516c-.102 0-.205 0-.409-.102-.204 0-.306-.101-.409-.101-.306 0-.51.101-.613.203-.204.202-.306.405-.306.709.204 0 .51 0 .92.101.51.102.715.203.715.304v1.115c0 .202-.103.304-.205.304-.204 0-.204-.102-.204-.304v-.71c0-.1-.102-.303-.204-.303-.103-.102-.205-.102-.41-.102-.101 0-.306 0-.408.102-.102.1-.204.202-.204.405 0 .101.102.304.102.405.102.101.204.101.409.101h.102v.203c0 .405.204.608.715.608.51 0 .715-.203.715-.71v-1.114c0-.202-.102-.304-.306-.405a10.675 10.675 0 0 0-1.226-.304c0-.101.102-.101.204-.101s.204-.102.307-.102c.102 0 .204 0 .408.102a.778.778 0 0 0 .409.1c.306 0 .409-.202.51-.506l-.408-.101-.204.203zM67.53 99.76l-.102.101c-.102 0-.102 0-.205-.1l-.102-.102c0-.102 0-.102.102-.203 0 0 .103-.101.205-.101s.102 0 .102.101c0 0 .102.101.102.203-.102 0-.102.101-.102.101zm.817 1.419c-.102 0-.204 0-.306.102-.102.102-.102.204-.102.306 0 .102 0 .204.102.306.102.102.204.102.306.102h.102v.102c0 .102-.102.102-.204.102h-.409l-.408-.51c0-.204.102-.306.204-.408l-.204-.102c-.205.102-.205.204-.307.408h-.204c-.204 0-.307 0-.409.102-.102.102-.102.204-.102.408s0 .307.102.409c.102.102.205.102.409.102.102 0 .204 0 .306-.102.103-.102.205-.205.205-.307l.306.409h.613c.307 0 .511-.204.511-.51v-.511c0-.102 0-.204-.102-.306-.102-.102-.204-.102-.409-.102zm-1.43 1.122a.22.22 0 0 1-.204-.204c0-.102.102-.204.306-.204h.204c-.102.306-.204.408-.306.408zm1.532-.612-.102.102c-.102 0-.102 0-.102-.102v-.204h.204l.103.102c0 .102 0 .102-.103.102zm1.84-1.828h-.103v-1.925h-.51v2.432c0 .203.102.304.204.405.102.102.204.203.408.203.205 0 .307-.101.41-.203.101-.1.203-.202.203-.405s-.102-.304-.204-.405c-.102-.102-.306-.102-.409-.102zm.204.71c-.102 0-.102.101-.205.101-.102 0-.102 0-.204-.101 0-.102-.102-.102-.102-.203 0-.101 0-.101.102-.203 0 0 .102-.1.204-.1.103 0 .103 0 .205.1 0 .102.102.102.102.203-.102.101-.102.203-.102.203zm3.371-3.648v3.445c0 .507-.408.71-1.124.71-.715 0-1.123-.203-1.123-.71v-1.216h-.103c-.204 0-.306-.101-.408-.202-.102-.102-.205-.203-.205-.406 0-.202.103-.304.205-.405.102-.101.204-.203.408-.203.103 0 .307.102.41.203.101.101.203.203.203.405v1.723c0 .101.103.101.205.202.102.102.204.102.408.102.103 0 .307 0 .41-.102.101 0 .203-.1.203-.202v-3.344h.511zm-2.35 1.216c-.102 0-.204.101-.204.101-.102.102-.102.102-.102.203 0 .025.006.044.016.06l.07.082.016.06c.102.102.102.102.204.102.103 0 .103-.101.205-.101 0-.026.006-.045.016-.06l.07-.083.016-.06a.289.289 0 0 0-.066-.16l-.036-.043c-.102-.101-.102-.101-.205-.101zm1.635-2.635v.203a.77.77 0 0 1-.204.507.784.784 0 0 1-.511.202h-.51c-.103 0-.103.102-.205.102-.102.101-.102.101-.102.202v.203c0-.101.204-.203.306-.203.102.102.204.102.409.203 0-.101 0-.101.102-.203.102-.101.204-.101.306-.101.103 0 .205 0 .307.101.102.102.102.203.102.304 0 .102 0 .203-.102.304-.102.102-.204.102-.307.102-.204 0-.51-.102-.817-.304-.102 0-.102 0-.204.101 0 .101-.102.101-.102.203-.307-.203-.41-.406-.511-.912 0-.102.102-.304.204-.406.102-.1.307-.1.51-.1h.512c.306 0 .408-.102.408-.305v-.203h.41zm3.78 4.459c.102-.102.205-.203.205-.406v-1.52h-.511v1.52c0 .203 0 .304-.102.304-.103.102-.307.203-.511.304-.307.102-.409.203-.511.304v-1.925c0-.202-.102-.304-.204-.405-.103-.101-.205-.203-.409-.203s-.307.102-.409.203c-.102.101-.204.203-.204.405 0 .203 0 .304.204.406.102.1.205.202.409.202h.102v1.925h.511c.102-.101.204-.202.306-.202.103 0 .205-.102.307-.203 0 .101.102.304.204.304.102.101.205.101.409.101s.306-.101.409-.202c.102-.102.204-.203.204-.406-.102-.304-.204-.405-.409-.506zm-1.839-1.317c-.102 0-.102.1-.204.1s-.102 0-.204-.1c-.103-.102-.103-.102-.103-.203 0-.101 0-.101.103-.203 0 0 .102-.101.204-.101s.102 0 .204.101c.102 0 .102.102.102.203-.102.101-.102.101-.102.203zm1.737 1.925c-.102 0-.102.101-.204.101s-.102 0-.205-.101c-.102-.102-.102-.102-.102-.203 0-.101 0-.101.102-.203 0-.1.103-.1.205-.1s.102 0 .204.1c.102 0 .102.102.102.203 0 .101 0 .203-.102.203zm2.963.304h.51v-2.939h-.51v2.33l-.613-.911h-.307l-.613.912V98.95h.103c.204 0 .306 0 .408-.203.102-.101.205-.203.205-.405 0-.203-.103-.304-.205-.406-.102-.101-.204-.202-.408-.202-.205 0-.307.1-.409.202-.102.102-.204.304-.204.406v2.431h.408l.715-1.216.92 1.318zm-1.635-2.23c0-.1-.102-.1-.102-.202 0-.101 0-.101.102-.203.102 0 .102-.101.205-.101.102 0 .102 0 .204.101 0 0 .102.102.102.203 0 .101 0 .101-.102.203 0 0-.102.1-.204.1-.103-.1-.103-.1-.205-.1zm1.635 3.648c0 .102-.102.102-.204.102-.103 0-.205 0-.205-.102v-.709c0-.101 0-.203-.102-.304-.102-.101-.204-.101-.306-.101-.103 0-.205 0-.307.101-.102.101-.102.203-.102.304 0 .101 0 .203.102.304.102.101.204.101.307.101v.203c0 .101.102.203.204.304.102.101.306.101.409.101.204 0 .408 0 .51-.101.103-.101.205-.203.205-.405v-1.014h-.409v1.216h-.102zm-.817-.506-.103.101c-.102 0-.102 0-.102-.101l-.102-.102c0-.101 0-.101.102-.101l.102-.101c.103 0 .103 0 .103.101l.102.101s-.102 0-.102.102zm1.021-4.965c-.204.202-.408.304-.613.405.102-.101.102-.203.205-.304.102-.101.102-.304.102-.405 0-.102 0-.304-.102-.406-.103-.1-.205-.1-.409-.1-.102 0-.204 0-.307.1-.102.102-.102.203-.102.304 0 .102 0 .203.102.304.103.102.205.203.307.203 0 .101-.102.101-.102.203-.102.101-.102.101-.205.101v.304h.205c.204 0 .51 0 .613-.101.204 0 .306-.102.51-.203a1.4 1.4 0 0 0 .307-.405c.102-.203.204-.406.204-.71h-.408a4.919 4.919 0 0 1-.307.71zm-.817-.102s-.102 0-.102-.101l-.102-.101c0-.102 0-.102.102-.102l.102-.1c.102 0 .102 0 .102.1l.102.102c0 .101 0 .101-.102.101 0 0 0 .101-.102.101zm2.758 1.115c-.306 0-.613.101-.817.304-.204.203-.306.405-.409.71.205 0 .307 0 .511.1a.557.557 0 0 0-.306.507v.912c0 .203.102.304.204.405.102.102.204.203.409.203.204 0 .306-.101.408-.203.103-.1.205-.202.205-.405s-.102-.304-.205-.405c-.102-.102-.204-.203-.408-.203h-.102v-.304c0-.202.102-.405.408-.506a.563.563 0 0 0-.51-.304c.204-.203.408-.406.715-.406.204 0 .408.102.51.203a.77.77 0 0 1 .205.507v2.026h.51v-1.925c0-.304-.102-.608-.306-.81-.306-.305-.613-.406-1.022-.406zm-.51 2.432c.102-.102.102-.102.204-.102s.102 0 .204.102c.102 0 .102.101.102.202 0 .102 0 .102-.102.203 0 0-.102.101-.204.101s-.102 0-.204-.1c0-.102-.103-.102-.103-.204 0-.1 0-.202.103-.202zm1.736-4.155h-.408v.507c-.102-.101-.205-.203-.307-.203v-.304h-.306v.203h-.205c-.715 0-1.021.304-1.123 1.013h.715c.51 0 1.124.102 1.737.304v-1.52h-.103zm-1.532.811h-.409c0-.101.102-.203.205-.304.102-.101.306-.101.51-.101.205 0 .41.101.511.202l.307.304c-.409 0-.818-.101-1.124-.101zm3.27.912c-.716 0-1.125.304-1.227.71h.409c0-.203.306-.406.817-.406.205 0 .307 0 .511.101.204.102.204.203.204.406v1.418c0 .304-.204.405-.613.405-.408 0-.613-.1-.613-.405v-.203h.103c.204 0 .306-.1.408-.202.102-.102.205-.203.205-.405 0-.203-.103-.304-.205-.406-.102-.101-.204-.202-.408-.202-.205 0-.307.1-.409.202-.102.102-.102.304-.102.406v.709c0 .304.102.405.306.608.205.101.409.202.715.202.307 0 .511-.1.716-.202.204-.102.306-.304.306-.608v-1.419c0-.304-.102-.506-.409-.71-.102.102-.408 0-.715 0zm-.614 1.621c0-.101 0-.101.102-.202.103-.102.103-.102.205-.102s.102 0 .204.102c.102.1.102.1.102.202 0 .101 0 .101-.102.203 0 0-.102.101-.204.101s-.102 0-.205-.101c-.102-.102-.102-.203-.102-.203zm4.598 1.723c.204 0 .306.102.306.102.102 0 .102.204.102.306v1.02h-.408v-.612h-.061a.335.335 0 0 1-.246-.102c-.102-.102-.102-.204-.102-.306 0-.102 0-.204.102-.306.102-.102.205-.102.307-.102zm4.802-5.27c.306 0 .408.102.613.203a.557.557 0 0 1 .306.507c0 .084 0 .24-.059.406l-.086.202a1.102 1.102 0 0 0-.059.347v2.287h.136c.09.004.182.034.272.304.103.102.205.203.205.406 0 .202-.102.304-.205.405-.102.101-.204.203-.408.203-.102 0-.307-.102-.409-.203-.102-.101-.204-.203-.204-.405v-2.889a.773.773 0 0 1 .102-.354c.102-.202.102-.304.102-.405 0-.203 0-.203-.102-.304-.102-.101-.204-.101-.307-.101-.204 0-.306 0-.408.101h.061l.023.002-.042.009a.413.413 0 0 0-.133.08l-.011.01c-.103.102-.103.102-.103.203 0 .101 0 .203.103.203.102.101.102.101.204.101s.204-.101.204-.101c.062-.061.086-.085.096-.117l.005-.036.001.051c0 .081 0 .162-.052.244l-.05.06c-.102 0-.204.102-.306.102-.102 0-.205-.102-.307-.203-.102-.101-.102-.304-.102-.405 0-.304.102-.507.307-.71.102-.1.306-.202.613-.202zm-3.27 2.027c.205 0 .307.102.409.203.102.101.204.203.204.405v1.925c0-.1.205-.202.511-.304.204-.1.409-.202.511-.304.088 0 .1-.074.102-.223v-1.6h.511v1.52c0 .202-.102.303-.204.405.204.101.306.202.408.506 0 .203-.102.304-.204.406-.102.101-.204.202-.409.202-.204 0-.306 0-.408-.101-.103 0-.205-.203-.205-.304-.102.101-.204.203-.306.203-.102 0-.205.101-.307.202h-.51v-1.925h-.103c-.204 0-.306-.101-.408-.202-.103-.102-.205-.203-.205-.406 0-.202.102-.304.205-.405.102-.101.204-.203.408-.203zm-1.43-.101c.204 0 .306.101.409.203.102.1.102.202.204.506 0 .102-.102.304-.204.406.102.1.102.304.102.405v1.621h-.511v-1.621c0-.101 0-.203-.102-.203s-.102.102-.205.203l-1.021 1.722h-.409v-1.925h-.102c-.204 0-.307-.101-.409-.202-.102-.102-.204-.203-.204-.406 0-.202.102-.304.204-.405.102-.101.205-.203.409-.203s.306.102.409.203c.102.101.204.203.204.405v1.162c-.001.075-.005.198-.025.356l-.017.114.028-.071c.017-.04.036-.081.056-.122l.06-.122.409-.709c.102-.202.102-.304.204-.304 0-.101-.102-.304-.102-.405 0-.203.102-.304.204-.405.102-.102.205-.203.409-.203zm3.167 2.23c-.102 0-.204 0-.204.1-.102.102-.102.102-.102.203 0 .101.102.101.102.203.102.101.102.101.204.101s.102-.101.204-.101c.103 0 .103-.102.103-.203 0-.101-.103-.203-.103-.203-.102-.1-.102-.1-.204-.1zm2.248 0c-.102 0-.205.1-.205.1-.102.102-.102.102-.102.203 0 .101.102.101.102.203.103.101.103.101.205.101s.204-.101.204-.101c.102 0 .102-.102.102-.203 0-.101 0-.101-.102-.203-.102-.1-.102-.1-.204-.1zm-7.254-1.926c-.102 0-.102.101-.204.101-.103.102-.103.102-.103.203 0 .025.007.044.016.06l.07.082.017.06c.102.102.102.102.204.102s.102-.101.204-.101c0-.102 0-.102.102-.203 0-.101-.102-.203-.102-.203-.102-.101-.102-.101-.204-.101zm1.839 0c-.102 0-.204.101-.204.101-.103.102-.103.102-.103.203v.203c.103.1.103.1.205.1s.204-.1.204-.1l.102-.102.027-.026.075-.075c0-.101-.102-.203-.102-.203-.102-.101-.102-.101-.204-.101zm1.43 0c-.102 0-.204.101-.204.101-.102.102-.102.102-.102.203 0 .025.006.044.016.06l.07.082.016.06c.102.102.102.102.204.102s.102-.101.205-.101c0-.102.102-.102.102-.203 0-.101-.102-.203-.102-.203-.103-.101-.103-.101-.205-.101zm-1.94-2.128c.101 0 .203 0 .306.101.102.102.102.304.102.406 0 .101 0 .304-.102.405-.103.101-.103.203-.205.304.205-.101.409-.203.613-.405.102-.203.205-.406.205-.71h.613c0 .304-.103.507-.205.71a1.4 1.4 0 0 1-.306.405c-.205.101-.307.203-.511.203-.088.086-.325.099-.52.1l-.297.001v-.304s.102 0 .204-.101c0-.102.102-.102.102-.203-.102 0-.204-.101-.306-.203-.103-.101-.103-.202-.103-.304 0-.1 0-.202.103-.304.102-.1.204-.1.306-.1zm-.103.304-.086.086-.016.015c-.102 0-.102 0-.102.102l.102.101c0 .101 0 .101.102.101s.102-.101.102-.101c.102 0 .102 0 .102-.101l-.102-.102c0-.1 0-.1-.102-.1zm9.502 1.723c-.103-.102-.205-.203-.41-.203-.203 0-.306.101-.408.203-.102.1-.204.202-.204.405 0 .101 0 .304.102.405-.102 0-.102.102-.204.304l-.409.71c-.102.202-.204.405-.204.607.102-.405.102-.709.102-.81v-1.115c0-.202-.102-.304-.205-.405-.102-.101-.204-.203-.408-.203-.205 0-.307.102-.409.203-.102.101-.204.203-.204.405 0 .203.102.304.204.406.102.1.204.202.409.202h.102v1.925h.409l1.021-1.722c.103-.101.103-.203.205-.203s.102.102.102.203v1.621h.51v-1.621c0-.101 0-.304-.101-.405.102-.102.204-.304.204-.406 0-.304 0-.405-.204-.506zm-1.942.608s-.102.1-.204.1-.102 0-.204-.1c-.103-.102-.103-.102-.103-.203 0-.101 0-.101.103-.203 0 0 .102-.101.204-.101s.102 0 .204.101c.102 0 .102.102.102.203-.102.101-.102.101-.102.203zm1.737 0s-.102.1-.204.1-.102 0-.204-.1c-.103-.102-.103-.102-.103-.203 0-.101 0-.101.103-.203 0 0 .102-.101.204-.101s.102 0 .204.101c.102 0 .102.102.102.203 0 .101 0 .101-.102.203zm4.393 2.431c0 .409 0 .715-.204.919-.204.306-.409.408-.817.408-.205 0-.409-.102-.613-.204-.205-.204-.307-.408-.307-.612 0-.204.102-.306.205-.409.102-.102.306-.102.408-.102.205 0 .307.102.409.205.102.102.102.306.102.408 0 .204 0 .306-.204.408h.102c.51 0 .715-.306.715-.919v-.102zm-1.277.307h-.05c-.103 0-.205.102-.205.102l-.05.05c-.052.056-.052.072-.052.154 0 .102.102.102.102.204.102.102.102.102.204.102s.205-.102.205-.102c0-.102.102-.102.102-.204s-.102-.204-.102-.204l-.051-.05c-.056-.052-.072-.052-.154-.052zm-1.072-3.448c.306 0 .613.102.817.304.204.203.306.507.306.81v1.318c0 .101 0 .203.103.203.102.101.204.101.306.101.102 0 .204-.101.307-.101.102 0 .102-.102.102-.203v-2.33h.51v2.229c0 .304-.102.506-.306.608-.102.101-.306.202-.613.202-.204 0-.409-.101-.613-.202-.204-.203-.306-.406-.306-.608V98.95a.77.77 0 0 0-.205-.507c-.102-.101-.204-.203-.408-.203-.307 0-.511.203-.511.507.204 0 .408.101.51.304-.306.101-.408.304-.408.506v.304h.102c.204 0 .307.102.409.203.102.101.204.203.204.405 0 .203-.102.304-.204.406-.102.101-.205.202-.409.202-.102 0-.306-.101-.409-.202-.204-.102-.204-.203-.204-.406v-.912c0-.202.102-.405.307-.506-.205-.101-.307-.101-.511-.101 0-.304.102-.507.306-.71.205-.202.511-.304.818-.304zm-.307 2.23c-.102 0-.204 0-.204.1-.102 0-.102.102-.102.203 0 .102 0 .102.102.203.102.101.102.101.204.101s.204-.1.204-.1l.05-.051c.053-.055.053-.072.053-.153 0-.1 0-.202-.103-.202-.102-.102-.102-.102-.204-.102zm2.35-3.75h.51v1.014h-.51zm4.7-12.26v8.815H11.543v-8.815h94.914zm-47.304 2.33v3.952h.613v-2.634l3.167 2.837V86.69h-.613v2.635l-3.167-2.838zm28.3 0v3.952h.613v-2.634l3.168 2.837V86.69h-.613v2.635l-3.168-2.838zm8.787.102c-.715 0-1.328.304-1.737.709-.307.405-.51.81-.51 1.317 0 .507.203.912.612 1.318.409.405.92.607 1.533.607.408 0 .715-.1 1.124-.303v-.71c-.103.102-.205.102-.307.203-.102 0-.204.101-.307.101-.204.102-.408.102-.613.102-.408 0-.817-.102-1.123-.406-.409-.304-.511-.608-.511-1.013 0-.405.204-.71.51-1.013.307-.304.716-.406 1.124-.406.41 0 .716.102 1.124.406h.205v-.608c-.409-.203-.716-.304-1.124-.304zm-18.901.101h-.715v3.75h.613v-1.52h.102l1.226 1.52v.1h.817l-1.328-1.62c.307-.102.511-.203.715-.406.102-.203.205-.405.205-.71 0-.303-.103-.607-.409-.81-.204-.203-.613-.304-1.226-.304zm-35.452 0h-.715l1.43 2.128v1.621h.613v-1.621l1.43-2.128h-.715l-1.021 1.52-1.022-1.52zm29.424-.101h-.51v2.432c0 .405.101.709.408 1.013.306.304.613.405 1.124.405.408 0 .817-.101 1.124-.405.306-.304.408-.608.408-1.013v-2.432h-.613v2.229c0 .304-.102.608-.204.71-.204.202-.51.303-.817.303-.307 0-.511-.101-.716-.304-.102-.202-.204-.405-.204-.71V86.59zm-33.613-.102-2.145 3.952h.715l.51-.912h1.84l.51.912h.614l-2.044-3.952zm-15.018.203h-.613v3.75h.613v-1.723h1.839v1.722h.613V86.69h-.613v1.419h-1.84V86.69zm25.337-.203-2.145 3.952h.715l.51-.912h1.84l.408.912h.715l-2.043-3.952zm-15.385.203h-.86v3.75h.614v-1.52h.306c.409 0 .715-.102 1.022-.305.204-.202.408-.506.51-.81 0-.304-.204-.608-.408-.81-.204-.102-.307-.204-.511-.204-.153-.076-.306-.095-.546-.1h-.127zm-15.623 0h-1.072v3.75l1.072-.001c.355-.001.69-.013.869-.101.204-.101.51-.203.715-.405.409-.406.715-.811.613-1.318 0-.608-.204-1.114-.613-1.418-.204-.203-.409-.304-.715-.406-.153-.076-.422-.095-.719-.1h-.15zm39.386 0h-.613v3.75h.613v-3.75zm10.625-.101c-.409 0-.715.101-.92.304-.306.202-.408.405-.408.709 0 .405.306.71.92.912l.408.203c.102 0 .204.1.307.1.102 0 .102.102.204.102 0 .026.006.045.016.06l.07.083.016.06v.203c0 .1-.102.304-.204.405a.784.784 0 0 1-.511.203c-.307 0-.51 0-.613-.203a.77.77 0 0 1-.204-.507l-.613.102c0 .304.204.608.408.81.205.203.511.304.92.304.408 0 .715-.101 1.021-.304.205-.202.307-.506.307-.912 0-.202 0-.405-.204-.608a2.197 2.197 0 0 0-.716-.405l-.408-.304c-.307-.101-.511-.203-.511-.405 0-.102.102-.203.204-.304.102-.102.205-.102.409-.102.102 0 .204.102.306.102.103 0 .205.101.41.304l.51-.304c-.204-.406-.613-.608-1.124-.608zm-38.21.101h-.613v3.75h.613v-3.75zm54.352-.203-2.145 3.952h.715l.511-.912h1.839l.409.912h.715l-2.044-3.952zm18.901.102h-2.35v3.749h2.35v-.507h-1.736v-1.216h1.634v-.506h-1.634v-.912h1.736v-.608zm-85.105.608c.511 0 .92.101 1.226.304.307.304.409.608.511.912 0 .405-.204.709-.51 1.013-.103.101-.307.203-.512.304-.204.101-.408.101-.715.101h-.306v-2.634zm31.06.506.612 1.216h-1.328l.715-1.216zm-10.32 0 .715 1.216h-1.328l.613-1.216zm45.464 0 .613 1.216h-1.328l.715-1.216zm-5.72-.506c.612 0 .919.202.919.608 0 .405-.307.608-.92.608h-.204v-1.216h.204zm-44.954 0c.613 0 .92.202.92.608 0 .405-.307.608-.92.608h-.205v-1.216zm-12.26-14.591c-.205 0-.307.101-.511.202-.205.102-.409.203-.511.406-.204.202-.307.405-.409.709l-1.634 3.952v-3.85c0-.406-.205-.811-.511-1.014-.307-.203-.715-.304-1.124-.304-.51 0-.92.101-1.226.405-.307.304-.409.608-.409.912 0 .203.102.406.102.507.103.304.511.71 1.022.71h.102c.102 0 .205 0 .409-.102.102-.101.306-.203.204-.405 0-.102-.102-.203-.306-.203h-.409c-.102 0-.204-.203-.204-.203 0-.101 0-.304.102-.405.102-.101.306-.203.409-.203.204 0 .306 0 .306.102.102.101.102.202.102.202v6.992h.307c.51 0 .92-.203 1.124-.507l2.452-6.282c.102-.203.204-.304.306-.304.204-.101.307-.101.409-.101.306 0 .408.101.613.202a.77.77 0 0 1 .204.507v6.08s0 .202.204.405c.205.202.41.304.818.304h.204v-6.688a1.44 1.44 0 0 0-.613-1.216c-.204-.709-.817-.81-1.532-.81zm-5.109-2.33h1.635c1.839.1 3.474.405 4.904.911 0 0 .817.406.817 0 0-.506-.51-3.546-4.189-3.546-.306 0-.715 0-1.021.101-1.022.304-2.044.912-2.452 1.824 0 0-.102.304 0 .405.102.203.204.304.306.304zm2.146-1.52c.408-.102.817-.203 1.226-.203 1.226 0 2.86.912 2.963 1.824-2.35-1.216-5.109-.912-5.313-.912.204-.203.715-.608 1.124-.71zm16.142 3.85c-1.021 0-1.021.608-1.021.608v4.66l-1.737-4.66c-.102-.203-.307-.608-.613-.608-.409 0-.613.506-.613.608l-1.84 4.66v-3.85c0-.506-.204-.81-.51-1.013-.307-.203-.715-.304-1.124-.304-.51 0-.92.101-1.226.405-.306.203-.409.507-.409.912 0 .203.103.406.103.507.102.304.51.71 1.021.71h.102c.103 0 .307-.102.409-.102.102-.101.307-.203.204-.304 0-.101-.102-.203-.306-.203h-.409c-.102 0-.204-.202-.204-.202 0-.102 0-.304.102-.406.102-.101.307-.202.409-.202.204 0 .306 0 .306.101a.313.313 0 0 1 .102.203v6.991h.307c.51 0 .92-.202 1.124-.506l2.247-5.877 2.248 5.877c0 .1.307.506 1.226.506h.204v-8.41h-.102v-.101zm18.288-3.85c-.204.202-.204.303-.204.405V79.9h-3.78v-5.877c0-.506-.205-.81-.511-1.013-.307-.203-.715-.304-1.124-.304-.51 0-.92.101-1.226.405-.307.304-.409.608-.409.912 0 .203.102.406.102.507.103.405.613.71 1.124.71.102 0 .205 0 .409-.102.102-.101.204-.203.204-.304 0 0-.102-.203-.408-.203h-.205c-.102 0-.204-.202-.204-.202 0-.102 0-.304.102-.406.102-.101.307-.202.409-.202.204 0 .306 0 .306.101.102.101.102.203.102.304v6.586l-.51.405h6.743V68.755h-.205c-.306-.202-.613-.202-.715 0zm12.77 4.66c-.101 0-.203 0-.408.304a1.4 1.4 0 0 0-.306.406c-.511.405-1.328.506-1.84.202-.101-.101-.204-.202-.101-.405.102-.101.306-.203.408-.203h.102c.103 0 .205.102.205.102V74.126l.102.101h.102c.204 0 .307-.203.307-.203.102-.101.102-.202.102-.304 0-.405-.307-.709-.715-.81 0 .101-.103.101-.307.101-.306 0-.613.101-.92.304-.408.304-.408.608-.408.912-.102.71.613 1.216 1.43 1.317h.409c.409 0 .715-.101 1.124-.202.715-.304 1.124-.811 1.124-1.419-.103-.507-.307-.507-.41-.507zm8.685-4.458s-.204 0-.409.304a1.4 1.4 0 0 0-.306.405c-.715.608-1.941.71-2.452.71h-.307c-.715 0-1.226-.102-1.532-.304-.102-.102-.204-.203-.102-.406.102-.101.204-.202.51-.202h.103c.102 0 .204.101.204.101V69.87s.102.101.204.101c.205 0 .307-.202.307-.202.102-.102.102-.203.102-.304 0-.406-.306-.71-.715-.81-.102 0-.307-.102-.409-.102-.51 0-1.021.202-1.226.608-.204.405-.204.81.102 1.114.307.507.92.71 1.533.81.306.102.715.102 1.022.102h.102c1.43 0 3.576-.709 3.576-2.128-.103-.1-.307-.1-.307-.1zm20.025 0c-.102 0-.205 0-.409.304a1.4 1.4 0 0 0-.306.405c-.716.608-1.942.71-2.452.71H89.7c-.715 0-1.226-.102-1.532-.304-.103-.102-.205-.203-.103-.406a.784.784 0 0 1 .511-.202h.102c.103 0 .205.101.205.101V69.87s.102.101.204.101c.204 0 .307-.202.307-.202.102-.102.102-.203.102-.304 0-.406-.307-.71-.715-.81-.103 0-.307-.102-.409-.102-.51 0-1.022.202-1.226.608-.204.405-.204.81.102 1.114.307.507.92.71 1.533.81.306.102.715.102 1.021.102h.102c1.43 0 3.576-.709 3.576-2.128 0-.1-.306-.1-.306-.1zm-28.71 9.525c-.101 0-.203 0-.408.304a1.4 1.4 0 0 0-.306.405c-.511.405-1.328.507-1.84.203-.101-.102-.204-.203-.101-.406.102-.101.204-.202.408-.202h.102c.103 0 .205.101.205.101V79.192l.102.101h.102c.102 0 .307-.101.307-.202.102-.102.102-.203.102-.304 0-.406-.307-.71-.715-.81-.103 0-.307-.102-.41-.102-.306 0-.612.101-.919.304-.408.202-.408.608-.408.912-.102.709.613 1.216 1.43 1.317h.409c.306 0 .715-.101 1.021-.203.716-.202 1.124-.81 1.124-1.418.102-.304-.102-.304-.204-.304zM59.46 73.01h-.205v.203c0 .202-.204.304-.408.304-.102 0-.205 0-.307-.102-.51-.405-.92-.81-1.839-.81-2.35 0-2.86 2.128-2.86 2.128v.202l3.575 1.115V79.699c0 .1 0 .202-.102.304-.102.1-.204.1-.306.1-.205 0-.307-.1-.409-.202-.102-.101-.102-.304-.102-.405 0-.101.102-.203.204-.203h.409c.204 0 .204-.101.306-.202 0-.203-.204-.304-.204-.406-.102-.101-.204-.101-.409-.101-.51 0-.92.304-1.123.71 0 .1-.103.303-.103.506 0 .304.103.71.41.912.306.304.714.405 1.225.405.409 0 .817-.101 1.124-.304.306-.202.51-.608.51-1.013v-3.648c0-.608-.612-.81-.612-.81l-2.657-.811a1.55 1.55 0 0 1 1.329-.71c.408 0 .715.203 1.021.406.205.101.307.203.511.304.204.101.409.101.613.101.307 0 .51-.101.715-.202.205-.203.307-.406.307-.608-.102-.406-.307-.81-.613-.81zm-17.266-.101c-.205.202-.205.304-.205.405v6.688H37.8V77.57c0-.304.103-.507 1.226-.507.409 0 .818-.101.92-.304.204-.202.102-.405.102-.405v-.203h-1.124c-1.124 0-1.226-.912-1.226-1.013v-1.115c0-.101 0-.202.102-.304.103-.1.205-.1.307-.1.204 0 .306.1.409.202.102.101.102.304.102.405 0 .101-.102.203-.205.203h-.408c-.205 0-.205.101-.307.202 0 .102.102.304.205.304.102.102.306.102.408.102.511 0 .92-.304 1.124-.71 0-.101.102-.304.102-.506 0-.304-.102-.71-.408-.912-.307-.304-.716-.406-1.226-.406-.41 0-.818.102-1.124.304-.307.203-.511.608-.511 1.014v1.52c0 .304.102.709.51 1.013-.204.203-.51.405-.51.912v3.242l-.511.406h7.254v-8.41h-.204c-.205.1-.511.202-.613.405zm59.767-.304c-.408 0-.715.101-.817.304-.102.202-.204.304-.204.405v6.688h-4.19v-2.33c0-.305.103-.508 1.227-.508.51 0 .817-.1.92-.304.204-.202.101-.405.101-.405v-.202h-1.123c-1.124 0-1.227-.912-1.227-1.014v-1.114c0-.102 0-.203.103-.304.102-.102.204-.102.306-.102.205 0 .307.102.409.203.102.101.102.304.102.405 0 .102-.102.203-.204.203h-.409c-.204 0-.204.101-.307.203 0 0 0 .202.307.304.102.1.204.1.409.1.51 0 .92-.303 1.124-.708 0-.102.102-.304.102-.507 0-.304-.102-.71-.409-.912-.306-.304-.715-.405-1.226-.405-.409 0-.817.101-1.124.304-.306.202-.51.608-.51 1.013v1.52c0 .304.101.71.51 1.013-.204.203-.51.405-.51.912v3.243l-.512.405h7.357v-8.41h-.205zm-18.799 6.08c-.204-.102-.408-.203-.613-.203v-5.776h-.204c-1.022 0-1.022.608-1.022.608v5.269c-1.328.203-3.065.912-3.575 1.115l-.307.1v-5.775c0-.506-.204-.81-.51-1.013-.307-.203-.716-.304-1.125-.304-.51 0-.919.101-1.226.405-.306.304-.408.608-.408.912 0 .203.102.406.102.507.102.405.51.71 1.022.71h.102c.102 0 .204 0 .408-.102.103-.101.307-.203.205-.405 0-.102-.102-.203-.307-.203h-.306c-.102 0-.205-.203-.205-.203 0-.101 0-.304.103-.405.102-.101.306-.203.408-.203.205 0 .307 0 .307.102.102.101.102.101.102.304V80.813l-.51.405h1.02c.205 0 .512 0 .716-.1 0 0 2.145-1.014 3.678-1.318l-.102.101c-.102.102-.102.203-.102.304 0 .507.408.81.817.912.204 0 .409.101.51.101.41 0 .716-.1 1.022-.303.307-.203.511-.608.511-1.014 0-.709-.102-1.013-.51-1.216zm-1.226 1.418h-.102c-.102 0-.204-.101-.306-.203V79.597l-.102-.101c.204 0 .408 0 .51-.101h.103c.306 0 .51 0 .51.101.103.101.103.101.103.203-.103.202-.409.405-.716.405zm-10.318-6.992c-.716-.405-1.43-.608-2.146-.506-2.043.101-2.963 1.216-3.27 1.925-.101.203-.204.507-.204.71v.202s.103.101.205.101c.817-.101 1.226.304 1.226.304-.715.304-.92.71-.92 1.419v3.85h.205c1.021 0 1.021-.608 1.021-.608v-3.242c0-.71 1.328-1.419 1.328-1.419s-.408-.71-1.532-.912c.204-.304.715-.912 1.941-1.013 2.043-.101 2.452 1.52 2.452 1.824v4.864s0 .607 1.022.607h.204v-5.167c.204-2.027-1.43-2.939-1.532-2.939zm20.024 0c-.715-.405-1.43-.506-2.145-.506-2.044.101-2.963 1.216-3.27 1.925 0 .101-.102.101-.102.203-.102.202-.102.405-.102.506v.202s.102.102.204.102h.716c.306.102.51.203.51.203-.715.304-.919.71-.919 1.418V79.7c0 .1 0 .202-.102.304-.102.1-.205.1-.307.1-.204 0-.306-.1-.408-.202-.103-.101-.103-.304-.103-.405 0-.101.103-.203.205-.304h.408c.205 0 .307-.101.307-.203 0-.101-.102-.202-.204-.405-.103-.101-.205-.101-.409-.101-.51 0-.92.304-1.124.709-.204.101-.204.304-.204.507 0 .304.102.709.408.912.307.304.716.405 1.226.405.103 0 .307 0 .41-.101.203 0 .51-.102.714-.304.511-.304.511-.71.511-.71v-2.837c0-.71 1.328-1.418 1.328-1.418s-.408-.71-1.532-.912c.204-.304.715-.912 1.941-1.014 2.043-.1 2.452 1.52 2.452 1.824v4.864s0 .608 1.022.608h.204V76.05c.102-2.027-1.533-2.939-1.635-2.939z"/>
    </g>
</svg>
