<svg width="118" height="118" viewBox="0 0 118 118" xmlns="http://www.w3.org/2000/svg">
    <path d="M18.586 97.82c.438.009.976.009 1.277-.093.375-.13.627-.413.627-.863 0-.327-.11-.65-.399-.833-.29-.168-.74-.168-1.505-.146v1.935zm0-3.138c.41 0 .94 0 1.186-.113a.887.887 0 0 0 .514-.821c0-.655-.486-.847-1.031-.847-.17 0-.454.016-.669.016v1.765zm-1.678 4.267-.07-.044c.025-1.427.034-2.853.034-4.29 0-1.388-.01-1.763-.051-2.73l.059-.058 1.407-.023c.344-.004.95-.02 1.3-.02.983 0 1.633.126 2.056.574.325.363.399.808.399 1.13 0 .231-.04.471-.153.705-.264.536-.67.722-1.005.866.21.032.427.073.618.176.57.281.842.875.842 1.521 0 .567-.173 1.23-.842 1.707-.75.526-1.907.503-2.843.486h-1.751zm9.025-2.622c-.681.088-1.475.196-1.475.865 0 .418.3.61.664.61.332 0 .603-.138.81-.258v-1.217zm1.652.358c0 .95 0 1.2.073 2.194l-.054.07c-.654-.012-.876 0-1.599.029l-.057-.073v-.372c-.215.174-.643.539-1.403.539-.978 0-1.756-.7-1.756-1.781 0-.454.192-1.029.754-1.378.605-.374 1.17-.48 2.377-.65 0-.148-.028-.334-.134-.433-.134-.129-.284-.192-.653-.192-.675 0-1.323.258-1.679.404l-.08-.04.054-1.106.06-.075c.567-.172 1.099-.332 1.966-.332 1.287 0 1.694.402 1.888.73.262.419.262.818.253 1.723l-.01.743zm5.764 2.25c-.801 0-.972.014-1.639.031l-.054-.061c0-.346.004-.692.004-1.036 0-.386-.004-1.765-.03-2.103-.034-.36-.078-.953-.636-.953-.316 0-.561.168-.77.311.005 1.804.017 2.2.08 3.752l-.063.059c-.806 0-.95 0-1.672.031l-.067-.061c.011-.645.024-1.295.024-1.93 0-1.648-.064-2.285-.14-3.16l.06-.073c.753-.102.922-.131 1.696-.294l.099.069-.018.556c.464-.273.999-.593 1.608-.593.362 0 .94.082 1.245.602.253.416.263.876.273 1.853v.78c.022.99.022 1.271.07 2.161l-.07.059zm14.303-5.446c.26 0 .782.02 1.222.192 1.407.559 1.407 2.19 1.407 2.582 0 1.517-.567 2.808-2.698 2.808-1.44 0-1.933-.547-2.193-.948-.375-.541-.474-1.195-.474-1.838 0-1.86.993-2.796 2.736-2.796zm-6.04-2.592.082.064a96.027 96.027 0 0 0-.073 3.808v1.123c.13-.194.232-.347.327-.494l.113-.178a56.8 56.8 0 0 0 .91-1.547l.099-.074 1.638-.02.047.102c-.713.919-.78 1.02-1.472 1.966.76 1.382.86 1.563 1.807 3.168l-.072.09-1.806.073-.093-.061c-.508-1.073-.618-1.297-1.498-2.909l.01 1.16.063 1.71-.063.071h-.436c-.437.002-.667.007-1.186.029l-.073-.073c.012-1.629.012-3.27-.01-4.904-.02-1.321-.05-1.79-.118-2.776l.057-.069 1.747-.259zm6 3.627c-.319 0-.58.186-.734.457-.199.352-.199 1-.199 1.293 0 .979.186 1.322.358 1.492a.81.81 0 0 0 .566.232c.831 0 .94-.92.94-1.744 0-.545-.045-1.122-.289-1.415a.867.867 0 0 0-.642-.315zm8.446 4.38-1.813.074-.085-.061c-.513-1.073-.625-1.297-1.499-2.909l.012 1.16.053 1.71-.053.071c-.763 0-.959 0-1.63.029l-.072-.073c.013-1.629.013-3.27-.01-4.904a39.182 39.182 0 0 0-.117-2.776l.062-.069 1.746-.259.074.064c-.045 1.515-.053 1.92-.065 3.808v1.123c.459-.699.564-.855 1.342-2.22l.11-.073 1.634-.02.05.102c-.712.919-.781 1.02-1.477 1.966.765 1.382.864 1.563 1.808 3.168l-.07.09zm4.435-7.05c-.031 1.393-.047 2.784-.047 4.177 0 1.462.016 1.925.065 2.85l-.055.068c-.834 0-1.042 0-1.796.029l-.047-.062c.042-1.048.056-1.663.056-2.852 0-2.575-.029-3.093-.087-4.178l.045-.059c.718.01.95.01 1.82-.028l.046.055zm5.92 7.08c-.8 0-.974.015-1.643.032l-.056-.061c0-.346.012-.692.012-1.036 0-.386-.012-1.765-.03-2.103-.033-.36-.084-.953-.636-.953-.325 0-.564.168-.776.311a77.02 77.02 0 0 0 .087 3.752l-.064.059c-.806 0-.957 0-1.682.031l-.057-.061c.007-.645.02-1.295.02-1.93 0-1.648-.062-2.285-.14-3.16l.06-.073c.754-.102.925-.131 1.694-.294l.105.069-.023.556c.463-.273.996-.593 1.603-.593.368 0 .942.082 1.254.602.25.416.26.876.272 1.853v.78c.017.99.017 1.271.068 2.161l-.068.059zm3.54-3.287c.554.216 1.332.504 1.332 1.617 0 .073 0 .143-.014.22-.18 1.444-1.69 1.587-2.453 1.587-.731 0-1.157-.166-1.646-.343l-.053-.094c.043-.502.053-.616.068-1.141l.091-.039c.154.117.233.191.41.283.364.188.776.28 1.06.28.56 0 .792-.27.792-.524 0-.365-.44-.513-.707-.604l-.388-.146c-.471-.173-1.308-.5-1.308-1.581 0-.407.141-.7.275-.885.523-.755 1.502-.797 2.001-.797.647 0 1.067.12 1.53.253l.057.059-.102 1.097-.096.033c-.244-.167-.638-.419-1.25-.419-.628 0-.703.327-.703.446 0 .286.269.396.61.521l.494.177zm6.75-2.015c-.024.948-.032 1.893-.032 2.844 0 1.312.02 1.694.073 2.41l-.065.063c-.651 0-.87 0-1.606.029l-.07-.062.007-.453c-.355.282-.767.609-1.482.609-.505 0-.994-.167-1.315-.539-.368-.422-.416-.888-.4-1.984v-.707c0-1.02-.016-1.305-.07-2.149l.07-.061 1.65-.082.078.082-.03 2.036c-.002.256-.002.515-.002.768 0 .593 0 1.36.717 1.36.278 0 .488-.15.762-.334.002-.403.002-.56.002-.858 0-.16 0-1.774-.065-2.91l.065-.062 1.642-.082.07.082zm6.725-.143c1.283 0 1.687.402 1.886.73.214.349.25.684.254 1.31v.413l-.012.743v.497c.003.582.014.902.069 1.697l-.054.07c-.649-.012-.867 0-1.592.029l-.063-.073v-.372c-.21.174-.641.539-1.398.539-.983 0-1.757-.7-1.757-1.781 0-.454.187-1.029.756-1.378.602-.374 1.164-.48 2.37-.65 0-.148-.03-.334-.128-.433-.133-.129-.285-.192-.655-.192-.671 0-1.327.258-1.68.404l-.081-.04.052-1.106.064-.075c.572-.172 1.1-.332 1.97-.332zm-4.146-.04.08.078-.037.934c.326-.748.791-.98 1.2-.98.071 0 .14.008.212.008l.055.073-.278 1.646-.092.042c-.14-.088-.24-.143-.413-.143-.684 0-.684.66-.684 1.116 0 .696.068 1.833.11 2.653l-.056.073c-.799-.014-.967 0-1.709.029l-.058-.061c.025-.84.026-1.664.026-2.493 0-1.403-.026-1.855-.09-2.61l.064-.066c.736-.108.926-.137 1.67-.3zm4.627 2.878c-.683.088-1.476.196-1.476.865 0 .418.295.61.665.61.33 0 .604-.138.811-.258v-1.217zm7.313 2.608c-.81 0-.977.014-1.638.031l-.067-.061c0-.346.013-.692.013-1.036 0-.386-.013-1.765-.028-2.103-.035-.36-.083-.953-.64-.953-.32 0-.561.168-.767.311.003 1.804.018 2.2.077 3.752l-.059.059c-.802 0-.954 0-1.677.031l-.06-.061c.01-.645.014-1.295.014-1.93 0-1.648-.058-2.285-.14-3.16l.065-.073c.753-.102.92-.131 1.698-.294l.1.069-.018.556c.455-.273.996-.593 1.603-.593.367 0 .938.082 1.247.602.253.416.26.876.277 1.853v.78c.018.99.018 1.271.065 2.161l-.065.059zm4.726-1.391-.043 1.213-.063.058c-.42.12-.762.227-1.293.227-2.261 0-2.86-1.58-2.86-2.734 0-1.033.46-2.828 2.821-2.828.582 0 .966.12 1.41.262l.047.058c-.08.532-.092.675-.133 1.214l-.102.028c-.3-.203-.54-.36-.978-.36-.978 0-1.297.846-1.297 1.58 0 .602.228 1.558 1.365 1.558.51 0 .773-.168 1.044-.327l.082.051zm3.747-1.937c0-.23-.009-.475-.156-.692-.107-.186-.303-.355-.641-.355a.72.72 0 0 0-.399.107c-.382.248-.452.666-.481.98l1.677-.04zm1.44 1.876-.076 1.146-.053.078c-.534.21-.9.365-1.736.365-.72 0-2.09-.123-2.666-1.49-.167-.347-.25-.844-.25-1.32 0-1.743 1.05-2.782 2.625-2.782.232 0 .462.018.716.087.34.082 1.116.324 1.47 1.516.138.51.146 1.01.161 1.504l-.063.07-3.245.054c.04.207.066.414.22.626.239.356.652.548 1.252.548.74 0 1.193-.233 1.57-.43l.076.028zm-64.324.226c-1.065 0-1.06-1.302-1.06-1.575 0-.618.238-1.534 1.361-1.534.087 0 .192 0 .291.015l.026 2.896c-.202.118-.356.198-.618.198m2.287-1.568a60.9 60.9 0 0 1 .059-2.631l-.074-.068c-2.385-.026-3.158-.026-3.979.483-.899.578-1.12 1.65-1.127 2.417 0 1.395.72 2.575 2.226 2.575.612 0 .95-.201 1.228-.372h.007l-.009.162c-.016.556-.032.897-.288 1.182-.231.235-.554.277-.794.277-.69 0-1.066-.31-1.228-.447l-.109.023a4.543 4.543 0 0 1-.117.554c-.041.16-.093.314-.144.468l.033.094c.21.122.443.259.988.37.351.054.703.098 1.041.098.875 0 1.61-.28 1.985-.908.178-.307.26-.699.297-1.149l.008.003c-.003-.101-.003-.504-.003-.803h.007c-.012-.776-.012-1.55-.007-2.328m13.682-14.78v4.947l-1.443-4.452h-.325l-1.425 4.5v-4.995h-2.596v.145c.307.263.476.66.48.97v3.615c0 1.015.027 1.834 1.845 1.834h1.065l.787-2.912.906 2.912h1.252c.601 0 1.594-.306 1.594-1.353V81.36h-2.14zm-13.778 5.47-.007-5.461h-2.072v6.548h2.594v-.127c-.348-.179-.515-.615-.515-.96m-12.98-3.689c-.125-.207-.125-.477.004-.63.041-.066.224-.353.94-.353.698 0 1.902.44 1.958.459v-1.233a6.335 6.335 0 0 0-1.896-.294c-.593 0-1.122.09-1.585.26-.943.334-1.401.878-1.532 1.811-.014.15-.105.966.49 1.562.635.637 1.604.612 1.811.624.407.023.837.045 1.202.228.254.094.445.405.418.708-.026.32-.257.56-.627.633-.215.05-.435.076-.66.076-1.165 0-2.384-.732-2.404-.747v1.385c.034.009.094.037.18.063.944.346 2.061.452 3.283.303.771-.12 1.359-.454 1.732-.995.465-.617.528-1.659.149-2.365-.19-.346-.533-.68-1.147-.899-.694-.245-1.467-.189-1.816-.27-.366-.085-.475-.28-.5-.326m18.73-1.911c-1.365 0-2.525 1.594-2.525 1.594V81.36h-2.49v.147c.18.16.409.486.44.986v5.418h2.05v-2.128c0-.832.065-1.428.371-1.902 0 0 .685-.984 1.229-.984.551 0 .619.521.619.681v4.34h2.058v-4.717c0-.74-.382-1.97-1.752-1.97m20.316 1.911c-.113-.207-.113-.477.01-.63.04-.066.222-.353.941-.353.7 0 1.899.44 1.96.459v-1.233a6.347 6.347 0 0 0-1.901-.294c-.588 0-1.114.09-1.582.26-.942.334-1.396.878-1.527 1.811-.021.15-.113.966.484 1.562.635.637 1.61.612 1.81.624.414.023.836.045 1.202.228.255.094.44.405.42.708-.026.32-.259.56-.626.633-.212.05-.437.076-.656.076-1.168 0-2.388-.732-2.406-.747v1.385c.034.009.093.037.177.063.938.346 2.06.452 3.282.303.77-.12 1.356-.454 1.738-.995.463-.617.52-1.659.144-2.365-.191-.346-.534-.68-1.14-.899-.701-.245-1.472-.189-1.816-.27-.372-.085-.489-.28-.514-.326m19.803 4.806c-.652 0-.91-.675-.91-.675s-.664.896-2.12.896c-.398 0-.816-.07-1.203-.192-.713-.25-1.044-1.012-1.06-1.65V82.56c0-.049-.123-.698-.431-1.015v-.184h2.532v4.888c0 .238.205.652.893.652.694 0 1.418-.664 1.418-1.738v-3.767h2.115v6.552H84.87zM35.89 82.42c-.064-.133-.296-.7-.783-1.009-.456-.29-1.163-.325-1.39-.315-.597.007-1.117.282-1.158.282v1.24c.23-.013 1.445-.536 1.445 1.56v.66c-.013.527-.05.96-.123 1.219-.092.285-.355.586-.62.746a.83.83 0 0 1-.51.141c-.192-.016-.214-.148-.246-.216-.071-.172-1.047-4.827-1.047-4.827l-1.71 1.035s.848 3.163 1.044 3.91c.223.852 1.048 1.225 1.934 1.225.887 0 1.77-.206 2.41-.776.354-.318.62-.693.78-1.12.124-.313.15-.678.15-.908v-1.632c.004-.416-.026-.81-.176-1.215m-15.876-1.368c-2.893 0-3.34 1.296-3.34 1.296l1.035.694s-.788.304-.788 1.312v3.577h2.114v-4.093c.04-.398.533-.678.533-.678l-.457-.384c.12-.37.415-.643.944-.643.68 0 1 .52 1 1.19v4.608h2.147v-5.145c0-.894-.803-1.734-3.188-1.734m55.228 0c-2.818 0-3.248 1.296-3.248 1.296l1.035.694s-.791.304-.791 1.312v3.577h2.119v-4.084c.023-.402.53-.687.53-.687l-.457-.387c.123-.366.4-.64.974-.64.823 0 1.045.627 1.045 1.19v4.608h2.148v-5.145c0-.792-.585-1.734-3.355-1.734M59.12 88.059c1.577-.056 3.183-.28 3.183-1.84v-7.397h-2.145v7.057c0 .923-.502 1.038-1.015 1.038-.527 0-.987-.293-.987-.967v-4.59h-2.58v.1c.183.164.43.492.43.826v3.933c0 1.642 1.849 1.795 3.059 1.84h.055zm39.118-1.014c-.325.14-.816.097-1.182-.11-.533-.422-.568-1.185-.376-1.71.223-.437.604-.619 1-.745v-.922c-.146.003-.29.032-.433.052-.066.012-.127.015-.191.024a.631.631 0 0 1-.473-.245.775.775 0 0 1-.1-.614.662.662 0 0 1 .289-.453.986.986 0 0 1 .5-.134c.377 0 .671.264.671.264V81.37c-.153-.054-.666-.24-1.577-.169-1.193.096-1.587.674-1.738 1.042-.208.44-.115 1.047.226 1.448.129.131.181.19.458.353l.164.093-.176.084s-.122.065-.28.164c-.51.323-.656 1.256-.56 1.773.075.769.745 1.527 1.512 1.737a7.202 7.202 0 0 0 1.775.227c.814 0 1.602-.145 2.274-.425.53-.288.998-.746.998-1.698v-4.603h-2.127v4.72c0 .32-.279.801-.654.93m-8.007-5.995c-2.813 0-3.243 1.296-3.243 1.296l1.034.694s-.792.304-.792 1.312v2.425c-.018.123-.144.701-.433 1v.152h1.98c.54 0 .573-.797.573-.797v-2.962l.009-.293c0-.419.53-.719.53-.719l-.463-.39c.122-.372.399-.637.968-.637.828 0 1.044.627 1.044 1.19v4.608h2.148v-5.145c0-.792-.579-1.734-3.355-1.734m-63.808 7.88v.357s.02.006.058.006c.21 0 .432.128.432.43v1.47h1.904v-1.568c0-.491-.315-.696-.71-.696h-1.684zm51.855-9.399c-.225 0-.443-.02-.654-.07-.365-.075-.598-.309-.622-.625v-.085h-1.81c.054.3.165.57.327.794.38.528.954.856 1.713.981 1.204.139 2.302.043 3.234-.308v-1.318c-.374.197-1.295.631-2.188.631m14.944 0c-.222 0-.442-.02-.656-.07-.365-.075-.597-.309-.62-.625v-.085h-1.808c.053.3.163.57.329.794.373.528.95.856 1.712.981 1.2.139 2.299.043 3.23-.308v-1.318c-.381.197-1.296.631-2.187.631M71.405 82.63l-.068.03c-.584.189-1.063.291-1.348.291-.432 0-.685-.297-.698-.311l-.096-.113-.124.043v1.044l.017.047.012.015c.033.044.355.404.89.404.313 0 .81-.114 1.415-.308v-1.142zm0 2.723-.068.03c-.584.192-1.063.293-1.348.293-.432 0-.685-.3-.698-.311l-.096-.11-.124.04v1.047l.017.044.012.015c.033.04.355.398.89.398.313 0 .81-.107 1.415-.308v-1.138zM42.579 39.314a.808.808 0 0 0-.8-.803c-.433 0-.78.371-.78.803 0 .446.347.794.78.794.445 0 .8-.348.8-.794m38.284 3.822s-.073.357-.337.83h.02c-.06.142-.153.283-.256.41-.333.47-.879 1.013-1.708 1.442-.102.05-.178.09-.248.131-.174.076-.325.12-.512.202-.793.292-1.825.52-3.108.559h-.737c-.72.032-1.427.038-2.14.083-2.48 0-4.771.394-6.654 1.764-1.547.993-2.794 2.56-4.287 3.58-3.182 2.563-8.013 3.281-11.898 1.777-2.346-.87-4.703-2.755-5.99-5.016-1.065-1.768-1.662-3.71-2.102-5.724-.512-1.542-2.147-2.979-3.762-3.205.124-.232.283-.46.464-.667 1.457-1.708 3.634-2.556 5.793-1.92 1.776.521 2.553 2.448 3.278 3.893.367.61 1.06 1.31 1.897 1.31.545-.009 1.085-.412 1.288-.924.244-.824-.312-1.466-.713-2.094-1.312-1.565-3.197-3.293-2.105-5.414.946-1.567 2.615-2.554 4.321-2.912 0 0 1.46-.288 2.228-.288h17.942c1.407-.077 2.704-.502 3.977-1.178l.033-.027c-.037 1.47-1.074 2.72-2.334 3.324-.623.287-1.893.632-2.521.632l-15.336-.025c-.384.056-.789.157-.94.541-.128.189-.092.516.042.703.254.355.557.379.994.379l15.66-.024c1.297-.028 2.337-.51 3.36-1.008.11.339-.292 1.056-.56 1.508-1.195 1.504-2.8 2.173-4.63 2.256H58.25c-.464 0-.844.314-.956.67-.016.216-.016.456.167.63.297.284.65.3 1.086.3h10.511c1.461 0 2.797-.423 4.111-.846-.038.73-.669 1.306-1.161 1.871-1.515 1.408-3.47 1.793-5.584 1.748h-5.618c-.45 0-.686.093-.939.372-.176.163-.184.553-.075.747.206.326.66.44 1.014.44h16.177c.393 0 1.721-.084 3.88-.83m4.17 2.184c0-14.492-11.728-26.292-26.142-26.292-14.41 0-26.132 11.8-26.132 26.292 0 4.971 1.387 9.783 4.013 13.968a9.611 9.611 0 0 1 3.126-.514c2.882 0 5.186 1.281 7.219 2.43.626.335 1.199.647 1.759.918.94.464 3.483 1.537 6.675 1.537 2.618 0 5.105-.74 7.34-2.173.72-.477 1.467-.994 2.184-1.493l.58-.387c2.65-1.886 5.408-3.837 8.586-4.704a12.56 12.56 0 0 1 3.454-.497c1.738 0 3.487.372 5.289 1.119a26.065 26.065 0 0 0 2.05-10.204M82.34 56.931c-1.582-.633-3.1-.954-4.608-.954-4.215 0-7.755 2.494-11.186 4.912a80.837 80.837 0 0 1-2.82 1.91 14.869 14.869 0 0 1-8.175 2.406c-3.536 0-6.316-1.181-7.378-1.677-.55-.27-1.114-.583-1.702-.903-2.038-1.139-4.065-2.281-6.573-2.281-.713 0-1.438.1-2.192.326.303.427.623.835.967 1.275 1.683.076 3.469.603 5.337 1.56l1.691.885c4.228 2.218 6.98 3.688 11.613 3.688 3.736 0 7.76-2.47 11.318-4.65 1.362-.824 2.688-1.657 3.9-2.268 1.922-.94 3.855-1.431 5.7-1.431.789 0 1.573.092 2.33.264a26.434 26.434 0 0 0 1.778-3.062M79.558 61.4a8.59 8.59 0 0 0-1.334-.108c-1.608 0-3.305.427-5.011 1.275-1.069.558-2.306 1.302-3.698 2.157-3.745 2.299-7.972 4.907-12.2 4.907-5.053 0-7.947-1.53-12.342-3.859l-1.669-.885c-1.04-.51-2.034-.91-3.017-1.143 4.915 4.994 11.634 7.859 18.604 7.859 8.037 0 15.734-3.82 20.667-10.203m7.833-16.079c0 15.784-12.766 28.625-28.5 28.625-15.704 0-28.49-12.841-28.49-28.625 0-15.804 12.786-28.646 28.49-28.646 15.734 0 28.5 12.842 28.5 28.646" fill="#F1EFE3" fill-rule="evenodd"/>
</svg>
