<svg width="118" height="118" viewBox="0 0 118 118" xmlns="http://www.w3.org/2000/svg">
    <g fill="#F1EFE3" fill-rule="nonzero">
        <path d="M69.88 96.143 67.312 91.9h-1.557v7.133h1.352V94.46l2.771 4.575h1.354v-7.133h-1.354v4.242zm-6.828 2.891h1.621v-7.133h-1.62v7.133zm-5.744-4.239h-2.164v-2.894h-1.623v7.133h1.623v-2.891h2.164v2.891h1.621v-7.133h-1.621v2.894zm-18.388 4.24h1.621V91.9H38.92v7.133zm8.72-7.134h-1.554L44.6 94.53 43.044 91.9H41.22l2.431 4.109v3.024h1.623V96.01l1.759-3.03.607-1.079zm1.827 4.242h-.746l.746-2.29.81 2.29h-.81zm0-4.242h-.676l-1.758 5.319-.609 1.814h1.351l.544-1.614h2.295l.61 1.614h1.69l-2.436-7.133h-1.011zm-13.183 2.894c-.201.135-.405.202-.743.202h-1.217v-1.615h1.15c.405 0 .677.07.878.135.202.136.27.336.27.671 0 .271-.136.474-.338.607zm1.624.609c.202-.338.337-.674.337-1.08 0-.47-.068-.807-.204-1.142-.133-.336-.403-.539-.676-.74-.27-.203-.607-.337-1.013-.403-.27-.07-.541-.138-.879-.138h-2.772v7.133h1.623v-2.69h1.15l1.148 2.69h1.69l-1.218-3.024c.34-.138.607-.338.814-.606zm68.473-1.55c.137-.201.272-.337.407-.472.204-.13.405-.2.677-.268.27 0 .403.068.607.137.136.066.27.2.407.334.066.202.202.338.27.539 0 .2.066.405.066.606l1.556-.201a5.95 5.95 0 0 0-.337-1.147c-.138-.335-.271-.604-.54-.872-.207-.202-.543-.405-.882-.541-.27-.132-.676-.2-1.147-.2-.542 0-1.015.068-1.42.27-.336.2-.676.47-.948.875-.271.337-.404.671-.538 1.143a5.012 5.012 0 0 0-.206 1.412 5 5 0 0 0 .206 1.413c.134.406.334.809.606 1.145.204.336.544.673.948.809.405.198.879.335 1.352.268.47 0 .809-.07 1.147-.203.34-.135.61-.268.881-.538.202-.201.403-.471.541-.807.202-.336.268-.674.337-1.075l-1.488-.205c0 .205-.068.335-.135.539 0 .137-.136.337-.203.473-.136.132-.204.202-.405.336-.134.067-.338.067-.54.067-.339 0-.542-.067-.746-.201-.201-.137-.336-.27-.404-.475a3.144 3.144 0 0 1-.27-.739c-.067-.266-.067-.604-.067-.872 0-.27 0-.539.066-.812.068-.268.134-.535.202-.739zm-4.257 2.289L99.623 91.9H98v7.133h1.351V94.46l2.84 4.575h1.353v-7.133h-1.42v4.242zm8.988 2.891h4.734v-1.343h-3.109v-1.548h2.5v-1.348h-2.5v-1.544h3.109v-1.35h-4.734v7.133zm-16.964-2.891h-.745l.745-2.29.742 2.29h-.742zm0-4.242h-.676l-2.434 7.133h1.418l.542-1.614h2.3l.606 1.614h1.69l-2.5-7.133h-.946zm-11.492 4.71c0 .138-.067.27-.067.404 0 .205-.069.273-.202.405-.068.07-.203.204-.34.204a1.36 1.36 0 0 1-.608.133c-.202 0-.406-.066-.54-.133-.204-.068-.34-.134-.407-.271-.066-.065-.134-.2-.204-.401v-5.05H78.6v4.511c0 .402.068.74.136 1.077.065.334.201.605.404.873.204.2.473.403.811.538.337.203.813.27 1.354.27.538 0 .946-.067 1.284-.203.334-.132.609-.335.811-.536.202-.203.404-.473.473-.808.132-.271.132-.609.132-.943v-4.78h-1.35v4.71zm-5.612-1.343c-.269-.202-.54-.27-.809-.403-.271-.07-.61-.203-.879-.203a1.227 1.227 0 0 0-.474-.133c-.135-.07-.338-.07-.472-.135-.203-.135-.34-.206-.34-.337a.428.428 0 0 1 0-.404c.07-.136.137-.27.34-.336.134-.066.337-.135.54-.135.338.07.54.135.743.27.133.065.27.268.405.536l1.42-.335c-.202-.672-.474-1.077-.946-1.414-.474-.27-1.013-.402-1.622-.402-.337 0-.676.064-.948.132a4.73 4.73 0 0 0-.809.403c-.272.204-.407.406-.61.675-.132.27-.201.606-.201.94 0 .472.132.808.27 1.079.202.268.406.468.675.673.34.133.608.27.947.334.339.07.608.137.878.203.27.068.541.137.674.27.207.065.342.203.342.406a.702.702 0 0 1-.342.604 3.495 3.495 0 0 1-.944.135c-.675.066-1.15-.27-1.35-.942l-1.488.336c.066.335.203.672.407.942.201.202.403.47.607.606.27.203.54.335.877.401.272.07.609.07 1.015.07.338 0 .674 0 1.083-.136a2.1 2.1 0 0 0 .877-.405c.272-.2.473-.401.676-.671.134-.268.203-.604.203-1.01 0-.401-.069-.74-.203-1.01-.134-.2-.338-.468-.542-.604zm11.627-.473a1.362 1.362 0 0 1-.744.202h-1.283v-1.615h1.217c.339 0 .609.07.81.135.206.136.27.336.27.671 0 .271-.064.474-.27.607zm1.556.609c.202-.338.339-.674.339-1.08.065-.47 0-.807-.203-1.142-.136-.336-.338-.539-.677-.74a2.343 2.343 0 0 0-.948-.403c-.336-.07-.606-.138-.945-.138H85.02v7.133h1.623v-2.69h1.149l1.147 2.69h1.76l-1.286-3.024c.34-.138.61-.338.813-.606zm-77.737-.609h-2.164v-2.894h-1.62v7.133h1.62v-2.891h2.164v2.891h1.623v-7.133H12.49v2.894zm13.991 1.886-1.486-4.78h-1.689l2.3 7.133h1.486l2.296-7.133h-1.485l-1.422 4.78zm-11.355 2.353h4.8v-1.343H16.75v-1.548h2.567v-1.348H16.75v-1.544h3.176v-1.35h-4.8v7.133zM2.825 93.317h1.758v5.717h1.621v-5.717h1.758v-1.416H2.825v1.416zm27.243 5.717h1.62v-7.133h-1.62v7.133zm51.237-10.698v-8.007c0-1.212-.406-2.019-1.286-2.625-.743-.604-1.89-.807-3.244-.807-1.014 0-2.094.203-3.244.604-.948.406-1.693.742-2.094 1.08v1.21c.199 0 .54.065.945.2l.201.068c-.336.27-.606.606-.811.942-.202.405-.335.942-.335 1.55v5.785h2.77V80.8c0-.606.203-1.077.607-1.411.406-.408 1.012-.541 1.625-.541.743 0 1.281.203 1.69.604.269.338.403.742.403 1.348v7.535h2.773zm6.488.136c.339-.136.61-.27.812-.471.54-.404.947-1.01 1.35-1.819l.137 2.154h2.433V77.1h-2.772v6.258c0 .872-.201 1.48-.607 2.085-.408.471-.813.806-1.353.942h-.405c-.61 0-1.15-.203-1.42-.739-.271-.403-.339-.875-.339-1.549V77.1h-2.77v7.805c0 1.144.406 2.019 1.146 2.76.748.603 1.624.943 2.706.943.405 0 .745-.07 1.082-.136zM12.558 74.139H3.57l-.813 1.681h9.8v-1.68zm11.017 0h-8.989l-.811 1.681h9.8v-1.68zm89.567 2.961v7.2c0 .737-.067 1.278-.339 1.614-.27.471-.81.673-1.553.673-.813 0-1.421-.202-1.757-.606-.407-.335-.542-.738-.542-1.21v-.134c0-.136 0-.204.068-.204.067-.604.336-.942.81-1.142.272-.203.678-.203 1.283-.203v-1.551c-.605 0-1.148-.13-1.619-.335-.61-.268-.881-.672-.881-1.143v-.203c0-.403.136-.603.34-.804.202-.203.541-.203.877-.203.338 0 .812.067 1.283.335l.475-1.683c-.405-.2-.744-.4-1.216-.47-.542-.068-1.016-.068-1.556-.068-.88 0-1.486.204-2.027.673-.609.474-.88 1.213-.88 2.022 0 .739.067 1.276.339 1.68.271.605.676.943 1.218 1.144-.34.2-.542.405-.745.606a2.437 2.437 0 0 0-.745 1.75c0 1.344.543 2.286 1.49 2.895.876.603 2.162.94 3.717.94 1.69 0 2.907-.405 3.716-1.076.676-.673 1.083-1.616 1.083-2.896v-7.6h-2.84zm-66.11 11.572h.406c.813 0 1.488-.064 2.029-.2a4.25 4.25 0 0 0 1.824-.943c.676-.671 1.014-1.68 1.014-2.96V72.39h-2.77v12.311c0 .138 0 .204-.068.336-.068.473-.203.811-.609 1.08-.338.268-.879.403-1.489.403h-.336c-.542-.067-1.014-.203-1.354-.403-.336-.339-.538-.741-.538-1.416v-7.6h-2.772v7.467c0 1.346.404 2.29 1.014 2.961.745.74 1.96 1.079 3.65 1.143zm52.996-13.323c.544.338 1.148.471 1.757.471h5.544V74.07h-4.124c-.541 0-.947-.065-1.42-.334-.472-.27-.743-.538-.81-.806l-1.96 1.343c.067.338.405.742 1.013 1.077zm-23.39 0c.544.338 1.151.471 1.826.471h5.476V74.07h-4.055c-.54 0-1.014-.065-1.487-.334-.407-.27-.678-.538-.812-.806l-1.893 1.343c.068.338.34.742.945 1.077zm23.186 3.5c.748 0 1.285.203 1.624.604.272.338.472.742.472 1.348v7.535h2.773v-8.007c0-1.212-.474-2.019-1.284-2.625-.812-.604-1.893-.807-3.313-.807-.945 0-2.027.203-3.18.604-1.012.406-1.687.742-2.162 1.08v1.21c.204 0 .475.065.812.065.137.07.204.136.406.203-.406.27-.675.606-.81.942-.204.405-.408.942-.408 1.55v4.24h-.606v1.545h3.445V80.8c0-.606.204-1.077.61-1.411.405-.408.948-.541 1.621-.541zM65.42 80.597c.54.404 1.08.605 1.62.605h2.637v-2.085h-1.824c-.407 0-.812-.135-1.081-.471a.796.796 0 0 1-.338-.606l-2.03 1.413c.203.403.473.81 1.016 1.144zm-42.181 2.556c-.338-.47-.744-.807-1.219-1.005-.472-.268-1.283-.473-2.433-.742-1.757-.335-2.704-.809-2.704-1.347 0-.335.204-.606.406-.806.34-.2.813-.337 1.555-.337.54 0 1.014.136 1.354.337.267.2.472.603.54.942l2.568-.404a3.873 3.873 0 0 0-1.621-2.222c-.813-.469-1.76-.74-2.841-.74-1.42 0-2.569.338-3.38 1.078-.743.674-1.15 1.613-1.15 2.824 0 .471.137 1.012.407 1.417.405.47.812.872 1.354 1.143.335.2 1.35.47 3.109.875 1.147.267 1.756.673 1.756 1.21 0 .402-.203.741-.677 1.01-.267.134-.742.201-1.284.201-.743 0-1.35-.134-1.826-.405-.471-.2-.743-.604-.878-1.145l-2.568.473c0 .268.068.607.272 1.01.335.604.742 1.077 1.417 1.413.879.539 2.028.74 3.516.74 1.42 0 2.636-.337 3.515-1.008.88-.674 1.35-1.616 1.35-2.826 0-.609-.202-1.144-.538-1.686zm14.938 1.686c-.269-.202-.408-.474-.408-.673l-2.027 1.344c.137.471.475.875 1.016 1.28.473.334 1.011.539 1.622.539h2.638v-2.086H39.19a1.38 1.38 0 0 1-1.013-.404zM7.015 86.79c-.608 0-1.15-.338-1.624-.877-.404-.538-.606-1.075-.606-1.614l-2.568.337c.336 1.211.878 2.22 1.687 2.96.881.739 1.962 1.143 3.314 1.143 1.758 0 3.175-.539 4.19-1.682.946-1.077 1.421-2.421 1.421-4.105 0-1.751-.408-3.097-1.352-4.241-1.014-1.21-2.501-1.815-4.394-1.815a5.346 5.346 0 0 0-3.312 1.143c-1.014.809-1.554 1.816-1.757 2.961l2.569.27c.135-.674.337-1.212.877-1.613a2.403 2.403 0 0 1 1.69-.676c1.013 0 1.758.408 2.164 1.213.404.606.609 1.48.609 2.487 0 1.147-.136 2.02-.476 2.694-.471.94-1.284 1.415-2.432 1.415zM34.73 84.7v-7.6h-2.84v7.2c0 .736-.067 1.277-.336 1.613-.27.471-.812.673-1.555.673-.811 0-1.352-.202-1.759-.606-.405-.335-.537-.738-.537-1.21v-.134c0-.136 0-.204.064-.204.068-.604.34-.942.812-1.142.272-.203.677-.203 1.284-.203v-1.551a4.07 4.07 0 0 1-1.623-.335c-.607-.268-.878-.672-.878-1.143v-.203c0-.403.136-.603.341-.804.201-.203.537-.203.876-.203.34 0 .81.067 1.284.335l.474-1.683c-.338-.2-.745-.4-1.217-.47-.473-.068-1.013-.068-1.555-.068-.879 0-1.487.204-2.028.673-.54.474-.879 1.213-.879 2.022 0 .739.134 1.276.338 1.68.27.605.676.943 1.217 1.144-.337.2-.54.405-.742.606-.475.468-.679 1.078-.679 1.75 0 1.344.473 2.286 1.421 2.895.88.603 2.165.94 3.786.94 1.623 0 2.838-.405 3.65-1.076.676-.673 1.081-1.616 1.081-2.896zm34.948 2.628v-2.086h-1.824c-.407 0-.745-.137-1.081-.404-.205-.202-.338-.474-.338-.673l-2.03 1.344c.203.471.473.875 1.016 1.28.54.334 1.08.539 1.62.539h2.637zM38.11 78.646c-.202-.135-.34-.403-.34-.606l-2.028 1.413c.137.403.475.81 1.016 1.144a2.424 2.424 0 0 0 1.622.605h2.638v-2.085H39.19c-.473 0-.81-.135-1.08-.471zm24.942 4.507c-.406-.47-.743-.807-1.216-1.005-.473-.268-1.284-.473-2.435-.742-1.758-.335-2.703-.809-2.703-1.347 0-.335.205-.606.404-.806.341-.2.813-.337 1.555-.337.543 0 1.014.136 1.354.337.27.2.473.603.54.942l2.568-.404a3.87 3.87 0 0 0-1.62-2.222c-.812-.469-1.69-.74-2.842-.74-1.417 0-2.569.338-3.377 1.078-.745.674-1.151 1.613-1.151 2.824 0 .471.136 1.012.472 1.417.339.47.745.872 1.286 1.143.34.2 1.42.47 3.11.875 1.149.267 1.757.673 1.757 1.21 0 .402-.202.741-.677 1.01-.269.134-.742.201-1.283.201-.745 0-1.35-.134-1.825-.405-.474-.2-.743-.604-.88-1.145l-2.568.473c0 .268.068.607.271 1.01a3.562 3.562 0 0 0 1.42 1.413c.876.539 2.096.74 3.516.74 1.418 0 2.635-.337 3.515-1.008.876-.674 1.35-1.616 1.35-2.826 0-.609-.202-1.144-.54-1.686zM73.907 19.126c4.796 0 8.688 3.92 8.688 8.655v29.012c0 4.74-3.892 8.652-8.688 8.652H44.826c-4.795 0-8.685-3.912-8.685-8.652V27.781c0-4.735 3.89-8.655 8.685-8.655h29.081zm-5.382 19.776-3.77 5.835 2.197 3.364-3.81 5.835h-7.585l-3.775-5.835 2.201-3.364-3.77-5.835-6.016 9.199 7.585 11.629h15.17L74.54 48.1l-6.014-9.198zm-9.157-14.058-3.811 5.837L56.85 32.6l-.63.976-1.293-1.956-3.146 4.856 4.44 6.771V51h6.29v-7.753l4.44-6.77-3.182-4.857-1.259 1.956-.628-.976 1.26-1.918-3.775-5.837z"/>
    </g>
</svg>
