<svg width="118" height="118" viewBox="0 0 118 118" xmlns="http://www.w3.org/2000/svg" xmlns:xlink="http://www.w3.org/1999/xlink">
    <defs>
        <path id="grnpt6sz6a" d="M0 0h6.61v7.515H0z"/>
        <path id="j3n83kpf9c" d="M0 0h6.61v7.515H0z"/>
        <path id="bvcmkx3kve" d="M0 0h6.735v9.95H0z"/>
        <path id="quna7dkxvg" d="M0 0h6.61v7.515H0z"/>
        <path id="kl1bl9qldi" d="M0 0h6.749v7.723H0z"/>
        <path d="M0 29.639a5.17 5.17 0 0 0 1.515 3.656l12.347 9.916V18.136L.002 0 0 29.639z" id="kzn1imu2fk"/>
        <path d="M0 0v4.488l21.365 27.913 6.321 8.272.008-22.574L17.472 4.728l-1.715-2.245A6.321 6.321 0 0 0 10.737 0H0z" id="vmy4pj2bmm"/>
        <path d="M13.862 0C6.207 0 .002 6.206.002 13.86v4.274L0 40.636V47.7l12.347-9.916c.052-.052.099-.109.148-.163l.058-.042c.121-.122.218-.258.305-.4a5.163 5.163 0 0 0 1.004-3.051V0z" id="nxskhyqz0o"/>
        <path d="M0 13.308c0 1.685.166 3.334.482 4.926L13.997 35.92V13.337L3.804 0A25.062 25.062 0 0 0 0 13.308" id="wikkvhstaq"/>
    </defs>
    <g fill="none" fill-rule="evenodd">
        <path d="M38.178 83.773V67.818h1.878c.764 0 1.478.381 1.903 1.016l7 10.445h.13V67.82h1.616c1.051 0 1.904.852 1.904 1.904v15.954h-1.884a2.25 2.25 0 0 1-1.872-1.002l-7.025-10.537h-.13v11.54h-1.616a1.904 1.904 0 0 1-1.904-1.905M75.632 83.773V67.818h1.89c1.052 0 1.904.853 1.904 1.905v15.954h-1.89a1.904 1.904 0 0 1-1.904-1.904M69.511 72.461c.753-.503.844-1.558.351-2.318-1.077-1.66-3.194-2.69-5.925-2.69-3.781 0-6.764 1.949-6.764 5.455 0 3.035 2.093 4.448 4.605 4.985l2.683.615c1.805.405 2.72.994 2.72 2.21 0 1.388-1.124 2.33-3.23 2.33-2.264 0-3.455-1.178-3.56-2.5h-1.377c-.553 0-1.1.295-1.439.724-.225.284-.353.554-.351.92.002.446.088.696.252.977.252.43.568.82.935 1.155.914.837 2.1 1.303 3.308 1.522.675.122 1.362.171 2.048.171 4.422 0 7.157-2.158 7.157-5.665 0-3.244-2.211-4.514-4.828-5.076l-2.708-.602c-1.597-.327-2.434-1.02-2.434-2.054 0-1.374 1.138-2.237 2.97-2.237 2.054 0 3.085 1.15 3.188 2.396h1.35c.39 0 .75-.117 1.05-.318" fill="#F1EFE3"/>
        <g transform="translate(16.766 96.59)">
            <mask id="b1br170xrb" fill="#fff">
                <use xlink:href="#grnpt6sz6a"/>
            </mask>
            <path d="M.738 6.826C.246 6.366 0 5.715 0 4.87V.417C0 .278.032.174.097.104S.27 0 .417 0h.418c.287 0 .431.139.431.417v4.467c0 .576.14.993.418 1.253.278.26.714.39 1.308.39.399 0 .78-.086 1.141-.258.362-.171.654-.392.877-.661.223-.269.334-.547.334-.835V.417c0-.139.032-.243.097-.313S5.613 0 5.761 0h.418c.287 0 .431.139.431.417v6.5c0 .13-.026.227-.076.291-.051.065-.142.098-.272.098h-.39c-.138 0-.234-.026-.284-.077-.052-.05-.077-.141-.077-.271V6.29c-.64.816-1.582 1.225-2.825 1.225-.807 0-1.457-.23-1.948-.69" fill="#F1EFE3" mask="url(#b1br170xrb)"/>
        </g>
        <path d="M23.07 94.641a.817.817 0 0 0 .251-.598.795.795 0 0 0-.25-.591.83.83 0 0 0-.6-.244.83.83 0 0 0-.598.244.794.794 0 0 0-.25.591c0 .232.083.431.25.598.168.167.367.25.599.25a.817.817 0 0 0 .598-.25m-1.74.536c-.305-.301-.458-.68-.458-1.134 0-.455.153-.835.459-1.141a1.55 1.55 0 0 1 1.14-.46c.465 0 .852.154 1.163.46.31.306.466.686.466 1.141 0 .455-.155.833-.466 1.134-.31.302-.698.452-1.162.452-.455 0-.835-.15-1.141-.452M28.136 103.506v-4.648c0-.538-.1-.923-.3-1.155-.2-.232-.568-.348-1.106-.348-.594 0-1.132.125-1.614.376a1.157 1.157 0 0 1-.153.055c-.065 0-.12-.055-.167-.167l-.21-.5a.323.323 0 0 1-.013-.098c0-.046.019-.086.056-.118a.67.67 0 0 1 .139-.09c.557-.288 1.238-.432 2.046-.432.872 0 1.52.204 1.948.612.427.408.64 1.035.64 1.879v4.634c0 .26-.134.39-.403.39h-.46c-.269 0-.403-.13-.403-.39M31.635 103.568c-.44-.357-.66-.878-.66-1.565 0-.816.268-1.396.806-1.74.538-.343 1.285-.514 2.241-.514h2.519v-.599c0-.621-.163-1.078-.488-1.37-.324-.293-.881-.439-1.67-.439a5.74 5.74 0 0 0-2.295.473.347.347 0 0 1-.153.042c-.056 0-.117-.056-.182-.167l-.236-.46a.332.332 0 0 1-.042-.139c0-.064.056-.125.167-.18a5.256 5.256 0 0 1 1.26-.39c.486-.093.99-.14 1.51-.14.676 0 1.252.084 1.725.251.25-.176.515-.334.793-.473a3.28 3.28 0 0 1 .654-.264.671.671 0 0 1 .209-.028.23.23 0 0 1 .125.028c.028.018.051.055.07.111l.195.543c.009.028.013.065.013.111 0 .074-.046.13-.138.167l-.905.417-.028-.013c.454.482.682 1.178.682 2.087v4.161c0 .14-.033.243-.097.313-.065.07-.172.104-.32.104h-.418c-.288 0-.431-.139-.431-.417v-2.755h-2.478c-.62 0-1.092.095-1.412.285-.32.19-.48.517-.48.98 0 .799.454 1.198 1.364 1.198.37 0 .705-.056 1.002-.167a.44.44 0 0 1 .125-.028c.065 0 .111.051.14.153l.124.445c.01.019.014.047.014.084 0 .074-.041.13-.125.167a2.39 2.39 0 0 1-.654.194c-.27.047-.557.07-.863.07-.668 0-1.222-.179-1.663-.536M32.136 95.087c-.06-.056-.09-.158-.09-.307v-.208c0-.158.028-.265.084-.32.055-.056.162-.084.32-.084h5.065c.149 0 .255.033.32.098s.098.166.098.306v.208c0 .14-.033.24-.098.3s-.171.09-.32.09H32.45c-.149 0-.253-.028-.314-.083" fill="#F1EFE3"/>
        <g transform="translate(39.797 96.59)">
            <mask id="dcvjmmsrsd" fill="#fff">
                <use xlink:href="#j3n83kpf9c"/>
            </mask>
            <path d="M.738 6.826C.246 6.366 0 5.715 0 4.87V.417C0 .278.032.174.097.104S.27 0 .417 0h.418c.287 0 .431.139.431.417v4.467c0 .576.14.993.418 1.253.278.26.714.39 1.308.39.399 0 .78-.086 1.141-.258.362-.171.654-.392.877-.661.223-.269.334-.547.334-.835V.417c0-.139.032-.243.097-.313S5.613 0 5.761 0h.418c.287 0 .431.139.431.417v6.5c0 .13-.026.227-.076.291-.051.065-.142.098-.272.098h-.39c-.138 0-.234-.026-.284-.077-.052-.05-.077-.141-.077-.271V6.29c-.64.816-1.582 1.225-2.825 1.225-.807 0-1.457-.23-1.948-.69" fill="#F1EFE3" mask="url(#dcvjmmsrsd)"/>
        </g>
        <g transform="translate(48.272 94.154)">
            <mask id="st4ijtku5f" fill="#fff">
                <use xlink:href="#bvcmkx3kve"/>
            </mask>
            <path d="M.856 9.233C.286 8.756 0 8.103 0 7.278V2.853c0-.279.14-.418.417-.418H.85c.148 0 .255.035.32.105.065.07.097.174.097.313v4.55c0 .52.182.912.543 1.176.362.265.881.397 1.559.397.677 0 1.197-.132 1.558-.397.362-.264.543-.656.543-1.176V.418c0-.14.033-.244.097-.314.066-.07.172-.104.32-.104h.418c.287 0 .431.14.431.418v6.86c0 .826-.285 1.478-.856 1.955-.57.478-1.408.717-2.511.717-1.104 0-1.942-.239-2.512-.717" fill="#F1EFE3" mask="url(#st4ijtku5f)"/>
        </g>
        <path d="M58.09 103.972a5.042 5.042 0 0 1-1.26-.383.465.465 0 0 1-.202-.146c-.032-.05-.03-.113.008-.188l.222-.5c.037-.103.093-.154.167-.154.046 0 .102.014.167.042.278.14.63.253 1.057.34.428.09.85.133 1.267.133.594 0 1.05-.074 1.37-.222a.77.77 0 0 0 .48-.752c0-.269-.074-.485-.222-.647-.148-.162-.366-.306-.654-.432-.287-.125-.756-.299-1.405-.521-.752-.25-1.318-.531-1.698-.842-.38-.311-.57-.75-.57-1.315 0-.64.263-1.134.793-1.482.528-.348 1.252-.522 2.17-.522.53 0 .981.04 1.357.118a5.02 5.02 0 0 1 1.12.383c.14.065.21.14.21.222 0 .056-.01.098-.029.126l-.208.459c-.047.102-.103.153-.167.153a.54.54 0 0 1-.153-.042 4.546 4.546 0 0 0-.974-.313 5.564 5.564 0 0 0-1.156-.118c-.575 0-1.009.076-1.3.23-.293.152-.44.415-.44.786 0 .241.068.44.203.598.134.158.322.29.563.397.241.106.617.248 1.127.424l.307.111c.593.205 1.055.4 1.384.585.33.185.575.408.738.668.162.26.244.584.244.974 0 .612-.267 1.092-.8 1.44-.534.348-1.265.522-2.193.522a8.55 8.55 0 0 1-1.523-.132M64.122 102.97c-.14-.134-.209-.355-.209-.661v-.807c0-.14.021-.234.063-.285.042-.051.132-.077.271-.077h.432c.14 0 .23.026.27.077.043.05.063.15.063.299v.779a12.143 12.143 0 0 1 1.852-.153c.148 0 .243.02.285.063.041.041.062.132.062.271v.404c0 .102-.025.176-.076.222-.051.047-.141.07-.271.07h-2.032c-.334 0-.57-.067-.71-.202m0-3.632c-.14-.134-.209-.355-.209-.66v-.808c0-.14.021-.234.063-.285.042-.051.132-.077.271-.077h.432c.14 0 .23.026.27.077.043.05.063.15.063.299v.78a12.117 12.117 0 0 1 1.852-.154c.148 0 .243.02.285.062.041.042.062.133.062.272v.403c0 .103-.025.177-.076.223-.051.047-.141.07-.271.07h-2.032c-.334 0-.57-.067-.71-.202M69.104 103.791c-.065-.07-.098-.174-.098-.313v-4.272l-.375-.863a.865.865 0 0 1-.111-.362c0-.102.037-.185.11-.25 1.03-.9 2.208-1.35 3.535-1.35 1.178 0 2.037.269 2.575.807.538.538.807 1.257.807 2.157v4.133c0 .14-.033.243-.097.313-.065.07-.172.104-.32.104h-.418c-.288 0-.431-.139-.431-.417v-4.175c0-.649-.17-1.134-.508-1.454-.34-.32-.88-.48-1.622-.48-.464 0-.895.07-1.294.209a3.24 3.24 0 0 0-1.03.57l.237.515c.074.167.128.313.16.438.032.126.049.29.049.495v3.882c0 .278-.144.417-.432.417h-.417c-.149 0-.255-.034-.32-.104M72.568 94.94c-.138-.153-.208-.396-.208-.73v-.668c0-.158.028-.267.083-.327.056-.06.163-.09.32-.09h.348c.14 0 .235.03.286.09.05.06.076.17.076.327v.765c.575-.037 1.2-.072 1.872-.104a34.433 34.433 0 0 1 1.44-.049c.158 0 .258.021.3.063.041.041.062.123.062.243v.376c0 .14-.023.23-.07.272-.046.041-.144.062-.292.062h-3.507c-.334 0-.57-.077-.71-.23" fill="#F1EFE3"/>
        <g transform="translate(77.411 96.59)">
            <mask id="udhnbck3dh" fill="#fff">
                <use xlink:href="#quna7dkxvg"/>
            </mask>
            <path d="M.738 6.826C.246 6.366 0 5.715 0 4.87V.417C0 .278.032.174.097.104S.27 0 .417 0h.418c.287 0 .431.139.431.417v4.467c0 .576.14.993.418 1.253.278.26.714.39 1.308.39.399 0 .78-.086 1.141-.258.362-.171.654-.392.877-.661.223-.269.334-.547.334-.835V.417c0-.139.032-.243.097-.313S5.613 0 5.761 0h.418c.287 0 .431.139.431.417v6.5c0 .13-.026.227-.076.291-.051.065-.142.098-.272.098h-.39c-.138 0-.234-.026-.284-.077-.052-.05-.077-.141-.077-.271V6.29c-.64.816-1.582 1.225-2.825 1.225-.807 0-1.457-.23-1.948-.69" fill="#F1EFE3" mask="url(#udhnbck3dh)"/>
        </g>
        <path d="M85.309 103.819c-.052-.051-.077-.137-.077-.258v-.403c0-.111.023-.192.07-.243.046-.052.13-.077.25-.077h.529c.148 0 .244-.023.285-.07.042-.046.063-.143.063-.292V99.22l-.585-.877a.665.665 0 0 1-.125-.348c0-.102.046-.2.14-.292.955-.881 2.124-1.322 3.506-1.322 1.16 0 2.015.262 2.568.786.552.524.828 1.218.828 2.08v4.231c0 .139-.033.244-.098.313-.065.07-.171.104-.32.104h-.417c-.288 0-.432-.139-.432-.417v-4.175c0-.649-.171-1.134-.515-1.454-.343-.32-.88-.48-1.614-.48-.464 0-.888.07-1.273.209a3.282 3.282 0 0 0-1.009.57l.362.557c.102.148.169.285.202.41.032.126.048.309.048.55v3.298c0 .343-.058.584-.174.724-.116.139-.355.208-.716.208h-1.239c-.12 0-.206-.025-.257-.076M89.782 94.94c-.138-.153-.208-.396-.208-.73v-.668c0-.158.028-.267.083-.327.056-.06.163-.09.32-.09h.348c.14 0 .235.03.286.09.05.06.076.17.076.327v.765c.575-.037 1.2-.072 1.872-.104a34.433 34.433 0 0 1 1.44-.049c.158 0 .258.021.3.063.041.041.062.123.062.243v.376c0 .14-.023.23-.07.272-.046.041-.144.062-.292.062h-3.507c-.334 0-.57-.077-.71-.23" fill="#F1EFE3"/>
        <g transform="translate(94.347 96.38)">
            <mask id="wa5jh81rpj" fill="#fff">
                <use xlink:href="#kl1bl9qldi"/>
            </mask>
            <path d="M.932 7.167C.31 6.796 0 6.21 0 5.413c0-.955.422-1.558 1.266-1.809-.399-.157-.698-.373-.897-.647-.2-.273-.3-.624-.3-1.05 0-.538.184-.99.55-1.357C.986.183 1.49 0 2.13 0c.5 0 .937.083 1.308.25.102.047.165.093.188.14.023.046.02.106-.007.18l-.153.376c-.038.103-.088.153-.153.153a.23.23 0 0 1-.126-.027C2.964.96 2.672.905 2.31.905c-.325 0-.582.095-.772.285-.19.19-.286.452-.286.786 0 .4.13.694.39.884.26.19.654.285 1.183.285h.278c.112 0 .193.021.243.063.051.041.077.118.077.23v.291c0 .205-.107.307-.32.307h-.208c-.557 0-.97.104-1.24.313-.268.208-.403.554-.403 1.036 0 .91.7 1.364 2.102 1.364.76 0 1.306-.174 1.635-.521.329-.348.494-.898.494-1.65V.626c0-.278.139-.417.417-.417h.432c.148 0 .255.034.32.104.064.07.097.174.097.313v3.938c0 .975-.257 1.745-.772 2.31-.515.566-1.385.85-2.61.85-1.001 0-1.814-.186-2.435-.557" fill="#F1EFE3" mask="url(#wa5jh81rpj)"/>
        </g>
        <g transform="translate(38.084 18.165)">
            <mask id="2vk6uu1nwl" fill="#fff">
                <use xlink:href="#kzn1imu2fk"/>
            </mask>
            <path d="M0 29.639a5.17 5.17 0 0 0 1.515 3.656l12.347 9.916V18.136L.002 0 0 29.639z" mask="url(#2vk6uu1nwl)"/>
        </g>
        <path fill="#000" d="M65.805 54.385v.121z"/>
        <g transform="translate(38.115 13.75)">
            <mask id="qsoprmq5dn" fill="#fff">
                <use xlink:href="#vmy4pj2bmm"/>
            </mask>
            <path d="M0 0v4.488l21.365 27.913 6.321 8.272.008-22.574L17.472 4.728l-1.715-2.245A6.321 6.321 0 0 0 10.737 0H0z" mask="url(#qsoprmq5dn)"/>
        </g>
        <g transform="translate(65.805 13.75)">
            <mask id="chfp0gwazp" fill="#fff">
                <use xlink:href="#nxskhyqz0o"/>
            </mask>
            <path d="M13.862 0C6.207 0 .002 6.206.002 13.86v4.274L0 40.636V47.7l12.347-9.916c.052-.052.099-.109.148-.163l.058-.042c.121-.122.218-.258.305-.4a5.163 5.163 0 0 0 1.004-3.051V0z" mask="url(#chfp0gwazp)"/>
        </g>
        <g transform="translate(51.803 18.504)">
            <mask id="r2o3sv5mqr" fill="#fff">
                <use xlink:href="#wikkvhstaq"/>
            </mask>
            <path d="M0 13.308c0 1.685.166 3.334.482 4.926L13.997 35.92V13.337L3.804 0A25.062 25.062 0 0 0 0 13.308" mask="url(#r2o3sv5mqr)"/>
        </g>
        <path d="M38.688 47.022c0 1.417.474 2.677 1.422 3.622l12.172 9.765V35.683L38.53 17.728l.158 29.294z" fill="#F1EFE3"/>
        <path fill="#FFF" d="m65.683 53.762.07-.141.142.07-.07.141z"/>
        <path d="M49.12 12.933c2.017 0 4.032 1.004 5.21 2.675l1.736 2.201 10.195 13.332.167 23.48-7.023-9.096L38.144 17.86v-4.927z" stroke="#1D1D1D" stroke-width=".772" fill="#F1EFE3" fill-rule="nonzero"/>
        <path d="M69.615 17.238c2.626-2.616 6.271-4.171 10.241-3.977v34.076c0 1.2-.346 2.226-1.046 3.255L65.49 61.54V27.178c0-3.887 1.585-7.41 4.125-9.94z" stroke="#1D1D1D" stroke-width=".772" fill="#F1EFE3" fill-rule="nonzero"/>
    </g>
</svg>
