<svg width="118" height="118" viewBox="0 0 118 118" xmlns="http://www.w3.org/2000/svg" xmlns:xlink="http://www.w3.org/1999/xlink">
    <defs>
        <path id="jptvo3kxma" d="M0 0h9.865v10.107H0z"/>
        <path id="01n82qjbnc" d="M0 0h14.778v15.58H0z"/>
    </defs>
    <g fill="none" fill-rule="evenodd">
        <path d="M41.063 25.2c3.297-8.313 13.354-9.942 19.468-9.942h27.255c-2.978 7.508-11.47 9.58-17.592 9.911-.476.033-1.876.051-1.876.051l-27.255-.02zM37.848 43.4c-1.527-5.168 6.117-11.83 17.073-14.88a42.055 42.055 0 0 1 6.55-1.284c-2.683.782-5.337 2.398-6.99 5.556-.547 1.036-3.068 5.995-4.56 8.067-2.144 2.98-3.758 2.918-3.758 2.918 9.889.943 15.363-3.047 17.363-6.839.949-2.018 2.652-5.238 3.43-6.529.916-1.794 1.97-2.657 2.718-3.068 4.134.685 7.08 2.411 7.85 5.013 1.526 5.168-6.117 11.83-17.073 14.88-10.956 3.05-21.076 1.333-22.603-3.834M22.483 77.069v6.478c0 2.617 2.291 3.836 4.947 3.836 2.878 0 5.086-1.117 5.086-3.937v-9.96h-2.6V83.75c0 1.347-1.033 1.779-2.402 1.779-1.482 0-2.432-.636-2.432-2.008V77.07h-2.6zM40.052 80.041h2.516v-.28c0-2.133-2.655-2.972-4.584-2.972-1.872 0-4.583.839-4.583 2.897 0 3.963 7.07 2.59 7.07 4.623 0 1.067-1.397 1.322-2.319 1.322-1.37 0-2.516-.458-2.57-1.855l-2.544-.026c-.112 2.643 2.654 3.583 5.114 3.583 2.292 0 4.807-.814 4.807-3.227 0-3.785-7.015-2.642-7.015-4.396 0-.889 1.062-1.194 1.873-1.194 1.09 0 2.208.382 2.235 1.525M43.937 77.957v1.677c0 .788.447 1.22 1.314 1.22h3.996v-1.295c-3.046 0-3.018.533-3.018-1.602h-2.292zm0 5.285v1.677c0 .788.447 1.22 1.314 1.22h3.996v-1.296c-3.046 0-3.018.533-3.018-1.601h-2.292zM60.951 87.175v-6.448c0-2.591-2.32-3.81-4.946-3.81-2.879 0-5.087 1.091-5.087 3.912v6.346h2.6V80.6c0-1.346 1.033-1.83 2.402-1.83 1.482 0 2.432.61 2.432 1.983v6.422h2.6zM54.528 72.47v1.677c0 .787.448 1.22 1.314 1.22h6.987V74.07h-5.31c-1.006 0-.699-.964-.699-1.6h-2.292zM69.564 85.63c-.504 1.068-2.376 1.677-3.55 1.677-2.822 0-3.94-1.778-3.94-4.116V77.07h2.655v6.173c0 1.296.447 2.134 2.04 2.134 1.733 0 2.795-1.118 2.795-2.667v-5.64h2.57v10.106h-2.57v-1.544zM84.492 87.175v-6.448c0-2.591-2.292-3.81-4.947-3.81-3.885 0-5.086 1.6-5.059 3.886v4.573h-1.508v1.8h4.08V80.6c0-1.346 1.034-1.83 2.403-1.83 1.482 0 2.46.61 2.46 1.983v6.422h2.57zM78.627 72.47v1.677c0 .787.447 1.22 1.314 1.22h6.986V74.07h-5.31c-1.005 0-.698-.964-.698-1.6h-2.292z" fill="#F1EFE3"/>
        <g transform="translate(85.893 77.069)">
            <mask id="u940saz4db" fill="#fff">
                <use xlink:href="#jptvo3kxma"/>
            </mask>
            <path d="M9.865 10.107V0H7.266v8.384H4.164c-.866 0-1.565-.508-1.565-1.321 0-.915.839-1.22 1.705-1.22h2.012V4.37c-1.201 0-3.465.28-3.465-1.372 0-1.753 2.208-1.322 3.493-1.322V0H3.745C1.845 0 .531 1.067.531 2.845c0 .99.615 1.855 1.677 2.16C.978 5.182 0 6.02 0 7.19c0 1.877 1.796 2.863 3.642 2.917h6.223z" fill="#F1EFE3" mask="url(#u940saz4db)"/>
        </g>
        <g transform="translate(22.247 54.675)">
            <mask id="hq90hbered" fill="#fff">
                <use xlink:href="#01n82qjbnc"/>
            </mask>
            <path d="M10.832 10.898c0 1.442-1.39 1.87-3.073 1.87H4.196L4.2 8.684H.244L.236 15.58h9.321c2.65 0 5.221-1.548 5.221-4.215 0-3.163-1.091-4.22-4.121-5.114-2.271-.67-6.68-.969-6.427-2.196.156-.757-.014-.882 2.467-1.208 1.876-.245 7.068.288 7.572.288V.408C13.126.408 11.44 0 7.37 0 2.446 0 .131 1.046 0 3.99c-.045 1.952 1.886 2.995 3.622 3.538 2.826.885 7.209 1.02 7.209 3.37" fill="#F1EFE3" mask="url(#hq90hbered)"/>
        </g>
        <path d="M49.173 67.936c-.756 1.602-3.567 2.518-5.33 2.518-4.238 0-5.917-2.671-5.917-6.18V55.08h3.987v9.27c0 1.945.672 3.204 3.063 3.204 2.602 0 4.197-1.678 4.197-4.005V55.08h3.86v15.175h-3.86v-2.319zM69.49 55.08c-.168 1.908-1.385 4.081-3.567 4.54 2.517.573 3.566 2.746 3.566 4.958 0 4.044-2.769 5.876-7.175 5.876-4.448 0-7.176-1.603-7.176-5.837V55.08h3.903v9.918c0 1.946.965 2.785 3.147 2.785 2.56 0 3.315-1.602 3.315-3.549 0-2.364-1.427-4.041-4.029-4.538 1.93-.725 3.903-2.289 3.903-4.35v-.266h4.112zM75.2 59.773c0-2.595-2.811-1.909-4.867-1.909V55.08h3.356c2.938 0 5.414.839 5.414 3.852v11.323H75.2V59.773zM91.898 70.255h3.86V55.08H91.31c-.461.61-1.133 1.373-2.056 1.373-.881 0-1.595-.763-2.056-1.373-5.33 0-7.05 3.547-7.05 7.935 0 5.34 3.777 7.17 8.938 7.248v-2.71c-3.315 0-5.077-1.716-5.077-4.767 0-1.03.167-4.922 2.056-4.922.63.84 1.762 1.526 2.896 1.526 1.174 0 2.224-.763 2.937-1.564v12.43zM22.483 93.512h73.275V91.4H22.483zM22.483 97.736v.807l1.578-.007v4.225h1.153v-4.225l1.578.007v-.807zM28.193 102.76v-2.61c.175-.166.518-.382.969-.382.35 0 .534.153.534.64v2.353h1.036v-2.479c0-.737-.418-1.21-1.287-1.21-.509 0-.935.237-1.252.46v-1.796h-1.036v5.025h1.036zM34.847 102.76a1.362 1.362 0 0 1-.084-.521v-1.706c0-1.085-.501-1.44-1.67-1.46-.635-.015-1.353.277-1.62.66l.668.424c.2-.23.467-.445.952-.445.368 0 .635.153.635.432v.306c-1.687.167-2.49.598-2.49 1.42 0 .494.393.96 1.178.96.543 0 .936-.146 1.353-.383l.067.314h1.01zm-1.12-.953c-.216.153-.625.383-.951.383-.293 0-.501-.154-.501-.424 0-.51.76-.627 1.453-.738v.779zM36.42 102.76v-2.61c.175-.166.517-.382.968-.382.35 0 .534.153.534.64v2.353h1.036v-2.479c0-.737-.417-1.21-1.286-1.21-.51 0-.952.237-1.336.46v-.392h-.952v3.62h1.035zM43.073 102.76a1.362 1.362 0 0 1-.083-.521v-1.706c0-1.085-.502-1.44-1.67-1.46-.635-.015-1.353.277-1.62.66l.668.424c.2-.23.467-.445.951-.445.368 0 .635.153.635.432v.306c-1.687.167-2.489.598-2.489 1.42 0 .494.393.96 1.178.96.543 0 .935-.146 1.353-.383l.067.314h1.01zm-1.119-.953c-.217.153-.626.383-.952.383-.292 0-.5-.154-.5-.424 0-.51.759-.627 1.452-.738v.779zM47.034 100.04c-.242-.606-.893-.968-1.712-.968-1.177 0-1.887.73-1.887 1.879 0 1.148.71 1.879 1.887 1.879.794.007 1.32-.258 1.737-.904l-.785-.37c-.208.32-.467.578-.918.578-.61 0-.885-.376-.885-1.183s.275-1.183.851-1.183c.501 0 .685.244.852.55l.86-.279zM48.486 102.76v-2.61c.175-.166.518-.382.968-.382.351 0 .535.153.535.64v2.353h1.035v-2.479c0-.737-.417-1.21-1.286-1.21-.51 0-.935.237-1.252.46v-1.796H47.45v5.025h1.036zM55.14 102.76a1.363 1.363 0 0 1-.084-.521v-1.706c0-1.085-.501-1.44-1.67-1.46-.635-.015-1.353.277-1.62.66l.668.424c.2-.23.467-.445.952-.445.367 0 .635.153.635.432v.306c-1.687.167-2.49.598-2.49 1.42 0 .494.393.96 1.178.96.543 0 .935-.146 1.353-.383l.067.314h1.01zm-1.12-.953c-.217.153-.626.383-.952.383-.292 0-.5-.154-.5-.424 0-.51.76-.627 1.453-.738v.779zM56.725 102.76v-2.199c0-.09.45-.584.968-.584.076 0 .134 0 .184.007v-.912c-.618.014-.969.258-1.22.689h-.016v-.621h-.952v3.62h1.036zM58.254 99.14v.695h.602v2.16c0 .515.3.835 1.069.835.284 0 .534-.028.818-.056v-.71c-.15.028-.317.07-.476.07-.259 0-.376-.055-.376-.25v-2.049h.852v-.695h-.852v-1.195h-1.035v1.195h-.602zM64.034 102.76h1.153v-5.024h-1.153zM66.974 102.76v-2.61c.175-.166.517-.382.968-.382.351 0 .535.153.535.64v2.353h1.035v-2.479c0-.737-.417-1.21-1.286-1.21-.51 0-.951.237-1.336.46v-.392h-.952v3.62h1.036zM73.021 99.622c-.375-.369-.951-.55-1.528-.55-.752 0-1.436.375-1.436 1.05 0 1.26 2.171 1.037 2.171 1.657 0 .244-.25.411-.618.411-.443 0-.768-.244-1.01-.522l-.693.432c.384.473.951.73 1.645.73.91 0 1.595-.334 1.595-1.086 0-1.322-2.172-1.058-2.172-1.677 0-.216.184-.355.585-.355.326 0 .602.195.81.383l.651-.473zM76.179 99.14v2.611a1.43 1.43 0 0 1-.97.383c-.35 0-.534-.153-.534-.64V99.14H73.64v2.479c0 .738.417 1.21 1.286 1.21.509 0 .952-.236 1.336-.458v.39h.952V99.14H76.18zM78.927 102.76v-2.199c0-.09.451-.584.969-.584.076 0 .134 0 .184.007v-.912c-.618.014-.969.258-1.22.689h-.016v-.621h-.952v3.62h1.035zM83.634 102.76a1.358 1.358 0 0 1-.083-.521v-1.706c0-1.085-.501-1.44-1.67-1.46-.635-.015-1.354.277-1.621.66l.669.424c.2-.23.467-.445.951-.445.368 0 .635.153.635.432v.306c-1.687.167-2.489.598-2.489 1.42 0 .494.393.96 1.178.96.543 0 .935-.146 1.353-.383l.067.314h1.01zm-1.119-.953c-.217.153-.626.383-.952.383-.292 0-.501-.154-.501-.424 0-.51.76-.627 1.453-.738v.779zM85.299 102.76v-2.61c.175-.166.518-.382.968-.382.351 0 .535.153.535.64v2.353h1.035v-2.479c0-.737-.417-1.21-1.286-1.21-.509 0-.952.237-1.336.46v-.392h-.952v3.62H85.3zM91.848 100.04c-.243-.606-.894-.968-1.712-.968-1.178 0-1.888.73-1.888 1.879 0 1.148.71 1.879 1.888 1.879.793.007 1.32-.258 1.736-.904l-.785-.37c-.208.32-.467.578-.918.578-.61 0-.885-.376-.885-1.183s.275-1.183.852-1.183c.5 0 .684.244.852.55l.86-.279zM93.136 100.506c.017-.502.334-.794.835-.794.501 0 .82.292.835.794h-1.67zm2.622.585v-.356c0-.87-.634-1.67-1.77-1.663-1.177 0-1.887.73-1.887 1.879s.71 1.879 1.837 1.879c.835 0 1.42-.222 1.82-.738l-.751-.39c-.26.252-.484.432-.969.432-.484 0-.885-.292-.902-1.043h2.622z" fill="#F1EFE3"/>
    </g>
</svg>
