<svg width="118" height="118" viewBox="0 0 118 118" xmlns="http://www.w3.org/2000/svg">
    <g fill="none" fill-rule="evenodd">
        <g fill="#F1EFE3">
            <path d="M39.567 88.64h-.038l-3.26-10.416h-4.412V91.97h2.627V80.674l.047-.044 3.704 11.34h2.624l3.71-11.34h.043v11.34h2.635V78.224h-4.412zM55.65 82.064c0-1.497 1.215-1.902 2.162-1.902.954 0 1.92.212 2.78.588l.26-2.26c-1-.337-2.104-.498-3.28-.498-2.421 0-4.803 1.127-4.803 4.192 0 4.554 6.025 3.467 6.025 6.083 0 1.242-1.397 1.77-2.442 1.77-1.086 0-2.167-.338-3.108-.842l-.261 2.478c1.359.335 2.03.53 3.523.53 2.771 0 5.162-1.14 5.162-4.15 0-4.605-6.018-3.602-6.018-5.989M67.21 91.97h2.749V78.224h-2.75zM80.922 86.429h2.761v3.307c-.346.08-.745.152-1.724.152-2.648 0-4.576-2.004-4.576-4.755 0-2.81 1.928-4.766 4.67-4.766 1.751 0 2.636.338 3.406.839l.537.353.22-2.828-.268-.102c-1.066-.362-1.986-.675-3.99-.675-4.307 0-7.322 2.922-7.322 7.11 0 4.334 2.936 7.23 7.311 7.23 1.59 0 2.941-.192 4.133-.593l.24-.098v-7.478h-5.398v2.304zM17.746 106.043H18.9v-4.937h-1.153zM20.974 104.04c0 .21.025.393.08.556.06.164.132.3.232.41a.982.982 0 0 0 .35.257c.136.052.289.09.453.09.196 0 .376-.04.526-.118.149-.088.277-.201.372-.359.104-.15.17-.34.225-.56a3.51 3.51 0 0 0 .079-.751c0-.108-.013-.224-.019-.354-.011-.128-.033-.255-.054-.385a2.659 2.659 0 0 0-.122-.376 1.01 1.01 0 0 0-.548-.545 1.168 1.168 0 0 0-.476-.088c-.118 0-.245.016-.385.05a2.187 2.187 0 0 0-.44.157 2.616 2.616 0 0 0-.905.739l-.553-.554a3.22 3.22 0 0 1 .586-.586 3.16 3.16 0 0 1 .608-.376c.199-.092.4-.162.602-.197.195-.044.383-.058.56-.058.386 0 .717.058 1 .188.284.122.525.293.711.51.198.221.326.485.426.796.097.309.148.647.148 1.018 0 .437-.06.823-.184 1.161-.124.324-.288.61-.498.827-.22.222-.457.385-.745.499-.286.108-.59.163-.914.163-.317 0-.61-.053-.87-.15a1.863 1.863 0 0 1-.7-.47 2.186 2.186 0 0 1-.474-.816c-.122-.332-.175-.73-.175-1.187v-.12c.007-.047.007-.104.022-.175h2.17v.804h-1.088zM24.223 98.733h-1.931c-.077 0-.15.01-.22.022a.659.659 0 0 0-.194.083.42.42 0 0 0-.191.368c0 .044.003.104.032.171a.45.45 0 0 0 .088.189.663.663 0 0 1 .18-.13c.057-.037.13-.07.196-.098.064-.02.138-.041.199-.05.077-.014.136-.02.194-.02.141 0 .273.029.397.067.123.036.252.111.382.215.017-.01.033-.039.05-.074a.354.354 0 0 0 .024-.14v-.07a.365.365 0 0 0-.05-.204h.713c.003.019.016.05.025.076a.763.763 0 0 1 .017.15v.158a.884.884 0 0 1-.062.287.902.902 0 0 1-.383.405c-.09.046-.173.094-.272.12a.26.26 0 0 0-.052.004c-.015.013-.02.013-.03.013 0 0-.016-.013-.022-.016 0 0-.02-.017-.022-.027-.03-.045-.066-.09-.108-.142-.043-.042-.087-.094-.147-.132a1.008 1.008 0 0 0-.2-.108 1.078 1.078 0 0 0-.274-.038c-.06 0-.12.006-.18.024a.751.751 0 0 0-.187.07.632.632 0 0 0-.192.123.966.966 0 0 0-.18.188c-.01.015-.016.02-.016.025-.006.017-.012.017-.012.017-.011.003-.023.003-.023.003-.02 0-.035-.003-.053-.003a1.047 1.047 0 0 1-.289-.129.831.831 0 0 1-.233-.21 1.166 1.166 0 0 1-.159-.31c-.04-.12-.055-.261-.055-.427 0-.18.032-.345.109-.479a.925.925 0 0 1 .3-.33c.127-.076.273-.14.451-.18.182-.04.372-.059.578-.059h2.056l-.254.598zM26.759 104.057c0 .168.035.34.097.492a1.382 1.382 0 0 0 .634.7c.145.066.285.105.442.105a.835.835 0 0 0 .391-.094.675.675 0 0 0 .256-.274c.066-.119.11-.255.143-.418a3.05 3.05 0 0 0 .044-.524v-2.936h1.153v2.827c0 .297-.026.55-.075.778-.05.22-.112.416-.199.578a1.643 1.643 0 0 1-.298.407c-.11.104-.231.199-.356.26a1.748 1.748 0 0 1-.785.182c-.187 0-.347-.028-.514-.075a2.03 2.03 0 0 1-1.06-.805c0 .055-.004.12-.006.194a1.693 1.693 0 0 0-.017.204c0 .08-.008.144-.012.216a1.73 1.73 0 0 0-.01.166h-1.066l.018-.329c.018-.166.03-.337.047-.52.011-.185.014-.381.014-.595v-2.087c0-.153-.003-.28-.008-.405a3.178 3.178 0 0 0-.035-.355c-.008-.11-.028-.223-.039-.329-.02-.1-.036-.203-.049-.312h1.164c.032.141.064.274.072.382.013.114.031.222.035.302.007.1.012.188.019.274v1.991zM33.105 106.043h1.147v-4.937h-1.147zM36.327 104.04c0 .21.033.393.089.556.052.164.126.3.229.41a.91.91 0 0 0 .349.257 1.201 1.201 0 0 0 .974-.028 1.04 1.04 0 0 0 .374-.359 1.6 1.6 0 0 0 .225-.56 3.82 3.82 0 0 0 .073-.751c0-.108-.006-.224-.013-.354a2.6 2.6 0 0 0-.178-.76.906.906 0 0 0-.214-.318.897.897 0 0 0-.338-.228 1.111 1.111 0 0 0-.476-.088 1.67 1.67 0 0 0-.382.05 2.138 2.138 0 0 0-.437.157c-.15.075-.303.167-.46.29-.154.12-.303.271-.447.448l-.552-.553c.188-.24.381-.434.59-.586.195-.157.4-.282.602-.376a2.743 2.743 0 0 1 1.164-.255c.386 0 .711.058 1 .188.287.122.523.293.71.51.192.221.33.485.428.796.098.309.145.647.145 1.018 0 .437-.063.823-.183 1.161-.115.324-.285.61-.502.827a2.012 2.012 0 0 1-.741.499 2.56 2.56 0 0 1-.918.163c-.311 0-.602-.053-.873-.15a1.932 1.932 0 0 1-.697-.47 2.402 2.402 0 0 1-.477-.816 3.794 3.794 0 0 1-.166-1.187c0-.022 0-.062.006-.12 0-.047 0-.104.011-.175h2.169v.804h-1.084zM43.638 106.04v-2.442c-.131 0-.268.005-.419.012a3.998 3.998 0 0 0-.44.058c-.145.02-.296.057-.434.107a1.431 1.431 0 0 0-.37.177.793.793 0 0 0-.265.273.688.688 0 0 0-.106.371c0 .117.035.214.067.3.05.09.109.173.17.243.077.069.151.12.245.152a.676.676 0 0 0 .272.063c.08 0 .158-.005.23-.016.073-.012.134-.036.2-.056l.245.648c-.151.041-.288.085-.425.113a2.15 2.15 0 0 1-1.12-.076 1.833 1.833 0 0 1-.543-.32 1.518 1.518 0 0 1-.348-.45 1.325 1.325 0 0 1-.115-.55c0-.314.077-.581.227-.803.15-.221.365-.404.635-.543a3.37 3.37 0 0 1 .987-.312 8.25 8.25 0 0 1 1.284-.113v-.15c0-.039-.004-.094-.004-.155-.015-.069-.023-.138-.049-.21a.754.754 0 0 0-.104-.201.692.692 0 0 0-.18-.186.974.974 0 0 0-.277-.13 1.459 1.459 0 0 0-.397-.052c-.246 0-.497.04-.773.126a4.2 4.2 0 0 0-.872.41l-.353-.688a4.33 4.33 0 0 1 .5-.268 4.14 4.14 0 0 1 .533-.208c.176-.058.364-.1.561-.128.189-.033.397-.045.616-.045.119 0 .233.004.332.015.1.017.202.043.298.08.079.03.142.064.203.114.053.038.103.077.147.12a.481.481 0 0 0-.017-.112c-.005-.038-.005-.075-.005-.118v-.517h1.077c-.011.09-.011.212-.02.353-.013.132-.017.284-.022.446-.006.154-.01.308-.017.47-.007.161-.007.298-.007.423v3.775h-1.147zM49.54 106.04h-1.15v-4.658c0-.133.012-.26.03-.382a2.523 2.523 0 0 1 .391-.91 2.495 2.495 0 0 1-.277-.124 2.718 2.718 0 0 1-.296-.152c-.103-.053-.202-.108-.303-.159-.1-.058-.192-.11-.286-.161-.09-.054-.17-.106-.255-.156a3.77 3.77 0 0 1-.21-.13l.386-.737c.116.085.235.17.349.246.129.08.25.161.387.238.13.086.274.159.421.239.15.074.31.155.468.23.052-.075.107-.156.18-.241.061-.083.126-.169.199-.258.072-.087.131-.17.214-.25a4.7 4.7 0 0 1 .185-.213l.608.571a3.33 3.33 0 0 1-.242.264c-.08.091-.154.193-.24.298a4.587 4.587 0 0 0-.216.34c-.063.127-.127.26-.185.401a3.329 3.329 0 0 0-.116.476 3.801 3.801 0 0 0-.041.556v4.672zM51.792 104.04c0 .21.03.393.077.556.056.164.131.3.235.41a.933.933 0 0 0 .346.257c.133.052.29.09.45.09.204 0 .375-.04.523-.118a1 1 0 0 0 .376-.359c.101-.15.172-.34.223-.56.05-.223.07-.472.07-.751 0-.108-.003-.224-.01-.354a2.723 2.723 0 0 0-.053-.385 2.889 2.889 0 0 0-.119-.376 1.02 1.02 0 0 0-.215-.317.978.978 0 0 0-.334-.228 1.135 1.135 0 0 0-.474-.088c-.122 0-.249.016-.387.05a2.268 2.268 0 0 0-.896.447c-.162.12-.307.271-.45.448l-.55-.553a3.246 3.246 0 0 1 1.2-.962 2.49 2.49 0 0 1 .597-.197 2.55 2.55 0 0 1 .551-.058c.389 0 .723.058 1.006.188.285.122.523.293.713.51.191.221.332.485.43.796.1.309.138.647.138 1.018 0 .437-.068.823-.177 1.161-.125.324-.297.61-.507.827a2.01 2.01 0 0 1-.738.499c-.289.108-.591.163-.917.163a2.57 2.57 0 0 1-.875-.15 2.033 2.033 0 0 1-.702-.47 2.302 2.302 0 0 1-.465-.816 3.61 3.61 0 0 1-.179-1.187c0-.022 0-.062.007-.12 0-.047.006-.104.013-.175h2.178v.804h-1.085zM59.519 103.285h1.508v-.91a.761.761 0 0 0-.049-.242.701.701 0 0 0-.151-.189.64.64 0 0 0-.235-.111.96.96 0 0 0-.289-.041c-.139 0-.283.02-.426.054a2.72 2.72 0 0 0-.427.14c-.143.066-.28.126-.403.195a4.198 4.198 0 0 0-.318.202l-.348-.721c.101-.067.226-.147.37-.232a4.2 4.2 0 0 1 .457-.211c.172-.07.342-.13.524-.17.182-.043.367-.063.55-.063.286 0 .553.034.79.097.234.067.436.164.596.3.173.121.29.29.377.477.089.199.132.427.132.686v3.494h-1.15v-1.947H59.52v-.808zM59.197 99.446h1.963v-.874h1.13v1.57h-3.391zM67.044 104.297c0 .07 0 .141.017.221.016.078.033.161.064.235a.789.789 0 0 0 .118.228c.058.074.119.138.19.194.08.058.169.1.273.127.105.036.23.052.362.052.131 0 .265-.016.37-.052a.802.802 0 0 0 .464-.32.929.929 0 0 0 .123-.229c.027-.074.048-.157.065-.235.01-.08.017-.151.017-.22v-5.3h1.155v5.061c0 .166-.017.336-.048.502a2.05 2.05 0 0 1-.148.494 2.08 2.08 0 0 1-.275.437c-.114.134-.253.25-.413.35a2.167 2.167 0 0 1-.564.23 2.942 2.942 0 0 1-.746.087c-.275 0-.522-.03-.738-.087a2.227 2.227 0 0 1-.564-.23 1.76 1.76 0 0 1-.685-.787 2.59 2.59 0 0 1-.197-.996v-1.55c0-.153 0-.28-.014-.405 0-.128-.01-.244-.022-.355a3.698 3.698 0 0 0-.049-.329c-.017-.1-.034-.203-.055-.312h1.167c.035.117.057.227.072.335.016.114.028.218.043.313.005.104.012.213.018.31v2.231zM71.608 104.879c.136.107.264.199.386.262.123.067.233.109.342.141.106.025.199.044.29.056.088.008.16.01.214.01.129 0 .246-.02.34-.048a.642.642 0 0 0 .225-.134.507.507 0 0 0 .134-.19c.038-.07.038-.14.038-.216a.494.494 0 0 0-.067-.254.644.644 0 0 0-.17-.203 1.637 1.637 0 0 0-.26-.158c-.106-.043-.211-.086-.316-.132a3.567 3.567 0 0 1-.619-.274 2.178 2.178 0 0 1-.453-.346 1.363 1.363 0 0 1-.282-.44 1.37 1.37 0 0 1-.108-.536c0-.213.051-.414.137-.587.089-.18.216-.331.378-.448a1.84 1.84 0 0 1 .57-.292c.216-.067.453-.095.722-.095.148 0 .293.011.43.041.154.029.292.056.42.107.136.045.262.092.377.141.11.056.204.101.29.14l-.341.727c-.04-.016-.098-.05-.173-.092a2.518 2.518 0 0 0-.286-.121 3.507 3.507 0 0 0-.36-.105c-.134-.02-.265-.041-.415-.041-.11 0-.21.021-.287.04a.646.646 0 0 0-.212.12.544.544 0 0 0-.121.171.522.522 0 0 0-.04.19c0 .082.017.164.057.234a.77.77 0 0 0 .177.194c.074.054.163.112.271.173.101.051.222.102.355.152.238.103.45.203.625.302.176.103.329.21.446.33.112.124.205.263.262.406.063.157.094.323.094.526 0 .207-.039.404-.118.586a1.295 1.295 0 0 1-.342.487c-.166.143-.359.248-.598.337a2.996 2.996 0 0 1-.85.116c-.133 0-.265-.008-.405-.044a1.787 1.787 0 0 1-.414-.107 3.663 3.663 0 0 1-.403-.19 2.573 2.573 0 0 1-.377-.27l.437-.666zM78.225 105.119c-.11.047-.24.089-.399.125a8.019 8.019 0 0 1-.969.183 5.874 5.874 0 0 1-.465.032c-.343 0-.596-.055-.762-.182a.568.568 0 0 1-.225-.534l.002-.13c.013-.052.022-.107.045-.18.023-.069.047-.154.1-.252.039-.095.099-.202.184-.33l.944.303a3.068 3.068 0 0 0-.124.188.32.32 0 0 0-.048.154v.042c.009.016.009.039.027.05.007.008.03.03.062.042.026.007.06.016.109.016.084 0 .176-.009.285-.016.11-.011.22-.034.342-.05a5.692 5.692 0 0 0 .727-.17l.165.709zm0-2.474a3.12 3.12 0 0 1-.399.117c-.15.042-.309.078-.473.109-.166.038-.336.06-.495.076-.165.02-.323.031-.466.034-.343.006-.596-.058-.762-.186-.167-.123-.245-.296-.225-.53l.002-.127c.013-.047.022-.114.045-.187.023-.069.047-.145.1-.24a1.42 1.42 0 0 1 .184-.329l.944.294c-.056.08-.097.141-.124.19a.326.326 0 0 0-.048.158v.042c.009.02.009.033.027.046.007.013.03.028.062.039.026.009.06.01.109.01.084 0 .176-.001.285-.01.11-.011.22-.028.342-.047.12-.013.25-.045.369-.072.127-.029.255-.063.358-.103l.165.716zM79.415 106.04v-2.801c0-.048-.007-.101-.018-.162a.503.503 0 0 0-.218-.336.49.49 0 0 0-.235-.087l-.166-.622c.293-.227.565-.42.819-.556.246-.136.49-.238.71-.312.218-.079.432-.121.622-.144.194-.02.381-.029.549-.029.297 0 .552.03.768.081.228.059.408.136.565.23.15.096.275.213.374.345.102.13.179.271.233.419.061.151.1.304.122.458.022.15.034.311.034.465v3.051h-1.15v-3.19c0-.066-.006-.131-.018-.21a.99.99 0 0 0-.144-.465 1.136 1.136 0 0 0-.164-.199 1.175 1.175 0 0 0-.67-.19c-.267 0-.522.044-.764.125a3.191 3.191 0 0 0-.675.318.975.975 0 0 1 .442.425c.089.19.133.421.133.681v2.705h-1.15zM83.933 100.143H81.31c-.275-.011-.485-.08-.62-.215-.137-.131-.199-.327-.199-.58v-.456h.966v.358c0 .047.013.085.02.11.013.028.034.047.049.065.024.01.056.021.081.021.036 0 .078.01.124.014h2.501l-.299.683zM84.796 102.502c0-.146 0-.273-.009-.398a3.866 3.866 0 0 0-.032-.356c-.014-.114-.026-.222-.04-.328l-.057-.312h1.173c.027.116.053.227.066.335a5.108 5.108 0 0 1 .053.623v1.978c.007.193.02.365.048.524.025.163.073.3.137.418a.731.731 0 0 0 .255.274.852.852 0 0 0 .403.094c.15 0 .296-.039.43-.11.143-.07.267-.166.381-.29.103-.117.195-.258.262-.436.06-.162.093-.342.093-.533v-2.877h1.158v3.588c0 .1 0 .205.005.29 0 .092.007.18.007.277.01.096.016.213.027.33.01.118.016.264.027.447h-1.056c-.005-.073-.013-.143-.013-.199a1.07 1.07 0 0 1-.014-.183 1.328 1.328 0 0 1-.013-.177c0-.065 0-.137-.01-.221-.083.12-.176.239-.282.34a1.761 1.761 0 0 1-.364.277c-.136.08-.279.143-.442.19a1.914 1.914 0 0 1-.519.067c-.12 0-.244-.014-.375-.038a1.782 1.782 0 0 1-.38-.139 1.722 1.722 0 0 1-.358-.246 1.644 1.644 0 0 1-.29-.396 2.514 2.514 0 0 1-.194-.54 3.105 3.105 0 0 1-.077-.731v-1.542zM90.736 103.238c0-.047-.004-.1-.016-.16a.79.79 0 0 0-.067-.177.572.572 0 0 0-.14-.16.61.61 0 0 0-.25-.087l-.16-.622a5.83 5.83 0 0 1 .805-.553c.252-.138.494-.241.707-.315.218-.079.425-.121.617-.144.187-.02.373-.029.54-.029.295 0 .55.029.762.081.22.059.407.138.555.23.157.097.278.213.376.343.098.132.178.273.23.42.053.152.093.296.114.461.016.148.03.31.03.463v3.051h-1.147v-3.19a1.54 1.54 0 0 0-.016-.21 1.024 1.024 0 0 0-.04-.232 1.067 1.067 0 0 0-.092-.233.893.893 0 0 0-.166-.199 1.077 1.077 0 0 0-.266-.132 1.165 1.165 0 0 0-.39-.058c-.263 0-.518.044-.74.125a3.143 3.143 0 0 0-.675.318.93.93 0 0 1 .444.425c.091.19.136.421.136.687v1.454c0 .222-.026.406-.08.564-.056.169-.13.3-.228.408a1.017 1.017 0 0 1-.34.242c-.132.056-.28.078-.435.087-.03 0-.068 0-.135-.009-.07-.005-.139-.015-.214-.022a1.836 1.836 0 0 1-.232-.038.918.918 0 0 1-.204-.042l.178-.694c.087.024.164.055.215.058.055.01.106.01.15.01.049-.002.077-.01.098-.044a.203.203 0 0 0 .056-.08c.01-.039.02-.07.02-.105v-1.892zM95.204 100.143H92.58c-.278-.011-.486-.08-.624-.215-.134-.131-.205-.327-.205-.58v-.456h.979v.358c0 .047.011.085.018.11a.127.127 0 0 0 .042.065c.023.01.057.021.087.021.036 0 .08.01.13.014h2.49l-.293.683zM98.18 105.354c.214 0 .397-.039.535-.09a.885.885 0 0 0 .338-.224.881.881 0 0 0 .178-.314c.031-.13.048-.24.048-.346v-3.274h1.152v3.167c0 .16-.011.323-.044.478-.04.158-.09.307-.162.445a1.646 1.646 0 0 1-.286.39 1.765 1.765 0 0 1-.426.297 2.048 2.048 0 0 1-.577.2 3.645 3.645 0 0 1-.755.071c-.142 0-.299-.006-.458-.042a2.737 2.737 0 0 1-.51-.11 4.397 4.397 0 0 1-.467-.203 2.935 2.935 0 0 1-.4-.29 1.42 1.42 0 0 1-.264-.39 1.123 1.123 0 0 1-.115-.495c0-.158.028-.297.071-.42a1.55 1.55 0 0 1 .18-.342c.081-.1.174-.194.28-.275.092-.082.208-.158.32-.223a1.27 1.27 0 0 1-.318-.168 1.146 1.146 0 0 1-.269-.242 1.243 1.243 0 0 1-.193-.314 1.092 1.092 0 0 1 .062-.907c.094-.151.219-.279.375-.384.149-.111.336-.194.541-.246.21-.054.444-.083.69-.083h.046c.018 0 .039 0 .06.003H97.923l.23.79c-.061-.008-.107-.008-.139-.014-.038-.007-.062-.007-.078-.007-.019 0-.028-.006-.028-.006h-.03c-.1 0-.197.02-.285.044a.819.819 0 0 0-.243.108.483.483 0 0 0-.154.166.378.378 0 0 0-.069.216c0 .088.013.171.046.247a.48.48 0 0 0 .15.176.731.731 0 0 0 .225.121c.09.028.184.045.3.045.023 0 .068 0 .116-.006a.759.759 0 0 0 .188-.039l.23.654a5.02 5.02 0 0 0-.307.092c-.099.03-.196.074-.29.115a3.637 3.637 0 0 0-.255.144.837.837 0 0 0-.208.171.561.561 0 0 0-.138.221.569.569 0 0 0-.057.263c0 .147.036.271.088.371.08.105.157.196.256.263a.81.81 0 0 0 .336.144c.128.036.251.052.375.052"/>
        </g>
        <path d="M34.96 40.156c2.415-2.984 5.235-6.086 8.84-9.535 3.599-3.465 6.813-6.152 9.915-8.484 3.429-2.578 7.806-2.67 11.176-.025 3.113 2.348 6.311 5.04 9.918 8.509 3.6 3.442 6.425 6.525 8.854 9.514 2.85 3.51 2.85 7.217-.006 10.723-2.44 2.979-5.25 6.072-8.854 9.526-3.608 3.463-6.799 6.14-9.905 8.474-3.446 2.59-7.736 2.584-11.17 0-3.105-2.333-6.319-5.035-9.913-8.483-3.602-3.445-6.41-6.527-8.824-9.517-2.69-3.28-2.788-7.465-.032-10.702" stroke="#F1EFE3" stroke-width=".772"/>
        <path d="M32.44 46.204c.316 1.663 1.095 3.074 2.393 4.665 2.424 2.979 5.38 6.061 8.981 9.506 3.595 3.459 6.809 6.15 9.913 8.488 1.451 1.092 3.08 1.735 4.692 1.888-3.307-.796-8.14-5.87-5.582-15.056 2.443-8.74 6.383-15.109 8.347-19.027l.06-.11c4.014-7.528-1.644-10.082-6.066-6.317 3.137-4.33 10.326-11.385 12.826-13.975 2.478-2.588.713-5.242-4.25-3.891-10.198 3.066-22.887 12.652-28.795 23.947-1.988 3.75-2.832 7.03-2.518 9.882" fill="#F1EFE3"/>
    </g>
</svg>
