<svg width="118" height="118" viewBox="0 0 118 118" xmlns="http://www.w3.org/2000/svg">
    <g fill="#F1EFE3" fill-rule="evenodd">
        <path d="M26.174 107.466h-3.396c-2.165.027-3.244-.772-3.244-2.392 0-.504.154-.942.47-1.314.26-.298.571-.507.935-.628a1.536 1.536 0 0 1-.862-.5c-.285-.294-.43-.63-.43-1.001 0-.65.263-1.155.786-1.513.485-.336 1.123-.503 1.913-.503.26 0 .518.02.779.058v1.331a2.673 2.673 0 0 0-.626-.074c-.777 0-1.166.245-1.166.735 0 .593.506.852 1.517.776l.577 1.199c-.656-.055-1.189.037-1.597.284-.406.245-.61.588-.61 1.03 0 .836.648 1.235 1.948 1.198l1.32-.037v-6.426h1.686v7.777zM26.171 98.74h-6.314l.578-1.045h5.736zM27.349 95.167l-.53.944h-3.291v-.39c0-.297-.15-.448-.444-.448h-.428l.521-.981h.995c.582 0 .874.233.874.697v.178h2.303zM33.747 105.096c0 1.65-.851 2.474-2.553 2.474-.806 0-1.54-.296-2.199-.885v.799h-1.687v-7.767h1.687v4.928c0 .372.2.733.601 1.086.403.35.885.525 1.44.525.687 0 1.026-.376 1.026-1.126v-5.411h1.685v5.377z" fill-rule="nonzero"/>
        <path d="M37.672 97.191c-.36.215-.54.539-.54.968v9.297h-1.686V98.31c0-.384.208-.72.623-1.004 0-.145-.14-.218-.413-.218l-.694.53a2.874 2.874 0 0 0-.53-.35 4.812 4.812 0 0 0-1.605-.503l.902-.919c.576.097.99.258 1.253.483l.655-.426c.459-.064.9.017 1.322.237.475.247.713.597.713 1.051M45.695 107.419h-1.684v-6.358l-1.258-.037c-.656-.025-1.218.228-1.684.758a2.7 2.7 0 0 0-.7 1.838c0 .779.207 1.392.62 1.847.416.456 1.006.683 1.77.683.22 0 .449-.018.682-.056v1.325c-.307.029-.608.045-.9.045-1.25 0-2.225-.365-2.917-1.095-.627-.689-.94-1.605-.94-2.75 0-1.111.39-2.05 1.171-2.818.779-.766 1.77-1.144 2.978-1.133l2.862.038v7.713zM47.009 97.695l-.588 1.045h-3.66v-.424c0-.333-.166-.5-.502-.5h-.466l.58-1.065h1.09c.644 0 .967.258.967.767v.177h2.579zM52.111 107.465h1.686v-7.748H52.11zM61.759 105.096c0 1.65-.853 2.474-2.555 2.474-.805 0-1.538-.296-2.2-.885v.799H55.32v-7.767h1.686v4.928c0 .372.2.733.602 1.086.404.35.884.525 1.44.525.683 0 1.026-.376 1.026-1.126v-5.411h1.686v5.377zM61.76 98.708l-6.315.032.578-1.046h2.39v-1.009h1.09v1.01h.578v-1.01h1.68zM60.097 96.112h1.686v-1.584h-1.686zM70.043 103.606c0 1.323-.364 2.341-1.092 3.05-.656.607-1.526.91-2.598.91-1.065 0-1.925-.305-2.584-.92-.74-.714-1.11-1.742-1.11-3.079 0-.462.038-.86.115-1.19h2.966v1.316h-1.394c.011.829.2 1.463.569 1.9.366.44.844.662 1.438.662.614 0 1.1-.23 1.463-.69.362-.457.542-1.116.542-1.977 0-.854-.184-1.512-.557-1.97-.368-.459-.858-.688-1.464-.688-.802 0-1.353.329-1.65.985h-1.81c.259-.783.722-1.375 1.384-1.769.593-.355 1.287-.53 2.076-.53 1.076 0 1.943.317 2.606.952.732.701 1.1 1.715 1.1 3.038M77.723 107.466H76.04v-5.387c0-.403-.173-.709-.516-.918-.281-.176-.635-.264-1.058-.264-.768 0-1.314.23-1.633.691l.845.586c-.448.234-.674.622-.674 1.166v4.126H70.54v-1.236h.778v-2.848c0-.465.229-.796.682-.992l-1.051-.633c.208-.75.682-1.319 1.422-1.702.592-.316 1.291-.472 2.095-.472.876 0 1.612.186 2.206.567.703.432 1.052 1.075 1.052 1.918v5.398zM79.902 97.695l-.578 1.045h-5.339v-1.785h1.696v.74zM85.211 107.466h-3.396c-2.164.027-3.245-.772-3.245-2.392 0-.504.156-.942.47-1.314.26-.298.573-.507.936-.628a1.532 1.532 0 0 1-.86-.5c-.287-.294-.432-.63-.432-1.001 0-.65.262-1.155.785-1.513.486-.336 1.123-.503 1.915-.503.26 0 .519.02.778.058v1.331a2.684 2.684 0 0 0-.626-.074c-.779 0-1.166.245-1.166.735 0 .593.504.852 1.517.776l.577 1.199c-.656-.055-1.187.037-1.598.284-.408.245-.611.588-.611 1.03 0 .836.65 1.235 1.95 1.198l1.32-.037v-6.426h1.686v7.777zM92.786 105.096c0 1.65-.852 2.474-2.555 2.474-.805 0-1.54-.296-2.2-.885v.799h-1.686v-7.767h1.685v4.928c0 .372.201.733.602 1.086.405.35.886.525 1.44.525.684 0 1.027-.376 1.027-1.126v-5.411h1.687v5.377zM98.283 107.466h-1.684v-5.476c0-.706-.489-1.06-1.463-1.06-.618 0-1.181.137-1.684.409V99.99c.49-.249 1.118-.375 1.884-.375 1.966 0 2.947.825 2.947 2.477v5.374z" fill-rule="nonzero"/>
        <path d="M19.985 90.409h78.03V12.43h-78.03V90.41zM98.46 11.543H19.098v79.753h79.804V11.543h-.443z"/>
        <path d="M25.19 68.78h68.159v-.891h-68.16v.89zm-.012 6.38v-4.068h.736L27 74.525l1.057-3.433h.76v4.069h-.542v-3.227l-1.039 3.227h-.488l-1.025-3.178-.015 3.178h-.53zm4.169-1.166v-2.902h.512v2.914c0 .277.107.469.294.649.192.157.41.217.678.217.237 0 .465-.06.638-.217.2-.18.305-.372.305-.649v-2.914h.541v2.902c0 .384-.152.712-.475.95-.29.243-.637.328-1.04.328-.369 0-.688-.074-.949-.291-.313-.242-.469-.565-.504-.987m5.173-2.191-.645 1.697h1.187l-.542-1.697zm-1.704 3.357 1.371-4.068h.626l1.407 4.068h-.587l-.419-1.166h-1.452l-.36 1.166h-.586zm3.794 0v-4.068h.614l1.903 3.324v-3.324h.488v4.069l-.571.026-1.942-3.275v3.249h-.492zm28.767 0v-4.068h.601l1.905 3.324v-3.324h.497v4.069l-.578.026-1.945-3.275v3.249h-.48zm-25.294-2.263c.077-.542.255-.974.538-1.297.334-.385.803-.555 1.408-.555.401 0 .766.106 1.056.361.32.253.453.542.453.903h-.47a.898.898 0 0 0-.342-.506 1.097 1.097 0 0 0-.73-.29 1.41 1.41 0 0 0-.97.374c-.292.288-.44.698-.44 1.24 0 .469.072.843.254 1.106.214.363.576.543 1.06.543.165 0 .334-.014.496-.093.214-.077.38-.208.506-.364.165-.218.25-.471.25-.784v-.071h-1.217v-.481h1.66v2.178h-.372l-.07-.478c-.208.19-.41.332-.647.44-.236.086-.477.15-.706.15-.482 0-.881-.183-1.202-.545-.338-.398-.515-.914-.515-1.553v-.278zm9.316 2.203v-3.624h-1.283v-.431h3.033v.43h-1.206V75.1h-.544zm2.214 0v-4.055h.476v1.696h1.96v-1.696h.485V75.1h-.484V73.26h-1.96V75.1h-.477zm5.166-3.368-.62 1.706h1.163l-.543-1.706zM55.09 75.1l1.364-4.055h.623l1.406 4.055h-.579l-.434-1.168h-1.444l-.365 1.168h-.571zm3.823 0h.5v-4.055h-.5V75.1zm5.146.087h.497v-4.069h-.497v4.069zm4.762-1.35h.506c0 .314.097.565.31.749.205.166.46.24.738.24.24 0 .431-.063.615-.171a.585.585 0 0 0 .334-.47v-.07c0-.324-.219-.542-.616-.651-.379-.11-.759-.215-1.154-.311-.411-.182-.613-.495-.613-.953l.021-.108c0-.313.122-.554.365-.76.227-.189.576-.287 1.02-.287.41 0 .741.098 1.005.287.25.206.384.47.384.842v.075h-.494V72.2a.599.599 0 0 0-.277-.53 1.061 1.061 0 0 0-.64-.194c-.229 0-.432.062-.604.158a.655.655 0 0 0-.264.53c.035.242.254.435.656.543.368.106.728.216 1.104.325.399.18.634.49.673.9v.05c0 .41-.154.724-.482.962-.303.216-.642.312-1.06.312-.422 0-.778-.096-1.057-.339-.329-.227-.482-.587-.482-1.032l.012-.049zm3.53.133V71.08h.517v2.903c0 .278.104.481.3.648.18.159.41.217.661.217.256 0 .478-.058.64-.217a.774.774 0 0 0 .304-.648v-2.903h.545v2.891c0 .395-.16.714-.473.947-.29.244-.617.34-1.028.34-.379 0-.702-.096-.962-.313-.298-.216-.466-.542-.503-.974m3.984-2.421v1.359h1.3l.061.015a.542.542 0 0 0 .404-.216.719.719 0 0 0 .187-.472.674.674 0 0 0-.182-.47c-.12-.141-.324-.216-.582-.216h-1.188zm-.503 3.597V71.08h1.926c.29 0 .514.084.695.278.19.181.304.446.341.768 0 .22-.012.389-.073.519-.082.195-.243.362-.462.496.146.072.268.167.327.298.083.157.13.388.13.688v.265c0 .157.005.264.04.384.026.097.083.18.175.24v.131h-.615c-.057-.141-.093-.384-.093-.73-.017-.315-.032-.531-.077-.662-.085-.195-.268-.325-.546-.374h-1.265v1.766h-.503zm5.25-3.367-.602 1.698h1.155l-.553-1.698zM79.4 75.146l1.37-4.067h.617l1.416 4.067h-.579l-.44-1.176h-1.436l-.366 1.176H79.4zm3.803 0V71.08h.602l1.906 3.313v-3.313h.5v4.067l-.577.014-1.932-3.273v3.26h-.499zm3.428-1.971c0-.349.042-.661.162-.962.118-.352.292-.626.52-.82.286-.242.633-.348 1.046-.348.193 0 .386.022.552.098.228.072.423.214.568.396.217.216.337.518.41.867h-.516a1.299 1.299 0 0 0-.392-.65.955.955 0 0 0-.62-.243c-.313 0-.576.131-.824.4-.24.287-.366.686-.366 1.179 0 .551.11.973.355 1.286.209.277.47.41.786.41.275 0 .54-.098.768-.313a1.07 1.07 0 0 0 .368-.807h.524c-.052.409-.19.771-.483 1.094-.283.339-.656.494-1.088.494h-.082c-.542 0-.975-.204-1.283-.612-.265-.384-.405-.868-.405-1.47m3.795 1.972V71.08h2.654v.434h-2.153v1.326h2.08v.48h-2.08v1.364h2.235v.463h-2.736zM72.403 53.284l-1.038.74v1.409l.72.731h4.131l1.067-.857-1.112-.847h-2.72v-.451l-1.048-.725zm-.265 3.537-3.267 1.21v5.194h-.404l-.73 1.292.73 1.297h1.57l-.011-.03.03.03 1.189-1.186v-5.402l.876-.612.884.612v5.402l1.18 1.186 1.184-1.186V58.03l-3.231-1.21zm9.398-.017 1.208 1.209v6.574l-3.316 1.227-3.302-1.227v-3.17l.698-.695-.698-.677v-2.032l1.215-1.209 1.209 1.209v1.52l1.192 1.189-1.192 1.195v1.537l.878.622.899-.622v-5.441l1.209-1.209zm-44.925.017-1.197 1.177v6.614l3.248 1.202 3.3-1.202V56.89l-1.222-1.189-1.217 1.19v6.53l-.861.614-.863-.613v-5.424l-1.188-1.177zm21.86 8.993 1.188-1.195v-6.607l-3.24-1.224-3.272 1.224v6.607l1.19 1.195 1.197-1.195v-5.417l.876-.614.879.614v5.417l1.182 1.195zm-15.732-2.699h4.076v1.497l1.192 1.202 1.199-1.202v-3.867h-4.084v-1.723l2.891 1.108 1.196-.564V57.99l-3.223-1.17-3.247 1.178v5.117zm8.43-6.327-1.191 1.202v1.585l1.19 1.204 1.2-1.19V57.99l-1.2-1.202zm5.537-3.568-1.04.743v1.414l.721.734h4.145l1.064-.859-1.1-.86h-2.732v-.447l-1.058-.725zm4.937 3.568-1.198 1.21v6.614l1.193 1.202 2.954-1.927v.725l1.189 1.202 1.199-1.202v-6.614l-1.18-1.21-1.208 1.21v3.315l-1.765 1.031v-4.346l-1.184-1.21zm-10.474 5.06-1.191 1.187v1.593l1.19 1.203 1.2-1.18v-1.616l-1.2-1.186zm28.728-12.084 1.923-1.887V37.572l-1.903-1.904-4.674 2.74v-.836l-1.91-1.904-1.895 1.904v10.305l1.897 1.902 1.908-1.902v-5.061l2.77-1.645v6.706l1.884 1.887zM40.136 35.668l-1.875 1.944v6.737l-2.8-1.638v-5.1l-1.894-1.943-1.883 1.944v5.148h-.781l-1.137 2.022 1.137 2.047h.78v1.04l1.884 1.888 1.893-1.889v-1.07l4.676 2.96 1.894-1.89V37.612l-1.894-1.944zm27.436-4.92 2.624 2.652v14.477l-1.901 1.887-1.902-1.887v-13.32h-4.386l-1.927-1.904 1.936-1.906h5.556zm-4.252 4.958 1.885 1.906v10.397l-5.206 1.748-5.152-1.748v-5.817l1.892-1.895 1.882 1.895v3.882l1.394 1.118 1.405-1.118v-8.462l1.9-1.906zm-36.624-.008-1.914 1.913v10.265l1.914 1.93 1.9-1.93V37.611l-1.9-1.913zm64.785-.03 1.897 1.904v10.305l-5.197 1.928-5.178-1.928v-4.968l1.08-1.087-1.08-1.07v-3.18l1.891-1.904 1.905 1.904v2.385l1.865 1.865-1.865 1.876v2.397l1.382.985 1.4-.985v-8.523l1.9-1.904zm-43.069-.023-5.202 1.793v3.182l1.848.661 1.953-.661v-1.284l1.446-.976 1.437.976v6.738l-1.437.952-1.446-.952v-2.307l-1.908-1.896-1.893 1.903v4.235l5.22 1.748 5.259-1.88V37.43l-5.277-1.786zm-6.382-1.072v-4.156l-.967-.929-.97.93-.953-.93-.96.93v1.14l-1.323-.527-5.199 1.709v1.833H42.03z" fill-rule="nonzero"/>
    </g>
</svg>
