<svg width="118" height="118" viewBox="0 0 118 118" xmlns="http://www.w3.org/2000/svg" xmlns:xlink="http://www.w3.org/1999/xlink">
    <defs>
        <path id="1g0xuoq70a" d="M0 0h102.644v12.109H0z"/>
    </defs>
    <g fill="none" fill-rule="evenodd">
        <g transform="translate(7.054 53.304)">
            <mask id="foovwmnnjb" fill="#fff">
                <use xlink:href="#1g0xuoq70a"/>
            </mask>
            <path d="M14.836 2.166V0H2.784C.933 0 0 1.058 0 2.767v6.575c0 1.711.933 2.767 2.784 2.767h12.052V9.947H2.102V2.166h12.734zm8.047 2.782V0h-2.058v12.109h2.058v-5.03H33.85v5.03h2.05V0h-2.05v4.948H22.883zM55.843 0v9.947H45.03V0h-2.05v9.342c0 1.711.929 2.767 2.78 2.767h9.351c1.847 0 2.786-1.056 2.786-2.767V0h-2.055zm21.76 12.109c2.022 0 2.957-.935 2.957-2.54V8.146c0-.446-.138-.654-.436-.932l-1.307-1.246 1.307-1.244c.298-.275.436-.483.436-.932V2.545C80.56.937 79.625 0 77.603 0h-12.63v12.109h12.63zM67.023 5h11.436V2.06H67.023V5zm0 5.05h11.436V7.024H67.023v3.026zm32.67 2.059c2.02 0 2.951-.935 2.951-2.54V8.146c0-.446-.134-.654-.434-.932l-1.307-1.246 1.307-1.244c.3-.275.434-.483.434-.932V2.545c0-1.608-.93-2.545-2.952-2.545h-12.63v12.109h12.63zM89.116 5h11.427V2.06H89.117V5zm0 5.05h11.427V7.024H89.116v3.026z" fill="#F1EFE3" mask="url(#foovwmnnjb)"/>
        </g>
        <path d="M113.264 52.587c-.841 0-1.523.74-1.523 1.66 0 .92.683 1.665 1.523 1.665.844 0 1.53-.745 1.53-1.665 0-.921-.685-1.66-1.53-1.66zm0 .25c.722 0 1.305.627 1.305 1.41 0 .78-.583 1.415-1.305 1.415-.717 0-1.299-.635-1.299-1.415 0-.783.582-1.41 1.299-1.41z" fill="#F1EFE3" fill-rule="nonzero"/>
        <path d="m112.854 54.148.294-.014c.305-.014.494-.156.486-.35-.011-.216-.223-.303-.525-.288a1.644 1.644 0 0 0-.281.037l.026.615zm-.32-.754c.144-.03.352-.055.548-.065.306-.016.505.016.646.102.117.07.184.184.189.316.01.222-.168.378-.398.452v.008c.173.039.282.152.341.327.082.23.145.39.19.455l-.295.013c-.038-.042-.093-.188-.165-.395-.076-.23-.2-.312-.458-.305l-.27.015.031.733-.287.017-.072-1.673z" fill="#F1EFE3"/>
    </g>
</svg>
