<svg width="118" height="118" viewBox="0 0 118 118" xmlns="http://www.w3.org/2000/svg">
    <g transform="translate(23.087 7.696)" fill="#F1EFE3" fill-rule="evenodd">
        <path fill-rule="nonzero" d="M0 56.401h71.826v-.203H0z"/>
        <path d="M2.092 52.081c0 .403-.033.877-.397 1.015l-.036.014v.124h2.07v-.118l-.03-.016c-.477-.279-.485-.624-.485-1.14v-4.494h.832c.31 0 .678.04.796.358l.015.035h.111l.347-1.283H5.2c-.112.056-.244.07-.443.07H.826c-.096 0-.28-.031-.365-.07H.377L0 47.86h.126c.267-.256.689-.393 1.154-.393h.812v4.615zM6.49 47.525a3.323 3.323 0 0 0-1.032 2.395c0 1.98 1.574 3.471 3.663 3.471 2.071 0 3.692-1.545 3.692-3.52a3.31 3.31 0 0 0-.995-2.364c-.674-.669-1.596-1.034-2.598-1.03-1.04-.022-2.01.349-2.73 1.048m.207 2.307c0-1.492 1.01-2.533 2.454-2.533 1.573 0 2.423 1.427 2.423 2.77 0 1.472-.986 2.502-2.403 2.502-1.528 0-2.474-1.422-2.474-2.739M15.366 51.922v-3.97c-.007-.43-.013-1.02.407-1.168l.037-.013v-.124H13.8v.123l.036.014c.422.155.414.74.41 1.168v3.968c.004.43.012 1.02-.41 1.176l-.037.014v.124h2.011v-.124l-.036-.014c-.421-.156-.415-.744-.408-1.174"/>
        <path d="M19.698 53.098c-.524-.256-.882-.535-1.166-.91l-1.967-2.572c.05-.063 2.128-2.726 2.32-2.97h-1.951v.122l.032.014c.147.065.23.147.257.25.06.232-.181.558-.395.842l-.142.192-1.318 1.746 2.22 2.977c.193.262.67.445 1.156.445h.987v-.121l-.033-.015zM20.095 46.647v.123l.035.014c.416.153.408.71.4 1.156v3.99c.005.43.011 1.02-.398 1.166l-.037.013v.125h1.99v-.124l-.037-.014c-.412-.156-.403-.74-.399-1.165V47.96c-.004-.432-.013-1.021.399-1.176l.036-.014v-.123h-1.99zM55.71 46.647v.123l.037.014c.415.153.406.71.399 1.156v3.99c.004.43.011 1.02-.398 1.166l-.038.013v.125h1.99v-.124l-.037-.014c-.412-.156-.403-.74-.399-1.165V47.96c-.004-.432-.013-1.021.399-1.176l.037-.014v-.123h-1.99zM24.107 47.525a3.32 3.32 0 0 0-1.033 2.395c0 1.98 1.575 3.471 3.664 3.471 2.07 0 3.691-1.545 3.691-3.52 0-.889-.353-1.727-.994-2.364-.675-.669-1.597-1.034-2.598-1.03-1.042-.022-2.011.349-2.73 1.048m.207 2.307c0-1.492 1.01-2.533 2.454-2.533 1.574 0 2.424 1.427 2.424 2.77 0 1.472-.99 2.502-2.404 2.502-1.529 0-2.474-1.422-2.474-2.739M40.119 47.305l.65 4.833c.06.454.108.703.482.964l.023.018v.114h-2.018v-.127l.04-.011c.302-.096.366-.342.366-.68l-.537-4.52-2.16 5.5-.06-.045c-.49-.373-.64-.643-.886-1.213l-1.797-4.25-.54 4.07c-.03.209-.054.39-.054.546 0 .277.076.476.341.594l.034.014v.122H32.28v-.11l.018-.019c.388-.338.453-.78.528-1.291l.009-.05.563-4.125.01-.073c.044-.274.093-.579-.288-.784l-.03-.019v-.116h1.844c-.024.143.05.286.132.486l1.802 4.214 1.592-4.045c.08-.208.144-.393.144-.592v-.063h1.824v.127c-.22.023-.334.306-.308.531M45.69 46.647h-1.654v.124l.038.014c.123.035.2.092.239.172.076.16-.021.405-.107.622l-1.722 4.291c-.191.5-.372.977-.879 1.228l-.03.015v.121h1.932v-.124l-.038-.014c-.157-.06-.25-.13-.291-.22a.344.344 0 0 1-.028-.144c0-.15.068-.347.154-.577 0 0 .424-1.14.5-1.353h2.413l.565 1.471c.102.261.163.416.163.527 0 .135-.093.197-.317.298l-.034.014v.122h2.139v-.119l-.031-.017c-.497-.25-.686-.724-.885-1.226l-2.127-5.225zM45 47.69l.886 2.271h-1.78L45 47.691zM50.79 47.439c.24-.039.434-.063.618-.071.356-.016.69.1.916.317.197.187.301.436.301.72 0 .96-1.041 1.26-1.661 1.351l-.087.012.957 1.461c.003.006 1.209 1.492 1.209 1.492.3.37.632.513 1.19.513h1.104l-.164-.103c-.614-.388-1.206-.896-1.59-1.367l-1.37-1.716c.775-.212 1.533-.867 1.533-1.761 0-.998-.825-1.64-2.102-1.64h-2.407v.123l.035.014c.415.153.397.688.397 1.156v4.006c.006.425.018 1.003-.395 1.15l-.037.013v.125h1.998v-.125l-.036-.013c-.374-.132-.41-.61-.41-1.016l.001-4.641zM65.874 46.647v.116l-.026.017c-.486.278-.486.643-.486 1.19v5.601l-.077-.024c-.737-.249-1.045-.598-1.466-1.141 0 0-3.101-3.916-3.288-4.155v3.707c0 .519.008.864.483 1.143l.029.015v.118h-1.86v-.118l.028-.015c.497-.29.497-.653.497-1.202v-3.928c0-.548 0-.913-.487-1.191l-.028-.017v-.116h1.542c-.007.113.157.305.288.473l3.514 4.42V47.91c0-.518-.009-.863-.485-1.13l-.028-.018v-.116h1.85zM70.343 46.647h-3.218v.124l.038.013c.422.155.414.744.41 1.176v3.968c.004.431.012 1.021-.409 1.168l-.039.013v.125h4.217l.484-1.4h-.13l-.016.013a2.42 2.42 0 0 1-1.785.568s-1.11-.107-1.205-.114v-2.226h.706c.297-.001.664-.001.8.248l.014.028h.121v-1.156h-.1l-.01.006c-.108.054-.264.054-.41.054H68.69v-1.727c.31-.05.639-.06.952-.06.422 0 .825.029 1.124.372l.016.02h.114v-1.263h-.1c-.135.072-.286.05-.453.05M1.795 58.803l.03.011c.301.112.295.518.29.845v2.923c.004.315.009.744-.29.851l-.03.01v.097H3.26v-.096l-.028-.01c-.3-.114-.295-.54-.292-.852l.001-.095V59.672c-.004-.314-.01-.745.29-.858l.029-.01v-.097H1.795v.096zM7.79 58.799l.021.012c.355.2.355.458.354.848v2.63l-2.569-3.231-.105-.148a.4.4 0 0 1-.098-.159v-.044H4.25v.092l.022.012c.354.203.354.47.354.87v2.878c0 .401 0 .667-.362.878l-.022.012v.091h1.37v-.09l-.022-.013c-.355-.207-.355-.465-.355-.856v-2.687l2.405 3.037c.309.4.535.655 1.078.837l.057.02V59.68c0-.4 0-.667.355-.87l.022-.012v-.092H7.789v.092zM12 60.731c-.555-.252-1.08-.491-1.08-.92 0-.451.48-.612.89-.612.41 0 .844.173 1.105.441l.076.077v-.955l-.031-.009a3.661 3.661 0 0 0-1.092-.16c-.858 0-1.86.34-1.86 1.298 0 .851.75 1.185 1.413 1.481.554.246 1.077.48 1.077.97 0 .462-.576.707-.992.707-.547 0-1.129-.22-1.556-.589l-.102-.087.245 1.055.023.008c.396.145.837.22 1.31.22 1.095 0 1.985-.69 1.985-1.537 0-.745-.75-1.087-1.41-1.388M22.831 62.46l-1-1.253c.567-.156 1.118-.64 1.118-1.295 0-.732-.605-1.205-1.542-1.205H19.64v.096l.028.011c.303.112.297.519.292.845l-.001.109v2.826c.006.309.012.733-.29.838l-.029.012v.096h1.471v-.096l-.03-.012c-.305-.106-.3-.535-.297-.85v-3.289c.176-.03.316-.045.45-.05.438-.02.889.24.889.756 0 .701-.76.92-1.215.988l-.067.01.705 1.077.884 1.09c.22.27.465.376.873.376h.819l-.141-.06c-.388-.132-.871-.677-1.15-1.02"/>
        <path d="M26.806 61.137h-1.297l.652-1.652.645 1.652zm1.422 1.4-1.56-3.83h-1.216v.098l.03.01c.089.027.144.068.171.125.057.116-.014.295-.076.452l-1.223 3.043-.039.1c-.14.369-.279.786-.641.927l-.025-.015v.093h1.42v-.097l-.029-.01c-.19-.07-.224-.157-.231-.232-.012-.113.044-.272.112-.454l.366-.988h1.764l.38.989.033.087c.17.432.183.468-.112.6l-.025.011v.094h1.571v-.093l-.023-.012c-.364-.183-.502-.53-.647-.897zM32.58 58.799l.023.012c.354.2.354.458.354.848v2.63l-2.57-3.231-.105-.148a.398.398 0 0 1-.097-.159v-.044H29.04v.092l.022.012c.354.203.354.47.354.87v2.878c0 .401 0 .667-.362.878l-.021.012v.091h1.368v-.09l-.02-.013c-.355-.207-.355-.465-.355-.856v-2.687l2.404 3.037c.31.4.536.655 1.077.837l.059.02V59.68c0-.4 0-.667.354-.87l.022-.012v-.092H32.58v.092zM38.878 62.52c-.36.206-.916.449-1.52.449-1.024 0-1.796-.843-1.796-1.961 0-1.018.68-1.73 1.65-1.73.444 0 .899.14 1.316.405l.068.042v-.943l-.034-.009c-.525-.123-.946-.18-1.328-.18-1.522 0-2.585 1.037-2.585 2.524 0 1.565 1.076 2.538 2.81 2.538.424 0 .798-.074 1.11-.22l.016-.007.403-.913h-.1l-.01.005zM42.976 62.519a1.761 1.761 0 0 1-1.305.414l-.88-.082v-1.626h.536c.233 0 .47.014.561.18l.013.022h.092v-.852h-.066l-.02.005c-.077.039-.19.039-.298.039h-.818v-1.261a4.24 4.24 0 0 1 .695-.044c.308 0 .602.021.82.273l.013.016h.086v-.931h-.077l-.01.005c-.07.038-.16.033-.25.031H39.64v.095l.029.011c.306.114.301.544.298.858l-.001.096V62.581c.004.315.009.745-.297.852l-.03.01v.097h3.094l.357-1.032h-.1l-.013.01zM49.641 63.111v-1.699c0-.106 0-.214.033-.293l.004-.082h-1.196v.095l.027.01c.283.113.306.405.306.775v1.005a3.65 3.65 0 0 1-.962.127c-1.137 0-2.027-.877-2.027-1.997 0-1.091.8-1.853 1.947-1.853.265 0 .918.04 1.256.418l.013.015h.085v-.91l-.035-.007a5.496 5.496 0 0 0-1.146-.123c-1.814 0-3.033 1.029-3.033 2.561 0 1.52 1.174 2.502 2.99 2.502.576 0 1.12-.101 1.696-.209l.096-.018-.021-.05a.657.657 0 0 1-.033-.267M53.936 62.46l-1-1.253c.566-.156 1.118-.64 1.118-1.295 0-.732-.605-1.205-1.543-1.205h-1.766v.096l.029.011c.301.112.295.518.29.845v2.935c.005.309.011.733-.29.838l-.03.012v.096h1.471v-.096l-.029-.012c-.306-.106-.3-.535-.297-.85v-3.289c.176-.03.315-.045.451-.05.435-.022.888.24.888.756 0 .701-.762.92-1.215.988l-.068.01.707 1.077.882 1.09c.221.27.466.376.875.376h.817l-.128-.08a4.999 4.999 0 0 1-1.162-1M57.729 63.05c-1.118 0-1.81-1.042-1.81-2.006 0-1.09.739-1.852 1.795-1.852 1.152 0 1.774 1.044 1.774 2.026 0 1.078-.724 1.831-1.76 1.831m.051-4.464h-.013c-1.515-.036-2.76 1.11-2.76 2.524 0 1.452 1.155 2.546 2.686 2.546 1.519 0 2.708-1.134 2.708-2.581 0-1.396-1.152-2.49-2.62-2.49M65.593 58.814l.04-.015-.03-.092h-1.451v.096l.028.011c.3.113.295.54.29.85v2.3c0 .241 0 .402-.144.598-.215.304-.596.487-1.02.487-.745 0-1.107-.446-1.107-1.363v-1.925l-.001-.096c-.004-.311-.01-.738.29-.851l.029-.01v-.097h-1.464v.096l.03.011c.302.112.294.533.29.84l-.001.107v1.98c0 .503 0 .98.38 1.396.304.33.794.518 1.343.518.444 0 1.02-.138 1.375-.515v.4h1.153v-.097l-.03-.01c-.306-.114-.3-.54-.297-.852v-2.909c-.003-.314-.009-.744.297-.858M68.33 58.707h-1.804v.096l.028.01c.3.12.296.547.292.86v2.908c.004.315.008.745-.298.852l-.028.01v.097h1.528v-.091l-.022-.013c-.355-.2-.355-.457-.355-.848v-3.237c.153-.025.305-.037.463-.037.367 0 .984.11.984.843 0 .654-.631 1.031-1.255 1.067l-.016.083c.151.072.325.106.548.106.804 0 1.636-.524 1.636-1.4 0-.793-.667-1.306-1.701-1.306M18.29 62.58v-2.908c-.004-.314-.009-.744.297-.858l.021-.008v-.099h-1.463v.096l.029.01c.299.114.294.54.29.852v2.299c0 .243 0 .402-.144.598-.215.304-.597.487-1.021.487-.746 0-1.107-.446-1.107-1.363v-1.925l-.001-.096c-.004-.311-.009-.738.29-.851l.028-.01v-.097h-1.462v.096l.028.01c.303.113.296.534.292.841l-.001.107v1.98c-.001.503-.002.98.38 1.396.304.33.794.518 1.343.518.443 0 1.02-.138 1.375-.515v.4h1.151v-.097l-.028-.01c-.306-.114-.301-.54-.298-.852"/>
        <path d="M19.09 15.494s1.144.206 2.29.993c1.146.788 3.202 2.468 4.009 3.487.807 1.019 1.876 2.033 2.469 2.812.396.52 1.289 1.646 2.68 3.38l-.62-5.502-6.135-10.622c-.641-.558-1.19-.951-1.65-1.179-.688-.341-1.4-.65-1.979-.567-.47.106-.917.15-1.409.909-.327.505-.513 1.348-.557 2.526l.249 3.94.653-.177zM30.165 7.872c.675.163 1.34.464 1.995.9.983.657 2.957 2.094 4.175 3.517.811.95 1.632-1.132 2.461-6.242l-1.292-1.881c-1.334-1.205-2.37-2.056-3.11-2.553-.777-.548-1.62-.87-1.927-.996-.307-.127-1.193-.349-2.512.077-.752.416-1.16.907-1.226 1.47l1.436 5.708z" fill-rule="nonzero"/>
        <ellipse fill-rule="nonzero" cx="46.695" cy="12.651" rx="10.601" ry="10.62"/>
        <path d="m18.46 8.924.693.329c-.29.834-.37 1.725-.247 2.672.196 1.496.687 3.704 2.095 7.375 1.416 3.694 2.634 6.034 3.233 7.18.6 1.147 2.576 4.707 3.714 6.347 1.135 1.636 2.231 3.195 3.602 4.734 1.516 1.506 2.622 2.398 3.338 2.638l2.245.751h-2.368c-1.543 0-3.155-.258-4.837-.777-2.529-.78-4.335-1.628-6.309-3.609-1.948-1.955-4.581-5.973-5.91-8.912-1.328-2.938-1.987-5.64-2.163-6.483-.227-1.062-.607-2.84.12-5.501.754-2.76 1.146-4.06 2.794-6.744zM31.678-.104 30.462.913c-.448.375-.54 1.382-.444 2.896.146 2.312 1.122 5.392 1.406 6.29.197.65 2.236 6.06 2.757 6.98.137.244.409.779.749 1.458l.264.529.283.568.297.594c.845 1.692 1.78 3.538 2.196 4.16.12.196.232.384.347.577.675 1.13 1.439 2.408 2.102 3.292.185.245.424.573.694.942.867 1.189 2.057 2.822 2.735 3.508l.413.424c.87.9 2.088 2.188 3.068 2.554.506.19.908.429 1.003.356l.5.587c-.429.41-.842.731-1.238.967-.921.556-1.926 1.162-2.726 1.51a43.31 43.31 0 0 1-2.17.867 1.704 1.704 0 0 1-1.553-.009c-.67-.326-1.361-.665-2.168-1.397-.795-.72-3.041-2.773-6.118-7.483-2.683-4.108-4.638-8.193-5.389-9.762-.103-.217-.184-.385-.24-.497-.461-.932-1.934-4.35-2.682-6.498-.751-2.16-1.48-4.913-1.711-6.941-.248-2.178.171-3.2.415-3.556.24-.35 2.036-1.461 2.43-1.689.06-.035.183-.1.353-.186l.288-.145C27.332 1.311 29.198.45 30.131.24l1.547-.344zm5.729.21c.525-.557 1.28-.519 1.743-.449.616.093 2.823.638 3.616.913.808.28 2.496.937 2.898 1.232.111.082.28.25.475.467-.183.034-.358.117-.554.2-.286.12-.54.207-.718.432-.108.136-.181.325-.198.587-.056.834.078 1.54.215 2.284.192 1.066.686 2.506.99 3.394.09.263.164.479.208.616.088.272.439 1.104.838 2.002l.225.503c.412.91.833 1.798 1.053 2.173l.323.557c.597 1.032 1.584 2.741 2.232 3.645.782 1.092 1.887 2.376 2.53 3.074.592.64 1.373 1.377 1.884 1.487.355.077.476.103.623-.006.136-.1.155-.213.183-.517.161.189.323.43.413.709.155.479.075.987.008 1.265-.085.355-.62 2.381-1.127 3.566-.524 1.222-.857 1.884-1.032 2.098-.229.278-.595.62-1.123.62-.458 0-1.161-.31-1.161-.31a11.969 11.969 0 0 1-2.477-1.929c-.835-.865-1.722-1.953-2.231-2.578-.162-.199-.284-.35-.353-.428-.286-.328-2.799-3.819-3.383-4.787-.155-.257-.31-.502-.469-.755a31.116 31.116 0 0 1-1.52-2.632c-.824-1.609-1.833-3.9-2.362-5.341-.528-1.436-1.598-5.186-1.753-5.731-.159-.555-.572-2.193-.572-4.44 0-1.01.257-1.584.576-1.922z" stroke="#1D1D1D" stroke-width=".772" fill-rule="nonzero"/>
        <path d="M36.053 71.126c11.694 0 21.175 7.048 21.175 15.742 0 8.693-9.48 15.74-21.175 15.74-11.694 0-21.174-7.047-21.174-15.74 0-8.694 9.48-15.742 21.174-15.742zm.746 24.536-2.595.03c-.05.01-.09.05-.178.099.96.266 1.852.266 2.733.157.11-.01.208-.04.208-.157.01-.1-.079-.129-.168-.129zm-3.767-.463h-.037c-.287.078-.594-.09-.881.167.257.02.525.05.792.09.09.009.159-.02.179-.12.01-.068-.02-.157-.09-.137zm3.35-18.905a3.008 3.008 0 0 0-.286.84c-.07.394-.268.591-.664.73-.366.127-.733.157-1.1.216-.99.158-1.97.346-2.97.355-.199 0-.417-.059-.585.148.426.375.911.109 1.436.178-.535.188-1 .148-1.456.158h-.102c-.104.002-.203.025-.195.158.01.148.178.108.287.118.515.05 1-.128 1.605-.187-.931.473-1.912.138-2.764.473.287.198.604.04.882.178-.436.069-.872.099-1.308.128-.089.01-.228-.04-.247.089-.02.158.128.178.237.187.436.05.842-.118 1.258-.187.397-.07.793-.128 1.248-.207-.089.197-.168.217-.247.227-1.14.118-2.269.384-3.417.454-.149.01-.387-.08-.367.187.01.178.06.414.347.355l.132-.015c.265-.013.534.063.789-.064-.466.237-.98.247-1.476.247-.475.01-.693.326-1.03.543.198.049.396.059.584.049 1.133-.025 2.25-.157 3.367-.309l1.34-.185.672-.088c.109-.01.297-.02.237-.158-.05-.118-.06-.336-.287-.336h-.624c.208-.098.426-.128.634-.148.159-.02.337-.02.426.158a.57.57 0 0 1-.01.563c-.119.197-.317.217-.515.227-.52.034-1.04.081-1.559.132l-1.557.156c-1.04.101-2.08.185-3.124.185-.119 0-.376-.098-.347.129.04.315-.148.217-.287.217l-2.714-.05c-.168-.01-.436-.069-.436.178 0 .237.268.187.436.187 1.159-.03 2.328-.069 3.497-.118.544-.02 1.089-.089 1.634.05a25.06 25.06 0 0 1-2.278.216c-.367.02-.723-.01-1.09-.01-.138 0-.356-.049-.356.148 0 .208.208.148.346.148a.567.567 0 0 0 .07-.005l.146-.021c.096-.011.188-.005.25.086.168.236.396.138.614.167.515.06.862-.444 1.377-.375.119.02.307-.079.327.1.03.177-.169.206-.317.216-.12.01-.238 0-.347.03-.05.01-.11.079-.119.128-.01.07.06.089.129.109a.144.144 0 0 0 .036.003l.08-.004c.053 0 .1.017.112.119-.694.04-1.417-.05-2.05.148-.536.168-1.12.03-1.615.326-.159.098-.327.128-.515.148-.436.03-.862.069-1.05.572-.05.128-.208.148-.337.168-.673.128-1.13.493-1.278 1.183-.079.366-.326.504-.683.484-.248-.01-.485 0-.733-.07-.426-.118-.773.02-.99.425-.15.276-.298.543-.664.592-.06.01-.159.099-.159.158-.01.128.12.148.208.158.278.05.466-.07.595-.326.247-.473.564-.79 1.178-.542.198.079.466-.03.634.197.159-.434.773-.375.902-.898.208-.809.525-1.016 1.327-1.026.267-.01.396-.089.406-.355.02-.237.178-.474.396-.415.436.129.773-.069 1.159-.177.654-.188 1 .138.822.75-.089.286.08.305.258.345.356.069.515.266.406.631-.07.227 0 .336.237.375.387.07.585.336.535.7-.05.366-.376.287-.634.287l.01-.01c-.99.227-2.01.247-3.03.286.415.296 1.901.346 2.436.138.149-.059.258-.236.446-.148.228.109-.12.336.129.484.099-.296.297-.454.614-.454a.294.294 0 0 0 .297-.276c.04-.474.168-.878.604-1.145.119-.079.129-.256.08-.365-.209-.454.029-.651.395-.829.268-.128.347-.335.11-.582-.308-.315-.238-.641-.06-.986.327-.642 1.515-1.105 2.189-.859.07.03.148.07.218.109.129.089.247.187.228.355-.02.178-.179.217-.327.247-.179.04-.367.059-.525.128-.129.05-.179.197-.12.335.03.09.13.148.199.099.297-.197.763-.079.96-.503.06-.128.238-.217.387-.286.406-.198.535-.119.584.325.01.099.02.316.14.227.257-.177.663-.089.811-.375.208-.394.496-.473.892-.434.168.02.426.06.455-.168.04-.296.179-.503.406-.68.07-.06.179-.178.05-.286-.1-.08-.198-.02-.267.049-.149.158-.278.325-.416.483-.199.227-.476.168-.733.198-.07.01-.11-.07-.1-.139a.757.757 0 0 1 .387-.542c.148-.07.347-.138.376-.296.1-.493.416-.75.862-.908.109-.04.218-.128.168-.266-.06-.168-.208-.129-.336-.109-.218.04-.347.296-.654.296.158-.513.247-.957.574-1.4.565-.77 1.486-.573 2.18-.997-.209.789-.397 1.568-.605 2.328-.287 1.066-.654 2.112-.98 3.167-.04.119-.139.188-.238.237-.911.434-1.347 1.263-1.733 2.121-.317.7-.565 1.431-1.11 2.003-.07.08-.198.178-.06.286.11.08.219-.01.308-.088.297-.267.485-.612.644-.977.376-.849.683-1.727 1.267-2.477.218-.296.456-.572.832-.77-.03.346-.297.474-.445.672-.09.108-.208.256.05.325.178.05.93-.385.91-.552-.069-.587.264-.57.607-.543l.146.01c.377.01.753.02 1.13.06.198.019.435-.06.574.177-.337.069-.822.72-.862 1.154.08-.04.178-.118.218-.099.555.326 1.159.08 1.724.178.099.02.297.089.307-.109 0-.157-.159-.177-.298-.187-.386-.03-.762-.06-1.198-.099.238-.207.436-.088.624-.088.158-.01.198-.08.188-.217 0-.129-.089-.129-.198-.139-.208-.01-.446.099-.654-.098.803-.316.922-.286 1.387.355.208.276.416.552.485.898l-.01-.01c.228.523.466 1.056.694 1.579l-.02-.02.011.015c-.11-.066-.187-.179-.258-.297l-.084-.142c-.143-.233-.31-.422-.739-.237.04-.306.288-.08.347-.247-.1-.138-.228-.079-.357-.079-.475.01-.96.06-1.426-.01-.406-.059-.505.277-.763.405.14.187.238.375.486.483.119.05.406.099.376.355-.05.395.149.592.515.652.218.03.436.03.763.059-.545.246-.96-.02-1.397.02-.356.039-.574-.148-.663-.513-.08-.306-.12-.622-.327-.898-.159.148-.09.325-.129.483-.08.316-.208.582-.555.69-.386.12-.574-.01-.485-.394.05-.227-.03-.266-.208-.256l-1.961.128c-.119.01-.258.03-.238.177.03.277-.148.336-.356.435-.208.098-.367.305-.545.463-.159.138-.04.198.079.227l.099.027c.432.124.466.22.198.644-.406.651-.238 1.372-.356 2.052-.02.138.059.286.366.385-.307-.306.178-.434.01-.641-.238-.306-.129-.622-.09-.937.03-.218.14-.444.397-.425.297.02.317.286.307.523-.01.158-.04.326-.07.484-.025.155-.029.288.11.365l.053.021.026-.166c.076-.516.125-1.028-.06-1.572.585.118 1.1.118 1.625.108.366 0 .327.257.347.474.02.227-.01.395-.317.316-.09-.02-.208-.04-.258.079-.03.089.03.148.109.187.198.089.09.247.109.385.03.256.267.296.446.385.099.05.138-.05.138-.138-.03-.543.268-1.086.01-1.628-.04-.06-.06-.119.01-.158.08-.04.169-.04.208.059.06.128.01.257.01.385-.02.503-.148 1.016.01 1.657l.063-.213a3.09 3.09 0 0 0 .107-1.122l-.021-.174c-.11-.77.109-1.411.673-1.954.02.03.05.05.05.08 0 .048 0 .108-.03.137-.446.582-.535 1.253-.485 1.954.04.444-.09.868-.11 1.312-.01.188-.128.247-.257.326-.475.286-.683.73-.564 1.272.069.326-.02.474-.347.494-.09 0-.208-.02-.198.138.148.128.376-.02.614.197-.456-.04-.802-.01-1.11.227.07.237.317.296.456.444-.08.158-.406-.04-.327.227.06.168.258.158.416.02.1-.099.159-.07.268.05.119.127.307.098.525-.06l-.12-.034c-.238-.07-.44-.156-.177-.41.267-.257.297-.523.237-.878-.119-.75.06-1.125.634-1.381-.267.315-.366.611-.376.937-.02.523.148 1.036-.06 1.559-.119.296.04.365.347.404.456.06.921-.05 1.367.099.158.05.356.01.436-.138.099-.168-.278-.07-.208-.296.307-.07.604.424.93.069.01-.01.06.02.09.03.089.039.109.236.257.098.03-.03.04-.089.03-.138-.02-.158-.148-.187-.287-.207-.149-.03-.396.079-.456-.08-.148-.364-.455-.483-.802-.591.09-.05.158-.07.238-.079.376-.03.713-.07.287-.523-.03-.04-.03-.089-.04-.138-.158-.76-.109-1.559-.574-2.24-.03-.04-.02-.128-.01-.187.198-.997-.05-1.934-.426-2.852-.03-.069-.08-.157.07-.207.544.878.762 1.816.514 2.822-.069.276.01.395.189.572.109-.483-.09-.967.188-1.47.188.444-.01.8.04 1.145.03.236-.169.66.168.65.317-.009.208-.453.188-.71-.05-.592.03-1.154.109-1.746.267.138-.05.385.218.553.178-.425.119-.78-.188-1.086.06-.04.089-.079.109-.079.074.004.148.011.223.02l.223.026c.295.029.584.02.841-.243.04-.04.169-.02.159.04-.06.295.063.304.202.28l.094-.018c.062-.01.12-.017.16.004.108.06.366.177.425-.109.06-.286-.01-.532-.337-.592-.257-.049-.515-.108-.782-.088-.406.039-.822.01-1.228.01v-.158c.505-.02 1.02-.119 1.525 0 .384.09.507.005.375-.311l-.013-.027c.077.103.16.203.242.302l.252.294c.332.394.635.802.7 1.36.01.098.108.197.187.276.03.04.12.069.169.05.089-.04.089-.139.05-.208a2.36 2.36 0 0 1-.176-.362l-.144-.374a1.82 1.82 0 0 0-.305-.527c-.624-.69-1.02-1.52-1.307-2.397-.169-.533-.416-1.026-.862-1.342-.407-.296-.655-.7-.96-1.065l-.156-.176.07-.087c.193-.282.144-.605.056-.912a12.428 12.428 0 0 1-.304-1.512l-.143-1.018-.078-.509c-.04-.207-.149-.424-.04-.68.277.138.545.197.822.236.872.129 1.298.612 1.288 1.46-.01.277.148.356.337.474.772.464.832 1.066.198 1.667-.06.06-.13.109-.169.178-.089.128-.119.286-.02.414.086.119.155.075.217.012l.06-.064.03-.026c.169-.139.308-.08.317.098.04.563.486.898.753 1.322.159.257.228.513.02.72-.357.356 0 .602.168.77.189.178.466-.03.644-.187.179-.148.258-.375.307-.602.09-.385.208-.72.614-.888.208-.089.159-.296.169-.474.01-.266 0-.562.307-.66.267-.09.455-.257.644-.435.247-.217.525-.335.842-.385.317-.049.554-.01.614.375.03.227.158.365.416.415 1.09.227 1.406 1.134.693 1.973-.208.247-.277.434.06.621.098.05.277.158.188.237-.327.316-.05.83-.416 1.115-.11.089-.218.257-.02.365.158.099.257-.05.287-.167.168-.612.644-.592 1.149-.583-.139.267-.456.139-.614.356.297.069.555-.01.802-.129.501-.236 1.046-.292 1.584-.378l.263-.046.027-.043c.11-.127.41-.142.295-.283-.23-.282-.1-.368.052-.426l.093-.032a.421.421 0 0 0 .113-.055.622.622 0 0 1 .17-.082l.13-.045c.148-.052.266-.116.185-.277-.129-.257-.455 0-.683.108-.04.02-.09.05-.129.07-.47.246-.972.385-1.48.502l-.612.137-.305.07c.376-.236.812-.246 1.208-.384.199-.079.605-.128.525-.326-.128-.315-.435-.039-.634.04-.534.197-1.05.414-1.634.434 1-.385 2.04-.631 2.991-1.125-.386.01-.742.09-1.07.277.06-.385.417-.267.694-.296.228-.119.565-.08.674-.543-1.08.207-1.932.947-3.051.937.158-.148.317-.138.446-.207.406-.207.91-.197 1.248-.552.099-.1.277-.218.178-.366-.1-.138-.268-.03-.396.05-.357.217-.773.276-1.17.375-.128.03-.326.108-.385-.07-.06-.207.158-.207.287-.256.08-.03.158-.04.238-.06.772-.187 1.555-.374 2.337-.581.169-.04.337-.128.495-.207.08-.04.13-.119.08-.198-.02-.04-.13-.069-.169-.049-.505.227-.614-.099-.663-.523-.387.257-.773.385-1.17.493-.108.03-.316.08-.316.07-.139-.504-.416-.08-.604-.07-.248.01-.486.109-.723.158-.07.02-.179.01-.198-.089-.02-.098.059-.148.138-.167.09-.03.188-.05.287-.06.733-.098 1.248-.7 1.962-.878.01-.01.01-.059.01-.128-.634-.099-1.11.326-1.664.493-.565.168-1.12.405-1.872.356.703-.474 1.525-.217 2.1-.73-.238-.158-.397-.02-.565.02a.439.439 0 0 0-.045.011l-.096.032c-.062.02-.115.027-.127-.024-.119-.454-.406-.158-.574-.109a3.728 3.728 0 0 1-1.357.178c-.545-.04-1.05.079-1.397.562a.96.96 0 0 1-.416.326c-.525.178-.406.661-.584 1.016-.168.355-.763.474-.684 1.036.02.109 0 .227-.03.336a.403.403 0 0 1-.237.296c-.099.04-.238.02-.208-.099.09-.306-.02-.7.218-.918.198-.187.277-.365.347-.582-.139-.118-.248.109-.377-.01.08-.148.238-.138.367-.197a.685.685 0 0 1 .111-.04l.126-.036c.124-.04.226-.094.179-.23-.11-.315-.337.04-.525.03-.03 0-.06-.01-.09-.02.01-.06.06-.128.04-.168-.06-.138.169-.296 0-.394-.129-.07-.277.05-.406.108-.238.099-.475.207-.763.119.12-.198.317-.168.476-.217.426-.129.852-.257 1.268-.395.109-.04.208-.109.208-.247 0-.069-.07-.138-.129-.108-.327.187-.535-.06-.792-.168.128-.108.346-.108.336-.385-.495.04-.881.454-1.466.405.377-.395.813-.494 1.219-.651.277-.109.594-.168.772-.415.198-.266.466-.394.763-.503.257-.099.525-.197.773-.316.138-.069.376-.138.287-.335-.1-.227-.287-.04-.426.01-.238.088-.614.355-.684.296-.307-.306-.515 0-.742.069-.189.059-.288.158-.377-.158-.109-.365-.188-.336-.693-.178l-1.278.385-.112.038c-.096.029-.195.041-.294-.058.1-.197.287-.187.456-.236.743-.218 1.475-.435 2.218-.661.13-.04.278-.1.218-.267-.07-.177-.218-.06-.337-.04-.178.02-.316.228-.534.159.069-.139.287-.129.287-.385-.892.158-1.674.72-2.595.66.356-.147.743-.226 1.1-.354.356-.129.772-.188 1.109-.632-.694.08-1.14.523-1.744.523.169-.138.387-.168.486-.375-.07-.03-.12-.05-.159-.06-.327-.068-.663.544-.98-.019-.01-.02-.09 0-.14.02-.593.217-1.158.069-1.732-.109-.238-.069-.317-.177-.347-.404-.06-.454-.139-.918-.208-1.372zm-6.31 14.168-.058.01c-.139.07-.148.198-.129.336.03.178.08.365.05.533-.08.424.218.631.495.65.396.03.535.07.377.484-.05.119-.09.602.356.267.06-.05.109-.08.159 0 .059.089.05.197.02.286-.02.06-.02.207-.14.099-.138-.129-.197-.07-.217.079-.03.236-.169.138-.287.108-.3-.073-.289-.264-.23-.456l.041-.126c.159-.464-.336-.336-.475-.533-.05-.069-.149-.099-.198 0-.119.267.188.247.277.375.208.276.1.928-.129.868-.485-.118-.91.188-1.396.08-.486-.11-.664-.01-.941.384.545-.178 1.01-.069 1.466-.128l.734-.1a7.672 7.672 0 0 1 1.108-.078c.119 0 .248-.03.218.158-.071.426.092.347.261.243l.085-.052.04-.023c.169.325-.307.503-.148.858.297-.247.307-.621.505-.888.07-.079-.05-.138-.119-.158-.317-.088-.327-.315-.307-.582.02-.276.02-.552.02-.829v-.125c-.003-.16-.036-.287-.297-.319-.218-.02-.397-.177-.644-.227a.517.517 0 0 1-.307-.818c.079-.119.07-.257-.07-.346a.228.228 0 0 0-.178-.02zm9.54 2.862c0-.118.05-.326-.168-.197-.189.108-.169.355-.1.532.1.237.04.484.06.72.02.139-.05.376.129.366.218-.01.148-.257.138-.405-.02-.256-.06-.513-.089-.74.02-.118.03-.197.03-.276zm-.386.68c-.12-.187-.238-.118-.347-.118-.475-.059-.584.247-.624.622 0 .069-.02.138.07.158.039.01.108-.03.118-.05.08-.414.495-.424.783-.611zm-4.081.159c.02-.642.228-.74 1.08-.454-.08 0-.159.03-.238.02-.416-.11-.614.039-.614.473v.082c-.003.102-.027.213-.189.175-.168-.05-.04-.198-.04-.296zm5.295-1.697h-.056c-.118.02-.148.128-.148.226 0 .287-.01.583.01.869.01.158 0 .286-.188.335-.07.02-.179-.01-.179.109 0 .108.09.158.179.207.118.06.247.108.366.03.139-.09.168-.227.109-.385-.129-.346.05-.405.337-.365.099.01.198.02.247.03.169.058.298.058.298-.09-.01-.187-.179-.236-.327-.217-.426.05-.664-.069-.565-.552.02-.089.01-.217-.139-.197zm2.381-2.457c-.119.296-.149.562-.04.878.189.533.05.73-.465.829 0 .177.277.187.238.384l.01-.02c.089 0 .198.02.287 0 .644-.137 1.03-.01 1.327.504.119.207 0 .414-.04.622-.01.049-.079.128-.128.128-.09.01-.13-.08-.159-.158-.06-.207.159-.612-.158-.602-.268 0 0 .434-.149.632-.03.039-.07.088-.06.128.04.256.06.572.328.631.247.06.505-.069.564-.404.02-.148.09-.286.06-.434-.11-.553-.159-1.096-.03-1.648.02-.089.02-.217-.11-.227-.148-.01-.138.118-.138.207 0 .168-.06.247-.247.286-.298.06-.555-.207-.862-.069-.04.02-.11-.118-.06-.148.466-.286.238-.552-.01-.838-.079-.1 0-.247.02-.375.02-.129 0-.257-.178-.306zm-1.149-1.016c-.148.02-.228.256-.178.444.04.148.089.246-.139.226-.109-.01-.257-.049-.277.119-.02.128.07.207.188.247.337.098.347.266.099.473-.178.148-.158.336-.08.493.12.227-.029.395-.078.592-.05.188-.159.178-.298.148-.138-.03-.168-.128-.148-.256.04-.247.08-.484.109-.73.01-.109.01-.257-.129-.276-.149-.02-.277.138-.228.246.159.385-.05.73-.05 1.095v.1c.002.181.035.333.387.216.357-.108.594-.276.802-.68.1.345.07.572-.03.73-.237.473.02.956-.049 1.43-.02.118.04.286.218.247.198-.04.119-.198.07-.316-.06-.158-.13-.326-.07-.474.149-.375.05-.77.149-1.154.069-.296.05-.661-.327-.829-.238-.098-.11-.246-.03-.345.205-.27.25-.575.27-.882l.017-.308.01-.152c.01-.148.05-.434-.208-.404zM27.45 91.262c.04-.296-.287-.622-.367-.474-.128.257-.426.316-.525.533-.05.118.08.326.159.562.07-.128.109-.197.138-.266.09-.237.189.109.288 0 .089.079.03.168-.03.197-.644.306-.485.948-.594 1.45-.1.425.178.603.663.504-.178-.178-.505-.227-.435-.424.118-.346.227-.681.148-1.066.268.04.1.326.337.306.07-.444.158-.878.218-1.322zm8.023.848a1.22 1.22 0 0 1 .95 0c.258.099.228.346 0 .484-.168.098-.366.128-.524-.05.099-.177.336-.03.435-.236-.227-.217-.584.03-.861-.198zm8.746-3.759c-.07-.059-.149-.089-.208.01-.05.079-.03.158.03.227.128.128.267.247.376.385.138.168.188.375-.01.523-.456.345-.416.947-.753 1.351-.08.1-.06.277-.07.425-.01.138.08.207.199.236.168.04.208-.078.208-.197-.01-.256.129-.493.109-.76-.02-.207.228-.286.426-.325.069-.01.148 0 .148.079.01.197-.138.217-.287.266-.188.06-.198.286-.03.306.278.04.258.296.406.424.288-.631.05-1.243.1-1.894.01-.454-.347-.75-.644-1.056zm-12.867.71c-.188-.029-.297.129-.307.247-.03.346-.247.681.01 1.036.11.158.08.336-.099.464-.198-.128-.158-.405-.347-.572-.188.266-.04.483.01.71.04.138.07.326.258.296.168-.03.307-.118.347-.345.059-.355.108-.7.02-1.056-.04-.138-.13-.306.069-.375.128-.05.267-.03.237-.217-.02-.099-.089-.178-.198-.187zm20.573-.582c-.06-.148-.208-.069-.327-.01-.327-.049-.515.247-.793.287-.069.128-.208.148-.327.197a16.147 16.147 0 0 1-4.1 1.194c-.238.04-.515.02-.763.316 1.11-.01 2.06-.434 3.06-.573-.316.139-.633.247-.96.356-.743.256-1.515.434-2.278.621-.119.03-.307.06-.277.227.03.188.208.118.326.089 1.377-.286 2.704-.77 4.052-1.194.128-.04.366-.187.307-.256-.172-.198-.097-.242.007-.264l.08-.014a.36.36 0 0 0 .071-.018c.565-.247 1.14-.484 1.714-.73.099-.05.257-.11.208-.228zm-16.046.71c.257 0 .247.366.257.524-.05.444-.089.809-.138 1.164-.02.118-.04.296-.218.257-.188-.04-.11-.208-.09-.326.06-.345.03-.68-.02-1.026-.029-.227-.108-.592.209-.592zm-9.281.74c-.04.238-.06.415-.1.593-.049.187-.296.464-.009.533.267.069.267-.296.317-.504.06-.217.05-.414-.208-.621zm5.517.08c-.03-.02-.109-.02-.139 0-.168.138-.079.335-.079.503 0 .138-.03.296.139.404.138-.108.158-.236.168-.365.01-.187.09-.384-.09-.542zm-8.28.01c-.634.266-1.457-.217-2.09.493 1.158.158 2.644.06 2.882-.207-.555-.06-1.08.138-1.704-.01.377-.079.703.02.911-.276zm31.041-1.46c-1.1.463-2.268.769-3.397 1.243.198.207.337-.02.485.079.08.118-.178.236-.05.335.11.089.258.02.377-.03.862-.355 1.733-.69 2.635-.957a.653.653 0 0 0 .257-.138c.07-.059.13-.158.06-.256-.06-.08-.149-.07-.228-.04-.119.05-.238.109-.357.158-.663.257-1.337.503-2 .75.693-.493 1.574-.562 2.218-1.145zm-27.297.473c-.08-.06-.149 0-.218.05-.228.187-.387.424-.456.808.357-.148.485-.424.703-.601.08-.06.06-.188-.03-.257zm6.339-1.628c.059-.025.096 0 .127.037l.059.08.032.031c.366.257.376.572.148.927-.08.119-.119.267-.168.405-.09.257-.188.474-.505.187-.159-.138-.387-.069-.575-.049-.208.02-.406.05-.664-.128.506-.06.951.03 1.348-.217H32.52c-.109 0-.277.02-.267-.128.01-.178.178-.158.307-.109.14.047.278.037.416.014l.276-.052a.998.998 0 0 1 .278-.011c.1.02.218-.01.218-.138.01-.168-.138-.158-.247-.168-.416-.03-.842.089-1.268-.08.446-.039.901-.088 1.347-.127a.595.595 0 0 1 .08.001l.08.006c.105.003.18-.024.087-.234a.18.18 0 0 1 .09-.247zm-4.725.188c-.03-.168-.258-.07-.386-.05-1.892.355-3.774.7-5.676.977-.337.05-.762-.138-.93.03-.496.463-.962.325-1.477.128-.03-.01-.069 0-.099 0-.089.01-.218-.03-.247.089-.04.148.109.177.208.227.267.148.584.088.92.177.209.119.348-.168.585-.197 1.357-.138 2.704-.316 4.061-.464.476-.06.951-.069 1.427-.108.168-.02.346-.07.396-.247.05-.168.04-.197.138-.217.238-.05.486-.089.723-.138.149-.03.397.01.357-.207zm-.396.503c-.317.217-.614.414-.911.602-.08.059-.14.148-.05.246.109.109.238.099.277-.03.09-.246.337-.246.506-.345.168-.098.307-.187.178-.473zm.842-.385c-.188.592.426.543.644.79.059.068.178.197.277.049.08-.119.04-.306-.08-.346-.326-.089-.495-.414-.841-.493zm25.445-3.355c0-.059-.168.02-.247.07-.238.128-.476.276-.723.404-.08.04-.208.158-.258.06-.125-.25-.25-.194-.373-.113l-.092.06a.36.36 0 0 1-.09.042c-.178.06-.336.207-.544.188-.218.246-.535.296-.813.424-.227.108-.445.187-.614.434-.138.207-.357.207-.585.184l-.195-.02a1.3 1.3 0 0 0-.19-.006c.782-.375 1.545-.79 2.387-1.026.138-.207.495-.178.564-.484-.154-.061-.278-.023-.395.034l-.14.072-.069.033c-1.012.447-1.978.995-3.057 1.271l-.383.083-.007.011-.01.006c-1.624.335-3.08 1.184-4.695 1.549a.645.645 0 0 0-.218.109c-.069.039-.049.167-.03.157.318-.079.506.326.843.208.174-.06.352-.11.53-.159l.538-.142c.537-.145 1.067-.317 1.537-.666.297-.227.554-.08.554.296 0 .296.159.493.288.71.158.276.832.266 1 0 .257-.414.644-.76.624-1.332-.01-.247.238-.414.495-.483.218-.06.386.04.515.207.337.424.684.454 1.1.069.297-.276.544-.237.683.118.11.296.228.296.495.178.545-.237.793-.168.941.306.12.375.317.611.704.71.089.03.168.188.287.06.089-.11.02-.267-.06-.307-.604-.256-.525-1.154-1.297-1.213.218-.326.644-.119.772-.454-.168-.197-.336.07-.505-.01.05-.197.218-.207.347-.237.416-.088.723-.276.822-.72.01-.05.04-.096.076-.142l.112-.134v-.197c-.188-.119-.574.394-.624-.208zm-5.447 2.526c.118-.02.237-.05.257.158-.257.266-.307.7-.624.927-.139.1-.317.06-.446-.078-.148-.148-.326-.306-.297-.533.02-.198.208-.247.377-.237.277.01.475-.197.733-.237zm-2.566.227c-.545.178-1 .622-1.614.612.554-.168.99-.622 1.614-.612zm-14.421-.306c-.139-.02-.337.04-.307.217.02.148.228.119.337.09.455-.12.91-.08 1.366-.09l.096.004c.114.003.233-.014.31-.22-.624 0-1.208.058-1.802 0zm4.457-.098c.515-.168 1 0 1.486.088-.505.099-1 .08-1.486-.088zm12.668-.494c-.802.444-1.505.681-2.288.602.733-.138 1.377-.582 2.288-.602zm-16.273-1.056c-.298-.02-.476.109-.575.356-.119.325-.168.69-.347.976-.178.296-.01.267.159.267.426-.01.852-.02 1.278-.05.079-.01.198-.02.178-.187h-1.278c.337-.227.624-.207.931-.108.12.039.258.049.347-.09.06-.088 0-.157-.03-.226-.05-.158-.168-.158-.317-.138-.267.03-.535.03-.891.049.277-.257.505-.128.733-.148.109-.01.337.03.238-.168-.1-.187-.08-.503-.426-.533zm20.621.662c-.168.246-.356.266-.524.335-.08.03-.199.05-.15.187a.21.21 0 0 0 .016.03l.037.06c.028.05.037.097-.062.128-.099.03-.178-.04-.238-.129-.06-.098-.04-.207.05-.256.238-.158.495-.286.871-.355zm.535-.987c.04-.02.09.01.228.04-.376.285-.753.364-1.08.503-.475.217-.96.424-1.436.64-.138.06-.406.02-.158.317.08.108-.149.177-.268.197-.208.04-.396-.01-.485-.227-.06-.128-.05-.247.1-.276.615-.115 1.186-.346 1.748-.598l.672-.306c.225-.102.45-.2.68-.29zM26.25 85.924c-.297.5-.368.53-.775.102l-.08-.086.078-.01.094-.006zm28.873-.967c.03.04.05.07.08.109-.764.552-1.695.69-2.497 1.134-.02-.049-.05-.108-.07-.158zm-6.765.622c-.287.355-.446.404-1.337.404.436-.197.93-.158 1.337-.404zm-22.761-.306c.217.089.643-.237.643.168 0 .365-.396.098-.604.128-.238.026-.327.107-.28.298l.018.061-.063-.02c-.202-.088-.127-.288-.1-.448.039-.217.237-.246.386-.187zm27.901-.257c.02.03.03.07.05.109-.337.217-.703.375-1.149.325.367-.148.733-.286 1.1-.434zm-5.408-.414c.13-.032.255-.053.387.03-.486.049-.921.296-1.387.434-.139.04-.277.098-.416.128-.119.02-.307.03-.327-.118-.02-.139.066-.154.158-.152l.09.004h.04c.475-.03.92-.198 1.376-.306zm-21.275.03c.01.069.01.138.01.207-.723-.089-1.417.148-2.13.167l-.02-.177c.714-.07 1.427-.128 2.14-.197zm-.228-.49c.05-.046.102-.073.159.026.059.099.01.187-.09.247-.04.02-.089.049-.138.049l-1.852.108v-.128c.435-.177.92-.138 1.386-.177a.59.59 0 0 1 .08-.004l.165.006a.333.333 0 0 0 .23-.072zm.04-.527.03.188c-.644.059-1.278.118-1.912.187l-.02-.138c.624-.128 1.288 0 1.902-.237zm7.983-.414c.832.108 1.664.02 2.486.197.06.01.119.06.159.08-.11.167-.218.187-.337.167-.743-.089-1.496-.158-2.249-.148-.109 0-.267.02-.267-.138-.01-.099.109-.168.208-.158zm13.272-.079c-.326.168-.673.296-1.129.296.377-.326.783-.187 1.13-.296zm-16.184-.572c.099.02.119.098.109.177-.04.237-.178.385-.426.356-.168-.02-.357-.06-.386-.287-.01-.108.03-.197.188-.167.168.138.337.118.465-.07.01-.01.04-.01.05-.01zm15.798.454c.495-.395 1.06-.356 1.625-.227a.378.378 0 0 1-.466.108.72.72 0 0 0-.604-.02c-.178.07-.367.1-.555.139zm-12.321-1.46c.643-.01 1.188.404 1.812.305-.317.217-.644.06-.96.06-.298 0-.536.02-.258.394.287.395-.287.296-.297.592.317.04.584.04.663-.365.04-.187.05-.385.288-.395.277 0 .188.227.188.365 0 .168.079.227.228.247.144.009.237.068.261.203l.004.053h-2.048c-.03-.187.277-.049.208-.276-.169-.098-.496.07-.595-.227-.079-.227.02-.434.208-.64.13.226-.237.512.12.64.088.04.227.06.277-.03.158-.285.02-.571-.1-.927zm-3.12.02c-.169.74-.327.877-.971.946a1.037 1.037 0 0 1-.093.003l-.188-.006c-.156-.002-.31.017-.452.171-.139.138-.258-.306-.515-.158.515-.286 1.09-.177 1.624-.335-.653-.158-1.268.079-2.03.128.911-.444 1.892-.04 2.625-.75zm-1.17.167c-1.346.247-2.703.444-4.07.306 1.347-.148 2.714-.158 4.07-.306zm5.627-.8c.218 0 .445.06.416.366-.021.22-.149.234-.285.222l-.116-.012-.055-.003c-.08.01-.158-.01-.277-.02.148-.168.386-.059.525-.266-.446-.267-.961.138-1.516-.188.525-.03.911-.079 1.308-.098zm9.166.08h-.044c-.267.03-.525.069-.782.108-.11.02-.298-.03-.268.178.02.148.178.098.327.118.228-.05.505-.099.782-.168.08-.02.149-.088.11-.177-.02-.04-.12-.07-.169-.06zm-18.586.335c1.14-.138 2.258-.424 3.427-.286-.228.026-.455.06-.682.095l-.682.11c-.683.105-1.367.182-2.063.081zm4.012-.74c-.723.148-1.446.355-2.21.207.744.02 1.467-.237 2.21-.207zm4.536-.464c.367.07.683-.02 1.09.138-.258.139-.506.02-.684.198.159.266.446.01.723.237-.535.059-.96.069-1.396-.07.016-.078.106-.097.201-.108l.094-.01c.15-.02.247-.067-.028-.385zm-2.952-.256c.01.079.01.158.02.237-1.347.079-2.674.335-4.031.453 1.317-.374 2.674-.434 4.011-.69zm7.756-.03c.01.02.02.05.03.07-.258.108-.525.226-.803.345-.089.04-.208.049-.247-.06-.05-.128.079-.157.168-.177zm-4.685-.365c.178-.079.337-.04.495-.03.05.01.11.06.159.09-.317.315.188.256.237.493a40.8 40.8 0 0 1-.97-.07c.06-.207.554-.256.079-.483zm-2.843-.552c.139-.385.248-.494.773-.434-.173.12-.299.296-.416.476l-.117.18c-.254.386-.531.718-1.23.498.099-.178.228-.227.356-.197.456.108.545-.267.634-.523zm3.308-1.717c.07.414 0 .77.12 1.115.059.148-.06.237-.219.246-.109 0-.247-.108-.218-.148.248-.345.04-.799.317-1.213z" fill-rule="nonzero"/>
    </g>
</svg>
