<svg width="118" height="118" viewBox="0 0 118 118" xmlns="http://www.w3.org/2000/svg">
    <g fill="#F1EFE3" fill-rule="nonzero">
        <path d="m62.09 76.435-3.651 9.329-3.65-9.329h-2.594v11.1h1.641V77.83l3.805 9.703h1.6l3.801-9.703v9.703h1.643V76.435zM29.542 85.823c.994.452 2.197.777 3.439.777 1.383 0 2.783-.543 2.783-1.875 0-1.116-1.115-1.722-2.513-2.244l-1.006-.39c-1.344-.532-2.665-1.33-2.665-2.825 0-2.117 2.388-2.994 4.544-2.994 1.14 0 2.079.134 3.119.429l-.128 1.21a8.887 8.887 0 0 0-2.958-.528c-1.373 0-2.65.545-2.65 1.699 0 .913.925 1.41 2.18 1.897l.978.38c1.638.616 3.066 1.46 3.066 3.121 0 2.147-2.072 3.231-4.64 3.231-1.082 0-2.673-.258-3.653-.594l.104-1.294zM68.92 81.963h1.768c1.628 0 2.625-.854 2.625-2.316 0-1.461-1.107-2.08-2.625-2.08H68.92v4.396zm-1.806 5.571V76.437h3.458c2.43 0 4.644.715 4.644 3.194 0 2.58-2.196 3.477-4.775 3.477H68.92v4.426h-1.806zM82.035 86.527c2.658 0 3.714-2.467 3.714-4.531 0-2.067-1.038-4.53-3.714-4.53-2.62 0-3.712 2.507-3.712 4.53 0 2.02 1.054 4.53 3.712 4.53m-5.634-4.53c0-3.107 1.896-5.732 5.634-5.732 3.81 0 5.633 2.5 5.633 5.732s-1.93 5.73-5.633 5.73c-3.7 0-5.634-2.626-5.634-5.73M44.649 86.527c2.66 0 3.713-2.467 3.713-4.531 0-2.067-1.035-4.53-3.713-4.53-2.62 0-3.711 2.507-3.711 4.53 0 2.02 1.055 4.53 3.71 4.53m-5.632-4.53c0-3.107 1.898-5.732 5.633-5.732 3.811 0 5.634 2.5 5.634 5.732s-1.933 5.73-5.634 5.73c-3.7 0-5.633-2.626-5.633-5.73M87.668 92.597v11.098H28.525a24.73 24.73 0 0 0 7.567-11.098h51.576zm-38.736 2.738c-.241 0-.479.03-.715.093-.235.063-.446.16-.631.29a1.395 1.395 0 0 0-.617 1.195c0 .14.02.278.057.414.038.135.102.263.192.383.09.12.211.23.364.327s.345.177.575.237c.371.1.683.181.936.244.253.062.475.129.666.199.11.04.211.11.304.207.092.097.139.25.139.455 0 .1-.02.2-.06.297a.668.668 0 0 1-.196.259 1.06 1.06 0 0 1-.353.184c-.145.048-.32.071-.526.071-.19 0-.367-.02-.53-.063a1.242 1.242 0 0 1-.432-.204.948.948 0 0 1-.294-.357 1.202 1.202 0 0 1-.105-.526h-.94c.006.331.068.618.189.861.12.243.28.442.48.598.201.155.436.27.707.345.271.076.559.113.865.113.265 0 .526-.031.781-.094.256-.062.484-.161.685-.297.2-.135.361-.31.484-.522.123-.213.184-.47.184-.77 0-.14-.021-.28-.064-.421a1.356 1.356 0 0 0-.195-.395 1.445 1.445 0 0 0-.327-.327 1.568 1.568 0 0 0-.458-.226c-.07-.02-.187-.051-.35-.094l-.5-.131a55.84 55.84 0 0 1-.462-.124l-.237-.064a1.14 1.14 0 0 1-.462-.245.575.575 0 0 1-.177-.447c0-.135.032-.248.094-.338a.69.69 0 0 1 .237-.214c.095-.053.2-.09.316-.113.115-.023.228-.034.338-.034.326 0 .594.072.804.214.21.143.329.388.353.733h.94c0-.28-.055-.527-.165-.74a1.61 1.61 0 0 0-.448-.538 1.962 1.962 0 0 0-.653-.327 2.817 2.817 0 0 0-.793-.108zm3.908.127h-.94v3.436c0 .345.053.646.158.902.105.255.254.47.447.642.193.173.425.303.696.387.27.085.571.128.902.128.33 0 .631-.043.902-.128.27-.084.502-.214.695-.387.193-.173.342-.387.447-.642.105-.256.158-.557.158-.902v-3.436h-.94v3.127a5.9 5.9 0 0 1-.026.55 1.261 1.261 0 0 1-.15.5.958.958 0 0 1-.376.363c-.168.096-.405.143-.71.143-.306 0-.543-.047-.71-.143a.954.954 0 0 1-.376-.364 1.246 1.246 0 0 1-.15-.5 5.744 5.744 0 0 1-.027-.549v-3.127zm22.564-.127a2.412 2.412 0 0 0-1.886.834c-.22.256-.39.554-.508.895-.118.34-.176.701-.176 1.082 0 .386.058.749.176 1.09a2.7 2.7 0 0 0 .508.894c.22.256.49.458.808.605.318.148.677.222 1.078.222.326 0 .624-.052.895-.158a2.11 2.11 0 0 0 1.183-1.135 2.54 2.54 0 0 0 .207-.88h-.917c-.02.196-.062.379-.128.55-.065.17-.155.32-.27.447a1.237 1.237 0 0 1-.97.41c-.285 0-.532-.058-.74-.173a1.455 1.455 0 0 1-.508-.463 2.078 2.078 0 0 1-.289-.657 3.03 3.03 0 0 1 0-1.504c.063-.245.159-.465.29-.658.13-.192.299-.346.507-.462.208-.115.455-.173.74-.173.196 0 .367.027.515.08a1.189 1.189 0 0 1 .658.56c.07.13.125.273.165.428h.94a2.01 2.01 0 0 0-.233-.775 1.873 1.873 0 0 0-.492-.574 2.192 2.192 0 0 0-.703-.362 2.836 2.836 0 0 0-.85-.123zm-34.89.127h-.94v5.367h.94v-5.367zm2.104 0h-.992v5.367h.894v-3.946h.023l2.443 3.946h.992v-5.367h-.895v3.954h-.015l-2.45-3.954zm17.333 0h-2.564v5.367h.94v-2.21h1.383c.215 0 .392.028.53.083a.702.702 0 0 1 .327.26c.08.117.135.265.165.443s.045.39.045.635c0 .13.006.266.02.406a.87.87 0 0 0 .123.383h1.007c-.1-.11-.174-.294-.221-.552a4.75 4.75 0 0 1-.072-.86c0-.211-.026-.387-.078-.527a1.045 1.045 0 0 0-.2-.342.765.765 0 0 0-.26-.191.945.945 0 0 0-.259-.076v-.015c.046-.015.117-.045.215-.09.097-.045.196-.12.297-.222.1-.102.187-.238.263-.406.075-.167.112-.38.112-.635 0-.456-.147-.812-.443-1.068-.296-.255-.74-.383-1.33-.383zm5.163 0h-1l-2.06 5.367h.97l.504-1.42h2.142l.504 1.42h1.007l-2.067-5.367zm3.533 0h-.992v5.367h.895v-3.946h.022l2.443 3.946h.992v-5.367h-.894v3.954h-.015l-2.45-3.954zm13.763 0h-3.864v5.367h3.916v-.811h-2.976v-1.571h2.706v-.767h-2.706v-1.406h2.924v-.812zm-17.792.925.805 2.308h-1.64l.813-2.308h.022zm-4.765-.158c.12 0 .236.01.35.03.112.02.212.06.3.12s.156.144.207.252c.05.108.075.247.075.417 0 .286-.078.5-.233.643-.156.143-.384.214-.684.214h-1.541V96.23zM58.423 19.83c13.275 0 23.895 10.733 23.895 23.779 0 13.21-10.786 23.78-23.895 23.78-13.275 0-23.895-10.735-23.895-23.78 0-13.046 10.62-23.78 23.895-23.78z"/>
        <g stroke="#1D1D1D" stroke-width=".772">
            <path d="M68.12 9.747a24.299 24.299 0 0 1 17.176 7.088c4.381 4.36 7.104 10.385 7.104 17.077 0 6.65-2.715 12.709-7.124 17.096a24.228 24.228 0 0 1-17.157 7.07 24.299 24.299 0 0 1-17.176-7.089c-4.381-4.36-7.105-10.385-7.105-17.077 0-6.692 2.724-12.716 7.105-17.077a24.299 24.299 0 0 1 17.176-7.088zm0 4.9c-5.37 0-10.21 2.145-13.709 5.626a19.157 19.157 0 0 0-5.652 13.64c0 5.32 2.18 10.12 5.674 13.598 3.521 3.504 8.378 5.666 13.686 5.666 5.37 0 10.21-2.144 13.708-5.626a19.157 19.157 0 0 0 5.653-13.639c0-5.281-2.172-10.114-5.694-13.618a19.314 19.314 0 0 0-13.667-5.647z"/>
        </g>
    </g>
</svg>
