<svg width="118" height="118" viewBox="0 0 118 118" xmlns="http://www.w3.org/2000/svg" xmlns:xlink="http://www.w3.org/1999/xlink">
    <defs>
        <path id="4p5yv0bcda" d="M0 0h16.999v11.354H0z"/>
        <path id="wcvnqiyy6c" d="M0 0h16.999v11.354H0z"/>
    </defs>
    <g fill="none" fill-rule="evenodd">
        <path d="M27.08 50.313h-2.533l1.343-4.372 1.19 4.372zm-3.845 4.823.866-2.873h3.41l.805 2.873h3.17L28.34 44.173c-.18-.644-.575-.95-1.26-.95h-4.476v1.04h.38c.464 0 .718.179.718.536 0 .231-.054.427-.234.964l-3.144 9.373h2.911zM35.433 55.136v-11c0-.573-.345-.912-.9-.912h-2.77v1.04h.184c.464 0 .663.192.663.659v10.213h2.823zM40.417 55.136v-11c0-.573-.344-.912-.9-.912h-2.769v1.04h.182c.467 0 .662.192.662.659v10.213h2.825zM45.148 44.312c0-.802-.593-1.282-1.618-1.282-1.005 0-1.618.48-1.618 1.282 0 .81.613 1.29 1.618 1.29 1.025 0 1.618-.48 1.618-1.29zm-.056 10.824v-8.018c0-.571-.34-.908-.898-.908h-2.732v1.015h.162c.467 0 .669.216.669.676v7.235h2.799zM51.16 50.85v1.732c-.469.482-1.04.773-1.53.773-.5 0-.68-.253-.68-.914 0-.66.14-.963.646-1.161.377-.162.862-.303 1.564-.43zm-3.796-2.09c.937-.446 1.96-.694 2.772-.694.75 0 1.024.269 1.024 1.054v.193c-1.154.18-1.507.253-2.153.399a6.17 6.17 0 0 0-1.068.336c-1.13.444-1.667 1.321-1.667 2.659 0 1.697.735 2.52 2.262 2.52a4.08 4.08 0 0 0 1.51-.286c.396-.176.63-.321 1.205-.77v.125c0 .558.288.84.845.84h2.57v-.964h-.126c-.483 0-.664-.215-.664-.782v-4.254c0-2.269-.79-3.054-3.074-3.054-.736 0-1.454.088-2.156.25-.705.16-1.063.303-1.907.717l.627 1.712zM59.099 55.136v-6.034c.468-.52.951-.75 1.508-.75.596 0 .737.23.737 1.125v5.659h2.805v-6.073c0-1.41-.109-1.854-.558-2.338-.377-.41-.95-.624-1.69-.624-1.098 0-1.867.334-2.91 1.303v-.355c0-.556-.29-.84-.863-.84h-2.66v1.016h.161c.468 0 .665.216.665.676v7.235h2.805zM72.655 53.265h-3.91l3.736-5.22V46.21h-5.864c-.662 0-.971.303-.971.962v1.627h1.043v-.164c0-.41.218-.606.664-.606h2.017l-3.775 5.267v1.84h7.06v-1.871zM88.861 55.306v-9.854c0-.786-.26-1.05-1.06-1.05H85.49v1.084h.141l.251.018c.086 0 .173.054.243.124.109.121.141.245.141.506v9.172h2.596zm1.165 0h2.566v-7.44c0-.755-.28-1.049-1.055-1.049h-1.511v8.489zm-4.905 0v-8.489h-1.53c-.758 0-1.06.294-1.06 1.05v7.439h2.59zm10.027-4.95c0 4.424-3.205 7.648-7.578 7.648-4.385 0-7.579-3.224-7.579-7.648 0-4.412 3.194-7.638 7.579-7.638 4.373 0 7.578 3.226 7.578 7.638zm1.87 0c0-5.376-4.04-9.384-9.448-9.384-5.407 0-9.463 4.008-9.463 9.384 0 5.387 4.056 9.397 9.463 9.397 5.408 0 9.448-4.01 9.448-9.397zM49.776 63.5v6.25c0 1.426-.08 2.846-1.522 3.923-1.208.916-3.112 1.24-4.792 1.24-1.692 0-3.587-.324-4.799-1.24-1.437-1.077-1.513-2.497-1.513-3.923V63.5h3.757v6.133c0 1.45.135 3.035 2.555 3.035 2.417 0 2.554-1.586 2.554-3.035v-6.134h3.76zM55.935 72.454h1.319c2.465 0 4.855-.96 4.855-3.173 0-2.037-2.157-3.184-4.82-3.184h-1.354v6.357zm-3.757-8.857h5.879c4.43 0 7.933 2.448 7.933 5.638 0 3.193-3.52 5.72-7.933 5.72h-5.879V63.598zM76.955 67.869v-4.297h3.75v11.379h-3.75v-4.823h-5.25v4.823h-3.768V63.572h3.768v4.297z" fill="#F1EFE3"/>
        <g transform="translate(7.039 63.56)">
            <mask id="7vylhd2f5b" fill="#fff">
                <use xlink:href="#4p5yv0bcda"/>
            </mask>
            <path d="m7.078 6.073 1.42-2.458 1.429 2.458H7.078zm5.897 5.28H17L9.749 0H7.243L0 11.354h4.027l1.544-2.676h5.856l1.548 2.676z" fill="#F1EFE3" mask="url(#7vylhd2f5b)"/>
        </g>
        <path fill="#F1EFE3" d="M82.248 63.56h4.245l3.234 4.438 3.245-4.438h4.114l-5.608 6.923v4.436H87.72l-.005-4.42z"/>
        <g transform="translate(93.962 63.56)">
            <mask id="69kkba2gxd" fill="#fff">
                <use xlink:href="#wcvnqiyy6c"/>
            </mask>
            <path d="m7.074 6.073 1.428-2.458L9.92 6.073H7.074zm5.903 5.28h4.022L9.749 0h-2.5L0 11.354h4.018l1.554-2.676h5.847l1.558 2.676z" fill="#F1EFE3" mask="url(#69kkba2gxd)"/>
        </g>
        <path fill="#F1EFE3" d="M20.546 63.56h4.243l3.24 4.438 3.234-4.438h4.118l-5.606 6.923v4.436h-3.757l-.01-4.42z"/>
    </g>
</svg>
