<svg width="118" height="118" viewBox="0 0 118 118" xmlns="http://www.w3.org/2000/svg" xmlns:xlink="http://www.w3.org/1999/xlink">
    <defs>
        <path id="dsq3xwmxna" d="M0 63.44h116.7V0H0z"/>
    </defs>
    <g transform="translate(.641 24.831)" fill="none" fill-rule="evenodd">
        <path d="M78.642 0v12.003l4.362-5.197C83.82 5.833 84.488 4 84.488 2.74V0h-5.846zM83.004 17.794l-4.362-5.2v24.53h5.846V21.866c0-1.275-.668-3.1-1.484-4.07zM32.21 37.124h5.844V12.878H32.21v24.248zm37.403-14.053c0 1.303-.952 3.902-4.181 3.902h-4.645v-5.78c0-2.047 1.888-3.761 4.018-3.761h.757c3.148 0 4.051 2.776 4.051 4.085v1.554zm-4.37-10.724c-5.97 0-10.254 3.925-10.306 8.794v15.513l-9.775-11.652L55.326 12.88h-7.38l-7.525 8.958c-1.508 1.809-1.508 4.531 0 6.339l7.525 8.948H60.84v-6.899c.506.678 2.531 1.836 4.54 1.836h.198c4.727 0 9.831-3.414 9.831-8.677v-2.194c0-4.886-4.365-8.844-10.166-8.844zM13.957 63.385l-1.097-1.958-.646.767v1.191h-.81V59.34h.81v1.141c0 .152-.006.52-.014.644.06-.092.208-.28.32-.41l1.134-1.375h.976l-1.183 1.394 1.489 2.651h-.98zM17.307 60.115h-1.051v1.05h1.051c.379 0 .58-.179.58-.532 0-.361-.218-.518-.58-.518zm.478 3.27-.723-1.462h-.806v1.463h-.812V59.34h1.88c.764 0 1.398.418 1.398 1.28 0 .608-.262.986-.772 1.188l.772 1.578h-.937zM21.01 63.44c-.976 0-1.632-.652-1.632-1.834V59.34h.81v2.253c0 .653.31 1.06.822 1.06.515 0 .838-.394.838-1.047V59.34h.812v2.253c0 1.177-.62 1.848-1.65 1.848M26.088 63.385l-1.483-2.21c-.097-.152-.232-.358-.282-.46 0 .151.012.66.012.884v1.786h-.8V59.34h.774l1.433 2.13c.102.16.231.354.28.458 0-.148-.005-.655-.005-.883V59.34h.796v4.045h-.725zM29.28 63.44c-1.06 0-1.766-.802-1.766-2.084 0-1.229.736-2.088 1.79-2.088.835 0 1.27.385 1.535 1.016l-.772.314c-.148-.295-.337-.523-.772-.523-.605 0-.951.533-.951 1.281 0 .749.35 1.296.96 1.296.548 0 .743-.261.785-.613h-.637v-.757h1.454v.536c0 1.037-.69 1.623-1.625 1.623M33.317 60.131v3.254h-.81v-3.254h-1.162v-.791h3.133v.791zM37.52 63.385v-1.703h-1.657v1.703h-.81V59.34h.81v1.542h1.657V59.34h.813v4.045zM41.024 60.977c-.083-.237-.16-.486-.204-.63-.039.144-.123.393-.2.63l-.261.733h.924l-.26-.733zm.854 2.409-.319-.91h-1.478l-.32.91h-.863l1.542-4.046h.79l1.543 4.046h-.895z" fill="#F1EFE3"/>
        <mask id="08xrpp58hb" fill="#fff">
            <use xlink:href="#dsq3xwmxna"/>
        </mask>
        <path fill="#F1EFE3" mask="url(#08xrpp58hb)" d="M43.357 63.385h.813V59.34h-.813zM49.959 60.115h-.933v1.05h.945c.378 0 .579-.179.579-.532 0-.35-.235-.518-.591-.518m-.039 1.833h-.894v1.438h-.804V59.34h1.766c.765 0 1.394.418 1.394 1.28 0 .933-.627 1.328-1.462 1.328M53.466 60.977a12.13 12.13 0 0 1-.205-.63c-.04.144-.126.393-.205.63l-.258.733h.924l-.256-.733zm.853 2.409-.322-.91h-1.476l-.321.91h-.864l1.548-4.046h.787l1.541 4.046h-.893zM58.327 63.385l-1.487-2.21c-.095-.152-.23-.358-.279-.46 0 .151.005.66.005.884v1.786h-.796V59.34h.773l1.44 2.13c.094.16.228.354.281.458 0-.148-.01-.655-.01-.883V59.34h.797v4.045h-.724zM59.983 63.385h.808V59.34h-.808zM64.048 60.513c-.143-.272-.37-.438-.734-.438-.609 0-.953.532-.953 1.281 0 .73.349 1.284.955 1.284.362 0 .581-.154.793-.515l.68.407c-.273.576-.761.909-1.5.909-1.05 0-1.769-.803-1.769-2.085 0-1.229.748-2.088 1.802-2.088.765 0 1.231.373 1.478.9l-.752.345zM67.876 63.385v-1.703h-1.653v1.703h-.818V59.34h.818v1.542h1.653V59.34h.812v4.045zM72.736 63.385h.807V59.34h-.807zM77.039 63.385l-1.493-2.21c-.093-.152-.225-.358-.282-.46 0 .151.017.66.017.884v1.786h-.8V59.34h.774l1.434 2.13c.1.16.235.354.282.458 0-.148-.01-.655-.01-.883V59.34h.801v4.045h-.723zM79.966 63.44c-.668 0-1.26-.276-1.573-.73l.59-.516c.281.326.642.458 1.033.458.48 0 .703-.132.703-.437 0-.264-.133-.379-.9-.551-.745-.175-1.269-.41-1.269-1.203 0-.74.654-1.193 1.447-1.193.629 0 1.092.243 1.48.644l-.589.56c-.262-.258-.553-.418-.922-.418-.434 0-.578.19-.578.366 0 .26.174.336.818.49.637.15 1.352.37 1.352 1.246 0 .77-.482 1.285-1.592 1.285M83.828 63.44c-.981 0-1.64-.652-1.64-1.834V59.34h.807v2.253c0 .653.314 1.06.833 1.06.51 0 .83-.394.83-1.047V59.34h.812v2.253c0 1.177-.617 1.848-1.642 1.848M88.21 60.115h-1.053v1.05h1.053c.377 0 .58-.179.58-.532 0-.361-.22-.518-.58-.518zm.487 3.27-.73-1.462h-.81v1.463h-.815V59.34h1.888c.764 0 1.398.418 1.398 1.28 0 .608-.263.986-.778 1.188l.778 1.578h-.93zM92.227 60.977c-.076-.237-.161-.486-.202-.63a9.548 9.548 0 0 1-.205.63l-.253.733h.924l-.264-.733zm.857 2.409-.315-.91h-1.485l-.314.91h-.872l1.552-4.046h.793l1.533 4.046h-.892zM97.095 63.385l-1.487-2.21c-.1-.152-.23-.358-.278-.46 0 .151.006.66.006.884v1.786h-.797V59.34h.775l1.433 2.13c.097.16.234.354.286.458 0-.148-.014-.655-.014-.883V59.34h.8v4.045h-.724zM101.038 60.513c-.138-.272-.37-.438-.732-.438-.617 0-.96.532-.96 1.281 0 .73.352 1.284.96 1.284.362 0 .58-.154.794-.515l.682.407c-.275.576-.762.909-1.498.909-1.056 0-1.773-.803-1.773-2.085 0-1.229.742-2.088 1.802-2.088.77 0 1.225.373 1.484.9l-.759.345zM102.399 63.385V59.34h2.812v.787h-2v.7h1.159v.788h-1.16v.976h2.086v.794zM4.624 54.668v-5.136a.986.986 0 0 0-.138-.538 1.067 1.067 0 0 0-.351-.34 1.665 1.665 0 0 0-.48-.196 2.435 2.435 0 0 0-1.044 0 1.484 1.484 0 0 0-.485.197c-.143.087-.257.2-.353.339a1.015 1.015 0 0 0-.135.538v5.136H0V49.44c0-.445.099-.81.301-1.104a2.32 2.32 0 0 1 .77-.736 3.403 3.403 0 0 1 1.01-.394c.373-.083.721-.12 1.045-.12.339 0 .696.037 1.06.12.371.08.703.209 1.008.394.311.182.563.428.76.736.203.294.302.659.302 1.104v5.23H4.624zM13.345 52.23c0 .458-.084.847-.252 1.164a2.296 2.296 0 0 1-.697.79 3.012 3.012 0 0 1-.998.45 5.11 5.11 0 0 1-1.178.136c-.65 0-1.2-.064-1.652-.184a4.622 4.622 0 0 1-1.174-.478V52.64c.42.294.863.507 1.332.636.46.133.899.197 1.306.197.195 0 .395-.02.6-.058a1.96 1.96 0 0 0 .552-.175 1.13 1.13 0 0 0 .402-.348.926.926 0 0 0 .151-.538c0-.327-.118-.58-.344-.762-.235-.181-.617-.304-1.141-.375a11.31 11.31 0 0 1-1.071-.172 3.64 3.64 0 0 1-.95-.327 1.916 1.916 0 0 1-.668-.585c-.18-.25-.259-.572-.259-.973 0-.317.074-.6.228-.859.157-.252.367-.468.632-.65.26-.187.562-.322.91-.416.347-.1.717-.15 1.105-.15.378 0 .722.025 1.021.08.303.046.574.107.807.175.235.074.434.152.598.238.172.091.31.176.418.255v1.414a2.093 2.093 0 0 0-.51-.355 4.458 4.458 0 0 0-.663-.267 5.153 5.153 0 0 0-.698-.17 3.74 3.74 0 0 0-.667-.06c-.479 0-.86.07-1.136.217-.28.142-.414.31-.414.526 0 .127.05.22.147.296.104.08.233.145.401.187.164.052.349.088.549.118l.6.092c.385.056.742.133 1.074.234.332.114.617.256.86.44.244.192.437.428.572.708.14.274.207.616.207 1.016M29.801 54.668v-5.166c0-.376-.087-.646-.259-.82-.171-.175-.427-.264-.747-.264-.284 0-.557.055-.802.151-.238.108-.45.228-.623.375a1.895 1.895 0 0 0-.412.502c-.101.185-.153.34-.153.497v4.725h-1.637v-7.451h1.637v.764c.124-.108.258-.203.416-.312a2.873 2.873 0 0 1 1.074-.47 2.4 2.4 0 0 1 .646-.077c.365 0 .697.043 1.006.138.298.092.56.232.78.428.216.191.388.438.516.742.126.308.19.663.19 1.09v5.148H29.8zM47.405 54.668h-1.561l-1.494-4.882-1.501 4.882H41.29l-1.7-7.451h1.593l1.067 5.068 1.428-4.68-.13-.388h1.368l1.533 5.068 1.065-5.068h1.59zM52.428 54.668v-5.252c0-.311-.11-.56-.333-.739-.226-.184-.585-.282-1.09-.282-.305 0-.6.035-.881.105-.288.07-.54.167-.77.292v-1.338c.235-.114.508-.209.82-.27.316-.068.66-.099 1.024-.099.54 0 .997.068 1.366.2.37.129.662.299.886.52.222.217.382.478.473.764.096.29.138.594.138.91v5.19h-1.633zM59.975 54.668v-.772c-.122.11-.262.219-.414.324a2.872 2.872 0 0 1-.499.281c-.179.085-.373.15-.579.195-.207.05-.424.075-.648.075-.37 0-.695-.048-.997-.133a2.052 2.052 0 0 1-.79-.428 1.81 1.81 0 0 1-.515-.752c-.13-.302-.193-.665-.193-1.09v-5.151h1.645v5.189c0 .372.087.646.252.822.166.166.413.257.746.257.286 0 .554-.052.801-.152.242-.097.455-.222.634-.376.176-.152.31-.317.41-.495.098-.183.147-.361.147-.524v-4.721h1.627v7.451h-1.627zM75.67 53.566a2.183 2.183 0 0 1-.717.724 3.1 3.1 0 0 1-1.01.39 5.453 5.453 0 0 1-1.115.115c-.362 0-.717-.037-1.087-.115a3.188 3.188 0 0 1-1.013-.39 2.27 2.27 0 0 1-.744-.724c-.194-.298-.288-.672-.288-1.112v-5.237h1.644v5.145c0 .213.042.391.139.54.089.144.21.254.347.35.146.083.308.142.478.188.182.038.353.055.524.055.176 0 .345-.017.52-.055.172-.046.34-.105.483-.189a1.3 1.3 0 0 0 .363-.349c.088-.149.139-.327.139-.54v-6.81h1.622v6.902c0 .44-.094.814-.286 1.112M83.012 52.23c0 .458-.082.847-.258 1.164a2.226 2.226 0 0 1-.693.79 3.064 3.064 0 0 1-.997.45 5.16 5.16 0 0 1-1.184.136c-.645 0-1.2-.064-1.645-.184a4.612 4.612 0 0 1-1.175-.478V52.64c.424.294.86.507 1.33.636.463.133.906.197 1.306.197.196 0 .4-.02.603-.058.208-.035.388-.094.552-.175.17-.087.3-.201.407-.348a.934.934 0 0 0 .143-.538c0-.327-.111-.58-.34-.762-.238-.181-.613-.304-1.144-.375a11.44 11.44 0 0 1-1.073-.172 3.532 3.532 0 0 1-.938-.327 1.88 1.88 0 0 1-.68-.585c-.17-.25-.259-.572-.259-.973 0-.317.076-.6.23-.859.153-.252.368-.468.627-.65.265-.187.57-.322.912-.416.356-.1.72-.15 1.107-.15.382 0 .722.025 1.024.08.3.046.573.107.803.175.237.074.438.152.606.238.165.091.303.176.419.255v1.414a2.23 2.23 0 0 0-.523-.355 4.988 4.988 0 0 0-1.354-.437 3.752 3.752 0 0 0-.666-.06c-.481 0-.856.07-1.14.217-.276.142-.418.31-.418.526 0 .127.056.22.154.296.101.08.238.145.4.187.163.052.344.088.548.118l.603.092c.384.056.744.133 1.076.234.323.114.605.256.86.44.242.192.43.428.565.708.141.274.212.616.212 1.016M92.24 54.668v-5.136c0-.205-.044-.387-.137-.538a1.058 1.058 0 0 0-.356-.34 1.534 1.534 0 0 0-.48-.196 2.368 2.368 0 0 0-.53-.056c-.163 0-.329.016-.51.056a1.46 1.46 0 0 0-.48.197c-.145.087-.266.2-.359.339a1.081 1.081 0 0 0-.142.538v5.136h-1.633V49.44c0-.445.097-.81.307-1.104.2-.308.455-.554.773-.736a3.281 3.281 0 0 1 1.012-.394c.366-.083.715-.12 1.032-.12.341 0 .7.037 1.07.12.362.08.704.209 1.009.394.304.182.556.428.757.736.2.294.301.659.301 1.104v5.23H92.24zM99.78 54.668v-.772c-.127.11-.26.219-.409.324a2.917 2.917 0 0 1-.499.281 3.028 3.028 0 0 1-1.225.27c-.367 0-.703-.048-1.003-.133a2.11 2.11 0 0 1-.786-.428 1.886 1.886 0 0 1-.521-.752 3.045 3.045 0 0 1-.183-1.09v-5.151h1.636v5.189c0 .372.084.646.259.822.166.166.41.257.745.257.29 0 .553-.052.8-.152.24-.097.455-.222.628-.376.175-.152.316-.317.406-.495.1-.183.153-.361.153-.524v-4.721h1.634v7.451H99.78zM68.44 50.179a2.894 2.894 0 0 0-.426-.821 2.645 2.645 0 0 0-.598-.599c-.221-.17-.45-.294-.682-.383l1.735-1.159h-2.261l-1.5 1.388c.819.238 1.395.568 1.737 1.004.35.426.52.955.52 1.59 0 .385-.066.723-.2 1.018a2.13 2.13 0 0 1-.543.73 2.215 2.215 0 0 1-.777.429c-.306.089-.609.126-.926.109v-6.268h-1.634v7.347c.872.174 1.658.227 2.36.162.704-.063 1.303-.242 1.8-.532.497-.298.88-.692 1.148-1.192.272-.498.404-1.105.404-1.803 0-.377-.053-.715-.156-1.02M108.94 48.335a2.31 2.31 0 0 0-.753-.736 3.329 3.329 0 0 0-1.008-.394 4.658 4.658 0 0 0-2.101 0 3.38 3.38 0 0 0-1.018.394c-.31.182-.566.428-.772.736-.21.294-.301.659-.301 1.105v4.037h-.873v1.191h2.509v-5.136c0-.205.049-.387.138-.538.096-.138.216-.253.355-.34.143-.091.303-.154.48-.196.182-.04.351-.056.518-.056.172 0 .348.016.528.056.175.042.333.105.479.197.144.086.262.2.353.339a.96.96 0 0 1 .145.538v5.136h1.625V49.44c0-.446-.1-.81-.305-1.105M10.504 55.423v1.109h.882v1.213h1.637v-2.322zM37.25 47.217v6.177h-1.287c-.223.009-.449 0-.672-.014a2.099 2.099 0 0 1-.612-.14 1.174 1.174 0 0 1-.448-.35c-.112-.158-.172-.334-.172-.61 0-.213.052-.414.16-.583.106-.164.253-.307.437-.416.193-.108.42-.187.684-.236.185-.039.395-.054.607-.054h.322l-.002-1.135h-.784c-.123.007-.255 0-.377-.016a2.07 2.07 0 0 1-.474-.114.85.85 0 0 1-.33-.241.6.6 0 0 1-.128-.387c0-.145.049-.261.15-.369.1-.104.222-.212.388-.271.17-.056.355-.09.569-.092.205 0 .423.024.642.077v-1.277a5.409 5.409 0 0 0-1.314-.024c-.409.057-.765.155-1.066.312-.309.16-.548.373-.73.632-.18.274-.266.613-.266.972 0 .197.034.388.11.551.082.169.176.318.3.437.117.13.25.228.4.308.149.084.293.136.439.157a2.477 2.477 0 0 0-.47.229 1.914 1.914 0 0 0-.762.93 1.751 1.751 0 0 0-.129.699c0 .489.087.862.264 1.168.185.304.414.543.715.706.29.178.625.286 1.003.345.375.063.762.083 1.165.08h3.293v-7.451H37.25zM115.069 47.217v6.177h-1.288c-.22.009-.445 0-.673-.014a2.15 2.15 0 0 1-.608-.14 1.12 1.12 0 0 1-.44-.35c-.117-.158-.176-.334-.176-.61 0-.213.048-.414.161-.583a1.28 1.28 0 0 1 .436-.416c.19-.108.413-.187.677-.236.194-.039.393-.054.61-.054h.32v-1.135h-.784a2.195 2.195 0 0 1-.854-.13.905.905 0 0 1-.328-.241.598.598 0 0 1-.12-.387.5.5 0 0 1 .147-.369.937.937 0 0 1 .389-.271c.16-.056.346-.09.562-.092.205 0 .422.024.646.077v-1.277a5.393 5.393 0 0 0-1.313-.024c-.404.057-.771.155-1.074.312-.306.16-.545.373-.725.632-.178.274-.27.613-.27.972 0 .197.038.388.118.551a1.573 1.573 0 0 0 .692.745c.156.084.295.136.444.157-.15.056-.304.126-.468.229a1.745 1.745 0 0 0-.436.381 1.994 1.994 0 0 0-.334.548 1.807 1.807 0 0 0-.127.7c0 .489.092.862.273 1.168.18.304.411.543.7.706.298.178.632.286 1.014.345.373.063.758.083 1.164.08h3.295v-7.451h-1.63zM21.845 43.172h-2.483l-.854 1.006h3.003c.59.04.887.221.887.517 0 .168-.087.357-.249.57-.312.41-.467.878-.467 1.2v8.203h1.632l-.008-8.045c0-.484.247-.86.393-1.095.23-.39.385-.635.385-1.048 0-.875-.745-1.308-2.239-1.308M19.906 49.04c-.177-.48-.422-.866-.748-1.167a2.753 2.753 0 0 0-1.23-.63c-.488-.13-1.048-.178-1.695-.146v1.305c.443 0 .803.054 1.098.154.292.108.527.255.706.453.177.204.308.453.381.745.074.292.11.652.11 1.038 0 .453-.048.884-.166 1.201-.118.33-.269.595-.474.8-.203.216-.437.388-.701.483-.265.1-.457.139-.88.164l-.975-6.343-1.306 1.56.995 6.036c.892.107 1.55.102 2.21-.022.66-.122 1.208-.354 1.644-.693.427-.339.75-.772.967-1.31.21-.541.322-1.168.322-1.894 0-.675-.089-1.253-.258-1.733M56.309 45.293l-.853 1.013h6.146v-1.013zM96.125 45.293h-3.929v-.733H90.55v1.746h4.728zM111.155 45.293h-3.915v-.733h-1.65v1.746h4.728zM86.764 48.732h-1.31v-.655H83.82v1.726h2.045zM86.764 52.658h-1.31v-.653H83.82v1.722h2.045z"/>
    </g>
</svg>
