<svg width="312" height="500" viewBox="0 0 312 500" xmlns="http://www.w3.org/2000/svg" xmlns:xlink="http://www.w3.org/1999/xlink">
    <defs>
        <path id="qdxpd1xzoa" d="M0 0h312v500H0z"/>
    </defs>
    <g fill="none" fill-rule="evenodd">
        <mask id="swf32uzfib" fill="#fff">
            <use xlink:href="#qdxpd1xzoa"/>
        </mask>
        <path d="M259.737 200.632c0 134.158-107.67 243.168-241.311 245.335l-4.058.033C-121.145 446-231 336.145-231 200.632v-.28h127.228v.166c0 80.304 65.1 145.404 145.404 145.404s145.403-65.1 145.403-145.404v-.165h72.702v.279zM223.386-18C258.519-18 287 10.481 287 45.614v.145c0 34.781-27.914 63.043-62.562 63.605l-1.052.009c-35.133 0-63.614-28.481-63.614-63.614v-.145c0-35.133 28.48-63.614 63.614-63.614zm-295.35 0c35.132 0 63.613 28.481 63.613 63.614v.145c0 34.781-27.914 63.043-62.562 63.605l-1.052.009c-35.133 0-63.614-28.481-63.614-63.614v-.145c0-35.133 28.481-63.614 63.614-63.614z" stroke="#71716C" mask="url(#swf32uzfib)"/>
    </g>
</svg>
